<svg xmlns="http://www.w3.org/2000/svg" xmlns:xlink="http://www.w3.org/1999/xlink" viewBox="0 0 1024 711"><g opacity=".31"><defs><path id="a" transform="rotate(-172.35 670.765 239.603)" d="M541.566 198.955h258.4v81.292h-258.4z"/></defs><clipPath id="b"><use xlink:href="#a" overflow="visible"/></clipPath><path clip-path="url(#b)" fill="#F7F7F8" d="M793.406 299.495s-90.287-40.288-167.478-49.026c-77.19-8.743-85.376-9.545-85.376-9.545s47.656-27.3 97.21-.035c7.355-9.89 19.777-1.38 19.777-1.38s12.376-41.65 52.663-33.04 76.91 38.88 56.854 64.776c22.088-1.712 26.35 28.25 26.35 28.25"/></g><path opacity=".2" fill="#F7F7F8" d="M977.854 141.427c18-20.16-10.405-47.185-43.072-56.588C902.118 75.432 889.535 109 889.535 109s-9.735-7.72-16.358 0c-39.22-25.293-36.848-4.572-36.848-4.572s-36.48.14 26.554 11.776c63.032 11.634 135.034 49.988 135.034 49.988s-1.788-24.904-20.064-24.767z"/><g opacity=".5"><defs><path id="c" transform="scale(-1) rotate(-2.75 -5718.236 14341.08)" d="M214.064 96.317h260.642v81.997H214.064z"/></defs><clipPath id="d"><use xlink:href="#c" overflow="visible"/></clipPath><path clip-path="url(#d)" fill="#F7F7F8" d="M216.182 186.614s94.204-32.713 172.54-34.85c78.328-2.135 86.62-2.237 86.62-2.237s-45.54-31.543-97.692-8.408c-6.54-10.572-19.755-3.093-19.755-3.093s-8.85-42.92-50.083-37.737c-41.227 5.185-80.64 32.45-62.717 60.204-22.047-3.624-28.913 26.12-28.913 26.12"/></g><g opacity=".5"><defs><path id="e" transform="rotate(-173.668 499.34 482.103)" d="M349.028 434.82h300.624v94.575H349.028z"/></defs><clipPath id="f"><use xlink:href="#e" overflow="visible"/></clipPath><path clip-path="url(#f)" fill="#F7F7F8" d="M344.345 514.898s113.252-20.095 202.856-8.254c89.602 11.84 99.065 13.233 99.065 13.233s-46.12-44.224-109.732-27.377c-5.523-13.23-21.937-7.12-21.937-7.12s-2.26-50.493-50.165-52.104c-47.898-1.606-97.752 22.267-82.398 57.14-24.448-8.143-37.687 24.482-37.687 24.482"/></g><path fill="#F7F7F8" d="M26.083 128.095s62.954-31.82 117.667-40.708c54.707-8.887 24.88-9.06 24.88-9.06s.727-18.497-33.65 2.64c-5.58-6.79-14.137-.3-14.137-.3s-10.256-29.254-38.673-21.73c-28.41 7.522-54.674 26.735-39.49 44.5-15.797-.462-16.597 24.658-16.597 24.658M973.35 483.042c16.62-18.615-9.608-43.565-39.77-52.248-30.16-8.686-41.778 22.31-41.778 22.31s-8.99-7.127-15.104 0c-36.214-23.354-34.023-4.222-34.023-4.222s-33.682.13 24.518 10.874c58.2 10.742 124.682 46.155 124.682 46.155s-1.65-22.994-18.526-22.868zM861.945 664.307c11.69-13.093-6.758-30.642-27.973-36.75-21.212-6.107-29.384 15.693-29.384 15.693s-6.323-5.014-10.624 0c-25.472-16.426-23.93-2.97-23.93-2.97s-23.69.09 17.245 7.647c40.934 7.556 87.694 32.465 87.694 32.465s-1.16-16.174-13.03-16.085zM34.698 449.35s58.127-29.38 108.646-37.586c50.513-8.206 22.97-8.367 22.97-8.367s.674-17.078-31.067 2.44c-5.153-6.272-13.053-.28-13.053-.28s-9.47-27.01-35.708-20.063c-26.23 6.946-50.48 24.685-36.462 41.088-14.587-.427-15.326 22.768-15.326 22.768M96.996 660.87s54.533-27.56 101.927-35.26c47.39-7.7 21.55-7.85 21.55-7.85s.632-16.022-29.146 2.288c-4.834-5.883-12.246-.262-12.246-.262s-8.883-25.34-33.5-18.822c-24.607 6.517-47.36 23.157-34.207 38.546-13.684-.398-14.377 21.36-14.377 21.36" opacity=".2"/></svg>