<svg xmlns="http://www.w3.org/2000/svg" xmlns:xlink="http://www.w3.org/1999/xlink" viewBox="0 0 320 223.043"><defs><path id="a" d="M-12.194-3090.076h320v6650h-320z"/></defs><clipPath id="b"><use xlink:href="#a" overflow="visible"/></clipPath><g clip-path="url(#b)"><defs><path id="c" d="M141.806 8.924h148v212h-148z"/></defs><clipPath id="d"><use xlink:href="#c" overflow="visible"/></clipPath><g clip-path="url(#d)"><defs><path id="e" d="M140.806 8.924h149v214h-149z"/></defs><clipPath id="f"><use xlink:href="#e" overflow="visible"/></clipPath><g clip-path="url(#f)"><defs><path id="g" d="M141.806 8.924h148v212h-148z"/></defs><clipPath id="h"><use xlink:href="#g" overflow="visible"/></clipPath><g clip-path="url(#h)"><defs><path id="i" d="M220.387 83.645l-3.12-.284-3.118-.285-15.365 136.197 6.017.546 6.016.55z"/></defs><clipPath id="j"><use xlink:href="#i" overflow="visible"/></clipPath><g clip-path="url(#j)"><defs><path id="k" d="M140.806 8.924h149v214h-149z"/></defs><clipPath id="l"><use xlink:href="#k" overflow="visible"/></clipPath><path clip-path="url(#l)" fill="#FAFFF8" d="M193.785 78.075h31.602v147.293h-31.602z"/></g></g><g clip-path="url(#h)"><defs><path id="m" d="M140.806 8.924h149v214h-149z"/></defs><clipPath id="n"><use xlink:href="#m" overflow="visible"/></clipPath><g opacity=".1" clip-path="url(#n)"><defs><path id="o" d="M204.806 82.924h16v138h-16z"/></defs><clipPath id="p"><use xlink:href="#o" overflow="visible"/></clipPath><g clip-path="url(#p)"><defs><path id="q" d="M204.802 219.818l6.016.55 9.57-136.723-3.12-.284z"/></defs><clipPath id="r"><use xlink:href="#q" overflow="visible"/></clipPath><g clip-path="url(#r)"><defs><path id="s" d="M203.806 81.924h18v139h-18z"/></defs><clipPath id="t"><use xlink:href="#s" overflow="visible"/></clipPath><path clip-path="url(#t)" d="M199.802 78.36h25.585V225.37h-25.585z"/></g></g></g></g><g clip-path="url(#h)"><defs><ellipse id="u" cx="217.134" cy="84.816" rx="6.382" ry="6.376"/></defs><clipPath id="v"><use xlink:href="#u" overflow="visible"/></clipPath><g clip-path="url(#v)"><defs><path id="w" d="M140.806 8.924h149v214h-149z"/></defs><clipPath id="x"><use xlink:href="#w" overflow="visible"/></clipPath><path clip-path="url(#x)" fill="#5595E4" d="M205.752 73.44h22.765v22.753h-22.765z"/></g></g><g clip-path="url(#h)"><defs><path id="y" d="M140.806 8.924h149v214h-149z"/></defs><clipPath id="z"><use xlink:href="#y" overflow="visible"/></clipPath><ellipse clip-path="url(#z)" fill="none" stroke="#FFF" stroke-width="1.872" stroke-miterlimit="10" cx="217.134" cy="84.816" rx="6.382" ry="6.376"/></g><g clip-path="url(#h)"><defs><path id="A" d="M140.806 8.924h149v214h-149z"/></defs><clipPath id="B"><use xlink:href="#A" overflow="visible"/></clipPath><g opacity=".1" clip-path="url(#B)"><defs><path id="C" d="M215.806 77.924h9v14h-9z"/></defs><clipPath id="D"><use xlink:href="#C" overflow="visible"/></clipPath><g clip-path="url(#D)"><defs><path id="E" d="M217.715 78.463l-1.16 12.704a6.38 6.38 0 0 0 6.936-5.77 6.38 6.38 0 0 0-5.775-6.934z"/></defs><clipPath id="F"><use xlink:href="#E" overflow="visible"/></clipPath><g clip-path="url(#F)"><defs><path id="G" d="M215.806 77.924h9v15h-9z"/></defs><clipPath id="H"><use xlink:href="#G" overflow="visible"/></clipPath><path clip-path="url(#H)" d="M211.556 73.463h16.962v22.73h-16.962z"/></g></g></g></g><g clip-path="url(#h)"><defs><circle id="I" cx="217.134" cy="84.816" r="3.222"/></defs><clipPath id="J"><use xlink:href="#I" overflow="visible"/></clipPath><g clip-path="url(#J)"><defs><path id="K" d="M140.806 8.924h149v214h-149z"/></defs><clipPath id="L"><use xlink:href="#K" overflow="visible"/></clipPath><path clip-path="url(#L)" fill="#FAFFF8" d="M208.91 76.595h16.45V93.04h-16.45z"/></g></g><g clip-path="url(#h)"><defs><path id="M" d="M140.806 8.924h149v214h-149z"/></defs><clipPath id="N"><use xlink:href="#M" overflow="visible"/></clipPath><g opacity=".1" clip-path="url(#N)"><defs><path id="O" d="M216.806 80.924h4v8h-4z"/></defs><clipPath id="P"><use xlink:href="#O" overflow="visible"/></clipPath><g clip-path="url(#P)"><defs><path id="Q" d="M217.428 81.608l-.586 6.417a3.225 3.225 0 0 0 3.506-2.915 3.223 3.223 0 0 0-2.92-3.502z"/></defs><clipPath id="R"><use xlink:href="#Q" overflow="visible"/></clipPath><g clip-path="url(#R)"><defs><path id="S" d="M215.806 80.924h6v9h-6z"/></defs><clipPath id="T"><use xlink:href="#S" overflow="visible"/></clipPath><path clip-path="url(#T)" d="M211.842 76.608h13.52v16.43h-13.52z"/></g></g></g></g><g clip-path="url(#h)"><defs><path id="U" d="M222.02 74.882a3.957 3.957 0 0 1-4.305 3.58 3.957 3.957 0 0 1-3.586-4.3l4.806-52.612c.197-2.174 2.938-12.672 5.118-12.476 2.18.198 2.968 11.022 2.77 13.198l-4.804 52.61z"/></defs><clipPath id="V"><use xlink:href="#U" overflow="visible"/></clipPath><g clip-path="url(#V)"><defs><path id="W" d="M140.806 8.924h149v214h-149z"/></defs><clipPath id="X"><use xlink:href="#W" overflow="visible"/></clipPath><path clip-path="url(#X)" fill="#FAFFF8" d="M209.112 4.07h22.74v79.41h-22.74z"/></g></g><g clip-path="url(#h)"><defs><path id="Y" d="M140.806 8.924h149v214h-149z"/></defs><clipPath id="Z"><use xlink:href="#Y" overflow="visible"/></clipPath><g opacity=".1" clip-path="url(#Z)"><defs><path id="aa" d="M216.806 8.924h11v70h-11z"/></defs><clipPath id="ab"><use xlink:href="#aa" overflow="visible"/></clipPath><g clip-path="url(#ab)"><defs><path id="ac" d="M224.056 9.074l-6.34 69.39a3.957 3.957 0 0 0 4.304-3.582l4.805-52.61c.2-2.176-.59-12.998-2.77-13.198z"/></defs><clipPath id="ad"><use xlink:href="#ac" overflow="visible"/></clipPath><g clip-path="url(#ad)"><defs><path id="ae" d="M216.806 8.924h11v70h-11z"/></defs><clipPath id="af"><use xlink:href="#ae" overflow="visible"/></clipPath><path clip-path="url(#af)" d="M212.715 4.074h19.14V83.48h-19.14z"/></g></g></g></g><g clip-path="url(#h)"><defs><path id="ag" d="M206.108 83.39a3.96 3.96 0 0 1 4.646 3.13 3.962 3.962 0 0 1-3.137 4.64l-51.908 10.06c-2.15.414-13.005.716-13.423-1.43-.414-2.148 9.764-5.924 11.912-6.343l51.908-10.056z"/></defs><clipPath id="ah"><use xlink:href="#ag" overflow="visible"/></clipPath><g clip-path="url(#ah)"><defs><path id="ai" d="M140.806 8.924h149v214h-149z"/></defs><clipPath id="aj"><use xlink:href="#ai" overflow="visible"/></clipPath><path clip-path="url(#aj)" fill="#FAFFF8" d="M137.275 78.316h78.552v28.2h-78.552z"/></g></g><g clip-path="url(#h)"><defs><path id="ak" d="M140.806 8.924h149v214h-149z"/></defs><clipPath id="al"><use xlink:href="#ak" overflow="visible"/></clipPath><g opacity=".1" clip-path="url(#al)"><defs><path id="am" d="M141.806 82.924h69v17h-69z"/></defs><clipPath id="an"><use xlink:href="#am" overflow="visible"/></clipPath><g clip-path="url(#an)"><defs><path id="ao" d="M142.287 99.79l68.47-13.273a3.96 3.96 0 0 0-4.647-3.128L154.2 93.446c-2.15.42-12.327 4.195-11.913 6.343z"/></defs><clipPath id="ap"><use xlink:href="#ao" overflow="visible"/></clipPath><g clip-path="url(#ap)"><defs><path id="aq" d="M141.806 81.924h70v18h-70z"/></defs><clipPath id="ar"><use xlink:href="#aq" overflow="visible"/></clipPath><path clip-path="url(#ar)" d="M137.275 78.314h78.48v26.475h-78.48z"/></g></g></g></g><g clip-path="url(#h)"><defs><path id="as" d="M228.238 85.406a3.96 3.96 0 1 0-2.893 7.37l49.228 19.282c2.037.797 12.66 3.055 13.46 1.023.8-2.038-8.528-7.59-10.565-8.39l-49.23-19.284z"/></defs><clipPath id="at"><use xlink:href="#as" overflow="visible"/></clipPath><g clip-path="url(#at)"><defs><path id="au" d="M140.806 8.924h149v214h-149z"/></defs><clipPath id="av"><use xlink:href="#au" overflow="visible"/></clipPath><path clip-path="url(#av)" fill="#FAFFF8" d="M217.83 80.13h75.25v38.777h-75.25z"/></g></g><g clip-path="url(#h)"><defs><path id="aw" d="M140.806 8.924h149v214h-149z"/></defs><clipPath id="ax"><use xlink:href="#aw" overflow="visible"/></clipPath><g opacity=".1" clip-path="url(#ax)"><defs><path id="ay" d="M222.806 83.924h66v30h-66z"/></defs><clipPath id="az"><use xlink:href="#ay" overflow="visible"/></clipPath><g clip-path="url(#az)"><defs><path id="aA" d="M288.032 113.08l-64.927-25.435a3.96 3.96 0 0 1 5.133-2.24l49.23 19.284c2.037.8 11.364 6.352 10.564 8.39z"/></defs><clipPath id="aB"><use xlink:href="#aA" overflow="visible"/></clipPath><g clip-path="url(#aB)"><defs><path id="aC" d="M221.806 83.924h67v30h-67z"/></defs><clipPath id="aD"><use xlink:href="#aC" overflow="visible"/></clipPath><path clip-path="url(#aD)" d="M218.105 80.13h74.976v37.95h-74.975z"/></g></g></g></g></g></g></g><defs><path id="aE" d="M-12.194-3090.076h320v6650h-320z"/></defs><clipPath id="aF"><use xlink:href="#aE" overflow="visible"/></clipPath><g clip-path="url(#aF)"><defs><path id="aG" d="M196.806 76.924h29v145h-29z"/></defs><clipPath id="aH"><use xlink:href="#aG" overflow="visible"/></clipPath><g clip-path="url(#aH)"><defs><path id="aI" d="M196.806 76.924h29v145h-29z"/></defs><clipPath id="aJ"><use xlink:href="#aI" overflow="visible"/></clipPath><path clip-path="url(#aJ)" fill="none" stroke="#422B2C" stroke-width="1.872" stroke-miterlimit="10" d="M223.492 85.396a6.383 6.383 0 0 0-12.712-1.162 6.36 6.36 0 0 0 2.594 5.723l-14.59 129.314 6.018.547 6.015.55 9.086-129.815a6.36 6.36 0 0 0 3.59-5.156z"/></g></g><defs><path id="aK" d="M-12.194-3090.076h320v6650h-320z"/></defs><clipPath id="aL"><use xlink:href="#aK" overflow="visible"/></clipPath><g clip-path="url(#aL)"><defs><path id="aM" d="M212.806 7.924h16v72h-16z"/></defs><clipPath id="aN"><use xlink:href="#aM" overflow="visible"/></clipPath><g clip-path="url(#aN)"><defs><path id="aO" d="M212.806 7.924h16v72h-16z"/></defs><clipPath id="aP"><use xlink:href="#aO" overflow="visible"/></clipPath><path clip-path="url(#aP)" fill="none" stroke="#422B2C" stroke-width="1.872" stroke-miterlimit="10" d="M222.02 74.882l4.805-52.61c.2-2.176-.592-12.998-2.77-13.198-2.182-.196-4.922 10.302-5.118 12.476l-4.807 52.612a3.957 3.957 0 0 0 3.586 4.3 3.957 3.957 0 0 0 4.304-3.58z"/></g></g><defs><path id="aQ" d="M-12.194-3090.076h320v6650h-320z"/></defs><clipPath id="aR"><use xlink:href="#aQ" overflow="visible"/></clipPath><g clip-path="url(#aR)"><defs><path id="aS" d="M140.806 81.924h72v21h-72z"/></defs><clipPath id="aT"><use xlink:href="#aS" overflow="visible"/></clipPath><g clip-path="url(#aT)"><defs><path id="aU" d="M140.806 81.924h72v21h-72z"/></defs><clipPath id="aV"><use xlink:href="#aU" overflow="visible"/></clipPath><path clip-path="url(#aV)" fill="none" stroke="#422B2C" stroke-width="1.872" stroke-miterlimit="10" d="M210.754 86.52a3.96 3.96 0 0 0-4.646-3.13l-51.91 10.06c-2.148.418-12.326 4.192-11.912 6.342.418 2.144 11.274 1.843 13.422 1.43l51.908-10.06a3.966 3.966 0 0 0 3.138-4.643z"/></g></g><defs><path id="aW" d="M-12.194-3090.076h320v6650h-320z"/></defs><clipPath id="aX"><use xlink:href="#aW" overflow="visible"/></clipPath><g clip-path="url(#aX)"><defs><path id="aY" d="M220.806 83.924h69v31h-69z"/></defs><clipPath id="aZ"><use xlink:href="#aY" overflow="visible"/></clipPath><g clip-path="url(#aZ)"><defs><path id="ba" d="M220.806 83.924h69v31h-69z"/></defs><clipPath id="bb"><use xlink:href="#ba" overflow="visible"/></clipPath><path clip-path="url(#bb)" fill="none" stroke="#422B2C" stroke-width="1.872" stroke-miterlimit="10" d="M277.468 104.69l-49.23-19.284a3.96 3.96 0 1 0-2.893 7.37l49.228 19.282c2.038.797 12.66 3.055 13.46 1.023.8-2.038-8.528-7.59-10.565-8.39z"/></g></g><defs><path id="bc" d="M61.53 219.83h195.73v2.76H61.53z"/></defs><clipPath id="bd"><use xlink:href="#bc" overflow="visible"/></clipPath><g clip-path="url(#bd)"><defs><path id="be" d="M-.593-3064h320v6650h-320z"/></defs><clipPath id="bf"><use xlink:href="#be" overflow="visible"/></clipPath><path clip-path="url(#bf)" fill="#422B2C" d="M56.53 214.83h205.73v12.76H56.53z"/></g><defs><path id="bg" d="M31.386 198.386s-3.967.325-6.06 2.7c-1.72 1.95-.393 4.62-.393 4.62s2.82.978 4.538-.973c2.095-2.374 1.916-6.347 1.916-6.347"/></defs><clipPath id="bh"><use xlink:href="#bg" overflow="visible"/></clipPath><g clip-path="url(#bh)"><defs><path id="bi" d="M-.593-3064h320v6650h-320z"/></defs><clipPath id="bj"><use xlink:href="#bi" overflow="visible"/></clipPath><path clip-path="url(#bj)" fill="#80B03C" d="M19.444 193.386H36.39v17.565H19.443z"/></g><defs><path id="bk" d="M31.386 198.386l-6.453 7.32s2.82.978 4.538-.973c2.095-2.374 1.916-6.347 1.916-6.347"/></defs><clipPath id="bl"><use xlink:href="#bk" overflow="visible"/></clipPath><g clip-path="url(#bl)"><defs><path id="bm" d="M-.593-3064h320v6650h-320z"/></defs><clipPath id="bn"><use xlink:href="#bm" overflow="visible"/></clipPath><path clip-path="url(#bn)" d="M19.933 193.386H36.39v17.565H19.932z"/></g><defs><path id="bo" d="M21.168 210.208a.536.536 0 1 1-.78-.738l4.878-4.985a.538.538 0 0 1 .78.738l-4.878 4.985z"/></defs><clipPath id="bp"><use xlink:href="#bo" overflow="visible"/></clipPath><g clip-path="url(#bp)"><defs><path id="bq" d="M-.593-3064h320v6650h-320z"/></defs><clipPath id="br"><use xlink:href="#bq" overflow="visible"/></clipPath><path clip-path="url(#br)" fill="#5F7332" d="M15.24 199.318h15.954v16.058H15.24z"/></g><defs><path id="bs" d="M10.46 189.435s3.852.316 5.885 2.623c1.668 1.893.38 4.486.38 4.486s-2.738.948-4.406-.946c-2.033-2.305-1.86-6.163-1.86-6.163"/></defs><clipPath id="bt"><use xlink:href="#bs" overflow="visible"/></clipPath><g clip-path="url(#bt)"><defs><path id="bu" d="M-.593-3064h320v6650h-320z"/></defs><clipPath id="bv"><use xlink:href="#bu" overflow="visible"/></clipPath><path clip-path="url(#bv)" fill="#80B03C" d="M5.458 184.435H22.2v17.346H5.46z"/></g><defs><path id="bw" d="M10.46 189.435l6.266 7.11s-2.738.947-4.406-.947c-2.033-2.305-1.86-6.163-1.86-6.163"/></defs><clipPath id="bx"><use xlink:href="#bw" overflow="visible"/></clipPath><g clip-path="url(#bx)"><defs><path id="by" d="M-.593-3064h320v6650h-320z"/></defs><clipPath id="bz"><use xlink:href="#by" overflow="visible"/></clipPath><path clip-path="url(#bz)" d="M5.458 184.435h16.27v17.346H5.457z"/></g><defs><path id="bA" d="M20.382 200.915a.52.52 0 0 0 .757-.717l-4.737-4.84a.522.522 0 0 0-.758.716l4.737 4.84z"/></defs><clipPath id="bB"><use xlink:href="#bA" overflow="visible"/></clipPath><g clip-path="url(#bB)"><defs><path id="bC" d="M-.593-3064h320v6650h-320z"/></defs><clipPath id="bD"><use xlink:href="#bC" overflow="visible"/></clipPath><path clip-path="url(#bD)" fill="#5F7332" d="M10.503 190.195h15.78v15.882h-15.78z"/></g><defs><path id="bE" d="M12.596 200.948s2.478-.18 3.997 1.086c1.247 1.037.684 2.812.684 2.812s-1.646.872-2.893-.167c-1.52-1.266-1.788-3.732-1.788-3.732"/></defs><clipPath id="bF"><use xlink:href="#bE" overflow="visible"/></clipPath><g clip-path="url(#bF)"><defs><path id="bG" d="M-.593-3064h320v6650h-320z"/></defs><clipPath id="bH"><use xlink:href="#bG" overflow="visible"/></clipPath><path clip-path="url(#bH)" fill="#80B03C" d="M7.596 195.94h14.808v14.248H7.596z"/></g><defs><path id="bI" d="M12.596 200.948l4.68 3.898s-1.645.872-2.892-.167c-1.52-1.266-1.788-3.732-1.788-3.732"/></defs><clipPath id="bJ"><use xlink:href="#bI" overflow="visible"/></clipPath><g clip-path="url(#bJ)"><defs><path id="bK" d="M-.593-3064h320v6650h-320z"/></defs><clipPath id="bL"><use xlink:href="#bK" overflow="visible"/></clipPath><path clip-path="url(#bL)" d="M7.596 195.948h14.68v14.24H7.597z"/></g><defs><path id="bM" d="M20.03 207.263a.335.335 0 1 0 .41-.53l-3.486-2.61a.334.334 0 1 0-.41.53l3.486 2.61z"/></defs><clipPath id="bN"><use xlink:href="#bM" overflow="visible"/></clipPath><g clip-path="url(#bN)"><defs><path id="bO" d="M-.593-3064h320v6650h-320z"/></defs><clipPath id="bP"><use xlink:href="#bO" overflow="visible"/></clipPath><path clip-path="url(#bP)" fill="#5F7332" d="M11.414 199.054H25.57v13.28H11.415z"/></g><defs><path id="bQ" d="M29.39 193.147s-2.667-.33-4.38.95c-1.403 1.053-.895 3-.895 3s1.73 1.033 3.133-.018c1.712-1.284 2.14-3.933 2.14-3.933"/></defs><clipPath id="bR"><use xlink:href="#bQ" overflow="visible"/></clipPath><g clip-path="url(#bR)"><defs><path id="bS" d="M-.593-3064h320v6650h-320z"/></defs><clipPath id="bT"><use xlink:href="#bS" overflow="visible"/></clipPath><path clip-path="url(#bT)" fill="#80B03C" d="M19.026 188.108H34.39v14.443H19.025z"/></g><defs><path id="bU" d="M29.39 193.147l-5.274 3.95s1.73 1.033 3.133-.018c1.71-1.284 2.14-3.933 2.14-3.933"/></defs><clipPath id="bV"><use xlink:href="#bU" overflow="visible"/></clipPath><g clip-path="url(#bV)"><defs><path id="bW" d="M-.593-3064h320v6650h-320z"/></defs><clipPath id="bX"><use xlink:href="#bW" overflow="visible"/></clipPath><path clip-path="url(#bX)" d="M19.116 188.147H34.39v14.404H19.115z"/></g><defs><path id="bY" d="M21.008 199.554a.362.362 0 0 1-.414-.595l3.91-2.624a.364.364 0 0 1 .415.596l-3.912 2.624z"/></defs><clipPath id="bZ"><use xlink:href="#bY" overflow="visible"/></clipPath><g clip-path="url(#bZ)"><defs><path id="ca" d="M-.593-3064h320v6650h-320z"/></defs><clipPath id="cb"><use xlink:href="#ca" overflow="visible"/></clipPath><path clip-path="url(#cb)" fill="#5F7332" d="M15.44 191.27h14.635v13.35H15.44z"/></g><defs><path id="cc" d="M20.15 185.27s-1.99 2.55-1.85 5.25c.113 2.216 2.28 3.07 2.28 3.07s2.067-1.072 1.953-3.288c-.138-2.7-2.382-5.033-2.382-5.033"/></defs><clipPath id="cd"><use xlink:href="#cc" overflow="visible"/></clipPath><g clip-path="url(#cd)"><defs><path id="ce" d="M-.593-3064h320v6650h-320z"/></defs><clipPath id="cf"><use xlink:href="#ce" overflow="visible"/></clipPath><path clip-path="url(#cf)" fill="#80B03C" d="M13.294 180.27H27.54v18.32H13.293z"/></g><defs><path id="cg" d="M20.15 185.27l.43 8.32s2.067-1.072 1.953-3.288c-.138-2.7-2.382-5.033-2.382-5.033"/></defs><clipPath id="ch"><use xlink:href="#cg" overflow="visible"/></clipPath><g clip-path="url(#ch)"><defs><path id="ci" d="M-.593-3064h320v6650h-320z"/></defs><clipPath id="cj"><use xlink:href="#ci" overflow="visible"/></clipPath><path clip-path="url(#cj)" d="M15.15 180.27H27.54v18.32H15.15z"/></g><defs><path id="ck" d="M21.036 197.72a.412.412 0 0 1-.825.014l.004-5.35a.41.41 0 0 1 .406-.417.415.415 0 0 1 .42.406l-.004 5.348z"/></defs><clipPath id="cl"><use xlink:href="#ck" overflow="visible"/></clipPath><g clip-path="url(#cl)"><defs><path id="cm" d="M-.593-3064h320v6650h-320z"/></defs><clipPath id="cn"><use xlink:href="#cm" overflow="visible"/></clipPath><path clip-path="url(#cn)" fill="#5F7332" d="M15.212 186.967H26.04v16.17H15.21z"/></g><g><defs><path id="co" d="M21.367 215.393v-18.42a.742.742 0 0 0-1.484 0v18.42h1.484z"/></defs><clipPath id="cp"><use xlink:href="#co" overflow="visible"/></clipPath><g clip-path="url(#cp)"><defs><path id="cq" d="M-.593-3064h320v6650h-320z"/></defs><clipPath id="cr"><use xlink:href="#cq" overflow="visible"/></clipPath><path clip-path="url(#cr)" fill="#5F7332" d="M14.883 191.23h11.483v29.163H14.883z"/></g></g><g><defs><path id="cs" d="M24.894 199.218a1.223 1.223 0 1 1-2.395-.5 1.223 1.223 0 0 1 2.394.5"/></defs><clipPath id="ct"><use xlink:href="#cs" overflow="visible"/></clipPath><g clip-path="url(#ct)"><defs><path id="cu" d="M-.593-3064h320v6650h-320z"/></defs><clipPath id="cv"><use xlink:href="#cu" overflow="visible"/></clipPath><path clip-path="url(#cv)" fill="#C66E3D" d="M17.47 192.746h12.45v12.445H17.47z"/></g></g><g><defs><path id="cw" d="M18.573 206.62a1.223 1.223 0 1 1 0 0"/></defs><clipPath id="cx"><use xlink:href="#cw" overflow="visible"/></clipPath><g clip-path="url(#cx)"><defs><path id="cy" d="M-.593-3064h320v6650h-320z"/></defs><clipPath id="cz"><use xlink:href="#cy" overflow="visible"/></clipPath><path clip-path="url(#cz)" fill="#C66E3D" d="M11.14 200.584h12.447v12.445H11.14z"/></g></g><g><defs><path id="cA" d="M18.463 199.102a1.224 1.224 0 0 1-2.448 0 1.223 1.223 0 0 1 2.448 0"/></defs><clipPath id="cB"><use xlink:href="#cA" overflow="visible"/></clipPath><g clip-path="url(#cB)"><defs><path id="cC" d="M-.593-3064h320v6650h-320z"/></defs><clipPath id="cD"><use xlink:href="#cC" overflow="visible"/></clipPath><path clip-path="url(#cD)" fill="#C66E3D" d="M11.015 192.88h12.448v12.445H11.015z"/></g></g><g><defs><path id="cE" d="M26.138 208.057c0 .676-.55 1.222-1.224 1.222a1.223 1.223 0 1 1 0-2.445c.675 0 1.224.547 1.224 1.222"/></defs><clipPath id="cF"><use xlink:href="#cE" overflow="visible"/></clipPath><g clip-path="url(#cF)"><defs><path id="cG" d="M-.593-3064h320v6650h-320z"/></defs><clipPath id="cH"><use xlink:href="#cG" overflow="visible"/></clipPath><path clip-path="url(#cH)" fill="#C66E3D" d="M18.69 201.835h12.447v12.444H18.69z"/></g></g><g><defs><path id="cI" d="M379.653 232.283a6.373 6.373 0 0 1-6.375 6.368c-3.52 0-6.376-2.85-6.376-6.367s2.855-6.368 6.376-6.368a6.373 6.373 0 0 1 6.375 6.368"/></defs><clipPath id="cJ"><use xlink:href="#cI" overflow="visible"/></clipPath><g clip-path="url(#cJ)"><defs><path id="cK" d="M-.593-3064h320v6650h-320z"/></defs><clipPath id="cL"><use xlink:href="#cK" overflow="visible"/></clipPath><path clip-path="url(#cL)" fill="#97723F" d="M361.902 220.915h22.75v22.736h-22.75z"/></g></g><g><defs><path id="cM" d="M351.04 237.896a3.378 3.378 0 0 1-3.378 3.376c-1.866 0-3.38-1.512-3.38-3.376s1.514-3.375 3.38-3.375c1.866 0 3.38 1.512 3.38 3.376"/></defs><clipPath id="cN"><use xlink:href="#cM" overflow="visible"/></clipPath><g clip-path="url(#cN)"><defs><path id="cO" d="M-.593-3064h320v6650h-320z"/></defs><clipPath id="cP"><use xlink:href="#cO" overflow="visible"/></clipPath><path clip-path="url(#cP)" fill="#97723F" d="M339.283 229.52h16.758v16.752h-16.757z"/></g></g><g><defs><path id="cQ" d="M-14.143 201.523h403.407v20.52H-14.143z"/></defs><clipPath id="cR"><use xlink:href="#cQ" overflow="visible"/></clipPath><g clip-path="url(#cR)"><defs><path id="cS" d="M-.593-3064h320v6650h-320z"/></defs><clipPath id="cT"><use xlink:href="#cS" overflow="visible"/></clipPath><g clip-path="url(#cT)"><defs><path id="cU" d="M-.593 201h320v22h-320z"/></defs><clipPath id="cV"><use xlink:href="#cU" overflow="visible"/></clipPath><g clip-path="url(#cV)"><defs><path id="cW" d="M460.194 211.783c0 5.667-4.6 10.26-10.273 10.26H-14.933c-5.673 0-10.27-4.593-10.27-10.26s4.597-10.26 10.27-10.26h464.856c5.672 0 10.272 4.593 10.272 10.26"/></defs><clipPath id="cX"><use xlink:href="#cW" overflow="visible"/></clipPath><g clip-path="url(#cX)"><defs><path id="cY" d="M-.593 201h320v22h-320z"/></defs><clipPath id="cZ"><use xlink:href="#cY" overflow="visible"/></clipPath><path clip-path="url(#cZ)" fill="#8BA967" d="M-30.206 196.523h495.4v30.52h-495.4z"/></g></g></g></g></g><g><defs><path id="da" d="M-14.143 213.263h403.407v10.26H-14.143z"/></defs><clipPath id="db"><use xlink:href="#da" overflow="visible"/></clipPath><g clip-path="url(#db)"><defs><path id="dc" d="M-.593-3062.52h320v6650h-320z"/></defs><clipPath id="dd"><use xlink:href="#dc" overflow="visible"/></clipPath><g clip-path="url(#dd)"><defs><path id="de" d="M-.593 212.48h320v12h-320z"/></defs><clipPath id="df"><use xlink:href="#de" overflow="visible"/></clipPath><g clip-path="url(#df)"><defs><path id="dg" d="M-14.934 223.523h464.856c5.673 0 10.273-4.593 10.273-10.26h-485.4c0 5.667 4.597 10.26 10.27 10.26"/></defs><clipPath id="dh"><use xlink:href="#dg" overflow="visible"/></clipPath><g clip-path="url(#dh)"><defs><path id="di" d="M-.593 212.48h320v12h-320z"/></defs><clipPath id="dj"><use xlink:href="#di" overflow="visible"/></clipPath><path clip-path="url(#dj)" fill="#7F9D52" d="M-30.205 208.263h495.4v20.26h-495.4z"/></g></g></g></g></g><g><defs><path id="dk" d="M333.95 238.99a1.273 1.273 0 1 1-2.544-.002 1.273 1.273 0 0 1 2.545.003"/></defs><clipPath id="dl"><use xlink:href="#dk" overflow="visible"/></clipPath><g clip-path="url(#dl)"><defs><path id="dm" d="M-.593-3064h320v6650h-320z"/></defs><clipPath id="dn"><use xlink:href="#dm" overflow="visible"/></clipPath><path clip-path="url(#dn)" fill="#97723F" d="M326.407 232.72h12.544v12.542h-12.543z"/></g></g><g><defs><path id="do" d="M352.27 273.28a4.376 4.376 0 0 0 4.377 4.372 4.377 4.377 0 0 0 4.378-4.373 4.375 4.375 0 0 0-4.378-4.374 4.375 4.375 0 0 0-4.378 4.373"/></defs><clipPath id="dp"><use xlink:href="#do" overflow="visible"/></clipPath><g clip-path="url(#dp)"><defs><path id="dq" d="M-.593-3064h320v6650h-320z"/></defs><clipPath id="dr"><use xlink:href="#dq" overflow="visible"/></clipPath><path clip-path="url(#dr)" fill="#97723F" d="M347.27 263.906h18.754v18.746H347.27z"/></g></g><g><defs><path id="ds" d="M330.797 284.713c0 3.33 2.7 6.025 6.032 6.025a6.027 6.027 0 0 0 6.03-6.025c0-3.327-2.7-6.025-6.03-6.025a6.03 6.03 0 0 0-6.033 6.025"/></defs><clipPath id="dt"><use xlink:href="#ds" overflow="visible"/></clipPath><g clip-path="url(#dt)"><defs><path id="du" d="M-.593-3064h320v6650h-320z"/></defs><clipPath id="dv"><use xlink:href="#du" overflow="visible"/></clipPath><path clip-path="url(#dv)" fill="#694B26" d="M325.797 273.688h22.064v22.05h-22.063z"/></g></g><g><defs><path id="dw" d="M325.214 265.182a7.37 7.37 0 0 0 7.373 7.366c4.072 0 7.373-3.298 7.373-7.366s-3.302-7.366-7.373-7.366a7.37 7.37 0 0 0-7.373 7.366"/></defs><clipPath id="dx"><use xlink:href="#dw" overflow="visible"/></clipPath><g clip-path="url(#dx)"><defs><path id="dy" d="M-.593-3064h320v6650h-320z"/></defs><clipPath id="dz"><use xlink:href="#dy" overflow="visible"/></clipPath><path clip-path="url(#dz)" fill="#97723F" d="M320.214 252.816h24.747v24.732h-24.746z"/></g></g><g><defs><path id="dA" d="M365.61 274.84a3.377 3.377 0 0 0 3.38 3.375c1.866 0 3.38-1.51 3.38-3.375s-1.514-3.376-3.38-3.376a3.378 3.378 0 0 0-3.38 3.376"/></defs><clipPath id="dB"><use xlink:href="#dA" overflow="visible"/></clipPath><g clip-path="url(#dB)"><defs><path id="dC" d="M-.593-3064h320v6650h-320z"/></defs><clipPath id="dD"><use xlink:href="#dC" overflow="visible"/></clipPath><path clip-path="url(#dD)" fill="#97723F" d="M360.61 266.464h16.76v16.75h-16.76z"/></g></g><g><defs><path id="dE" d="M368.748 273.602a1.27 1.27 0 1 0 2.543 0 1.27 1.27 0 0 0-2.542 0"/></defs><clipPath id="dF"><use xlink:href="#dE" overflow="visible"/></clipPath><g clip-path="url(#dF)"><defs><path id="dG" d="M-.593-3064h320v6650h-320z"/></defs><clipPath id="dH"><use xlink:href="#dG" overflow="visible"/></clipPath><path clip-path="url(#dH)" fill="#694B26" d="M363.748 267.33h12.544v12.544h-12.544z"/></g></g><g><defs><path id="dI" d="M346.266 276.14a1.272 1.272 0 1 0 2.544 0 1.272 1.272 0 0 0-2.544 0"/></defs><clipPath id="dJ"><use xlink:href="#dI" overflow="visible"/></clipPath><g clip-path="url(#dJ)"><defs><path id="dK" d="M-.593-3064h320v6650h-320z"/></defs><clipPath id="dL"><use xlink:href="#dK" overflow="visible"/></clipPath><path clip-path="url(#dL)" fill="#97723F" d="M341.266 269.868h12.545v12.543h-12.544z"/></g></g><g><defs><path id="dM" d="M333.893 271.704c0 .702.57 1.27 1.272 1.27a1.27 1.27 0 1 0 0-2.54 1.27 1.27 0 0 0-1.272 1.27"/></defs><clipPath id="dN"><use xlink:href="#dM" overflow="visible"/></clipPath><g clip-path="url(#dN)"><defs><path id="dO" d="M-.593-3064h320v6650h-320z"/></defs><clipPath id="dP"><use xlink:href="#dO" overflow="visible"/></clipPath><path clip-path="url(#dP)" fill="#97723F" d="M328.893 265.433h12.544v12.54h-12.544z"/></g></g><g><defs><path id="dQ" d="M328.33 318.282a4.376 4.376 0 0 0 4.38 4.373 4.377 4.377 0 0 0 4.377-4.373 4.375 4.375 0 0 0-4.378-4.373 4.374 4.374 0 0 0-4.38 4.372"/></defs><clipPath id="dR"><use xlink:href="#dQ" overflow="visible"/></clipPath><g clip-path="url(#dR)"><defs><path id="dS" d="M-.593-3064h320v6650h-320z"/></defs><clipPath id="dT"><use xlink:href="#dS" overflow="visible"/></clipPath><path clip-path="url(#dT)" fill="#97723F" d="M323.33 308.91h18.756v18.745H323.33z"/></g></g><g><defs><path id="dU" d="M341.672 319.842a3.378 3.378 0 0 0 3.38 3.376c1.865 0 3.378-1.512 3.378-3.376s-1.513-3.375-3.38-3.375a3.377 3.377 0 0 0-3.378 3.375"/></defs><clipPath id="dV"><use xlink:href="#dU" overflow="visible"/></clipPath><g clip-path="url(#dV)"><defs><path id="dW" d="M-.593-3064h320v6650h-320z"/></defs><clipPath id="dX"><use xlink:href="#dW" overflow="visible"/></clipPath><path clip-path="url(#dX)" fill="#97723F" d="M336.672 311.467h16.758v16.75h-16.758z"/></g></g><g><defs><path id="dY" d="M344.81 318.605a1.27 1.27 0 1 0 1.272-1.272c-.704 0-1.273.57-1.273 1.272"/></defs><clipPath id="dZ"><use xlink:href="#dY" overflow="visible"/></clipPath><g clip-path="url(#dZ)"><defs><path id="ea" d="M-.593-3064h320v6650h-320z"/></defs><clipPath id="eb"><use xlink:href="#ea" overflow="visible"/></clipPath><path clip-path="url(#eb)" fill="#694B26" d="M339.81 312.333h12.543v12.543H339.81z"/></g></g><g><defs><path id="ec" d="M322.327 321.142a1.272 1.272 0 1 0 2.545-.003 1.272 1.272 0 0 0-2.545.002"/></defs><clipPath id="ed"><use xlink:href="#ec" overflow="visible"/></clipPath><g clip-path="url(#ed)"><defs><path id="ee" d="M-.593-3064h320v6650h-320z"/></defs><clipPath id="ef"><use xlink:href="#ee" overflow="visible"/></clipPath><path clip-path="url(#ef)" fill="#97723F" d="M317.327 314.87h12.545v12.543h-12.545z"/></g></g><g><defs><path id="eg" d="M-.593-3064h320v6650h-320z"/></defs><clipPath id="eh"><use xlink:href="#eg" overflow="visible"/></clipPath><g clip-path="url(#eh)"><defs><path id="ei" d="M-.593 186h320v26h-320z"/></defs><clipPath id="ej"><use xlink:href="#ei" overflow="visible"/></clipPath><g clip-path="url(#ej)"><defs><path id="ek" d="M-.593 186h320v26h-320z"/></defs><clipPath id="el"><use xlink:href="#ek" overflow="visible"/></clipPath><path clip-path="url(#el)" fill="none" stroke="#422B2C" stroke-linejoin="round" stroke-miterlimit="10" d="M437.886 211.2c-.038-5.348-4.388-9.668-9.75-9.668H30.477c.405-1.612.342-3.023.342-3.023s-3.766.308-5.754 2.563c-.13.15-.24.302-.337.458H21.27v-2.116l1.17-.786a1.158 1.158 0 0 0 .84 1.57 1.162 1.162 0 0 0 .245-2.297l.696-.467c.536.23 1.687.57 2.67-.167 1.625-1.217 2.032-3.733 2.032-3.733s-2.53-.313-4.156.903c-.932.698-.977 1.81-.92 2.418l-2.578 1.73v-1.418a.702.702 0 0 0-.276-.56l.002-2.937c.57-.436 1.495-1.374 1.42-2.835-.132-2.563-2.262-4.778-2.262-4.778s-1.89 2.42-1.757 4.985c.08 1.555 1.224 2.404 1.815 2.74l-.002 2.79a.702.702 0 0 0-.324.595V199l-2.764-2.824c.26-.838.523-2.418-.584-3.673-1.93-2.19-5.586-2.49-5.586-2.49s-.166 3.663 1.765 5.85c1.17 1.327 2.89 1.185 3.71 1.02l1.14 1.163a1.16 1.16 0 1 0 .972.994l1.347 1.378v1.117H16.1c-1.4-.715-3.117-.59-3.117-.59s.025.234.106.59h-28.202"/></g></g></g><g><defs><path id="em" d="M229.263-3095.9h320v6650h-320z"/></defs></g><g><defs><path id="en" d="M229.263-3095.9h320v6650h-320z"/></defs></g><g><defs><path id="eo" d="M229.263-3095.9h320v6650h-320z"/></defs></g><g><defs><path id="ep" d="M229.263-3095.9h320v6650h-320z"/></defs></g><g><defs><path id="eq" d="M229.263-3095.9h320v6650h-320z"/></defs></g><g><defs><path id="er" d="M229.263-3095.9h320v6650h-320z"/></defs></g><g><defs><path id="es" d="M229.263-3095.9h320v6650h-320z"/></defs></g><g><defs><path id="et" d="M229.263-3095.9h320v6650h-320z"/></defs></g><g><defs><path id="eu" d="M229.263-3095.9h320v6650h-320z"/></defs></g><g><defs><path id="ev" d="M229.263-3095.9h320v6650h-320z"/></defs></g><g><defs><path id="ew" d="M229.263-3095.9h320v6650h-320z"/></defs></g><g><defs><path id="ex" d="M229.263-3095.9h320v6650h-320z"/></defs></g><g><defs><path id="ey" d="M229.263-3095.9h320v6650h-320z"/></defs></g><g><defs><path id="ez" d="M229.263-3095.9h320v6650h-320z"/></defs></g><g><defs><path id="eA" d="M229.263-3095.9h320v6650h-320z"/></defs></g><g><defs><path id="eB" d="M229.263-3095.9h320v6650h-320z"/></defs></g><g><defs><path id="eC" d="M229.263-3095.9h320v6650h-320z"/></defs></g><g><defs><path id="eD" d="M229.263-3095.9h320v6650h-320z"/></defs></g></svg>