<svg xmlns="http://www.w3.org/2000/svg" xmlns:xlink="http://www.w3.org/1999/xlink" viewBox="0 0 320 223.043"><defs><path id="a" d="M92.133 159.34s-10.498.86-16.038 7.148c-4.547 5.157-1.036 12.223-1.036 12.223s7.46 2.59 12.008-2.574c5.54-6.283 5.065-16.796 5.065-16.796"/></defs><clipPath id="b"><use xlink:href="#a" overflow="visible"/></clipPath><g clip-path="url(#b)"><defs><path id="c" d="M7.51-8473.642H854.3V9123.702H7.51z"/></defs><clipPath id="d"><use xlink:href="#c" overflow="visible"/></clipPath><path clip-path="url(#d)" fill="#80B03C" d="M60.534 146.11h44.84v46.48h-44.84z"/></g><defs><path id="e" d="M92.133 159.34l-17.075 19.37s7.462 2.588 12.01-2.575c5.54-6.282 5.065-16.795 5.065-16.795"/></defs><clipPath id="f"><use xlink:href="#e" overflow="visible"/></clipPath><g clip-path="url(#f)"><defs><path id="g" d="M7.51-8473.642H854.3V9123.702H7.51z"/></defs><clipPath id="h"><use xlink:href="#g" overflow="visible"/></clipPath><path clip-path="url(#h)" d="M61.827 146.11h43.547v46.48H61.827z"/></g><defs><path id="i" d="M65.095 190.624a1.422 1.422 0 0 1-2.065-1.953l12.91-13.19a1.423 1.423 0 0 1 2.065 1.953l-12.91 13.19z"/></defs><clipPath id="j"><use xlink:href="#i" overflow="visible"/></clipPath><g clip-path="url(#j)"><defs><path id="k" d="M7.51-8473.642H854.3V9123.702H7.51z"/></defs><clipPath id="l"><use xlink:href="#k" overflow="visible"/></clipPath><path clip-path="url(#l)" fill="#5F7332" d="M49.41 161.806h42.215V204.3H49.41z"/></g><defs><path id="m" d="M36.763 135.654s10.19.836 15.57 6.94c4.416 5.01 1.008 11.872 1.008 11.872s-7.245 2.51-11.658-2.503c-5.382-6.1-4.92-16.31-4.92-16.31"/></defs><clipPath id="n"><use xlink:href="#m" overflow="visible"/></clipPath><g clip-path="url(#n)"><defs><path id="o" d="M7.51-8473.642H854.3V9123.702H7.51z"/></defs><clipPath id="p"><use xlink:href="#o" overflow="visible"/></clipPath><path clip-path="url(#p)" fill="#80B03C" d="M23.522 122.423h44.305v45.9H23.522z"/></g><defs><path id="q" d="M36.763 135.654l16.578 18.812s-7.245 2.51-11.658-2.503c-5.382-6.1-4.92-16.31-4.92-16.31"/></defs><clipPath id="r"><use xlink:href="#q" overflow="visible"/></clipPath><g clip-path="url(#r)"><defs><path id="s" d="M7.51-8473.642H854.3V9123.702H7.51z"/></defs><clipPath id="t"><use xlink:href="#s" overflow="visible"/></clipPath><path clip-path="url(#t)" d="M23.522 122.423h43.05v45.9h-43.05z"/></g><defs><path id="u" d="M63.015 166.032a1.38 1.38 0 0 0 2.004-1.898l-12.533-12.808a1.38 1.38 0 0 0-2.006 1.895l12.535 12.812z"/></defs><clipPath id="v"><use xlink:href="#u" overflow="visible"/></clipPath><g clip-path="url(#v)"><defs><path id="w" d="M7.51-8473.642H854.3V9123.702H7.51z"/></defs><clipPath id="x"><use xlink:href="#w" overflow="visible"/></clipPath><path clip-path="url(#x)" fill="#5F7332" d="M36.872 137.665h41.756v42.027H36.872z"/></g><defs><path id="y" d="M42.41 166.12s6.556-.48 10.577 2.874c3.3 2.744 1.81 7.44 1.81 7.44s-4.357 2.31-7.655-.44c-4.02-3.35-4.732-9.874-4.732-9.874"/></defs><clipPath id="z"><use xlink:href="#y" overflow="visible"/></clipPath><g clip-path="url(#z)"><defs><path id="A" d="M7.51-8473.642H854.3V9123.702H7.51z"/></defs><clipPath id="B"><use xlink:href="#A" overflow="visible"/></clipPath><path clip-path="url(#B)" fill="#80B03C" d="M29.18 152.865h39.184v37.706H29.18z"/></g><defs><path id="C" d="M42.41 166.12l12.387 10.315s-4.357 2.308-7.655-.442c-4.02-3.348-4.732-9.873-4.732-9.873"/></defs><clipPath id="D"><use xlink:href="#C" overflow="visible"/></clipPath><g clip-path="url(#D)"><defs><path id="E" d="M7.51-8473.642H854.3V9123.702H7.51z"/></defs><clipPath id="F"><use xlink:href="#E" overflow="visible"/></clipPath><path clip-path="url(#F)" d="M29.18 152.888h38.85v37.682H29.18z"/></g><defs><path id="G" d="M62.084 182.83a.888.888 0 0 0 1.088-1.405l-9.226-6.9a.886.886 0 0 0-1.244.158.884.884 0 0 0 .16 1.244l9.222 6.903z"/></defs><clipPath id="H"><use xlink:href="#G" overflow="visible"/></clipPath><g clip-path="url(#H)"><defs><path id="I" d="M7.51-8473.642H854.3V9123.702H7.51z"/></defs><clipPath id="J"><use xlink:href="#I" overflow="visible"/></clipPath><path clip-path="url(#J)" fill="#5F7332" d="M39.283 161.108h37.463v35.14H39.283z"/></g><defs><path id="K" d="M86.85 145.476s-7.054-.873-11.585 2.514c-3.714 2.786-2.37 7.94-2.37 7.94s4.577 2.732 8.292-.05c4.53-3.394 5.663-10.404 5.663-10.404"/></defs><clipPath id="L"><use xlink:href="#K" overflow="visible"/></clipPath><g clip-path="url(#L)"><defs><path id="M" d="M7.51-8473.642H854.3V9123.702H7.51z"/></defs><clipPath id="N"><use xlink:href="#M" overflow="visible"/></clipPath><path clip-path="url(#N)" fill="#80B03C" d="M59.427 132.142h40.654v38.22H59.428z"/></g><defs><path id="O" d="M86.85 145.476L72.895 155.93s4.577 2.732 8.292-.05c4.53-3.394 5.663-10.404 5.663-10.404"/></defs><clipPath id="P"><use xlink:href="#O" overflow="visible"/></clipPath><g clip-path="url(#P)"><defs><path id="Q" d="M7.51-8473.642H854.3V9123.702H7.51z"/></defs><clipPath id="R"><use xlink:href="#Q" overflow="visible"/></clipPath><path clip-path="url(#R)" d="M59.664 132.245h40.417v38.116H59.665z"/></g><defs><path id="S" d="M64.67 162.43a.96.96 0 0 1-1.095-1.575l10.35-6.943a.963.963 0 0 1 1.336.24.96.96 0 0 1-.24 1.337l-10.35 6.94z"/></defs><clipPath id="T"><use xlink:href="#S" overflow="visible"/></clipPath><g clip-path="url(#T)"><defs><path id="U" d="M7.51-8473.642H854.3V9123.702H7.51z"/></defs><clipPath id="V"><use xlink:href="#U" overflow="visible"/></clipPath><path clip-path="url(#V)" fill="#5F7332" d="M49.934 140.512h38.73v35.322h-38.73z"/></g><defs><path id="W" d="M62.405 124.63s-5.266 6.748-4.897 13.895c.3 5.864 6.036 8.126 6.036 8.126s5.468-2.838 5.166-8.702c-.367-7.145-6.305-13.318-6.305-13.318"/></defs><clipPath id="X"><use xlink:href="#W" overflow="visible"/></clipPath><g clip-path="url(#X)"><defs><path id="Y" d="M7.51-8473.642H854.3V9123.702H7.51z"/></defs><clipPath id="Z"><use xlink:href="#Y" overflow="visible"/></clipPath><path clip-path="url(#Z)" fill="#80B03C" d="M44.258 111.4h37.694v48.483H44.258z"/></g><defs><path id="aa" d="M62.405 124.63l1.14 22.022s5.467-2.84 5.165-8.703c-.367-7.147-6.305-13.32-6.305-13.32"/></defs><clipPath id="ab"><use xlink:href="#aa" overflow="visible"/></clipPath><g clip-path="url(#ab)"><defs><path id="ac" d="M7.51-8473.642H854.3V9123.702H7.51z"/></defs><clipPath id="ad"><use xlink:href="#ac" overflow="visible"/></clipPath><path clip-path="url(#ad)" d="M49.174 111.4h32.778v48.483H49.174z"/></g><defs><path id="ae" d="M64.746 157.58c.01.6-.474 1.096-1.074 1.103a1.083 1.083 0 0 1-1.108-1.07l.008-14.156c-.008-.6.47-1.093 1.073-1.103a1.096 1.096 0 0 1 1.108 1.074l-.007 14.152z"/></defs><clipPath id="af"><use xlink:href="#ae" overflow="visible"/></clipPath><g clip-path="url(#af)"><defs><path id="ag" d="M7.51-8473.642H854.3V9123.702H7.51z"/></defs><clipPath id="ah"><use xlink:href="#ag" overflow="visible"/></clipPath><path clip-path="url(#ah)" fill="#5F7332" d="M49.333 129.123h28.65v42.792h-28.65z"/></g><defs><path id="ai" d="M65.62 204.344V155.6a1.965 1.965 0 0 0-1.962-1.963c-1.083 0-1.962.88-1.962 1.964v48.744h3.925z"/></defs><clipPath id="aj"><use xlink:href="#ai" overflow="visible"/></clipPath><g clip-path="url(#aj)"><defs><path id="ak" d="M7.51-8473.642H854.3V9123.702H7.51z"/></defs><clipPath id="al"><use xlink:href="#ak" overflow="visible"/></clipPath><path clip-path="url(#al)" fill="#5F7332" d="M48.464 140.406H78.85v77.17H48.465z"/></g><defs><path id="am" d="M74.954 161.542a3.24 3.24 0 0 1-3.833 2.506 3.23 3.23 0 0 1-2.508-3.824 3.238 3.238 0 0 1 3.83-2.51 3.237 3.237 0 0 1 2.512 3.828"/></defs><clipPath id="an"><use xlink:href="#am" overflow="visible"/></clipPath><g clip-path="url(#an)"><defs><path id="ao" d="M7.51-8473.642H854.3V9123.702H7.51z"/></defs><clipPath id="ap"><use xlink:href="#ao" overflow="visible"/></clipPath><path clip-path="url(#ap)" fill="#C66E3D" d="M55.312 144.415h32.94v32.932h-32.94z"/></g><defs><path id="aq" d="M58.228 181.126a3.232 3.232 0 0 1-2.702 3.692 3.234 3.234 0 1 1-.994-6.39 3.236 3.236 0 0 1 3.696 2.698"/></defs><clipPath id="ar"><use xlink:href="#aq" overflow="visible"/></clipPath><g clip-path="url(#ar)"><defs><path id="as" d="M7.51-8473.642H854.3V9123.702H7.51z"/></defs><clipPath id="at"><use xlink:href="#as" overflow="visible"/></clipPath><path clip-path="url(#at)" fill="#C66E3D" d="M38.56 165.156h32.938v32.932h-32.94z"/></g><defs><path id="au" d="M57.938 161.235a3.238 3.238 0 0 1-3.24 3.236 3.236 3.236 0 1 1 0-6.47 3.237 3.237 0 0 1 3.24 3.235"/></defs><clipPath id="av"><use xlink:href="#au" overflow="visible"/></clipPath><g clip-path="url(#av)"><defs><path id="aw" d="M7.51-8473.642H854.3V9123.702H7.51z"/></defs><clipPath id="ax"><use xlink:href="#aw" overflow="visible"/></clipPath><path clip-path="url(#ax)" fill="#C66E3D" d="M38.23 144.77h32.94v32.932H38.23z"/></g><defs><path id="ay" d="M78.246 184.932a3.236 3.236 0 0 1-3.24 3.234 3.235 3.235 0 0 1-3.24-3.234 3.238 3.238 0 0 1 3.24-3.234 3.237 3.237 0 0 1 3.24 3.234"/></defs><clipPath id="az"><use xlink:href="#ay" overflow="visible"/></clipPath><g clip-path="url(#az)"><defs><path id="aA" d="M7.51-8473.642H854.3V9123.702H7.51z"/></defs><clipPath id="aB"><use xlink:href="#aA" overflow="visible"/></clipPath><path clip-path="url(#aB)" fill="#C66E3D" d="M58.536 168.467h32.94v32.93h-32.94z"/></g><defs><path id="aC" d="M92.133 159.34s-10.498.86-16.038 7.148c-4.547 5.157-1.036 12.223-1.036 12.223s7.46 2.59 12.008-2.574c5.54-6.283 5.065-16.796 5.065-16.796"/></defs><clipPath id="aD"><use xlink:href="#aC" overflow="visible"/></clipPath><g clip-path="url(#aD)"><defs><path id="aE" d="M7.51-8473.642H854.3V9123.702H7.51z"/></defs><clipPath id="aF"><use xlink:href="#aE" overflow="visible"/></clipPath><path clip-path="url(#aF)" fill="#80B03C" d="M60.534 146.11h44.84v46.48h-44.84z"/></g><defs><path id="aG" d="M92.133 159.34l-17.075 19.37s7.462 2.588 12.01-2.575c5.54-6.282 5.065-16.795 5.065-16.795"/></defs><clipPath id="aH"><use xlink:href="#aG" overflow="visible"/></clipPath><g clip-path="url(#aH)"><defs><path id="aI" d="M7.51-8473.642H854.3V9123.702H7.51z"/></defs><clipPath id="aJ"><use xlink:href="#aI" overflow="visible"/></clipPath><path clip-path="url(#aJ)" d="M61.827 146.11h43.547v46.48H61.827z"/></g><defs><path id="aK" d="M65.095 190.624a1.422 1.422 0 0 1-2.065-1.953l12.91-13.19a1.423 1.423 0 0 1 2.065 1.953l-12.91 13.19z"/></defs><clipPath id="aL"><use xlink:href="#aK" overflow="visible"/></clipPath><g clip-path="url(#aL)"><defs><path id="aM" d="M7.51-8473.642H854.3V9123.702H7.51z"/></defs><clipPath id="aN"><use xlink:href="#aM" overflow="visible"/></clipPath><path clip-path="url(#aN)" fill="#5F7332" d="M49.41 161.806h42.215V204.3H49.41z"/></g><defs><path id="aO" d="M36.763 135.654s10.19.836 15.57 6.94c4.416 5.01 1.008 11.872 1.008 11.872s-7.245 2.51-11.658-2.503c-5.382-6.1-4.92-16.31-4.92-16.31"/></defs><clipPath id="aP"><use xlink:href="#aO" overflow="visible"/></clipPath><g clip-path="url(#aP)"><defs><path id="aQ" d="M7.51-8473.642H854.3V9123.702H7.51z"/></defs><clipPath id="aR"><use xlink:href="#aQ" overflow="visible"/></clipPath><path clip-path="url(#aR)" fill="#80B03C" d="M23.522 122.423h44.305v45.9H23.522z"/></g><defs><path id="aS" d="M36.763 135.654l16.578 18.812s-7.245 2.51-11.658-2.503c-5.382-6.1-4.92-16.31-4.92-16.31"/></defs><clipPath id="aT"><use xlink:href="#aS" overflow="visible"/></clipPath><g clip-path="url(#aT)"><defs><path id="aU" d="M7.51-8473.642H854.3V9123.702H7.51z"/></defs><clipPath id="aV"><use xlink:href="#aU" overflow="visible"/></clipPath><path clip-path="url(#aV)" d="M23.522 122.423h43.05v45.9h-43.05z"/></g><defs><path id="aW" d="M63.015 166.032a1.38 1.38 0 0 0 2.004-1.898l-12.533-12.808a1.38 1.38 0 0 0-2.006 1.895l12.535 12.812z"/></defs><clipPath id="aX"><use xlink:href="#aW" overflow="visible"/></clipPath><g clip-path="url(#aX)"><defs><path id="aY" d="M7.51-8473.642H854.3V9123.702H7.51z"/></defs><clipPath id="aZ"><use xlink:href="#aY" overflow="visible"/></clipPath><path clip-path="url(#aZ)" fill="#5F7332" d="M36.872 137.665h41.756v42.027H36.872z"/></g><defs><path id="ba" d="M42.41 166.12s6.556-.48 10.577 2.874c3.3 2.744 1.81 7.44 1.81 7.44s-4.357 2.31-7.655-.44c-4.02-3.35-4.732-9.874-4.732-9.874"/></defs><clipPath id="bb"><use xlink:href="#ba" overflow="visible"/></clipPath><g clip-path="url(#bb)"><defs><path id="bc" d="M7.51-8473.642H854.3V9123.702H7.51z"/></defs><clipPath id="bd"><use xlink:href="#bc" overflow="visible"/></clipPath><path clip-path="url(#bd)" fill="#80B03C" d="M29.18 152.865h39.184v37.706H29.18z"/></g><defs><path id="be" d="M42.41 166.12l12.387 10.315s-4.357 2.308-7.655-.442c-4.02-3.348-4.732-9.873-4.732-9.873"/></defs><clipPath id="bf"><use xlink:href="#be" overflow="visible"/></clipPath><g clip-path="url(#bf)"><defs><path id="bg" d="M7.51-8473.642H854.3V9123.702H7.51z"/></defs><clipPath id="bh"><use xlink:href="#bg" overflow="visible"/></clipPath><path clip-path="url(#bh)" d="M29.18 152.888h38.85v37.682H29.18z"/></g><defs><path id="bi" d="M62.084 182.83a.888.888 0 0 0 1.088-1.405l-9.226-6.9a.886.886 0 0 0-1.244.158.884.884 0 0 0 .16 1.244l9.222 6.903z"/></defs><clipPath id="bj"><use xlink:href="#bi" overflow="visible"/></clipPath><g clip-path="url(#bj)"><defs><path id="bk" d="M7.51-8473.642H854.3V9123.702H7.51z"/></defs><clipPath id="bl"><use xlink:href="#bk" overflow="visible"/></clipPath><path clip-path="url(#bl)" fill="#5F7332" d="M39.283 161.108h37.463v35.14H39.283z"/></g><defs><path id="bm" d="M86.85 145.476s-7.054-.873-11.585 2.514c-3.714 2.786-2.37 7.94-2.37 7.94s4.577 2.732 8.292-.05c4.53-3.394 5.663-10.404 5.663-10.404"/></defs><clipPath id="bn"><use xlink:href="#bm" overflow="visible"/></clipPath><g clip-path="url(#bn)"><defs><path id="bo" d="M7.51-8473.642H854.3V9123.702H7.51z"/></defs><clipPath id="bp"><use xlink:href="#bo" overflow="visible"/></clipPath><path clip-path="url(#bp)" fill="#80B03C" d="M59.427 132.142h40.654v38.22H59.428z"/></g><defs><path id="bq" d="M86.85 145.476L72.895 155.93s4.577 2.732 8.292-.05c4.53-3.394 5.663-10.404 5.663-10.404"/></defs><clipPath id="br"><use xlink:href="#bq" overflow="visible"/></clipPath><g clip-path="url(#br)"><defs><path id="bs" d="M7.51-8473.642H854.3V9123.702H7.51z"/></defs><clipPath id="bt"><use xlink:href="#bs" overflow="visible"/></clipPath><path clip-path="url(#bt)" d="M59.664 132.245h40.417v38.116H59.665z"/></g><defs><path id="bu" d="M64.67 162.43a.96.96 0 0 1-1.095-1.575l10.35-6.943a.963.963 0 0 1 1.336.24.96.96 0 0 1-.24 1.337l-10.35 6.94z"/></defs><clipPath id="bv"><use xlink:href="#bu" overflow="visible"/></clipPath><g clip-path="url(#bv)"><defs><path id="bw" d="M7.51-8473.642H854.3V9123.702H7.51z"/></defs><clipPath id="bx"><use xlink:href="#bw" overflow="visible"/></clipPath><path clip-path="url(#bx)" fill="#5F7332" d="M49.934 140.512h38.73v35.322h-38.73z"/></g><defs><path id="by" d="M62.405 124.63s-5.266 6.748-4.897 13.895c.3 5.864 6.036 8.126 6.036 8.126s5.468-2.838 5.166-8.702c-.367-7.145-6.305-13.318-6.305-13.318"/></defs><clipPath id="bz"><use xlink:href="#by" overflow="visible"/></clipPath><g clip-path="url(#bz)"><defs><path id="bA" d="M7.51-8473.642H854.3V9123.702H7.51z"/></defs><clipPath id="bB"><use xlink:href="#bA" overflow="visible"/></clipPath><path clip-path="url(#bB)" fill="#80B03C" d="M44.258 111.4h37.694v48.483H44.258z"/></g><defs><path id="bC" d="M62.405 124.63l1.14 22.022s5.467-2.84 5.165-8.703c-.367-7.147-6.305-13.32-6.305-13.32"/></defs><clipPath id="bD"><use xlink:href="#bC" overflow="visible"/></clipPath><g clip-path="url(#bD)"><defs><path id="bE" d="M7.51-8473.642H854.3V9123.702H7.51z"/></defs><clipPath id="bF"><use xlink:href="#bE" overflow="visible"/></clipPath><path clip-path="url(#bF)" d="M49.174 111.4h32.778v48.483H49.174z"/></g><g><defs><path id="bG" d="M64.746 157.58c.01.6-.474 1.096-1.074 1.103a1.083 1.083 0 0 1-1.108-1.07l.008-14.156c-.008-.6.47-1.093 1.073-1.103a1.096 1.096 0 0 1 1.108 1.074l-.007 14.152z"/></defs><clipPath id="bH"><use xlink:href="#bG" overflow="visible"/></clipPath><g clip-path="url(#bH)"><defs><path id="bI" d="M7.51-8473.642H854.3V9123.702H7.51z"/></defs><clipPath id="bJ"><use xlink:href="#bI" overflow="visible"/></clipPath><path clip-path="url(#bJ)" fill="#5F7332" d="M49.333 129.123h28.65v42.792h-28.65z"/></g></g><g><defs><path id="bK" d="M65.62 204.344V155.6a1.965 1.965 0 0 0-1.962-1.963c-1.083 0-1.962.88-1.962 1.964v48.744h3.925z"/></defs><clipPath id="bL"><use xlink:href="#bK" overflow="visible"/></clipPath><g clip-path="url(#bL)"><defs><path id="bM" d="M7.51-8473.642H854.3V9123.702H7.51z"/></defs><clipPath id="bN"><use xlink:href="#bM" overflow="visible"/></clipPath><path clip-path="url(#bN)" fill="#5F7332" d="M48.464 140.406H78.85v77.17H48.465z"/></g></g><g><defs><path id="bO" d="M74.954 161.542a3.24 3.24 0 0 1-3.833 2.506 3.23 3.23 0 0 1-2.508-3.824 3.238 3.238 0 0 1 3.83-2.51 3.237 3.237 0 0 1 2.512 3.828"/></defs><clipPath id="bP"><use xlink:href="#bO" overflow="visible"/></clipPath><g clip-path="url(#bP)"><defs><path id="bQ" d="M7.51-8473.642H854.3V9123.702H7.51z"/></defs><clipPath id="bR"><use xlink:href="#bQ" overflow="visible"/></clipPath><path clip-path="url(#bR)" fill="#C66E3D" d="M55.312 144.415h32.94v32.932h-32.94z"/></g></g><g><defs><path id="bS" d="M58.228 181.126a3.232 3.232 0 0 1-2.702 3.692 3.234 3.234 0 1 1-.994-6.39 3.236 3.236 0 0 1 3.696 2.698"/></defs><clipPath id="bT"><use xlink:href="#bS" overflow="visible"/></clipPath><g clip-path="url(#bT)"><defs><path id="bU" d="M7.51-8473.642H854.3V9123.702H7.51z"/></defs><clipPath id="bV"><use xlink:href="#bU" overflow="visible"/></clipPath><path clip-path="url(#bV)" fill="#C66E3D" d="M38.56 165.156h32.938v32.932h-32.94z"/></g></g><g><defs><path id="bW" d="M57.938 161.235a3.238 3.238 0 0 1-3.24 3.236 3.236 3.236 0 1 1 0-6.47 3.237 3.237 0 0 1 3.24 3.235"/></defs><clipPath id="bX"><use xlink:href="#bW" overflow="visible"/></clipPath><g clip-path="url(#bX)"><defs><path id="bY" d="M7.51-8473.642H854.3V9123.702H7.51z"/></defs><clipPath id="bZ"><use xlink:href="#bY" overflow="visible"/></clipPath><path clip-path="url(#bZ)" fill="#C66E3D" d="M38.23 144.77h32.94v32.932H38.23z"/></g></g><g><defs><path id="ca" d="M78.246 184.932a3.236 3.236 0 0 1-3.24 3.234 3.235 3.235 0 0 1-3.24-3.234 3.238 3.238 0 0 1 3.24-3.234 3.237 3.237 0 0 1 3.24 3.234"/></defs><clipPath id="cb"><use xlink:href="#ca" overflow="visible"/></clipPath><g clip-path="url(#cb)"><defs><path id="cc" d="M7.51-8473.642H854.3V9123.702H7.51z"/></defs><clipPath id="cd"><use xlink:href="#cc" overflow="visible"/></clipPath><path clip-path="url(#cd)" fill="#C66E3D" d="M58.536 168.467h32.94v32.93h-32.94z"/></g></g><g fill-rule="evenodd" clip-rule="evenodd" fill="none" stroke="#472728" stroke-width="1.323" stroke-miterlimit="10"><path d="M92.44 159.324s-10.5.86-16.04 7.148c-3.18 3.608-2.418 8.14-1.673 10.544l-8.8 8.992v-24.23l3.254-2.182c-.09.204-.214.386-.26.612a3.23 3.23 0 0 0 2.508 3.824 3.24 3.24 0 0 0 3.833-2.506 3.237 3.237 0 0 0-2.51-3.827c-.25-.053-.49-.012-.734-.006l2.037-1.366c1.492.638 4.697 1.592 7.442-.463 4.53-3.395 5.663-10.405 5.663-10.405s-7.054-.873-11.585 2.514c-2.607 1.956-2.715 5.046-2.552 6.734l-7.09 4.76v-3.884c0-.67-.36-1.235-.874-1.59l.004-8.174c1.59-1.21 4.168-3.795 3.957-7.89-.366-7.144-6.304-13.317-6.304-13.317s-5.266 6.748-4.897 13.895c.222 4.342 3.416 6.7 5.063 7.637l-.005 7.852c-.513.355-.87.918-.87 1.588v5.137l-7.736-7.905c.722-2.335 1.46-6.735-1.627-10.238-5.38-6.106-15.57-6.942-15.57-6.942s-.464 10.21 4.918 16.31c3.26 3.7 8.054 3.3 10.345 2.837l3.244 3.315c-.193-.036-.37-.115-.57-.115a3.236 3.236 0 1 0 0 6.47 3.238 3.238 0 0 0 3.238-3.236c0-.176-.073-.327-.1-.495l3.858 3.943v15.638l-6.672-4.99c.232-1.55.28-4.412-2.036-6.338-4.02-3.353-10.577-2.874-10.577-2.874s.713 6.525 4.734 9.873c2.437 2.032 5.442 1.302 6.85.783l7.703 5.764v21.804h3.925V190.07l6.677-6.82c-.308.493-.532 1.042-.532 1.666a3.236 3.236 0 0 0 3.24 3.234 3.236 3.236 0 0 0 3.24-3.234 3.238 3.238 0 0 0-3.24-3.234c-.656 0-1.23.243-1.74.577l3.15-3.22c2.36.478 7.294.89 10.65-2.92 5.537-6.283 5.06-16.796 5.06-16.796z"/><path d="M54.837 178.41a3.234 3.234 0 0 0 .994 6.39 3.235 3.235 0 0 0-.994-6.39z"/></g><g><defs><path id="ce" d="M185.027 173.805s8.49.696 12.97 5.78c3.677 4.17.838 9.884.838 9.884s-6.034 2.092-9.71-2.083c-4.483-5.08-4.098-13.582-4.098-13.582"/></defs><clipPath id="cf"><use xlink:href="#ce" overflow="visible"/></clipPath><g clip-path="url(#cf)"><defs><path id="cg" d="M-431.303-6807.305h684.76V7422.888h-684.76z"/></defs><clipPath id="ch"><use xlink:href="#cg" overflow="visible"/></clipPath><path clip-path="url(#ch)" fill="#80B03C" d="M174.32 163.106h36.26v37.587h-36.26z"/></g></g><g><defs><path id="ci" d="M185.027 173.805l13.808 15.664s-6.034 2.092-9.71-2.083c-4.483-5.08-4.098-13.582-4.098-13.582"/></defs><clipPath id="cj"><use xlink:href="#ci" overflow="visible"/></clipPath><g clip-path="url(#cj)"><defs><path id="ck" d="M-431.303-6807.305h684.76V7422.888h-684.76z"/></defs><clipPath id="cl"><use xlink:href="#ck" overflow="visible"/></clipPath><path clip-path="url(#cl)" d="M174.32 163.106h35.214v37.587H174.32z"/></g></g><g><defs><path id="cm" d="M206.89 199.103a1.15 1.15 0 1 0 1.67-1.58l-10.44-10.666a1.152 1.152 0 0 0-1.625-.043c-.46.436-.48 1.16-.045 1.622l10.44 10.667z"/></defs><clipPath id="cn"><use xlink:href="#cm" overflow="visible"/></clipPath><g clip-path="url(#cn)"><defs><path id="co" d="M-431.303-6807.305h684.76V7422.888h-684.76z"/></defs><clipPath id="cp"><use xlink:href="#co" overflow="visible"/></clipPath><path clip-path="url(#cp)" fill="#5F7332" d="M185.437 175.8h34.138v34.362h-34.138z"/></g></g><g><defs><path id="cq" d="M229.802 154.652s-8.24.676-12.592 5.613c-3.57 4.05-.814 9.6-.814 9.6s5.86 2.028 9.43-2.025c4.35-4.933 3.976-13.188 3.976-13.188"/></defs><clipPath id="cr"><use xlink:href="#cq" overflow="visible"/></clipPath><g clip-path="url(#cr)"><defs><path id="cs" d="M-431.303-6807.305h684.76V7422.888h-684.76z"/></defs><clipPath id="ct"><use xlink:href="#cs" overflow="visible"/></clipPath><path clip-path="url(#ct)" fill="#80B03C" d="M204.682 143.952h35.828v37.118h-35.828z"/></g></g><g><defs><path id="cu" d="M229.802 154.652l-13.406 15.212s5.86 2.03 9.43-2.024c4.35-4.933 3.976-13.188 3.976-13.188"/></defs><clipPath id="cv"><use xlink:href="#cu" overflow="visible"/></clipPath><g clip-path="url(#cv)"><defs><path id="cw" d="M-431.303-6807.305h684.76V7422.888h-684.76z"/></defs><clipPath id="cx"><use xlink:href="#cw" overflow="visible"/></clipPath><path clip-path="url(#cx)" d="M205.697 143.952h34.813v37.118h-34.813z"/></g></g><g><defs><path id="cy" d="M208.573 179.217a1.117 1.117 0 0 1-1.62-1.535l10.133-10.357a1.117 1.117 0 0 1 1.58-.043c.447.422.466 1.128.043 1.575l-10.137 10.36z"/></defs><clipPath id="cz"><use xlink:href="#cy" overflow="visible"/></clipPath><g clip-path="url(#cz)"><defs><path id="cA" d="M-431.303-6807.305h684.76V7422.888h-684.76z"/></defs><clipPath id="cB"><use xlink:href="#cA" overflow="visible"/></clipPath><path clip-path="url(#cB)" fill="#5F7332" d="M195.948 156.278h33.766v33.986h-33.766z"/></g></g><g><defs><path id="cC" d="M225.235 179.288s-5.302-.387-8.553 2.324c-2.668 2.22-1.464 6.017-1.464 6.017s3.523 1.865 6.19-.358c3.252-2.707 3.827-7.984 3.827-7.984"/></defs><clipPath id="cD"><use xlink:href="#cC" overflow="visible"/></clipPath><g clip-path="url(#cD)"><defs><path id="cE" d="M-431.303-6807.305h684.76V7422.888h-684.76z"/></defs><clipPath id="cF"><use xlink:href="#cE" overflow="visible"/></clipPath><path clip-path="url(#cF)" fill="#80B03C" d="M204.248 168.57h31.687v30.49h-31.687z"/></g></g><g><defs><path id="cG" d="M225.235 179.288l-10.017 8.34s3.523 1.867 6.19-.356c3.252-2.707 3.827-7.984 3.827-7.984"/></defs><clipPath id="cH"><use xlink:href="#cG" overflow="visible"/></clipPath><g clip-path="url(#cH)"><defs><path id="cI" d="M-431.303-6807.305h684.76V7422.888h-684.76z"/></defs><clipPath id="cJ"><use xlink:href="#cI" overflow="visible"/></clipPath><path clip-path="url(#cJ)" d="M204.52 168.588h31.415v30.472H204.52z"/></g></g><g><defs><path id="cK" d="M209.326 192.8a.717.717 0 1 1-.88-1.135l7.462-5.58a.716.716 0 1 1 .878 1.133l-7.46 5.583z"/></defs><clipPath id="cL"><use xlink:href="#cK" overflow="visible"/></clipPath><g clip-path="url(#cL)"><defs><path id="cM" d="M-431.303-6807.305h684.76V7422.888h-684.76z"/></defs><clipPath id="cN"><use xlink:href="#cM" overflow="visible"/></clipPath><path clip-path="url(#cN)" fill="#5F7332" d="M197.47 175.235h30.295v28.416H197.47z"/></g></g><g><defs><path id="cO" d="M189.3 162.595s5.704-.706 9.367 2.033c3.003 2.253 1.917 6.422 1.917 6.422s-3.7 2.208-6.705-.04c-3.664-2.747-4.58-8.415-4.58-8.415"/></defs><clipPath id="cP"><use xlink:href="#cO" overflow="visible"/></clipPath><g clip-path="url(#cP)"><defs><path id="cQ" d="M-431.303-6807.305h684.76V7422.888h-684.76z"/></defs><clipPath id="cR"><use xlink:href="#cQ" overflow="visible"/></clipPath><path clip-path="url(#cR)" fill="#80B03C" d="M178.6 151.812h32.875v30.906H178.6z"/></g></g><g><defs><path id="cS" d="M189.3 162.595l11.283 8.455s-3.7 2.208-6.705-.04c-3.662-2.747-4.58-8.415-4.58-8.415"/></defs><clipPath id="cT"><use xlink:href="#cS" overflow="visible"/></clipPath><g clip-path="url(#cT)"><defs><path id="cU" d="M-431.303-6807.305h684.76V7422.888h-684.76z"/></defs><clipPath id="cV"><use xlink:href="#cU" overflow="visible"/></clipPath><path clip-path="url(#cV)" d="M178.6 151.895h32.683v30.823H178.6z"/></g></g><g><defs><path id="cW" d="M207.234 176.305a.777.777 0 0 0 .886-1.274l-8.368-5.615a.78.78 0 0 0-1.08.195.778.778 0 0 0 .194 1.082l8.368 5.613z"/></defs><clipPath id="cX"><use xlink:href="#cW" overflow="visible"/></clipPath><g clip-path="url(#cX)"><defs><path id="cY" d="M-431.303-6807.305h684.76V7422.888h-684.76z"/></defs><clipPath id="cZ"><use xlink:href="#cY" overflow="visible"/></clipPath><path clip-path="url(#cZ)" fill="#5F7332" d="M187.833 158.58h31.32v28.563h-31.32z"/></g></g><g><defs><path id="da" d="M209.067 145.737s4.26 5.457 3.96 11.236c-.243 4.742-4.88 6.57-4.88 6.57s-4.423-2.295-4.178-7.037c.295-5.777 5.097-10.77 5.097-10.77"/></defs><clipPath id="db"><use xlink:href="#da" overflow="visible"/></clipPath><g clip-path="url(#db)"><defs><path id="dc" d="M-431.303-6807.305h684.76V7422.888h-684.76z"/></defs><clipPath id="dd"><use xlink:href="#dc" overflow="visible"/></clipPath><path clip-path="url(#dd)" fill="#80B03C" d="M193.26 135.037h30.482v39.207H193.26z"/></g></g><g><defs><path id="de" d="M209.067 145.737l-.92 17.808s-4.423-2.296-4.178-7.038c.295-5.778 5.097-10.77 5.097-10.77"/></defs><clipPath id="df"><use xlink:href="#de" overflow="visible"/></clipPath><g clip-path="url(#df)"><defs><path id="dg" d="M-431.303-6807.305h684.76V7422.888h-684.76z"/></defs><clipPath id="dh"><use xlink:href="#dg" overflow="visible"/></clipPath><path clip-path="url(#dh)" d="M193.26 135.037h26.507v39.207H193.26z"/></g></g><g><defs><path id="di" d="M207.173 172.382a.88.88 0 0 0 .87.892c.49.01.888-.378.895-.864l-.007-11.448a.88.88 0 0 0-.867-.892.885.885 0 0 0-.896.87l.006 11.442z"/></defs><clipPath id="dj"><use xlink:href="#di" overflow="visible"/></clipPath><g clip-path="url(#dj)"><defs><path id="dk" d="M-431.303-6807.305h684.76V7422.888h-684.76z"/></defs><clipPath id="dl"><use xlink:href="#dk" overflow="visible"/></clipPath><path clip-path="url(#dl)" fill="#5F7332" d="M196.468 149.37h23.17v34.604h-23.17z"/></g></g><g><defs><path id="dm" d="M206.466 210.198v-39.416c0-.875.71-1.588 1.587-1.588a1.59 1.59 0 0 1 1.587 1.588v39.416h-3.174z"/></defs><clipPath id="dn"><use xlink:href="#dm" overflow="visible"/></clipPath><g clip-path="url(#dn)"><defs><path id="do" d="M-431.303-6807.305h684.76V7422.888h-684.76z"/></defs><clipPath id="dp"><use xlink:href="#do" overflow="visible"/></clipPath><path clip-path="url(#dp)" fill="#5F7332" d="M195.767 158.495h24.573v62.403h-24.573z"/></g></g><g><defs><path id="dq" d="M198.92 175.586a2.62 2.62 0 0 0 3.098 2.027 2.612 2.612 0 0 0 2.03-3.092 2.62 2.62 0 0 0-5.13 1.066"/></defs><clipPath id="dr"><use xlink:href="#dq" overflow="visible"/></clipPath><g clip-path="url(#dr)"><defs><path id="ds" d="M-431.303-6807.305h684.76V7422.888h-684.76z"/></defs><clipPath id="dt"><use xlink:href="#ds" overflow="visible"/></clipPath><path clip-path="url(#dt)" fill="#C66E3D" d="M188.164 161.736h26.638v26.63h-26.638z"/></g></g><g><defs><path id="du" d="M212.444 191.423a2.613 2.613 0 0 0 2.185 2.985 2.615 2.615 0 1 0 .803-5.168 2.617 2.617 0 0 0-2.99 2.183"/></defs><clipPath id="dv"><use xlink:href="#du" overflow="visible"/></clipPath><g clip-path="url(#dv)"><defs><path id="dw" d="M-431.303-6807.305h684.76V7422.888h-684.76z"/></defs><clipPath id="dx"><use xlink:href="#dw" overflow="visible"/></clipPath><path clip-path="url(#dx)" fill="#C66E3D" d="M201.713 178.51h26.636v26.63h-26.637z"/></g></g><g><defs><path id="dy" d="M212.68 175.338a2.618 2.618 0 0 0 5.237 0 2.617 2.617 0 0 0-2.62-2.615 2.617 2.617 0 0 0-2.618 2.615"/></defs><clipPath id="dz"><use xlink:href="#dy" overflow="visible"/></clipPath><g clip-path="url(#dz)"><defs><path id="dA" d="M-431.303-6807.305h684.76V7422.888h-684.76z"/></defs><clipPath id="dB"><use xlink:href="#dA" overflow="visible"/></clipPath><path clip-path="url(#dB)" fill="#C66E3D" d="M201.98 162.023h26.637v26.63H201.98z"/></g></g><g><defs><path id="dC" d="M196.256 194.5a2.616 2.616 0 0 0 2.62 2.615 2.616 2.616 0 1 0 0-5.23 2.62 2.62 0 0 0-2.62 2.615"/></defs><clipPath id="dD"><use xlink:href="#dC" overflow="visible"/></clipPath><g clip-path="url(#dD)"><defs><path id="dE" d="M-431.303-6807.305h684.76V7422.888h-684.76z"/></defs><clipPath id="dF"><use xlink:href="#dE" overflow="visible"/></clipPath><path clip-path="url(#dF)" fill="#C66E3D" d="M185.557 181.186h26.638v26.63h-26.638z"/></g></g><g><defs><path id="dG" d="M185.027 173.805s8.49.696 12.97 5.78c3.677 4.17.838 9.884.838 9.884s-6.034 2.092-9.71-2.083c-4.483-5.08-4.098-13.582-4.098-13.582"/></defs><clipPath id="dH"><use xlink:href="#dG" overflow="visible"/></clipPath><g clip-path="url(#dH)"><defs><path id="dI" d="M-431.303-6807.305h684.76V7422.888h-684.76z"/></defs><clipPath id="dJ"><use xlink:href="#dI" overflow="visible"/></clipPath><path clip-path="url(#dJ)" fill="#80B03C" d="M174.32 163.106h36.26v37.587h-36.26z"/></g></g><g><defs><path id="dK" d="M185.027 173.805l13.808 15.664s-6.034 2.092-9.71-2.083c-4.483-5.08-4.098-13.582-4.098-13.582"/></defs><clipPath id="dL"><use xlink:href="#dK" overflow="visible"/></clipPath><g clip-path="url(#dL)"><defs><path id="dM" d="M-431.303-6807.305h684.76V7422.888h-684.76z"/></defs><clipPath id="dN"><use xlink:href="#dM" overflow="visible"/></clipPath><path clip-path="url(#dN)" d="M174.32 163.106h35.214v37.587H174.32z"/></g></g><g><defs><path id="dO" d="M206.89 199.103a1.15 1.15 0 1 0 1.67-1.58l-10.44-10.666a1.152 1.152 0 0 0-1.625-.043c-.46.436-.48 1.16-.045 1.622l10.44 10.667z"/></defs><clipPath id="dP"><use xlink:href="#dO" overflow="visible"/></clipPath><g clip-path="url(#dP)"><defs><path id="dQ" d="M-431.303-6807.305h684.76V7422.888h-684.76z"/></defs><clipPath id="dR"><use xlink:href="#dQ" overflow="visible"/></clipPath><path clip-path="url(#dR)" fill="#5F7332" d="M185.437 175.8h34.138v34.362h-34.138z"/></g></g><g><defs><path id="dS" d="M229.802 154.652s-8.24.676-12.592 5.613c-3.57 4.05-.814 9.6-.814 9.6s5.86 2.028 9.43-2.025c4.35-4.933 3.976-13.188 3.976-13.188"/></defs><clipPath id="dT"><use xlink:href="#dS" overflow="visible"/></clipPath><g clip-path="url(#dT)"><defs><path id="dU" d="M-431.303-6807.305h684.76V7422.888h-684.76z"/></defs><clipPath id="dV"><use xlink:href="#dU" overflow="visible"/></clipPath><path clip-path="url(#dV)" fill="#80B03C" d="M204.682 143.952h35.828v37.118h-35.828z"/></g></g><g><defs><path id="dW" d="M229.802 154.652l-13.406 15.212s5.86 2.03 9.43-2.024c4.35-4.933 3.976-13.188 3.976-13.188"/></defs><clipPath id="dX"><use xlink:href="#dW" overflow="visible"/></clipPath><g clip-path="url(#dX)"><defs><path id="dY" d="M-431.303-6807.305h684.76V7422.888h-684.76z"/></defs><clipPath id="dZ"><use xlink:href="#dY" overflow="visible"/></clipPath><path clip-path="url(#dZ)" d="M205.697 143.952h34.813v37.118h-34.813z"/></g></g><g><defs><path id="ea" d="M208.573 179.217a1.117 1.117 0 0 1-1.62-1.535l10.133-10.357a1.117 1.117 0 0 1 1.58-.043c.447.422.466 1.128.043 1.575l-10.137 10.36z"/></defs><clipPath id="eb"><use xlink:href="#ea" overflow="visible"/></clipPath><g clip-path="url(#eb)"><defs><path id="ec" d="M-431.303-6807.305h684.76V7422.888h-684.76z"/></defs><clipPath id="ed"><use xlink:href="#ec" overflow="visible"/></clipPath><path clip-path="url(#ed)" fill="#5F7332" d="M195.948 156.278h33.766v33.986h-33.766z"/></g></g><g><defs><path id="ee" d="M225.235 179.288s-5.302-.387-8.553 2.324c-2.668 2.22-1.464 6.017-1.464 6.017s3.523 1.865 6.19-.358c3.252-2.707 3.827-7.984 3.827-7.984"/></defs><clipPath id="ef"><use xlink:href="#ee" overflow="visible"/></clipPath><g clip-path="url(#ef)"><defs><path id="eg" d="M-431.303-6807.305h684.76V7422.888h-684.76z"/></defs><clipPath id="eh"><use xlink:href="#eg" overflow="visible"/></clipPath><path clip-path="url(#eh)" fill="#80B03C" d="M204.248 168.57h31.687v30.49h-31.687z"/></g></g><g><defs><path id="ei" d="M225.235 179.288l-10.017 8.34s3.523 1.867 6.19-.356c3.252-2.707 3.827-7.984 3.827-7.984"/></defs><clipPath id="ej"><use xlink:href="#ei" overflow="visible"/></clipPath><g clip-path="url(#ej)"><defs><path id="ek" d="M-431.303-6807.305h684.76V7422.888h-684.76z"/></defs><clipPath id="el"><use xlink:href="#ek" overflow="visible"/></clipPath><path clip-path="url(#el)" d="M204.52 168.588h31.415v30.472H204.52z"/></g></g><g><defs><path id="em" d="M209.326 192.8a.717.717 0 1 1-.88-1.135l7.462-5.58a.716.716 0 1 1 .878 1.133l-7.46 5.583z"/></defs><clipPath id="en"><use xlink:href="#em" overflow="visible"/></clipPath><g clip-path="url(#en)"><defs><path id="eo" d="M-431.303-6807.305h684.76V7422.888h-684.76z"/></defs><clipPath id="ep"><use xlink:href="#eo" overflow="visible"/></clipPath><path clip-path="url(#ep)" fill="#5F7332" d="M197.47 175.235h30.295v28.416H197.47z"/></g></g><g><defs><path id="eq" d="M189.3 162.595s5.704-.706 9.367 2.033c3.003 2.253 1.917 6.422 1.917 6.422s-3.7 2.208-6.705-.04c-3.664-2.747-4.58-8.415-4.58-8.415"/></defs><clipPath id="er"><use xlink:href="#eq" overflow="visible"/></clipPath><g clip-path="url(#er)"><defs><path id="es" d="M-431.303-6807.305h684.76V7422.888h-684.76z"/></defs><clipPath id="et"><use xlink:href="#es" overflow="visible"/></clipPath><path clip-path="url(#et)" fill="#80B03C" d="M178.6 151.812h32.875v30.906H178.6z"/></g></g><g><defs><path id="eu" d="M189.3 162.595l11.283 8.455s-3.7 2.208-6.705-.04c-3.662-2.747-4.58-8.415-4.58-8.415"/></defs><clipPath id="ev"><use xlink:href="#eu" overflow="visible"/></clipPath><g clip-path="url(#ev)"><defs><path id="ew" d="M-431.303-6807.305h684.76V7422.888h-684.76z"/></defs><clipPath id="ex"><use xlink:href="#ew" overflow="visible"/></clipPath><path clip-path="url(#ex)" d="M178.6 151.895h32.683v30.823H178.6z"/></g></g><g><defs><path id="ey" d="M207.234 176.305a.777.777 0 0 0 .886-1.274l-8.368-5.615a.78.78 0 0 0-1.08.195.778.778 0 0 0 .194 1.082l8.368 5.613z"/></defs><clipPath id="ez"><use xlink:href="#ey" overflow="visible"/></clipPath><g clip-path="url(#ez)"><defs><path id="eA" d="M-431.303-6807.305h684.76V7422.888h-684.76z"/></defs><clipPath id="eB"><use xlink:href="#eA" overflow="visible"/></clipPath><path clip-path="url(#eB)" fill="#5F7332" d="M187.833 158.58h31.32v28.563h-31.32z"/></g></g><g><defs><path id="eC" d="M209.067 145.737s4.26 5.457 3.96 11.236c-.243 4.742-4.88 6.57-4.88 6.57s-4.423-2.295-4.178-7.037c.295-5.777 5.097-10.77 5.097-10.77"/></defs><clipPath id="eD"><use xlink:href="#eC" overflow="visible"/></clipPath><g clip-path="url(#eD)"><defs><path id="eE" d="M-431.303-6807.305h684.76V7422.888h-684.76z"/></defs><clipPath id="eF"><use xlink:href="#eE" overflow="visible"/></clipPath><path clip-path="url(#eF)" fill="#80B03C" d="M193.26 135.037h30.482v39.207H193.26z"/></g></g><g><defs><path id="eG" d="M209.067 145.737l-.92 17.808s-4.423-2.296-4.178-7.038c.295-5.778 5.097-10.77 5.097-10.77"/></defs><clipPath id="eH"><use xlink:href="#eG" overflow="visible"/></clipPath><g clip-path="url(#eH)"><defs><path id="eI" d="M-431.303-6807.305h684.76V7422.888h-684.76z"/></defs><clipPath id="eJ"><use xlink:href="#eI" overflow="visible"/></clipPath><path clip-path="url(#eJ)" d="M193.26 135.037h26.507v39.207H193.26z"/></g></g><g><defs><path id="eK" d="M207.173 172.382a.88.88 0 0 0 .87.892c.49.01.888-.378.895-.864l-.007-11.448a.88.88 0 0 0-.867-.892.885.885 0 0 0-.896.87l.006 11.442z"/></defs><clipPath id="eL"><use xlink:href="#eK" overflow="visible"/></clipPath><g clip-path="url(#eL)"><defs><path id="eM" d="M-431.303-6807.305h684.76V7422.888h-684.76z"/></defs><clipPath id="eN"><use xlink:href="#eM" overflow="visible"/></clipPath><path clip-path="url(#eN)" fill="#5F7332" d="M196.468 149.37h23.17v34.604h-23.17z"/></g></g><g><defs><path id="eO" d="M206.466 210.198v-39.416c0-.875.71-1.588 1.587-1.588a1.59 1.59 0 0 1 1.587 1.588v39.416h-3.174z"/></defs><clipPath id="eP"><use xlink:href="#eO" overflow="visible"/></clipPath><g clip-path="url(#eP)"><defs><path id="eQ" d="M-431.303-6807.305h684.76V7422.888h-684.76z"/></defs><clipPath id="eR"><use xlink:href="#eQ" overflow="visible"/></clipPath><path clip-path="url(#eR)" fill="#5F7332" d="M195.767 158.495h24.573v62.403h-24.573z"/></g></g><g><defs><path id="eS" d="M198.92 175.586a2.62 2.62 0 0 0 3.098 2.027 2.612 2.612 0 0 0 2.03-3.092 2.62 2.62 0 0 0-5.13 1.066"/></defs><clipPath id="eT"><use xlink:href="#eS" overflow="visible"/></clipPath><g clip-path="url(#eT)"><defs><path id="eU" d="M-431.303-6807.305h684.76V7422.888h-684.76z"/></defs><clipPath id="eV"><use xlink:href="#eU" overflow="visible"/></clipPath><path clip-path="url(#eV)" fill="#C66E3D" d="M188.164 161.736h26.638v26.63h-26.638z"/></g></g><g><defs><path id="eW" d="M212.444 191.423a2.613 2.613 0 0 0 2.185 2.985 2.615 2.615 0 1 0 .803-5.168 2.617 2.617 0 0 0-2.99 2.183"/></defs><clipPath id="eX"><use xlink:href="#eW" overflow="visible"/></clipPath><g clip-path="url(#eX)"><defs><path id="eY" d="M-431.303-6807.305h684.76V7422.888h-684.76z"/></defs><clipPath id="eZ"><use xlink:href="#eY" overflow="visible"/></clipPath><path clip-path="url(#eZ)" fill="#C66E3D" d="M201.713 178.51h26.636v26.63h-26.637z"/></g></g><g><defs><path id="fa" d="M212.68 175.338a2.618 2.618 0 0 0 5.237 0 2.617 2.617 0 0 0-2.62-2.615 2.617 2.617 0 0 0-2.618 2.615"/></defs><clipPath id="fb"><use xlink:href="#fa" overflow="visible"/></clipPath><g clip-path="url(#fb)"><defs><path id="fc" d="M-431.303-6807.305h684.76V7422.888h-684.76z"/></defs><clipPath id="fd"><use xlink:href="#fc" overflow="visible"/></clipPath><path clip-path="url(#fd)" fill="#C66E3D" d="M201.98 162.023h26.637v26.63H201.98z"/></g></g><g><defs><path id="fe" d="M196.256 194.5a2.616 2.616 0 0 0 2.62 2.615 2.616 2.616 0 1 0 0-5.23 2.62 2.62 0 0 0-2.62 2.615"/></defs><clipPath id="ff"><use xlink:href="#fe" overflow="visible"/></clipPath><g clip-path="url(#ff)"><defs><path id="fg" d="M-431.303-6807.305h684.76V7422.888h-684.76z"/></defs><clipPath id="fh"><use xlink:href="#fg" overflow="visible"/></clipPath><path clip-path="url(#fh)" fill="#C66E3D" d="M185.557 181.186h26.638v26.63h-26.638z"/></g></g><g fill-rule="evenodd" clip-rule="evenodd" fill="none" stroke="#472728" stroke-width="1.07" stroke-miterlimit="10"><path d="M184.78 173.792s8.49.696 12.97 5.78c2.57 2.917 1.955 6.583 1.353 8.526l7.116 7.272v-19.594l-2.632-1.765c.073.166.174.313.212.496a2.612 2.612 0 0 1-2.03 3.092 2.618 2.618 0 0 1-3.098-2.027 2.617 2.617 0 0 1 2.032-3.093c.202-.042.395-.01.593-.004l-1.647-1.105c-1.206.516-3.798 1.288-6.018-.374-3.662-2.745-4.58-8.414-4.58-8.414s5.706-.706 9.37 2.033c2.107 1.58 2.194 4.08 2.063 5.446l5.735 3.848v-3.14c0-.542.29-.998.706-1.285l-.003-6.61c-1.286-.978-3.37-3.07-3.2-6.38.296-5.778 5.098-10.77 5.098-10.77s4.26 5.457 3.96 11.236c-.18 3.51-2.76 5.417-4.093 6.174l.004 6.35c.416.286.706.74.706 1.283v4.154l6.255-6.39c-.584-1.89-1.18-5.448 1.316-8.28 4.352-4.937 12.592-5.613 12.592-5.613s.374 8.255-3.977 13.188c-2.634 2.992-6.51 2.67-8.364 2.295l-2.623 2.68c.155-.028.298-.092.46-.092 1.447 0 2.62 1.17 2.62 2.615a2.618 2.618 0 0 1-5.238 0c0-.142.06-.264.08-.4l-3.12 3.188v12.647l5.396-4.036c-.186-1.253-.226-3.566 1.647-5.124 3.25-2.71 8.553-2.324 8.553-2.324s-.576 5.277-3.827 7.984c-1.97 1.643-4.4 1.053-5.54.633l-6.228 4.66v17.632h-3.174v-11.53l-5.4-5.516c.25.4.43.844.43 1.348a2.616 2.616 0 0 1-2.62 2.615 2.616 2.616 0 1 1 0-5.23c.53 0 .995.195 1.408.466l-2.547-2.602c-1.907.386-5.898.72-8.612-2.362-4.483-5.078-4.098-13.58-4.098-13.58z"/><path d="M215.186 189.227a2.616 2.616 0 0 1-.804 5.168 2.613 2.613 0 0 1-2.184-2.985 2.617 2.617 0 0 1 2.99-2.183z"/></g><g><defs><path id="fi" d="M379.653 232.283a6.373 6.373 0 0 1-6.375 6.368c-3.52 0-6.376-2.85-6.376-6.367s2.855-6.368 6.376-6.368a6.373 6.373 0 0 1 6.375 6.368"/></defs><clipPath id="fj"><use xlink:href="#fi" overflow="visible"/></clipPath><g clip-path="url(#fj)"><defs><path id="fk" d="M-.593-3064h320v6650h-320z"/></defs><clipPath id="fl"><use xlink:href="#fk" overflow="visible"/></clipPath><path clip-path="url(#fl)" fill="#97723F" d="M361.902 220.915h22.75v22.736h-22.75z"/></g></g><g><defs><path id="fm" d="M351.04 237.896a3.378 3.378 0 0 1-3.378 3.376c-1.866 0-3.38-1.512-3.38-3.376s1.514-3.375 3.38-3.375c1.866 0 3.38 1.512 3.38 3.376"/></defs><clipPath id="fn"><use xlink:href="#fm" overflow="visible"/></clipPath><g clip-path="url(#fn)"><defs><path id="fo" d="M-.593-3064h320v6650h-320z"/></defs><clipPath id="fp"><use xlink:href="#fo" overflow="visible"/></clipPath><path clip-path="url(#fp)" fill="#97723F" d="M339.283 229.52h16.758v16.752h-16.757z"/></g></g><g><defs><path id="fq" d="M333.95 238.99a1.273 1.273 0 1 1-2.544-.002 1.273 1.273 0 0 1 2.545.003"/></defs><clipPath id="fr"><use xlink:href="#fq" overflow="visible"/></clipPath><g clip-path="url(#fr)"><defs><path id="fs" d="M-.593-3064h320v6650h-320z"/></defs><clipPath id="ft"><use xlink:href="#fs" overflow="visible"/></clipPath><path clip-path="url(#ft)" fill="#97723F" d="M326.407 232.72h12.544v12.542h-12.543z"/></g></g><g><defs><path id="fu" d="M352.27 273.28a4.376 4.376 0 0 0 4.377 4.372 4.377 4.377 0 0 0 4.378-4.373 4.375 4.375 0 0 0-4.378-4.374 4.375 4.375 0 0 0-4.378 4.373"/></defs><clipPath id="fv"><use xlink:href="#fu" overflow="visible"/></clipPath><g clip-path="url(#fv)"><defs><path id="fw" d="M-.593-3064h320v6650h-320z"/></defs><clipPath id="fx"><use xlink:href="#fw" overflow="visible"/></clipPath><path clip-path="url(#fx)" fill="#97723F" d="M347.27 263.906h18.754v18.746H347.27z"/></g></g><g><defs><path id="fy" d="M330.797 284.713c0 3.33 2.7 6.025 6.032 6.025a6.027 6.027 0 0 0 6.03-6.025c0-3.327-2.7-6.025-6.03-6.025a6.03 6.03 0 0 0-6.033 6.025"/></defs><clipPath id="fz"><use xlink:href="#fy" overflow="visible"/></clipPath><g clip-path="url(#fz)"><defs><path id="fA" d="M-.593-3064h320v6650h-320z"/></defs><clipPath id="fB"><use xlink:href="#fA" overflow="visible"/></clipPath><path clip-path="url(#fB)" fill="#694B26" d="M325.797 273.688h22.064v22.05h-22.063z"/></g></g><g><defs><path id="fC" d="M325.214 265.182a7.37 7.37 0 0 0 7.373 7.366c4.072 0 7.373-3.298 7.373-7.366s-3.302-7.366-7.373-7.366a7.37 7.37 0 0 0-7.373 7.366"/></defs><clipPath id="fD"><use xlink:href="#fC" overflow="visible"/></clipPath><g clip-path="url(#fD)"><defs><path id="fE" d="M-.593-3064h320v6650h-320z"/></defs><clipPath id="fF"><use xlink:href="#fE" overflow="visible"/></clipPath><path clip-path="url(#fF)" fill="#97723F" d="M320.214 252.816h24.747v24.732h-24.746z"/></g></g><g><defs><path id="fG" d="M365.61 274.84a3.377 3.377 0 0 0 3.38 3.375c1.866 0 3.38-1.51 3.38-3.375s-1.514-3.376-3.38-3.376a3.378 3.378 0 0 0-3.38 3.376"/></defs><clipPath id="fH"><use xlink:href="#fG" overflow="visible"/></clipPath><g clip-path="url(#fH)"><defs><path id="fI" d="M-.593-3064h320v6650h-320z"/></defs><clipPath id="fJ"><use xlink:href="#fI" overflow="visible"/></clipPath><path clip-path="url(#fJ)" fill="#97723F" d="M360.61 266.464h16.76v16.75h-16.76z"/></g></g><g><defs><path id="fK" d="M368.748 273.602a1.27 1.27 0 1 0 2.543 0 1.27 1.27 0 0 0-2.542 0"/></defs><clipPath id="fL"><use xlink:href="#fK" overflow="visible"/></clipPath><g clip-path="url(#fL)"><defs><path id="fM" d="M-.593-3064h320v6650h-320z"/></defs><clipPath id="fN"><use xlink:href="#fM" overflow="visible"/></clipPath><path clip-path="url(#fN)" fill="#694B26" d="M363.748 267.33h12.544v12.544h-12.544z"/></g></g><g><defs><path id="fO" d="M346.266 276.14a1.272 1.272 0 1 0 2.544 0 1.272 1.272 0 0 0-2.544 0"/></defs><clipPath id="fP"><use xlink:href="#fO" overflow="visible"/></clipPath><g clip-path="url(#fP)"><defs><path id="fQ" d="M-.593-3064h320v6650h-320z"/></defs><clipPath id="fR"><use xlink:href="#fQ" overflow="visible"/></clipPath><path clip-path="url(#fR)" fill="#97723F" d="M341.266 269.868h12.545v12.543h-12.544z"/></g></g><g><defs><path id="fS" d="M333.893 271.704c0 .702.57 1.27 1.272 1.27a1.27 1.27 0 1 0 0-2.54 1.27 1.27 0 0 0-1.272 1.27"/></defs><clipPath id="fT"><use xlink:href="#fS" overflow="visible"/></clipPath><g clip-path="url(#fT)"><defs><path id="fU" d="M-.593-3064h320v6650h-320z"/></defs><clipPath id="fV"><use xlink:href="#fU" overflow="visible"/></clipPath><path clip-path="url(#fV)" fill="#97723F" d="M328.893 265.433h12.544v12.54h-12.544z"/></g></g><g><defs><path id="fW" d="M328.33 318.282a4.376 4.376 0 0 0 4.38 4.373 4.377 4.377 0 0 0 4.377-4.373 4.375 4.375 0 0 0-4.378-4.373 4.374 4.374 0 0 0-4.38 4.372"/></defs><clipPath id="fX"><use xlink:href="#fW" overflow="visible"/></clipPath><g clip-path="url(#fX)"><defs><path id="fY" d="M-.593-3064h320v6650h-320z"/></defs><clipPath id="fZ"><use xlink:href="#fY" overflow="visible"/></clipPath><path clip-path="url(#fZ)" fill="#97723F" d="M323.33 308.91h18.756v18.745H323.33z"/></g></g><g><defs><path id="ga" d="M341.672 319.842a3.378 3.378 0 0 0 3.38 3.376c1.865 0 3.378-1.512 3.378-3.376s-1.513-3.375-3.38-3.375a3.377 3.377 0 0 0-3.378 3.375"/></defs><clipPath id="gb"><use xlink:href="#ga" overflow="visible"/></clipPath><g clip-path="url(#gb)"><defs><path id="gc" d="M-.593-3064h320v6650h-320z"/></defs><clipPath id="gd"><use xlink:href="#gc" overflow="visible"/></clipPath><path clip-path="url(#gd)" fill="#97723F" d="M336.672 311.467h16.758v16.75h-16.758z"/></g></g><g><defs><path id="ge" d="M344.81 318.605a1.27 1.27 0 1 0 1.272-1.272c-.704 0-1.273.57-1.273 1.272"/></defs><clipPath id="gf"><use xlink:href="#ge" overflow="visible"/></clipPath><g clip-path="url(#gf)"><defs><path id="gg" d="M-.593-3064h320v6650h-320z"/></defs><clipPath id="gh"><use xlink:href="#gg" overflow="visible"/></clipPath><path clip-path="url(#gh)" fill="#694B26" d="M339.81 312.333h12.543v12.543H339.81z"/></g></g><g><defs><path id="gi" d="M322.327 321.142a1.272 1.272 0 1 0 2.545-.003 1.272 1.272 0 0 0-2.545.002"/></defs><clipPath id="gj"><use xlink:href="#gi" overflow="visible"/></clipPath><g clip-path="url(#gj)"><defs><path id="gk" d="M-.593-3064h320v6650h-320z"/></defs><clipPath id="gl"><use xlink:href="#gk" overflow="visible"/></clipPath><path clip-path="url(#gl)" fill="#97723F" d="M317.327 314.87h12.545v12.543h-12.545z"/></g></g><g fill-rule="evenodd" clip-rule="evenodd" fill="none"><path d="M-56.614-47.614s-3.967.325-6.06 2.7c-1.203 1.364-.915 3.077-.634 3.986l-3.326 3.398v-9.157l1.23-.825c-.035.077-.082.146-.1.23a1.223 1.223 0 1 0 1.447-.948c-.094-.02-.185-.003-.277 0l.77-.517c.564.24 1.775.602 2.812-.175 1.71-1.283 2.14-3.932 2.14-3.932s-2.666-.33-4.378.95c-.985.74-1.026 1.907-.964 2.545l-2.68 1.8v-1.467a.726.726 0 0 0-.33-.6l.002-3.09c.6-.456 1.575-1.433 1.495-2.98-.138-2.7-2.382-5.033-2.382-5.033s-1.99 2.55-1.85 5.25c.084 1.642 1.29 2.533 1.913 2.887l-.002 2.967a.73.73 0 0 0-.328.6v1.94l-2.923-2.986c.272-.882.55-2.545-.616-3.87-2.034-2.306-5.884-2.622-5.884-2.622s-.175 3.858 1.86 6.163c1.23 1.397 3.042 1.246 3.908 1.072l1.226 1.253c-.073-.013-.14-.043-.216-.043a1.223 1.223 0 1 0 1.224 1.222c0-.066-.028-.123-.038-.187l1.458 1.49v5.91l-2.52-1.886c.087-.585.105-1.666-.77-2.394-1.52-1.267-3.997-1.086-3.997-1.086s.27 2.466 1.788 3.73c.92.77 2.057.493 2.59.297l2.91 2.178v8.24h1.483v-5.388l2.523-2.578c-.117.186-.202.393-.202.63a1.223 1.223 0 1 0 1.224-1.223c-.248 0-.465.092-.658.218l1.19-1.216c.892.18 2.757.335 4.025-1.105 2.095-2.376 1.916-6.35 1.916-6.35z"/><circle cx="-70.636" cy="-39.193" r="1.222"/></g><path fill="#7F9D52" d="M0 200.573h320v11.253H0z"/><path fill="#8BA967" d="M0 210.833h320v12.21H0z"/><path fill="none" stroke="#472728" stroke-width=".75" stroke-miterlimit="10" d="M0 200.573h320"/></svg>