<svg xmlns="http://www.w3.org/2000/svg" width="143.287" height="106.582" viewBox="0 0 143.287 106.582"><g fill="none" stroke="#DCB440" stroke-width="6.933" stroke-miterlimit="10"><path d="M78.638 76.927c-1.945 10.166-8.135 16.14-16.62 20.322M66.44 99.847v-5.085l-4.423-2.167"/><g><path d="M85.263 77.267c1.508 8.55-1.28 15.762-6.348 22.52M84.034 100.1l-2.305-4.536-4.92.075"/></g></g><g fill="#83714E"><path d="M13.42 54.856c-4.962-4.178-6.726-10.31-4.495-14.15 2.232-3.853 7.607-3.965 12.57.217 8.305 7.004 11.223 19.83 11.223 19.83s-10.99 1.104-19.297-5.897z"/><path d="M12.29 67.714C5.866 67.042 1.524 62.52 1.884 57.53c.355-4.986 5.27-8.544 11.703-7.874C24.357 50.78 32.72 60.75 32.72 60.75s-9.658 8.087-20.43 6.964z"/></g><path fill="#A69368" d="M102.14 5.492C43.53-10.145 32.72 60.777 32.72 60.777s68.645 42.955 89.933-1.662c9.56-20.048 2.397-47.51-20.513-53.623z"/><path fill="#968660" d="M123.692 24.755c-3.77-9.08-10.988-16.44-21.553-19.263-58.61-15.637-69.42 55.285-69.42 55.285s2.492 1.555 6.666 3.77c6.707-30.734 38.816-59.826 84.306-39.792z"/><path fill="#B4A37F" d="M58.99 73.32c18.636 6.783 42.818 10.943 57.3-4.673-22.686-6.746-43.18-3.878-57.3 4.672z"/><circle fill="#2A2929" cx="112.843" cy="29.352" r="4.049"/><path fill="#B4A37F" d="M82.7 40.364c-8.883 2.092-19.33 13.555-18.87 15.518.462 1.95 11.427 8.367 20.31 6.272 8.883-2.093 12.637-10.56 11.266-16.348-1.21-5.127-6.16-6.99-12.706-5.442z"/><g><path fill="#DCB440" d="M125.03 36.94l12.895 6.853-13.135 1.375z"/></g><g fill="none" stroke="#422B2C" stroke-miterlimit="10"><path stroke-width="3.467" d="M137.925 43.793c-2.266-2.07-11.304-7.47-11.304-7.47-.212-4.837-1.128-7.872-2.94-12.226.007 0-3.816-8.36-8.016-11.668-.12-.116-.24-.228-.363-.343-.79-.72-1.62-1.405-2.488-2.052-.144-.098-.29-.203-.43-.305a30.125 30.125 0 0 0-2.78-1.767 18.14 18.14 0 0 0-.43-.228 31.945 31.945 0 0 0-3.13-1.492c-.105-.04-.212-.07-.32-.12a33.74 33.74 0 0 0-3.58-1.187C43.53-10.704 32.72 60.218 32.72 60.218s.027.015.064.04c.023.015.037.022.086.056.07.044.172.102.305.186.002.004.01.008.016.008.13.082.296.184.48.29l.1.06c.206.125.437.26.704.412l.06.04c.24.144.513.296.802.46.06.035.12.072.19.11.31.176.645.36 1.01.563.062.037.122.07.18.102a60.432 60.432 0 0 0 1.31.72c.4.22.82.442 1.263.676.032.022.063.035.097.057 4.75 2.52 11.672 5.88 19.607 8.77.055.018.105.033.16.055 1.09.396 2.197.785 3.324 1.16.08.027.162.053.244.075 1.12.368 2.254.73 3.404 1.07.088.03.184.058.28.08 1.142.335 2.296.653 3.458.958.102.023.203.05.305.074 1.155.294 2.317.57 3.49.825l.33.066c1.157.245 2.32.477 3.483.673L64.74 93.37l-2.72-1.333 1.627 2.672-1.627 1.98c.74-.36 1.385-.76 2.088-1.15l2.23 3.75V94.2l.008-.024c5.79-3.75 10.042-8.827 11.875-16.248 1.033.166 2.078.314 3.115.438.125.014.26.026.384.04.992.115 1.99.21 2.98.277l-4.603 16.35-3.293.052 2.793 1.725-.686 2.424c.5-.652.95-1.32 1.397-1.984l3.723 2.02-2.303-4.816H81.7c2.89-4.404 4.395-10.04 3.8-16 .028.004.063.143.097.146 1.146.064 2.29.162 3.432.158.137 0 .268.037.403.035 1.137-.02 2.264-.04 3.38-.127.14-.01.272-.014.403-.022 1.117-.095 2.22-.22 3.312-.394.135-.022.27-.047.406-.07a41.817 41.817 0 0 0 3.215-.668c.134-.036.267-.073.398-.107a36.06 36.06 0 0 0 3.106-.968c.132-.048.26-.1.394-.15a30.247 30.247 0 0 0 3.362-1.48c.965-.49 1.91-1.032 2.83-1.626.12-.08.248-.16.37-.24a32.633 32.633 0 0 0 3.015-2.286 31.72 31.72 0 0 0 2.482-2.373c.057-.063.13-.11.186-.18h-.014c2.417-2.604 4.2-5.744 6.01-9.532 2.097-4.4 2.903-6.296 3.735-11.9.003-.01 12.382-2.435 11.9-2.875z"/><path stroke-width="3.466" d="M21.5 40.374c-4.964-4.178-10.34-4.072-12.57-.224-1.44 2.485-1.196 5.914.48 9.16-4.27.874-7.25 3.84-7.526 7.672-.36 4.986 3.982 9.514 10.406 10.188 10.77 1.123 20.43-6.97 20.43-6.97S29.802 47.37 21.5 40.375z"/></g></svg>