<svg xmlns="http://www.w3.org/2000/svg" width="92.75" height="100.501" viewBox="0 0 92.75 100.501"><g fill="none" stroke="#DCB440" stroke-width="6.639" stroke-miterlimit="10"><path d="M38.84 73.882c1.604 8.374 6.704 13.308 13.703 16.754M48.9 92.77v-4.193l3.643-1.783"/><g><path d="M33.377 72.268c-1.24 7.044 1.053 12.99 5.23 18.566M34.392 91.09l1.903-3.738 4.055.06"/></g></g><path fill="#BC71A4" d="M4.305 17.074c7.24-5.686 21.194-6.72 32.05 3.878 10.856 10.6 32.82 34.64 44.712 36.705C74.35 77.3 38.813 84.454 19.81 63.86 2.097 44.658 14.762 22.898 4.305 17.075z"/><path fill="#B65B98" d="M36.354 20.952C25.5 10.362 11.547 11.39 4.308 17.074c13.608-1 30.76 5.735 48.154 29.693 7.608 10.477 15.35 16.686 22.35 20.27 2.855-2.654 5.033-5.81 6.258-9.384-11.894-2.065-33.86-26.102-44.716-36.7z"/><path fill="#CA95B9" d="M9.87 42.086c.912 6.967 3.275 14.55 9.94 21.775 6.384 6.912 14.627 10.696 23.02 11.934-3.47-20.767-20.478-31.44-32.96-33.708z"/><circle fill="#2A2929" cx="20.837" cy="19.93" r="2.456"/><path fill="#CA95B9" d="M56.948 9.972c7.453-7.45 16.712-8.93 21.507-4.136 4.794 4.795 3.316 14.053-4.14 21.51-12.494 12.497-31.627 14.26-31.627 14.26s1.766-19.143 14.26-31.634z"/><path fill="#CA95B9" d="M68.25 18.142c9.784-3.923 18.877-1.63 21.396 4.66C92.166 29.1 87.16 37.03 77.38 40.947c-16.405 6.563-34.692.654-34.692.654s9.158-16.894 25.562-23.458z"/><path fill="#DCB440" d="M12.377 13.4c-3.122.68-5.9 1.973-8.073 3.674 2.236 1.25 3.416 3.23 4.062 5.748a17.826 17.826 0 0 0 4.01-9.42z"/><path fill="none" stroke="#422B2C" stroke-width="3.32" stroke-miterlimit="10" d="M77.852 40.5c10.03-4.013 15.16-12.134 12.574-18.585-1.5-3.756-5.263-5.828-9.09-6.483.91-3.773.483-8.047-2.375-10.905-5.566-5.563-14.564-2.03-19.75 2.172-6.964 5.645-11.473 14.1-14.213 22.502-2.985-2.998-5.942-6.027-8.967-8.986-3.015-2.95-6.422-5.165-10.322-6.758-7.205-2.942-16.486-2.313-22.72 2.576 3.542 1.976 4.444 6.037 4.776 9.778.468 5.278.235 10.586.927 15.852 0 1.197.392 2.513.63 3.684.152.737.306 1.47.54 2.185l1.39 4.202c.766 2.317 2.075 4.445 3.22 6.595.086.163.144.1.298.218.333.252.54.695.737 1.05.67 1.203 1.502 2.242 2.396 3.288 1.855 2.17 3.97 4.09 6.24 5.817 2.296 1.75 4.817 3.175 7.45 4.354.35.156.967.213.99.642.022.36.03.723.046 1.085.04.957-.126 1.9-.153 2.863-.138 4.872.838 8.208 2.57 12.684l-.985 3.08 2.436-2.775c.38.564 1.49 1.385 1.904 1.942-.08-.32-.994-2.684-.786-2.823l2.305-1.54c-.794-.026-1.588-.055-2.383-.082-.474-.017-.402-.03-.525-.466l-1.342-4.763-2.585-9.18c.938.312 1.864.68 2.81.976a38.81 38.81 0 0 0 2.44.684c.486.12.387.25.507.7.51 1.91 1.24 3.762 2.22 5.48 1.807 3.168 4.442 5.744 7.487 7.724l-.19.014v4.3l1.31-1.987.714-1.082c.127-.19 1.665.738 1.947.877-.158-.2-1.405-1.562-1.322-1.696l1.384-2.24c-.743.366-1.484.73-2.226 1.098-.147.072-.444-.434-.533-.542-1.19-1.457-2.38-2.914-3.572-4.37-2.18-2.668-3.753-6.865-7.008-7.993.392.135 1.27.575 1.27.588 8.914.753 16.113.7 24.38-3.22a32.586 32.586 0 0 0 4.692-2.725c.7-.488 1.38-1.004 2.042-1.543.43-.35 1.39-1.533 1.917-1.528.317.003 1.25.11 1.51-.146.86-.814 1.876-1.506 2.643-2.408 1.78-2.093 3.243-4.447 4.133-7.062-3.598-.627-6.935-2.682-9.917-4.688-4.114-2.768-7.932-5.968-11.63-9.262 5.54-.008 11.773-.78 17.762-3.176 10.03-4.013-5.99 2.396 0 0z"/></svg>