<?xml version="1.0" encoding="utf-8"?>
<!-- Generator: Adobe Illustrator 16.0.0, SVG Export Plug-In . SVG Version: 6.00 Build 0)  -->
<!DOCTYPE svg PUBLIC "-//W3C//DTD SVG 1.1//EN" "http://www.w3.org/Graphics/SVG/1.1/DTD/svg11.dtd">
<svg version="1.1" xmlns="http://www.w3.org/2000/svg" xmlns:xlink="http://www.w3.org/1999/xlink" x="0px" y="0px"
	 width="41.666px" height="42.936px" viewBox="0 0 41.666 42.936" enable-background="new 0 0 41.666 42.936" xml:space="preserve">
<g id="Capa_3">
</g>
<g id="Capa_2">
</g>
<g id="Capa_1">
	<path fill="#FFFFFF" d="M26.389,21.468L40.547,6.775c1.533-1.591,1.486-4.123-0.104-5.655c-1.59-1.533-4.125-1.487-5.656,0.104
		L20.834,15.704L6.879,1.225C5.348-0.367,2.813-0.413,1.225,1.12c-1.592,1.532-1.639,4.064-0.105,5.655l14.16,14.692L1.121,36.16
		c-1.533,1.591-1.486,4.123,0.104,5.655C2,42.563,3.002,42.936,4,42.936c1.049,0,2.096-0.41,2.881-1.225l13.953-14.479
		l13.953,14.479c0.783,0.814,1.832,1.225,2.879,1.225c1,0,2-0.372,2.775-1.12c1.592-1.532,1.639-4.064,0.105-5.655L26.389,21.468z"
		/>
</g>
<g id="Capa_5">
</g>
<g id="Test">
</g>
</svg>
