<svg xmlns="http://www.w3.org/2000/svg" width="16" height="16" viewBox="0 0 16 16"><path fill="#EFCE36" d="M8.044.502a7.54 7.54 0 0 1 7.54 7.542 7.54 7.54 0 0 1-7.54 7.54 7.542 7.542 0 0 1 0-15.083"/><path fill="#472728" d="M8.044 16C3.657 16 .087 12.43.087 8.043c0-4.388 3.57-7.957 7.957-7.957C12.43.086 16 3.656 16 8.043 16 12.43 12.43 16 8.044 16zm0-15.083A7.133 7.133 0 0 0 .918 8.043c0 3.93 3.197 7.125 7.126 7.125a7.133 7.133 0 0 0 7.125-7.125c0-3.93-3.197-7.126-7.126-7.126z"/><g><path fill="#472728" d="M8.19 12.85c-.723 0-1.086-.583-1.086-1.305V4.542c0-.722.363-1.307 1.086-1.307.722 0 1.084.585 1.084 1.307v7.003c0 .72-.362 1.306-1.084 1.306"/><circle fill="#FFF" cx="10.205" cy="4.169" r="1.659"/></g></svg>