<svg id="Capa_1" xmlns="http://www.w3.org/2000/svg" xmlns:xlink="http://www.w3.org/1999/xlink" viewBox="0 0 1024 432.8"><style>.st0{fill:none}.st1{clip-path:url(#SVGID_2_)}.st2{fill:#916633}.st3{fill:#66b32a}.st4{opacity:.1}.st5{fill:#547428}.st6{fill:#e06e37}.st7{opacity:.6;fill:#a67339}.st8{opacity:.3;fill:#734a1e}.st9{fill:#7eac63}.st10{fill:#709f4c}.st11{fill:#68431c}.st12,.st13{clip-path:url(#SVGID_2_);fill:none;stroke:#472728;stroke-width:2.1337;stroke-linejoin:round;stroke-miterlimit:10}.st13{stroke-width:1.4224}</style><path class="st0" d="M515.4 901.6c21 0 41.8-.8 62.2-.8H453.3c20.4 0 41.1.8 62.1.8z"/><defs><path id="SVGID_1_" d="M0 19.8h1024v413H0z"/></defs><clipPath id="SVGID_2_"><use xlink:href="#SVGID_1_" overflow="visible"/></clipPath><g class="st1"><path class="st2" d="M0 110.8h1024v322H0z"/><path class="st3" d="M115.6 55s-10.1.8-15.4 6.9c-4.4 5-1 11.7-1 11.7s7.2 2.5 11.5-2.5c5.3-6 4.9-16.1 4.9-16.1z"/><path class="st4" d="M115.6 55L99.2 73.6s7.2 2.5 11.5-2.5c5.3-6 4.9-16.1 4.9-16.1z"/><path class="st5" d="M89.6 85c-.5.5-1.4.6-1.9.1s-.6-1.4-.1-1.9L100 70.5c.5-.5 1.4-.6 1.9-.1s.6 1.4.1 1.9L89.6 85z"/><path class="st3" d="M62.5 32.2s9.8.8 14.9 6.7c4.2 4.8 1 11.4 1 11.4s-7 2.4-11.2-2.4c-5.2-5.8-4.7-15.7-4.7-15.7z"/><path class="st4" d="M62.5 32.2l15.9 18.1s-7 2.4-11.2-2.4c-5.2-5.8-4.7-15.7-4.7-15.7z"/><path class="st5" d="M87.7 61.4c.5.5 1.3.6 1.9 0 .5-.5.6-1.3.1-1.9l-12-12.3c-.5-.5-1.3-.6-1.9-.1-.5.5-.6 1.3-.1 1.9l12 12.4z"/><path class="st3" d="M67.9 61.5s6.3-.5 10.1 2.8c3.2 2.6 1.7 7.1 1.7 7.1s-4.2 2.2-7.3-.4c-3.8-3.2-4.5-9.5-4.5-9.5z"/><path class="st4" d="M67.9 61.5l11.9 9.9s-4.2 2.2-7.3-.4c-3.9-3.2-4.6-9.5-4.6-9.5z"/><path class="st5" d="M86.8 77.6c.4.3.9.2 1.2-.2.3-.4.2-.9-.2-1.2l-8.9-6.6c-.4-.3-.9-.2-1.2.2-.3.4-.2.9.2 1.2l8.9 6.6z"/><path class="st3" d="M110.5 41.7s-6.8-.8-11.1 2.4c-3.6 2.7-2.3 7.6-2.3 7.6s4.4 2.6 8 0c4.3-3.3 5.4-10 5.4-10z"/><path class="st4" d="M110.5 41.7l-13.4 10s4.4 2.6 8 0c4.3-3.3 5.4-10 5.4-10z"/><path class="st5" d="M89.2 58c-.4.3-1 .2-1.3-.2-.3-.4-.2-1 .2-1.3l9.9-6.7c.4-.3 1-.2 1.3.2.3.4.2 1-.2 1.3L89.2 58z"/><path class="st3" d="M87.1 21.7S82 28.2 82.4 35c.3 5.6 5.8 7.8 5.8 7.8s5.2-2.7 5-8.4c-.4-6.8-6.1-12.7-6.1-12.7z"/><path class="st4" d="M87.1 21.7l1.1 21.2s5.2-2.7 5-8.4c-.4-6.9-6.1-12.8-6.1-12.8z"/><path class="st5" d="M89.3 53.3c0 .6-.5 1.1-1 1.1-.6 0-1.1-.5-1.1-1V39.8c0-.6.5-1.1 1-1.1.6 0 1.1.5 1.1 1v13.6z"/><path class="st5" d="M90.2 98.2V51.4c0-1-.8-1.9-1.9-1.9-1 0-1.9.8-1.9 1.9v46.8h3.8z"/><path class="st6" d="M99.1 57.1c-.4 1.7-2 2.8-3.7 2.4-1.7-.3-2.8-2-2.4-3.7.4-1.7 2-2.8 3.7-2.4 1.7.4 2.8 2 2.4 3.7z"/><circle class="st6" cx="80" cy="76.4" r="3.1"/><circle class="st6" cx="79.7" cy="56.8" r="3.1"/><circle class="st6" cx="99.2" cy="79.6" r="3.1"/><circle class="st7" cx="96.9" cy="137.2" r="11.1"/><path class="st8" d="M292.1 153.7c0 13.4-10.8 24.9-24.2 24.9-13.4 0-24.2-11.6-24.2-24.9 0-13.4 10.8-24.2 24.2-24.2 13.3 0 24.2 10.8 24.2 24.2z"/><circle class="st8" cx="199.5" cy="138.8" r="8"/><path class="st8" d="M854.3 167c0 3.3-2.7 6-6 6s-6-2.7-6-6 2.7-6 6-6 6 2.7 6 6z"/><circle class="st8" cx="147.2" cy="166.3" r="15.3"/><circle class="st7" cx="157.9" cy="116.7" r="18.7"/><circle class="st7" cx="360.6" cy="156.1" r="25.1"/><path class="st7" d="M999.8 141.1c0 8.9-7.2 16.2-16.2 16.2-8.9 0-16.2-7.2-16.2-16.2 0-8.9 7.2-16.2 16.2-16.2 8.9.1 16.2 7.3 16.2 16.2z"/><circle class="st7" cx="371.3" cy="163.6" r="14.1"/><circle class="st7" cx="918.5" cy="155.4" r="8.6"/><circle class="st7" cx="65.5" cy="141.2" r="8.6"/><circle class="st7" cx="193.7" cy="138.1" r="4.8"/><path class="st7" d="M258.5 159.7c0 6.6-5.4 12-12 12s-12-5.4-12-12 5.4-12 12-12c6.7 0 12 5.3 12 12z"/><path class="st9" d="M1204.2 89c0 14.4-11.7 26.1-26.1 26.1H-2c-14.4 0-26.1-11.7-26.1-26.1 0-14.4 11.7-26 26.1-26h1180.2c14.4 0 26 11.6 26 26z"/><path class="st10" d="M-2 115.1h1180.2c14.4 0 26.1-11.7 26.1-26.1H-28.1c0 14.4 11.7 26.1 26.1 26.1z"/><circle class="st8" cx="374.9" cy="133.2" r="3.2"/><circle class="st8" cx="258.4" cy="129.2" r="3.2"/><path class="st8" d="M840.1 164.6c0 1.8-1.4 3.2-3.2 3.2-1.8 0-3.2-1.4-3.2-3.2 0-1.8 1.4-3.2 3.2-3.2 1.8 0 3.2 1.5 3.2 3.2z"/><circle class="st8" cx="62.9" cy="138.1" r="3.2"/><circle class="st7" cx="880.5" cy="158.2" r="3.2"/><circle class="st7" cx="326.7" cy="136.5" r="3.2"/><circle class="st7" cx="120" cy="144.5" r="3.2"/><circle class="st7" cx="151.4" cy="133.2" r="3.2"/><circle class="st7" cx="482" cy="165" r="11.1"/><path class="st8" d="M677.2 181.5c0 13.4-10.8 24.9-24.2 24.9s-24.2-11.6-24.2-24.9c0-13.4 10.8-24.2 24.2-24.2s24.2 10.8 24.2 24.2z"/><circle class="st8" cx="584.6" cy="166.5" r="8"/><circle class="st8" cx="532.3" cy="194" r="15.3"/><circle class="st7" cx="543" cy="144.4" r="18.7"/><circle class="st7" cx="745.7" cy="183.9" r="25.1"/><circle class="st7" cx="756.4" cy="191.3" r="14.1"/><circle class="st7" cx="450.6" cy="168.9" r="8.6"/><circle class="st7" cx="578.8" cy="165.9" r="4.8"/><circle class="st7" cx="631.7" cy="187.4" r="12"/><path class="st8" d="M763.3 161c0 1.8-1.4 3.2-3.2 3.2-1.8 0-3.2-1.4-3.2-3.2 0-1.8 1.4-3.2 3.2-3.2 1.7-.1 3.2 1.4 3.2 3.2z"/><circle class="st8" cx="643.5" cy="156.9" r="3.2"/><circle class="st8" cx="448" cy="165.8" r="3.2"/><circle class="st7" cx="711.8" cy="164.2" r="3.2"/><circle class="st7" cx="505.1" cy="172.2" r="3.2"/><path class="st7" d="M539.7 161c0 1.8-1.4 3.2-3.2 3.2s-3.2-1.4-3.2-3.2c0-1.8 1.4-3.2 3.2-3.2s3.2 1.4 3.2 3.2z"/><circle class="st7" cx="941.4" cy="245.3" r="11.1"/><path class="st8" d="M746.1 261.8c0 13.4 10.8 24.9 24.2 24.9s24.2-11.6 24.2-24.9c0-13.4-10.8-24.2-24.2-24.2s-24.2 10.8-24.2 24.2z"/><circle class="st8" cx="838.7" cy="246.9" r="8"/><path class="st8" d="M186.1 250.6c0 3.3 2.7 6 6 6s6-2.7 6-6-2.7-6-6-6-6 2.7-6 6z"/><circle class="st8" cx="891" cy="274.4" r="15.3"/><circle class="st7" cx="880.3" cy="224.8" r="18.7"/><circle class="st7" cx="677.6" cy="264.2" r="25.1"/><circle class="st7" cx="54.6" cy="249.3" r="16.2"/><circle class="st7" cx="666.9" cy="271.7" r="14.1"/><circle class="st7" cx="121.8" cy="239" r="8.6"/><circle class="st7" cx="972.7" cy="249.3" r="8.6"/><circle class="st7" cx="844.5" cy="246.2" r="4.8"/><circle class="st7" cx="791.6" cy="267.8" r="12"/><circle class="st8" cx="663.3" cy="241.3" r="3.2"/><circle class="st8" cx="779.8" cy="237.3" r="3.2"/><path class="st8" d="M200.2 248.2c0 1.8 1.4 3.2 3.2 3.2 1.8 0 3.2-1.4 3.2-3.2 0-1.8-1.4-3.2-3.2-3.2-1.7 0-3.2 1.4-3.2 3.2z"/><circle class="st8" cx="975.3" cy="246.2" r="3.2"/><circle class="st7" cx="159.8" cy="241.8" r="3.2"/><circle class="st8" cx="595.4" cy="287.8" r="6"/><circle class="st7" cx="457.9" cy="286.5" r="16.2"/><circle class="st7" cx="525.1" cy="276.2" r="8.6"/><path class="st8" d="M603.5 285.4c0 1.8 1.4 3.2 3.2 3.2 1.8 0 3.2-1.4 3.2-3.2 0-1.8-1.4-3.2-3.2-3.2-1.8 0-3.2 1.4-3.2 3.2z"/><circle class="st7" cx="563.1" cy="279" r="3.2"/><circle class="st7" cx="711.5" cy="244.6" r="3.2"/><circle class="st7" cx="918.2" cy="252.6" r="3.2"/><circle class="st7" cx="886.8" cy="241.3" r="3.2"/><circle class="st7" cx="880.6" cy="359.7" r="11.1"/><path class="st8" d="M357.8 241.6c0 13.4 10.8 24.9 24.2 24.9 13.4 0 24.2-11.6 24.2-24.9s-10.8-24.2-24.2-24.2c-13.3-.1-24.2 10.8-24.2 24.2z"/><circle class="st8" cx="778" cy="361.2" r="8"/><circle class="st8" cx="830.3" cy="388.8" r="15.3"/><circle class="st7" cx="819.5" cy="339.1" r="18.7"/><circle class="st7" cx="275.4" cy="251.4" r="25.1"/><circle class="st7" cx="264.7" cy="258.9" r="14.1"/><circle class="st7" cx="911.9" cy="363.7" r="8.6"/><circle class="st7" cx="783.7" cy="360.6" r="4.8"/><circle class="st7" cx="403.3" cy="247.5" r="12"/><path class="st8" d="M257.9 228.5c0 1.8 1.4 3.2 3.2 3.2 1.8 0 3.2-1.4 3.2-3.2 0-1.8-1.4-3.2-3.2-3.2-1.8 0-3.2 1.5-3.2 3.2z"/><circle class="st8" cx="391.5" cy="217" r="3.2"/><circle class="st8" cx="914.5" cy="360.5" r="3.2"/><circle class="st7" cx="309.3" cy="231.8" r="3.2"/><path class="st8" d="M128.5 343.4c0 3.3 2.7 6 6 6s6-2.7 6-6-2.7-6-6-6-6 2.7-6 6zM142.6 341c0 1.8 1.4 3.2 3.2 3.2 1.8 0 3.2-1.4 3.2-3.2 0-1.8-1.4-3.2-3.2-3.2-1.7 0-3.2 1.4-3.2 3.2zM307.2 334.5c0 9.5 7.7 17.7 17.2 17.7s17.2-8.2 17.2-17.7-7.7-17.2-17.2-17.2-17.2 7.7-17.2 17.2z"/><circle class="st7" cx="217.8" cy="344.2" r="25.1"/><circle class="st7" cx="207.1" cy="351.7" r="14.1"/><circle class="st7" cx="251.7" cy="324.6" r="3.2"/><circle class="st7" cx="857.5" cy="367" r="3.2"/><circle class="st7" cx="826" cy="355.7" r="3.2"/><circle class="st7" cx="696" cy="340.3" r="11.1"/><path class="st8" d="M500.8 356.8c0 13.4 10.8 24.9 24.2 24.9 13.4 0 24.2-11.6 24.2-24.9 0-13.4-10.8-24.2-24.2-24.2-13.4 0-24.2 10.8-24.2 24.2z"/><circle class="st8" cx="645.7" cy="369.3" r="15.3"/><circle class="st7" cx="432.2" cy="359.2" r="25.1"/><circle class="st7" cx="421.5" cy="366.6" r="14.1"/><circle class="st7" cx="727.3" cy="344.3" r="8.6"/><circle class="st7" cx="546.3" cy="362.7" r="12"/><circle class="st7" cx="574.1" cy="434.1" r="18.7"/><circle class="st7" cx="66.3" cy="388.6" r="18.7"/><path class="st7" d="M577.5 450.7c0 1.8 1.4 3.2 3.2 3.2 1.8 0 3.2-1.4 3.2-3.2 0-1.8-1.4-3.2-3.2-3.2-1.8-.1-3.2 1.4-3.2 3.2z"/></g><path class="st12" d="M1147.6 87.6c-.1-13.6-11.1-24.6-24.8-24.6H113.3c1-4.1.9-7.7.9-7.7s-9.6.8-14.6 6.5l-.9 1.2h-8.8v-5.4l3-2c-.1.2-.1.3-.2.5-.3 1.6.7 3.2 2.3 3.5 1.6.3 3.2-.7 3.5-2.3.3-1.6-.7-3.2-2.3-3.5-.2 0-.4-.1-.6-.1l1.8-1.2c1.4.6 4.3 1.4 6.8-.4 4.1-3.1 5.2-9.5 5.2-9.5s-6.4-.8-10.6 2.3c-2.4 1.8-2.5 4.6-2.3 6.1L90 55.4v-3.6c0-.6-.3-1.1-.7-1.4v-7.5c1.4-1.1 3.8-3.5 3.6-7.2-.3-6.5-5.7-12.1-5.7-12.1s-4.8 6.2-4.5 12.7c.2 4 3.1 6.1 4.6 7v7.1c-.5.3-.8.9-.8 1.5v4.7l-7-7.2c.7-2.1 1.3-6.1-1.5-9.3-4.9-5.6-14.2-6.3-14.2-6.3s-.4 9.3 4.5 14.9c3 3.4 7.3 3 9.4 2.6l2.9 3h-.5c-1.6 0-2.9 1.3-2.9 2.9 0 1.6 1.3 2.9 2.9 2.9 1.6 0 2.9-1.3 2.9-2.9v-.4l3.4 3.5V63h-9.6c-3.6-1.8-7.9-1.5-7.9-1.5s.1.6.3 1.5H-2.5"/></svg>