<svg xmlns="http://www.w3.org/2000/svg" width="558" height="226" viewBox="0 0 558 226"><g fill="#472728"><path d="M150.203 99.908c-6.896 0-13.318-2.988-18.573-8.64a29.272 29.272 0 0 1-4.793-6.9c-4.407-5.702-6.64-12.62-6.64-20.566 0-9.046 2.818-16.573 8.377-22.375 5.57-5.818 12.208-8.77 19.73-8.77 6.295 0 11.646 1.825 15.954 5.435V13.066c0-.828.67-1.5 1.5-1.5h16.25c.83 0 1.5.672 1.5 1.5V93.21a1.5 1.5 0 0 1 .05.882l-.946 3.84a1.502 1.502 0 0 1-1.457 1.14h-13.72l-1.388-.043a1.5 1.5 0 0 1-1.452-1.464l-.077-3.16c-4.408 3.785-8.925 5.502-14.315 5.502zm-8.13-26.704c.422.633.9 1.232 1.42 1.784 2.56 2.715 5.448 4.035 8.828 4.035 3.36 0 6.15-1.308 8.524-3.998 1.942-2.2 3.11-4.978 3.474-8.26-.49-2.378-1.49-4.476-2.974-6.24-2.183-2.59-4.77-3.85-7.907-3.85-3.146 0-5.787 1.28-8.072 3.917-2.34 2.698-3.477 5.97-3.477 10.002 0 .906.062 1.782.185 2.61z"/><path d="M182.007 13.066v80.392h-.55v.274h.645l-.947 3.84h-13.72l-1.34-.043-.1-4.072h-.238v-2.285c-4.68 4.82-9.418 7.235-15.554 7.235-6.44 0-12.416-2.72-17.475-8.162a27.617 27.617 0 0 1-4.614-6.68c-4.28-5.48-6.42-12.067-6.42-19.765 0-8.687 2.657-15.8 7.962-21.336 5.303-5.54 11.524-8.308 18.646-8.308 7.122 0 13.048 2.497 17.455 7.493V13.065h16.25M152.32 80.523c3.78 0 6.995-1.5 9.648-4.506 2.21-2.502 3.496-5.61 3.865-9.32-.524-2.734-1.638-5.113-3.342-7.138-2.462-2.924-5.478-4.385-9.053-4.385-3.576 0-6.643 1.48-9.206 4.435-2.563 2.957-3.842 6.618-3.842 10.984 0 1.104.084 2.157.253 3.16.51.8 1.095 1.556 1.762 2.263 2.835 3.006 6.14 4.506 9.92 4.506m29.685-70.457h-16.25a3 3 0 0 0-3 3v22.088c-4.12-2.63-9.017-3.997-14.455-3.997-7.945 0-14.948 3.106-20.813 9.233-5.836 6.088-8.795 13.966-8.795 23.41 0 8.232 2.31 15.42 6.864 21.366a30.8 30.8 0 0 0 4.97 7.12c5.547 5.968 12.35 9.12 19.672 9.12 4.798 0 8.938-1.26 12.888-3.996l.005.19a3 3 0 0 0 2.903 2.926l1.34.043h13.816a3 3 0 0 0 2.913-2.28l.947-3.84a3 3 0 0 0-.007-1.465v-79.92a3 3 0 0 0-3-3zM143.51 72.648a16.61 16.61 0 0 1-.122-2.054c0-3.655 1.017-6.605 3.11-9.02 1.983-2.287 4.253-3.4 6.94-3.4 2.667 0 4.878 1.086 6.76 3.317 1.29 1.536 2.145 3.29 2.6 5.346-.357 2.9-1.367 5.257-3.078 7.194-2.074 2.35-4.494 3.492-7.4 3.492-2.943 0-5.474-1.166-7.735-3.564-.387-.41-.747-.85-1.074-1.31zM302.725 99.737c-11.357 0-20.763-3.547-27.955-10.54-6.26-6.09-9.893-13.65-10.794-22.48-.933-3.53-1.406-7.347-1.406-11.34 0-11.63 4.06-21.477 12.063-29.264 8.004-7.788 17.908-11.736 29.44-11.736 12.628 0 23.362 4.72 31.91 14.03.272.105.51.29.684.535.188.27.28.59.27.908.088.445-.03.923-.35 1.283l-.14.156-3.574 7.978a1.5 1.5 0 0 1-.242.376L322.82 50.82c-.285.326-.695.512-1.127.512h-.03a1.505 1.505 0 0 1-1.136-.558c-4.736-5.862-10.443-8.713-17.446-8.713-5.59 0-10.233 1.768-14.197 5.4-3.13 2.87-4.958 6.454-5.585 10.956.557 5.128 2.512 9.395 5.813 12.682 4.03 4.017 8.785 5.97 14.53 5.97 7.95 0 14.272-3.05 19.323-9.322a1.496 1.496 0 0 1 1.17-.56 1.5 1.5 0 0 1 1.073.453l10.55 10.824a1.5 1.5 0 0 1 .507 2.32l-4.08 4.855a1.5 1.5 0 0 1-.225.217c-8.217 9.212-18.05 13.88-29.23 13.88z"/><path d="M304.072 15.878c12.382 0 22.766 4.598 31.154 13.927h.212l-.07.192c.032.034.065.105.097.142l-.29.327-3.67 8.19-9.814 11.177c-4.99-6.18-11.194-9.27-18.612-9.27-5.936 0-10.998 1.932-15.21 5.793-3.417 3.13-5.44 7.145-6.085 12.04.57 5.576 2.652 10.168 6.266 13.766 4.287 4.272 9.482 6.407 15.587 6.407 8.355 0 15.188-3.293 20.492-9.882l10.787 11.07.194.064-4.078 4.854H331c-8.005 9.055-17.43 13.56-28.275 13.56-10.893 0-19.86-3.263-26.91-10.116-6.06-5.893-9.51-13.12-10.36-21.672-.923-3.454-1.385-7.146-1.385-11.072 0-11.256 3.87-20.658 11.608-28.188 7.738-7.528 17.204-11.31 28.394-11.31m0-3c-11.936 0-22.192 4.092-30.486 12.16-8.305 8.08-12.517 18.288-12.517 30.34 0 4.08.478 7.984 1.425 11.61.958 9.137 4.735 16.97 11.23 23.283 7.48 7.277 17.237 10.967 29 10.967 11.596 0 21.782-4.812 30.282-14.305.115-.1.223-.208.32-.325l4.08-4.854a2.998 2.998 0 0 0-.737-4.493l-10.394-10.665a3 3 0 0 0-4.485.212c-4.747 5.897-10.686 8.764-18.154 8.764-5.328 0-9.734-1.81-13.47-5.53-3.057-3.044-4.812-6.84-5.36-11.596.6-4.057 2.267-7.29 5.087-9.874 3.676-3.368 7.988-5.006 13.185-5.006 6.52 0 11.846 2.668 16.28 8.156a2.998 2.998 0 0 0 2.27 1.113h.063c.863 0 1.686-.37 2.255-1.02l9.813-11.177c.198-.226.36-.48.484-.753l3.48-7.77c.59-.675.83-1.55.715-2.384a2.993 2.993 0 0 0-1.545-2.55c-8.81-9.49-19.85-14.302-32.82-14.302zM60.904 99.072c-.476 0-.923-.226-1.206-.607L40.24 72.163l-4.356 4.97V92.66l.01.017c.29.412.353.94.17 1.408L34.48 98.12a1.5 1.5 0 0 1-1.396.952H17.308a1.5 1.5 0 0 1-1.5-1.5v-79.84c0-.83.67-1.5 1.5-1.5h17.076c.83 0 1.5.67 1.5 1.5v27.256L62.06 16.713a1.5 1.5 0 0 1 1.1-.48h21.038a1.5 1.5 0 0 1 1.485 1.716c.01.256-.046.516-.17.752l-4.867 9.31a1.48 1.48 0 0 1-.22.312l-22.953 25.26a5637.04 5637.04 0 0 1 12.14 16.953c1.932 2.708 3.73 5.237 5.394 7.58 4.397 6.185 7.87 11.07 10.392 14.442a1.5 1.5 0 0 1-.37 2.145l-4.746 4.012a1.5 1.5 0 0 1-.968.354H60.904z"/><path d="M84.197 17.73l-.246.275h.232l-4.867 9.31-23.77 26.16c2.8 3.893 7.08 9.853 12.845 17.933 7.048 9.88 12.318 17.386 15.806 22.05H80.74l3.316.105-4.742 4.01H60.905l-20.565-27.8-5.956 6.794v16.89h-.826v.11l1.11-.03-1.582 4.035H17.308V17.73h17.076v31.086L63.16 17.73h21.037m0-3H63.16a3 3 0 0 0-2.202.963L37.384 41.16V17.73a3 3 0 0 0-3-3H17.308a3 3 0 0 0-3 3v79.842a3 3 0 0 0 3 3h15.777a3 3 0 0 0 2.793-1.905l1.58-4.034a2.997 2.997 0 0 0-.075-2.366v-14.57l2.757-3.146 18.352 24.807a2.998 2.998 0 0 0 2.412 1.216h18.412a3 3 0 0 0 1.937-.71l4.692-3.966a3.003 3.003 0 0 0 .656-4.236c-2.51-3.357-5.978-8.236-10.37-14.414-1.665-2.342-3.463-4.872-5.396-7.58C66.854 64.09 63.1 58.844 59.4 53.694l22.136-24.363c.172-.19.32-.4.438-.628l4.867-9.31c.226-.428.34-.896.343-1.366a3 3 0 0 0-2.986-3.297zM93.61 99.072a1.5 1.5 0 0 1-1.487-1.295L91.56 93.7a1.475 1.475 0 0 1-.013-.23V35.018c0-.828.67-1.5 1.5-1.5h16.525c.83 0 1.5.672 1.5 1.5v58.44c0 .237-.055.463-.154.662l-.658 3.714a1.5 1.5 0 0 1-1.477 1.238H93.61z"/><path d="M109.573 35.018v58.44h-1.102v.274h.994l-.68 3.84H93.61l-.563-4.078.143-.036h-.143v-58.44h16.526m0-3H93.048a3 3 0 0 0-3 3v58.435c-.002.15.007.3.028.45l.562 4.08a3 3 0 0 0 2.972 2.59h15.175a3 3 0 0 0 2.954-2.477l.626-3.538a3 3 0 0 0 .208-1.1v-58.44a3 3 0 0 0-3-3z"/><path d="M101.196 33.578c-2.894 0-5.377-1.012-7.38-3.007-1.593-1.587-2.567-3.49-2.895-5.654-.466-1.235-.703-2.583-.703-4.007 0-3.08 1.083-5.722 3.22-7.85 2.136-2.128 4.785-3.207 7.873-3.207 3.09 0 5.738 1.08 7.872 3.208 2.137 2.127 3.22 4.768 3.22 7.85 0 1.8-.376 3.47-1.12 4.963-.445 1.774-1.354 3.354-2.705 4.7-2.003 1.993-4.486 3.005-7.38 3.005z"/><path d="M101.31 11.354c2.687 0 4.96.922 6.812 2.77 1.854 1.845 2.78 4.108 2.78 6.786 0 1.637-.347 3.116-1.038 4.44-.363 1.576-1.142 2.962-2.345 4.16-1.72 1.712-3.83 2.568-6.324 2.568-2.496 0-4.602-.856-6.322-2.57-1.406-1.4-2.236-3.058-2.493-4.975-.44-1.108-.664-2.315-.664-3.624 0-2.68.927-4.942 2.78-6.787 1.854-1.848 4.124-2.77 6.813-2.77m0-3c-3.5 0-6.505 1.228-8.932 3.646-2.43 2.42-3.662 5.417-3.662 8.91 0 1.55.25 3.024.746 4.388.4 2.425 1.506 4.555 3.294 6.337 2.295 2.286 5.134 3.444 8.44 3.444s6.144-1.16 8.438-3.444c1.507-1.5 2.535-3.262 3.06-5.24.8-1.665 1.207-3.508 1.207-5.485 0-3.493-1.232-6.492-3.664-8.912-2.42-2.418-5.425-3.644-8.927-3.644z"/><g><path d="M218.547 99.86c-4.094 0-8.505-.77-13.113-2.287-4.402-1.45-8.543-3.72-12.308-6.747-.25-.2-.428-.476-.51-.785l-1.04-3.92a1.508 1.508 0 0 1-.3-1.15 1.503 1.503 0 0 1 1.027-1.725l6.423-9.12a1.498 1.498 0 0 1 2.142-.322c5.802 4.474 12.06 6.742 18.595 6.742.892 0 1.688-.083 2.383-.247-1.457-.95-3.586-1.868-6.33-2.73-3.037-.95-5.398-1.782-7.016-2.47-1.653-.7-3.547-1.72-5.627-3.033-4.555-2.827-6.87-7.07-6.87-12.607 0-.303.01-.602.024-.897-.706-1.842-1.063-3.895-1.063-6.105 0-5.853 2.395-10.69 7.118-14.376 4.61-3.598 10.604-5.422 17.818-5.422 7.172 0 14.42 2.424 21.545 7.204a1.5 1.5 0 0 1 .473 1.978l-.05.088-1.944 7.382c-.033.124-.08.242-.143.354l-5.664 10.078a1.52 1.52 0 0 1-.446.493c.846.445 1.746.952 2.696 1.52 4.537 2.746 6.833 7.324 6.833 13.612 0 3.953-.96 7.47-2.856 10.458-.932 3.498-2.89 6.486-5.827 8.886-4.182 3.418-9.556 5.15-15.97 5.15zm3.982-43.788c1.852.58 3.453 1.096 4.792 1.547a22.803 22.803 0 0 0-4.913-1.586l.12.038z"/><path d="M219.902 34.157c6.903 0 13.806 2.317 20.71 6.95l-.143.253-1.995 7.566-5.665 10.078c-4.72-3.225-9.426-4.837-14.11-4.837-1.7 0-3.087.17-4.17.507 1.626.82 4.143 1.764 7.552 2.83 3.706 1.157 6.34 2.046 7.902 2.66 1.562.614 3.434 1.573 5.615 2.876 4.066 2.462 6.1 6.57 6.1 12.324 0 3.774-.918 7.056-2.746 9.85-.828 3.296-2.62 6.072-5.385 8.333-3.946 3.224-8.953 4.813-15.023 4.813-4.046 0-8.26-.77-12.644-2.213-4.385-1.443-8.33-3.67-11.836-6.49l-1.15-4.338c-.05-.043-.104-.083-.157-.125l.092-.128-.104-.39h.382l6.824-9.69c6.104 4.708 12.607 7.056 19.51 7.056 2.108 0 3.78-.416 5.016-1.25.026-.017.047-.036.072-.053-.394-.55-.96-1.077-1.705-1.582-1.586-1.072-3.88-2.08-6.88-3.022-3-.94-5.294-1.747-6.877-2.42-1.586-.67-3.39-1.644-5.413-2.92-4.114-2.554-6.17-6.333-6.17-11.34 0-.387.016-.768.04-1.144-.716-1.74-1.08-3.692-1.08-5.86 0-5.392 2.18-9.79 6.54-13.193 4.36-3.402 9.99-5.103 16.895-5.103m0-3c-7.557 0-13.862 1.93-18.74 5.738-5.107 3.985-7.696 9.22-7.696 15.56 0 2.277.354 4.407 1.052 6.344-.01.232-.013.45-.013.658 0 5.19 1.962 9.484 5.702 12.543a3.04 3.04 0 0 0-.702.023c-.81.123-1.533.57-2.004 1.24l-6.182 8.776a3.004 3.004 0 0 0-1.552 2.965c-.038.607.11 1.22.428 1.746l.973 3.675a3 3 0 0 0 1.02 1.57c3.905 3.14 8.205 5.496 12.78 7.002 4.757 1.568 9.327 2.363 13.58 2.363 6.77 0 12.463-1.848 16.92-5.49 3.125-2.553 5.23-5.727 6.27-9.44 1.968-3.188 2.965-6.908 2.965-11.065 0-6.85-2.54-11.86-7.55-14.89-.445-.268-.88-.52-1.3-.76l5.24-9.32c.125-.22.22-.458.286-.704l1.9-7.203a3 3 0 0 0-.993-3.872c-7.377-4.95-14.907-7.458-22.383-7.458zm-8.318 46.703c-.78-.242-1.552-.52-2.32-.84.69.266 1.462.545 2.32.84z"/></g><g><path d="M372.545 99.908c-8.63 0-15.912-2.857-21.64-8.492-3.268-3.217-5.64-6.92-7.05-11.007-2.802-4.71-4.223-10.114-4.223-16.065 0-8.845 3.12-16.42 9.274-22.513 6.15-6.088 13.97-9.175 23.237-9.175s17.086 3.087 23.237 9.174c6.154 6.096 9.274 13.67 9.274 22.515 0 4.56-.836 8.818-2.486 12.66-1.146 5.477-3.834 10.324-7.987 14.41-5.723 5.636-13.003 8.493-21.635 8.493zm-11.972-28.234a13.405 13.405 0 0 0 2.218 3.336c2.45 2.7 5.51 4.014 9.355 4.014s6.905-1.313 9.354-4.014c1.407-1.553 2.425-3.406 3.025-5.514-.173-3.628-1.28-6.536-3.387-8.885-2.253-2.512-5.063-3.733-8.593-3.733-3.53 0-6.343 1.222-8.595 3.734-2.296 2.562-3.41 5.794-3.41 9.884 0 .4.01.793.033 1.18z"/><path d="M372.145 34.157c8.9 0 16.295 2.914 22.183 8.74 5.886 5.83 8.83 12.978 8.83 21.447 0 4.436-.81 8.503-2.425 12.206-1.072 5.264-3.604 9.863-7.602 13.796-5.462 5.376-12.325 8.062-20.585 8.062-8.263 0-15.123-2.686-20.588-8.062-3.158-3.108-5.4-6.633-6.733-10.572-2.726-4.523-4.09-9.666-4.09-15.43 0-8.47 2.942-15.618 8.83-21.447 5.886-5.826 13.278-8.74 22.18-8.74m0 46.366c4.252 0 7.74-1.5 10.466-4.506 1.63-1.797 2.77-3.915 3.424-6.35-.148-4.06-1.408-7.413-3.778-10.058-2.53-2.822-5.765-4.234-9.71-4.234s-7.184 1.412-9.712 4.233c-2.53 2.82-3.794 6.447-3.794 10.883 0 .528.02 1.045.055 1.55a14.91 14.91 0 0 0 2.586 3.974c2.725 3.006 6.214 4.506 10.465 4.506m0-49.366c-9.678 0-17.85 3.232-24.292 9.608-6.45 6.387-9.72 14.32-9.72 23.58 0 6.17 1.465 11.785 4.355 16.698 1.492 4.25 3.97 8.1 7.364 11.44 6.02 5.922 13.654 8.924 22.692 8.924 9.04 0 16.674-3.002 22.69-8.924 4.33-4.26 7.146-9.314 8.372-15.025 1.69-3.994 2.55-8.404 2.55-13.114 0-9.26-3.27-17.192-9.72-23.58-6.44-6.374-14.615-9.607-24.29-9.607zm-10.088 40.138c-.012-.27-.018-.538-.018-.8 0-3.704.99-6.61 3.026-8.882 1.952-2.178 4.397-3.236 7.48-3.236 3.077 0 5.523 1.06 7.476 3.236 1.817 2.028 2.8 4.553 2.99 7.707-.546 1.805-1.407 3.34-2.624 4.682-2.15 2.37-4.845 3.52-8.243 3.52s-6.094-1.15-8.242-3.52a11.9 11.9 0 0 1-1.846-2.707z"/></g><g><path d="M439.41 99.908c-6.88 0-13.07-2.907-18.4-8.64-2.86-3.08-4.98-6.62-6.303-10.528-2.8-4.916-4.22-10.614-4.22-16.938 0-9.045 2.817-16.573 8.377-22.375 5.573-5.818 12.21-8.77 19.73-8.77 6.295 0 11.645 1.826 15.954 5.436V13.066a1.5 1.5 0 0 1 1.5-1.5h16.25a1.5 1.5 0 0 1 1.5 1.5v80.24c.033.262-.004.53-.11.78l-1.752 4.077c-.236.55-.778.908-1.378.908h-15.063a1.5 1.5 0 0 1-1.5-1.5v-3.274c-3.995 3.685-8.97 5.612-14.585 5.612zm-8.102-28.596a13.478 13.478 0 0 0 2.48 3.677c2.56 2.715 5.446 4.034 8.826 4.034 3.36 0 6.146-1.308 8.52-3.998 1.36-1.54 2.346-3.368 2.933-5.437-.164-3.594-1.28-6.642-3.318-9.064-2.185-2.59-4.772-3.85-7.91-3.85-3.145 0-5.785 1.28-8.07 3.917-2.34 2.698-3.476 5.97-3.476 10.002 0 .242.005.48.014.717z"/><path d="M472.3 13.066v80.392h-.16l.17.036-1.75 4.078h-15.064v-7.126c-4.13 5.31-9.647 7.962-16.086 7.962-6.44 0-12.244-2.72-17.303-8.162-2.77-2.98-4.773-6.357-6.025-10.123-2.73-4.734-4.096-10.174-4.096-16.32 0-8.69 2.656-15.802 7.96-21.338 5.306-5.54 11.524-8.308 18.647-8.308 7.12 0 13.047 2.497 17.455 7.493V13.066h16.25m-29.685 67.457c3.778 0 6.993-1.5 9.646-4.506 1.57-1.78 2.673-3.865 3.313-6.255-.14-4.054-1.366-7.456-3.68-10.203-2.463-2.924-5.48-4.385-9.055-4.385s-6.643 1.48-9.204 4.435c-2.563 2.957-3.843 6.618-3.843 10.984 0 .362.013.716.03 1.066a14.9 14.9 0 0 0 2.873 4.356c2.836 3.007 6.14 4.507 9.92 4.507M472.3 10.066h-16.25a3 3 0 0 0-3 3v22.088c-4.122-2.63-9.02-3.997-14.456-3.997-7.943 0-14.946 3.106-20.813 9.232-5.834 6.09-8.793 13.967-8.793 23.41 0 6.535 1.462 12.44 4.347 17.557 1.393 4.056 3.604 7.732 6.577 10.93 5.627 6.053 12.188 9.12 19.5 9.12 4.88 0 9.308-1.358 13.087-3.982v.147a3 3 0 0 0 3 3h15.063a3 3 0 0 0 2.757-1.816l1.752-4.078c.197-.46.273-.96.23-1.448V13.066c0-1.656-1.344-3-3-3zm-39.503 60.888c-.002-.12-.004-.238-.004-.36 0-3.654 1.018-6.604 3.11-9.02 1.98-2.287 4.25-3.398 6.937-3.398 2.668 0 4.88 1.085 6.762 3.317 1.8 2.14 2.77 4.733 2.953 7.92-.533 1.772-1.368 3.287-2.544 4.62-2.073 2.348-4.492 3.49-7.396 3.49-2.944 0-5.475-1.166-7.735-3.564a12.015 12.015 0 0 1-2.083-3.006z"/></g><g><path d="M515.463 99.908c-8.62 0-15.858-2.697-21.514-8.017-3.468-3.257-5.912-7.244-7.27-11.853-2.394-4.505-3.608-9.82-3.608-15.802 0-9.593 3.15-17.346 9.365-23.04 6.18-5.666 13.576-8.54 21.986-8.54 8.382 0 15.616 2.57 21.504 7.64 5.924 5.103 8.928 12.207 8.928 21.116v8.725c0 .227-.05.44-.14.633l-1.78 5.33a1.5 1.5 0 0 1-1.422 1.025h-8.152l5.583 6.083a1.497 1.497 0 0 1 1.19 1.703 1.504 1.504 0 0 1-.358 1.16l-1.288 3.95c-.077.238-.214.454-.397.626-6.527 6.147-14.14 9.262-22.627 9.262zm-8.145-22.784c2.4 1.523 5.087 2.295 7.998 2.295 3.552 0 6.614-.756 9.266-2.296h-17.264zm11.613-20.012c-1.206-.457-2.557-.683-4.072-.683-1.47 0-2.845.225-4.146.682h8.22z"/><path d="M514.424 34.157c8.066 0 14.893 2.426 20.525 7.274 5.63 4.852 8.405 11.512 8.405 19.98v8.725h-.01l-1.832 5.488H529.95l8.308 9.054h.393l-.1.31.093.098-.18.167-1.402 4.304c-6.136 5.778-13.337 8.853-21.597 8.853-8.262 0-15.092-2.536-20.486-7.61-3.32-3.12-5.62-6.897-6.898-11.33-2.335-4.33-3.507-9.406-3.507-15.232 0-9.192 2.955-16.506 8.88-21.936 5.92-5.43 12.904-8.145 20.97-8.145m-8.948 24.455h18.11c-.333-.548-.696-.798-1.09-1.127-2.09-1.746-4.638-2.556-7.638-2.556s-5.75.864-8.244 2.678c-.408.297-.785.456-1.138 1.004m9.84 22.307c5.483 0 10.036-1.73 13.665-5.296h-25.693c.684.823 1.494 1.56 2.438 2.233 2.834 2.03 6.03 3.062 9.59 3.062m-.89-49.763c-8.798 0-16.537 3.005-23 8.933-6.538 5.99-9.853 14.115-9.853 24.146 0 6.17 1.25 11.676 3.714 16.37 1.44 4.808 4.01 8.97 7.636 12.38 5.942 5.588 13.526 8.422 22.54 8.422 8.884 0 16.842-3.253 23.655-9.668.366-.346.64-.777.796-1.255l1.21-3.712a3.002 3.002 0 0 0 .516-1.834 2.99 2.99 0 0 0-.56-2.023 2.993 2.993 0 0 0-1.302-1.02l-3.004-3.273h4.74a3 3 0 0 0 2.845-2.05l1.76-5.275c.15-.358.235-.752.235-1.164v-8.724c0-9.365-3.18-16.853-9.448-22.254-6.168-5.308-13.732-8-22.483-8z"/></g></g><g fill="#CCC"><path d="M108.36 43.782h-15V93.68l-.384.034.56 4.068h15.175l.682-4h-1.03zM101.125 14.188c-2.496 0-4.603.86-6.322 2.58s-2.58 3.827-2.58 6.32c0 2.497.86 4.604 2.58 6.323s3.826 2.58 6.322 2.58c2.494 0 4.603-.86 6.322-2.58s2.58-3.825 2.58-6.32-.86-4.604-2.58-6.323-3.828-2.58-6.322-2.58zM181.36 22.782h-15v26.63c-5-4.654-9.802-6.98-16.41-6.98-6.61 0-12.49 2.58-17.413 7.738-4.924 5.158-7.44 11.784-7.44 19.877 0 8.092 2.5 14.87 7.557 20.333 5.058 5.462 11.02 8.193 17.46 8.193 6.44 0 11.246-2.664 16.246-7.992v3.093l-.44-.016.1 4.106 1.34.02h13.72l.948-4h-.667v-71zm-18.943 58.645c-2.463 2.8-5.447 4.198-8.953 4.198-3.507 0-6.575-1.398-9.205-4.198-2.63-2.798-3.946-6.39-3.946-10.772 0-4.383 1.28-8.06 3.843-11.026 2.562-2.968 5.63-4.452 9.206-4.452 3.574 0 6.59 1.467 9.054 4.4 2.46 2.934 3.692 6.61 3.692 11.026 0 4.417-1.232 8.025-3.693 10.823zM218.624 54.166c4.686 0 9.39 1.617 14.11 4.854l5.666-10.116 2.044-7.79-5.083.668v5.257c-5.393-3.06-10.786-4.61-16.18-4.61-6.407 0-11.633 1.587-15.68 4.756-4.045 3.17-6.07 7.268-6.07 12.29 0 5.025 2.057 8.818 6.17 11.38 2.024 1.283 3.828 2.26 5.413 2.935 1.584.676 3.877 1.485 6.88 2.43 3 .944 5.292 1.956 6.878 3.033 1.584 1.08 2.377 2.26 2.377 3.54 0 1.282-.574 2.312-1.72 3.086s-2.697 1.163-4.652 1.163c-6.407 0-12.6-2.19-18.264-6.576l-4.15 5.69v-1.374h-3.688l1.32 5.006c3.505 2.83 7.45 5.066 11.834 6.516 4.383 1.45 8.598 2.222 12.645 2.222 6.07 0 11.078-1.596 15.023-4.832 3.945-3.236 5.917-7.524 5.917-12.887 0-5.36-1.89-9.183-5.664-11.476-2.023-1.214-3.76-2.104-5.21-2.678-1.45-.572-3.895-1.396-7.334-2.477-3.44-1.08-5.902-2.024-7.385-2.834-1.483-.81-2.225-1.92-2.225-3.337.002-2.563 2.344-3.844 7.032-3.844zM303 40.51c7.418 0 13.623 3.103 18.613 9.306l9.813-11.22 3.936-8.814h-3l-6.893 3.227c-6.637-5.106-14.36-7.62-23.177-7.62-10.387 0-19.17 3.53-26.352 10.544-7.18 7.015-10.772 15.776-10.772 26.262 0 10.487 3.522 19.175 10.572 26.054 7.045 6.88 16.016 10.15 26.906 10.15 10.846 0 20.27-4.617 28.274-13.617h.034l4.078-4.87-8.672-2.786V79.8l-5.252-5.2c-4.924 6.138-11.365 9.205-19.12 9.205-5.664 0-10.538-1.988-14.517-5.968-3.978-3.98-5.99-9.256-5.99-15.83s2.093-11.802 6.308-15.68c4.216-3.88 9.278-5.818 15.212-5.818zM372.465 42.43c-8.262 0-15.123 2.717-20.586 8.145-5.462 5.43-8.194 12.088-8.194 19.98 0 7.89 2.732 14.532 8.193 19.928 5.462 5.396 12.323 8.092 20.585 8.092 8.26 0 15.123-2.696 20.586-8.092s8.194-12.04 8.194-19.93c0-7.89-2.73-14.548-8.193-19.978-5.462-5.43-12.325-8.144-20.585-8.144zm9.71 38.997c-2.528 2.8-5.765 4.198-9.71 4.198s-7.182-1.398-9.71-4.198c-2.53-2.798-3.794-6.424-3.794-10.874s1.265-8.093 3.794-10.925 5.766-4.25 9.71-4.25 7.183 1.418 9.712 4.25 3.793 6.474 3.793 10.925c0 4.45-1.265 8.076-3.794 10.874zM470.36 22.782h-14v26.63c-4-4.654-10.604-6.98-17.214-6.98s-12.39 2.58-17.312 7.738c-4.923 5.158-7.392 11.784-7.392 19.877 0 8.092 2.525 14.87 7.583 20.333 5.06 5.462 10.833 8.193 17.274 8.193 6.438 0 12.06-2.664 16.06-7.992v7.202h15.115l1.754-4.068-1.87-.137V22.782zm-18.546 58.645c-2.463 2.8-5.447 4.198-8.953 4.198-3.507 0-6.573-1.398-9.204-4.198-2.63-2.798-3.945-6.39-3.945-10.772 0-4.383 1.282-8.06 3.845-11.026 2.563-2.968 5.63-4.452 9.205-4.452s6.592 1.467 9.055 4.4c2.46 2.934 3.69 6.61 3.69 11.026 0 4.417-1.23 8.025-3.69 10.823zM84.11 17.782h-3l-12.965 9H59.72L33.36 56.087V26.782h-16v71h15.655l1.52-4.074-1.174.005v-15.98l6.908-7.88 20.564 27.93h6.907-.005 11.507l4.743-4-7.725-.19A8805.162 8805.162 0 0 1 64.574 77.18c-6.542-9.206-11.026-15.494-13.454-18.867L79.243 27.18l4.868-9.398zM543.264 70.153l-1.902-.234v-2.1c0-7.89-2.58-14.093-7.807-18.612-5.227-4.517-11.564-6.777-19.05-6.777-7.485 0-13.968 2.53-19.464 7.588-5.497 5.058-8.24 11.87-8.24 20.435 0 8.564 2.7 15.393 8.097 20.483 5.395 5.093 12.223 7.638 20.484 7.638 8.26 0 15.462-3.087 21.6-8.887l1.59-4.904h-3l-.952 2.346-6.135-6.554c-3.44 3.575-7.824 5.408-13.15 5.408-3.305 0-6.27-.986-8.902-2.875s-4.18-4.327-4.65-7.327h39.65l1.834-5.63zm-41.082-5.37c.404-3 1.854-5.41 4.35-7.23 2.494-1.82 5.242-2.656 8.244-2.656 3 0 5.547.763 7.637 2.516 2.09 1.754 3.303 4.37 3.643 7.37h-23.874z"/></g><g fill="#FFF"><path d="M17.308 17.51h17.004v31.283L63.088 17.51h21.037L53.823 51.19C56.44 54.826 61.27 61.6 68.32 71.52A7577.132 7577.132 0 0 0 84.125 93.7H64.287L41.942 63.618l-7.63 8.502V93.7H17.308V17.51zM94.425 27.593c-1.853-1.854-2.78-4.123-2.78-6.813 0-2.688.927-4.96 2.78-6.813 1.853-1.854 4.124-2.78 6.813-2.78 2.688 0 4.96.927 6.813 2.78 1.854 1.853 2.78 4.125 2.78 6.813 0 2.69-.926 4.96-2.78 6.813-1.852 1.853-4.124 2.78-6.812 2.78-2.69 0-4.96-.928-6.813-2.78zM109.413 93.7h-16.35V35.06h16.35V93.7zM148.38 94.573c-6.94 0-13.135-2.943-18.585-8.83s-8.175-13.188-8.175-21.908 2.65-15.86 7.957-21.418c5.303-5.56 11.517-8.34 18.64-8.34 7.12 0 12.933 2.508 17.44 7.522V12.822h16.35V93.7h-16.35v-7.738c-4.58 5.74-10.34 8.61-17.278 8.61zm-10.3-30.084c0 4.724 1.416 8.593 4.25 11.607 2.834 3.017 6.14 4.523 9.92 4.523 3.776 0 6.992-1.507 9.645-4.523 2.65-3.015 3.98-6.902 3.98-11.663 0-4.76-1.328-8.72-3.98-11.88-2.653-3.162-5.905-4.742-9.756-4.742-3.854 0-7.16 1.6-9.92 4.796-2.762 3.2-4.14 7.16-4.14 11.88zM241.626 75.443c0 5.777-2.125 10.41-6.376 13.897-4.25 3.488-9.646 5.232-16.187 5.232-4.36 0-8.902-.782-13.625-2.344-4.725-1.562-8.976-3.87-12.753-6.92l7.193-10.247c6.104 4.726 12.607 7.086 19.51 7.086 2.108 0 3.78-.418 5.015-1.254 1.234-.834 1.853-1.943 1.853-3.324 0-1.38-.854-2.652-2.56-3.815-1.71-1.16-4.18-2.25-7.413-3.27-3.234-1.017-5.706-1.89-7.412-2.616-1.707-.726-3.65-1.78-5.83-3.16-4.434-2.762-6.65-6.85-6.65-12.264 0-5.412 2.18-9.827 6.54-13.243 4.36-3.415 9.99-5.123 16.895-5.123 6.903 0 13.806 2.326 20.71 6.976l-6.104 10.9c-5.086-3.488-10.155-5.23-15.205-5.23-5.05 0-7.575 1.38-7.575 4.14 0 1.527.8 2.726 2.397 3.598 1.598.873 4.25 1.892 7.957 3.053 3.706 1.164 6.34 2.055 7.903 2.67 1.562.62 3.434 1.582 5.614 2.89 4.07 2.47 6.106 6.594 6.106 12.37zM303.56 78.66c8.355 0 15.187-3.307 20.49-9.92l10.9 11.227c-8.647 9.74-18.84 14.606-30.573 14.606-11.736 0-21.4-3.706-28.994-11.118-7.594-7.412-11.39-16.768-11.39-28.067 0-11.3 3.87-20.728 11.61-28.285 7.737-7.558 17.202-11.336 28.394-11.336 12.497 0 22.96 4.76 31.39 14.278l-10.57 11.99c-5.38-6.685-12.064-10.028-20.058-10.028-6.396 0-11.864 2.09-16.405 6.268-4.54 4.18-6.813 9.81-6.813 16.896s2.143 12.772 6.432 17.06c4.286 4.287 9.48 6.43 15.586 6.43zM403.076 64.38c0 8.502-2.943 15.66-8.828 21.474-5.887 5.814-13.28 8.72-22.182 8.72s-16.297-2.905-22.182-8.72c-5.887-5.813-8.83-12.972-8.83-21.474s2.943-15.677 8.83-21.527c5.885-5.85 13.28-8.774 22.182-8.774 8.9 0 16.295 2.925 22.182 8.773 5.885 5.85 8.828 13.025 8.828 21.527zm-45.562 0c0 4.796 1.363 8.703 4.088 11.718 2.725 3.017 6.213 4.523 10.465 4.523 4.25 0 7.738-1.506 10.463-4.522 2.726-3.015 4.088-6.922 4.088-11.718s-1.362-8.72-4.088-11.77c-2.725-3.053-6.213-4.58-10.463-4.58-4.252 0-7.74 1.527-10.465 4.58s-4.088 6.974-4.088 11.77zM438.664 94.573c-6.94 0-13.135-2.943-18.586-8.83-5.45-5.885-8.174-13.188-8.174-21.908s2.65-15.86 7.957-21.418c5.304-5.56 11.517-8.34 18.64-8.34 7.12 0 12.934 2.508 17.44 7.522V12.822h16.35V93.7h-16.35v-7.738c-4.58 5.74-10.338 8.61-17.276 8.61zm-10.3-30.084c0 4.724 1.415 8.593 4.25 11.607 2.833 3.017 6.14 4.523 9.92 4.523 3.776 0 6.99-1.507 9.645-4.523 2.65-3.015 3.978-6.902 3.978-11.663 0-4.76-1.327-8.72-3.98-11.88-2.653-3.162-5.903-4.742-9.755-4.742-3.853 0-7.158 1.6-9.92 4.796-2.76 3.2-4.14 7.16-4.14 11.88zM538.56 85.2c-6.612 6.25-14.37 9.373-23.27 9.373-8.902 0-16.26-2.742-22.072-8.23-5.814-5.485-8.72-12.843-8.72-22.07 0-9.23 2.958-16.57 8.882-22.02 5.922-5.45 12.918-8.175 20.982-8.175 8.066 0 14.914 2.436 20.547 7.303 5.63 4.87 8.446 11.556 8.446 20.058v8.72H500.63c.505 3.198 2.18 5.814 5.013 7.848 2.834 2.035 6.03 3.053 9.592 3.053 5.738 0 10.463-1.926 14.17-5.778l9.156 9.917zm-15.697-34.772c-2.252-1.89-4.996-2.834-8.23-2.834-3.233 0-6.194.98-8.882 2.943-2.688 1.962-4.25 4.615-4.687 7.957h25.723c-.362-3.488-1.67-6.176-3.923-8.066z"/></g><g><path d="M202.896 162.724a4.144 4.144 0 0 0 3.195 3.988c.025.005.052.007.076.013 5.92 1.478 10.304 6.835 10.29 13.213-.01 6.372-4.404 11.713-10.326 13.173a4.14 4.14 0 0 0-3.292 3.995l-.005 3.088-.01 4.832c-.01 6.056 4.936 11.02 10.993 11.03l16.34.028 8.564.015 16.34.028c6.056.01 11.02-4.936 11.03-10.99l.005-3.48.008-4.39a4.143 4.143 0 0 1 3.295-4.047c5.922-1.46 10.316-6.802 10.327-13.174.012-6.378-4.37-11.735-10.29-13.213l-.077-.013a4.14 4.14 0 0 1-3.193-3.913v-.075h-.002l.005-3.09.01-4.832c.01-6.056-4.936-11.018-10.992-11.028l-16.34-.03-8.564-.013-16.34-.03c-6.057-.01-11.02 4.936-11.03 10.99l-.006 3.48-.008 4.39-.002.054zM282.408 162.724v.076a4.146 4.146 0 0 0 3.194 3.912c.025.005.052.007.076.013 5.92 1.478 10.304 6.835 10.29 13.213-.01 6.372-4.404 11.713-10.326 13.173a4.14 4.14 0 0 0-3.293 3.995l-.006 3.088-.01 4.832c-.01 6.056 4.936 11.02 10.993 11.03l16.34.028 8.564.015 16.34.028c6.057.01 11.02-4.936 11.03-10.99l.006-3.48.008-4.39a4.143 4.143 0 0 1 3.296-4.047c5.92-1.46 10.315-6.802 10.326-13.174.012-6.378-4.37-11.735-10.29-13.213l-.077-.013a4.14 4.14 0 0 1-3.194-3.913v-.075h-.002l.005-3.09.008-4.832c.01-6.056-4.935-11.018-10.99-11.028l-16.34-.03-8.565-.013-16.34-.03c-6.057-.01-11.02 4.936-11.03 10.99l-.006 3.48-.008 4.39a.47.47 0 0 1-.004.053h.002zM95.288 180.345c0 19.338 15.155 35.124 34.232 36.16.396.042.796.065 1.2.065h34.327-6.816 15.82c6.072 0 11.042-4.968 11.042-11.042v-7.892c0-2 1.414-3.67 3.296-4.063 5.937-1.474 10.336-6.838 10.336-13.23 0-6.394-4.404-11.76-10.344-13.232-.026-.005-.052-.007-.077-.01a4.157 4.157 0 0 1-3.21-3.92v-.078l-.002-.05.002-.003v-7.892c0-4.515-2.75-8.42-6.657-10.125a10.906 10.906 0 0 0-4.386-.916h-15.82 6.817-34.327c-.404 0-.805.023-1.2.067-19.077 1.037-34.232 16.824-34.232 36.16zM364.026 193.404a4.237 4.237 0 0 0-3.364 4.145v8.047c0 6.193 5.068 11.26 11.263 11.26h57.15c.26 0 .52-.01.774-.028 19.745-.747 35.525-16.988 35.525-36.918 0-19.928-15.78-36.17-35.526-36.915a11.67 11.67 0 0 0-.775-.03h-57.15c-6.194 0-11.263 5.066-11.263 11.26v8.104l.002.078a4.237 4.237 0 0 0 3.275 3.995c.024.007.05.008.076.015 6.058 1.5 10.55 6.974 10.55 13.495 0 6.518-4.486 11.986-10.54 13.49z" opacity=".6"/><path fill="#FFDF11" d="M213.815 213.538c-3.196-.005-6.207-1.263-8.478-3.54s-3.518-5.294-3.513-8.49l.014-7.92c.034-2.402 1.754-4.487 4.09-4.972 5.587-1.38 9.52-6.397 9.53-12.196a12.56 12.56 0 0 0-9.533-12.24c-2.33-.54-3.96-2.537-4.027-4.867l.012-8.026c.013-6.612 5.4-11.99 12.01-11.99l41.268.07c6.623.013 12 5.41 11.99 12.032l-.015 7.92c.04 1.468 1.037 2.688 2.423 3.013 6.608 1.643 11.15 7.476 11.14 14.2a14.56 14.56 0 0 1-11.09 14.144 3.162 3.162 0 0 0-2.533 3.076l-.013 7.868c-.013 6.612-5.402 11.99-12.012 11.99l-41.263-.072z"/><path fill="#5C0000" d="M213.92 140.296h.022l16.34.028 8.564.014 16.34.03c6.057.01 11.002 4.972 10.99 11.028l-.008 4.83-.005 3.09a4.142 4.142 0 0 0 3.194 3.988c.026.006.052.01.077.014 5.92 1.478 10.303 6.835 10.29 13.213-.01 6.373-4.404 11.715-10.326 13.175a4.14 4.14 0 0 0-3.295 4.045l-.008 4.39-.005 3.48c-.012 6.05-4.965 10.99-11.013 10.99h-.018l-16.34-.027-8.565-.014-16.34-.03c-6.058-.01-11.002-4.974-10.992-11.03l.01-4.832.004-3.088a4.14 4.14 0 0 1 3.293-3.993c5.922-1.46 10.317-6.802 10.327-13.174.013-6.378-4.37-11.735-10.29-13.213-.025-.006-.052-.008-.077-.012a4.145 4.145 0 0 1-3.193-3.913l-.002-.076v-.002l.002-.053.008-4.39.005-3.478c.013-6.05 4.964-10.99 11.01-10.99m0-2c-7.16 0-12.995 5.825-13.01 12.986l-.004 3.48-.008 4.334-.05.893.12.12a6.146 6.146 0 0 0 4.667 5.035l.075.018.06.01a11.56 11.56 0 0 1 8.69 11.246 11.568 11.568 0 0 1-8.776 11.228c-2.77.594-4.804 3.074-4.845 5.914l-.006 3.113-.01 4.83c-.005 3.465 1.347 6.73 3.805 9.2a12.922 12.922 0 0 0 9.184 3.834l16.34.03 8.564.013 16.34.028c7.182 0 13.02-5.825 13.033-12.986l.006-3.48.008-4.39a2.144 2.144 0 0 1 1.7-2.09l.037-.007.037-.01a15.56 15.56 0 0 0 11.85-15.11 15.557 15.557 0 0 0-11.808-15.158l-.054-.014-.054-.01-.037-.008-.017-.003a2.14 2.14 0 0 1-1.595-2.008v-.767l.004-2.34.01-4.83c.012-7.174-5.814-13.02-12.988-13.033l-16.34-.03-8.566-.013-16.34-.028h-.023z"/><path fill="#FFDF11" d="M293.326 213.538c-3.196-.005-6.207-1.263-8.478-3.54s-3.52-5.294-3.513-8.49l.014-7.92c.033-2.402 1.753-4.487 4.09-4.972 5.587-1.38 9.52-6.397 9.53-12.196a12.56 12.56 0 0 0-9.534-12.24c-2.147-.497-3.702-2.236-3.983-4.33l-.115-.06.074-.693.01-7.812c.013-6.61 5.4-11.99 12.01-11.99l41.268.072c6.623.012 12 5.41 11.99 12.03l-.015 7.92c.04 1.47 1.036 2.69 2.423 3.015 6.608 1.643 11.152 7.476 11.14 14.2a14.56 14.56 0 0 1-11.087 14.144c-1.48.308-2.53 1.598-2.534 3.076l-.013 7.868c-.013 6.61-5.4 11.99-12.013 11.99l-41.264-.072z"/><path fill="#5C0000" d="M293.432 140.296h.02l16.34.028 8.565.014 16.34.03c6.057.01 11.002 4.972 10.99 11.028l-.008 4.83-.006 3.09a4.142 4.142 0 0 0 3.194 3.988c.027.006.052.01.077.014 5.92 1.478 10.303 6.835 10.29 13.213-.01 6.373-4.404 11.715-10.325 13.175a4.14 4.14 0 0 0-3.296 4.045l-.008 4.39-.005 3.48c-.01 6.05-4.964 10.99-11.012 10.99h-.018l-16.34-.027-8.564-.014-16.34-.03c-6.058-.01-11.002-4.974-10.992-11.03l.01-4.832.004-3.088a4.14 4.14 0 0 1 3.293-3.993c5.923-1.46 10.318-6.802 10.328-13.174.013-6.378-4.37-11.735-10.29-13.213-.025-.006-.052-.008-.077-.012a4.147 4.147 0 0 1-3.192-3.913v-.076l-.003-.002a.47.47 0 0 0 .003-.053l.008-4.39.006-3.478c.012-6.05 4.963-10.99 11.01-10.99m0-2c-7.16 0-12.996 5.825-13.01 12.986l-.005 3.48-.008 4.307-.145 1.304.29.146a6.15 6.15 0 0 0 4.59 4.626l.076.018.062.01a11.562 11.562 0 0 1 8.688 11.246 11.57 11.57 0 0 1-8.774 11.23c-2.77.593-4.805 3.073-4.846 5.913l-.005 3.113-.01 4.83c-.005 3.465 1.347 6.73 3.806 9.2a12.922 12.922 0 0 0 9.186 3.834l16.34.03 8.564.014 16.34.028c7.183 0 13.02-5.826 13.033-12.987l.005-3.48.008-4.39a2.144 2.144 0 0 1 1.7-2.09l.038-.007.036-.01a15.56 15.56 0 0 0 11.848-15.11 15.558 15.558 0 0 0-11.807-15.158l-.052-.013-.054-.01-.035-.008-.02-.004a2.14 2.14 0 0 1-1.595-2.008v-.767l.004-2.34.008-4.83c.013-7.173-5.813-13.02-12.987-13.032l-16.34-.03-8.564-.013-16.34-.028h-.024z"/><g><path fill="#F00" d="M130.72 214.055c-.422 0-.86-.023-1.305-.07-19.675-1.068-35.127-17.39-35.127-37.155s15.452-36.087 35.178-37.158c.377-.043.818-.067 1.254-.067h43.33c1.66 0 3.27.336 4.785 1 4.408 1.922 7.257 6.256 7.257 11.04v7.982a3.155 3.155 0 0 0 2.437 2.984c6.628 1.636 11.194 7.477 11.194 14.22a14.6 14.6 0 0 1-11.095 14.2 3.175 3.175 0 0 0-2.538 3.092v7.892c0 6.64-5.402 12.042-12.043 12.042h-43.33z"/><path fill="#5C0000" d="M174.05 140.604c1.558 0 3.04.327 4.386.915 3.908 1.704 6.657 5.61 6.657 10.124v8.021a4.157 4.157 0 0 0 3.21 3.92c.026.003.052.005.078.01 5.94 1.473 10.345 6.84 10.345 13.234 0 6.392-4.4 11.755-10.336 13.23a4.153 4.153 0 0 0-3.297 4.062v7.892c0 6.074-4.97 11.042-11.043 11.042h-15.818 6.816-34.327c-.403 0-.804-.023-1.2-.065-19.076-1.035-34.23-16.82-34.23-36.16 0-19.336 15.154-35.123 34.23-36.158.397-.044.797-.066 1.2-.066H174.05m-9.002-.002h-6.816 6.816m9.002-2h-43.328c-.455 0-.913.024-1.364.072-20.23 1.127-36.07 17.875-36.07 38.153s15.843 37.027 36.074 38.153c.46.048.918.07 1.36.07h43.328c7.192 0 13.043-5.85 13.043-13.04v-7.893a2.16 2.16 0 0 1 1.706-2.106l.035-.007.036-.01a15.598 15.598 0 0 0 11.855-15.17 15.6 15.6 0 0 0-11.863-15.174 2.81 2.81 0 0 0-.17-.034 2.156 2.156 0 0 1-1.6-2.017V151.64c0-5.18-3.083-9.875-7.856-11.957a12.915 12.915 0 0 0-5.186-1.08z"/></g><g><path fill="#0F0" d="M371.925 214.342c-6.76 0-12.262-5.5-12.262-12.26v-8.05c0-2.463 1.75-4.618 4.158-5.122 5.725-1.424 9.746-6.572 9.746-12.514a12.874 12.874 0 0 0-9.79-12.525c-2.374-.543-4.04-2.574-4.112-4.95l-.002-8.21c0-6.76 5.5-12.26 12.263-12.26h57.15c.282 0 .562.015.84.032 20.433.77 36.46 17.425 36.46 37.914 0 20.488-16.027 37.143-36.488 37.915-.246.02-.525.03-.807.03h-57.155z"/><path fill="#5C0000" d="M429.075 139.45c.26 0 .52.014.774.03 19.745.745 35.525 16.987 35.525 36.916s-15.78 36.17-35.526 36.916c-.257.018-.515.028-.774.03h-57.15c-6.195 0-11.263-5.068-11.263-11.262v-8.048a4.238 4.238 0 0 1 3.363-4.145c6.054-1.505 10.54-6.974 10.54-13.492 0-6.522-4.492-11.995-10.55-13.496-.026-.007-.052-.01-.077-.016a4.234 4.234 0 0 1-3.276-3.995v-.078h-.002v-8.103c0-6.194 5.068-11.262 11.263-11.262h57.15m0-1.998h-57.15c-7.313 0-13.263 5.948-13.263 13.26v8.203l.003.037a6.234 6.234 0 0 0 4.786 5.875l.07.02.088.015c5.257 1.315 8.958 6.06 8.958 11.537 0 5.47-3.695 10.212-8.99 11.543-2.85.617-4.912 3.173-4.914 6.093v8.05c0 7.31 5.95 13.26 13.263 13.26h57.15c.3 0 .59-.013.88-.032 10.075-.387 19.485-4.603 26.502-11.872 7.04-7.295 10.92-16.898 10.92-27.04s-3.88-19.745-10.92-27.04c-7.018-7.27-16.43-11.486-26.506-11.874-.288-.02-.58-.034-.875-.034z"/></g></g></svg>