<svg xmlns="http://www.w3.org/2000/svg" width="1063.965" height="465.921" viewBox="0 0 1063.965 465.921"><g fill="#472728"><path d="M398.168 217.83c-6.896 0-13.318-2.99-18.573-8.642a29.272 29.272 0 0 1-4.793-6.9c-4.407-5.7-6.64-12.62-6.64-20.565 0-9.046 2.818-16.573 8.377-22.375 5.57-5.818 12.207-8.77 19.728-8.77 6.296 0 11.647 1.825 15.955 5.435v-25.025c0-.828.67-1.5 1.5-1.5h16.25c.83 0 1.5.672 1.5 1.5v80.143a1.5 1.5 0 0 1 .05.884l-.946 3.84a1.502 1.502 0 0 1-1.457 1.14H415.4l-1.388-.043a1.5 1.5 0 0 1-1.452-1.462l-.077-3.16c-4.408 3.784-8.925 5.5-14.315 5.5zm-8.13-26.705c.422.633.9 1.232 1.42 1.784 2.56 2.714 5.448 4.034 8.828 4.034 3.36 0 6.148-1.308 8.523-3.998 1.94-2.2 3.11-4.978 3.473-8.26-.49-2.378-1.49-4.476-2.974-6.24-2.184-2.59-4.77-3.85-7.908-3.85-3.146 0-5.787 1.28-8.072 3.917-2.34 2.698-3.477 5.97-3.477 10.002 0 .906.062 1.782.185 2.61z"/><path d="M429.972 130.987v80.392h-.55v.273h.645l-.947 3.84H415.4l-1.34-.043-.1-4.07h-.238v-2.286c-4.68 4.82-9.418 7.235-15.554 7.235-6.44 0-12.416-2.722-17.475-8.163a27.617 27.617 0 0 1-4.614-6.68c-4.28-5.48-6.42-12.067-6.42-19.765 0-8.688 2.656-15.8 7.96-21.337 5.304-5.54 11.525-8.308 18.647-8.308 7.122 0 13.048 2.497 17.455 7.493v-28.584h16.25m-29.686 67.458c3.778 0 6.994-1.5 9.647-4.506 2.21-2.502 3.496-5.61 3.865-9.32-.524-2.734-1.638-5.113-3.342-7.138-2.463-2.923-5.48-4.384-9.054-4.384-3.576 0-6.643 1.48-9.206 4.435-2.564 2.958-3.843 6.62-3.843 10.985 0 1.104.084 2.157.253 3.16.51.8 1.094 1.556 1.76 2.263 2.836 3.006 6.142 4.506 9.92 4.506m29.686-70.457h-16.25a3 3 0 0 0-3 3v22.088c-4.12-2.63-9.017-3.997-14.455-3.997-7.945 0-14.948 3.106-20.813 9.233-5.835 6.09-8.794 13.967-8.794 23.412 0 8.23 2.31 15.418 6.864 21.365a30.8 30.8 0 0 0 4.97 7.12c5.548 5.968 12.35 9.12 19.673 9.12 4.798 0 8.938-1.26 12.888-3.996l.005.19a3 3 0 0 0 2.903 2.927l1.34.043c.032.002.064.002.096.002h13.718a3 3 0 0 0 2.914-2.28l.947-3.84a3 3 0 0 0-.008-1.466v-79.92a3 3 0 0 0-3-3zm-38.496 62.582a16.61 16.61 0 0 1-.123-2.055c0-3.655 1.017-6.605 3.11-9.02 1.983-2.287 4.253-3.4 6.94-3.4 2.667 0 4.878 1.086 6.76 3.317 1.29 1.535 2.145 3.288 2.6 5.345-.357 2.9-1.367 5.257-3.078 7.194-2.074 2.35-4.494 3.493-7.4 3.493-2.943 0-5.474-1.166-7.735-3.564-.387-.41-.747-.85-1.074-1.31zM550.69 217.658c-11.358 0-20.764-3.547-27.956-10.54-6.26-6.09-9.893-13.65-10.794-22.48-.933-3.53-1.406-7.347-1.406-11.34 0-11.63 4.06-21.477 12.063-29.264 8.004-7.788 17.908-11.736 29.44-11.736 12.628 0 23.362 4.72 31.91 14.03.272.105.51.29.684.535.19.27.28.59.272.908.087.446-.03.924-.35 1.284l-.14.156-3.575 7.98a1.5 1.5 0 0 1-.242.375l-9.813 11.177c-.285.325-.695.51-1.127.51h-.03a1.505 1.505 0 0 1-1.137-.557c-4.736-5.862-10.443-8.713-17.446-8.713-5.59 0-10.233 1.767-14.197 5.4-3.13 2.868-4.96 6.453-5.586 10.955.556 5.128 2.51 9.395 5.812 12.682 4.03 4.016 8.785 5.97 14.53 5.97 7.95 0 14.272-3.05 19.323-9.323a1.496 1.496 0 0 1 1.168-.56 1.5 1.5 0 0 1 1.074.453l10.55 10.825a1.5 1.5 0 0 1 .507 2.32l-4.08 4.855a1.5 1.5 0 0 1-.225.218c-8.217 9.212-18.05 13.88-29.23 13.88z"/><path d="M552.037 133.8c12.382 0 22.766 4.597 31.154 13.926h.213l-.07.192c.032.034.065.105.097.142l-.29.328-3.67 8.19-9.814 11.177c-4.992-6.18-11.195-9.27-18.613-9.27-5.936 0-10.998 1.932-15.21 5.793-3.417 3.13-5.44 7.145-6.085 12.04.57 5.576 2.652 10.168 6.266 13.766 4.288 4.272 9.483 6.407 15.588 6.407 8.355 0 15.188-3.292 20.492-9.88l10.788 11.07.194.063-4.08 4.854h-.032c-8.004 9.055-17.43 13.56-28.274 13.56-10.893 0-19.86-3.263-26.91-10.116-6.06-5.892-9.51-13.12-10.36-21.67-.923-3.455-1.385-7.147-1.385-11.073 0-11.256 3.87-20.658 11.608-28.188 7.738-7.53 17.204-11.31 28.394-11.31m0-3c-11.936 0-22.192 4.09-30.486 12.16-8.304 8.08-12.516 18.287-12.516 30.338 0 4.08.48 7.985 1.426 11.61.958 9.138 4.735 16.97 11.23 23.284 7.48 7.276 17.237 10.966 29 10.966 11.596 0 21.782-4.812 30.282-14.305.115-.1.223-.208.32-.325l4.08-4.854a2.998 2.998 0 0 0-.737-4.493l-10.394-10.664a3 3 0 0 0-4.484.212c-4.748 5.897-10.687 8.764-18.155 8.764-5.327 0-9.733-1.81-13.47-5.532-3.056-3.043-4.81-6.84-5.36-11.595.602-4.057 2.268-7.29 5.088-9.874 3.676-3.367 7.988-5.005 13.185-5.005 6.52 0 11.846 2.668 16.28 8.156a2.998 2.998 0 0 0 2.27 1.114h.063c.862 0 1.685-.37 2.254-1.02l9.813-11.177c.198-.226.36-.48.484-.753l3.48-7.77c.59-.675.83-1.55.715-2.384a2.993 2.993 0 0 0-1.545-2.55c-8.81-9.49-19.85-14.3-32.82-14.3zM308.87 216.993c-.477 0-.924-.226-1.207-.607l-19.458-26.302-4.356 4.97v15.528l.01.016c.29.412.352.94.168 1.408l-1.58 4.034a1.5 1.5 0 0 1-1.397.953h-15.776a1.5 1.5 0 0 1-1.5-1.5v-79.84c0-.83.67-1.5 1.5-1.5h17.076c.83 0 1.5.67 1.5 1.5v27.256l26.175-28.276a1.5 1.5 0 0 1 1.1-.48h21.04a1.5 1.5 0 0 1 1.484 1.716c.01.257-.047.517-.17.753l-4.868 9.31a1.48 1.48 0 0 1-.22.312l-22.952 25.262a5637.04 5637.04 0 0 1 12.14 16.952c1.932 2.707 3.73 5.236 5.394 7.578 4.397 6.186 7.87 11.07 10.392 14.443a1.5 1.5 0 0 1-.37 2.147l-4.745 4.012a1.5 1.5 0 0 1-.967.353H308.87z"/><path d="M332.162 135.652l-.246.274h.23l-4.866 9.31-23.77 26.16c2.8 3.893 7.08 9.853 12.845 17.933 7.048 9.88 12.318 17.385 15.806 22.05h-3.455l3.316.104-4.74 4.01h-18.412l-20.565-27.8-5.955 6.794v16.89h-.826v.11l1.11-.03-1.582 4.035h-15.777V135.65h17.076v31.085l28.774-31.085h21.038m0-3h-21.038a3 3 0 0 0-2.2.962l-23.575 25.466v-23.428a3 3 0 0 0-3-3h-17.077a3 3 0 0 0-3 3v79.84a3 3 0 0 0 3 3h15.777a3 3 0 0 0 2.793-1.905l1.58-4.034a2.997 2.997 0 0 0-.075-2.366v-14.57l2.757-3.146 18.352 24.806a2.998 2.998 0 0 0 2.412 1.216H327.28a3 3 0 0 0 1.938-.71l4.692-3.966a3.003 3.003 0 0 0 .656-4.236c-2.51-3.357-5.98-8.236-10.37-14.414-1.666-2.342-3.464-4.872-5.397-7.58a5859.378 5859.378 0 0 0-11.435-15.972l22.137-24.363c.172-.19.32-.4.438-.628l4.867-9.31c.225-.428.338-.896.342-1.366a3.004 3.004 0 0 0-2.987-3.297zM341.574 216.993a1.5 1.5 0 0 1-1.486-1.295l-.562-4.078a1.475 1.475 0 0 1-.014-.23v-58.45c0-.83.67-1.5 1.5-1.5h16.525c.83 0 1.5.67 1.5 1.5v58.44c0 .236-.055.462-.154.66l-.658 3.715a1.5 1.5 0 0 1-1.477 1.238h-15.174z"/><path d="M357.538 152.938v58.44h-1.102v.274h.993l-.68 3.84h-15.176l-.562-4.078.143-.036h-.143v-58.44h16.526m0-3h-16.525a3 3 0 0 0-3 3v58.435c-.002.15.007.3.028.45l.563 4.08a3 3 0 0 0 2.972 2.59h15.175a3 3 0 0 0 2.954-2.477l.627-3.538a3 3 0 0 0 .21-1.1v-58.44c-.002-1.657-1.346-3-3.002-3z"/><path d="M349.16 151.5c-2.893 0-5.376-1.013-7.38-3.008-1.592-1.588-2.566-3.49-2.894-5.655-.467-1.235-.704-2.583-.704-4.007 0-3.08 1.083-5.72 3.22-7.85 2.136-2.127 4.785-3.206 7.873-3.206 3.09 0 5.738 1.08 7.872 3.208 2.137 2.126 3.22 4.767 3.22 7.848 0 1.8-.376 3.47-1.12 4.964-.445 1.774-1.354 3.354-2.705 4.7-2.003 1.993-4.486 3.005-7.38 3.005z"/><path d="M349.274 129.274c2.688 0 4.96.922 6.813 2.77 1.854 1.845 2.78 4.108 2.78 6.786 0 1.637-.347 3.116-1.038 4.44-.364 1.576-1.143 2.962-2.346 4.16-1.72 1.712-3.828 2.568-6.323 2.568-2.495 0-4.6-.856-6.32-2.57-1.407-1.4-2.237-3.058-2.494-4.975-.442-1.108-.665-2.315-.665-3.624 0-2.68.928-4.942 2.78-6.787 1.855-1.847 4.125-2.77 6.814-2.77m0-3c-3.5 0-6.504 1.228-8.93 3.646-2.43 2.42-3.663 5.417-3.663 8.91 0 1.55.252 3.024.747 4.388.4 2.425 1.506 4.555 3.294 6.337 2.296 2.286 5.135 3.444 8.44 3.444s6.145-1.16 8.44-3.444c1.506-1.5 2.534-3.262 3.06-5.24.8-1.665 1.206-3.508 1.206-5.485 0-3.493-1.233-6.492-3.665-8.912-2.42-2.417-5.425-3.644-8.926-3.644z"/><g><path d="M466.512 217.782c-4.094 0-8.505-.77-13.113-2.288-4.403-1.45-8.544-3.72-12.31-6.747-.248-.2-.427-.476-.51-.785l-1.038-3.92a1.508 1.508 0 0 1-.302-1.15 1.503 1.503 0 0 1 1.028-1.726l6.423-9.12a1.498 1.498 0 0 1 2.143-.322c5.802 4.474 12.06 6.742 18.595 6.742.892 0 1.688-.083 2.383-.247-1.456-.95-3.585-1.87-6.33-2.73-3.036-.952-5.397-1.783-7.015-2.47-1.653-.7-3.547-1.722-5.627-3.034-4.555-2.827-6.87-7.07-6.87-12.607 0-.304.01-.603.024-.898-.706-1.843-1.063-3.896-1.063-6.106 0-5.853 2.394-10.69 7.117-14.376 4.61-3.597 10.604-5.42 17.818-5.42 7.172 0 14.42 2.423 21.545 7.203a1.5 1.5 0 0 1 .473 1.978l-.05.09-1.944 7.38c-.034.125-.082.243-.144.355l-5.665 10.078a1.52 1.52 0 0 1-.445.493c.846.445 1.746.952 2.696 1.52 4.538 2.746 6.834 7.324 6.834 13.612 0 3.953-.96 7.47-2.855 10.458-.933 3.498-2.892 6.486-5.828 8.886-4.182 3.417-9.556 5.15-15.97 5.15zm3.982-43.79c1.853.58 3.454 1.097 4.793 1.548a22.803 22.803 0 0 0-4.913-1.585l.12.038z"/><path d="M467.867 152.078c6.903 0 13.806 2.317 20.71 6.95l-.143.253-1.994 7.567-5.665 10.078c-4.72-3.225-9.426-4.837-14.11-4.837-1.7 0-3.087.17-4.17.507 1.626.82 4.143 1.764 7.552 2.83 3.706 1.157 6.34 2.046 7.902 2.66 1.56.614 3.433 1.573 5.614 2.876 4.067 2.463 6.102 6.57 6.102 12.325 0 3.774-.92 7.056-2.747 9.85-.83 3.296-2.62 6.072-5.386 8.333-3.945 3.224-8.952 4.813-15.022 4.813-4.046 0-8.26-.768-12.644-2.212-4.385-1.443-8.33-3.67-11.836-6.49l-1.15-4.338c-.05-.042-.104-.082-.157-.124l.092-.128-.104-.39h.382l6.824-9.69c6.103 4.708 12.606 7.056 19.51 7.056 2.107 0 3.78-.416 5.015-1.25.026-.017.047-.036.072-.053-.394-.55-.96-1.076-1.705-1.58-1.586-1.073-3.88-2.082-6.88-3.023-3-.94-5.294-1.747-6.877-2.42-1.586-.67-3.39-1.644-5.413-2.92-4.114-2.554-6.17-6.333-6.17-11.34 0-.387.016-.768.04-1.144-.716-1.74-1.08-3.692-1.08-5.86 0-5.392 2.18-9.79 6.54-13.193 4.36-3.4 9.99-5.102 16.895-5.102m0-3c-7.557 0-13.862 1.93-18.74 5.738-5.107 3.985-7.696 9.22-7.696 15.56 0 2.277.355 4.407 1.053 6.344-.01.233-.013.45-.013.66 0 5.19 1.962 9.483 5.702 12.542a3.04 3.04 0 0 0-.702.022c-.81.123-1.533.57-2.004 1.24l-6.183 8.776a3.004 3.004 0 0 0-1.552 2.966c-.037.607.11 1.22.43 1.746l.972 3.674a3 3 0 0 0 1.02 1.57c3.905 3.14 8.205 5.496 12.78 7.002 4.757 1.568 9.327 2.363 13.58 2.363 6.77 0 12.463-1.847 16.92-5.49 3.125-2.552 5.23-5.726 6.27-9.438 1.968-3.19 2.965-6.91 2.965-11.066 0-6.85-2.54-11.86-7.55-14.89-.445-.268-.88-.52-1.3-.76l5.24-9.32c.125-.22.22-.458.286-.704l1.9-7.204a3 3 0 0 0-.993-3.872c-7.377-4.95-14.907-7.458-22.383-7.458zm-8.318 46.703c-.78-.24-1.553-.52-2.32-.838.69.265 1.46.544 2.32.84z"/></g><g><path d="M620.51 217.83c-8.63 0-15.912-2.858-21.64-8.493-3.268-3.217-5.64-6.92-7.05-11.007-2.802-4.71-4.223-10.113-4.223-16.064 0-8.845 3.12-16.42 9.274-22.513 6.152-6.088 13.97-9.175 23.238-9.175s17.086 3.087 23.237 9.174c6.154 6.095 9.274 13.67 9.274 22.514 0 4.56-.837 8.818-2.487 12.66-1.146 5.477-3.834 10.324-7.987 14.41-5.724 5.636-13.004 8.493-21.636 8.493zm-11.972-28.235a13.405 13.405 0 0 0 2.218 3.336c2.448 2.702 5.51 4.015 9.354 4.015s6.905-1.313 9.354-4.014c1.408-1.552 2.426-3.405 3.026-5.513-.173-3.628-1.28-6.536-3.387-8.885-2.253-2.513-5.063-3.734-8.593-3.734-3.53 0-6.343 1.222-8.595 3.734-2.296 2.56-3.41 5.793-3.41 9.883 0 .4.01.793.033 1.18z"/><path d="M620.11 152.078c8.9 0 16.294 2.914 22.182 8.74 5.886 5.83 8.83 12.978 8.83 21.447 0 4.436-.81 8.503-2.425 12.206-1.072 5.265-3.604 9.864-7.602 13.797-5.463 5.376-12.326 8.062-20.586 8.062-8.264 0-15.124-2.687-20.59-8.063-3.157-3.108-5.4-6.633-6.732-10.572-2.726-4.523-4.09-9.666-4.09-15.43 0-8.47 2.942-15.618 8.83-21.447 5.886-5.826 13.28-8.74 22.18-8.74m0 46.366c4.252 0 7.74-1.5 10.466-4.506 1.63-1.797 2.77-3.915 3.424-6.35-.148-4.06-1.408-7.413-3.778-10.058-2.53-2.82-5.765-4.233-9.71-4.233s-7.184 1.412-9.712 4.233c-2.53 2.82-3.794 6.448-3.794 10.884 0 .528.02 1.045.055 1.55a14.91 14.91 0 0 0 2.585 3.974c2.725 3.006 6.213 4.506 10.464 4.506m0-49.366c-9.68 0-17.852 3.232-24.293 9.608-6.45 6.387-9.72 14.32-9.72 23.58 0 6.17 1.465 11.785 4.355 16.698 1.492 4.25 3.97 8.1 7.364 11.44 6.02 5.922 13.654 8.924 22.692 8.924 9.04 0 16.674-3.002 22.69-8.924 4.33-4.26 7.146-9.314 8.372-15.025 1.69-3.995 2.55-8.405 2.55-13.115 0-9.26-3.27-17.192-9.72-23.58-6.44-6.374-14.614-9.607-24.29-9.607zm-10.09 40.138c-.01-.27-.017-.538-.017-.8 0-3.704.99-6.61 3.027-8.882 1.952-2.178 4.397-3.236 7.48-3.236 3.077 0 5.523 1.06 7.476 3.236 1.817 2.028 2.8 4.553 2.99 7.707-.546 1.806-1.407 3.34-2.624 4.683-2.15 2.37-4.845 3.52-8.243 3.52s-6.095-1.15-8.243-3.52a11.965 11.965 0 0 1-1.846-2.707z"/></g><g><path d="M687.375 217.83c-6.88 0-13.07-2.908-18.4-8.642-2.86-3.078-4.98-6.62-6.303-10.527-2.8-4.915-4.22-10.613-4.22-16.937 0-9.045 2.817-16.573 8.377-22.375 5.572-5.818 12.21-8.77 19.728-8.77 6.296 0 11.646 1.826 15.955 5.436v-25.026a1.5 1.5 0 0 1 1.5-1.5h16.25a1.5 1.5 0 0 1 1.5 1.5v80.24c.033.262-.004.53-.11.78l-1.752 4.077c-.235.55-.777.908-1.377.908H703.46a1.5 1.5 0 0 1-1.5-1.5v-3.275c-3.995 3.684-8.97 5.61-14.585 5.61zm-8.103-28.598a13.478 13.478 0 0 0 2.48 3.677c2.56 2.715 5.446 4.034 8.826 4.034 3.36 0 6.146-1.308 8.52-3.998 1.36-1.54 2.346-3.368 2.933-5.437-.163-3.594-1.278-6.642-3.317-9.064-2.184-2.59-4.77-3.85-7.908-3.85-3.146 0-5.786 1.28-8.07 3.917-2.34 2.698-3.477 5.97-3.477 10.002 0 .243.006.48.014.717z"/><path d="M720.264 130.987v80.392h-.16l.172.035-1.752 4.078H703.46v-7.126c-4.13 5.31-9.646 7.962-16.085 7.962-6.44 0-12.244-2.722-17.303-8.163-2.77-2.98-4.773-6.357-6.025-10.123-2.73-4.734-4.096-10.174-4.096-16.32 0-8.69 2.657-15.802 7.962-21.338 5.305-5.54 11.523-8.308 18.646-8.308 7.12 0 13.047 2.497 17.455 7.493v-28.583h16.25m-29.685 67.457c3.778 0 6.993-1.5 9.646-4.506 1.57-1.78 2.674-3.865 3.314-6.255-.14-4.054-1.366-7.456-3.68-10.203-2.463-2.923-5.48-4.384-9.055-4.384s-6.643 1.48-9.204 4.435c-2.564 2.958-3.844 6.62-3.844 10.985 0 .362.012.716.03 1.066a14.9 14.9 0 0 0 2.872 4.357c2.836 3.007 6.14 4.507 9.92 4.507m29.686-70.457h-16.25a3 3 0 0 0-3 3v22.088c-4.12-2.63-9.018-3.997-14.455-3.997-7.944 0-14.947 3.106-20.814 9.232-5.835 6.09-8.794 13.968-8.794 23.412 0 6.534 1.462 12.438 4.347 17.556 1.392 4.056 3.603 7.732 6.576 10.93 5.626 6.053 12.187 9.12 19.5 9.12 4.88 0 9.307-1.358 13.086-3.982v.147a3 3 0 0 0 3 3h15.063a3 3 0 0 0 2.757-1.816l1.752-4.078c.198-.462.274-.96.23-1.45V130.99c0-1.657-1.343-3-3-3zm-39.502 60.888c-.002-.12-.004-.238-.004-.36 0-3.654 1.018-6.604 3.11-9.02 1.98-2.287 4.25-3.398 6.937-3.398 2.668 0 4.88 1.085 6.762 3.317 1.8 2.14 2.77 4.733 2.953 7.92-.533 1.772-1.368 3.287-2.544 4.62-2.074 2.348-4.493 3.49-7.397 3.49-2.945 0-5.476-1.166-7.736-3.564a12.015 12.015 0 0 1-2.082-3.005z"/></g><g><path d="M763.428 217.83c-8.62 0-15.858-2.698-21.514-8.018-3.467-3.258-5.91-7.245-7.268-11.854-2.395-4.505-3.61-9.82-3.61-15.802 0-9.593 3.152-17.346 9.366-23.04 6.18-5.666 13.576-8.54 21.986-8.54 8.382 0 15.616 2.57 21.504 7.64 5.924 5.103 8.928 12.207 8.928 21.116v8.724c0 .227-.05.44-.14.633l-1.78 5.33a1.5 1.5 0 0 1-1.422 1.024h-8.152l5.582 6.083a1.497 1.497 0 0 1 1.19 1.703 1.504 1.504 0 0 1-.358 1.16l-1.288 3.95c-.077.24-.214.455-.397.627-6.528 6.147-14.14 9.262-22.627 9.262zm-8.145-22.785c2.4 1.523 5.087 2.295 7.998 2.295 3.553 0 6.615-.755 9.267-2.295h-17.264zm11.613-20.012c-1.207-.457-2.558-.683-4.073-.683-1.47 0-2.845.226-4.146.683h8.22z"/><path d="M762.39 152.078c8.065 0 14.892 2.426 20.524 7.274 5.63 4.85 8.406 11.51 8.406 19.98v8.724h-.01l-1.832 5.488h-11.564l8.31 9.054h.392l-.102.31.094.098-.18.167-1.402 4.304c-6.137 5.778-13.338 8.853-21.598 8.853-8.262 0-15.092-2.535-20.486-7.61-3.32-3.12-5.62-6.896-6.898-11.33-2.334-4.328-3.506-9.405-3.506-15.23 0-9.193 2.955-16.507 8.88-21.937 5.92-5.43 12.904-8.145 20.97-8.145m-8.95 24.455h18.11c-.332-.548-.695-.798-1.088-1.127-2.092-1.746-4.64-2.556-7.64-2.556s-5.75.865-8.243 2.68c-.407.296-.784.455-1.138 1.003m9.84 22.307c5.483 0 10.036-1.73 13.665-5.295h-25.693c.684.823 1.494 1.56 2.438 2.233 2.833 2.03 6.03 3.062 9.59 3.062m-.89-49.762c-8.798 0-16.537 3.005-23 8.933-6.538 5.992-9.853 14.116-9.853 24.147 0 6.17 1.25 11.676 3.714 16.37 1.44 4.808 4.01 8.97 7.637 12.38 5.942 5.588 13.526 8.422 22.54 8.422 8.884 0 16.842-3.254 23.655-9.67.366-.345.64-.776.796-1.254l1.21-3.712a3.002 3.002 0 0 0 .516-1.834 2.99 2.99 0 0 0-.56-2.022 2.993 2.993 0 0 0-1.3-1.02l-3.005-3.273h4.738a3 3 0 0 0 2.846-2.05l1.76-5.275c.152-.357.236-.75.236-1.163v-8.724c0-9.365-3.18-16.853-9.448-22.254-6.168-5.31-13.732-8.002-22.483-8.002z"/></g></g><g fill="#CCC"><path d="M356.326 161.703h-15V211.6l-.385.035.562 4.068h15.174l.68-4h-1.03zM349.09 132.11c-2.497 0-4.604.858-6.323 2.578s-2.58 3.828-2.58 6.322c0 2.496.86 4.603 2.58 6.322s3.826 2.58 6.322 2.58c2.493 0 4.602-.86 6.32-2.58s2.58-3.826 2.58-6.322c0-2.494-.86-4.603-2.58-6.322s-3.827-2.58-6.32-2.58zM429.326 140.703h-15v26.63c-5-4.654-9.803-6.98-16.412-6.98-6.61 0-12.49 2.58-17.412 7.738-4.924 5.16-7.44 11.785-7.44 19.878 0 8.092 2.5 14.87 7.557 20.333 5.057 5.463 11.02 8.194 17.46 8.194 6.438 0 11.245-2.664 16.245-7.992v3.092l-.44-.016.1 4.106 1.34.02h13.72l.948-4h-.667v-71zm-18.944 58.645c-2.463 2.8-5.447 4.198-8.953 4.198-3.508 0-6.576-1.398-9.206-4.198-2.63-2.798-3.945-6.39-3.945-10.772 0-4.383 1.28-8.06 3.842-11.026 2.562-2.967 5.63-4.45 9.206-4.45 3.574 0 6.59 1.466 9.054 4.4 2.46 2.933 3.692 6.608 3.692 11.025 0 4.417-1.23 8.025-3.692 10.823zM466.59 172.087c4.685 0 9.39 1.617 14.11 4.854l5.665-10.115 2.044-7.79-5.084.668v5.257c-5.394-3.06-10.787-4.608-16.18-4.608-6.408 0-11.634 1.586-15.68 4.755-4.046 3.17-6.07 7.268-6.07 12.29 0 5.025 2.056 8.818 6.17 11.38 2.023 1.283 3.827 2.26 5.412 2.935 1.584.675 3.877 1.484 6.88 2.428 3 .945 5.292 1.957 6.878 3.034 1.583 1.08 2.376 2.26 2.376 3.54 0 1.282-.574 2.312-1.72 3.086-1.146.775-2.697 1.164-4.652 1.164-6.407 0-12.6-2.19-18.264-6.576l-4.15 5.69v-1.374h-3.69l1.32 5.006c3.506 2.832 7.45 5.067 11.835 6.517 4.384 1.45 8.6 2.222 12.646 2.222 6.07 0 11.077-1.597 15.022-4.833 3.945-3.236 5.917-7.524 5.917-12.887 0-5.36-1.89-9.182-5.664-11.475-2.022-1.214-3.76-2.104-5.21-2.678-1.45-.572-3.894-1.396-7.333-2.477-3.44-1.078-5.902-2.023-7.385-2.833-1.483-.81-2.225-1.92-2.225-3.337.002-2.562 2.344-3.843 7.032-3.843zM550.965 158.43c7.418 0 13.623 3.104 18.613 9.307l9.813-11.22 3.937-8.814h-3l-6.893 3.227c-6.636-5.105-14.36-7.618-23.176-7.618-10.387 0-19.17 3.53-26.352 10.543-7.182 7.015-10.773 15.776-10.773 26.262 0 10.487 3.522 19.175 10.572 26.054 7.045 6.88 16.016 10.15 26.906 10.15 10.847 0 20.27-4.616 28.275-13.616h.034l4.077-4.87-8.672-2.786v2.673l-5.252-5.2c-4.924 6.14-11.365 9.206-19.12 9.206-5.664 0-10.538-1.988-14.517-5.968-3.98-3.98-5.992-9.256-5.992-15.83s2.094-11.802 6.31-15.68c4.215-3.88 9.277-5.818 15.21-5.818zM620.43 160.352c-8.262 0-15.123 2.716-20.586 8.144-5.46 5.43-8.193 12.088-8.193 19.98 0 7.89 2.733 14.532 8.194 19.928 5.463 5.396 12.324 8.092 20.586 8.092 8.26 0 15.123-2.696 20.586-8.092s8.193-12.04 8.193-19.93c0-7.89-2.73-14.548-8.194-19.978-5.463-5.43-12.327-8.144-20.586-8.144zm9.71 38.996c-2.528 2.8-5.765 4.198-9.71 4.198s-7.182-1.398-9.71-4.198c-2.53-2.798-3.794-6.424-3.794-10.874s1.264-8.093 3.793-10.925 5.765-4.25 9.71-4.25 7.182 1.417 9.71 4.25 3.794 6.473 3.794 10.924c0 4.45-1.264 8.076-3.793 10.874zM718.326 140.703h-14v26.63c-4-4.654-10.605-6.98-17.215-6.98s-12.388 2.58-17.31 7.738c-4.924 5.16-7.393 11.785-7.393 19.878 0 8.092 2.525 14.87 7.583 20.333 5.06 5.463 10.833 8.194 17.274 8.194 6.44 0 12.06-2.664 16.06-7.992v7.2h15.116l1.754-4.067-1.87-.137v-70.795zm-18.547 58.645c-2.464 2.8-5.448 4.198-8.954 4.198-3.508 0-6.574-1.398-9.205-4.198-2.63-2.798-3.944-6.39-3.944-10.772 0-4.383 1.28-8.06 3.844-11.026 2.563-2.967 5.63-4.45 9.205-4.45s6.592 1.466 9.055 4.4c2.46 2.933 3.69 6.608 3.69 11.025 0 4.417-1.23 8.025-3.69 10.823zM332.076 135.703h-3l-12.966 9h-8.425l-26.36 29.305v-29.305h-16v71h15.655l1.52-4.074-1.174.004v-15.98l6.907-7.88 20.564 27.93h6.907-.004 11.507l4.743-4-7.725-.19A8805.162 8805.162 0 0 1 312.54 195.1c-6.543-9.205-11.027-15.493-13.455-18.866l28.122-31.133 4.87-9.397zM791.23 188.074l-1.903-.234v-2.098c0-7.89-2.58-14.094-7.807-18.613-5.227-4.518-11.564-6.778-19.05-6.778-7.485 0-13.968 2.53-19.464 7.587-5.498 5.057-8.24 11.87-8.24 20.434 0 8.564 2.7 15.393 8.096 20.483 5.395 5.093 12.223 7.638 20.484 7.638 8.26 0 15.46-3.087 21.598-8.887l1.59-4.904h-3l-.95 2.346-6.136-6.553c-3.44 3.575-7.824 5.408-13.15 5.408-3.305 0-6.27-.986-8.902-2.875s-4.182-4.326-4.652-7.326h39.652l1.833-5.63zm-41.084-5.37c.404-3 1.854-5.41 4.35-7.23 2.494-1.82 5.242-2.656 8.244-2.656 3 0 5.547.763 7.637 2.516 2.09 1.754 3.303 4.37 3.643 7.37h-23.874z"/></g><g fill="#FFF"><path d="M265.273 135.43h17.004v31.284l28.776-31.283h21.037l-30.302 33.683c2.616 3.634 7.448 10.41 14.497 20.328a7577.132 7577.132 0 0 0 15.805 22.183h-19.838l-22.345-30.084-7.63 8.5v21.583h-17.004V135.43zM342.39 145.514c-1.853-1.854-2.78-4.123-2.78-6.813 0-2.687.927-4.96 2.78-6.812 1.853-1.854 4.124-2.78 6.813-2.78 2.688 0 4.96.927 6.813 2.78 1.853 1.853 2.78 4.125 2.78 6.813 0 2.69-.927 4.96-2.78 6.814-1.853 1.853-4.125 2.78-6.813 2.78-2.69 0-4.96-.928-6.813-2.78zm14.987 66.108h-16.35V152.98h16.35v58.642zM396.344 212.494c-6.94 0-13.134-2.943-18.584-8.83s-8.175-13.188-8.175-21.908 2.65-15.86 7.957-21.418c5.303-5.56 11.517-8.34 18.64-8.34 7.12 0 12.933 2.508 17.44 7.522v-28.776h16.35v80.878h-16.35v-7.74c-4.58 5.742-10.34 8.612-17.278 8.612zm-10.3-30.084c0 4.725 1.416 8.594 4.25 11.608 2.834 3.017 6.14 4.523 9.92 4.523 3.776 0 6.992-1.506 9.645-4.522 2.65-3.015 3.978-6.902 3.978-11.663 0-4.76-1.327-8.72-3.98-11.88-2.652-3.162-5.904-4.742-9.755-4.742-3.853 0-7.158 1.6-9.92 4.796-2.76 3.198-4.14 7.158-4.14 11.88zM489.59 193.364c0 5.777-2.124 10.41-6.375 13.897-4.25 3.49-9.646 5.233-16.187 5.233-4.36 0-8.902-.782-13.625-2.344-4.725-1.563-8.976-3.87-12.753-6.922l7.193-10.246c6.104 4.725 12.607 7.085 19.51 7.085 2.108 0 3.78-.418 5.015-1.254 1.234-.834 1.853-1.943 1.853-3.324 0-1.38-.853-2.653-2.56-3.816-1.708-1.16-4.18-2.25-7.412-3.27-3.234-1.017-5.706-1.89-7.412-2.616-1.708-.726-3.65-1.78-5.832-3.16-4.433-2.762-6.65-6.85-6.65-12.264 0-5.412 2.18-9.827 6.54-13.243 4.36-3.414 9.992-5.122 16.896-5.122 6.903 0 13.806 2.326 20.71 6.976l-6.104 10.9c-5.087-3.488-10.156-5.23-15.206-5.23-5.05 0-7.575 1.38-7.575 4.14 0 1.527.8 2.726 2.397 3.598 1.598.872 4.25 1.89 7.957 3.052 3.705 1.164 6.338 2.055 7.902 2.67 1.562.62 3.434 1.582 5.614 2.89 4.07 2.47 6.105 6.594 6.105 12.37zM551.524 196.58c8.355 0 15.187-3.306 20.49-9.92l10.9 11.228c-8.647 9.74-18.84 14.606-30.573 14.606-11.735 0-21.4-3.706-28.993-11.118-7.594-7.412-11.39-16.768-11.39-28.067 0-11.3 3.87-20.73 11.61-28.286 7.737-7.558 17.202-11.336 28.394-11.336 12.498 0 22.962 4.76 31.392 14.278l-10.572 11.99c-5.38-6.685-12.063-10.028-20.057-10.028-6.395 0-11.863 2.09-16.404 6.268-4.542 4.18-6.814 9.81-6.814 16.896s2.143 12.77 6.432 17.06c4.287 4.286 9.482 6.428 15.586 6.428zM651.04 182.3c0 8.503-2.942 15.66-8.827 21.475-5.887 5.814-13.28 8.72-22.182 8.72-8.9 0-16.296-2.905-22.18-8.72-5.888-5.813-8.83-12.972-8.83-21.474s2.942-15.676 8.83-21.526c5.884-5.85 13.278-8.774 22.18-8.774 8.9 0 16.296 2.926 22.183 8.774 5.885 5.85 8.828 13.025 8.828 21.527zm-45.56 0c0 4.797 1.362 8.704 4.087 11.72 2.725 3.016 6.213 4.522 10.465 4.522 4.25 0 7.738-1.507 10.463-4.523 2.726-3.016 4.088-6.923 4.088-11.72s-1.362-8.72-4.088-11.77c-2.725-3.052-6.213-4.578-10.463-4.578-4.252 0-7.74 1.526-10.465 4.578s-4.088 6.975-4.088 11.77zM686.63 212.494c-6.942 0-13.136-2.943-18.587-8.83-5.45-5.885-8.174-13.188-8.174-21.908s2.65-15.86 7.956-21.418c5.303-5.56 11.516-8.34 18.64-8.34 7.12 0 12.933 2.508 17.438 7.522v-28.776h16.35v80.878h-16.35v-7.74c-4.578 5.742-10.338 8.612-17.275 8.612zm-10.302-30.084c0 4.725 1.416 8.594 4.25 11.608 2.834 3.017 6.14 4.523 9.92 4.523 3.777 0 6.992-1.506 9.646-4.522 2.65-3.015 3.98-6.902 3.98-11.663 0-4.76-1.328-8.72-3.98-11.88-2.654-3.162-5.904-4.742-9.756-4.742-3.853 0-7.158 1.6-9.92 4.796-2.76 3.198-4.14 7.158-4.14 11.88zM786.525 203.12c-6.613 6.25-14.37 9.374-23.27 9.374-8.903 0-16.26-2.742-22.073-8.23-5.814-5.485-8.72-12.843-8.72-22.07 0-9.23 2.958-16.57 8.882-22.02 5.922-5.45 12.918-8.175 20.982-8.175 8.066 0 14.914 2.435 20.547 7.302 5.63 4.87 8.447 11.555 8.447 20.057v8.72h-42.727c.506 3.197 2.18 5.813 5.014 7.847 2.834 2.035 6.03 3.053 9.592 3.053 5.737 0 10.462-1.925 14.17-5.777l9.155 9.917zm-15.697-34.77c-2.252-1.89-4.996-2.835-8.23-2.835-3.233 0-6.194.98-8.882 2.943-2.69 1.962-4.252 4.615-4.688 7.957h25.723c-.36-3.488-1.67-6.176-3.922-8.066z"/></g><g><path d="M450.86 280.645l.003.076a4.144 4.144 0 0 0 3.193 3.913c.025.005.052.007.076.013 5.92 1.478 10.304 6.835 10.29 13.213-.01 6.37-4.404 11.712-10.326 13.172a4.14 4.14 0 0 0-3.293 3.994l-.005 3.088-.01 4.832c-.01 6.056 4.936 11.02 10.993 11.03l16.34.028 8.565.015 16.34.027c6.056.01 11.02-4.936 11.03-10.99l.005-3.48.008-4.39a4.143 4.143 0 0 1 3.295-4.047c5.922-1.46 10.316-6.8 10.327-13.173.012-6.378-4.37-11.735-10.29-13.213l-.077-.013a4.14 4.14 0 0 1-3.193-3.912v-.075h-.002l.005-3.09.01-4.832c.01-6.055-4.936-11.017-10.992-11.027l-16.34-.03-8.563-.013-16.34-.028c-6.057-.012-11.02 4.935-11.03 10.99l-.006 3.48-.007 4.39-.002.053zM530.373 280.645v.076a4.146 4.146 0 0 0 3.194 3.913c.025.005.052.007.076.013 5.92 1.478 10.304 6.835 10.29 13.213-.01 6.37-4.404 11.712-10.326 13.172a4.14 4.14 0 0 0-3.293 3.994l-.005 3.088-.01 4.832c-.01 6.056 4.935 11.02 10.992 11.03l16.34.028 8.564.015 16.34.027c6.056.01 11.02-4.936 11.03-10.99l.005-3.48.01-4.39a4.143 4.143 0 0 1 3.295-4.047c5.92-1.46 10.315-6.8 10.326-13.173.013-6.378-4.37-11.735-10.29-13.213l-.076-.013a4.14 4.14 0 0 1-3.193-3.912v-.075l.004-3.09.01-4.832c.01-6.055-4.936-11.017-10.992-11.027l-16.34-.03-8.564-.013-16.34-.028c-6.057-.012-11.02 4.935-11.03 10.99l-.006 3.48-.008 4.39a.47.47 0 0 1-.003.052h.003zM343.253 298.266c0 19.338 15.155 35.124 34.232 36.16.396.042.796.065 1.2.065h34.327-6.816 15.818c6.073 0 11.043-4.967 11.043-11.04v-7.893c0-2 1.414-3.67 3.296-4.063 5.937-1.474 10.336-6.838 10.336-13.23 0-6.394-4.405-11.76-10.345-13.232-.026-.006-.052-.008-.077-.012a4.157 4.157 0 0 1-3.21-3.92v-.077l-.002-.05v-7.893c0-4.516-2.748-8.422-6.656-10.126a10.906 10.906 0 0 0-4.386-.916h-15.818 6.816-34.327c-.404 0-.805.023-1.2.067-19.077 1.037-34.232 16.824-34.232 36.16zM611.99 311.325a4.237 4.237 0 0 0-3.363 4.145v8.048c0 6.193 5.068 11.26 11.263 11.26h57.15c.26 0 .52-.01.774-.028 19.746-.746 35.526-16.987 35.526-36.917 0-19.928-15.78-36.17-35.526-36.915a11.67 11.67 0 0 0-.774-.03h-57.15c-6.194 0-11.263 5.066-11.263 11.26v8.104l.002.077a4.237 4.237 0 0 0 3.274 3.994c.025.007.05.008.077.015 6.06 1.5 10.55 6.973 10.55 13.494 0 6.518-4.485 11.986-10.54 13.49z" opacity=".6"/><path fill="#FFDF11" d="M461.78 331.46c-3.196-.006-6.207-1.264-8.478-3.542s-3.518-5.293-3.513-8.49l.013-7.92c.034-2.4 1.754-4.486 4.09-4.97 5.587-1.38 9.52-6.398 9.53-12.197a12.56 12.56 0 0 0-9.533-12.24c-2.33-.54-3.96-2.536-4.027-4.866l.012-8.026c.013-6.612 5.4-11.99 12.01-11.99l41.268.07c6.623.013 12 5.41 11.99 12.032l-.015 7.92c.04 1.47 1.037 2.69 2.423 3.014 6.61 1.643 11.152 7.476 11.14 14.2a14.56 14.56 0 0 1-11.088 14.144 3.162 3.162 0 0 0-2.534 3.076l-.013 7.868c-.013 6.61-5.402 11.99-12.012 11.99l-41.263-.073z"/><path fill="#5C0000" d="M461.886 258.217h.02l16.34.028 8.565.014 16.34.028c6.058.01 11.003 4.973 10.992 11.03l-.01 4.83-.004 3.09a4.142 4.142 0 0 0 3.194 3.988l.077.013c5.92 1.477 10.302 6.834 10.29 13.212-.01 6.372-4.405 11.714-10.327 13.174a4.14 4.14 0 0 0-3.295 4.045l-.008 4.392-.005 3.48c-.012 6.05-4.965 10.99-11.013 10.99h-.018l-16.34-.028-8.564-.014-16.34-.03c-6.058-.01-11.002-4.973-10.992-11.03l.01-4.83.004-3.09a4.14 4.14 0 0 1 3.293-3.992c5.922-1.46 10.317-6.802 10.327-13.174.013-6.378-4.37-11.735-10.29-13.213-.025-.005-.052-.007-.077-.01a4.145 4.145 0 0 1-3.193-3.914l-.002-.076.002-.054.008-4.39.005-3.478c.013-6.05 4.964-10.99 11.01-10.99m0-2c-7.16 0-12.995 5.825-13.01 12.986l-.004 3.48-.007 4.334-.05.893.12.12a6.146 6.146 0 0 0 4.667 5.036l.075.018.06.01a11.56 11.56 0 0 1 8.69 11.246 11.568 11.568 0 0 1-8.776 11.23c-2.77.593-4.805 3.073-4.846 5.913l-.005 3.113-.01 4.83c-.006 3.465 1.346 6.73 3.804 9.2a12.922 12.922 0 0 0 9.185 3.834l16.338.03 8.565.014 16.34.028c7.182 0 13.02-5.826 13.033-12.987l.005-3.48.01-4.39a2.144 2.144 0 0 1 1.7-2.09l.036-.007.036-.01a15.56 15.56 0 0 0 11.85-15.11 15.557 15.557 0 0 0-11.808-15.158l-.053-.013-.053-.01-.037-.008-.017-.004a2.14 2.14 0 0 1-1.595-2.008v-.767l.004-2.34.01-4.83c.012-7.173-5.814-13.02-12.988-13.032l-16.34-.03-8.565-.013-16.34-.028h-.024z"/><path fill="#FFDF11" d="M541.29 331.46c-3.195-.006-6.206-1.264-8.477-3.542s-3.52-5.293-3.513-8.49l.014-7.92c.034-2.4 1.754-4.486 4.09-4.97 5.588-1.38 9.52-6.398 9.53-12.197a12.56 12.56 0 0 0-9.533-12.24c-2.146-.496-3.7-2.235-3.982-4.33l-.115-.058.074-.694.01-7.812c.013-6.61 5.4-11.99 12.01-11.99l41.268.072c6.623.012 12 5.41 11.99 12.03l-.015 7.92c.04 1.47 1.036 2.69 2.423 3.015 6.608 1.643 11.152 7.476 11.14 14.2a14.56 14.56 0 0 1-11.087 14.144c-1.48.308-2.532 1.598-2.535 3.076l-.012 7.868c-.013 6.612-5.4 11.99-12.013 11.99l-41.264-.07z"/><path fill="#5C0000" d="M541.396 258.217h.02l16.34.028 8.565.014 16.34.028c6.058.01 11.003 4.973 10.992 11.03l-.01 4.83-.004 3.09a4.142 4.142 0 0 0 3.194 3.988l.077.013c5.92 1.477 10.302 6.834 10.29 13.212-.01 6.372-4.405 11.714-10.326 13.174a4.14 4.14 0 0 0-3.296 4.045l-.008 4.392-.005 3.48c-.012 6.05-4.965 10.99-11.013 10.99h-.018l-16.34-.028-8.564-.014-16.34-.03c-6.058-.01-11.002-4.973-10.992-11.03l.01-4.83.004-3.09a4.14 4.14 0 0 1 3.293-3.992c5.922-1.46 10.317-6.802 10.327-13.174.013-6.378-4.37-11.735-10.29-13.213-.025-.005-.052-.007-.077-.01a4.147 4.147 0 0 1-3.193-3.914v-.076h-.003a.47.47 0 0 0 .002-.054l.008-4.39.006-3.478c.012-6.05 4.964-10.99 11.01-10.99m0-2c-7.16 0-12.996 5.825-13.01 12.986l-.005 3.48-.007 4.307-.144 1.305.29.146a6.15 6.15 0 0 0 4.59 4.627l.075.018.06.01a11.562 11.562 0 0 1 8.69 11.246 11.57 11.57 0 0 1-8.775 11.23c-2.77.594-4.805 3.074-4.846 5.914l-.005 3.113-.01 4.83c-.006 3.465 1.346 6.73 3.805 9.2a12.922 12.922 0 0 0 9.185 3.834l16.34.03 8.564.015 16.34.028c7.183 0 13.02-5.826 13.033-12.987l.005-3.48.008-4.39a2.144 2.144 0 0 1 1.7-2.09l.038-.007.036-.01a15.56 15.56 0 0 0 11.848-15.112 15.558 15.558 0 0 0-11.807-15.157l-.053-.012-.054-.01-.035-.008-.018-.003a2.14 2.14 0 0 1-1.596-2.008v-.768l.003-2.34.01-4.83c.012-7.174-5.814-13.02-12.988-13.033l-16.34-.03-8.565-.014-16.34-.028h-.024z"/><g><path fill="#3C3" d="M378.686 331.976c-.423 0-.862-.023-1.306-.07-19.675-1.068-35.127-17.39-35.127-37.155s15.452-36.086 35.178-37.157c.378-.043.82-.067 1.255-.067h43.33c1.66 0 3.27.336 4.785 1 4.408 1.922 7.257 6.256 7.257 11.04v7.982a3.155 3.155 0 0 0 2.437 2.984c6.63 1.635 11.195 7.476 11.195 14.22a14.6 14.6 0 0 1-11.096 14.198 3.175 3.175 0 0 0-2.537 3.093v7.892c0 6.64-5.402 12.042-12.043 12.042h-43.328z"/><path fill="#5C0000" d="M422.015 258.524c1.558 0 3.04.327 4.386.915 3.91 1.704 6.658 5.61 6.658 10.124v8.021a4.157 4.157 0 0 0 3.21 3.92c.026.003.052.005.078.01 5.94 1.473 10.344 6.84 10.344 13.234 0 6.392-4.4 11.755-10.336 13.23a4.153 4.153 0 0 0-3.296 4.062v7.892c0 6.074-4.97 11.042-11.043 11.042h-15.818 6.816-34.328c-.404 0-.805-.023-1.2-.065-19.077-1.035-34.232-16.82-34.232-36.16 0-19.336 15.155-35.123 34.232-36.158.396-.044.796-.066 1.2-.066h43.329m-9.002-.002h-6.816 6.816m9.002-2h-43.328c-.455 0-.913.024-1.364.072-20.23 1.127-36.07 17.875-36.07 38.153s15.843 37.027 36.075 38.153c.46.048.918.07 1.36.07h43.328c7.192 0 13.043-5.85 13.043-13.04v-7.893c0-1.013.717-1.898 1.705-2.105l.036-.008.037-.01a15.6 15.6 0 0 0 11.854-15.17 15.6 15.6 0 0 0-11.862-15.174 2.81 2.81 0 0 0-.17-.034 2.156 2.156 0 0 1-1.6-2.017V269.56c0-5.18-3.083-9.875-7.856-11.957a12.943 12.943 0 0 0-5.187-1.08z"/></g><g><path fill="#F00" d="M619.89 332.263c-6.76 0-12.262-5.5-12.262-12.26v-8.05c0-2.463 1.75-4.618 4.158-5.122 5.723-1.423 9.745-6.57 9.745-12.513a12.876 12.876 0 0 0-9.79-12.525c-2.373-.544-4.038-2.575-4.11-4.95l-.003-8.21c0-6.76 5.5-12.26 12.263-12.26h57.15c.282 0 .562.014.84.03 20.434.772 36.46 17.426 36.46 37.915 0 20.488-16.026 37.143-36.487 37.915-.247.018-.526.03-.808.03H619.89z"/><path fill="#5C0000" d="M677.04 257.37c.26 0 .52.015.774.03 19.746.746 35.526 16.988 35.526 36.917s-15.78 36.17-35.526 36.916c-.256.018-.514.028-.773.03h-57.15c-6.194 0-11.262-5.068-11.262-11.262v-8.047a4.238 4.238 0 0 1 3.363-4.145c6.055-1.505 10.54-6.974 10.54-13.492 0-6.522-4.49-11.995-10.55-13.496-.025-.006-.05-.008-.076-.015a4.234 4.234 0 0 1-3.275-3.995l-.002-.077v-8.103c0-6.193 5.067-11.26 11.262-11.26h57.15m0-2h-57.15c-7.313 0-13.263 5.95-13.263 13.262v8.203l.003.037a6.234 6.234 0 0 0 4.786 5.874l.068.02.09.015c5.256 1.316 8.957 6.062 8.957 11.538 0 5.47-3.694 10.212-8.99 11.543a6.263 6.263 0 0 0-4.913 6.094v8.05c0 7.31 5.95 13.26 13.263 13.26h57.15c.3 0 .592-.013.88-.03 10.075-.39 19.485-4.605 26.502-11.874 7.04-7.296 10.92-16.9 10.92-27.04s-3.88-19.746-10.92-27.042c-7.018-7.27-16.43-11.486-26.506-11.873-.29-.02-.58-.034-.876-.034z"/></g></g></svg>