<svg id="Capa_1" xmlns="http://www.w3.org/2000/svg" viewBox="0 0 220.6 95.2"><style>.st0{fill:#472728}.st1{fill:#ccc}.st2{fill:#fff}.st3{opacity:.6}.st4{fill:#ffdf11}.st5{fill:#5c0000}.st6{fill:#3c3}.st7{fill:red}</style><path class="st0" d="M61.3 42c-2.6 0-4.9-1.1-6.9-3.2-.7-.8-1.4-1.7-1.8-2.6-1.6-2.1-2.5-4.7-2.5-7.7 0-3.4 1.1-6.2 3.1-8.4 2.1-2.2 4.5-3.3 7.3-3.3 2.6 0 4.7.8 6.4 2.5V9c0-.2.1-.3.3-.3h6.2c.2 0 .3.1.3.3v31l-.4 1.5c0 .1-.1.2-.3.2h-5.8c-.1 0-.3-.1-.3-.3V40c-.1 0-.1-.1-.1-.2v-.2c-1.6 1.6-3.4 2.4-5.5 2.4zm-3.4-9.9c.2.3.4.5.6.8 1 1.1 2.2 1.6 3.6 1.6s2.5-.5 3.5-1.6c.8-.9 1.3-2.1 1.4-3.4-.2-.9-.6-1.8-1.2-2.5-.9-1.1-2-1.6-3.3-1.6-1.3 0-2.4.5-3.3 1.6-.9 1.1-1.4 2.4-1.4 4 0 .4 0 .8.1 1.1z"/><path class="st0" d="M73.5 9v30.8h-.2v.1h.2l-.4 1.5h-5.7v-1.6h-.1v-.9c-1.8 1.8-3.6 2.8-6 2.8-2.5 0-4.8-1-6.7-3.1-.7-.8-1.3-1.6-1.8-2.6-1.6-2.1-2.5-4.6-2.5-7.6 0-3.3 1-6.1 3-8.2 2-2.1 4.4-3.2 7.1-3.2 2.7 0 5 1 6.7 2.9V9h6.4M62.1 34.8c1.4 0 2.7-.6 3.7-1.7.8-1 1.3-2.1 1.5-3.6-.2-1-.6-2-1.3-2.7-.9-1.1-2.1-1.7-3.5-1.7s-2.5.6-3.5 1.7-1.5 2.5-1.5 4.2c0 .4 0 .8.1 1.2.2.3.4.6.7.9 1.1 1.2 2.4 1.7 3.8 1.7M73.5 8.5h-6.2c-.3 0-.5.2-.5.5v9.6c-1.7-1.4-3.7-2.1-6.1-2.1-2.9 0-5.4 1.1-7.5 3.4-2.1 2.2-3.2 5.1-3.2 8.6 0 3 .9 5.7 2.5 7.9.5.9 1.1 1.8 1.8 2.6 2 2.2 4.5 3.3 7.1 3.3 2.1 0 3.8-.7 5.5-2.1v1.3c0 .3.2.5.5.5h5.7c.3 0 .5-.2.5-.4L74 40V9c0-.3-.2-.5-.5-.5zM58.2 32c0-.3-.1-.7-.1-1 0-1.6.4-2.8 1.3-3.8s1.9-1.5 3.1-1.5c1.2 0 2.2.5 3 1.5.6.7 1 1.5 1.1 2.4-.1 1.3-.6 2.3-1.3 3.2-.9 1-2 1.5-3.3 1.5-1.3 0-2.4-.5-3.4-1.6-.1-.2-.3-.4-.4-.7zM119.7 41.9c-4.3 0-7.8-1.3-10.5-4-2.4-2.3-3.7-5.1-4.1-8.5-.4-1.3-.5-2.7-.5-4.3 0-4.4 1.5-8.1 4.5-11 3-2.9 6.7-4.4 11.1-4.4 4.8 0 8.9 1.8 12.1 5.4 0 0 .1 0 .1.1s.1.2.1.2v.2l-.1.1-1.4 3.1-3.8 4.3c-.1.1-.1.1-.2.1s-.2 0-.2-.1c-1.8-2.3-4.2-3.4-6.9-3.4-2.2 0-4.1.7-5.6 2.1-1.3 1.1-2 2.6-2.2 4.4.2 2 1 3.7 2.3 5 1.6 1.6 3.5 2.4 5.8 2.4 3.1 0 5.7-1.2 7.6-3.7 0-.1.1-.1.2-.1s.1 0 .2.1l4.1 4.2c.1 0 .1.1.1.2v.3l-1.6 1.9-.1.1c-3.1 3.5-6.8 5.3-11 5.3z"/><path class="st0" d="M120.2 10.1c4.7 0 8.7 1.8 11.9 5.3h.1v.2l-.1.1-1.4 3.1-3.8 4.3c-1.9-2.4-4.3-3.6-7.1-3.6-2.3 0-4.2.7-5.8 2.2-1.3 1.2-2.1 2.7-2.3 4.6.2 2.1 1 3.9 2.4 5.3 1.6 1.6 3.6 2.5 6 2.5 3.2 0 5.8-1.3 7.8-3.8l4.1 4.2h.1l-1.6 1.9c-3.1 3.5-6.7 5.2-10.8 5.2-4.2 0-7.6-1.2-10.3-3.9-2.3-2.3-3.6-5-4-8.3-.4-1.3-.5-2.7-.5-4.2 0-4.3 1.5-7.9 4.4-10.8 3-2.9 6.6-4.3 10.9-4.3m0-.6c-4.4 0-8.2 1.5-11.3 4.5-3.1 3-4.6 6.7-4.6 11.2 0 1.5.2 3 .5 4.3.3 3.4 1.7 6.3 4.1 8.6 2.7 2.7 6.3 4 10.7 4 4.3 0 8-1.8 11.2-5.3 0 0 .1 0 .1-.1l1.6-1.9c.1-.1.2-.3.1-.5 0-.2-.2-.3-.3-.3l-4-4.2c-.1-.1-.2-.2-.4-.2s-.3.1-.4.2c-1.9 2.4-4.4 3.6-7.4 3.6-2.2 0-4-.8-5.6-2.3-1.3-1.3-2-2.9-2.2-4.9.2-1.7.9-3.1 2.1-4.2 1.5-1.4 3.3-2.1 5.5-2.1 2.7 0 4.9 1.1 6.7 3.3.1.1.3.2.4.2.2 0 .3-.1.4-.2l3.8-4.3.1-.1 1.4-3.1.1-.1c.1-.1.2-.3.1-.5 0-.1 0-.2-.1-.3-.1-.1-.2-.2-.3-.2-3.3-3.3-7.4-5.1-12.3-5.1zM27.1 41.6c-.1 0-.2 0-.2-.1l-7.7-10.4-2 2.3v6.2l.1.1c.1.1.1.2 0 .3l-.6 1.5c0 .1-.1.2-.3.2h-6c-.2 0-.3-.1-.3-.3V10.8c0-.2.1-.3.3-.3h6.5c.2 0 .3.1.3.3V22l10.5-11.4c.1-.1.1-.1.2-.1H36c.1 0 .2.1.3.2V11l-1.9 3.6-9 9.9c1.1 1.5 2.7 3.7 4.8 6.7l2.1 2.9c1.7 2.4 3 4.2 4 5.5.1.1.1.2 0 .3l-.1.1-1.8 1.5s-.1.1-.2.1h-7.1z"/><path class="st0" d="M36 10.8l-.1.1h.1l-1.9 3.6-9.1 10c1.1 1.5 2.7 3.8 4.9 6.9 2.7 3.8 4.7 6.7 6.1 8.4h-1.3H36l-1.8 1.5h-7l-7.9-10.6-2.3 2.6v6.5h-.3.4l-.6 1.5h-6V10.7H17v11.9l11-11.9h8m0-.5h-8c-.2 0-.3.1-.4.2L17.5 21.3V10.8c0-.3-.2-.5-.5-.5h-6.5c-.3 0-.5.2-.5.5v30.6c0 .3.2.5.5.5h6c.2 0 .4-.1.5-.3l.6-1.5c.1-.2 0-.4-.1-.5v-6l1.7-1.9 7.5 10.1c.1.1.3.2.4.2h7c.1 0 .3 0 .4-.1l1.8-1.5.2-.2c.1-.2.1-.4-.1-.6-1-1.3-2.3-3.2-4-5.5-.6-.9-1.3-1.9-2.1-2.9-2-2.9-3.6-5-4.7-6.5l8.8-9.7.1-.1 1.9-3.6c0-.1.1-.2.1-.3v-.3c-.1-.3-.3-.5-.5-.5zM39.6 41.6c-.1 0-.3-.1-.3-.2l-.2-1.6V17.4c0-.2.1-.3.3-.3h6.3c.2 0 .3.1.3.3V40l-.3 1.5c0 .1-.1.2-.3.2h-5.8z"/><path class="st0" d="M45.7 17.4v22.4h-.4v.1h.4l-.3 1.5h-5.8l-.2-1.6h.1-.1V17.4h6.3m0-.5h-6.3c-.3 0-.5.2-.5.5v22.5l.2 1.6c0 .3.3.5.5.5h5.8c.3 0 .5-.2.5-.5l.3-1.4c0-.1.1-.2.1-.2V17.4c0-.3-.3-.5-.6-.5zM42.5 16.6c-1 0-1.9-.4-2.6-1.1-.6-.6-.9-1.3-1-2.1-.2-.4-.3-.9-.3-1.4 0-1.1.4-2 1.1-2.8.8-.8 1.7-1.1 2.8-1.1 1.1 0 2 .4 2.8 1.1.8.8 1.1 1.7 1.1 2.8 0 .7-.1 1.3-.4 1.8-.1.6-.5 1.2-.9 1.7-.7.7-1.5 1.1-2.6 1.1z"/><path class="st0" d="M42.6 8.3c1 0 1.9.4 2.6 1.1.7.7 1.1 1.6 1.1 2.6 0 .6-.1 1.2-.4 1.7-.1.6-.4 1.1-.9 1.6-.7.7-1.5 1-2.4 1-1 0-1.8-.3-2.4-1-.5-.5-.9-1.2-1-1.9-.2-.4-.3-.9-.3-1.4 0-1 .4-1.9 1.1-2.6.7-.7 1.5-1.1 2.6-1.1m0-.5c-1.2 0-2.2.4-3 1.2-.8.8-1.2 1.8-1.2 3 0 .5.1 1.1.3 1.5.1.8.5 1.5 1.1 2.2.8.8 1.7 1.1 2.8 1.1 1.1 0 2-.4 2.8-1.1.5-.5.9-1.1 1-1.8.3-.6.4-1.2.4-1.9 0-1.2-.4-2.2-1.2-3-.8-.8-1.9-1.2-3-1.2z"/><g><path class="st0" d="M87.5 41.9c-1.5 0-3.2-.3-4.9-.9-1.7-.5-3.2-1.4-4.6-2.5l-.1-.1-.4-1.6c0-.1-.1-.2-.1-.2v-.1-.2c.1-.1.1-.1.2-.1l2.5-3.6c0-.1.1-.1.2-.1s.1 0 .2.1c2.3 1.8 4.7 2.6 7.3 2.6.6 0 1.1-.1 1.5-.3-.1-.1-.2-.2-.4-.3-.6-.4-1.4-.8-2.6-1.1-1.2-.4-2-.7-2.7-.9-.6-.3-1.3-.6-2.1-1.1-1.7-1-2.5-2.6-2.5-4.6v-.4c-.3-.7-.4-1.5-.4-2.3 0-2.1.9-3.9 2.6-5.3 1.7-1.3 3.9-2 6.6-2 2.7 0 5.4.9 8.1 2.7.1.1.2.2.1.4h.1l-.7 2.8-2.2 3.9c0 .1-.1.1-.2.1H92.7C91 25.6 89.3 25 87.5 25h-.7c.5.2 1.2.5 2.1.7 1.4.4 2.4.8 3 1 .6.2 1.3.6 2.2 1.1 1.6 1 2.5 2.7 2.5 5 0 1.5-.4 2.8-1.1 3.9-.3 1.2-1 2.4-2.1 3.3-1.5 1.3-3.5 1.9-5.9 1.9z"/><path class="st0" d="M88 17.1c2.6 0 5.3.9 7.9 2.7l-.1.1-.8 2.9-2.2 3.9c-1.8-1.2-3.6-1.9-5.4-1.9-.7 0-1.2.1-1.6.2.6.3 1.6.7 2.9 1.1 1.4.4 2.4.8 3 1 .6.2 1.3.6 2.2 1.1 1.6.9 2.3 2.5 2.3 4.7 0 1.4-.4 2.7-1.1 3.8-.3 1.3-1 2.3-2.1 3.2-1.5 1.2-3.4 1.8-5.8 1.8-1.5 0-3.2-.3-4.8-.8-1.7-.6-3.2-1.4-4.5-2.5l-.4-1.7h-.1v-.1h.1l2.6-3.7c2.3 1.8 4.8 2.7 7.5 2.7.8 0 1.4-.2 1.9-.5-.2-.2-.4-.4-.7-.6-.6-.4-1.5-.8-2.6-1.2-1.1-.4-2-.7-2.6-.9-.6-.3-1.3-.6-2.1-1.1-1.6-1-2.4-2.4-2.4-4.3v-.4c-.3-.7-.4-1.4-.4-2.2 0-2.1.8-3.7 2.5-5.1 2-1.6 4.1-2.2 6.8-2.2m0-.6c-2.8 0-5 .7-6.8 2.1-1.8 1.4-2.7 3.3-2.7 5.5 0 .8.1 1.6.4 2.3v.3c0 2.1.9 3.7 2.6 4.8.8.5 1.5.9 2.1 1.2.6.3 1.5.6 2.7.9 1.1.3 1.9.7 2.5 1.1-.3.1-.6.1-1 .1-2.5 0-4.9-.9-7.1-2.6-.1-.1-.2-.1-.3-.1h-.1c-.1 0-.3.1-.4.2l-2.5 3.5c-.1 0-.2.1-.3.2-.1.1-.1.3-.1.4 0 .2 0 .3.1.4l.4 1.5c0 .1.1.2.2.3 1.4 1.2 3 2 4.7 2.6 1.8.6 3.4.9 5 .9 2.5 0 4.5-.7 6.1-2 1.1-.9 1.9-2.1 2.2-3.4.7-1.1 1.1-2.5 1.1-4 0-2.4-.9-4.1-2.6-5.2-.4-.2-.7-.4-1.1-.6.1 0 .2-.1.2-.2l2.2-3.9s0-.1.1-.1l.7-2.8c.1-.2.1-.6-.2-.7-2.6-1.7-5.4-2.7-8.1-2.7zm3.3 9.7c-.6-.2-1.3-.5-2.3-.7-.1 0-.3-.1-.4-.1.9.1 1.8.4 2.7.8z"/></g><g><path class="st0" d="M146.5 42c-3.2 0-5.9-1.1-8.1-3.2-1.2-1.2-2.1-2.6-2.6-4.2-1-1.7-1.6-3.8-1.6-6 0-3.3 1.2-6.1 3.5-8.4 2.3-2.3 5.2-3.4 8.7-3.4 3.5 0 6.4 1.2 8.7 3.4 2.3 2.3 3.5 5.1 3.5 8.4 0 1.7-.3 3.3-1 4.8-.4 2-1.4 3.8-3 5.4-2.2 2.1-4.9 3.2-8.1 3.2zm0-16.5c-1.4 0-2.6.5-3.5 1.5-.9 1-1.4 2.4-1.4 4v.6c.2.4.5.9.9 1.4 1 1.1 2.3 1.6 3.8 1.6 1.6 0 2.8-.5 3.8-1.6.6-.7 1-1.4 1.2-2.3-.1-1.4-.5-2.6-1.4-3.6-.8-1.1-2-1.6-3.4-1.6z"/><path class="st0" d="M146.3 17.1c3.4 0 6.2 1.1 8.5 3.3 2.3 2.2 3.4 5 3.4 8.2 0 1.7-.3 3.3-.9 4.7-.4 2-1.4 3.8-2.9 5.3-2.1 2.1-4.7 3.1-7.9 3.1s-5.8-1-7.9-3.1c-1.2-1.2-2.1-2.5-2.6-4-1-1.7-1.6-3.7-1.6-5.9 0-3.2 1.1-6 3.4-8.2 2.3-2.3 5.1-3.4 8.5-3.4m0 17.7c1.6 0 3-.6 4-1.7.6-.7 1.1-1.5 1.3-2.4-.1-1.6-.5-2.8-1.4-3.9-1-1.1-2.2-1.6-3.7-1.6s-2.8.5-3.7 1.6c-1 1.1-1.5 2.5-1.5 4.2v.6c.2.6.6 1.1 1 1.5 1 1.2 2.4 1.7 4 1.7m0-18.3c-3.5 0-6.5 1.2-8.9 3.5-2.4 2.3-3.5 5.2-3.5 8.6 0 2.3.5 4.3 1.6 6.1.5 1.6 1.4 3 2.7 4.2 2.2 2.2 5 3.2 8.3 3.2 3.3 0 6.1-1.1 8.3-3.2 1.6-1.6 2.6-3.4 3.1-5.5.6-1.5 1-3.1 1-4.8 0-3.4-1.2-6.3-3.5-8.6-2.6-2.3-5.6-3.5-9.1-3.5zm-4.5 15V31c0-1.6.4-2.8 1.3-3.8s2-1.4 3.3-1.4c1.4 0 2.4.5 3.3 1.4.8.9 1.2 2 1.3 3.4-.2.8-.6 1.5-1.2 2.1-.9 1-2.1 1.5-3.6 1.5s-2.7-.5-3.6-1.5c-.2-.3-.5-.8-.8-1.2z"/></g><g><path class="st0" d="M172.1 42c-2.5 0-4.8-1.1-6.8-3.2-1.1-1.2-1.9-2.5-2.4-4-1-1.8-1.6-3.9-1.6-6.3 0-3.4 1.1-6.2 3.1-8.4 2.1-2.2 4.5-3.3 7.3-3.3 2.6 0 4.7.8 6.4 2.5V9c0-.2.1-.3.3-.3h6.2c.2 0 .3.1.3.3V40l-.7 1.6c0 .1-.1.2-.3.2h-5.8c-.2 0-.3-.1-.3-.3v-2c-1.4 1.6-3.4 2.5-5.7 2.5zm1.3-16.6c-1.3 0-2.4.5-3.3 1.6-.9 1.1-1.4 2.4-1.4 4v.4c.2.5.6 1 1 1.5 1 1.1 2.2 1.6 3.6 1.6s2.5-.5 3.5-1.6c.6-.6 1-1.4 1.2-2.3-.1-1.4-.5-2.7-1.4-3.7-.9-1-1.9-1.5-3.2-1.5z"/><path class="st0" d="M184.7 9v30.8h-.1.1l-.7 1.6h-5.8v-2.7c-1.6 2-3.7 3-6.2 3s-4.7-1-6.6-3.1c-1.1-1.1-1.8-2.4-2.3-3.9-1-1.8-1.6-3.9-1.6-6.3 0-3.3 1-6.1 3-8.2 2-2.1 4.4-3.2 7.1-3.2 2.7 0 5 1 6.7 2.9V9h6.4m-11.4 25.8c1.4 0 2.7-.6 3.7-1.7.6-.7 1-1.5 1.3-2.4-.1-1.6-.5-2.9-1.4-3.9-.9-1.1-2.1-1.7-3.5-1.7s-2.5.6-3.5 1.7-1.5 2.5-1.5 4.2v.4c.3.6.6 1.2 1.1 1.7 1.1 1.2 2.3 1.7 3.8 1.7m11.4-26.3h-6.2c-.3 0-.5.2-.5.5v9.6c-1.7-1.4-3.7-2.1-6.1-2.1-2.9 0-5.4 1.1-7.5 3.4-2.1 2.2-3.2 5.1-3.2 8.6 0 2.4.5 4.6 1.6 6.5.5 1.5 1.3 2.8 2.4 4 2 2.2 4.4 3.3 7 3.3 2.2 0 4.1-.7 5.6-2.2v1.3c0 .3.2.5.5.5h5.8c.2 0 .4-.1.5-.3l.7-1.6c0-.1.1-.2 0-.3V9c-.1-.3-.3-.5-.6-.5zm-15.8 22.8V31c0-1.6.4-2.8 1.3-3.8s1.9-1.5 3.1-1.5c1.2 0 2.2.5 3 1.5.8.9 1.2 2.1 1.3 3.5-.2.8-.6 1.5-1.1 2.1-.9 1-2 1.5-3.3 1.5-1.3 0-2.4-.5-3.4-1.6-.3-.4-.6-.9-.9-1.4z"/></g><g><path class="st0" d="M201.2 42c-3.2 0-5.9-1-8-3-1.3-1.2-2.2-2.7-2.7-4.5-.9-1.6-1.4-3.6-1.4-5.9 0-3.6 1.2-6.5 3.5-8.6 2.3-2.1 5.1-3.2 8.2-3.2 3.1 0 5.8 1 8 2.9s3.3 4.5 3.3 7.9V31l-.7 2.1c0 .1-.1.2-.3.2h-3.8l2.7 2.9c.1 0 .2 0 .2.1.1.1.1.2 0 .2 0 .1 0 .2-.1.2l-.5 1.6s0 .1-.1.1c-2.3 2.4-5.1 3.6-8.3 3.6zm-4-8.8c.1.1.3.2.4.4 1 .7 2.2 1.1 3.5 1.1 1.8 0 3.3-.5 4.5-1.5h-8.4zm6.5-7c-.8-.6-1.6-.9-2.7-.9s-2 .3-2.8.9h5.5z"/><path class="st0" d="M200.8 17.1c3.1 0 5.7.9 7.9 2.8s3.2 4.4 3.2 7.7v3.3l-.7 2.1h-4.4l3.2 3.5h.2v.1l-.1.1-.5 1.6c-2.4 2.2-5.1 3.4-8.3 3.4-3.2 0-5.8-1-7.8-2.9-1.3-1.2-2.2-2.6-2.6-4.3-.9-1.7-1.3-3.6-1.3-5.8 0-3.5 1.1-6.3 3.4-8.4 2-2.2 4.7-3.2 7.8-3.2m-3.4 9.3h6.9c-.1-.2-.3-.3-.4-.4-.8-.7-1.8-1-2.9-1-1.1 0-2.2.3-3.2 1-.1.2-.3.2-.4.4m3.7 8.6c2.1 0 3.8-.7 5.2-2h-9.8l.9.9c1.2.7 2.4 1.1 3.7 1.1m-.3-18.5c-3.2 0-6 1.1-8.4 3.3-2.4 2.2-3.6 5.1-3.6 8.8 0 2.3.5 4.3 1.4 6 .5 1.8 1.5 3.3 2.8 4.5 2.2 2 4.9 3.1 8.2 3.1 3.2 0 6.2-1.2 8.6-3.5.1-.1.1-.1.1-.2l.5-1.5c.1-.1.1-.2.1-.4v-.1c0-.1 0-.3-.1-.4-.1-.1-.2-.2-.3-.2l-2.2-2.4h3.2c.2 0 .4-.2.5-.4l.7-2v-3.5c0-3.4-1.1-6.1-3.4-8.1-2.1-2-4.9-3-8.1-3zm-1.6 9.4c.5-.2 1.1-.3 1.7-.3.6 0 1.2.1 1.7.3h-3.4zm-1.2 7.6h6.8c-1 .6-2.2.9-3.6.9-1.2 0-2.3-.3-3.2-.9z"/></g><g><path class="st1" d="M45.3 20.8h-5.8v19.1h-.1l.2 1.5h5.8l.3-1.5h-.4zM42.5 9.4c-1 0-1.8.3-2.4 1-.7.7-1 1.5-1 2.4 0 1 .3 1.8 1 2.4.7.7 1.5 1 2.4 1 1 0 1.8-.3 2.4-1 .7-.7 1-1.5 1-2.4 0-1-.3-1.8-1-2.4-.6-.6-1.4-1-2.4-1zM73.2 12.7h-5.7v10.2c-1.9-1.8-3.8-2.7-6.3-2.7s-4.8 1-6.7 3c-1.9 2-2.8 4.5-2.8 7.6 0 3.1 1 5.7 2.9 7.8 1.9 2.1 4.2 3.1 6.7 3.1s4.3-1 6.2-3.1v1.2h-.2v1.6H73l.4-1.5h-.3V12.7zM66 35.2c-.9 1.1-2.1 1.6-3.4 1.6-1.3 0-2.5-.5-3.5-1.6s-1.5-2.4-1.5-4.1c0-1.7.5-3.1 1.5-4.2s2.2-1.7 3.5-1.7c1.4 0 2.5.6 3.5 1.7.9 1.1 1.4 2.5 1.4 4.2-.1 1.6-.6 3-1.5 4.1zM87.5 24.7c1.8 0 3.6.6 5.4 1.9l2.2-3.9.8-3-2 .3v2c-2.1-1.2-4.1-1.8-6.2-1.8-2.5 0-4.5.6-6 1.8-1.5 1.2-2.3 2.8-2.3 4.7 0 1.9.8 3.4 2.4 4.4.8.5 1.5.9 2.1 1.1.6.3 1.5.6 2.6.9 1.1.4 2 .7 2.6 1.2.6.4.9.9.9 1.4 0 .5-.2.9-.7 1.2-.4.3-1 .4-1.8.4-2.5 0-4.8-.8-7-2.5L79 37v-.5h-1.4l.5 1.9c1.3 1.1 2.9 1.9 4.5 2.5 1.7.6 3.3.9 4.8.9 2.3 0 4.2-.6 5.8-1.9 1.5-1.2 2.3-2.9 2.3-4.9 0-2.1-.7-3.5-2.2-4.4-.8-.5-1.4-.8-2-1-.6-.2-1.5-.5-2.8-.9-1.3-.4-2.3-.8-2.8-1.1-.6-.3-.9-.7-.9-1.3 0-1.1.9-1.6 2.7-1.6zM119.8 19.5c2.8 0 5.2 1.2 7.1 3.6l3.8-4.3 1.5-3.4h-1.1l-2.6 1.2c-2.5-2-5.5-2.9-8.9-2.9-4 0-7.3 1.4-10.1 4-2.8 2.7-4.1 6-4.1 10.1 0 4 1.3 7.3 4 10 2.7 2.6 6.1 3.9 10.3 3.9 4.2 0 7.8-1.8 10.8-5.2l1.6-1.9-3.3-1.1v1l-2-2c-1.9 2.4-4.4 3.5-7.3 3.5-2.2 0-4-.8-5.6-2.3-1.5-1.5-2.3-3.5-2.3-6.1 0-2.5.8-4.5 2.4-6 1.6-1.3 3.5-2.1 5.8-2.1zM146.4 20.2c-3.2 0-5.8 1-7.9 3.1-2.1 2.1-3.1 4.6-3.1 7.7 0 3 1 5.6 3.1 7.6 2.1 2.1 4.7 3.1 7.9 3.1s5.8-1 7.9-3.1c2.1-2.1 3.1-4.6 3.1-7.6s-1-5.6-3.1-7.7c-2.1-2-4.7-3.1-7.9-3.1zm3.7 15c-1 1.1-2.2 1.6-3.7 1.6s-2.8-.5-3.7-1.6c-1-1.1-1.5-2.5-1.5-4.2 0-1.7.5-3.1 1.5-4.2s2.2-1.6 3.7-1.6 2.8.5 3.7 1.6c1 1.1 1.5 2.5 1.5 4.2 0 1.7-.5 3.1-1.5 4.2zM183.9 12.7h-5.4v10.2c-1.5-1.8-4.1-2.7-6.6-2.7s-4.7 1-6.6 3c-1.9 2-2.8 4.5-2.8 7.6 0 3.1 1 5.7 2.9 7.8 1.9 2.1 4.1 3.1 6.6 3.1s4.6-1 6.2-3.1v2.8h5.8l.7-1.6-.7-.1v-27zm-7.1 22.5c-.9 1.1-2.1 1.6-3.4 1.6-1.3 0-2.5-.5-3.5-1.6s-1.5-2.4-1.5-4.1c0-1.7.5-3.1 1.5-4.2s2.2-1.7 3.5-1.7c1.4 0 2.5.6 3.5 1.7.9 1.1 1.4 2.5 1.4 4.2-.1 1.6-.5 3-1.5 4.1zM36 10.8h-1.1l-5 3.4h-3.2L16.5 25.5V14.3h-6.1v27.2h6l.6-1.6h-.4v-6.1l2.6-3 7.9 10.7h7l1.8-1.5-3-.1c-1.2-1.6-2.6-3.7-4.5-6.3-2.5-3.5-4.2-5.9-5.2-7.2L34 14.5l2-3.7zM211.8 30.9l-.7-.1V30c0-3-1-5.4-3-7.1-2-1.7-4.4-2.6-7.3-2.6-2.9 0-5.3 1-7.5 2.9-2.1 1.9-3.2 4.5-3.2 7.8s1 5.9 3.1 7.8c2.1 2 4.7 2.9 7.8 2.9 3.2 0 5.9-1.2 8.3-3.4l.6-1.9h-1.1l-.4.9-2.3-2.5c-1.3 1.4-3 2.1-5 2.1-1.3 0-2.4-.4-3.4-1.1-1-.7-1.6-1.7-1.8-2.8h15.2l.7-2.1zm-15.7-2.1c.2-1.1.7-2.1 1.7-2.8 1-.7 2-1 3.2-1 1.1 0 2.1.3 2.9 1 .8.7 1.3 1.7 1.4 2.8h-9.2z"/><g><path class="st2" d="M10.4 10.7h6.5v12l11-12H36L24.4 23.6c1 1.4 2.9 4 5.6 7.8 2.7 3.8 4.7 6.6 6.1 8.5h-7.6l-8.6-11.5-2.9 3.3V40h-6.5V10.7zM39.9 14.6c-.7-.7-1.1-1.6-1.1-2.6s.4-1.9 1.1-2.6c.7-.7 1.6-1.1 2.6-1.1s1.9.4 2.6 1.1c.7.7 1.1 1.6 1.1 2.6s-.4 1.9-1.1 2.6c-.7.7-1.6 1.1-2.6 1.1-1-.1-1.9-.4-2.6-1.1zm5.8 25.3h-6.3V17.4h6.3v22.5zM60.6 40.2c-2.7 0-5-1.1-7.1-3.4-2.1-2.3-3.1-5.1-3.1-8.4 0-3.3 1-6.1 3-8.2 2-2.1 4.4-3.2 7.1-3.2s5 1 6.7 2.9v-11h6.3v31h-6.3v-3c-1.7 2.2-3.9 3.3-6.6 3.3zm-3.9-11.5c0 1.8.5 3.3 1.6 4.4 1.1 1.2 2.4 1.7 3.8 1.7s2.7-.6 3.7-1.7c1-1.2 1.5-2.6 1.5-4.5 0-1.8-.5-3.3-1.5-4.6-1-1.2-2.3-1.8-3.7-1.8-1.5 0-2.7.6-3.8 1.8-1.1 1.4-1.6 2.9-1.6 4.7zM96.3 32.9c0 2.2-.8 4-2.4 5.3-1.6 1.3-3.7 2-6.2 2-1.7 0-3.4-.3-5.2-.9-1.8-.6-3.4-1.5-4.9-2.7l2.8-3.9c2.3 1.8 4.8 2.7 7.5 2.7.8 0 1.4-.2 1.9-.5s.7-.7.7-1.3c0-.5-.3-1-1-1.5-.7-.4-1.6-.9-2.8-1.3-1.2-.4-2.2-.7-2.8-1-.7-.3-1.4-.7-2.2-1.2-1.7-1.1-2.5-2.6-2.5-4.7s.8-3.8 2.5-5.1c1.7-1.3 3.8-2 6.5-2 2.6 0 5.3.9 7.9 2.7l-2.3 4.2c-1.9-1.3-3.9-2-5.8-2s-2.9.5-2.9 1.6c0 .6.3 1 .9 1.4.6.3 1.6.7 3 1.2 1.4.4 2.4.8 3 1 .6.2 1.3.6 2.2 1.1 1.3 1.1 2.1 2.7 2.1 4.9zM120 34.1c3.2 0 5.8-1.3 7.8-3.8l4.2 4.3c-3.3 3.7-7.2 5.6-11.7 5.6-4.5 0-8.2-1.4-11.1-4.3-2.9-2.8-4.4-6.4-4.4-10.8 0-4.3 1.5-7.9 4.4-10.8 3-2.9 6.6-4.3 10.9-4.3 4.8 0 8.8 1.8 12 5.5l-4 4.6c-2.1-2.6-4.6-3.8-7.7-3.8-2.4 0-4.5.8-6.3 2.4-1.7 1.6-2.6 3.8-2.6 6.5s.8 4.9 2.5 6.5c1.7 1.6 3.7 2.4 6 2.4zM158.2 28.7c0 3.3-1.1 6-3.4 8.2-2.3 2.2-5.1 3.3-8.5 3.3-3.4 0-6.2-1.1-8.5-3.3-2.3-2.2-3.4-5-3.4-8.2s1.1-6 3.4-8.2c2.3-2.2 5.1-3.4 8.5-3.4 3.4 0 6.2 1.1 8.5 3.4 2.2 2.1 3.4 4.9 3.4 8.2zm-17.5 0c0 1.8.5 3.3 1.6 4.5 1 1.2 2.4 1.7 4 1.7s3-.6 4-1.7c1-1.2 1.6-2.7 1.6-4.5s-.5-3.3-1.6-4.5c-1-1.2-2.4-1.8-4-1.8s-3 .6-4 1.8c-1.1 1.1-1.6 2.6-1.6 4.5zM171.8 40.2c-2.7 0-5-1.1-7.1-3.4-2.1-2.3-3.1-5.1-3.1-8.4 0-3.3 1-6.1 3-8.2 2-2.1 4.4-3.2 7.1-3.2 2.7 0 5 1 6.7 2.9v-11h6.3v31h-6.3v-3c-1.8 2.2-4 3.3-6.6 3.3zm-4-11.5c0 1.8.5 3.3 1.6 4.4 1.1 1.2 2.4 1.7 3.8 1.7s2.7-.6 3.7-1.7c1-1.2 1.5-2.6 1.5-4.5 0-1.8-.5-3.3-1.5-4.6-1-1.2-2.3-1.8-3.7-1.8-1.5 0-2.7.6-3.8 1.8-1 1.4-1.6 2.9-1.6 4.7zM210 36.6c-2.5 2.4-5.5 3.6-8.9 3.6-3.4 0-6.2-1.1-8.5-3.2-2.2-2.1-3.3-4.9-3.3-8.5 0-3.5 1.1-6.3 3.4-8.4 2.3-2.1 4.9-3.1 8-3.1 3.1 0 5.7.9 7.9 2.8s3.2 4.4 3.2 7.7v3.3h-16.4c.2 1.2.8 2.2 1.9 3 1.1.8 2.3 1.2 3.7 1.2 2.2 0 4-.7 5.4-2.2l3.6 3.8zm-6-13.3c-.9-.7-1.9-1.1-3.2-1.1-1.2 0-2.4.4-3.4 1.1-1 .8-1.6 1.8-1.8 3h9.9c-.1-1.2-.6-2.3-1.5-3z"/></g></g><g><path d="M81.5 66.3c0 .8.5 1.4 1.2 1.5 2.3.6 3.9 2.6 3.9 5.1 0 2.4-1.7 4.5-4 5-.7.1-1.3.8-1.3 1.5V82.5c0 2.3 1.9 4.2 4.2 4.2H101.4c2.3 0 4.2-1.9 4.2-4.2v-3c0-.8.5-1.4 1.3-1.5 2.3-.6 4-2.6 4-5s-1.7-4.5-3.9-5.1c-.7-.2-1.2-.8-1.2-1.5V63.3c0-2.3-1.9-4.2-4.2-4.2H85.7c-2.3 0-4.2 1.9-4.2 4.2v3zM111.9 66.3c0 .8.5 1.4 1.2 1.5 2.3.6 3.9 2.6 3.9 5.1 0 2.4-1.7 4.5-4 5-.7.1-1.3.8-1.3 1.5V82.5c0 2.3 1.9 4.2 4.2 4.2H131.8c2.3 0 4.2-1.9 4.2-4.2v-3c0-.8.5-1.4 1.3-1.5 2.3-.6 4-2.6 4-5s-1.7-4.5-3.9-5.1c-.7-.2-1.2-.8-1.2-1.5V63.3c0-2.3-1.9-4.2-4.2-4.2H116.1c-2.3 0-4.2 1.9-4.2 4.2v3zM40.3 73.1c0 7.4 5.8 13.5 13.1 13.9H67h-2.6 6.1c2.3 0 4.2-1.9 4.2-4.2v-3c0-.8.5-1.4 1.3-1.6 2.3-.6 4-2.6 4-5.1 0-2.4-1.7-4.5-4-5.1-.7-.2-1.2-.8-1.2-1.5v-3c0-1.7-1.1-3.2-2.5-3.9-.5-.2-1.1-.4-1.7-.4h-6.1H67 53.3c-7.2.4-13 6.5-13 13.9zM143.2 78.1c-.7.2-1.3.8-1.3 1.6v3.1c0 2.4 1.9 4.3 4.3 4.3h22.2C176 86.8 182 80.6 182 73s-6-13.9-13.6-14.1h-22.2c-2.4 0-4.3 1.9-4.3 4.3v3.1c0 .7.6 1.4 1.3 1.5 2.3.6 4 2.7 4 5.2 0 2.4-1.7 4.5-4 5.1z" class="st3"/><path class="st4" d="M85.7 85.6c-2.4 0-4.4-2-4.4-4.4v-3c0-.8.6-1.5 1.4-1.7 2.2-.6 3.8-2.6 3.8-4.9 0-2.3-1.6-4.3-3.8-4.9-.8-.2-1.4-.9-1.4-1.7v-3.1c0-2.4 2-4.4 4.4-4.4h15.8c2.4 0 4.4 2 4.4 4.4v3c0 .7.5 1.2 1.1 1.3 2.4.6 4.1 2.8 4.1 5.2 0 2.5-1.7 4.6-4.1 5.2-.7.1-1.1.7-1.1 1.4v3c0 2.4-2 4.4-4.4 4.4 0 .2-15.8.2-15.8.2z"/><path class="st5" d="M85.7 57.7H101.6c2.3 0 4.2 1.9 4.2 4.2V65c0 .7.5 1.3 1.2 1.5 2.3.6 3.9 2.6 3.9 5.1 0 2.4-1.7 4.5-4 5-.7.1-1.3.8-1.3 1.5v3c0 2.3-1.9 4.2-4.2 4.2H85.5c-2.3 0-4.2-1.9-4.2-4.2V78c0-.8.5-1.4 1.3-1.5 2.3-.6 4-2.6 4-5s-1.7-4.5-3.9-5.1c-.7-.2-1.2-.8-1.2-1.5v-3c0-2.3 1.9-4.2 4.2-4.2m0-.3c-2.5 0-4.6 2.1-4.6 4.6v3.1c0 .9.6 1.6 1.5 1.8l.1-.4v.4c2.1.5 3.6 2.5 3.6 4.7s-1.5 4.2-3.7 4.7c-.9.2-1.5 1-1.5 1.9V81.3c0 1.2.5 2.4 1.3 3.2.9.9 2 1.3 3.2 1.4H101.5c2.5 0 4.6-2.1 4.6-4.6v-3c0-.6.4-1.1 1-1.2 2.5-.6 4.2-2.8 4.2-5.4 0-2.6-1.7-4.8-4.2-5.4-.6-.1-1-.6-1-1.2V62c0-2.5-2-4.6-4.6-4.6H85.7z"/><path class="st4" d="M116.1 85.6c-2.4 0-4.4-2-4.4-4.4v-3c0-.8.6-1.5 1.4-1.7 2.2-.6 3.8-2.6 3.8-4.9 0-2.3-1.6-4.3-3.8-4.9-.8-.2-1.4-.9-1.4-1.7v-3.1c0-2.4 2-4.4 4.4-4.4h15.8c2.4 0 4.4 2 4.4 4.4v3c0 .7.5 1.2 1.1 1.4 2.4.6 4.1 2.8 4.1 5.2 0 2.5-1.7 4.6-4.1 5.2-.7.1-1.1.7-1.1 1.4v3c0 2.4-2 4.4-4.4 4.4 0 .1-15.8.1-15.8.1z"/><path class="st5" d="M116.2 57.7H132.1c2.3 0 4.2 1.9 4.2 4.2V65c0 .7.5 1.3 1.2 1.5 2.3.6 3.9 2.6 3.9 5.1 0 2.4-1.7 4.5-4 5-.7.1-1.3.8-1.3 1.5v3c0 2.3-1.9 4.2-4.2 4.2H116c-2.3 0-4.2-1.9-4.2-4.2V78c0-.8.5-1.4 1.3-1.5 2.3-.6 4-2.6 4-5s-1.7-4.5-3.9-5.1c-.7-.2-1.2-.8-1.2-1.5v-3c-.1-2.3 1.8-4.2 4.2-4.2m0-.3c-2.5 0-4.6 2.1-4.6 4.6v3.1c0 .9.6 1.6 1.5 1.8l.1-.4v.4c2.1.5 3.6 2.5 3.6 4.7s-1.5 4.2-3.7 4.7c-.9.2-1.5 1-1.5 1.9V81.3c0 2.5 2 4.6 4.6 4.6H132.1c2.5 0 4.6-2.1 4.6-4.6v-3c0-.6.4-1.1 1-1.2 2.5-.6 4.2-2.8 4.2-5.4 0-2.6-1.7-4.8-4.2-5.4-.5-.1-.9-.6-.9-1.1V62.1c0-2.5-2-4.6-4.6-4.6h-9.6l-6.4-.1z"/><g><path class="st6" d="M53.8 85.8h-.5c-7.4-.4-13.3-6.6-13.3-14s5.8-13.6 13.3-14h17.1c.6 0 1.2.1 1.8.4 1.6.7 2.7 2.3 2.7 4v3c0 .7.5 1.2 1.1 1.4 2.4.6 4.1 2.8 4.1 5.3s-1.7 4.6-4.1 5.2c-.7.1-1.1.7-1.1 1.4v3c0 2.4-2 4.4-4.4 4.4H53.8z"/><path class="st5" d="M70.4 57.8c.6 0 1.2.1 1.7.4 1.5.7 2.5 2.1 2.5 3.9v3c0 .7.5 1.3 1.2 1.5 2.3.6 4 2.6 4 5.1 0 2.4-1.7 4.5-4 5.1-.7.2-1.3.8-1.3 1.6v3c0 2.3-1.9 4.2-4.2 4.2h-6.1H67 53.4c-7.3-.4-13.1-6.4-13.1-13.9 0-7.4 5.8-13.5 13.1-13.8h17m-3.4-.1h-2.6H67m3.4-.3H53.3c-7.5.4-13.4 6.7-13.4 14.2s5.9 13.8 13.5 14.2h17c2.5 0 4.6-2.1 4.6-4.6v-3c0-.6.4-1.1 1-1.2 2.5-.6 4.2-2.9 4.2-5.4 0-2.6-1.7-4.8-4.2-5.4-.5-.1-.9-.6-.9-1.2v-3c0-1.8-1.1-3.5-2.8-4.2-.6-.3-1.2-.4-1.9-.4z"/></g><g><path class="st7" d="M146.2 85.9c-2.5 0-4.5-2-4.5-4.5v-3.1c0-.8.6-1.6 1.4-1.8 2.3-.6 3.9-2.6 3.9-5s-1.6-4.4-3.9-5c-.8-.2-1.4-.9-1.4-1.7v-3.1c0-2.5 2-4.5 4.5-4.5h22.2c7.7.3 13.8 6.6 13.8 14.3 0 7.7-6.1 14-13.8 14.3h-22.2z"/><path class="st5" d="M168.1 57.4h.3c7.6.3 13.6 6.5 13.6 14.1s-6 13.9-13.6 14.1h-22.2c-2.4 0-4.3-1.9-4.3-4.3v-3.1c0-.8.6-1.4 1.3-1.6 2.3-.6 4-2.7 4-5.2s-1.7-4.6-4-5.2c-.7-.2-1.2-.8-1.3-1.5v-3.1c0-2.4 1.9-4.3 4.3-4.3h21.9m0-.3h-21.9c-2.6 0-4.7 2.1-4.7 4.7v3.1c0 .9.7 1.7 1.5 1.9 2.2.6 3.8 2.5 3.8 4.8s-1.5 4.3-3.8 4.8c-.9.2-1.6 1-1.6 1.9v3.1c0 2.6 2.1 4.7 4.7 4.7h22.2c7.8-.3 13.9-6.7 13.9-14.5s-6.1-14.2-14-14.5h-.1z"/></g></g></svg>