<svg xmlns="http://www.w3.org/2000/svg" xmlns:xlink="http://www.w3.org/1999/xlink" viewBox="0 0 159.5 219.043"><defs><path id="a" d="M-148.194-3091.076h320v6650h-320z"/></defs><clipPath id="b"><use xlink:href="#a" overflow="visible"/></clipPath><g clip-path="url(#b)"><defs><path id="c" d="M5.806 7.924h148v212h-148z"/></defs><clipPath id="d"><use xlink:href="#c" overflow="visible"/></clipPath><g clip-path="url(#d)"><defs><path id="e" d="M4.806 7.924h149v214h-149z"/></defs><clipPath id="f"><use xlink:href="#e" overflow="visible"/></clipPath><g clip-path="url(#f)"><defs><path id="g" d="M5.806 7.924h148v212h-148z"/></defs><clipPath id="h"><use xlink:href="#g" overflow="visible"/></clipPath><g clip-path="url(#h)"><defs><path id="i" d="M84.387 82.645l-3.12-.284-3.118-.285-15.365 136.197 6.017.546 6.016.55z"/></defs><clipPath id="j"><use xlink:href="#i" overflow="visible"/></clipPath><g clip-path="url(#j)"><defs><path id="k" d="M4.806 7.924h149v214h-149z"/></defs><clipPath id="l"><use xlink:href="#k" overflow="visible"/></clipPath><path clip-path="url(#l)" fill="#FAFFF8" d="M57.785 77.075h31.602v147.293H57.785z"/></g></g><g clip-path="url(#h)"><defs><path id="m" d="M4.806 7.924h149v214h-149z"/></defs><clipPath id="n"><use xlink:href="#m" overflow="visible"/></clipPath><g opacity=".1" clip-path="url(#n)"><defs><path id="o" d="M68.806 81.924h16v138h-16z"/></defs><clipPath id="p"><use xlink:href="#o" overflow="visible"/></clipPath><g clip-path="url(#p)"><defs><path id="q" d="M68.802 218.818l6.016.55 9.57-136.723-3.12-.284z"/></defs><clipPath id="r"><use xlink:href="#q" overflow="visible"/></clipPath><g clip-path="url(#r)"><defs><path id="s" d="M67.806 80.924h18v139h-18z"/></defs><clipPath id="t"><use xlink:href="#s" overflow="visible"/></clipPath><path clip-path="url(#t)" d="M63.802 77.36h25.585V224.37H63.802z"/></g></g></g></g><g clip-path="url(#h)"><defs><ellipse id="u" cx="81.134" cy="83.816" rx="6.382" ry="6.376"/></defs><clipPath id="v"><use xlink:href="#u" overflow="visible"/></clipPath><g clip-path="url(#v)"><defs><path id="w" d="M4.806 7.924h149v214h-149z"/></defs><clipPath id="x"><use xlink:href="#w" overflow="visible"/></clipPath><path clip-path="url(#x)" fill="#5595E4" d="M69.752 72.44h22.765v22.753H69.752z"/></g></g><g clip-path="url(#h)"><defs><path id="y" d="M4.806 7.924h149v214h-149z"/></defs><clipPath id="z"><use xlink:href="#y" overflow="visible"/></clipPath><ellipse clip-path="url(#z)" fill="none" stroke="#FFF" stroke-width="1.872" stroke-miterlimit="10" cx="81.134" cy="83.816" rx="6.382" ry="6.376"/></g><g clip-path="url(#h)"><defs><path id="A" d="M4.806 7.924h149v214h-149z"/></defs><clipPath id="B"><use xlink:href="#A" overflow="visible"/></clipPath><g opacity=".1" clip-path="url(#B)"><defs><path id="C" d="M79.806 76.924h9v14h-9z"/></defs><clipPath id="D"><use xlink:href="#C" overflow="visible"/></clipPath><g clip-path="url(#D)"><defs><path id="E" d="M81.715 77.463l-1.16 12.704a6.38 6.38 0 0 0 6.936-5.77 6.38 6.38 0 0 0-5.775-6.934z"/></defs><clipPath id="F"><use xlink:href="#E" overflow="visible"/></clipPath><g clip-path="url(#F)"><defs><path id="G" d="M79.806 76.924h9v15h-9z"/></defs><clipPath id="H"><use xlink:href="#G" overflow="visible"/></clipPath><path clip-path="url(#H)" d="M75.556 72.463h16.962v22.73H75.556z"/></g></g></g></g><g clip-path="url(#h)"><defs><circle id="I" cx="81.134" cy="83.816" r="3.222"/></defs><clipPath id="J"><use xlink:href="#I" overflow="visible"/></clipPath><g clip-path="url(#J)"><defs><path id="K" d="M4.806 7.924h149v214h-149z"/></defs><clipPath id="L"><use xlink:href="#K" overflow="visible"/></clipPath><path clip-path="url(#L)" fill="#FAFFF8" d="M72.91 75.595h16.45V92.04H72.91z"/></g></g><g clip-path="url(#h)"><defs><path id="M" d="M4.806 7.924h149v214h-149z"/></defs><clipPath id="N"><use xlink:href="#M" overflow="visible"/></clipPath><g opacity=".1" clip-path="url(#N)"><defs><path id="O" d="M80.806 79.924h4v8h-4z"/></defs><clipPath id="P"><use xlink:href="#O" overflow="visible"/></clipPath><g clip-path="url(#P)"><defs><path id="Q" d="M81.428 80.608l-.586 6.417a3.225 3.225 0 0 0 3.506-2.915 3.223 3.223 0 0 0-2.92-3.502z"/></defs><clipPath id="R"><use xlink:href="#Q" overflow="visible"/></clipPath><g clip-path="url(#R)"><defs><path id="S" d="M79.806 79.924h6v9h-6z"/></defs><clipPath id="T"><use xlink:href="#S" overflow="visible"/></clipPath><path clip-path="url(#T)" d="M75.842 75.608h13.52v16.43H75.84z"/></g></g></g></g><g clip-path="url(#h)"><defs><path id="U" d="M86.02 73.882a3.957 3.957 0 0 1-4.305 3.58 3.957 3.957 0 0 1-3.586-4.3l4.806-52.612c.197-2.174 2.938-12.672 5.118-12.476 2.18.198 2.968 11.022 2.77 13.198l-4.804 52.61z"/></defs><clipPath id="V"><use xlink:href="#U" overflow="visible"/></clipPath><g clip-path="url(#V)"><defs><path id="W" d="M4.806 7.924h149v214h-149z"/></defs><clipPath id="X"><use xlink:href="#W" overflow="visible"/></clipPath><path clip-path="url(#X)" fill="#FAFFF8" d="M73.112 3.07h22.74v79.41h-22.74z"/></g></g><g clip-path="url(#h)"><defs><path id="Y" d="M4.806 7.924h149v214h-149z"/></defs><clipPath id="Z"><use xlink:href="#Y" overflow="visible"/></clipPath><g opacity=".1" clip-path="url(#Z)"><defs><path id="aa" d="M80.806 7.924h11v70h-11z"/></defs><clipPath id="ab"><use xlink:href="#aa" overflow="visible"/></clipPath><g clip-path="url(#ab)"><defs><path id="ac" d="M88.056 8.074l-6.34 69.39a3.957 3.957 0 0 0 4.304-3.582l4.805-52.61c.2-2.176-.59-12.998-2.77-13.198z"/></defs><clipPath id="ad"><use xlink:href="#ac" overflow="visible"/></clipPath><g clip-path="url(#ad)"><defs><path id="ae" d="M80.806 7.924h11v70h-11z"/></defs><clipPath id="af"><use xlink:href="#ae" overflow="visible"/></clipPath><path clip-path="url(#af)" d="M76.715 3.074h19.14V82.48h-19.14z"/></g></g></g></g><g clip-path="url(#h)"><defs><path id="ag" d="M70.108 82.39a3.96 3.96 0 0 1 4.646 3.13 3.962 3.962 0 0 1-3.137 4.64L19.71 100.22c-2.15.414-13.005.716-13.423-1.43-.414-2.148 9.764-5.924 11.912-6.343L70.107 82.39z"/></defs><clipPath id="ah"><use xlink:href="#ag" overflow="visible"/></clipPath><g clip-path="url(#ah)"><defs><path id="ai" d="M4.806 7.924h149v214h-149z"/></defs><clipPath id="aj"><use xlink:href="#ai" overflow="visible"/></clipPath><path clip-path="url(#aj)" fill="#FAFFF8" d="M1.275 77.316h78.552v28.2H1.275z"/></g></g><g clip-path="url(#h)"><defs><path id="ak" d="M4.806 7.924h149v214h-149z"/></defs><clipPath id="al"><use xlink:href="#ak" overflow="visible"/></clipPath><g opacity=".1" clip-path="url(#al)"><defs><path id="am" d="M5.806 81.924h69v17h-69z"/></defs><clipPath id="an"><use xlink:href="#am" overflow="visible"/></clipPath><g clip-path="url(#an)"><defs><path id="ao" d="M6.287 98.79l68.47-13.273a3.96 3.96 0 0 0-4.647-3.128L18.2 92.446c-2.15.42-12.327 4.195-11.913 6.343z"/></defs><clipPath id="ap"><use xlink:href="#ao" overflow="visible"/></clipPath><g clip-path="url(#ap)"><defs><path id="aq" d="M5.806 80.924h70v18h-70z"/></defs><clipPath id="ar"><use xlink:href="#aq" overflow="visible"/></clipPath><path clip-path="url(#ar)" d="M1.275 77.314h78.48v26.475H1.276z"/></g></g></g></g><g clip-path="url(#h)"><defs><path id="as" d="M92.238 84.406a3.96 3.96 0 1 0-2.893 7.37l49.228 19.282c2.037.797 12.66 3.055 13.46 1.023.8-2.038-8.528-7.59-10.565-8.39l-49.23-19.284z"/></defs><clipPath id="at"><use xlink:href="#as" overflow="visible"/></clipPath><g clip-path="url(#at)"><defs><path id="au" d="M4.806 7.924h149v214h-149z"/></defs><clipPath id="av"><use xlink:href="#au" overflow="visible"/></clipPath><path clip-path="url(#av)" fill="#FAFFF8" d="M81.83 79.13h75.25v38.777H81.83z"/></g></g><g clip-path="url(#h)"><defs><path id="aw" d="M4.806 7.924h149v214h-149z"/></defs><clipPath id="ax"><use xlink:href="#aw" overflow="visible"/></clipPath><g opacity=".1" clip-path="url(#ax)"><defs><path id="ay" d="M86.806 82.924h66v30h-66z"/></defs><clipPath id="az"><use xlink:href="#ay" overflow="visible"/></clipPath><g clip-path="url(#az)"><defs><path id="aA" d="M152.032 112.08L87.105 86.646a3.96 3.96 0 0 1 5.133-2.24l49.23 19.284c2.037.8 11.364 6.352 10.564 8.39z"/></defs><clipPath id="aB"><use xlink:href="#aA" overflow="visible"/></clipPath><g clip-path="url(#aB)"><defs><path id="aC" d="M85.806 82.924h67v30h-67z"/></defs><clipPath id="aD"><use xlink:href="#aC" overflow="visible"/></clipPath><path clip-path="url(#aD)" d="M82.105 79.13h74.976v37.95H82.106z"/></g></g></g></g></g></g></g><defs><path id="aE" d="M-148.194-3091.076h320v6650h-320z"/></defs><clipPath id="aF"><use xlink:href="#aE" overflow="visible"/></clipPath><g clip-path="url(#aF)"><defs><path id="aG" d="M60.806 75.924h29v145h-29z"/></defs><clipPath id="aH"><use xlink:href="#aG" overflow="visible"/></clipPath><g clip-path="url(#aH)"><defs><path id="aI" d="M60.806 75.924h29v145h-29z"/></defs><clipPath id="aJ"><use xlink:href="#aI" overflow="visible"/></clipPath><path clip-path="url(#aJ)" fill="none" stroke="#422B2C" stroke-width="1.872" stroke-miterlimit="10" d="M87.492 84.396a6.383 6.383 0 0 0-12.712-1.162 6.36 6.36 0 0 0 2.594 5.723L62.13 219.247l12.688.12 9.086-129.814a6.364 6.364 0 0 0 3.588-5.157z"/></g></g><defs><path id="aK" d="M-148.194-3091.076h320v6650h-320z"/></defs><clipPath id="aL"><use xlink:href="#aK" overflow="visible"/></clipPath><g clip-path="url(#aL)"><defs><path id="aM" d="M76.806 6.924h16v72h-16z"/></defs><clipPath id="aN"><use xlink:href="#aM" overflow="visible"/></clipPath><g clip-path="url(#aN)"><defs><path id="aO" d="M76.806 6.924h16v72h-16z"/></defs><clipPath id="aP"><use xlink:href="#aO" overflow="visible"/></clipPath><path clip-path="url(#aP)" fill="none" stroke="#422B2C" stroke-width="1.872" stroke-miterlimit="10" d="M86.02 73.882l4.805-52.61c.2-2.176-.592-12.998-2.77-13.198-2.182-.196-4.922 10.302-5.118 12.476L78.13 73.16a3.957 3.957 0 0 0 3.586 4.302c2.18.2 4.106-1.4 4.304-3.58z"/></g></g><defs><path id="aQ" d="M-148.194-3091.076h320v6650h-320z"/></defs><clipPath id="aR"><use xlink:href="#aQ" overflow="visible"/></clipPath><g clip-path="url(#aR)"><defs><path id="aS" d="M4.806 80.924h72v21h-72z"/></defs><clipPath id="aT"><use xlink:href="#aS" overflow="visible"/></clipPath><g clip-path="url(#aT)"><defs><path id="aU" d="M4.806 80.924h72v21h-72z"/></defs><clipPath id="aV"><use xlink:href="#aU" overflow="visible"/></clipPath><path clip-path="url(#aV)" fill="none" stroke="#422B2C" stroke-width="1.872" stroke-miterlimit="10" d="M74.754 85.52a3.96 3.96 0 0 0-4.646-3.13l-51.91 10.06c-2.148.418-12.326 4.192-11.912 6.342.418 2.144 11.274 1.843 13.422 1.43l51.908-10.06a3.966 3.966 0 0 0 3.138-4.643z"/></g></g><defs><path id="aW" d="M-148.194-3091.076h320v6650h-320z"/></defs><clipPath id="aX"><use xlink:href="#aW" overflow="visible"/></clipPath><g clip-path="url(#aX)"><defs><path id="aY" d="M84.806 82.924h69v31h-69z"/></defs><clipPath id="aZ"><use xlink:href="#aY" overflow="visible"/></clipPath><g clip-path="url(#aZ)"><defs><path id="ba" d="M84.806 82.924h69v31h-69z"/></defs><clipPath id="bb"><use xlink:href="#ba" overflow="visible"/></clipPath><path clip-path="url(#bb)" fill="none" stroke="#422B2C" stroke-width="1.872" stroke-miterlimit="10" d="M141.468 103.69l-49.23-19.284a3.96 3.96 0 1 0-2.893 7.37l49.228 19.282c2.038.797 12.662 3.055 13.46 1.023.8-2.038-8.527-7.59-10.565-8.39z"/></g></g><defs><path id="bc" d="M-136.593 3582h320v-6650h-320"/></defs><defs><path id="bd" d="M-136.593 3582h320v-6650h-320"/></defs><defs><path id="be" d="M-136.593 3582h320v-6650h-320"/></defs><defs><path id="bf" d="M-136.593 3582h320v-6650h-320"/></defs><defs><path id="bg" d="M-136.593 3582h320v-6650h-320"/></defs><defs><path id="bh" d="M-136.593 3582h320v-6650h-320"/></defs><defs><path id="bi" d="M-136.593 3582h320v-6650h-320"/></defs><defs><path id="bj" d="M-136.593 3582h320v-6650h-320"/></defs><defs><path id="bk" d="M-136.593 3582h320v-6650h-320"/></defs><defs><path id="bl" d="M-136.593 3582h320v-6650h-320"/></defs><defs><path id="bm" d="M-136.593 3582h320v-6650h-320"/></defs><defs><path id="bn" d="M-136.593 3582h320v-6650h-320"/></defs><defs><path id="bo" d="M-136.593 3582h320v-6650h-320"/></defs><defs><path id="bp" d="M-136.593 3582h320v-6650h-320"/></defs><defs><path id="bq" d="M-136.593 3582h320v-6650h-320"/></defs><defs><path id="br" d="M-136.593 3582h320v-6650h-320"/></defs><defs><path id="bs" d="M-136.593 3582h320v-6650h-320"/></defs><clipPath id="bt"><use xlink:href="#bs" overflow="visible"/></clipPath><path clip-path="url(#bt)" fill="#5F7332" d="M-109.633 216.393h-11.484"/><defs><path id="bu" d="M-136.593 3582h320v-6650h-320"/></defs><defs><path id="bv" d="M-136.593 3582h320v-6650h-320"/></defs><defs><path id="bw" d="M-136.593 3582h320v-6650h-320"/></defs><defs><path id="bx" d="M-136.593 3582h320v-6650h-320"/></defs><defs><path id="by" d="M243.653 228.283a6.373 6.373 0 0 1-6.375 6.368c-3.52 0-6.376-2.85-6.376-6.367s2.855-6.368 6.376-6.368a6.373 6.373 0 0 1 6.375 6.368"/></defs><clipPath id="bz"><use xlink:href="#by" overflow="visible"/></clipPath><g clip-path="url(#bz)"><defs><path id="bA" d="M-136.593-3068h320v6650h-320z"/></defs><clipPath id="bB"><use xlink:href="#bA" overflow="visible"/></clipPath><path clip-path="url(#bB)" fill="#97723F" d="M225.902 216.915h22.75v22.736h-22.75z"/></g><defs><path id="bC" d="M215.04 233.896a3.378 3.378 0 0 1-3.378 3.376c-1.866 0-3.38-1.512-3.38-3.376s1.514-3.375 3.38-3.375c1.866 0 3.38 1.512 3.38 3.376"/></defs><clipPath id="bD"><use xlink:href="#bC" overflow="visible"/></clipPath><g clip-path="url(#bD)"><defs><path id="bE" d="M-136.593-3068h320v6650h-320z"/></defs><clipPath id="bF"><use xlink:href="#bE" overflow="visible"/></clipPath><path clip-path="url(#bF)" fill="#97723F" d="M203.283 225.52h16.758v16.752h-16.757z"/></g><defs><path id="bG" d="M-136.593 3585h320v-6650h-320"/></defs><clipPath id="bH"><use xlink:href="#bG" overflow="visible"/></clipPath><g clip-path="url(#bH)"><defs><path id="bI" d="M313.922 200.523c5.673 0 10.273 4.593 10.273 10.26"/></defs><defs><path id="bK" d="M324.194 210.783c0 5.667-4.6 10.26-10.273 10.26h-464.855c-5.673 0-10.27-4.593-10.27-10.26s4.597-10.26 10.27-10.26"/></defs><clipPath id="bJ"><use xlink:href="#bI" overflow="visible"/></clipPath><clipPath id="bL" clip-path="url(#bJ)"><use xlink:href="#bK" overflow="visible"/></clipPath><g clip-path="url(#bL)"><defs><path id="bM" d="M-136.593 222h320v-22"/></defs></g></g><defs><path id="bN" d="M-136.593 3586.48h320v-6650h-320"/></defs><clipPath id="bO"><use xlink:href="#bN" overflow="visible"/></clipPath><g clip-path="url(#bO)"><defs><path id="bP" d="M-136.593 223.48h320v-12"/></defs><clipPath id="bQ"><use xlink:href="#bP" overflow="visible"/></clipPath><g clip-path="url(#bQ)"><defs><path id="bR" d="M-161.205 212.263c0 5.667 4.598 10.26 10.27 10.26"/></defs><defs><path id="bT" d="M-150.934 222.523h464.856c5.673 0 10.273-4.593 10.273-10.26"/></defs><clipPath id="bS"><use xlink:href="#bR" overflow="visible"/></clipPath><clipPath id="bU" clip-path="url(#bS)"><use xlink:href="#bT" overflow="visible"/></clipPath><g clip-path="url(#bU)"><defs><path id="bV" d="M-136.593 223.48h320v-12"/></defs></g></g></g><defs><path id="bW" d="M197.95 234.99a1.273 1.273 0 1 1-2.544-.002 1.273 1.273 0 0 1 2.545.003"/></defs><clipPath id="bX"><use xlink:href="#bW" overflow="visible"/></clipPath><g clip-path="url(#bX)"><defs><path id="bY" d="M-136.593-3068h320v6650h-320z"/></defs><clipPath id="bZ"><use xlink:href="#bY" overflow="visible"/></clipPath><path clip-path="url(#bZ)" fill="#97723F" d="M190.407 228.72h12.544v12.542h-12.543z"/></g><defs><path id="ca" d="M216.27 269.28a4.376 4.376 0 0 0 4.377 4.372 4.377 4.377 0 0 0 4.378-4.373 4.375 4.375 0 0 0-4.378-4.374 4.375 4.375 0 0 0-4.378 4.373"/></defs><clipPath id="cb"><use xlink:href="#ca" overflow="visible"/></clipPath><g clip-path="url(#cb)"><defs><path id="cc" d="M-136.593-3068h320v6650h-320z"/></defs><clipPath id="cd"><use xlink:href="#cc" overflow="visible"/></clipPath><path clip-path="url(#cd)" fill="#97723F" d="M211.27 259.906h18.754v18.746H211.27z"/></g><defs><path id="ce" d="M194.797 280.713c0 3.33 2.7 6.025 6.032 6.025a6.027 6.027 0 0 0 6.03-6.025c0-3.327-2.7-6.025-6.03-6.025a6.03 6.03 0 0 0-6.033 6.025"/></defs><clipPath id="cf"><use xlink:href="#ce" overflow="visible"/></clipPath><g clip-path="url(#cf)"><defs><path id="cg" d="M-136.593-3068h320v6650h-320z"/></defs><clipPath id="ch"><use xlink:href="#cg" overflow="visible"/></clipPath><path clip-path="url(#ch)" fill="#694B26" d="M189.797 269.688h22.064v22.05h-22.063z"/></g><defs><path id="ci" d="M189.214 261.182a7.37 7.37 0 0 0 7.373 7.366c4.072 0 7.373-3.298 7.373-7.366s-3.302-7.366-7.373-7.366a7.37 7.37 0 0 0-7.373 7.366"/></defs><clipPath id="cj"><use xlink:href="#ci" overflow="visible"/></clipPath><g clip-path="url(#cj)"><defs><path id="ck" d="M-136.593-3068h320v6650h-320z"/></defs><clipPath id="cl"><use xlink:href="#ck" overflow="visible"/></clipPath><path clip-path="url(#cl)" fill="#97723F" d="M184.214 248.816h24.747v24.732h-24.746z"/></g><g><defs><path id="cm" d="M229.61 270.84a3.377 3.377 0 0 0 3.38 3.375c1.866 0 3.38-1.51 3.38-3.375s-1.514-3.376-3.38-3.376a3.378 3.378 0 0 0-3.38 3.376"/></defs><clipPath id="cn"><use xlink:href="#cm" overflow="visible"/></clipPath><g clip-path="url(#cn)"><defs><path id="co" d="M-136.593-3068h320v6650h-320z"/></defs><clipPath id="cp"><use xlink:href="#co" overflow="visible"/></clipPath><path clip-path="url(#cp)" fill="#97723F" d="M224.61 262.464h16.76v16.75h-16.76z"/></g></g><g><defs><path id="cq" d="M232.748 269.602a1.27 1.27 0 1 0 2.543 0 1.27 1.27 0 0 0-2.542 0"/></defs><clipPath id="cr"><use xlink:href="#cq" overflow="visible"/></clipPath><g clip-path="url(#cr)"><defs><path id="cs" d="M-136.593-3068h320v6650h-320z"/></defs><clipPath id="ct"><use xlink:href="#cs" overflow="visible"/></clipPath><path clip-path="url(#ct)" fill="#694B26" d="M227.748 263.33h12.544v12.544h-12.544z"/></g></g><g><defs><path id="cu" d="M210.266 272.14a1.272 1.272 0 1 0 2.544 0 1.272 1.272 0 0 0-2.544 0"/></defs><clipPath id="cv"><use xlink:href="#cu" overflow="visible"/></clipPath><g clip-path="url(#cv)"><defs><path id="cw" d="M-136.593-3068h320v6650h-320z"/></defs><clipPath id="cx"><use xlink:href="#cw" overflow="visible"/></clipPath><path clip-path="url(#cx)" fill="#97723F" d="M205.266 265.868h12.545v12.543h-12.544z"/></g></g><g><defs><path id="cy" d="M197.893 267.704c0 .702.57 1.27 1.272 1.27a1.27 1.27 0 1 0 0-2.54 1.27 1.27 0 0 0-1.272 1.27"/></defs><clipPath id="cz"><use xlink:href="#cy" overflow="visible"/></clipPath><g clip-path="url(#cz)"><defs><path id="cA" d="M-136.593-3068h320v6650h-320z"/></defs><clipPath id="cB"><use xlink:href="#cA" overflow="visible"/></clipPath><path clip-path="url(#cB)" fill="#97723F" d="M192.893 261.433h12.544v12.54h-12.544z"/></g></g><g><defs><path id="cC" d="M192.33 314.282a4.376 4.376 0 0 0 4.38 4.373 4.377 4.377 0 0 0 4.377-4.373 4.375 4.375 0 0 0-4.378-4.373 4.374 4.374 0 0 0-4.38 4.372"/></defs><clipPath id="cD"><use xlink:href="#cC" overflow="visible"/></clipPath><g clip-path="url(#cD)"><defs><path id="cE" d="M-136.593-3068h320v6650h-320z"/></defs><clipPath id="cF"><use xlink:href="#cE" overflow="visible"/></clipPath><path clip-path="url(#cF)" fill="#97723F" d="M187.33 304.91h18.756v18.745H187.33z"/></g></g><g><defs><path id="cG" d="M205.672 315.842a3.378 3.378 0 0 0 3.38 3.376c1.865 0 3.378-1.512 3.378-3.376s-1.513-3.375-3.38-3.375a3.377 3.377 0 0 0-3.378 3.375"/></defs><clipPath id="cH"><use xlink:href="#cG" overflow="visible"/></clipPath><g clip-path="url(#cH)"><defs><path id="cI" d="M-136.593-3068h320v6650h-320z"/></defs><clipPath id="cJ"><use xlink:href="#cI" overflow="visible"/></clipPath><path clip-path="url(#cJ)" fill="#97723F" d="M200.672 307.467h16.758v16.75h-16.758z"/></g></g><g><defs><path id="cK" d="M208.81 314.605a1.27 1.27 0 1 0 1.272-1.272c-.704 0-1.273.57-1.273 1.272"/></defs><clipPath id="cL"><use xlink:href="#cK" overflow="visible"/></clipPath><g clip-path="url(#cL)"><defs><path id="cM" d="M-136.593-3068h320v6650h-320z"/></defs><clipPath id="cN"><use xlink:href="#cM" overflow="visible"/></clipPath><path clip-path="url(#cN)" fill="#694B26" d="M203.81 308.333h12.543v12.543H203.81z"/></g></g><g><defs><path id="cO" d="M186.327 317.142a1.272 1.272 0 1 0 2.545-.003 1.272 1.272 0 0 0-2.545.002"/></defs><clipPath id="cP"><use xlink:href="#cO" overflow="visible"/></clipPath><g clip-path="url(#cP)"><defs><path id="cQ" d="M-136.593-3068h320v6650h-320z"/></defs><clipPath id="cR"><use xlink:href="#cQ" overflow="visible"/></clipPath><path clip-path="url(#cR)" fill="#97723F" d="M181.327 310.87h12.545v12.543h-12.545z"/></g></g><g><defs><path id="cS" d="M-136.593 3582h320v-6650h-320"/></defs><clipPath id="cT"><use xlink:href="#cS" overflow="visible"/></clipPath><g clip-path="url(#cT)"><defs><path id="cU" d="M183.407 208v-26"/></defs><clipPath id="cV"><use xlink:href="#cU" overflow="visible"/></clipPath><g clip-path="url(#cV)"><defs><path id="cW" d="M183.407 208v-26"/></defs></g></g></g><g><defs><path id="cX" d="M93.263-3096.9h320v6650h-320z"/></defs></g><g><defs><path id="cY" d="M93.263-3096.9h320v6650h-320z"/></defs></g><g><defs><path id="cZ" d="M93.263-3096.9h320v6650h-320z"/></defs></g><g><defs><path id="da" d="M93.263-3096.9h320v6650h-320z"/></defs></g><g><defs><path id="db" d="M93.263-3096.9h320v6650h-320z"/></defs></g><g><defs><path id="dc" d="M93.263-3096.9h320v6650h-320z"/></defs></g><g><defs><path id="dd" d="M93.263-3096.9h320v6650h-320z"/></defs></g><g><defs><path id="de" d="M93.263-3096.9h320v6650h-320z"/></defs></g><g><defs><path id="df" d="M93.263-3096.9h320v6650h-320z"/></defs></g><g><defs><path id="dg" d="M93.263-3096.9h320v6650h-320z"/></defs></g><g><defs><path id="dh" d="M93.263-3096.9h320v6650h-320z"/></defs></g><g><defs><path id="di" d="M93.263-3096.9h320v6650h-320z"/></defs></g><g><defs><path id="dj" d="M93.263-3096.9h320v6650h-320z"/></defs></g><g><defs><path id="dk" d="M93.263-3096.9h320v6650h-320z"/></defs></g><g><defs><path id="dl" d="M93.263-3096.9h320v6650h-320z"/></defs></g><g><defs><path id="dm" d="M93.263-3096.9h320v6650h-320z"/></defs></g><g><defs><path id="dn" d="M93.263-3096.9h320v6650h-320z"/></defs></g><g><defs><path id="do" d="M93.263-3096.9h320v6650h-320z"/></defs></g></svg>