<svg xmlns="http://www.w3.org/2000/svg" width="86.451" height="86.451" viewBox="0 0 86.451 86.451"><ellipse fill="#AD783E" cx="43.226" cy="43.197" rx="43.226" ry="43.197"/><path fill="#FFF" d="M49.046 14.055c-14.267 3.118-14.087 13.9-14.087 13.9v13.979H26.46V55.22h8.497l-.06 30.606c2.677.518 5.438.625 8.266.625 3.122 0 6.163-.165 9.098-.793l.06-30.437h12.914l1.258-13.285H52.323V33.9c0-10.658 14.52-5.418 14.52-5.418l1.95-13.458s-9.74-3.15-19.747-.97z"/><path fill="#F0F1F1" d="M60.305 27.208c3.374.134 6.538 1.274 6.538 1.274l1.307-9.016-7.845 7.742z"/></svg>