<svg xmlns="http://www.w3.org/2000/svg" width="86.451" height="86.451" viewBox="0 0 86.451 86.451"><circle fill="#AD783E" cx="43.226" cy="42.749" r="43.226"/><path fill="#FFF" d="M57.988 20.113H38.16c-5.19 0-11.73.764-17.232 5.23-4.118 3.515-6.16 8.374-6.16 12.747 0 7.416 5.78 14.932 15.987 14.932.97 0 2.007-.1 3.08-.203-.484 1.126-.97 2.08-.97 3.688 0 2.97 1.558 4.78 2.907 6.49-4.36.273-12.422.754-18.41 4.377-2.564 1.5-4.32 3.312-5.477 5.166a43.432 43.432 0 0 0 6.646 5.712 9.753 9.753 0 0 1-.09-1.277c0-6.768 6.158-9.057 8.27-9.807 4.047-1.33 9.237-1.504 10.103-1.504.968 0 1.453 0 2.214.07 7.336 5.158 10.485 7.72 10.485 12.572 0 3.107-1.366 5.79-4.017 7.635a43.268 43.268 0 0 0 5.928-.728c3.016-3.107 4.56-6.875 4.56-10.63 0-6.562-3.84-9.808-8.1-13.294l-3.458-2.664c-1.076-.854-2.493-2.018-2.493-4.102 0-2.082 1.417-3.416 2.698-4.648 4.014-3.14 8.063-6.455 8.063-13.494 0-7.234-4.604-11.04-6.816-12.846h5.95l6.16-3.42zm-16.16 27.58c-1.555 1.502-4.15 2.664-6.54 2.664-8.304 0-12.04-10.557-12.04-16.947 0-2.46.484-5.02 2.11-7.018 1.556-1.904 4.254-3.14 6.747-3.14 7.994 0 12.11 10.636 12.11 17.503 0 1.71-.17 4.75-2.387 6.938zM85.337 33.016c-.063-.275-.122-.553-.19-.826-.108-.43-.23-.855-.35-1.28-.068-.237-.13-.476-.202-.71-.052-.17-.11-.338-.166-.506h-7.535v-9.58h-4.36v9.58h-9.3v4.13h9.3v9.667h4.36v-9.667h8.622l-.18-.807z"/></svg>