<svg xmlns="http://www.w3.org/2000/svg" width="86.451" height="86.451" viewBox="0 0 86.451 86.451"><circle fill="#AD783E" cx="43.225" cy="43.226" r="43.226"/><path fill-rule="evenodd" clip-rule="evenodd" fill="#FFF" d="M56.305 25.294h1.808c.078.073.156.094.233 0h.292c-.007.156.125.097.19.11.305.057.618.094.918.16a11.822 11.822 0 0 1 6.03 3.275c.112.114.21.186.396.146a24.137 24.137 0 0 0 5.776-1.977c.527-.256 1.038-.534 1.61-.83a11.89 11.89 0 0 1-2 3.69c-.883 1.104-1.943 2.02-3.138 2.787 2.32-.264 4.532-.87 6.746-1.815-.125.182-.192.283-.265.39a23.85 23.85 0 0 1-5.487 5.562c-.16.116-.213.238-.21.426.01.73.038 1.46.017 2.186-.05 1.92-.282 3.81-.676 5.684a35.076 35.076 0 0 1-4.063 10.548 33.82 33.82 0 0 1-6.945 8.422 31.93 31.93 0 0 1-8.462 5.32 33.285 33.285 0 0 1-8.02 2.282 32.63 32.63 0 0 1-3.123.354c-.083.006-.226-.062-.256.103h-.466c-.116-.09-.235-.075-.352 0h-3.27c-.078-.075-.155-.095-.233 0h-.585c.004-.01.013-.018.018-.023s.012-.022.012-.022c-.092-.07-.204-.058-.307-.065a33.71 33.71 0 0 1-5.85-.96 34.24 34.24 0 0 1-8.696-3.562c-.35-.2-.69-.422-1.108-.675 6.588.655 12.437-.957 17.7-4.876-6.186-.248-10.036-4.5-11.146-8.225 1.77.304 3.517.264 5.255-.21-2.765-.633-5.064-2.013-6.84-4.195-1.784-2.19-2.632-4.7-2.64-7.557.856.47 1.703.815 2.59 1.056.896.248 1.804.398 2.787.424-6.27-4.37-6.187-11.826-3.626-15.743a34.055 34.055 0 0 0 9.592 8c4.612 2.573 9.567 4.002 14.854 4.31.155.013.202-.013.16-.186a9.522 9.522 0 0 1-.25-1.765c-.133-2.563.45-4.953 1.88-7.104 2.013-3.027 4.847-4.818 8.49-5.34.065-.01.197.048.194-.105h.292c.06.072.117.072.177 0z"/></svg>