<?xml version="1.0" encoding="utf-8"?>
<!-- Generator: Adobe Illustrator 19.1.0, SVG Export Plug-In . SVG Version: 6.00 Build 0)  -->
<svg version="1.1" id="Capa_1" xmlns="http://www.w3.org/2000/svg" xmlns:xlink="http://www.w3.org/1999/xlink" x="0px" y="0px"
	 viewBox="0 0 280.3 200" style="enable-background:new 0 0 280.3 200;" xml:space="preserve">
<style type="text/css">
	.st0{fill:#FFFFFF;}
	.st1{opacity:0.3;}
	.st2{fill:#472728;}
	.st3{fill:#3D6D74;}
	.st4{opacity:0.5;clip-path:url(#SVGID_2_);}
	.st5{opacity:0.75;clip-path:url(#SVGID_4_);}
	.st6{clip-path:url(#SVGID_6_);}
	.st7{clip-path:url(#SVGID_4_);}
	.st8{fill:#ACD2E2;}
	.st9{clip-path:url(#SVGID_10_);}
	.st10{opacity:0.75;clip-path:url(#SVGID_12_);}
	.st11{clip-path:url(#SVGID_14_);}
	.st12{clip-path:url(#SVGID_12_);}
	.st13{opacity:0.75;clip-path:url(#SVGID_18_);}
	.st14{clip-path:url(#SVGID_20_);}
	.st15{clip-path:url(#SVGID_18_);}
	.st16{opacity:0.75;clip-path:url(#SVGID_24_);}
	.st17{clip-path:url(#SVGID_26_);}
	.st18{clip-path:url(#SVGID_24_);}
	.st19{fill:none;}
	.st20{fill:#75B5C6;}
	.st21{fill:#66A5B6;}
	.st22{fill:#EFCE36;}
	.st23{fill:#8CB2C1;}
	.st24{opacity:0.75;}
	.st25{fill:#C845D8;}
	.st26{fill:#AA00B7;}
	.st27{fill:#734A1E;}
</style>
<g>
	<path class="st0" d="M140,200c45.6,0,82.4-37.2,82.4-82.8v-0.2c0-45.6-36.8-82.6-82.4-82.6c-45.6,0-82.6,37-82.6,82.7v0.1
		C57.4,162.7,94.4,200,140,200z"/>
	<path class="st1" d="M189.1,50.4c0,0-11.3-29.2-51.7-26.9l22.4,9.6L189.1,50.4z"/>
	<path class="st1" d="M219,94.4c-0.9-1.3,1.1-2.8,1.6-4.1c2.9-8.1,3.4-14.3,3.4-14.4l0-0.2l0-0.2c0.5-1.9,2.4-3.2,4.3-3l0-0.1v0
		c0-0.2,0.3,0.1,0.4,0.2c0.1,0,0.4,0.2,0.5,0.2c1.3,0.4,2.3,1.3,2.7,2.7c0.1,0.3,0.1,0.7,0.2,1l0.5-1.8c0.1-0.2,0.1-0.4,0.2-0.6
		c0,0,0-0.1,0-0.1c0.1-0.2,0.2-0.4,0.3-0.5l0.1-0.1c0.1-0.2,0.3-0.3,0.4-0.4c0,0,0.1,0,0.1-0.1c0.2-0.1,0.3-0.3,0.5-0.4l0.1,0
		c0.2-0.1,0.3-0.2,0.5-0.3c0,0,0,0,0.1,0c0.2-0.1,0.4-0.1,0.6-0.2c0.1,0,0.1,0,0.1,0c0.1,0,0.3,0,0.4,0c0,0,0.1,0,0.1,0l0.1,0l1.3,0
		l0.1,0c1.1,0.3,1.9,1,2.5,2c0.5,1,0.7,2.1,0.4,3.1l-0.6,2c0.9-1.2,2.3-1.8,3.7-1.6c0.6,0.1,1.3,0.3,1.8,0.6
		c0.3,0.2,0.6,0.5,0.9,0.8c1.1,1.3,1.3,3.1,0.5,4.6c0,0.1-0.1,0.1-0.1,0.2c-0.5,1.4-4.4,12.6-13,24.6c-3.4,4.7-7.1,8.9-11,12.7
		C222.8,120.7,223.2,100.6,219,94.4z"/>
	<g>
		<g>
			<path class="st2" d="M185.8,116.8c0,0-6.3,2.6-9.4,3.1l-5.2,15.8l6.8-0.8l4.2-0.6l2.1-0.4L185.8,116.8z"/>
			<g>
				<path class="st2" d="M232.8,62.9L232.8,62.9c-0.1,0-0.2,0-0.2,0c-0.1,0-0.3,0-0.4,0.1c0,0-0.1,0-0.2,0c-0.2,0.1-0.4,0.1-0.6,0.2
					c0,0-0.1,0-0.1,0c-0.2,0.1-0.4,0.2-0.5,0.3l-0.1,0c-0.2,0.1-0.4,0.3-0.5,0.4c0,0-0.1,0.1-0.1,0.1c-0.1,0.1-0.3,0.3-0.4,0.5
					l-0.1,0.1c-0.1,0.2-0.2,0.4-0.3,0.6c0,0,0,0.1,0,0.1c-0.1,0.2-0.2,0.4-0.2,0.7l-0.6,1.9c0-0.4-0.1-0.7-0.2-1.1
					c-0.4-1.5-1.5-2.5-2.9-2.9c-0.1,0-0.6-0.2-0.7-0.2c-0.1,0-0.1-0.3-0.6-0.2v0l0.2,0.1c-2.1-0.2-3.9,1.2-4.4,3.2l0,0.2l0,0.2
					c0,0.1-0.6,6.7-3.6,15.3c-2.8,7.9-8.2,18.9-18.5,27.1c-3.8,3-8,5.5-12.6,7.3l-2.6,17c10.2-2,19.8-6.2,28.4-12.6
					c7.2-5.3,13.7-12,19.5-19.9c9.3-12.8,13.4-24.7,13.9-26.3c0-0.1,0.1-0.1,0.1-0.2c0.8-1.6,0.6-3.5-0.6-4.9
					c-0.3-0.3-0.6-0.6-1-0.8c-0.6-0.4-1.3-0.6-2-0.7c-1.6-0.2-3,0.5-4,1.8l0.6-2.1c0.3-1.1,0.2-2.3-0.4-3.4c-0.6-1-1.5-1.8-2.6-2.1
					l-0.1,0L232.8,62.9z"/>
				<g>
					<g>
						<path class="st3" d="M176.6,121.5l-3.4,12.1c51.4-3.7,69.2-58.9,69.2-58.9c0.8-1.2,0.4-2.8-0.8-3.6c-1.2-0.8-2.8-0.4-3.6,0.8
							l-2.6,4.1l-0.3,0.5c-0.2,0.2-0.6,0.3-0.9,0.2c-0.5-0.1-0.8-0.7-0.7-1.2l2.1-7.4c0.4-1.4-0.4-2.8-1.8-3.2
							c-1.4-0.4-2.8,0.4-3.2,1.8l-2.1,7.4l0,0c0,0,0,0,0,0.1c-0.2,0.6-0.7,0.9-1.3,0.7c-0.5-0.1-0.8-0.6-0.8-1.1l0.1-4.6
							c0.2-1.5-0.4-2.8-1.8-3.2c-1.4-0.4-2.8,0.4-3.2,1.8C221.3,67.6,217.6,112.4,176.6,121.5"/>
					</g>
					<g>
						<defs>
							<path id="SVGID_1_" d="M230.4,66.6l-2.1,7.4l0,0c0,0,0,0,0,0.1c-0.2,0.6-0.7,0.9-1.3,0.7c-0.5-0.1-0.8-0.6-0.8-1.1l0.1-4.6
								c0.2-1.5-0.4-2.8-1.8-3.2c-1.4-0.4-2.8,0.4-3.2,1.8c0,0-3.7,44.8-44.7,54l-3.4,12.1c51.4-3.7,69.2-58.9,69.2-58.9
								c0.8-1.2,0.4-2.8-0.8-3.6c-1.2-0.8-2.8-0.4-3.6,0.8l-2.6,4.1l-0.3,0.5c-0.2,0.2-0.6,0.3-0.9,0.2c-0.5-0.2-0.8-0.7-0.7-1.2
								l2.1-7.4c0.4-1.4-0.4-2.8-1.8-3.2c-0.2,0-0.3-0.1-0.5-0.1C232,64.6,230.8,65.3,230.4,66.6"/>
						</defs>
						<clipPath id="SVGID_2_">
							<use xlink:href="#SVGID_1_"  style="overflow:visible;"/>
						</clipPath>
						<g class="st4">
							<g>
								<defs>
									
										<rect id="SVGID_3_" x="207.3" y="75.1" transform="matrix(-0.9953 -9.691358e-02 9.691358e-02 -0.9953 443.9316 197.7756)" width="38.8" height="26.1"/>
								</defs>
								<clipPath id="SVGID_4_">
									<use xlink:href="#SVGID_3_"  style="overflow:visible;"/>
								</clipPath>
								<g class="st5">
									<g>
										<defs>
											
												<rect id="SVGID_5_" x="207.3" y="75.1" transform="matrix(-0.9953 -9.691358e-02 9.691358e-02 -0.9953 443.9316 197.7756)" width="38.8" height="26.1"/>
										</defs>
										<clipPath id="SVGID_6_">
											<use xlink:href="#SVGID_5_"  style="overflow:visible;"/>
										</clipPath>
										<g class="st6">
											<defs>
												
													<rect id="SVGID_7_" x="207.3" y="75.1" transform="matrix(-0.9953 -9.691358e-02 9.691358e-02 -0.9953 443.9324 197.7756)" width="38.8" height="26.1"/>
											</defs>
											<clipPath id="SVGID_8_">
												<use xlink:href="#SVGID_7_"  style="overflow:visible;"/>
											</clipPath>
											<g transform="matrix(1 7.450581e-09 -7.450581e-09 1 0 0)" style="clip-path:url(#SVGID_8_);">
												
													<image style="overflow:visible;" width="131" height="88" xlink:href="71156D3282DB7702.png"  transform="matrix(0.2951 2.873692e-02 -2.873692e-02 0.2951 208.7044 73.2381)">
												</image>
											</g>
										</g>
									</g>
								</g>
								<g class="st7">
									
										<rect x="213.1" y="83.8" transform="matrix(-0.9279 -0.3728 0.3728 -0.9279 403.8992 253.2136)" class="st8" width="26.7" height="7.6"/>
								</g>
							</g>
						</g>
						<g class="st4">
							<g>
								<defs>
									
										<rect id="SVGID_9_" x="178.4" y="115.3" transform="matrix(-0.9953 -9.686199e-02 9.686199e-02 -0.9953 363.8636 274.9993)" width="20.5" height="26.7"/>
								</defs>
								<clipPath id="SVGID_10_">
									<use xlink:href="#SVGID_9_"  style="overflow:visible;"/>
								</clipPath>
								<g class="st9">
									
										<rect x="175.2" y="124.9" transform="matrix(-0.4402 -0.8979 0.8979 -0.4402 156.0879 354.6543)" class="st8" width="26.7" height="7.6"/>
								</g>
							</g>
						</g>
						<g class="st4">
							<g>
								<defs>
									
										<rect id="SVGID_11_" x="181.1" y="100.1" transform="matrix(-0.9953 -9.695791e-02 9.695791e-02 -0.9953 395.5015 266.2148)" width="46.3" height="46.9"/>
								</defs>
								<clipPath id="SVGID_12_">
									<use xlink:href="#SVGID_11_"  style="overflow:visible;"/>
								</clipPath>
								<g class="st10">
									<g>
										<defs>
											
												<rect id="SVGID_13_" x="181.1" y="100.1" transform="matrix(-0.9953 -9.695791e-02 9.695791e-02 -0.9953 395.5015 266.2148)" width="46.3" height="46.9"/>
										</defs>
										<clipPath id="SVGID_14_">
											<use xlink:href="#SVGID_13_"  style="overflow:visible;"/>
										</clipPath>
										<g class="st11">
											<defs>
												
													<rect id="SVGID_15_" x="181.1" y="100.1" transform="matrix(-0.9953 -9.695791e-02 9.695791e-02 -0.9953 395.5015 266.2148)" width="46.3" height="46.9"/>
											</defs>
											<clipPath id="SVGID_16_">
												<use xlink:href="#SVGID_15_"  style="overflow:visible;"/>
											</clipPath>
											<g transform="matrix(1 7.450581e-09 -7.450581e-09 1 -1.525879e-05 0)" style="clip-path:url(#SVGID_16_);">
												
													<image style="overflow:visible;" width="156" height="158" xlink:href="71156D3282DB7705.png"  transform="matrix(0.2951 2.873692e-02 -2.873692e-02 0.2951 183.4692 97.9424)">
												</image>
											</g>
										</g>
									</g>
								</g>
								<g class="st12">
									
										<rect x="189.1" y="117.6" transform="matrix(-0.6172 -0.7868 0.7868 -0.6172 231.9017 355.5343)" class="st8" width="26.7" height="7.6"/>
								</g>
							</g>
						</g>
						<g class="st4">
							<g>
								<defs>
									
										<rect id="SVGID_17_" x="191" y="91.5" transform="matrix(-0.9953 -9.691970e-02 9.691970e-02 -0.9953 418.6829 246.9815)" width="48.6" height="43.6"/>
								</defs>
								<clipPath id="SVGID_18_">
									<use xlink:href="#SVGID_17_"  style="overflow:visible;"/>
								</clipPath>
								<g class="st13">
									<g>
										<defs>
											
												<rect id="SVGID_19_" x="191" y="91.5" transform="matrix(-0.9953 -9.691970e-02 9.691970e-02 -0.9953 418.6829 246.9815)" width="48.6" height="43.6"/>
										</defs>
										<clipPath id="SVGID_20_">
											<use xlink:href="#SVGID_19_"  style="overflow:visible;"/>
										</clipPath>
										<g class="st14">
											<defs>
												
													<rect id="SVGID_21_" x="191" y="91.5" transform="matrix(-0.9953 -9.691970e-02 9.691970e-02 -0.9953 418.6829 246.9815)" width="48.6" height="43.6"/>
											</defs>
											<clipPath id="SVGID_22_">
												<use xlink:href="#SVGID_21_"  style="overflow:visible;"/>
											</clipPath>
											<g transform="matrix(1 7.450581e-09 -7.450581e-09 1 0 -7.629395e-06)" style="clip-path:url(#SVGID_22_);">
												
													<image style="overflow:visible;" width="164" height="147" xlink:href="71156D3282DB7704.png"  transform="matrix(0.2951 2.873692e-02 -2.873692e-02 0.2951 193.252 89.274)">
												</image>
											</g>
										</g>
									</g>
								</g>
								<g class="st15">
									
										<rect x="200.2" y="107.4" transform="matrix(-0.7673 -0.6413 0.6413 -0.7673 306.1393 333.4772)" class="st8" width="26.7" height="7.6"/>
								</g>
							</g>
						</g>
						<g class="st4">
							<g>
								<defs>
									
										<rect id="SVGID_23_" x="202.2" y="85.9" transform="matrix(-0.9953 -9.689590e-02 9.689590e-02 -0.9953 432.4929 221.3501)" width="38.8" height="28.5"/>
								</defs>
								<clipPath id="SVGID_24_">
									<use xlink:href="#SVGID_23_"  style="overflow:visible;"/>
								</clipPath>
								<g class="st16">
									<g>
										<defs>
											
												<rect id="SVGID_25_" x="202.2" y="85.9" transform="matrix(-0.9953 -9.689590e-02 9.689590e-02 -0.9953 432.4929 221.3501)" width="38.8" height="28.5"/>
										</defs>
										<clipPath id="SVGID_26_">
											<use xlink:href="#SVGID_25_"  style="overflow:visible;"/>
										</clipPath>
										<g class="st17">
											<defs>
												
													<rect id="SVGID_27_" x="202.2" y="85.9" transform="matrix(-0.9953 -9.689713e-02 9.689713e-02 -0.9953 432.4933 221.3504)" width="38.8" height="28.5"/>
											</defs>
											<clipPath id="SVGID_28_">
												<use xlink:href="#SVGID_27_"  style="overflow:visible;"/>
											</clipPath>
											<g transform="matrix(1 7.450581e-09 -7.450581e-09 1 -1.525879e-05 0)" style="clip-path:url(#SVGID_28_);">
												
													<image style="overflow:visible;" width="131" height="96" xlink:href="71156D3282DB770B.png"  transform="matrix(0.2951 2.873692e-02 -2.873692e-02 0.2951 203.6715 84.1256)">
												</image>
											</g>
										</g>
									</g>
								</g>
								<g class="st18">
									
										<rect x="207.8" y="95.8" transform="matrix(-0.8839 -0.4677 0.4677 -0.8839 370.1101 291.1263)" class="st8" width="26.7" height="7.6"/>
								</g>
							</g>
						</g>
					</g>
				</g>
			</g>
		</g>
		<path class="st19" d="M97.5,165.5l-0.8-14.6c-0.2,0.5-0.4,1-0.6,1.5c-4.4,12.3-3.2,24.6-1.4,32.8c0.1,0.5,0.2,1,0.4,1.6
			c2.8,1.8,5.8,3.5,8.8,5C99.7,184.2,97.5,175.1,97.5,165.5z"/>
		<path class="st2" d="M95.1,124.7l-0.4,0.4l0,0C94.9,125,95,124.8,95.1,124.7L95.1,124.7z"/>
		<path class="st2" d="M89,134.5c-1.1,1.5-2.1,3-3,4.5v0C86.9,137.4,87.9,135.9,89,134.5z"/>
		<path class="st2" d="M81.6,147.6L81.6,147.6c-1.3,2.6-2.1,5.2-2.9,7.8l0,0C79.5,152.8,80.3,150.1,81.6,147.6z"/>
		<path class="st2" d="M96.1,152.4c0.2-0.5,0.4-1,0.6-1.5l-0.2-3.8c-6.5,13.8-5.6,28.1-3.4,38.4c0.6,0.4,1.3,0.9,1.9,1.3
			c-0.1-0.5-0.2-1-0.4-1.6C92.9,177.1,91.7,164.8,96.1,152.4z"/>
		<path class="st2" d="M86,139L86,139c-0.4,0.6-0.7,1.2-1.1,1.8h0C85.2,140.1,85.6,139.5,86,139z"/>
		<path class="st2" d="M76.5,163L76.5,163c-0.5,2-0.1,4-0.1,6.1c0,0,0,0,0,0C76.4,167,76,165,76.5,163z"/>
		<path class="st2" d="M76.5,162.7c0.3-1.2,0.7-2.5,0.9-3.7c0,0,0,0,0,0c0.3-1.2,0.7-2.4,1.1-3.7c0.8-2.6,1.8-5.2,2.9-7.8
			c1-2.3,2.2-4.6,3.4-6.8c0.3-0.6,0.7-1.2,1.1-1.8c0.9-1.5,1.9-3,3-4.5c1.9-2.6,4-5,6.3-7.4l-0.1-1l-0.5-0.9
			c-6.9,6.8-12.3,15-16.1,24.3c-2.2,5.5-3.9,11.5-4.9,17.8c0.5,0.7,1.1,1.4,1.6,2C75.7,167,76.1,164.9,76.5,162.7z"/>
		<path class="st2" d="M95.1,124.7c-0.1,0.1-0.3,0.3-0.4,0.4l0.5,0.9L95.1,124.7z"/>
		<path class="st3" d="M96.4,147.1L96.4,147.1c-1,1.7-1.5,3.4-2.1,5.2c-0.3,0.9-0.9,1.9-0.9,2.8c0,0,0,0,0,0c-1,0.8-0.4,1.5-0.6,2.3
			c-0.6,2.5-1,5-1.2,7.5c0,0.5-0.1,0.9-0.1,1.4c0,0.4,0,0.7-0.1,1.1c0,0.6,0,1.1-0.1,1.6c-0.1,2.6,0,5.2,0.3,7.6c0,0.1,0,0.2,0,0.3
			c0.1,1.4,0.3,2.9,0.5,4.2c0.1,0.7,0.2,1.5,0.4,2.2c0.1,0.8,0.3,1.5,0.5,2.2c0,0,0,0,0,0C90.8,175.2,89.4,160.9,96.4,147.1z"/>
		<path class="st3" d="M83.4,156l9.4,1.3c0.2-0.8,0.4-1.5,0.6-2.3l-1.6-3.2L83.4,156z"/>
		<polygon class="st3" points="83.4,156 83.4,156 91.8,151.9 93.4,155.1 93.4,155.1 91.8,151.9 		"/>
		<polygon class="st3" points="95.7,137.3 95.9,137.8 95.9,137.4 		"/>
		<path class="st3" d="M95.3,127c-0.2,0.2-0.4,0.4-0.6,0.7l0.7,0.4L95.3,127z"/>
		<path class="st3" d="M92.2,130.4c0.8-0.9,1.6-1.8,2.4-2.7c0.2-0.2,0.4-0.4,0.6-0.7v0c-2.3,2.4-4.4,4.9-6.3,7.4
			c0.2-0.3,0.5-0.6,0.7-0.9C90.5,132.5,91.3,131.4,92.2,130.4z"/>
		<path class="st3" d="M78.5,155.4l4.9,0.7l8.4-4.2l1.6,3.2c0.3-0.9,0.6-1.9,0.9-2.8l-12.9-4.7C80.3,150.1,79.3,152.8,78.5,155.4z"
			/>
		<path class="st3" d="M86,139c-0.4,0.6-0.7,1.2-1.1,1.8l2.4,0.9L86,139z"/>
		<path class="st3" d="M87.3,141.6l9,3.3l-0.4-7.1l-0.2-0.5l-6-3.8c-0.2,0.3-0.5,0.6-0.7,0.9c-1.1,1.5-2.1,3-3,4.5L87.3,141.6z"/>
		<path class="st3" d="M87.6,169.3l3.9-1.9c0-0.4,0-0.7,0.1-1.1l-6.4,3.2L87.6,169.3z"/>
		<path class="st3" d="M91.4,169c0-0.5,0-1.1,0.1-1.6l-3.9,1.9L91.4,169z"/>
		<path class="st3" d="M75.4,169.1c0.3,0.3,0.5,0.6,0.8,0.9l9-0.6l6.4-3.2c0-0.5,0.1-0.9,0.1-1.4l-15.1-2.1
			C76.1,164.9,75.7,167,75.4,169.1z"/>
		<path class="st3" d="M85.7,179.8l6-2.9c0-0.1,0-0.2,0-0.3l-8.8,0.6C83.8,178.1,84.7,179,85.7,179.8z"/>
		<path class="st3" d="M88.1,181.8l4.1-0.7c-0.2-1.4-0.4-2.8-0.5-4.2l-6,2.9C86.5,180.5,87.3,181.2,88.1,181.8z"/>
		<path class="st8" d="M93.1,185.5c-0.2-0.7-0.3-1.5-0.5-2.2L91,184C91.7,184.5,92.4,185,93.1,185.5z"/>
		<path class="st8" d="M91,184l1.6-0.8c-0.1-0.7-0.3-1.4-0.4-2.2l-4.1,0.7C89.1,182.6,90,183.3,91,184z"/>
		<path class="st8" d="M89.7,133.5l6,3.8l-3.4-6.9C91.3,131.4,90.5,132.5,89.7,133.5z"/>
		<path class="st8" d="M95.3,128.1l-0.7-0.4c-0.8,0.9-1.6,1.8-2.4,2.7l3.4,6.9l0.2,0.1L95.3,128.1z"/>
		<path class="st8" d="M84.9,141L84.9,141c-1.3,2-2.6,4.3-3.6,6.6v0C82.4,145.3,83.6,143,84.9,141z"/>
		<polygon class="st8" points="96.3,145.3 96.3,144.9 87.3,141.6 90.5,148.1 		"/>
		<path class="st8" d="M96.3,145.3l-5.8,2.9l-3.2-6.5l-2.4-0.9c-1.3,2.2-2.4,4.5-3.5,6.8l12.9,4.7c0.6-1.7,1.3-3.4,2.1-5.2
			L96.3,145.3L96.3,145.3z"/>
		<rect x="77.4" y="159" class="st8" width="0" height="0"/>
		<path class="st8" d="M78.5,155.3L78.5,155.3c-0.4,1.2-0.7,2.4-1.1,3.7h0C77.8,157.7,78.1,156.6,78.5,155.3z"/>
		<path class="st8" d="M78.4,159L78.4,159c-1,1.2-1.5,3-1.8,4h0C76.9,162,77.4,160.2,78.4,159z"/>
		<path class="st8" d="M77.4,159c-0.3,1.2-0.6,2.5-0.9,3.7l15.1,2.1c0.2-2.5,0.6-5,1.2-7.5l-9.4-1.3L77.4,159z"/>
		
			<rect x="77.1" y="157.5" transform="matrix(0.8966 -0.4429 0.4429 0.8966 -61.4314 51.9121)" class="st8" width="6.7" height="0"/>
		<path class="st8" d="M78.5,155.4c-0.4,1.2-0.7,2.4-1.1,3.7l6-3L78.5,155.4z"/>
		<path class="st8" d="M85.1,169.4l-9,0.6c0.8,0.9,1.5,1.8,2.3,2.7L85.1,169.4z"/>
		<path class="st8" d="M79.1,173.5l8.5-4.2l-2.5,0.2l-6.7,3.3C78.7,173,78.9,173.2,79.1,173.5z"/>
		<path class="st8" d="M79.1,173.5c1.2,1.3,2.4,2.5,3.7,3.7l8.8-0.6c-0.2-2.4-0.3-5-0.3-7.6l-3.8,0.3L79.1,173.5z"/>
		<path class="st2" d="M99.5,164.8l-1-18c-0.7,1.3-1.3,2.7-1.8,4.1l0.8,14.6c0,9.6,2.3,18.7,6.3,26.2c1.2,0.6,2.4,1.1,3.6,1.7
			C102.3,185.5,99.5,175.6,99.5,164.8z"/>
		<path class="st2" d="M97.1,122.8l-2.9-51.9c0-25.4,20.8-46.1,46.1-46.1c25.4,0,46.1,20.8,46.1,46.1l0,0.3c5.7,3,9.6,9,9.6,15.9
			c0,7.6-4.7,14.1-11.4,16.8l-3.4,60.9c0,8.9-1.9,17.2-5.5,24.2c0.5,0.6,1,1.2,1.5,1.9c0,0,0.1,0,0.1-0.1c3.9-7.4,6.1-16.3,6.1-25.8
			l1.8-32.6l1-17.2l0.5-9.8c1-0.5,1.9-1.1,2.8-1.7c5.5-3.7,8.7-9.8,8.7-16.4c0-6.9-3.7-13.4-9.6-17c-0.2-12.5-5.2-24.2-14.1-33.1
			c-9.1-9.1-21.1-14.1-33.8-14.1c-10.1,0-20.3,3.2-28.4,9C99.4,41.4,91.4,56,91.4,71.6v0.3c-5,3.7-7.7,9.6-7.7,15.9
			c0,7.2,4,13.8,10.3,17.3l0.9,14.4l0.3,5.1l1.2-1.1L97.1,122.8z"/>
		<path class="st2" d="M175.7,191.8c0.6-0.3,1.1-0.6,1.7-0.8c-0.5-0.6-1-1.2-1.5-1.9c-0.3,0.6-0.6,1.2-0.9,1.8
			C175.2,191.1,175.4,191.4,175.7,191.8z"/>
		<path class="st2" d="M173.9,192.6c0.6-0.3,1.2-0.5,1.8-0.8c-0.2-0.3-0.5-0.6-0.7-0.9C174.6,191.4,174.3,192,173.9,192.6z"/>
		<path class="st2" d="M96.2,123.7l0.7,1.7c0.1-0.1,0.2-0.2,0.4-0.4l-0.1-2.3l-0.8,0.7l-1.2,1.1l0,0C95.5,124.4,95.8,124,96.2,123.7
			z"/>
		<path class="st2" d="M95.6,126.7l-0.4-0.7l0.1,1C95.4,126.9,95.5,126.8,95.6,126.7z"/>
		<path class="st2" d="M98.3,143.5c-0.7,1.2-1.3,2.4-1.9,3.6l0.2,3.8c0.5-1.4,1.2-2.8,1.8-4.1L98.3,143.5z"/>
		<path class="st2" d="M96.9,125.4l-0.7-1.7c-0.3,0.3-0.7,0.7-1,1l0.1,1.3l0.4,0.7C96,126.3,96.5,125.9,96.9,125.4z"/>
		<path class="st2" d="M97.3,125.1c-0.1,0.1-0.2,0.2-0.4,0.4l0.5,1.1L97.3,125.1z"/>
		<path class="st2" d="M97.3,125.1L97.3,125.1c-0.1,0.1-0.2,0.2-0.4,0.4v0C97,125.3,97.1,125.2,97.3,125.1z"/>
		<polygon class="st2" points="98,138.8 95.9,137.4 95.9,137.8 98.2,142.5 		"/>
		<path class="st2" d="M97.3,145.3c0.1-0.2,0.2-0.5,0.4-0.7l-1,0.5L97.3,145.3z"/>
		<path class="st2" d="M95.6,126.7L95.6,126.7c-0.1,0.1-0.2,0.2-0.3,0.3v0C95.4,126.9,95.5,126.8,95.6,126.7z"/>
		<path class="st2" d="M96.7,129l-1.2-2.3c-0.1,0.1-0.2,0.2-0.3,0.3l0.1,1.1L96.7,129z"/>
		<path class="st2" d="M97.7,144.6c0.2-0.4,0.4-0.7,0.6-1.1l-0.1-1l-2.3-4.8l0.4,7.1l0.4,0.2L97.7,144.6z"/>
		<path class="st2" d="M98.4,143.5L98.4,143.5c0,0.4-0.5,0.7-0.7,1.1c-0.1,0.2-0.3,0.5-0.4,0.7c-0.3,0.6-0.9,1.2-0.9,1.8v0
			C96.4,145.9,97.4,144.7,98.4,143.5z"/>
		<path class="st2" d="M97.5,129.5l-0.2-3l-0.5-1.1c-0.4,0.4-0.9,0.9-1.3,1.3l1.2,2.3L97.5,129.5z"/>
		<path class="st2" d="M95.6,126.7c0.4-0.4,0.9-0.9,1.3-1.3v0C96.5,125.9,96,126.3,95.6,126.7L95.6,126.7z"/>
		<polygon class="st2" points="96.7,129 95.3,128.1 95.9,137.4 98,138.8 97.6,130.7 		"/>
		<polygon class="st2" points="97.5,129.5 96.7,129 97.6,130.7 		"/>
		<path class="st2" d="M96.7,145.1l-0.4,0.2l0,0l0.1,1.8c0.3-0.6,0.6-1.2,0.9-1.8L96.7,145.1z"/>
		<polygon class="st2" points="96.7,145.1 96.3,144.9 96.3,145.3 		"/>
		<path class="st20" d="M131.5,199.6c2.7,0.3,5.5,0.4,8.3,0.4c6.3,0,12.5-0.7,18.4-2.1l15.8-5.3l1.9-3.6c3.6-7.1,5.5-15.4,5.5-24.2
			l3.4-60.9c6.7-2.6,11.4-9.2,11.4-16.8c0-6.9-3.9-12.9-9.6-15.9l0-0.3c0-25.4-20.8-46.1-46.1-46.1c-25.4,0-46.1,20.8-46.1,46.1
			l2.9,51.9l1,24l1.4,18c0,10.8,2.8,20.7,7.9,28.6c1.5,0.7,3.1,1.3,4.7,1.9C112.2,195.2,122.6,199.2,131.5,199.6z M165.6,155.1
			c0,0.7,0,1.4-0.1,2.1c0,0.7-0.2,1.4-0.3,2.1c-0.1,0.7-0.3,1.4-0.5,2l-0.4,1l-0.4,1c-0.3,0.6-0.7,1.2-1.1,1.8
			c-0.4,0.6-0.9,1.1-1.5,1.6c-0.6,0.5-1.2,0.9-1.9,1.2c-0.3,0.2-0.7,0.3-1.1,0.3c-0.4,0.1-0.7,0.1-1.1,0.1c-0.9,0-1.6-0.1-2.3-0.4
			c-0.7-0.2-1.4-0.7-2-1.1c-0.6-0.5-1.1-1-1.6-1.6c-0.5-0.6-0.9-1.2-1.2-1.8l-0.5-1l-0.4-1c0-0.1-0.1-0.2-0.1-0.4
			c0,0.1-0.1,0.3-0.1,0.4l-0.4,1l-0.5,1c-0.3,0.7-0.7,1.3-1.2,1.9c-0.5,0.6-1,1.2-1.6,1.7c-0.6,0.5-1.3,0.9-2,1.2
			c-0.4,0.2-0.8,0.3-1.3,0.4c-0.5,0.1-0.6,0.1-1.2,0.1c-0.8,0-1.7-0.1-2.4-0.5c-0.8-0.3-1.5-0.7-2.1-1.2c-0.6-0.5-1.2-1.1-1.6-1.6
			c-0.5-0.6-0.9-1.2-1.2-1.9l-0.5-1l-0.2-0.5c-0.4,0.9-0.8,1.8-1.3,2.6c-0.5,0.7-1,1.4-1.7,2c-0.6,0.6-1.4,1.2-2.3,1.6
			c-0.5,0.2-0.9,0.4-1.4,0.5c-0.2,0.1-0.6,0.1-0.7,0.1l-0.6,0l-0.3,0l-0.2,0l-0.4,0c-0.2,0-0.5-0.1-0.7-0.1
			c-0.5-0.1-0.9-0.3-1.3-0.5c-0.4-0.2-0.8-0.5-1.1-0.8c-0.3-0.3-0.7-0.6-0.9-1c-0.6-0.6-1.1-1.3-1.5-2c-0.4-0.7-0.8-1.5-1.1-2.2
			l-0.4-1.1l-0.3-1.2l-0.2-1.2l-0.2-1.2c-0.1-0.8-0.1-1.6-0.1-2.4c0-0.2,0-0.4,0-0.7c0-0.2,0-0.4,0-0.6c0-0.7,0-1.4,0-2.1
			c0-0.4,0-0.9,0-1.3c0-0.1,0-0.1,0-0.1c0-0.4,0-0.7,0-1.1c0-0.2,0.5-0.3,0.7-0.3c0.2,0,0.7,0.1,0.7,0.3c0,0,0,0,0,0
			c0,0.4,0,0.8,0,1.2c0,0,0,0,0,0.1c0,0,0,0,0,0c0,0.5-0.4,1.1-0.4,1.6c0,0.6-0.2,1.2-0.2,1.7c0,0.8,0,1.5,0.1,2.3l0.2,1.1l0.3,1.1
			c0.2,0.7,0.5,1.4,0.8,2.1c0.3,0.7,0.7,1.3,1.2,1.9c0.5,0.6,0.9,1.1,1.5,1.5c0.6,0.4,1.2,0.6,1.8,0.8c0.6,0.2,1.3,0.2,1.7,0.2
			l0.6,0c0.2,0,0.3-0.1,0.4-0.1c0.2,0,0.5-0.2,0.8-0.3c0.5-0.3,1.1-0.6,1.5-1.1c0.5-0.4,0.9-1,1.3-1.5c0.4-0.6,0.7-1.2,1-1.8
			c0.3-0.6,0.5-1.3,0.7-2c0.2-0.7,0.3-1.4,0.4-2.1c0.1-0.7,0.1-1.4,0.2-2.2c0-0.7,0.5-1.3,1.3-1.4c0.7,0,1.1,0.5,1.1,1.3l-0.3,0v0.1
			c0,0.6,0.3,1.3,0.4,1.9c0.1,0.6,0.3,1.3,0.4,1.9c0.1,0.6,0.4,1.2,0.6,1.8l0.4,0.9l0.4,0.8c0.3,0.5,0.6,1.1,1,1.5
			c0.4,0.5,0.8,0.9,1.2,1.3c0.5,0.4,0.9,0.7,1.4,0.9c0.5,0.2,1,0.3,1.6,0.3c0.1,0,0.7,0,0.9-0.1c0.2-0.1,0.4-0.1,0.7-0.2
			c0.5-0.2,1-0.5,1.5-0.8c0.5-0.4,0.9-0.8,1.3-1.3c0.4-0.5,0.7-1,1-1.5l0.4-0.8l0.4-0.9c0.2-0.6,0.4-1.2,0.6-1.8
			c0.1-0.6,0.3-1.3,0.3-1.9c0.1-0.6,0.1-1.3,0.1-1.9c0-0.5,0.1-1,0.7-1c0.5,0,0.7,0.4,0.7,0.9v0.1v0c0,0.6,0.3,1.3,0.3,1.9
			c0,0.6,0.3,1.3,0.4,1.9c0.1,0.6,0.4,1.3,0.6,1.9l0.4,0.9l0.4,0.9c0.3,0.6,0.6,1.1,1,1.6l0.6,0.7c0.2,0.2,0.4,0.4,0.7,0.6
			c0.5,0.4,1,0.7,1.5,1c0.5,0.3,1.2,0.3,1.7,0.4c0.3,0,0.7,0,1-0.1c0.3-0.1,0.5-0.1,0.8-0.2c0.6-0.2,1.1-0.5,1.6-0.9
			c0.5-0.4,0.9-0.8,1.4-1.3c0.4-0.5,0.8-1,1.1-1.6l0.5-0.9l0.4-0.9c0.2-0.6,0.4-1.3,0.6-1.9c0.2-0.6,0.3-1.3,0.4-2
			c0.1-0.7,0.1-1.3,0.2-2l0,0c0-0.2,0.2-0.3,0.3-0.3c0.2,0,0.3,0.2,0.3,0.3C165.6,154.3,165.6,154.6,165.6,155.1
			C165.6,155.1,165.6,155.1,165.6,155.1z M171.7,132.6c0,0.8-0.1,1.6-0.2,2.3c-0.1,0.8-0.3,1.5-0.5,2.3c-0.2,0.8-0.4,1.5-0.7,2.3
			c-0.3,0.7-0.6,1.5-1,2.2c-0.4,0.7-0.9,1.4-1.4,2c-0.3,0.3-0.6,0.6-0.9,0.9c-0.4,0.2-0.7,0.5-1.1,0.7l-0.6,0.3
			c-0.2,0.1-0.5,0.1-0.7,0.2c-0.5,0.2-0.8,0.1-1.2,0.2c-0.4,0-0.5,0-0.7,0c-0.2,0-0.4-0.1-0.7-0.1c-0.4-0.1-0.9-0.3-1.2-0.5
			c-0.4-0.2-0.7-0.4-1.1-0.7c-0.3-0.3-0.7-0.5-1-0.8c-0.6-0.6-1.1-1.3-1.5-2c-0.4-0.7-0.8-1.4-1.1-2.2c-0.3-0.7-0.5-1.3-0.8-2
			c-0.2,0.7-0.4,1.4-0.7,2.1c-0.3,0.8-0.7,1.5-1.1,2.2c-0.4,0.7-0.9,1.4-1.5,2c-0.3,0.3-0.6,0.6-1,0.9c-0.4,0.3-0.7,0.5-1.1,0.7
			l-0.6,0.3c-0.2,0.1-0.5,0.2-0.7,0.2l-0.4,0.1c-0.1,0-0.2,0-0.3,0l-0.6-0.1l-0.1-0.1h0l0,0.1l0,0.1l-0.1,0l-0.2,0l-0.4,0
			c-0.2,0-0.5-0.1-0.7-0.1c-0.5-0.1-0.9-0.3-1.3-0.5c-0.4-0.2-0.8-0.5-1.2-0.7c-0.3-0.3-0.7-0.6-1-0.9c-0.6-0.6-1.1-1.3-1.5-2
			c-0.4-0.7-0.8-1.5-1.1-2.2c-0.2-0.5-0.4-1.1-0.6-1.6c-0.2,0.5-0.4,1.1-0.6,1.6c-0.3,0.8-0.7,1.5-1.1,2.2c-0.4,0.7-1,1.4-1.5,2
			c-0.3,0.3-0.6,0.6-1,0.9c-0.4,0.2-0.7,0.5-1.2,0.7l-0.6,0.3c-0.2,0.1-0.5,0.1-0.7,0.2c-0.6,0.2-0.7,0.1-1.4,0.2
			c-1-0.1-1.9-0.3-2.7-0.7c-0.4-0.2-0.8-0.5-1.1-0.7c-0.3-0.3-0.7-0.6-1-0.9c-0.6-0.6-1.1-1.3-1.5-2c-0.4-0.7-0.8-1.4-1.1-2.2
			c-0.3-0.8-0.6-1.5-0.8-2.3c0,0,0,0,0,0c-0.2,0.8-0.5,1.5-0.8,2.2c-0.3,0.7-0.7,1.5-1.1,2.2c-0.4,0.7-0.9,1.4-1.5,2
			c-0.3,0.3-0.6,0.6-0.9,0.9c-0.4,0.2-0.7,0.5-1.1,0.7l-0.6,0.3c-0.2,0.1-0.5,0.1-0.7,0.2c-0.5,0.2-0.7,0.1-1.3,0.2
			c-0.9-0.1-1.8-0.2-2.6-0.7c-0.4-0.2-0.7-0.5-1.1-0.7c-0.3-0.3-0.6-0.5-0.9-0.9c-0.6-0.6-1.1-1.3-1.5-2c-0.4-0.7-0.8-1.4-1-2.2
			c-0.3-0.7-0.5-1.5-0.7-2.3c-0.2-0.6-0.3-1.2-0.4-1.8c0,0,0.2,0,0.2,0l1.1,0.4c0.2,0.7,0.5,1.4,0.8,2.1c0.3,0.7,0.6,1.3,1,1.9
			c0.4,0.6,0.8,1.2,1.3,1.7c0.2,0.3,0.5,0.5,0.8,0.7c0.3,0.2,0.6,0.4,0.9,0.5c0.6,0.3,1.2,0.4,1.9,0.5c0.2,0,0.8,0,1-0.2
			c0.1,0,0.3-0.1,0.4-0.1l0.4-0.2c0.3-0.1,0.6-0.4,0.8-0.5c0.2-0.2,0.5-0.4,0.7-0.7c0.5-0.5,0.9-1.1,1.3-1.7c0.4-0.6,0.7-1.3,1-1.9
			c0.3-0.7,0.5-1.4,0.7-2.1c0.2-0.7,0.4-1.4,0.5-2.2c0.1-0.7,0.8-1.5,0.8-2.2c0.1-0.7,0.6-1.5,0.6-2.2v0c0-0.5-0.1-1,0.5-1
			c0.5,0,0.5,0.4,0.5,0.9v0.1c0,0.2-0.1,0.4-0.1,0.5c0.1,0.2,0.2,0.3,0.2,0.6l0,0.1c0,0.7,0,1.5,0.1,2.2c0,0.6,0.1,1.2,0.2,1.8
			c0.1,0.5,0.2,0.9,0.3,1.4c0.2,0.7,0.4,1.4,0.7,2c0.3,0.7,0.6,1.3,1,1.9c0.4,0.6,0.8,1.1,1.3,1.6c0.2,0.3,0.5,0.4,0.7,0.7
			c0.3,0.2,0.5,0.4,0.8,0.5c0.5,0.3,1.1,0.4,1.7,0.4c0.1,0,0.8,0,0.9-0.1c0.1,0,0.2-0.1,0.4-0.1l0.4-0.2c0.3-0.1,0.5-0.3,0.8-0.5
			c0.2-0.2,0.5-0.4,0.7-0.7c0.5-0.5,0.9-1,1.2-1.6c0.4-0.6,0.7-1.2,1-1.9c0.3-0.7,0.5-1.3,0.7-2c0.2-0.7,0.4-1.4,0.5-2.1
			c0.1-0.7,0.2-1.4,0.3-2.2c0.1-0.7,0.1-1.5,0.1-2.2c0-0.7,0.8-1.2,1.5-1.3c0.7,0,1.5,0.5,1.5,1.2v0.1v0c0,0.1-0.1,0.3-0.1,0.4
			c0.1,0.2,0.1,0.4,0.1,0.6v0.1v0c0,0.7-0.2,1.5-0.1,2.2c0,0.7,0.1,1.4,0.2,2.1c0.1,0.4,0.1,0.7,0.2,1.1c0.2,0.7,0.4,1.4,0.7,2
			c0.3,0.7,0.6,1.3,0.9,1.9c0.4,0.6,0.8,1.1,1.2,1.6c0.2,0.3,0.5,0.4,0.7,0.7c0.3,0.2,0.5,0.4,0.8,0.5c0.3,0.1,0.5,0.3,0.8,0.3
			c0.1,0,0.3,0.1,0.4,0.1l0.2,0l0.1,0l0.1,0.1l0,0.1h0l0.5-0.2c0.1,0,0.2-0.1,0.3-0.1l0.2-0.1c0.1,0,0.2-0.1,0.4-0.1l0.4-0.2
			c0.3-0.1,0.5-0.3,0.8-0.5c0.2-0.2,0.5-0.4,0.7-0.7c0.5-0.5,0.9-1,1.3-1.6c0.4-0.6,0.7-1.2,1-1.9c0.3-0.7,0.5-1.3,0.7-2
			c0.2-0.7,0.4-1.4,0.5-2.1c0.1-0.7,0.2-1.4,0.3-2.2c0.1-0.7,0.1-1.5,0.1-2.2c0-0.6,0.7-1.1,1.2-1.1c0.6,0,1.3,0.4,1.3,1v0.1v0
			c0,0.2-0.1,0.3-0.1,0.5c0.1,0.2,0.1,0.4,0.1,0.6v0.1v0c0,0.7-0.1,1.5,0,2.2c0,0.7,0.1,1.5,0.2,2.2c0,0,0,0,0,0
			c0.1,0.3,0.1,0.6,0.2,1c0.2,0.7,0.4,1.4,0.7,2.1c0.3,0.7,0.6,1.3,0.9,1.9c0.4,0.6,0.8,1.2,1.2,1.7c0.2,0.3,0.5,0.5,0.7,0.7
			c0.3,0.2,0.5,0.4,0.8,0.5c0.5,0.3,1.3,0.5,1.8,0.5c0.4,0,0.8,0,1.1-0.1c0.1,0,0.3-0.1,0.4-0.1l0.5-0.2c0.3-0.1,0.6-0.4,0.9-0.5
			c0.3-0.2,0.5-0.4,0.8-0.7c0.5-0.5,1-1.1,1.3-1.7c0.4-0.6,0.7-1.3,1-1.9c0.3-0.7,0.6-1.4,0.8-2.1c0.2-0.7,0.4-1.4,0.6-2.2
			c0.1-0.7,0.1-1.5,0.1-2.2c0.1-0.8-0.1-1.5-0.1-2.3v0c0-0.2,0.4-0.3,0.6-0.3c0.2,0,0.4,0.2,0.4,0.3c0,0.3,0.1,0.5,0.1,0.8
			c0.1,0.1,0.3,0.2,0.3,0.3C171.7,131,171.8,131.8,171.7,132.6z"/>
		<path class="st20" d="M174.9,190.8c-4.6-5.8-8.3-10.5-8.7-10.8l-6.1,4.8l-6.2,4.9c0.2,0.4,2.7,3.5,6.1,7.8
			c4.8-1.2,9.5-2.9,13.9-4.9C174.3,192,174.6,191.4,174.9,190.8z"/>
		<path class="st20" d="M103.4,139.6L103.4,139.6c-1,0.4-0.7,0.7-0.7,0.7l-1-1.8c-1.2,1.7-2.3,3.3-3.3,5l0.4,3.3
			C100,144.3,101.4,141.9,103.4,139.6z"/>
		<path class="st20" d="M101.5,138.5l0.9,1.8c0,0,0.2-0.3,0.5-0.7l-0.8-1.9C101.9,138,101.7,138.2,101.5,138.5z"/>
		<path class="st20" d="M99,130.5l4.6,2.9l-4.8-9.7c-0.5,0.5-1.1,1-1.6,1.4l0.1,1.4L99,130.5z"/>
		<path class="st20" d="M98.2,142.5l0.1,1c0.1-0.1,0.2-0.3,0.2-0.4L98.2,142.5z"/>
		<path class="st20" d="M100.3,140c-0.6,1-1.2,2-1.8,3c-0.1,0.1-0.2,0.4-0.2,0.5v0c1-1.7,2-3.5,3.3-5.5h0
			C101.2,139,100.7,139.4,100.3,140z"/>
		<path class="st20" d="M100.3,140.2l-2.3-1.4l0.2,3.7l0.3,0.6C99.1,142.1,99.7,141.2,100.3,140.2z"/>
		<polygon class="st20" points="97.4,126.5 97.5,129.5 99,130.5 		"/>
		<path class="st20" d="M102.1,137.7c0,0.3-0.4,0.5-0.6,0.8l0,0C101.7,138.2,102.1,138,102.1,137.7L102.1,137.7z"/>
		<path class="st20" d="M104.4,134.9l-0.8-1.6l-4.6-2.9l3.1,7.2C102.8,136.8,103.6,135.8,104.4,134.9z"/>
		<path class="st20" d="M101.5,138.5l-4-7.8l0.4,8.1l2.3,1.4C100.7,139.6,101.1,139,101.5,138.5z"/>
		<path class="st20" d="M101.5,138.5c0.2-0.3,0.4-0.5,0.6-0.8l-3.1-7.2l-1.5-1l0.1,1.2L101.5,138.5z"/>
		<path class="st20" d="M89,198.2c0.1-0.1,0.1-0.2,0.2-0.3C89.1,198,89,198.1,89,198.2z"/>
		<path class="st20" d="M89.6,197.7c-0.1,0-0.2,0.1-0.3,0.2C89.3,197.8,89.4,197.7,89.6,197.7z"/>
		<path class="st20" d="M75.4,169.1C75.4,169.1,75.4,169.1,75.4,169.1c0,0.3-0.1,0.8-0.2,1h0C75.2,169.9,75.4,169.5,75.4,169.1z"/>
		<path class="st20" d="M90.6,198C90.6,198,90.6,198,90.6,198C90.6,198,90.6,198,90.6,198z"/>
		<path class="st20" d="M89.2,197.9C89.2,197.9,89.2,197.9,89.2,197.9C89.2,197.9,89.2,197.9,89.2,197.9z"/>
		<path class="st20" d="M89.6,197.7C89.6,197.7,89.6,197.7,89.6,197.7C89.6,197.7,89.6,197.7,89.6,197.7c0.4-0.1,0.8,0,1,0.3
			C90.4,197.7,90,197.6,89.6,197.7z"/>
		<path class="st20" d="M75.4,169.1c0,0.3-0.1,0.7-0.1,1l0.9-0.1C75.9,169.8,75.6,169.4,75.4,169.1z"/>
		<path class="st20" d="M89,198.2C89,198.2,89,198.2,89,198.2C89,198.2,89,198.2,89,198.2z"/>
		<path class="st20" d="M74.7,174.3L74.7,174.3c0,0.5-0.1,0.9-0.1,1.2l0-0.1C74.7,175.1,74.7,174.8,74.7,174.3z"/>
		<path class="st20" d="M74.6,175.7L74.6,175.7c-0.1,0.7-0.1,1.4-0.1,2.1h0C74.5,177.1,74.6,176.4,74.6,175.7z"/>
		<path class="st20" d="M177.4,191c0,0,0.1-0.1,0.1-0.1C177.4,190.9,177.4,190.9,177.4,191C177.4,190.9,177.4,191,177.4,191z"/>
		<g>
			<path class="st20" d="M104,69.1c-9.9,0-18,8.1-18,18c0,9.9,8.1,18,18,18c9.9,0,18-8.1,18-18C122,77.2,114,69.1,104,69.1"/>
		</g>
		<g>
			<path class="st21" d="M104,74.5c7.5,0,13.6,6.1,13.6,13.6c0,7.5-6.1,13.6-13.6,13.6c-7.5,0-13.6-6.1-13.6-13.6
				C90.4,80.6,96.5,74.5,104,74.5"/>
		</g>
		<g>
			<path class="st21" d="M177.8,74.5c7.5,0,13.6,6.1,13.6,13.6c0,7.5-6.1,13.6-13.6,13.6c-7.5,0-13.6-6.1-13.6-13.6
				C164.2,80.6,170.3,74.5,177.8,74.5"/>
		</g>
		<g>
			
				<rect x="183.8" y="111.2" transform="matrix(0.9988 4.813725e-02 -4.813725e-02 0.9988 6.1642 -8.7463)" class="st2" width="1.8" height="24.8"/>
		</g>
		<g>
			
				<rect x="84.2" y="128.7" transform="matrix(4.786920e-02 0.9989 -0.9989 4.786920e-02 221.3962 26.8313)" class="st2" width="24.8" height="1.8"/>
		</g>
		<g>
			<g>
				<path class="st22" d="M104,75c6.7,0,12.1,5.4,12.1,12.1c0,6.7-5.4,12.1-12.1,12.1c-6.7,0-12.1-5.4-12.1-12.1
					C91.9,80.5,97.3,75,104,75"/>
			</g>
			<g>
				<path class="st2" d="M104,100c-7.1,0-12.8-5.7-12.8-12.8c0-7.1,5.7-12.8,12.8-12.8c7.1,0,12.8,5.7,12.8,12.8
					C116.8,94.2,111.1,100,104,100z M104,75.7c-6.3,0-11.5,5.1-11.5,11.5c0,6.3,5.1,11.5,11.5,11.5c6.3,0,11.5-5.1,11.5-11.5
					C115.5,80.8,110.3,75.7,104,75.7z"/>
			</g>
		</g>
		<g>
			<g>
				<path class="st22" d="M178.1,75c6.7,0,12.1,5.4,12.1,12.1c0,6.7-5.4,12.1-12.1,12.1c-6.7,0-12.1-5.4-12.1-12.1
					C166,80.5,171.4,75,178.1,75"/>
			</g>
			<g>
				<path class="st2" d="M178.1,100c-7.1,0-12.8-5.7-12.8-12.8c0-7.1,5.7-12.8,12.8-12.8c7.1,0,12.8,5.7,12.8,12.8
					C190.9,94.2,185.2,100,178.1,100z M178.1,75.7c-6.3,0-11.5,5.1-11.5,11.5c0,6.3,5.1,11.5,11.5,11.5c6.3,0,11.5-5.1,11.5-11.5
					C189.6,80.8,184.4,75.7,178.1,75.7z"/>
			</g>
		</g>
		<g>
			<path class="st21" d="M96.1,70.8c0,0,8.7-14.1,18.6,1C114.6,71.9,106.6,64.3,96.1,70.8z"/>
		</g>
		<g>
			<g>
				<path class="st2" d="M114.1,72.1c-0.2,0-0.3-0.1-0.4-0.2c-7.5-6.7-16.3-1.1-16.7-0.9c-0.3,0.2-0.7,0.1-0.9-0.2
					c-0.2-0.3-0.1-0.7,0.2-0.9c0.1-0.1,10-6.4,18.3,1c0.3,0.2,0.3,0.7,0.1,0.9C114.5,72,114.3,72.1,114.1,72.1z"/>
			</g>
		</g>
		<g>
			<path class="st21" d="M140.6,24.7c0,0,39.5,10.2,27.3,44.7c0,0,10-3.3,18.9,1.9C186.9,71.3,186.7,28.4,140.6,24.7z"/>
		</g>
		<g>
			<g>
				<path class="st2" d="M166.6,72.1c-0.2,0-0.4-0.1-0.5-0.2c-0.2-0.3-0.2-0.7,0.1-0.9c8.3-7.4,18.2-1.1,18.3-1
					c0.3,0.2,0.4,0.6,0.2,0.9c-0.2,0.3-0.6,0.4-0.9,0.2c-0.4-0.2-9.1-5.8-16.7,0.9C166.9,72.1,166.8,72.1,166.6,72.1z"/>
			</g>
		</g>
		<g>
			<g>
				<path class="st2" d="M104,94.9c-1.2,0-2.1-0.9-2.1-2.1V81.5c0-1.2,0.9-2.1,2.1-2.1c1.2,0,2.1,0.9,2.1,2.1v11.3
					C106.1,94,105.2,94.9,104,94.9"/>
			</g>
			<g>
				<circle class="st0" cx="107.6" cy="81.8" r="2.7"/>
			</g>
		</g>
		<g>
			<g>
				<path class="st2" d="M178.1,94.9c-1.2,0-2.1-0.9-2.1-2.1V81.5c0-1.2,0.9-2.1,2.1-2.1c1.2,0,2.1,0.9,2.1,2.1v11.3
					C180.2,94,179.3,94.9,178.1,94.9"/>
			</g>
			<g>
				<circle class="st0" cx="181.6" cy="80.9" r="2.7"/>
			</g>
		</g>
		<g>
			<path class="st21" d="M139.9,109.2c-7.2,0-13.9-2.7-19.2-7.6c-2.7-2.5-2.8-6.7-0.3-9.4c2.5-2.7,6.7-2.8,9.4-0.3
				c6,5.6,15.3,5.3,20.9-0.7c2.5-2.7,6.7-2.8,9.4-0.3c2.7,2.5,2.8,6.7,0.3,9.4c-5.1,5.5-12.1,8.6-19.6,8.9
				C140.5,109.2,140.2,109.2,139.9,109.2"/>
		</g>
		<g>
			<path class="st8" d="M139.9,107.4c-7.2,0-13.9-2.7-19.2-7.6c-2.7-2.5-2.8-6.7-0.3-9.4c2.5-2.7,6.7-2.8,9.4-0.3
				c6,5.6,15.3,5.3,20.9-0.7c2.5-2.7,6.7-2.8,9.4-0.3c2.7,2.5,2.8,6.7,0.3,9.4c-5.1,5.5-12.1,8.6-19.6,8.9
				C140.5,107.4,140.2,107.4,139.9,107.4"/>
		</g>
		<g>
			<path class="st23" d="M139.9,104.3c-5.8,0-11.6-2.1-16.2-6.4c-0.9-0.8-0.9-2.2-0.1-3.1c0.8-0.9,2.2-0.9,3.1-0.1
				c7.7,7.2,20,6.8,27.2-0.9c0.8-0.9,2.2-0.9,3.1-0.1c0.9,0.8,0.9,2.2,0.1,3.1C152.6,101.8,146.2,104.3,139.9,104.3"/>
		</g>
		<g>
			<path class="st2" d="M139.9,103.1c-5.8,0-11.6-2.1-16.2-6.4c-0.9-0.8-0.9-2.2-0.1-3.1c0.8-0.9,2.2-0.9,3.1-0.1
				c7.7,7.2,20,6.8,27.2-0.9c0.8-0.9,2.2-0.9,3.1-0.1c0.9,0.8,0.9,2.2,0.1,3.1C152.6,100.6,146.2,103.1,139.9,103.1"/>
		</g>
		<g>
			<g>
				<path class="st21" d="M139.9,109.2c-7.2,0-13.9-2.7-19.2-7.6c-2.7-2.5-2.8-6.7-0.3-9.4c2.5-2.7,6.7-2.8,9.4-0.3
					c6,5.6,15.3,5.3,20.9-0.7c2.5-2.7,6.7-2.8,9.4-0.3c2.7,2.5,2.8,6.7,0.3,9.4c-5.1,5.5-12.1,8.6-19.6,8.9
					C140.5,109.2,140.2,109.2,139.9,109.2"/>
			</g>
			<g>
				<path class="st8" d="M139.9,107.4c-7.2,0-13.9-2.7-19.2-7.6c-2.7-2.5-2.8-6.7-0.3-9.4c2.5-2.7,6.7-2.8,9.4-0.3
					c6,5.6,15.3,5.3,20.9-0.7c2.5-2.7,6.7-2.8,9.4-0.3c2.7,2.5,2.8,6.7,0.3,9.4c-5.1,5.5-12.1,8.6-19.6,8.9
					C140.5,107.4,140.2,107.4,139.9,107.4"/>
			</g>
			<g>
				<path class="st23" d="M139.9,104.3c-5.8,0-11.6-2.1-16.2-6.4c-0.9-0.8-0.9-2.2-0.1-3.1c0.8-0.9,2.2-0.9,3.1-0.1
					c7.7,7.2,20,6.8,27.2-0.9c0.8-0.9,2.2-0.9,3.1-0.1c0.9,0.8,0.9,2.2,0.1,3.1C152.6,101.8,146.2,104.3,139.9,104.3"/>
			</g>
			<g>
				<path class="st2" d="M139.9,103.1c-5.8,0-11.6-2.1-16.2-6.4c-0.9-0.8-0.9-2.2-0.1-3.1c0.8-0.9,2.2-0.9,3.1-0.1
					c7.7,7.2,20,6.8,27.2-0.9c0.8-0.9,2.2-0.9,3.1-0.1c0.9,0.8,0.9,2.2,0.1,3.1C152.6,100.6,146.2,103.1,139.9,103.1"/>
			</g>
		</g>
		<rect x="101.4" y="123" class="st20" width="77" height="49"/>
		<g>
			<g>
				<g>
					<g>
						<path class="st21" d="M116.7,150.8c-0.1,1.6,0,3.1,0,4.7c0,0.8,0.1,1.5,0.2,2.3l0.2,1.1l0.3,1.1c0.2,0.7,0.5,1.4,0.9,2.1
							c0.3,0.7,0.7,1.3,1.2,1.9c0.5,0.6,1,1.1,1.6,1.5c0.6,0.4,1.2,0.6,1.8,0.8c0.6,0.2,1.3,0.2,1.7,0.2l0.6,0
							c0.2,0,0.3-0.1,0.4-0.1c0.2,0,0.5-0.2,0.8-0.3c0.5-0.3,1.1-0.6,1.5-1.1c0.5-0.4,0.9-1,1.3-1.5c0.4-0.6,0.7-1.2,1-1.8
							c0.3-0.6,0.5-1.3,0.7-2c0.2-0.7,0.3-1.4,0.4-2.1c0.1-0.7,0.1-1.4,0.2-2.2h2.6c0,0.6,0,1.3,0.1,1.9c0.1,0.6,0.2,1.3,0.3,1.9
							c0.1,0.6,0.3,1.2,0.5,1.8l0.3,0.9l0.4,0.8c0.3,0.5,0.6,1.1,1,1.6c0.4,0.5,0.8,0.9,1.2,1.3c0.5,0.4,0.9,0.7,1.4,0.9
							c0.5,0.2,1,0.3,1.6,0.3c0.1,0,0.7,0,0.9-0.1c0.2-0.1,0.4-0.1,0.7-0.2c0.5-0.2,1-0.5,1.5-0.8c0.5-0.4,0.9-0.8,1.3-1.3
							c0.4-0.5,0.7-1,1-1.5l0.4-0.8l0.4-0.9c0.2-0.6,0.4-1.2,0.6-1.8c0.2-0.6,0.3-1.3,0.3-1.9c0.1-0.6,0.1-1.3,0.1-1.9h1.9
							c0,0.7,0,1.3,0.1,2c0,0.6,0.2,1.3,0.3,1.9c0.1,0.6,0.3,1.3,0.5,1.9l0.3,0.9l0.4,0.9c0.3,0.6,0.6,1.1,1,1.6l0.6,0.7
							c0.2,0.2,0.4,0.4,0.7,0.6c0.5,0.4,1,0.7,1.5,1c0.5,0.3,1.2,0.3,1.7,0.4c0.3,0,0.7,0,1-0.1c0.3-0.1,0.5-0.1,0.8-0.2
							c0.6-0.2,1.1-0.5,1.6-0.9c0.5-0.4,1-0.8,1.4-1.3c0.4-0.5,0.8-1.1,1.1-1.6l0.5-0.9l0.4-0.9c0.2-0.6,0.4-1.3,0.6-1.9
							c0.2-0.6,0.3-1.3,0.4-2c0.1-0.7,0.1-1.3,0.2-2l0,0c0-0.2,0.2-0.3,0.3-0.3c0.2,0,0.3,0.2,0.3,0.3c0,0.7,0,1.4-0.1,2.1
							c0,0.7-0.2,1.4-0.3,2.1c-0.1,0.7-0.3,1.4-0.5,2l-0.4,1l-0.4,1c-0.3,0.6-0.7,1.2-1.1,1.8c-0.4,0.6-0.9,1.1-1.5,1.6
							c-0.6,0.5-1.2,0.9-1.9,1.2c-0.3,0.2-0.7,0.3-1.1,0.4c-0.4,0.1-0.7,0.1-1.1,0.1c-0.9,0-1.6-0.1-2.3-0.4c-0.7-0.2-1.4-0.7-2-1.1
							c-0.6-0.5-1.1-1-1.6-1.6c-0.5-0.6-0.9-1.2-1.2-1.8l-0.5-1l-0.4-1c-0.2-0.7-0.5-1.4-0.6-2.1c-0.2-0.7-0.3-1.4-0.4-2.1
							c-0.1-0.7-0.1-1.4-0.2-2.2c0-0.5,0.4-1,0.9-1c0.5,0,1,0.4,1,0.9l0,0.1l0,0c0,0.7,0,1.4-0.1,2.2c-0.1,0.7-0.2,1.4-0.3,2.1
							c-0.1,0.7-0.3,1.4-0.6,2.1l-0.4,1l-0.5,1c-0.3,0.7-0.7,1.3-1.2,1.9c-0.5,0.6-1,1.2-1.6,1.7c-0.6,0.5-1.3,0.9-2.1,1.2
							c-0.4,0.2-0.8,0.3-1.3,0.4c-0.5,0.1-0.6,0.1-1.2,0.1c-0.8,0-1.7-0.1-2.4-0.5c-0.8-0.3-1.5-0.7-2.1-1.2
							c-0.6-0.5-1.2-1.1-1.6-1.7c-0.5-0.6-0.9-1.2-1.2-1.9l-0.5-1l-0.4-1c-0.2-0.7-0.5-1.4-0.6-2.1c-0.2-0.7-0.3-1.4-0.4-2.2
							c-0.1-0.7-0.1-1.5-0.1-2.2c0-0.7,0.5-1.3,1.3-1.4c0.7,0,1.3,0.5,1.4,1.3l0,0v0.1c0,3.3-0.7,6.7-2.6,9.6
							c-0.5,0.7-1,1.4-1.7,2.1c-0.6,0.6-1.4,1.2-2.3,1.6c-0.5,0.2-0.9,0.4-1.4,0.5c-0.2,0.1-0.6,0.1-0.7,0.1l-0.6,0l-0.3,0l-0.2,0
							l-0.4,0c-0.2,0-0.5-0.1-0.7-0.1c-0.5-0.1-0.9-0.3-1.3-0.5c-0.4-0.2-0.8-0.5-1.1-0.8c-0.3-0.3-0.7-0.6-0.9-1
							c-0.6-0.7-1.1-1.3-1.5-2c-0.4-0.7-0.8-1.5-1.1-2.2l-0.4-1.1l-0.3-1.2l-0.2-1.2l-0.2-1.2c-0.1-0.8-0.1-1.6-0.1-2.4
							c0-1.6,0.1-3.1,0-4.7c0-0.2,0.1-0.3,0.3-0.3C116.6,150.5,116.7,150.6,116.7,150.8C116.7,150.8,116.7,150.8,116.7,150.8"/>
					</g>
				</g>
			</g>
			<g>
				<path class="st21" d="M106.6,130.3c0.1,0.8,0.1,1.5,0.2,2.3c0.1,0.7,0.2,1.5,0.4,2.2c0.2,0.7,0.3,1.5,0.6,2.2
					c0.2,0.7,0.5,1.4,0.8,2.1c0.3,0.7,0.6,1.3,1,1.9c0.4,0.6,0.8,1.2,1.3,1.7c0.2,0.3,0.5,0.5,0.8,0.7c0.3,0.2,0.6,0.4,0.9,0.5
					c0.6,0.3,1.2,0.4,1.9,0.5c0.2,0,0.8,0,1-0.2c0.1,0,0.3-0.1,0.4-0.1l0.4-0.2c0.3-0.1,0.6-0.4,0.8-0.5c0.2-0.2,0.5-0.4,0.8-0.7
					c0.5-0.5,0.9-1.1,1.3-1.7c0.4-0.6,0.7-1.3,1-1.9c0.3-0.7,0.5-1.4,0.7-2.1c0.2-0.7,0.4-1.4,0.5-2.2c0.1-0.7,0.2-1.5,0.3-2.2
					c0.1-0.7,0.1-1.5,0.1-2.2h1.9c0,0.7,0,1.5,0.1,2.2c0.1,0.7,0.2,1.5,0.3,2.2c0.1,0.7,0.3,1.4,0.5,2.1c0.2,0.7,0.4,1.4,0.7,2.1
					c0.3,0.7,0.6,1.3,1,1.9c0.4,0.6,0.8,1.2,1.3,1.6c0.2,0.3,0.5,0.4,0.7,0.7c0.3,0.2,0.5,0.4,0.8,0.5c0.5,0.3,1.1,0.4,1.7,0.4
					c0.1,0,0.8,0,0.9-0.1c0.1,0,0.2-0.1,0.4-0.1l0.4-0.2c0.3-0.1,0.5-0.3,0.8-0.5c0.2-0.2,0.5-0.4,0.7-0.7c0.5-0.5,0.9-1,1.2-1.6
					c0.4-0.6,0.7-1.2,1-1.9c0.3-0.7,0.5-1.4,0.7-2c0.2-0.7,0.4-1.4,0.5-2.1c0.1-0.7,0.2-1.4,0.3-2.2c0.1-0.7,0.1-1.5,0.1-2.2h2.4
					c0,0.7,0,1.5,0.1,2.2c0,0.7,0.2,1.5,0.3,2.2c0.1,0.7,0.3,1.4,0.5,2.1c0.2,0.7,0.4,1.4,0.7,2c0.3,0.7,0.6,1.3,1,1.9
					c0.4,0.6,0.8,1.1,1.2,1.6c0.2,0.3,0.5,0.4,0.7,0.7c0.3,0.2,0.5,0.4,0.8,0.5c0.3,0.1,0.5,0.3,0.8,0.3c0.1,0,0.3,0.1,0.4,0.1
					l0.2,0l0.1,0l0.1,0l0,0h0l0,0c0,0,0.1,0-0.1,0l0.6,0c0.1,0,0.2,0,0.3,0l0.2-0.1c0.1,0,0.2-0.1,0.4-0.1l0.4-0.2
					c0.3-0.1,0.5-0.3,0.8-0.5c0.2-0.2,0.5-0.4,0.7-0.7c0.5-0.5,0.9-1,1.3-1.6c0.4-0.6,0.7-1.2,1-1.9c0.3-0.7,0.5-1.3,0.7-2
					c0.2-0.7,0.4-1.4,0.5-2.1c0.1-0.7,0.3-1.5,0.3-2.2c0.1-0.7,0.1-1.5,0.1-2.2h2.1c0,0.7,0,1.5,0.1,2.2c0,0.7,0.2,1.5,0.3,2.2
					c0.1,0.7,0.3,1.4,0.5,2.2c0.2,0.7,0.4,1.4,0.7,2.1c0.3,0.7,0.6,1.3,1,1.9c0.4,0.6,0.8,1.2,1.2,1.7c0.2,0.3,0.5,0.5,0.7,0.7
					c0.3,0.2,0.5,0.4,0.8,0.5c0.5,0.3,1.3,0.5,1.8,0.5c0.4,0,0.8,0,1.1-0.1c0.1,0,0.3-0.1,0.4-0.1l0.5-0.2c0.3-0.1,0.6-0.4,0.9-0.5
					c0.3-0.2,0.5-0.4,0.8-0.7c0.5-0.5,1-1.1,1.3-1.7c0.4-0.6,0.8-1.3,1.1-1.9c0.3-0.7,0.6-1.4,0.8-2.1c0.2-0.7,0.4-1.4,0.6-2.2
					c0.1-0.7,0.3-1.5,0.4-2.2c0.1-0.8,0.1-1.5,0.2-2.3l0,0c0-0.2,0.2-0.3,0.4-0.3c0.2,0,0.3,0.2,0.3,0.3c0,0.8,0,1.6,0,2.3
					c0,0.8-0.1,1.6-0.2,2.3c-0.1,0.8-0.3,1.5-0.5,2.3c-0.2,0.8-0.4,1.5-0.7,2.3c-0.3,0.7-0.6,1.5-1,2.2c-0.4,0.7-0.9,1.4-1.4,2
					c-0.3,0.3-0.6,0.6-0.9,0.9c-0.4,0.2-0.7,0.5-1.1,0.7l-0.6,0.3c-0.2,0.1-0.5,0.1-0.7,0.2c-0.5,0.2-0.8,0.1-1.2,0.2
					c-0.4,0-0.5,0-0.8,0c-0.2,0-0.4-0.1-0.7-0.1c-0.4-0.1-0.9-0.3-1.3-0.5c-0.4-0.2-0.7-0.4-1.1-0.7c-0.3-0.3-0.7-0.5-1-0.9
					c-0.6-0.6-1.1-1.3-1.5-2c-0.4-0.7-0.8-1.4-1.1-2.2c-0.3-0.7-0.6-1.5-0.8-2.3c-0.2-0.8-0.4-1.6-0.6-2.3c-0.1-0.8-0.3-1.6-0.3-2.4
					c-0.1-0.8-0.1-1.6-0.1-2.4c0-0.6,0.4-1.1,1-1.1c0.6,0,1.1,0.4,1.1,1v0.1v0c0,0.8,0,1.6-0.1,2.4c0,0.8-0.2,1.6-0.3,2.4
					c-0.1,0.8-0.3,1.6-0.5,2.4c-0.2,0.8-0.5,1.6-0.8,2.3c-0.3,0.8-0.7,1.5-1.1,2.2c-0.4,0.7-0.9,1.4-1.5,2c-0.3,0.3-0.6,0.6-1,0.9
					c-0.4,0.3-0.7,0.5-1.2,0.7l-0.6,0.3c-0.2,0.1-0.5,0.2-0.8,0.2l-0.4,0.1c-0.1,0-0.2,0-0.3,0l-0.6,0.1l-0.1,0h0l0,0l0,0l-0.1,0
					l-0.2,0l-0.4,0c-0.2,0-0.5-0.1-0.7-0.1c-0.5-0.1-0.9-0.3-1.3-0.5c-0.4-0.2-0.8-0.5-1.2-0.7c-0.3-0.3-0.7-0.6-1-0.9
					c-0.6-0.6-1.1-1.3-1.6-2c-0.4-0.7-0.8-1.5-1.1-2.2c-0.3-0.8-0.6-1.5-0.8-2.3c-0.2-0.8-0.4-1.6-0.6-2.4c-0.1-0.8-0.3-1.6-0.3-2.4
					c-0.1-0.8-0.1-1.6-0.1-2.4c0-0.7,0.5-1.2,1.2-1.3c0.7,0,1.2,0.5,1.3,1.2v0.1v0c0,0.8,0,1.6-0.1,2.4c-0.1,0.8-0.2,1.6-0.3,2.4
					c-0.2,0.8-0.3,1.6-0.6,2.4c-0.2,0.8-0.5,1.6-0.8,2.3c-0.3,0.8-0.7,1.5-1.1,2.2c-0.4,0.7-1,1.4-1.6,2c-0.3,0.3-0.6,0.6-1,0.9
					c-0.4,0.2-0.7,0.5-1.2,0.7l-0.6,0.3c-0.2,0.1-0.5,0.1-0.7,0.2c-0.6,0.2-0.7,0.1-1.4,0.2c-1-0.1-1.9-0.3-2.7-0.7
					c-0.4-0.2-0.8-0.5-1.1-0.7c-0.3-0.3-0.7-0.6-1-0.9c-0.6-0.6-1.1-1.3-1.5-2c-0.4-0.7-0.8-1.5-1.1-2.2c-0.3-0.8-0.6-1.5-0.8-2.3
					c-0.2-0.8-0.4-1.6-0.5-2.4c-0.1-0.8-0.2-1.6-0.3-2.4c-0.1-0.8-0.1-1.6-0.1-2.4v0c0-0.5,0.4-1,0.9-1c0.5,0,1,0.4,1,0.9l0,0.1
					c0,0.8,0,1.6-0.1,2.4c-0.1,0.8-0.2,1.6-0.3,2.4c-0.2,0.8-0.3,1.6-0.6,2.3c-0.2,0.8-0.5,1.5-0.8,2.3c-0.3,0.7-0.7,1.5-1.1,2.2
					c-0.4,0.7-0.9,1.4-1.5,2c-0.3,0.3-0.6,0.6-0.9,0.9c-0.4,0.2-0.7,0.5-1.1,0.7l-0.6,0.3c-0.2,0.1-0.5,0.1-0.7,0.2
					c-0.5,0.2-0.7,0.1-1.3,0.2c-0.9-0.1-1.8-0.3-2.6-0.7c-0.4-0.2-0.7-0.5-1.1-0.7c-0.3-0.3-0.6-0.5-0.9-0.9c-0.6-0.6-1.1-1.3-1.5-2
					c-0.4-0.7-0.8-1.4-1-2.2c-0.3-0.7-0.5-1.5-0.7-2.3c-0.2-0.8-0.4-1.5-0.5-2.3c-0.1-0.8-0.2-1.6-0.2-2.3c-0.1-0.8,0-1.6,0-2.3
					c0-0.2,0.2-0.3,0.4-0.3C106.4,129.9,106.6,130.1,106.6,130.3"/>
			</g>
			<g class="st24">
				<g>
					<g>
						<path class="st8" d="M106.4,129.1c0.1,0.8,0.1,1.5,0.2,2.3c0.1,0.7,0.2,1.5,0.4,2.2c0.2,0.7,0.3,1.5,0.6,2.2
							c0.2,0.7,0.5,1.4,0.8,2.1c0.3,0.7,0.6,1.3,1,1.9c0.4,0.6,0.8,1.2,1.3,1.7c0.2,0.3,0.5,0.5,0.8,0.7c0.3,0.2,0.6,0.4,0.9,0.5
							c0.6,0.3,1.2,0.4,1.9,0.5c0.2,0,0.8,0,1-0.2c0.1,0,0.3-0.1,0.4-0.1l0.4-0.2c0.3-0.1,0.6-0.4,0.8-0.5c0.2-0.2,0.5-0.4,0.8-0.7
							c0.5-0.5,0.9-1.1,1.3-1.7c0.4-0.6,0.7-1.3,1-1.9c0.3-0.7,0.5-1.4,0.7-2.1c0.2-0.7,0.4-1.4,0.5-2.2c0.1-0.7,0.2-1.5,0.3-2.2
							c0.1-0.7,0.1-1.5,0.1-2.2h1.9c0,0.7,0,1.5,0.1,2.2c0.1,0.7,0.2,1.5,0.3,2.2c0.1,0.7,0.3,1.4,0.5,2.1c0.2,0.7,0.4,1.4,0.7,2
							c0.3,0.7,0.6,1.3,1,1.9c0.4,0.6,0.8,1.2,1.3,1.6c0.2,0.3,0.5,0.4,0.7,0.7c0.3,0.2,0.5,0.4,0.8,0.5c0.5,0.3,1.1,0.4,1.7,0.4
							c0.1,0,0.8,0,0.9-0.1c0.1,0,0.2-0.1,0.4-0.1l0.4-0.2c0.3-0.1,0.5-0.3,0.8-0.5c0.2-0.2,0.5-0.4,0.7-0.7c0.5-0.5,0.9-1,1.2-1.6
							c0.4-0.6,0.7-1.2,1-1.9c0.3-0.7,0.5-1.4,0.7-2c0.2-0.7,0.4-1.4,0.5-2.1c0.1-0.7,0.2-1.4,0.3-2.2c0.1-0.7,0.1-1.5,0.1-2.2h2.4
							c0,0.7,0,1.5,0.1,2.2c0,0.7,0.2,1.5,0.3,2.2c0.1,0.7,0.3,1.4,0.5,2.1c0.2,0.7,0.4,1.4,0.7,2c0.3,0.7,0.6,1.3,1,1.9
							c0.4,0.6,0.8,1.1,1.2,1.6c0.2,0.3,0.5,0.4,0.7,0.7c0.3,0.2,0.5,0.4,0.8,0.5c0.3,0.1,0.5,0.3,0.8,0.3c0.1,0,0.3,0.1,0.4,0.1
							l0.2,0l0.1,0l0.1,0l0,0h0l0,0c0,0,0.1,0-0.1,0l0.6,0c0.1,0,0.2,0,0.3,0l0.2-0.1c0.1,0,0.2-0.1,0.4-0.1l0.4-0.2
							c0.3-0.1,0.5-0.3,0.8-0.5c0.2-0.2,0.5-0.4,0.7-0.7c0.5-0.5,0.9-1,1.3-1.6c0.4-0.6,0.7-1.2,1-1.9c0.3-0.7,0.5-1.3,0.7-2
							c0.2-0.7,0.4-1.4,0.5-2.1c0.1-0.7,0.3-1.5,0.3-2.2c0.1-0.7,0.1-1.5,0.1-2.2h2.1c0,0.7,0,1.5,0.1,2.2c0,0.7,0.2,1.5,0.3,2.2
							c0.1,0.7,0.3,1.4,0.5,2.2c0.2,0.7,0.4,1.4,0.7,2.1c0.3,0.7,0.6,1.3,1,1.9c0.4,0.6,0.8,1.2,1.2,1.7c0.2,0.3,0.5,0.5,0.7,0.7
							c0.3,0.2,0.5,0.4,0.8,0.5c0.5,0.3,1.3,0.5,1.8,0.5c0.4,0,0.8,0,1.1-0.1c0.1,0,0.3-0.1,0.4-0.1l0.5-0.2
							c0.3-0.1,0.6-0.4,0.9-0.5c0.3-0.2,0.5-0.4,0.8-0.7c0.5-0.5,1-1.1,1.3-1.7c0.4-0.6,0.8-1.3,1.1-1.9c0.3-0.7,0.6-1.4,0.8-2.1
							c0.2-0.7,0.4-1.4,0.6-2.2c0.1-0.7,0.3-1.5,0.4-2.2c0.1-0.8,0.1-1.5,0.2-2.3l0,0c0-0.2,0.2-0.3,0.4-0.3c0.2,0,0.3,0.2,0.3,0.3
							c0,0.8,0,1.6,0,2.3c0,0.8-0.1,1.6-0.2,2.3c-0.1,0.8-0.3,1.5-0.5,2.3c-0.2,0.8-0.4,1.5-0.7,2.3c-0.3,0.7-0.6,1.5-1,2.2
							c-0.4,0.7-0.9,1.4-1.4,2c-0.3,0.3-0.6,0.6-0.9,0.9c-0.4,0.2-0.7,0.5-1.1,0.7l-0.6,0.3c-0.2,0.1-0.5,0.1-0.7,0.2
							c-0.5,0.2-0.8,0.1-1.2,0.2c-0.4,0-0.5,0-0.8,0c-0.2,0-0.4-0.1-0.7-0.1c-0.4-0.1-0.9-0.3-1.3-0.5c-0.4-0.2-0.7-0.4-1.1-0.7
							c-0.3-0.3-0.7-0.5-1-0.9c-0.6-0.6-1.1-1.3-1.5-2c-0.4-0.7-0.8-1.4-1.1-2.2c-0.3-0.7-0.6-1.5-0.8-2.3c-0.2-0.8-0.4-1.6-0.6-2.3
							c-0.1-0.8-0.3-1.6-0.3-2.4c-0.1-0.8-0.1-1.6-0.1-2.4c0-0.6,0.4-1.1,1-1.1c0.6,0,1.1,0.4,1.1,1v0.1v0c0,0.8,0,1.6-0.1,2.4
							c0,0.8-0.2,1.6-0.3,2.4c-0.1,0.8-0.3,1.6-0.5,2.4c-0.2,0.8-0.5,1.6-0.8,2.3c-0.3,0.8-0.7,1.5-1.1,2.2c-0.4,0.7-0.9,1.4-1.5,2
							c-0.3,0.3-0.6,0.6-1,0.9c-0.4,0.3-0.7,0.5-1.2,0.7l-0.6,0.3c-0.2,0.1-0.5,0.2-0.8,0.2l-0.4,0.1c-0.1,0-0.2,0-0.3,0l-0.6,0.1
							l-0.1,0h0l0,0l0,0l-0.1,0l-0.2,0l-0.4,0c-0.2,0-0.5-0.1-0.7-0.1c-0.5-0.1-0.9-0.3-1.3-0.5c-0.4-0.2-0.8-0.5-1.2-0.7
							c-0.3-0.3-0.7-0.6-1-0.9c-0.6-0.6-1.1-1.3-1.6-2c-0.4-0.7-0.8-1.5-1.1-2.2c-0.3-0.8-0.6-1.5-0.8-2.3c-0.2-0.8-0.4-1.6-0.6-2.4
							c-0.1-0.8-0.3-1.6-0.3-2.4c-0.1-0.8-0.1-1.6-0.1-2.4c0-0.7,0.5-1.2,1.2-1.3c0.7,0,1.2,0.5,1.3,1.2v0.1v0c0,0.8,0,1.6-0.1,2.4
							c-0.1,0.8-0.2,1.6-0.3,2.4c-0.2,0.8-0.3,1.6-0.6,2.4c-0.2,0.8-0.5,1.6-0.8,2.3c-0.3,0.8-0.7,1.5-1.1,2.2c-0.4,0.7-1,1.4-1.6,2
							c-0.3,0.3-0.7,0.6-1,0.9c-0.4,0.2-0.7,0.5-1.2,0.7l-0.6,0.3c-0.2,0.1-0.5,0.1-0.7,0.2c-0.6,0.2-0.7,0.1-1.4,0.2
							c-1-0.1-1.9-0.3-2.7-0.7c-0.4-0.2-0.8-0.5-1.1-0.7c-0.3-0.3-0.7-0.6-1-0.9c-0.6-0.6-1.1-1.3-1.5-2c-0.4-0.7-0.8-1.5-1.1-2.2
							c-0.3-0.8-0.6-1.5-0.8-2.3c-0.2-0.8-0.4-1.6-0.5-2.4c-0.1-0.8-0.2-1.6-0.3-2.4c-0.1-0.8-0.1-1.6-0.1-2.4v0c0-0.5,0.4-1,0.9-1
							c0.5,0,1,0.4,1,0.9l0,0.1c0,0.8,0,1.6-0.1,2.4c-0.1,0.8-0.2,1.6-0.3,2.4c-0.2,0.8-0.3,1.6-0.6,2.3c-0.2,0.8-0.5,1.5-0.8,2.3
							c-0.3,0.7-0.7,1.5-1.1,2.2c-0.4,0.7-0.9,1.4-1.5,2c-0.3,0.3-0.6,0.6-0.9,0.9c-0.4,0.2-0.7,0.5-1.1,0.7l-0.6,0.3
							c-0.2,0.1-0.5,0.1-0.7,0.2c-0.5,0.2-0.7,0.1-1.3,0.2c-0.9-0.1-1.8-0.3-2.6-0.7c-0.4-0.2-0.7-0.5-1.1-0.7
							c-0.3-0.3-0.6-0.5-0.9-0.9c-0.6-0.6-1.1-1.3-1.5-2c-0.4-0.7-0.8-1.4-1-2.2c-0.3-0.7-0.5-1.5-0.7-2.3c-0.2-0.8-0.4-1.5-0.5-2.3
							c-0.1-0.8-0.2-1.6-0.2-2.3c-0.1-0.8,0-1.6,0-2.3c0-0.2,0.2-0.3,0.4-0.3C106.2,128.8,106.3,128.9,106.4,129.1"/>
					</g>
				</g>
			</g>
			<g class="st24">
				<g>
					<g>
						<path class="st8" d="M116.7,149.5c-0.1,1.6,0,3.1,0,4.7c0,0.8,0.1,1.5,0.2,2.3l0.2,1.1l0.3,1.1c0.2,0.7,0.5,1.4,0.9,2.1
							c0.3,0.7,0.7,1.3,1.2,1.9c0.5,0.6,1,1.1,1.6,1.5c0.6,0.4,1.2,0.6,1.8,0.8c0.6,0.2,1.3,0.2,1.7,0.2l0.6,0
							c0.2,0,0.3-0.1,0.4-0.1c0.2,0,0.5-0.2,0.8-0.3c0.5-0.3,1.1-0.6,1.5-1.1c0.5-0.4,0.9-1,1.3-1.5c0.4-0.6,0.7-1.2,1-1.8
							c0.3-0.6,0.5-1.3,0.7-2c0.2-0.7,0.3-1.4,0.4-2.1c0.1-0.7,0.1-1.4,0.2-2.2h2.6c0,0.6,0,1.3,0.1,1.9c0.1,0.6,0.2,1.3,0.3,1.9
							c0.1,0.6,0.3,1.2,0.5,1.8l0.3,0.9l0.4,0.8c0.3,0.5,0.6,1.1,1,1.6c0.4,0.5,0.8,0.9,1.2,1.3c0.5,0.4,0.9,0.7,1.4,0.9
							c0.5,0.2,1,0.3,1.6,0.3c0.1,0,0.7,0,0.9-0.1c0.2-0.1,0.4-0.1,0.7-0.2c0.5-0.2,1-0.5,1.5-0.8c0.5-0.4,0.9-0.8,1.3-1.3
							c0.4-0.5,0.7-1,1-1.5l0.4-0.8l0.4-0.9c0.2-0.6,0.4-1.2,0.6-1.8c0.2-0.6,0.3-1.3,0.3-1.9c0.1-0.6,0.1-1.3,0.1-1.9h1.9
							c0,0.6,0,1.3,0.1,2c0,0.6,0.2,1.3,0.3,1.9c0.1,0.6,0.3,1.3,0.5,1.9l0.3,0.9l0.4,0.9c0.3,0.6,0.6,1.1,1,1.6l0.6,0.7
							c0.2,0.2,0.4,0.4,0.7,0.6c0.5,0.4,1,0.7,1.5,1c0.5,0.3,1.2,0.3,1.7,0.4c0.3,0,0.7,0,1-0.1c0.3-0.1,0.5-0.1,0.8-0.2
							c0.6-0.2,1.1-0.5,1.6-0.9c0.5-0.4,1-0.8,1.4-1.3c0.4-0.5,0.8-1.1,1.1-1.6l0.5-0.9l0.4-0.9c0.2-0.6,0.4-1.3,0.6-1.9
							c0.2-0.6,0.3-1.3,0.4-2c0.1-0.7,0.1-1.3,0.2-2l0,0c0-0.2,0.2-0.3,0.3-0.3c0.2,0,0.3,0.2,0.3,0.3c0,0.7,0,1.4-0.1,2.1
							c0,0.7-0.2,1.4-0.3,2.1c-0.1,0.7-0.3,1.4-0.5,2l-0.4,1l-0.4,1c-0.3,0.6-0.7,1.2-1.1,1.8c-0.4,0.6-0.9,1.1-1.5,1.6
							c-0.6,0.5-1.2,0.9-1.9,1.2c-0.3,0.2-0.7,0.3-1.1,0.4c-0.4,0.1-0.7,0.1-1.1,0.1c-0.9,0-1.6-0.1-2.3-0.4c-0.7-0.2-1.4-0.7-2-1.1
							c-0.6-0.5-1.1-1-1.6-1.6c-0.5-0.6-0.9-1.2-1.2-1.8l-0.5-1l-0.4-1c-0.2-0.7-0.5-1.4-0.6-2.1c-0.2-0.7-0.3-1.4-0.4-2.1
							c-0.1-0.7-0.1-1.4-0.2-2.2c0-0.5,0.4-1,0.9-1c0.5,0,1,0.4,1,0.9l0,0.1l0,0c0,0.7,0,1.4-0.1,2.2c-0.1,0.7-0.2,1.4-0.3,2.1
							c-0.1,0.7-0.3,1.4-0.6,2.1l-0.4,1l-0.5,1c-0.3,0.7-0.7,1.3-1.2,1.9c-0.5,0.6-1,1.2-1.6,1.7c-0.6,0.5-1.3,0.9-2.1,1.2
							c-0.4,0.2-0.8,0.3-1.3,0.4c-0.5,0.1-0.6,0.1-1.2,0.1c-0.8,0-1.7-0.1-2.4-0.5c-0.8-0.3-1.5-0.7-2.1-1.2
							c-0.6-0.5-1.2-1.1-1.6-1.7c-0.5-0.6-0.9-1.2-1.2-1.9l-0.5-1l-0.4-1c-0.2-0.7-0.5-1.4-0.6-2.1c-0.2-0.7-0.3-1.4-0.4-2.2
							c-0.1-0.7-0.1-1.5-0.1-2.2c0-0.7,0.5-1.3,1.3-1.4c0.7,0,1.3,0.5,1.4,1.3l0,0v0.1c0,3.3-0.7,6.7-2.6,9.6c-0.5,0.7-1,1.4-1.7,2
							c-0.6,0.6-1.4,1.2-2.3,1.6c-0.5,0.2-0.9,0.4-1.4,0.5c-0.2,0.1-0.6,0.1-0.7,0.1l-0.6,0l-0.3,0l-0.2,0l-0.4,0
							c-0.2,0-0.5-0.1-0.7-0.1c-0.5-0.1-0.9-0.3-1.3-0.5c-0.4-0.2-0.8-0.5-1.1-0.8c-0.3-0.3-0.7-0.6-0.9-1c-0.6-0.7-1.1-1.3-1.5-2
							c-0.4-0.7-0.8-1.5-1.1-2.2l-0.4-1.1l-0.3-1.2l-0.2-1.2l-0.2-1.2c-0.1-0.8-0.1-1.6-0.1-2.4c0-1.6,0.1-3.1,0-4.7
							c0-0.2,0.1-0.3,0.3-0.3C116.6,149.2,116.7,149.3,116.7,149.5C116.7,149.5,116.7,149.5,116.7,149.5"/>
					</g>
				</g>
			</g>
		</g>
	</g>
	<g>
		<path class="st2" d="M277,15.5c-1.2-1.2-3.2-1.8-5.9-1.8c-2,0-4.3,0.3-6.8,1c-4.3,1.2-7.4,3.2-9.3,4.8c-0.1-0.1-0.2-0.1-0.3-0.2
			c-0.1,0-0.2-0.1-0.3-0.1c0-2.5-0.4-6.2-2.4-10.2c-2.8-5.8-6.1-9.1-9.1-9.1c-1,0-1.8,0.3-2.5,1c-2,1.9-2.1,6.7-2,11.8
			c0,0.3,0,0.6,0,0.8c0,2.7,1.1,4.7,2.7,6.3c-0.2,0.1-0.5,0.3-0.6,0.5c-1.4,1.3-2.4,4.7-2.1,7.4c0.2,2,1,3.6,2.5,4.5
			c0.8,0.5,1.6,0.7,2.5,0.7c0.9,0,1.9-0.3,2.7-0.6c-0.2,1.1-0.3,2.1-0.1,2.8c0.2,0.5,0.5,0.9,1,1.1c0.2,0.1,0.5,0.2,0.8,0.2
			c0.9,0,1.7-0.6,2.8-2c0.6,2.1,1.8,3.4,3.5,4c0.5,0.1,0.9,0.2,1.4,0.2c4,0,7.7-5.2,7.8-7.7c0-0.2,0-0.5-0.1-0.8c0.3,0,0.7,0,1,0
			c2.1,0,3.9-0.7,5.6-2.1c0.2-0.2,0.4-0.3,0.6-0.5c3.9-3.3,7.5-6.4,7.6-9.2C278.1,17.2,277.7,16.3,277,15.5z"/>
		<g>
			<g>
				<path class="st25" d="M252.3,22.6c0,0,1.6-5.6-1.8-12.7c-3.4-7.1-7.2-9.3-9-7.6c-1.8,1.7-1.5,8.1-1.5,11.3
					c0,3.2,1.7,5.1,4.9,7.2C248.2,22.9,252.1,24.1,252.3,22.6z"/>
				<path class="st26" d="M248.4,20.8c0,0-5.5-0.4-6.8,0.9c-1.3,1.2-2.9,7.3,0.1,9.2c3.1,1.9,7.8-2.6,9.6-5.2
					C253.2,23.1,252.4,21.1,248.4,20.8z"/>
				<path class="st25" d="M253.9,23.3c0,0,3.2-4.9,10.8-6.9c7.6-2,11.7-0.6,11.6,1.8c-0.1,2.4-5.1,6.4-7.6,8.5c-2.5,2.1-5,2-8.6,0.9
					C256.4,26.7,253,24.5,253.9,23.3z"/>
				<path class="st26" d="M257.9,25.1c0,0,3.9,3.9,3.8,5.7c-0.1,1.8-3.6,7-7.1,5.9c-3.5-1.1-3.1-7.6-2.3-10.7
					C253,23,255.1,22.3,257.9,25.1z"/>
			</g>
			<path class="st27" d="M250.9,30.9c-0.3,0.7-2.5,4.2-3.1,3.9l0,0c-0.6-0.3,0.6-4.2,0.9-4.9l3.7-8c0.3-0.7,1.1-1.1,1.7-0.8l0,0
				c0.6,0.3,0.9,1.1,0.5,1.8L250.9,30.9z"/>
		</g>
	</g>
</g>
</svg>
