<svg xmlns="http://www.w3.org/2000/svg" viewBox="0 0 300 400"><path fill="#FFDB4D" d="M290 210.004c0 4.398-3.598 7.996-7.996 7.996H17.996c-4.398 0-7.996-3.598-7.996-7.996V27.996C10 23.598 13.598 20 17.996 20h264.007C286.4 20 290 23.598 290 27.996v182.008z"/><path fill="#211915" d="M76.184 105.95c-8.312 0-15.075-6.764-15.075-15.076 0-8.312 6.76-15.075 15.074-15.075 8.312 0 15.075 6.76 15.075 15.074 0 8.312-6.764 15.075-15.076 15.075m0-29.065c-7.713 0-13.988 6.275-13.988 13.988s6.275 13.988 13.988 13.988c7.713 0 13.988-6.274 13.988-13.987s-6.275-13.988-13.988-13.988"/><path fill="none" d="M70.073 100.238c-.474 1.29-.622 2.548-.65 3.498.54.284 1.1.536 1.676.752-.452-.91-.75-1.966-.86-3.136l-.167-1.114zM83.185 96.04l.157 4.094c.12 1.27-.02 2.502-.393 3.6a14.57 14.57 0 0 0 3.784-2.873c-.498-1.696-1.52-3.522-3.55-4.82z"/><path fill="none" d="M69.548 96.732l-.715-4.78a2.982 2.982 0 0 1-1.823-2.48 2.988 2.988 0 0 1 1.066-2.58l-.01-.058a7.338 7.338 0 0 1 1.674-5.408 7.34 7.34 0 0 1 4.993-2.648c4.057-.38 7.666 2.61 8.046 6.667l.324 8.464c2.553 1.057 4.24 2.878 5.348 4.75a14.462 14.462 0 0 0 2.264-7.786c0-8.025-6.506-14.53-14.532-14.53-8.025 0-14.53 6.505-14.53 14.53 0 4.41 1.965 8.356 5.066 11.02.5-1.583 1.36-3.506 2.828-5.162z"/><path fill="#211915" d="M69.548 96.732c-1.47 1.657-2.33 3.58-2.83 5.164a14.53 14.53 0 0 0 2.706 1.84c.027-.95.175-2.208.65-3.497l-.526-3.508zM83.103 93.908l.082 2.133c2.03 1.298 3.05 3.125 3.548 4.822a14.56 14.56 0 0 0 1.718-2.203c-1.107-1.873-2.793-3.694-5.347-4.752zM73.903 101.138c.007 0 .005 0 0 0z"/><path fill="#211915" d="M82.976 100.16l-.167-4.35a9.864 9.864 0 0 0-.503-.267l-.076-1.958c.172.055.336.117.5.178l-.318-8.294c-.34-3.625-3.407-6.358-6.986-6.358a6.972 6.972 0 0 0-5.405 2.548 6.97 6.97 0 0 0-1.59 5.13l.04.258-.086.066a2.623 2.623 0 0 0-1.01 2.324 2.617 2.617 0 0 0 1.69 2.213l.1.04.702 4.694a10.7 10.7 0 0 1 2.546-1.958 4.728 4.728 0 0 1-1.22-.63.995.995 0 0 1-.192-1.46 1.172 1.172 0 0 1 1.565-.198c1.073.773 2.63.578 3.47-.436a1.172 1.172 0 0 1 1.564-.197.995.995 0 0 1 .19 1.462c-.77.93-1.884 1.53-3.133 1.687a4.51 4.51 0 0 1-.163.018c-.056.005-.112.005-.168.008l-.033.863c-.377.186-.725.39-1.047.605.056.295.138.584.258.855.088.198.196.388.332.54.066.08.144.14.22.187.08.042.16.062.235.057.104-.02.14-.047.217-.103a.9.9 0 0 0 .177-.226c.102-.175.17-.38.216-.592.023-.106.043-.213.054-.32.015-.11.02-.22.028-.328.002-.11.006-.22 0-.33 0-.11-.013-.22-.02-.33-.01-.094-.093-.18 0-.188.098-.01.038.06.038.153v.003c0 .438.29.874.462 1.272.085.198.268.387.4.54.065.078.18.138.254.186.04.016.096.252.134.256.02.003.057.22.076.22h.049H76v-.335l.258-.055c.035-.004.127-.037.145-.04a.792.792 0 0 0 .146-.074c.065-.06.153-.14.203-.228.104-.174.187-.382.236-.592.098-.424.12-.873.084-1.314-.01-.08-.134-.155-.053-.163.083-.01-.02.048-.02.13v.003c0 .22.24.44.29.655.027.107.144.215.178.32.03.105.116.208.157.31.083.2.21.394.346.554.066.082.156.147.237.2.042.02.09.05.134.055.023.004.047.016.07.013h.033l.017.28.01.28h.006c.053 0 .11-.298.135-.316.036-.01.078-.185.117-.21.073-.067.142-.215.195-.307.112-.18.188-.426.242-.64.027-.11.05-.235.065-.346.018-.11-.11-.23-.098-.342.014-.223-.132-.455-.132-.68v-.003c0-.027.154-.05.18-.053.027 0 .117.018.12.044.025.23.075.46.07.69-.006.117.008.232-.006.348-.01.116-.02.23-.044.345-.047.228-.11.457-.23.67a1.124 1.124 0 0 1-.228.295c-.054.04-.097.083-.17.112-.074.038-.126.043-.18.056a.7.7 0 0 1-.41-.088 1.174 1.174 0 0 1-.29-.243 2.37 2.37 0 0 1-.383-.61c-.032-.068-.057-.138-.083-.207-.012.076-.022.15-.038.226a2.39 2.39 0 0 1-.253.687c-.06.11-.144.215-.245.31-.026.022-.057.04-.086.063a.43.43 0 0 1-.103.057c-.087.04-.136.085-.192.1-.036.005-.01.043-.018.043H76.4l-.015-.04-.03-.02-.057-.012c-.04.002-.074-.017-.11-.024-.077-.014-.138-.053-.202-.083a1.248 1.248 0 0 1-.302-.257 2.378 2.378 0 0 1-.38-.628c-.02-.045-.035-.09-.052-.136-.01.046-.015.094-.025.14-.054.234-.13.467-.26.686-.062.11-.146.214-.248.306a.766.766 0 0 1-.4.175.756.756 0 0 1-.42-.103 1.23 1.23 0 0 1-.296-.256 2.39 2.39 0 0 1-.373-.626c-.033-.08-.06-.164-.09-.247-.014.084-.027.17-.046.252-.055.23-.13.46-.257.672-.06.106-.142.205-.24.292a.72.72 0 0 1-.372.162.71.71 0 0 1-.39-.098 1.182 1.182 0 0 1-.283-.247 1.642 1.642 0 0 1-.097-.128 8.33 8.33 0 0 0-1.11 1.794l.26 1.732c.12 1.277.472 2.412 1.01 3.36 1.437.476 2.972.737 4.57.737 2.25 0 4.38-.512 6.28-1.425.46-1.137.64-2.45.51-3.82zm-11.188-9.555a2.13 2.13 0 0 1-1.652.775 2.13 2.13 0 0 1-1.363-.493 2.133 2.133 0 0 1-.766-1.45 2.145 2.145 0 0 1 1.932-2.33 2.13 2.13 0 0 1 1.565.482c.44.364.712.878.766 1.448a2.124 2.124 0 0 1-.482 1.567zm6.283 9.524a1.93 1.93 0 0 1-.19.56.963.963 0 0 1-.188.25c-.044.034-.08.07-.14.096-.06.032-.105.038-.152.05a.57.57 0 0 1-.34-.076.985.985 0 0 1-.242-.205 1.992 1.992 0 0 1-.315-.515c-.023-.054-.042-.108-.062-.163-.008.06-.015.12-.027.18-.04.197-.1.394-.203.582-.05.093-.117.184-.204.264a.656.656 0 0 1-.34.16.645.645 0 0 1-.368-.09 1.05 1.05 0 0 1-.254-.22 2.053 2.053 0 0 1-.32-.53l-.005-.014c-.015.066-.025.132-.043.198a2.02 2.02 0 0 1-.127.34c-.056.11-.12.22-.224.32a.437.437 0 0 1-.082.07c-.03.02-.056.042-.102.06l-.063.028-.033.012-.02.005-.04.01-.02.004-.005-.253-.025-.254h-.004l-.015.255c-.166.01-.317.066-.415-.025-.1-.09-.172-.132-.23-.237-.06-.104-.108-.176-.154-.28a3.44 3.44 0 0 1-.2-.632c-.022-.108-.044-.21-.057-.32-.017-.113-.024-.217-.033-.33-.017-.22-.032-.436-.062-.655-.003-.023.088-.042.11-.045.023-.004.122.013.122.035v.003c0 .22-.038.44-.013.658.015.107-.01.22.014.324.02.106.028.212.057.316.06.208.13.41.236.595.053.092.106.182.18.254.07.074.15.064.226.102.077.04.14-.017.196-.017h.004l.01.066.04.026.02.013.006.003c.004-.003.008 0 .012-.003.007 0 .024-.012.04-.022a.2.2 0 0 0 .043-.035.786.786 0 0 0 .155-.217c.044-.084.08-.178.108-.275a3.325 3.325 0 0 0 .117-.927c0-.106-.007-.21-.014-.317-.01-.092-.328-.175-.236-.185.093-.01-.2.057-.2.15v.004c0 .365.495.73.633 1.065.07.166.347.326.455.454.053.065.21.117.27.157.063.035.172.054.23.05a.397.397 0 0 0 .195-.08.815.815 0 0 0 .16-.186c.086-.145.15-.318.192-.495.082-.355.1-.732.072-1.103-.008-.068.03-.128.098-.136a.11.11 0 0 1 .126.11l.013.003c.032.37.11.74.25 1.08.07.17.16.335.27.472.056.07.12.128.19.173a.435.435 0 0 0 .208.065.37.37 0 0 0 .123-.033c.03-.008.066-.04.1-.062a.84.84 0 0 0 .163-.202c.093-.155.154-.333.198-.514.087-.366.104-.75.08-1.127a.04.04 0 0 1 .037-.044.04.04 0 0 1 .045.036c.042.385.04.777-.034 1.163zm1.65-10.094a2.368 2.368 0 0 1-1.84.863 2.374 2.374 0 0 1-2.373-2.165 2.376 2.376 0 0 1 .538-1.745 2.368 2.368 0 0 1 1.84-.864c1.237 0 2.258.93 2.373 2.164a2.373 2.373 0 0 1-.538 1.746zm.99 1.08a.186.186 0 0 1-.254-.06.185.185 0 0 1 .06-.252 2.622 2.622 0 0 0 1.25-2.49 2.625 2.625 0 0 0-1.425-2.095.184.184 0 0 1 .168-.326 2.988 2.988 0 0 1 1.623 2.387 2.985 2.985 0 0 1-1.42 2.837z"/><path fill="#211915" d="M71.94 97.97a.498.498 0 0 0 .265.062.467.467 0 0 0 .24-.117.955.955 0 0 0 .186-.238c.106-.182.173-.392.22-.605.05-.228.073-.462.08-.697-.518.383-.96.8-1.34 1.243.038.053.073.108.116.156.07.08.15.145.235.196z"/><path fill="#211915" d="M71.455 97.782a2.465 2.465 0 0 1-.26-.488 3.89 3.89 0 0 1-.202-.668c-.02-.114-.044-.227-.057-.343-.018-.116-.023-.23-.034-.343a.05.05 0 0 1 .045-.054.05.05 0 0 1 .053.042c.02.113.032.227.057.336.02.11.05.22.076.328.033.107.062.216.1.32.035.107.08.21.124.31.065.14.145.272.232.395.378-.442.867-.86 1.384-1.243.008-.207.026-.416.026-.623 0-.076-.088-.143-.012-.15.075-.007.012.048.012.124v.002c0 .142.13.283.156.423.322-.217.715-.42 1.092-.606l.056-.863a4.876 4.876 0 0 1-1.902-.254c-.995.55-1.83 1.22-2.54 1.958l.48 3.193c.28-.614.648-1.22 1.113-1.795zM82.232 93.584l.076 1.958c.174.086.34.175.502.268l-.08-2.048c-.164-.06-.327-.123-.498-.178zM70.207 99.893c-.048.115-.09.23-.134.345l.167 1.114c.11 1.17.407 2.225.86 3.136.09.034.182.066.274.098-.51-.953-.84-2.058-.95-3.25l-.217-1.443zM83.342 100.134l-.157-4.093a8.577 8.577 0 0 0-.188-.116l.162 4.217c.123 1.328-.035 2.6-.448 3.716.08-.04.16-.08.237-.122.373-1.098.512-2.328.392-3.6z"/><path fill="#211915" d="M68.998 91.82a2.816 2.816 0 0 1-1.806-2.367 2.814 2.814 0 0 1 1.08-2.486l-.024-.162c-.37-3.946 2.556-7.476 6.502-7.846 3.946-.37 7.477 2.555 7.846 6.5l.32 8.368c.065.025.125.054.188.08l-.325-8.465c-.38-4.056-3.99-7.046-8.047-6.667a7.335 7.335 0 0 0-4.993 2.648 7.342 7.342 0 0 0-1.673 5.408l.01.058a2.99 2.99 0 0 0-1.067 2.58c.104 1.108.8 2.05 1.823 2.48l.715 4.78c.052-.06.105-.117.16-.176l-.71-4.733z"/><path fill="#211915" d="M70.207 99.893l-.5-3.337a8.704 8.704 0 0 0-.158.176l.524 3.506c.04-.115.085-.23.133-.345zM82.997 95.924c.064.038.126.077.188.117l-.082-2.132c-.063-.026-.123-.055-.187-.08l.08 2.096z"/><path fill="#211915" d="M83.16 100.14l-.163-4.216c-.063-.038-.123-.077-.188-.114l.166 4.348c.128 1.37-.052 2.684-.51 3.822.083-.04.164-.083.246-.125.413-1.116.57-2.387.447-3.714zM70.345 99.576c-.048.105-.095.21-.138.317l.216 1.442c.112 1.193.44 2.298.95 3.25.08.03.16.056.24.083-.536-.948-.89-2.082-1.01-3.36l-.258-1.732zM82.596 85.46c-.37-3.945-3.9-6.87-7.846-6.5-3.946.37-6.87 3.9-6.502 7.845l.024.162a2.814 2.814 0 0 0-1.08 2.486 2.818 2.818 0 0 0 1.806 2.368l.71 4.735c.052-.058.104-.116.16-.173l-.704-4.695-.1-.038a2.625 2.625 0 0 1-.68-4.537l.086-.067-.04-.258a6.97 6.97 0 0 1 1.592-5.13 6.974 6.974 0 0 1 5.405-2.548c3.58 0 6.645 2.733 6.986 6.357l.318 8.294c.062.024.127.044.187.067l-.32-8.366z"/><path fill="#211915" d="M69.707 96.556l.5 3.337c.043-.106.09-.21.137-.317l-.478-3.193-.16.173zM82.73 93.762l.08 2.048c.065.037.125.076.188.114l-.08-2.096c-.062-.023-.126-.043-.187-.066zM77.77 87.31a.33.33 0 0 0-.297.357l.164 1.753a.33.33 0 1 0 .655-.06l-.164-1.755a.33.33 0 0 0-.358-.296zM69.873 88.06a.33.33 0 0 0-.297.36l.164 1.753a.33.33 0 0 0 .655-.06l-.164-1.755a.33.33 0 0 0-.357-.297zM77.206 92.544a.33.33 0 0 0-.064-.487.39.39 0 0 0-.52.066c-1.094 1.32-3.118 1.573-4.513.567a.39.39 0 0 0-.523.066.33.33 0 0 0 .063.487c.53.38 1.13.613 1.75.707.31-.132.63-.258.97-.366l-.016.4c.027 0 .054 0 .08-.003 1.054-.097 2.07-.588 2.772-1.436z"/><path fill="#211915" d="M73.4 93.95c.316.048.636.06.954.036l.015-.4a11.18 11.18 0 0 0-.97.364z"/><path fill="#211915" d="M93.114 109.76H75.128a5.87 5.87 0 0 1-.627-.034c-10.006-.544-17.846-8.825-17.846-18.853 0-10.028 7.84-18.31 17.848-18.853.21-.023.422-.035.626-.035h17.986c.794 0 1.567.16 2.295.48a5.79 5.79 0 0 1 3.482 5.297v4.174c.03.966.708 1.794 1.65 2.012l.016.003.022.005a7.11 7.11 0 0 1 5.408 6.917 7.11 7.11 0 0 1-5.402 6.915 2.14 2.14 0 0 0-1.694 2.086v4.108c0 3.19-2.592 5.78-5.778 5.78zM75.128 72.046c-.202 0-.41.012-.62.035-9.98.542-17.795 8.797-17.795 18.794s7.815 18.252 17.793 18.794c.213.023.422.034.623.034h17.985a5.725 5.725 0 0 0 5.72-5.72v-4.107a2.2 2.2 0 0 1 1.74-2.144 7.053 7.053 0 0 0 5.355-6.857 7.05 7.05 0 0 0-5.363-6.86l-.017-.003a2.19 2.19 0 0 1-1.716-2.07V77.762a5.73 5.73 0 0 0-5.72-5.72H75.128zM83.966 151.684H62.433a5.784 5.784 0 0 1-5.777-5.778v-4.135a2.203 2.203 0 0 1 1.74-2.116 7.052 7.052 0 0 0 5.355-6.858 7.05 7.05 0 0 0-5.362-6.86c-.006-.002-.013-.002-.02-.003l-.02-.003a2.19 2.19 0 0 1-1.693-2.067v-.055V119.686a5.783 5.783 0 0 1 5.778-5.777h21.533a5.784 5.784 0 0 1 5.778 5.776v4.176c.03.965.707 1.793 1.648 2.01l.015.004a7.11 7.11 0 0 1 5.432 6.922 7.11 7.11 0 0 1-5.402 6.916 2.142 2.142 0 0 0-1.695 2.087v4.107a5.782 5.782 0 0 1-5.776 5.777zM56.713 123.82v.042c.03.966.708 1.794 1.65 2.012l.014.003a7.11 7.11 0 0 1 5.432 6.922 7.11 7.11 0 0 1-5.402 6.915 2.144 2.144 0 0 0-1.693 2.06v4.135a5.725 5.725 0 0 0 5.72 5.718h21.532a5.725 5.725 0 0 0 5.72-5.72v-4.106a2.2 2.2 0 0 1 1.74-2.144 7.052 7.052 0 0 0 5.355-6.858 7.05 7.05 0 0 0-5.362-6.86c-.006-.002-.013-.002-.02-.003l-.02-.003a2.19 2.19 0 0 1-1.693-2.067v-4.177a5.725 5.725 0 0 0-5.72-5.718H62.434a5.725 5.725 0 0 0-5.72 5.718v4.129z"/><path d="M183.882 132.034l-4.886-4.886a1.077 1.077 0 0 0-1.522 1.522l3.048 3.048H170.18a1.076 1.076 0 0 0 0 2.152h10.342l-3.048 3.048a1.077 1.077 0 0 0 1.522 1.522l4.886-4.885c.42-.42.42-1.1 0-1.52"/><path fill="#211915" d="M117.05 151.684H95.52a5.784 5.784 0 0 1-5.777-5.778v-4.135a2.203 2.203 0 0 1 1.74-2.116 7.052 7.052 0 0 0 5.356-6.858 7.052 7.052 0 0 0-5.362-6.86l-.02-.003a2.19 2.19 0 0 1-1.714-2.07v-.04-.017l.002-.01v-4.11a5.783 5.783 0 0 1 5.777-5.776h21.532a5.783 5.783 0 0 1 5.777 5.777v4.175c.03.965.707 1.793 1.648 2.01l.015.004a7.11 7.11 0 0 1 5.432 6.922 7.11 7.11 0 0 1-5.402 6.916 2.14 2.14 0 0 0-1.695 2.087v4.107a5.783 5.783 0 0 1-5.777 5.777zm-27.25-27.87v.047a2.133 2.133 0 0 0 1.69 2.02 7.11 7.11 0 0 1 5.406 6.918 7.11 7.11 0 0 1-5.402 6.915 2.144 2.144 0 0 0-1.693 2.06v4.135a5.725 5.725 0 0 0 5.72 5.72h21.532a5.725 5.725 0 0 0 5.72-5.72V141.8a2.2 2.2 0 0 1 1.74-2.143 7.052 7.052 0 0 0 5.355-6.858 7.052 7.052 0 0 0-5.362-6.86c-.006-.003-.013-.003-.02-.004l-.018-.003a2.192 2.192 0 0 1-1.695-2.067v-4.176a5.725 5.725 0 0 0-5.72-5.718H95.518a5.724 5.724 0 0 0-5.718 5.718v4.124c0-.002 0 0 0 0z"/><path d="M135.385 136.22l3.805 3.775c.35.348.92.348 1.272 0a.888.888 0 0 0 0-1.258l-2.223-2.206h6.22a5.6 5.6 0 0 0 0-11.197.933.933 0 0 0 0 1.867 3.733 3.733 0 0 1 0 7.465h-6.24l2.242-2.222a.89.89 0 0 0 0-1.26.907.907 0 0 0-1.272 0l-3.805 3.777a.89.89 0 0 0 0 1.26"/><path fill="#211915" d="M183.13 151.682h-21.533a5.784 5.784 0 0 1-5.778-5.777v-4.135a2.204 2.204 0 0 1 1.738-2.117 7.053 7.053 0 0 0 5.356-6.858 7.052 7.052 0 0 0-5.377-6.862 2.19 2.19 0 0 1-1.718-2.072v-.056-4.122a5.784 5.784 0 0 1 5.777-5.777h21.533a5.784 5.784 0 0 1 5.778 5.777v4.174a2.134 2.134 0 0 0 1.67 2.016l.02.003a7.11 7.11 0 0 1 5.407 6.917 7.11 7.11 0 0 1-5.402 6.915 2.14 2.14 0 0 0-1.695 2.086v4.108a5.785 5.785 0 0 1-5.778 5.778zm-27.252-27.866v.043a2.133 2.133 0 0 0 1.67 2.015l.02.003a7.11 7.11 0 0 1 5.407 6.917 7.11 7.11 0 0 1-5.402 6.915 2.144 2.144 0 0 0-1.693 2.06v4.135a5.725 5.725 0 0 0 5.72 5.718h21.532a5.725 5.725 0 0 0 5.72-5.718v-4.108a2.2 2.2 0 0 1 1.74-2.144 7.053 7.053 0 0 0 5.355-6.858 7.052 7.052 0 0 0-5.377-6.862 2.19 2.19 0 0 1-1.718-2.072v-4.175a5.725 5.725 0 0 0-5.72-5.718H161.6a5.725 5.725 0 0 0-5.72 5.718v4.125l-.002.006zM69.707 127.622l1.552 2.428 1.6-2.428h2.97l-3.12 4.435 3.237 4.637h-3.02l-1.77-2.495-1.72 2.494H66.52l3.17-4.62-3-4.452zM77.43 128.823v-2.243h7.218v1.82l-2.41 2.75c.943.158 1.674.554 2.19 1.19.518.634.777 1.368.777 2.2 0 1.237-.42 2.207-1.256 2.91-.84.702-1.91 1.053-3.214 1.053s-2.625-.46-3.963-1.383l1.08-2.09c1.112.786 2.107 1.18 2.984 1.18.528 0 .964-.13 1.307-.39.343-.258.514-.632.514-1.12 0-.49-.197-.877-.59-1.164-.394-.287-.94-.43-1.636-.43-.37 0-.894.107-1.568.32v-1.938l2.26-2.665H77.43z"/><path fill="#211915" d="M150.097 151.684h-21.533a5.784 5.784 0 0 1-5.777-5.778v-4.135a2.204 2.204 0 0 1 1.74-2.116 7.052 7.052 0 0 0 5.355-6.858 7.052 7.052 0 0 0-5.362-6.86l-.02-.003-.02-.003a2.19 2.19 0 0 1-1.693-2.067V123.81v-4.122a5.783 5.783 0 0 1 5.777-5.777h21.533a5.783 5.783 0 0 1 5.777 5.776v4.175c.03.967.708 1.794 1.65 2.012l.014.003a7.11 7.11 0 0 1 5.432 6.922 7.11 7.11 0 0 1-5.402 6.915 2.14 2.14 0 0 0-1.695 2.087v4.106a5.782 5.782 0 0 1-5.776 5.778zm-27.252-27.865v.042c.03.966.708 1.794 1.65 2.012l.014.003a7.11 7.11 0 0 1 5.432 6.922 7.11 7.11 0 0 1-5.403 6.915 2.144 2.144 0 0 0-1.694 2.06v4.135a5.725 5.725 0 0 0 5.72 5.718h21.532a5.725 5.725 0 0 0 5.72-5.72v-4.106a2.2 2.2 0 0 1 1.74-2.144 7.052 7.052 0 0 0 5.355-6.858 7.05 7.05 0 0 0-5.363-6.86c-.006-.002-.013-.002-.02-.003l-.02-.003a2.19 2.19 0 0 1-1.693-2.067v-4.176a5.725 5.725 0 0 0-5.72-5.717h-21.533a5.725 5.725 0 0 0-5.72 5.718V123.82z"/><path d="M102.55 133.556l4.885 4.886a1.077 1.077 0 0 0 1.522-1.522l-3.048-3.048h10.34a1.076 1.076 0 0 0 0-2.152h-10.34l3.047-3.048a1.077 1.077 0 0 0-1.522-1.522l-4.886 4.886c-.42.418-.42 1.1 0 1.52"/><path fill="#211915" d="M83.966 192.664H62.433a5.783 5.783 0 0 1-5.777-5.777v-4.135a2.203 2.203 0 0 1 1.74-2.117 7.053 7.053 0 0 0 5.355-6.858 7.05 7.05 0 0 0-5.362-6.86l-.017-.003c-.006 0-.013-.002-.02-.004a2.19 2.19 0 0 1-1.694-2.067v-.055-4.12a5.784 5.784 0 0 1 5.778-5.778h21.533a5.785 5.785 0 0 1 5.778 5.777v4.173c.03.967.707 1.794 1.648 2.012l.018.003c.008 0 .015.002.023.004a7.11 7.11 0 0 1 5.408 6.917 7.11 7.11 0 0 1-5.4 6.915 2.14 2.14 0 0 0-1.696 2.087v4.107a5.785 5.785 0 0 1-5.778 5.777zm-27.253-27.866v.043c.03.968.708 1.795 1.65 2.013l.017.003a7.11 7.11 0 0 1 5.43 6.922 7.11 7.11 0 0 1-5.403 6.915 2.144 2.144 0 0 0-1.693 2.06v4.135a5.725 5.725 0 0 0 5.72 5.718h21.532a5.725 5.725 0 0 0 5.72-5.718v-4.108a2.2 2.2 0 0 1 1.74-2.144 7.053 7.053 0 0 0 5.355-6.858 7.05 7.05 0 0 0-5.362-6.86l-.017-.003c-.006 0-.013-.002-.02-.004a2.19 2.19 0 0 1-1.694-2.066v-4.176a5.725 5.725 0 0 0-5.72-5.72H62.434a5.725 5.725 0 0 0-5.72 5.72V164.798z"/><path d="M183.882 173.013l-4.886-4.886a1.077 1.077 0 0 0-1.522 1.522l3.048 3.047H170.18a1.076 1.076 0 0 0 0 2.152h10.342l-3.048 3.047a1.077 1.077 0 0 0 1.522 1.522l4.886-4.887c.42-.418.42-1.1 0-1.52"/><path fill="#211915" d="M117.05 192.664H95.52a5.783 5.783 0 0 1-5.777-5.777v-4.135a2.203 2.203 0 0 1 1.74-2.117 7.053 7.053 0 0 0 5.356-6.858 7.052 7.052 0 0 0-5.362-6.86l-.017-.003a2.19 2.19 0 0 1-1.716-2.07v-.042-.016l.002-.01v-4.108a5.784 5.784 0 0 1 5.777-5.778h21.532a5.784 5.784 0 0 1 5.777 5.778v4.175c.03.966.707 1.793 1.648 2.01l.018.004a7.11 7.11 0 0 1 5.43 6.922 7.11 7.11 0 0 1-5.403 6.916 2.14 2.14 0 0 0-1.695 2.087v4.11a5.782 5.782 0 0 1-5.777 5.774zM89.8 164.796v.044c.03.967.707 1.794 1.648 2.012l.018.003a7.11 7.11 0 0 1 5.43 6.922 7.11 7.11 0 0 1-5.403 6.914 2.144 2.144 0 0 0-1.693 2.06v4.135a5.724 5.724 0 0 0 5.718 5.718h21.533a5.725 5.725 0 0 0 5.72-5.718v-4.108a2.2 2.2 0 0 1 1.74-2.145 7.053 7.053 0 0 0 5.356-6.858 7.052 7.052 0 0 0-5.362-6.86l-.017-.003a2.192 2.192 0 0 1-1.716-2.07v-4.177a5.725 5.725 0 0 0-5.72-5.72H95.52a5.725 5.725 0 0 0-5.718 5.72V164.796z"/><path d="M149.797 170.35l-3.805-3.776a.905.905 0 0 0-1.272 0 .888.888 0 0 0 0 1.258l2.223 2.206h-6.22a5.6 5.6 0 0 0 0 11.197.934.934 0 0 0 0-1.866 3.733 3.733 0 0 1 0-7.466h6.238l-2.24 2.222a.89.89 0 0 0 0 1.26.907.907 0 0 0 1.27 0l3.806-3.777a.89.89 0 0 0 0-1.26"/><path fill="#211915" d="M183.13 192.662h-21.533a5.785 5.785 0 0 1-5.778-5.778v-4.135a2.204 2.204 0 0 1 1.738-2.118 7.052 7.052 0 0 0 5.356-6.858 7.052 7.052 0 0 0-5.362-6.86l-.02-.003c-.006 0-.012 0-.02-.002a2.19 2.19 0 0 1-1.693-2.067l-.002-.04v-.014-4.122a5.784 5.784 0 0 1 5.78-5.777h21.532a5.784 5.784 0 0 1 5.778 5.777v4.175c.03.965.708 1.792 1.65 2.01l.014.003a7.11 7.11 0 0 1 5.432 6.922 7.11 7.11 0 0 1-5.402 6.915 2.142 2.142 0 0 0-1.695 2.087v4.107a5.783 5.783 0 0 1-5.777 5.778zm-27.252-27.866v.043c.03.965.708 1.793 1.65 2.01l.014.004a7.11 7.11 0 0 1 5.432 6.922 7.11 7.11 0 0 1-5.402 6.914 2.144 2.144 0 0 0-1.693 2.06v4.136a5.725 5.725 0 0 0 5.718 5.72h21.533a5.725 5.725 0 0 0 5.72-5.72v-4.107a2.2 2.2 0 0 1 1.74-2.145 7.052 7.052 0 0 0 5.356-6.858 7.052 7.052 0 0 0-5.362-6.86l-.02-.003-.02-.003a2.192 2.192 0 0 1-1.694-2.066v-4.176a5.725 5.725 0 0 0-5.72-5.718h-21.533a5.725 5.725 0 0 0-5.72 5.718v4.128zM70.413 168.6l1.55 2.43 1.603-2.43h2.97l-3.12 4.437 3.237 4.637h-3.02l-1.77-2.496-1.72 2.496h-2.918l3.17-4.62-3-4.453zM82.8 172.155c.297-.422.446-.83.446-1.223 0-.393-.13-.722-.388-.986-.26-.264-.59-.396-.995-.396-.742 0-1.445.53-2.108 1.585l-2.108-1.248c.55-.854 1.155-1.5 1.813-1.94.658-.437 1.495-.656 2.512-.656s1.91.324 2.682.97c.77.648 1.155 1.527 1.155 2.64 0 .607-.156 1.19-.465 1.745-.31.556-.88 1.268-1.712 2.133l-2.125 2.21h4.655v2.36H77.85v-1.956l3.457-3.542c.697-.708 1.194-1.273 1.492-1.695"/><path fill="#211915" d="M150.097 192.664h-21.533a5.783 5.783 0 0 1-5.777-5.777v-4.135a2.204 2.204 0 0 1 1.74-2.117 7.053 7.053 0 0 0 5.355-6.858 7.052 7.052 0 0 0-5.362-6.86l-.017-.003c-.007 0-.014-.002-.022-.004a2.19 2.19 0 0 1-1.693-2.067l-.002-.01v-.044-4.122a5.784 5.784 0 0 1 5.778-5.778h21.533a5.784 5.784 0 0 1 5.777 5.778v4.175a2.13 2.13 0 0 0 1.667 2.014c.007 0 .014.002.022.004a7.11 7.11 0 0 1 5.408 6.92 7.11 7.11 0 0 1-5.402 6.914 2.14 2.14 0 0 0-1.695 2.087v4.11a5.78 5.78 0 0 1-5.776 5.774zm-27.252-27.87v.046c.03.967.708 1.794 1.65 2.012l.017.003a7.11 7.11 0 0 1 5.43 6.922 7.11 7.11 0 0 1-5.403 6.914 2.144 2.144 0 0 0-1.694 2.06v4.135a5.725 5.725 0 0 0 5.72 5.718h21.532a5.725 5.725 0 0 0 5.72-5.718v-4.108a2.2 2.2 0 0 1 1.74-2.145 7.053 7.053 0 0 0 5.355-6.858 7.05 7.05 0 0 0-5.363-6.86l-.017-.003a2.19 2.19 0 0 1-1.715-2.07v-4.177a5.725 5.725 0 0 0-5.72-5.72h-21.533a5.725 5.725 0 0 0-5.72 5.72V164.796z"/><path d="M102.55 174.535l4.885 4.886a1.077 1.077 0 0 0 1.522-1.52l-3.048-3.05h10.34a1.076 1.076 0 0 0 0-2.15h-10.34l3.047-3.05a1.077 1.077 0 0 0-1.522-1.52l-4.886 4.885c-.42.418-.42 1.1 0 1.52"/><g fill="#211915"><path d="M41.406 37.06c0 .923-.365 1.518-1.095 1.787l1.458 2.058h-1.58l-1.276-1.836h-.89v1.835H36.74V35.15h2.18c.894 0 1.532.152 1.914.454.38.302.572.787.572 1.457zm-1.548.684c.16-.142.24-.37.24-.68 0-.31-.083-.522-.248-.637-.165-.115-.453-.173-.864-.173h-.963v1.704h.938c.44 0 .74-.07.898-.214zM45.168 38.863v-2.387h1.243v4.43H45.17v-.586c-.307.434-.704.65-1.19.65-.485 0-.892-.152-1.22-.457-.33-.305-.495-.756-.495-1.354v-2.684h1.243v2.412c0 .68.25 1.02.75 1.02.246 0 .46-.088.64-.266.18-.18.272-.438.272-.78zM51.448 38.518v2.387h-1.243v-2.42c0-.35-.053-.61-.16-.774-.107-.164-.28-.246-.52-.246-.238 0-.45.09-.633.267-.184.18-.276.442-.276.787v2.387H47.38v-4.43h1.236v.503c.34-.384.73-.576 1.17-.576.28 0 .533.083.76.248.23.164.4.365.515.6.17-.268.4-.476.688-.625.288-.148.577-.222.87-.222.52 0 .94.156 1.258.466.318.31.477.76.477 1.346v2.692H53.11v-2.42c0-.68-.25-1.02-.75-1.02-.246 0-.46.088-.64.266-.18.18-.272.442-.272.788zM57.828 36.402c.538 0 1.007.21 1.407.63.4.42.6.96.6 1.618 0 .658-.205 1.21-.616 1.654-.413.445-.88.667-1.404.667-.524 0-.96-.216-1.305-.65v.586h-1.234v-6.108h1.235v2.173c.34-.378.78-.568 1.318-.568zm-1.334 2.293c0 .36.1.653.3.88.2.23.443.343.73.343a.998.998 0 0 0 .748-.342c.214-.228.32-.52.32-.877 0-.358-.103-.657-.312-.898-.21-.242-.458-.362-.75-.362-.29 0-.536.12-.736.358-.2.238-.3.538-.3.897zM61.795 40.905H60.56v-6.108h1.235v6.108zM66.602 40.263c-.5.472-1.085.708-1.757.708s-1.228-.206-1.667-.62c-.44-.414-.658-.97-.658-1.667 0-.697.223-1.25.67-1.663a2.26 2.26 0 0 1 1.586-.617c.61 0 1.126.184 1.552.552.425.368.638.873.638 1.514v.658H63.74a.88.88 0 0 0 .378.593c.214.155.456.232.724.232.434 0 .79-.145 1.07-.436l.69.747zm-1.185-2.626a.938.938 0 0 0-.622-.214c-.244 0-.468.074-.67.222a.85.85 0 0 0-.355.6h1.943c-.027-.262-.126-.465-.296-.608zM69.746 35.15h1.284v2.363l2.173-2.362h1.588l-2.287 2.545c.198.274.562.786 1.095 1.535.532.75.93 1.307 1.193 1.675h-1.497l-1.688-2.272-.576.642v1.63h-1.285V35.15zM75.372 35.912a.7.7 0 0 1-.21-.514.7.7 0 0 1 .21-.514.7.7 0 0 1 .514-.21c.203 0 .375.07.514.21a.7.7 0 0 1 .21.514c0 .203-.07.375-.21.514a.7.7 0 0 1-.514.21.696.696 0 0 1-.514-.21zm1.132 4.993H75.27v-4.43h1.234v4.43zM78.95 37.365v1.984c0 .17.043.302.13.398a.41.41 0 0 0 .314.144c.23 0 .425-.104.585-.313l.46.863c-.384.35-.79.527-1.214.527-.425 0-.785-.14-1.08-.42-.293-.28-.44-.66-.44-1.144v-2.04h-.518v-.89h.52V35.15h1.242v1.326h1.07v.89h-1.07z"/></g><g fill="#211915"><path d="M36.407 47.337c.23.14.564.26.917.26.523 0 .83-.277.83-.677 0-.37-.213-.582-.748-.788-.647-.23-1.046-.565-1.046-1.123 0-.618.51-1.077 1.28-1.077.407 0 .7.094.877.194l-.14.417a1.572 1.572 0 0 0-.753-.188c-.54 0-.746.323-.746.594 0 .37.24.553.788.764.67.26 1.01.582 1.01 1.164 0 .61-.452 1.14-1.386 1.14-.382 0-.8-.112-1.01-.253l.127-.428zM39.5 46.632c.01.7.457.987.975.987.37 0 .593-.066.788-.148l.088.37c-.18.082-.493.176-.945.176-.876 0-1.4-.576-1.4-1.434s.507-1.534 1.335-1.534c.93 0 1.176.817 1.176 1.34 0 .106-.012.188-.018.24h-2zm1.516-.37c.006-.33-.135-.84-.717-.84-.524 0-.753.48-.795.84h1.51zM42.575 44.298v.817h.74v.394h-.74v1.533c0 .353.1.553.388.553.135 0 .235-.017.3-.035l.023.39c-.1.04-.26.07-.458.07-.24 0-.435-.076-.56-.217-.146-.153-.2-.406-.2-.74V45.51h-.44v-.394h.44v-.682l.507-.136zM45.814 44.622h-.012l-.664.36-.1-.395.835-.447h.44v3.82h-.5v-3.338zM47.607 47.655c0-.217.147-.37.353-.37s.347.153.347.37c0 .212-.135.37-.353.37-.206 0-.347-.16-.347-.37zM49.924 44h2.134v.428h-1.622v1.317h1.5v.423h-1.5v1.793h-.512V44zM53.205 44.316c.006.176-.123.317-.33.317a.307.307 0 0 1-.31-.317c0-.182.135-.323.323-.323.193 0 .317.14.317.323zm-.576 3.644v-2.845h.516v2.845h-.517zM55.89 47.855c-.134.07-.434.165-.816.165-.858 0-1.417-.582-1.417-1.452 0-.876.6-1.51 1.528-1.51.306 0 .576.075.717.146l-.118.4c-.124-.07-.317-.135-.6-.135-.653 0-1.005.48-1.005 1.075 0 .658.422 1.064.987 1.064.294 0 .488-.078.635-.142l.09.387zM56.356 43.787h.517v1.775h.012a.96.96 0 0 1 .37-.364c.153-.088.335-.147.53-.147.38 0 .993.236.993 1.218v1.693h-.517v-1.633c0-.458-.17-.847-.657-.847a.745.745 0 0 0-.73.764v1.716h-.516v-4.173zM61.048 47.96l-.04-.36h-.02a1.06 1.06 0 0 1-.87.424c-.575 0-.87-.406-.87-.817 0-.688.612-1.064 1.712-1.058v-.06c0-.235-.065-.658-.647-.658-.265 0-.54.082-.74.212l-.12-.34c.236-.154.577-.254.936-.254.87 0 1.08.594 1.08 1.164v1.064c0 .247.012.488.047.682h-.47zm-.077-1.45c-.563-.013-1.204.087-1.204.64 0 .335.223.494.488.494a.71.71 0 0 0 .688-.476.562.562 0 0 0 .03-.165v-.494zM62.09 47.43c.152.1.423.207.68.207.377 0 .554-.188.554-.423 0-.247-.147-.382-.53-.523-.51-.18-.75-.463-.75-.804 0-.458.37-.835.98-.835.29 0 .542.083.7.177l-.13.376a1.103 1.103 0 0 0-.58-.164c-.307 0-.477.175-.477.387 0 .235.17.34.54.482.495.187.748.434.748.857 0 .5-.388.852-1.064.852-.31 0-.598-.077-.798-.195l.127-.394zM67.903 43.787v3.44c0 .252.006.54.023.734h-.464l-.023-.493h-.013c-.16.317-.506.558-.97.558-.688 0-1.217-.582-1.217-1.446-.006-.947.582-1.53 1.276-1.53.435 0 .73.207.858.436h.012v-1.7h.517zm-.517 2.486a.95.95 0 0 0-.023-.218.76.76 0 0 0-.747-.6c-.535 0-.852.47-.852 1.1 0 .576.282 1.052.84 1.052.348 0 .665-.23.76-.617a.93.93 0 0 0 .022-.223v-.494zM68.91 46.632c.01.7.457.987.975.987.37 0 .594-.066.788-.148l.088.37c-.18.082-.493.176-.945.176-.876 0-1.4-.576-1.4-1.434s.507-1.534 1.335-1.534c.93 0 1.175.817 1.175 1.34 0 .106-.01.188-.017.24h-2zm1.515-.37c.006-.33-.135-.84-.717-.84-.523 0-.752.48-.793.84h1.51zM72.53 45.885c0-.294-.005-.535-.023-.77h.453l.023.458H73c.16-.27.424-.523.894-.523a.84.84 0 0 1 .805.57h.01c.088-.158.2-.282.317-.37.17-.13.36-.2.63-.2.375 0 .934.247.934 1.234v1.675h-.504v-1.61c0-.547-.2-.876-.617-.876-.295 0-.524.217-.612.47a.873.873 0 0 0-.04.26v1.757h-.507v-1.704c0-.453-.2-.782-.592-.782-.323 0-.56.26-.64.517a.722.722 0 0 0-.042.254v1.716h-.505v-2.075zM79.868 46.514c0 1.052-.73 1.51-1.417 1.51-.77 0-1.363-.563-1.363-1.462 0-.952.623-1.51 1.41-1.51.818 0 1.37.592 1.37 1.462zm-2.257.03c0 .623.36 1.093.865 1.093.494 0 .864-.464.864-1.105 0-.482-.242-1.093-.853-1.093-.612 0-.876.563-.876 1.104zM80.58 45.115l.558 1.6c.094.258.17.493.23.728h.017a9.82 9.82 0 0 1 .24-.73l.554-1.598h.54l-1.117 2.845h-.494l-1.083-2.845h.553zM83.643 44.316c.006.176-.124.317-.33.317a.308.308 0 0 1-.31-.317c0-.182.134-.323.322-.323.194 0 .318.14.318.323zm-.576 3.644v-2.845h.517v2.845h-.517zM84.302 45.885c0-.294-.006-.535-.023-.77h.45l.024.458h.018c.158-.27.423-.523.893-.523a.84.84 0 0 1 .805.57h.012c.088-.158.2-.282.317-.37.17-.13.358-.2.628-.2.376 0 .935.247.935 1.234v1.675h-.506v-1.61c0-.547-.2-.876-.617-.876-.294 0-.523.217-.61.47a.842.842 0 0 0-.042.26v1.757h-.506v-1.704c0-.453-.2-.782-.594-.782-.323 0-.56.26-.64.517a.722.722 0 0 0-.042.254v1.716H84.3v-2.075zM89.634 44.316c.006.176-.123.317-.33.317a.308.308 0 0 1-.31-.317c0-.182.134-.323.322-.323.195 0 .318.14.318.323zm-.576 3.644v-2.845h.517v2.845h-.517zM90.58 46.632c.013.7.46.987.977.987.37 0 .594-.066.788-.148l.088.37c-.182.082-.494.176-.946.176-.876 0-1.4-.576-1.4-1.434s.507-1.534 1.335-1.534c.93 0 1.175.817 1.175 1.34 0 .106-.01.188-.017.24h-2zm1.517-.37c.006-.33-.135-.84-.717-.84-.523 0-.752.48-.793.84h1.51zM93.097 45.885c0-.294-.006-.535-.024-.77h.46l.028.47h.013c.14-.27.47-.535.94-.535.395 0 1.006.235 1.006 1.21v1.7H95v-1.64c0-.458-.17-.84-.658-.84-.34 0-.605.24-.694.528a.76.76 0 0 0-.035.24v1.712h-.517v-2.075zM98.67 43.787v3.44c0 .252.007.54.025.734h-.465l-.024-.493h-.012c-.16.317-.506.558-.97.558-.688 0-1.217-.582-1.217-1.446-.006-.947.582-1.53 1.276-1.53.435 0 .73.207.858.436h.013v-1.7h.518zm-.517 2.486a.9.9 0 0 0-.024-.218.76.76 0 0 0-.747-.6c-.535 0-.852.47-.852 1.1 0 .576.283 1.052.842 1.052.347 0 .664-.23.758-.617a.882.882 0 0 0 .024-.223v-.494zM101.963 46.514c0 1.052-.73 1.51-1.417 1.51-.77 0-1.364-.563-1.364-1.462 0-.952.623-1.51 1.41-1.51.82 0 1.37.592 1.37 1.462zm-2.257.03c0 .623.36 1.093.864 1.093.494 0 .864-.464.864-1.105 0-.482-.24-1.093-.853-1.093s-.874.563-.874 1.104zM103.557 47.96c.012-.194.024-.482.024-.735v-3.44h.512v1.788h.012c.182-.317.51-.523.97-.523.706 0 1.205.588 1.2 1.452 0 1.017-.642 1.522-1.277 1.522-.412 0-.74-.158-.952-.535h-.018l-.023.47h-.447zm.535-1.14a.798.798 0 0 0 .8.793c.54 0 .863-.44.863-1.093 0-.57-.294-1.058-.846-1.058-.354 0-.683.24-.79.635-.01.06-.028.13-.028.212v.51zM108.272 47.96l-.04-.36h-.02a1.06 1.06 0 0 1-.87.424c-.575 0-.87-.406-.87-.817 0-.688.612-1.064 1.712-1.058v-.06c0-.235-.065-.658-.647-.658-.265 0-.54.082-.74.212l-.12-.34c.236-.154.577-.254.936-.254.87 0 1.08.594 1.08 1.164v1.064c0 .247.013.488.048.682h-.468zm-.076-1.45c-.564-.013-1.205.087-1.205.64 0 .335.224.494.49.494a.71.71 0 0 0 .687-.476.562.562 0 0 0 .03-.165v-.494zm.26-2.623l-.718.84h-.37l.517-.84h.57zM109.32 47.43c.152.1.422.207.68.207.377 0 .554-.188.554-.423 0-.247-.147-.382-.53-.523-.51-.18-.75-.463-.75-.804 0-.458.37-.835.98-.835.29 0 .542.083.7.177l-.13.376a1.103 1.103 0 0 0-.58-.164c-.306 0-.477.175-.477.387 0 .235.17.34.54.482.495.187.747.434.747.857 0 .5-.388.852-1.064.852-.31 0-.6-.077-.8-.195l.13-.394zM112.147 44.316c.006.176-.123.317-.33.317a.307.307 0 0 1-.31-.317c0-.182.135-.323.323-.323.194 0 .317.14.317.323zm-.576 3.644v-2.845h.518v2.845h-.517zM114.833 47.855c-.135.07-.435.165-.817.165-.858 0-1.417-.582-1.417-1.452 0-.876.6-1.51 1.527-1.51.305 0 .576.075.717.146l-.118.4c-.124-.07-.317-.135-.6-.135-.652 0-1.004.48-1.004 1.075 0 .658.423 1.064.987 1.064.293 0 .487-.078.634-.142l.09.387zM117.767 46.514c0 1.052-.73 1.51-1.417 1.51-.77 0-1.364-.563-1.364-1.462 0-.952.623-1.51 1.41-1.51.82 0 1.37.592 1.37 1.462zm-2.257.03c0 .623.36 1.093.864 1.093.494 0 .864-.464.864-1.105 0-.482-.24-1.093-.852-1.093-.61 0-.876.563-.876 1.104z"/></g><g><path fill="none" d="M233.03 175.182c-.217-.257-.472-.382-.78-.382-.308 0-.57.128-.798.392-.24.278-.36.618-.36 1.04 0 .08.006.16.015.236.037.053.08.104.124.15.262.278.554.412.893.412.335 0 .614-.132.853-.402.197-.224.314-.495.355-.83a1.423 1.423 0 0 0-.3-.616zM264.462 176.62c.26.275.663.41 1.002.41.335 0 .67-.132.908-.403.135-.153.26-.328.32-.532-.02-.367-.118-.666-.326-.912-.217-.257-.465-.382-.772-.382-.31 0-.79.13-1.017.392-.24.278-.577.62-.577 1.04v.04c0 .127.364.243.462.347zM256.505 176.624c.247.273.558.406.95.406.39 0 .702-.132.95-.406.14-.155.24-.332.303-.54-.023-.363-.135-.654-.345-.887a1.095 1.095 0 0 0-.862-.373c-.354 0-.636.122-.86.373-.236.262-.35.597-.35 1.023 0 .03 0 .062.002.092.056.114.128.218.213.312z"/><path fill="#442624" d="M235.48 178.894h-.01v.01h.076l-.104.436h.003l.11-.443h-.075zM233.366 176.68zM232.114 177.386c.435 0 .806-.174 1.112-.52 0-.002 0-.003.002-.003-.305.342-.673.512-1.105.512-.435 0-.816-.173-1.143-.52a1.795 1.795 0 0 1-.203-.26 2.14 2.14 0 0 1-.03-.364c0-.502.148-1.15.444-1.492.295-.34.648-.738 1.057-.738h-.004c-.412 0-.766.398-1.06.74-.296.342-.444.88-.444 1.384 0 .127.01.306.028.42.06.094.126.21.203.292.328.348.708.55 1.144.55zM233.772 172.89v-.006c-.235-.23-.44-.412-.702-.55.258.14.467.323.702.556zM233.47 176.5c-.015.03-.028.06-.045.087.017-.028.03-.058.045-.087z"/><path fill="#211915" d="M236 169.602c0-.19-.266-.602-.457-.602h-1.873c-.19 0-.67.41-.67.602v2.545c0-.303-.878-.46-1.504-.46-.915 0-1.64.357-2.317 1.063-.673.702-.974 1.61-.974 2.698 0 .95.286 1.777.81 2.462.15.295.352.57.584.82.64.688 1.246 1.05 2.09 1.05.553 0 1.31-.144 1.31-.46v.023c0 .183.332.488.516.494l.336.162h1.592c.16 0 .298-.267.336-.42l.164-.522c.014-.056.055-.193.055-.248v-9.208zm-.136 9.337l-.18.685c-.02.077-.16.375-.24.375h-1.58l-.16-.25c-.092-.002-.165-.197-.167-.29l-.01-.424c-.507.436-1.028.604-1.65.604-.794 0-1.534-.36-2.14-1.01a3.413 3.413 0 0 1-.552-.804c-.508-.657-.765-1.458-.765-2.374 0-1.042.325-1.912.966-2.58.642-.67 1.158-1.012 2.025-1.012.727 0 1.59.21 1.59.626v-2.884c0-.096.576-.602.672-.602h1.873c.096 0 .457.506.457.602v9.236c-.002.03-.13.067-.138.1z"/><path fill="#211915" d="M233.162 175.07c-.252-.297-.55-.443-.91-.443-.364 0-.668.148-.93.452-.27.31-.402.687-.402 1.15 0 .106.007.207.02.302.05.073.104.142.165.206.295.313.628.465 1.017.465.387 0 .71-.15.983-.46.224-.255.358-.575.4-.953a1.61 1.61 0 0 0-.343-.72zm-.187 1.557c-.24.27-.518.402-.853.402-.34 0-.63-.136-.892-.412a1.382 1.382 0 0 1-.124-.15 2 2 0 0 1-.014-.238c0-.42.117-.76.36-1.04.227-.263.49-.39.798-.39.308 0 .562.124.78.38.148.178.246.38.3.617-.04.335-.158.607-.355.83z"/><path fill="#211915" d="M236 169.602c0-.096-.36-.602-.457-.602h-1.873c-.095 0-.67.506-.67.602v2.884c0-.416-.865-.627-1.59-.627-.868 0-1.508.34-2.15 1.01-.64.668-.903 1.536-.903 2.578 0 .916.29 1.713.797 2.37.142.286.343.553.568.795.605.652 1.353.996 2.148.996.62 0 1.145-.2 1.654-.635l.01.365c.003.09.077.41.17.412l.16.25h1.58c.08 0 .15-.3.17-.376l.25-.564c.008-.034.136-.19.136-.223V169.6zm-.555 9.398H233.855l-.155.233-.01-.233h.31v-.385c-1 .558-1.254.84-1.96.84a2.876 2.876 0 0 1-2.098-.944c-.22-.236-.44-.495-.576-.775-.492-.633-.76-1.394-.76-2.283 0-1.005.295-1.827.906-2.468.61-.64 1.322-.96 2.143-.96.49 0 1.093.104 1.476.31.26.138-.13.32.87.55V169h2v10h-.884.438-.11z"/><path fill="#211915" d="M233.286 174.96c-.283-.336-.63-.505-1.04-.506-.41 0-.76.17-1.055.51-.295.34-.442.764-.442 1.266 0 .127.01.25.03.364.058.092.125.18.202.26.327.347.708.52 1.143.52.432 0 .8-.17 1.105-.512l.024-.03c.042-.05.08-.1.115-.154l.06-.092c.016-.028.03-.058.044-.087.106-.21.172-.443.2-.703-.06-.32-.186-.6-.384-.836zm-.18 1.782c-.275.31-.596.46-.984.46-.39 0-.722-.15-1.017-.464a1.544 1.544 0 0 1-.164-.206 2.072 2.072 0 0 1-.02-.3c0-.465.13-.843.4-1.153.264-.305.57-.453.93-.453.362 0 .66.146.912.444.17.205.286.446.343.72a1.693 1.693 0 0 1-.4.952z"/><path fill="#442624" d="M253.22 171.558l-.035.04-.423.945-1.127 1.29.005.006 1.13-1.29.424-.943.033-.038-.01-.283.007-.287h-.01l-.007.28z"/><path fill="#442624" d="M253.19 171.486h.008c-.308-.235-.643-.624-.998-.856.35.233.682.62.99.856zM247.733 173.434c-.394.363-.625.83-.7 1.398.067.642.306 1.172.72 1.587.495.493 1.094.74 1.798.74.726 0 1.352-.217 1.878-.65-.524.427-1.147.64-1.868.64a2.454 2.454 0 0 1-1.797-.738c-.416-.415-.656-.944-.722-1.587.076-.564.308-1.027.702-1.387.486-.445 1.07-.668 1.753-.668.46 0 .878.107 1.257.313a2.58 2.58 0 0 0-1.266-.32c-.683 0-1.267.224-1.753.67zM253.164 177.287l-1.243-1.276-.006.01 1.24 1.278.024.007-.032.038.04-.05z"/><path fill="#211915" d="M253.366 177l-1.198-1.063c-.065-.067-.154.063-.247.063h-.016c-.1 0-.19-.116-.253-.038-.546.68-1.23.926-2.09.926-.615 0-1.123-.25-1.554-.68-.352-.35-.554-.808-.618-1.357.07-.466.26-.85.586-1.147.424-.388.92-.582 1.52-.582.75 0 1.364.214 1.875.846.063.08.16.033.26.033h.008c.1 0 .194.048.26-.027l1.13-1.242c.024-.025.043-.03.057-.062l.4-.884a.33.33 0 0 0 .083-.27.34.34 0 0 0-.178-.288c-1.015-1.094-2.287-1.647-3.782-1.647-1.376 0-2.558.47-3.513 1.4-.957.932-1.442 2.108-1.442 3.497 0 .47.055.92.164 1.338a4.273 4.273 0 0 0 1.294 2.684c.863.837 1.987 1.263 3.343 1.263 1.336 0 2.51-.555 3.49-1.65a.323.323 0 0 0 .037-.036l.47-.56a.347.347 0 0 0-.084-.518zm-.047.405l-.47.56a.152.152 0 0 1-.027.024c-.947 1.06-2.08 1.598-3.368 1.598-1.31 0-2.393-.41-3.22-1.214a4.1 4.1 0 0 1-1.245-2.59 5.143 5.143 0 0 1-.162-1.307c0-1.34.467-2.475 1.39-3.372.922-.898 2.064-1.352 3.393-1.352 1.456 0 2.693.544 3.68 1.616.03.01.058.033.078.06.022.032.032.07.03.105a.173.173 0 0 1-.04.148l-.015.018-.413.92a.152.152 0 0 1-.028.044l-1.13 1.282a.17.17 0 0 1-.13.053h-.004c-.05 0-.1-.02-.13-.06-.547-.675-1.205-1-2.012-1-.644 0-1.18.204-1.636.622-.36.33-.57.744-.644 1.263.064.592.29 1.083.67 1.462a2.267 2.267 0 0 0 1.675.688c.917 0 1.645-.27 2.228-.994.03-.038.077.018.127.018h.008c.047 0 .09-.062.124-.03l1.215 1.208c.045.02.08.04.093.09.014.056 0 .096-.036.14z"/><path fill="#211915" d="M253.26 177.138l-1.215-1.167c-.033-.033-.077.03-.124.03h-.007c-.05 0-.096-.055-.127-.016-.583.723-1.31 1.034-2.227 1.034-.663 0-1.21-.245-1.676-.708-.38-.38-.606-.88-.67-1.472.073-.52.283-.937.644-1.267.457-.417.992-.623 1.636-.623.807 0 1.465.322 2.01.997.033.04.08.057.132.057h.003a.17.17 0 0 0 .13-.052l1.13-1.285a.17.17 0 0 0 .028-.042l.413-.918.017-.018a.173.173 0 0 0 .04-.148.172.172 0 0 0-.11-.166c-.985-1.073-2.222-1.617-3.678-1.617-1.33 0-2.47.455-3.394 1.352-.923.898-1.39 2.032-1.39 3.372 0 .462.054.9.162 1.307a4.1 4.1 0 0 0 1.244 2.59c.83.806 1.913 1.215 3.22 1.215 1.29 0 2.422-.54 3.37-1.6a.204.204 0 0 0 .025-.025l.47-.56a.17.17 0 0 0 .034-.157.165.165 0 0 0-.09-.11zm-.552.862h-.004c-.922 1-2.008 1.502-3.258 1.502-1.255 0-2.29-.41-3.1-1.203-.704-.687-1.102-1.547-1.196-2.544a5.023 5.023 0 0 1-.16-1.27c0-1.3.447-2.392 1.34-3.263.89-.87 1.98-1.308 3.27-1.308.975 0 1.84-.008 2.6.494.354.23.69.59.997.59H253.225l-.01.287c.005.004.01.145.012.15l-.034.103-.423.977-1.13 1.305c-.003-.002-.005.004-.007.002l-.003.008a2.95 2.95 0 0 0-.88-.75 2.588 2.588 0 0 0-1.256-.313c-.684 0-1.267.222-1.753.667-.393.36-.626.823-.7 1.387.066.643.306 1.172.722 1.587a2.452 2.452 0 0 0 1.797.74c.72 0 1.343-.214 1.867-.64.172-.14.334-.306.485-.494l.002.002.007-.008 1.244 1.276.023.007-.04.116-.44.59z"/><path fill="#442624" d="M218 178.777v-1.858l.216-.242-.216.25zM216.564 178.894h.006v.446h-.006zM224.227 178.902l.01-.008h-.368zM224.256 178.878h-.004l.002.002zM218 173.71v-3.635 3.643zM218.414 178.894h.135l-.147.393.16-.412h-.04v.02zM224.262 170.145l-.007.012.017-.018h-.03l-.006.005z"/><path fill="#442624" d="M220.962 174.26c.322.45.814 1.207 1.48 2.144.8 1.125 1.4 1.595 1.802 2.595h.028c-.402-1-1.01-1.47-1.822-2.61-.664-.93-1.158-1.65-1.48-2.1l2.74-3.115.56-1.175h-.022l-.548 1.143-2.738 3.117z"/><path fill="#211915" d="M223.355 177l-.623-.876c-.56-.786-1-1.4-1.318-1.84l2.55-2.808a.36.36 0 0 0 .052-.072l.56-1.073a.342.342 0 0 0 .04-.157c.006-.06-.003-.516-.028-.572-.056-.123-.18-.6-.316-.6h-2.424c-.096 0-.127.437-.192.508l-2.656 3.33v-2.7c0-.19-.277-1.138-.47-1.138h-1.967c-.19 0-.564.948-.564 1.14V179.34c0 .19.372.66.563.66h1.818c.143 0 .27-.244.323-.377l.244-.543a1.24 1.24 0 0 0 .053-.35v-1.68l.257-.362 2.084 3.016c.066.088.138.297.248.297h2.122c.082 0 .16-.185.223-.238l.54-.536c.046-.032.083-.115.11-.165a.384.384 0 0 0-.033-.38c-.29-.388-.69-.97-1.195-1.68zm1.07 1.943a.174.174 0 0 1-.058.067l-.547.706c-.03.026-.07.284-.112.284h-2.122c-.055 0-.106-.27-.14-.314l-2.594-3.153-.852.45v1.79c0 .002.353.002.353.003.034.048.217.108.196.163l-.095.707c-.026.066-.002.353-.073.353h-1.818c-.096 0-.564-.565-.564-.66v-9.2c0-.096.468-.14.564-.14h1.968c.096 0-.53.044-.53.14v3.14l3.367-3.24c.032-.035.43-.04.478-.04h2.425c.068 0 .13.024.158.087a.14.14 0 0 1 .014.087c0 .03-.005.056-.02.083l-.56 1.07c-.008.014-.017.025-.026.036l-2.645 2.91c.322.45.788 1.098 1.4 1.954l.62.873c.507.713.907 1.276 1.198 1.665.04.05.046.12.016.178z"/><path fill="#211915" d="M223.212 177.097l-.62-.873c-.612-.856-1.078-1.506-1.4-1.954l2.645-2.91c.01-.012.02-.024.025-.037l.56-1.073a.188.188 0 0 0 .02-.087c.006-.032 0-.048-.012-.078-.028-.062-.09-.086-.158-.086h-2.425c-.048 0-.446.002-.48.038L218 173.28v-3.14c0-.097.627-.14.53-.14h-1.967c-.096 0-.564.043-.564.14v9.2c0 .095.467.66.563.66h1.818c.072 0 .136-.288.162-.354l.182-.587c.02-.055-.338-.177-.372-.224l-.353-.063v-1.79l.853-.573 2.418 3.275c.034.044.26.314.316.314h2.122c.04 0 .08-.26.112-.285l.547-.584c.025-.016.045-.1.06-.126a.234.234 0 0 0-.017-.212c-.29-.388-.69-.982-1.198-1.695zm1.044 1.903l-.002-.006c.003.004.007.006.01.006h-.026l-.01-.044.02-.208-.547.252h-2.12l-2.37-3.036-.732.623-.478.332V179h.545l-.152.168-.02-.168H216V170h2v3.71l3.84-3.71h2.423-.023.03l-.016.003-.006-.003h.022l-.56 1.158-2.74 3.057c.323.45.816 1.224 1.48 2.155.812 1.14 1.42 1.63 1.822 2.63h-.028.012z"/><path fill="#442624" d="M225.295 178.894h.005zM225.292 178.87v.01-.01zM225 178.777V172h1.205H225v6.777zM227 172v6.777V172h-.743.743zM227.056 178.903h.12l-.075.437h.005l.08-.443h-.116v-.003h-.014z"/><path fill="#211915" d="M227 172v6.865c0 .027.178.053.166.076l.017.673c-.014.083.006.386-.078.386h-1.75c-.085 0-.158-.308-.17-.394l-.125-.592c0-.01-.06-.15-.06-.15v-6.734c0-.096.195-.13.29-.13h.26c-.085 0-.165 0-.24-1h-.02c-.19 0-.292.94-.292 1.13v6.734c0 .017-.026.035-.024.052l.05.627c.025.17.157.456.33.456h1.75c.167 0 .31-.28.34-.444l-.2-.486c.016-.04-.247-.16-.247-.205v-6.734V171h.15c-.075 1-.155 1-.238 1h.09z"/><path fill="#211915" d="M227 172v7h-.284.468-1.836l-.21-.287-.138.18v-.116.103l.304.12H225v-7h1.155-.861c-.096 0-.292.036-.292.13v6.735s.06.02.062.028l.094.713c.012.085.115.393.2.393h1.75c.084 0 .156-.305.17-.387l-.11-.55c.013-.023-.165-.17-.165-.198v-6.734-.13h-.694.694z"/><path fill="#442624" d="M225.336 171.276c-.013-.023-.026-.046-.037-.07.01.025.023.047.036.07zM225.25 171.087c0-.003 0-.007-.002-.01l.003.01zM227.23 171.017c.08-.152.12-.323.12-.512 0-.16-.03-.306-.087-.44.053.13.08.272.08.426 0 .187-.044.353-.12.504a.977.977 0 0 1-.27.492.99.99 0 0 1-.73.297.993.993 0 0 1-.844-.436c.035.052.075-.077.122-.03.18.18.398.11.65.11h.155c.253 0 .472.07.652-.11.138-.14.228-.118.27-.3z"/><path fill="#442624" d="M226.23 171.792c.028 0 .052-.005.078-.007h-.154c.026.002.05.007.077.007z"/><path fill="#211915" d="M226.244 169.058c-.404 0-.75.14-1.03.42a1.4 1.4 0 0 0-.42 1.027c0 .18.028.35.085.506.045.28.173.133.38.34.016.016.035-.35.053-.35h.28c-.074 0-.146.292-.21.226-.185-.183-.297-.206-.335-.456-.054-.142-.08-.2-.08-.363 0-.355.124-.61.37-.855s.55-.345.907-.345c.356 0 .66.137.907.382.246.244.37.555.37.91 0 .208-.043.403-.13.575-.05.204-.154-.005-.31.15-.066.066-.138-.224-.212-.224h.28c.018 0 .038.366.055.35.173-.173.292-.18.352-.407.093-.192.14-.306.14-.534 0-.403-.143-.7-.423-.98s-.627-.372-1.03-.372zM226.256 172.136c.017 0 .034-.004.05-.005h-.15c.016.002.032.005.05.006h.05zM226.15 171.957c-.205 0-.392 0-.557-.235h-.28c.074.235.154.235.238.235h.6zM226.312 171.957h.6c.084 0 .164 0 .238-.235h-.28c-.166.235-.353.235-.558.235z"/><path fill="#211915" d="M226.15 171.957h-.6c.182 0 .384.235.605.235h.152c.22 0 .423-.235.605-.235h-.6c-.027 0-.053.007-.08.007-.03 0-.055-.007-.082-.007zM225.502 171.104c-.047-.047-.088.098-.123.046-.017-.023-.03.052-.044.028-.013-.023-.026.004-.037-.02-.02-.04-.035-.054-.05-.095 0-.003 0 .006-.002.002a.94.94 0 0 1-.037-.15 1.106 1.106 0 0 1-.08-.428c0-.31.107-.57.32-.783.214-.214.476-.32.786-.32s.572.108.785.322a1.116 1.116 0 0 1 .328.8c0 .19-.04.36-.12.512-.04.182-.13-.05-.27.087-.18.18-.397-.104-.65-.104h.56c.075 0 .147.293.212.227.156-.155.26-.14.31-.345.087-.172.13-.266.13-.474 0-.355-.124-.61-.37-.855s-.55-.345-.907-.345c-.356 0-.66.137-.907.382-.246.245-.37.556-.37.91 0 .165.026.324.08.466.038.25.15.078.334.26.066.067.138-.223.212-.223h.56c-.252-.003-.47.28-.65.1zM226.312 171.957c.205 0 .392 0 .557-.235h-.562c-.026 0-.05.007-.077.007-.026 0-.05-.008-.076-.008h-.56c.164.235.35.235.556.235h.162z"/><path fill="#211915" d="M226.23 171.965c.03 0 .055-.006.082-.007h-.162c.027.002.053.007.08.007z"/><path fill="#442624" d="M236.892 177.758l-.067.096h-.044l.004.012h.032zM242.044 178.097a1.93 1.93 0 0 1-.05.126c.02-.04.035-.084.05-.126zM242.3 177.512c-.022.06-.044.12-.07.177.027-.058.048-.118.07-.178zM242.07 178.02c.012-.036.027-.068.036-.104.002-.003.003-.007.006-.01l-.017.025-.024.09zM239.74 174.34l.026-.002H239.74zM240.43 177.418l.006-.006-.003-.003c-.142.093-.333.14-.573.14-.795 0-1.545-.27-2.248-.812l-.007.01c.703.543 1.452.815 2.247.815.242 0 .435-.05.577-.145zM242.042 173.732l-.65 1.16.006.004.653-1.162.23-.872.017-.03-.01-.005-.015.03zM239.61 174.343l-.084.007.084-.007zM240.153 174.723c.427.135.73.237.91.308.18.073.397.183.648.334.47.285.704.76.704 1.426 0 .247-.034.475-.1.685.07-.213.11-.443.11-.695 0-.663-.235-1.136-.704-1.42-.25-.15-.467-.26-.647-.332a15.63 15.63 0 0 0-.91-.306 6.214 6.214 0 0 1-.87-.326 1.29 1.29 0 0 1-.007 0c.187.095.473.204.867.327z"/><path fill="#211915" d="M238.952 177.068zM240.765 174.736a2.608 2.608 0 0 0-.566-.183l.013.005c.214.066.398.126.552.178z"/><path fill="#211915" d="M241.898 175.065c-.05-.03-.1-.06-.15-.087l.604-1.074a.405.405 0 0 0 .033-.08l.22-.83a.346.346 0 0 0-.115-.447c-.85-.57-1.718-.86-2.58-.86-.87 0-1.597.224-2.16.662-.587.458-.886 1.06-.886 1.792 0 .263.04.508.12.73v.077c0 .597.226 1.092.657 1.444h-.028c-.017 0-.034 0-.052.003a.346.346 0 0 0-.23.143l-.714 1.01a.347.347 0 0 0-.18.343.34.34 0 0 0 .05.2l.112.425c.02.07.06.135.118.18.45.363.945.634 1.473.808.547.18 1.074.272 1.564.272.78 0 1.436-.213 1.95-.633.36-.294.603-.66.722-1.088.227-.367.342-.796.342-1.275 0-.79-.293-1.368-.87-1.717zm.368 2.92a1.95 1.95 0 0 1-.672 1.025c-.482.394-1.1.594-1.84.594-.472 0-.98-.09-1.51-.264a4.515 4.515 0 0 1-1.42-.778.176.176 0 0 1-.058-.09l-.125-.473a.2.2 0 0 1-.024-.096v-.006a.172.172 0 0 1 .115-.21l.74-1.05a.174.174 0 0 1 .116-.072l.026-.002c.038 0 .075.013.106.036.668.515 1.39.777 2.143.777a1.2 1.2 0 0 0 .276-.028 3.057 3.057 0 0 0-.73-.315 9.04 9.04 0 0 1-.808-.285 4.54 4.54 0 0 1-.648-.35c-.525-.326-.792-.815-.792-1.453 0-.035 0-.07.003-.103a1.966 1.966 0 0 1-.122-.703c0-.674.276-1.23.82-1.656.53-.415 1.222-.625 2.053-.625.827 0 1.662.28 2.484.83.075.05.1.148.055.227l-.007.01-.224.85a.176.176 0 0 1-.017.04l-.653 1.162a.187.187 0 0 1-.05.056c.097.05.2.11.31.175.523.317.788.845.788 1.57-.003.456-.113.862-.332 1.206zm-3.582-1.014z"/><path fill="#211915" d="M241.808 175.212a6.713 6.713 0 0 0-.31-.175.164.164 0 0 0 .05-.057l.653-1.16a.167.167 0 0 0 .017-.04l.224-.852.007-.01a.173.173 0 0 0-.055-.228c-.82-.55-1.656-.83-2.483-.83-.832 0-1.523.21-2.054.625-.544.425-.82.982-.82 1.657 0 .254.04.49.123.703a1.745 1.745 0 0 0-.004.103c0 .638.267 1.127.792 1.453.24.152.457.27.648.35.187.08.46.176.808.286.317.1.562.205.73.314a1.2 1.2 0 0 1-.275.028c-.754 0-1.475-.26-2.144-.777a.178.178 0 0 0-.132-.033.172.172 0 0 0-.115.07l-.74 1.052a.167.167 0 0 0-.087.06.17.17 0 0 0-.03.15v.005c0 .032.01.066.026.095l.124.473c.01.035.03.067.06.09.433.35.91.61 1.417.778.532.176 1.04.265 1.512.265.74 0 1.36-.2 1.84-.594.338-.276.564-.62.672-1.023.22-.344.33-.75.33-1.205 0-.726-.263-1.253-.786-1.57zm.422 2.477a1.742 1.742 0 0 1-.12.215c0 .003-.002.007-.005.01-.01.036-.024.068-.035.103a1.025 1.025 0 0 1-.027.078c-.015.042-.03.085-.05.126a1.81 1.81 0 0 1-.518.67c-.455.373-1.03.557-1.73.557a4.65 4.65 0 0 1-1.458-.257 4.314 4.314 0 0 1-1.364-.75l-.133-.504c-.006-.006-.012-.01-.018-.014l.01-.013v.065l-.01.022h.012-.003.045l.068-.17.71-1.048s0-.017.002-.017l.007-.02c.703.543 1.453.81 2.248.81.24 0 .43-.05.573-.144a.766.766 0 0 0-.192-.18c-.182-.124-.446-.24-.792-.35a9.22 9.22 0 0 1-.793-.28 4.59 4.59 0 0 1-.624-.338c-.473-.295-.71-.733-.71-1.312 0-.045.004-.088.007-.132a1.765 1.765 0 0 1-.126-.678c0-.624.252-1.132.755-1.526.502-.394 1.127-.59 1.922-.59.796 0 1.656.267 2.362.803 0 .002.03.003.033.005l-.004.03-.225.87-.65 1.163a.008.008 0 0 1-.004-.004v-.162c-.544-.373-1.085-.728-1.623-.728h-.025c-.046 0-.09.17-.13.174-.03.002-.058.09-.085.092-.015.002-.03.046-.045.048-.07.01-.134.044-.19.06.187.096.477.215.87.338.427.134.73.24.91.312.18.07.397.184.648.334.47.284.703.76.703 1.422 0 .25-.04.482-.11.695-.004.012-.01.025-.013.037-.022.06-.043.12-.07.177zm-1.465-2.954a21.893 21.893 0 0 0-.552-.178c-.005 0-.01-.003-.014-.005.187.037.376.098.565.183z"/><path fill="#442624" d="M259.542 172.652c.16.113.315.238.46.382.68.674 1.018 1.5 1.018 2.48a3.5 3.5 0 0 1-.28 1.408c-.08.392-.227.752-.446 1.08.223-.33.375-.69.456-1.085.186-.427.28-.896.28-1.407 0-.976-.34-1.8-1.018-2.47a3.615 3.615 0 0 0-.47-.388zM260.234 178.086c-.028.04-.057.077-.087.115.03-.037.06-.076.087-.114zM258.764 176.727c-.01.014-.023.028-.034.042.01-.015.023-.03.034-.043zM257.445 177.387c.49 0 .892-.174 1.206-.52l.004-.005c-.313.343-.713.514-1.2.514-.49 0-.892-.173-1.206-.52a1.696 1.696 0 0 1-.298-.458 2.61 2.61 0 0 1-.006-.18c0-.51.146-1.167.437-1.492.29-.324.663-.727 1.116-.727h-.005c-.454 0-.827.4-1.118.727-.292.326-.437.865-.437 1.378 0 .06.002.18.006.237.076.17.175.354.3.49.313.35.716.555 1.205.555z"/><path fill="#211915" d="M256.12 176.355c.067.14.153.27.257.385.282.31.635.463 1.078.463.443 0 .795-.15 1.077-.463.163-.18.28-.393.35-.636-.02-.418-.15-.753-.39-1.024-.26-.29-.585-.43-.992-.43-.407 0-.73.14-.99.43-.265.295-.393.668-.393 1.14 0 .045 0 .09.004.135zm.52-1.16c.224-.25.505-.372.86-.372.356 0 .638.122.863.373.21.234.322.525.345.888a1.386 1.386 0 0 1-.303.54c-.248.272-.558.405-.95.405-.392 0-.703-.133-.95-.407a1.367 1.367 0 0 1-.213-.312l-.002-.09c0-.427.114-.762.35-1.024z"/><path fill="#211915" d="M257.455 171.686c-1.116 0-2.057.373-2.8 1.107-.743.736-1.12 1.65-1.12 2.717 0 .71.17 1.358.502 1.925.172.49.457.933.85 1.318.692.682 1.572 1.028 2.614 1.028s1.923-.345 2.616-1.027a3.4 3.4 0 0 0 .965-1.732c.196-.46.295-.967.295-1.51 0-1.067-.377-1.98-1.12-2.717-.743-.734-1.685-1.107-2.8-1.107zm3.46 5.284a3.226 3.226 0 0 1-.922 1.66c-.66.65-1.498.98-2.494.98-.996 0-1.834-.33-2.494-.98a3.266 3.266 0 0 1-.813-1.268 3.563 3.563 0 0 1-.487-1.85c0-1.02.36-1.893 1.07-2.595.708-.7 1.608-1.057 2.677-1.057 1.068 0 1.97.356 2.678 1.057.71.702 1.07 1.575 1.07 2.594 0 .526-.095 1.017-.286 1.46z"/><path fill="#211915" d="M257.455 171.86c-1.068 0-1.97.355-2.678 1.056-.71.702-1.07 1.575-1.07 2.594 0 .686.165 1.31.488 1.85.163.472.436.9.813 1.27.66.65 1.5.978 2.493.978.996 0 1.835-.33 2.495-.978.48-.47.788-1.03.92-1.66.19-.444.288-.934.288-1.46 0-1.02-.36-1.892-1.07-2.594-.71-.7-1.61-1.057-2.678-1.057zm3.294 5.058a2.97 2.97 0 0 1-.457 1.085l-.06.083a3.273 3.273 0 0 1-.37.437c-.63.623-1.42.933-2.373.933-.952 0-1.743-.31-2.372-.932a3.09 3.09 0 0 1-.774-1.227 3.4 3.4 0 0 1-.474-1.78c0-.98.34-1.808 1.017-2.482.678-.674 1.53-1.01 2.556-1.01.807 0 1.505.21 2.096.628.163.114.32.242.468.388.678.672 1.018 1.496 1.018 2.47.002.512-.09.98-.277 1.408z"/><path fill="#211915" d="M256.38 174.965c-.29.325-.436.743-.436 1.254 0 .06.002.12.006.178.075.17.174.322.298.458.314.347.716.52 1.206.52.487 0 .887-.17 1.2-.514.027-.03.05-.062.076-.093.01-.015.023-.03.034-.043.128-.175.22-.374.28-.594-.017-.47-.16-.86-.434-1.166a1.432 1.432 0 0 0-1.115-.49c-.452.002-.823.164-1.114.488zm1.12-.315c.407 0 .73.14.99.43.244.27.37.606.39 1.024-.07.243-.185.457-.348.636-.282.31-.635.463-1.077.463-.443 0-.796-.15-1.078-.463a1.547 1.547 0 0 1-.256-.385 2.02 2.02 0 0 1-.003-.136c0-.472.13-.845.393-1.14.26-.29.584-.43.99-.43z"/><path fill="#442624" d="M267.168 172.89v-.007a2.438 2.438 0 0 0-.822-.608c.306.143.587.346.822.615zM268.987 178.895h-.018zM265.566 177.386c.385 0 .72-.136 1.002-.408a1.403 1.403 0 0 1-.993.397c-.435 0-.816-.173-1.143-.52-.14-.148-.25-.316-.33-.5a2.464 2.464 0 0 1-.004-.124c0-.502.147-1.15.443-1.492.295-.34.647-.738 1.057-.738h-.005c-.412 0-.766.398-1.06.74-.297.342-.444.88-.444 1.384 0 .04.003.138.005.178.08.187.19.385.33.534.326.348.707.55 1.143.55zM266.96 178.632c.03-.032.057-.062.083-.096v-.003c-.025.036-.054.066-.082.1zM268.995 178.87v.006l.003-.006z"/><path fill="#211915" d="M264.272 176.314c.07.155.167.298.286.424.295.313.628.465 1.017.465.387 0 .708-.15.982-.46.156-.178.27-.39.337-.628-.018-.414-.147-.765-.382-1.045-.25-.3-.55-.444-.91-.444-.363 0-.668.148-.93.452-.27.31-.402.688-.402 1.152 0 .03 0 .056.002.084zm.308-1.123c.228-.262.6-.39.91-.39.308 0 .618.125.835.382.208.246.347.546.368.912a1.37 1.37 0 0 1-.28.532c-.238.27-.51.402-.845.402-.34 0-.85-.134-1.11-.41-.098-.104-.458-.22-.458-.347v-.04c0-.42.34-.76.58-1.04z"/><path fill="#211915" d="M268.996 169h-1.872c-.19 0-.124.41-.124.602v2.545c-1-.303-1.15-.46-1.777-.46a3.35 3.35 0 0 0-2.454 1.063c-.674.7-1.043 1.61-1.043 2.698 0 .753.155 1.434.487 2.023.16.47.41.892.75 1.26a3.295 3.295 0 0 0 2.388 1.052c.562 0 .647-.157 1.647-.46v.018c0 .19-.132.66.06.66h1.734c.138 0 .263-.24.318-.367l.03-.548c.024-.054-.143-.19-.143-.248v-9.235c0-.19.187-.602-.004-.602zm.004 9.866c0 .01.083.02.082.028 0 .015.038.03.032.045l-.18.712c-.028.063-.07.348-.14.348h-1.735c-.097 0-.06-.565-.06-.66v-.378c0 .425-1.092.647-1.738.647-.793 0-1.535-.336-2.15-.997a3.38 3.38 0 0 1-.74-1.213c-.323-.566-.493-1.223-.493-1.952 0-1.042.32-1.91.96-2.578.643-.67 1.43-1.01 2.298-1.01.726 0 1.86.21 1.86.626v-2.884c0-.096.03-.602.124-.602h1.873c.096 0 .004.506.004.602v9.264z"/><path fill="#211915" d="M268.996 169h-1.873c-.096 0-.123.506-.123.602v2.884c0-.416-1.138-.627-1.863-.627-.866 0-1.644.34-2.286 1.01-.64.668-.97 1.536-.97 2.578 0 .73.16 1.386.482 1.952.152.45.395.858.725 1.213.614.66 1.384.996 2.176.996.647 0 1.737-.223 1.737-.648v.378c0 .096-.036.66.06.66h1.736c.07 0 .132-.285.16-.348l.2-.592c.007-.014-.074-.09-.073-.105 0-.01-.082-.08-.082-.09v-9.263c0-.096.09-.602-.004-.602zm.004 10h-2v-.463c0 .034-.033.064-.06.096a2.21 2.21 0 0 1-1.757.823c-.742 0-1.402-.315-1.985-.944a3.173 3.173 0 0 1-.69-1.175c-.314-.547-.472-1.174-.472-1.884 0-1.005.306-1.827.917-2.468.61-.64 1.328-.96 2.148-.96.44 0 .78.085 1.134.25.31.142.766.344.766.61V169h2v10h.052l-.052-.124V179z"/><path fill="#211915" d="M264.54 174.965c-.295.34-.443.763-.443 1.265 0 .042 0 .083.003.123.08.185.19.353.33.502.327.346.708.52 1.144.52a1.4 1.4 0 0 0 .993-.398 1.77 1.77 0 0 0 .487-.826c-.015-.473-.152-.87-.42-1.19-.283-.337-.63-.506-1.04-.507-.407.003-.76.173-1.054.512zm1.06-.338c.363 0 .66.145.912.444.235.28.364.632.382 1.046-.068.238-.18.45-.337.627-.274.31-.595.46-.982.46-.39 0-.722-.15-1.017-.464a1.567 1.567 0 0 1-.286-.425l-.002-.083c0-.464.13-.842.4-1.152.264-.305.57-.453.93-.453z"/><path fill="#442624" d="M276.453 178.422l.006-.006.16-.49-.008.005zM272.838 177.17c.327.235.695.395 1.105.395.63 0 1.154-.565 1.57-.565h-.007c-.415 0-.932.506-1.554.506-.41 0-.78-.076-1.106-.31-.1-.073-.188-.196-.263-.196h-.02c.08 0 .168.093.275.17zM276.588 177.836h.045l-.012.05.01.018.012-.007-.01-.018.01-.044h-.045l-.94-.94h-.027zM272.95 174.895c.287-.21.604-.39.95-.39.344 0 .636.053.877.253-.002-.002-.004-.025-.006-.027-.24-.2-.533-.3-.88-.3s-.662.253-.95.463c-.045.034-.082.265-.122.265h.012c.038 0 .077-.23.12-.263zM276.258 173.09c.495.535.742 1.23.742 2.086v-.003c0-.855-.245-1.55-.742-2.084zM277.074 176.175h.004v.736h-.004z"/><path fill="#211915" d="M276.176 172.61c-.71-.613-1.45-.923-2.46-.923-1.013 0-1.838.346-2.583 1.03-.753.69-1.102 1.626-1.102 2.782 0 .71.16 1.344.445 1.886.166.554.47 1.034.888 1.426.685.644 1.563.97 2.602.97 1.024 0 1.943-.374 2.728-1.113a.345.345 0 0 0 .093-.146l.146-.427a.343.343 0 0 0 .067-.187v-.025a.398.398 0 0 0-.072-.233c-.04-.053-.094-.172-.153-.196l-.35-.456h.547c.15 0 .28-.017.328-.158l-.062-.57c.017-.04-.238-.047-.238-.094v-1.005c0-1.08-.1-1.942-.824-2.564zm.824 3.568c0 .025.173.05.163.07l-.116.625c-.024.07 0 .126-.075.126h-.94l.644.692a.17.17 0 0 1 .106.064.17.17 0 0 1 .027.146c-.002.04-.013.08-.038.112l-.148.455a.17.17 0 0 1-.046.07c-.752.71-1.63 1.068-2.607 1.068-.993 0-1.827-.31-2.48-.924-.398-.375-.68-.835-.836-1.366-.276-.52-.416-1.132-.416-1.82 0-1.107.363-2 1.08-2.657a3.642 3.642 0 0 1 2.533-.983c.967 0 1.622.296 2.3.88.684.59.85 1.408.85 2.434v1.008z"/><path fill="#211915" d="M275.02 177.025h-1.99c.277 0 .587.265.923.265.41 0 .763-.265 1.068-.265zM274.37 174.78c-.14-.236-.295-.08-.47-.08-.17 0-.327-.157-.477.08h.947z"/><path fill="#211915" d="M272.848 177.153c.327.234.695.396 1.106.396.622 0 1.14-.55 1.554-.55h-2.923c.075 0 .162.08.263.153zm2.173-.128c-.304 0-.657.265-1.067.265-.336 0-.646-.265-.922-.265h1.99zM272.95 174.816c-.043.03-.083.184-.12.184h2.06c-.036 0-.07-.164-.113-.2-.24-.2-.533-.293-.877-.293-.346 0-.662.1-.95.31zm1.42-.037h-.947c.15-.236.308-.08.478-.08.175 0 .33-.156.47.08z"/><path fill="#211915" d="M276.15 172.74c-.678-.585-1.423-.882-2.39-.882-.968 0-1.775.33-2.488.984-.716.656-1.057 1.55-1.057 2.655 0 .69.15 1.302.427 1.82.156.532.444.992.843 1.367.652.613 1.49.924 2.482.924.978 0 1.857-.36 2.61-1.067a.165.165 0 0 0 .045-.072l.15-.455a.19.19 0 0 0 .036-.113.174.174 0 0 0-.027-.148.168.168 0 0 0-.105-.06l-.642-.692h.94c.073 0 .14-.056.163-.126l.027-.62c.01-.022-.163-.05-.163-.075v-1.007c0-1.027-.168-1.846-.85-2.434zm.85 2.436v1.002V176h.183l-.21 1h-1.317l.94 1h.045l-.012-.037.01-.026c-.003.004-.007-.01-.01-.007v-.007c-.003.004-.008.003-.012.007l-.16.49c-.002 0-.004 0-.006.003l-.003.01c-.71.667-1.538 1.023-2.49 1.023-.952 0-1.74-.293-2.36-.88a2.833 2.833 0 0 1-.794-1.31c-.27-.502-.405-1.09-.405-1.763 0-1.063.342-1.91 1.025-2.537a3.45 3.45 0 0 1 2.418-.942c.93 0 1.72.28 2.368.842.083.07.068.146.14.224.497.535.65 1.23.65 2.085zM226.716 178.892H225.3l-.005-.223.06.222h1.821z"/><path fill="#211915" d="M225.295 178.848l-.01-.034.063.433h1.753-1.744zM226.222 171.782c.287 0 .53-.1.73-.297a.97.97 0 0 0 .27-.492c-.052.1-.116.197-.202.283-.213.214-.475.32-.785.32s-.572-.106-.785-.32a1.073 1.073 0 0 1-.234-.344c.007.05.017.1.03.146l.004.01a1.035 1.035 0 0 0 .243.398c.2.197.442.296.73.296z"/><path fill="#211915" d="M225.38 171.346c-.017-.023-.03-.046-.044-.07.014.024.027.048.043.07zM225.3 171.207zM225.21 170.92c.01.055.022.106.038.157a.995.995 0 0 1-.03-.146c-.003-.002-.005-.005-.007-.01zM231.182 174.74c.295-.342.65-.74 1.06-.74H232.252c.413 0 .76.395 1.045.732.19.227.316.607.38.91.006-.076.01-.097.01-.177 0-.548-.153-.977-.458-1.34a1.402 1.402 0 0 0-1.124-.533c-.444 0-.825.19-1.143.56-.318.368-.477.83-.477 1.372 0 .416.096.776.287 1.077-.02-.115-.03-.35-.03-.477 0-.505.146-1.04.442-1.383zM231.838 178.994c-.8 0-1.6-.34-2.227-1.017-.057-.062-.15-.127-.204-.192.13.255.276.493.48.71.582.628 1.43.942 2.172.942.702 0 .94-.275 1.94-.823v-.612c-.998.662-1.36.992-2.16.992z"/><path fill="#211915" d="M235.418 179.012v-.235h-1.72l.012.453.154.017H235.442l.104-.235z"/><path fill="#211915" d="M232.05 179.436a2.884 2.884 0 0 1-2.1-.94c-.203-.22-.412-.457-.543-.712-.013-.017-.05-.033-.063-.05.136.28.303.54.523.777.583.63 1.435.945 2.177.945.707 0 .956-.282 1.956-.84v-.002c-1 .548-1.25.823-1.95.823zM232.25 174.544h-.003c.41 0 .756.125 1.04.462.197.237.322.495.382.815a.95.95 0 0 1 .004-.052 1.626 1.626 0 0 0-.38-.758c-.284-.337-.63-.466-1.043-.466z"/><path fill="#211915" d="M233.864 179.247l-.154-.017-.01-.453h-.01l.01.468.155.002h1.587-.065zM241.68 178.39c-.49.403-1.113.604-1.866.604a4.99 4.99 0 0 1-1.57-.27 4.67 4.67 0 0 1-1.437-.773l.126.478c.404.325.86.582 1.364.748.505.166.99.255 1.457.255.7 0 1.276-.182 1.73-.554.23-.187.398-.405.51-.653a1.73 1.73 0 0 0 .05-.126l.027-.078c.01-.03.017-.06.024-.09a2.02 2.02 0 0 1-.415.46zM236.816 177.866h-.032l.01.033-.01.01v.002zM240.643 177.035c0-.16-.098-.305-.295-.44-.197-.134-.482-.26-.854-.377a9.653 9.653 0 0 1-.854-.3 4.815 4.815 0 0 1-.672-.365c-.3-.187-.51-.43-.634-.722a2.21 2.21 0 0 0-.004.118c0 .576.237 1.012.71 1.306.234.147.442.26.625.337.183.078.447.17.793.28.346.108.61.225.793.348a.78.78 0 0 1 .198.182l-.008.006-.005.003s.002 0 .003.002a.443.443 0 0 0 .205-.377zM242.272 172.856l-.687 1.227c-.586-.402-1.17-.603-1.752-.603-.582 0-.873.16-.873.478 0 .175.092.314.276.414.014.008.034.016.05.024a1.23 1.23 0 0 1 .196-.04l.045-.006.084-.007c.043-.003.086-.173.132-.174.008 0 .014-.17.022-.17h.008c.538 0 1.078.352 1.62.722l.65-1.076.23-.79z"/><path fill="#211915" d="M240.446 177.4a.763.763 0 0 0-.197-.182c-.184-.124-.448-.24-.794-.348a9.28 9.28 0 0 1-.793-.28 4.572 4.572 0 0 1-.624-.336c-.475-.294-.712-.73-.712-1.306 0-.04.002-.08.004-.117l-.006-.012c-.003.044-.007.087-.007.132 0 .58.236 1.016.71 1.31.233.148.44.26.624.34.183.077.447.17.793.28.346.108.61.225.793.35a.763.763 0 0 1 .192.18c0-.002.003-.003.005-.004.004 0 .006-.004.01-.006zM236.784 177.866h-.012l.012.045.01-.01zM239.74 174.34zM239.766 174.31c.54 0 1.08.2 1.623.573l.002-.013c-.542-.37-1.082-.56-1.62-.56h-.006zM239.526 174.35l-.045.007a.325.325 0 0 1 .046-.006zM242.07 178.02zM241.485 178.876c-.455.372-1.03.555-1.73.555-.467 0-.953-.088-1.458-.254a4.326 4.326 0 0 1-1.364-.748l-.126-.477-.015-.01.133.503c.404.327.86.584 1.364.75.504.168.99.257 1.456.257.7 0 1.276-.184 1.73-.557a1.81 1.81 0 0 0 .52-.67 1.812 1.812 0 0 1-.51.653zM253.155 177.298l.013.014c-.997 1.122-2.17 1.683-3.523 1.683-1.353 0-2.466-.427-3.34-1.28a4.2 4.2 0 0 1-1.135-1.892 3.91 3.91 0 0 0 1.184 2.43c.812.79 1.846 1.238 3.1 1.238 1.25 0 2.337-.49 3.26-1.49h.003l.43-.582.03-.075-.022-.045zM253.185 171.597L252 172.94c-.62-.77-1.39-1.156-2.31-1.156-.738 0-1.368.24-1.89.722-.525.48-.786 1.13-.786 1.947 0 .13.01.256.02.378.075-.567.305-1.034.7-1.397.486-.447 1.07-.67 1.753-.67.463 0 .884.108 1.266.318.323.177.618.425.883.75l1.127-1.29.422-.943zM253.207 171.547l.007-.016h-.014s-.002 0-.003-.002h-.01a.17.17 0 0 1 .02.02z"/><path fill="#211915" d="M252.713 178c-.922 1-2.01 1.49-3.258 1.49-1.255 0-2.29-.412-3.1-1.202-.683-.663-1.076-1.492-1.185-2.447-.008-.026-.012-.064-.02-.09.094.997.492 1.835 1.195 2.52.812.794 1.846 1.235 3.1 1.235 1.25 0 2.337-.504 3.26-1.504h.003l.438-.515-.43.515h-.003zM253.204 171.52h.003v.018h-.003zM250.752 173.083c.322.178.616.426.88.753l.002-.004a2.966 2.966 0 0 0-.882-.75zM260 177.99c-.677.67-1.53 1.004-2.555 1.004-1.026 0-1.878-.335-2.556-1.005a3.468 3.468 0 0 1-.516-.648c.156.432.405.82.754 1.164.63.62 1.42.93 2.373.93.953 0 1.744-.31 2.373-.93a3.285 3.285 0 0 0 .362-.422l.06-.083c.217-.327.366-.687.445-1.08-.17.393-.415.75-.74 1.07zM258.65 174.158c-.313-.352-.715-.528-1.205-.528-.49 0-.892.176-1.206.528-.315.35-.472.804-.472 1.356 0 .334.058.63.173.89a2.58 2.58 0 0 1-.005-.18c0-.512.146-1.17.437-1.497.29-.327.664-.728 1.12-.728H257.5c.456 0 .828.4 1.12.726.27.3.413.8.433 1.258.046-.18.07-.318.07-.53 0-.55-.158-.944-.472-1.296z"/><path fill="#211915" d="M260.293 178.003a2.48 2.48 0 0 1-.06.083c.02-.028.042-.055.06-.083zM257.5 179.436c-.95 0-1.742-.31-2.372-.93a3.09 3.09 0 0 1-.754-1.163 1.16 1.16 0 0 1-.028-.047c.153.457.41.867.774 1.227.63.622 1.42.932 2.372.932s1.743-.31 2.373-.932a3.41 3.41 0 0 0 .284-.322 3.416 3.416 0 0 1-.276.308c-.63.62-1.42.928-2.373.928zM257.5 174.544h-.004c.453 0 .824.13 1.115.457.274.307.418.68.435 1.15l.008-.037c-.02-.46-.164-.81-.433-1.11-.292-.326-.665-.46-1.12-.46zM267 179v-.998c0 .662-1.136.993-1.936.993s-1.486-.34-2.114-1.017a3.452 3.452 0 0 1-.42-.576c.146.404.373.77.675 1.095.582.627 1.255.94 1.997.94.693 0 1.27-.27 1.735-.803.027-.033.062-.063.062-.098v-.017.48h1.794l.192-.222-.017.222H267zM264.088 176.238c0-.505.147-1.156.443-1.498.296-.342.65-.74 1.062-.74h.01c.412 0 .76.396 1.044.732.262.31.402.81.422 1.267.046-.183.07-.324.07-.536 0-.548-.154-.977-.46-1.34a1.4 1.4 0 0 0-1.123-.533c-.444 0-.825.192-1.143.56-.318.37-.478.83-.478 1.373 0 .31.055.588.16.834-.003-.04-.006-.078-.006-.12z"/><path fill="#211915" d="M265.6 174.544h-.004c.41 0 .756.125 1.04.462.267.32.404.696.42 1.168l.01-.05a1.752 1.752 0 0 0-.422-1.114c-.283-.337-.63-.466-1.043-.466zM267.196 179.17v-.65.65h1.792H267.194zM265.206 179.436c-.743 0-1.41-.314-1.994-.94a3.157 3.157 0 0 1-.667-1.096c-.013-.02-.024-.044-.036-.065.143.437.372.83.692 1.175.583.63 1.248.944 1.99.944.7 0 1.315-.277 1.77-.823a2.245 2.245 0 0 1-1.756.806zM224.236 170l-3.464 3.923c.054.075.12.203.19.3l2.74-3.098.547-1.125h-.006H224.262h-.026zM221.977 179l-2.836-3.52-1.14.927v.522l.48-.252.607-.712 2.5 3.034h2.122l.517-.214-.358.214zM218.196 178.895v.275h-1.747 1.932l.02.032.038-.35z"/><path fill="#211915" d="M216.604 179.247h1.77l.03-.064-.022.064zM224.248 170.17l.007-.013-.012.014zM222.383 179h-.796l-2.37-3.034-.474.627.467-.672 2.37 3.08h2.121l.548-.28-.02-.078-.52.358zM273.95 178.994c-1.026 0-1.874-.316-2.543-.95a3.055 3.055 0 0 1-.57-.73c.15.483.406.9.773 1.245.622.584 1.41.876 2.36.876s1.778-.352 2.484-1.015l.16-.49c-.76.71-1.647 1.064-2.664 1.064zM272.94 174.81c.288-.21.605-.347.95-.347s.64.067.88.27c.003 0 .005-.007.007-.005l.003.08c.042.033.08.192.115.192h.38c-.042-1-.193-.793-.452-1.01a1.46 1.46 0 0 0-.95-.368c-.372 0-.713.174-1.022.4-.31.226-.49-.022-.54.978h.508c.04 0 .077-.157.123-.19zM276.633 177.866h-.045l.033.036zM272.26 176c.04 0 .144 1 .304 1h.02-.018 2.96-.02.008c.02 0 .042-.038.062-.058l.054.058h.026-.017 1.328l.206-1h-4.914zM275.528 177h-2.96 2.96z"/><path fill="#211915" d="M271.61 178.56a2.83 2.83 0 0 1-.774-1.247l-.03-.05c.147.513.41.95.793 1.31.62.588 1.408.88 2.36.88s1.78-.355 2.49-1.023l.002-.01c-.706.662-1.534 1.015-2.483 1.015-.952 0-1.74-.29-2.36-.876zM274.78 174.72h-.003c.042.035.077.076.113.117h.005c-.035-.052-.073-.082-.115-.116zM275.657 176.896h1.312-1.33zM230.31 184.263h.002l1.883.004h.987l1.883.004c.698.002 1.268.574 1.267 1.272v.922c.005.22.16.402.367.45h.008a1.568 1.568 0 0 1-.004 3.042.48.48 0 0 0-.38.466v.506l-.002.4c0 .697-.572 1.266-1.27 1.266l-1.884-.003h-.987l-1.882-.005a1.273 1.273 0 0 1-1.267-1.27l.002-.558v-.356a.476.476 0 0 1 .38-.46 1.567 1.567 0 0 0 .003-3.04h-.01a.477.477 0 0 1-.367-.452v-.01-.91a1.276 1.276 0 0 1 1.272-1.27m0-.41c-.925 0-1.678.752-1.68 1.677v.892l-.002.01v.026a.892.892 0 0 0 .687.845l.016.004h.006c.504.134.857.592.856 1.12 0 .53-.36.988-.87 1.117a.895.895 0 0 0-.7.855v.917c0 .448.174.87.49 1.188.318.32.74.495 1.187.495l1.882.004h.987l1.882.004c.928 0 1.682-.752 1.684-1.677v-.4l.002-.506c0-.035.026-.058.05-.063h.01l.007-.003a1.975 1.975 0 0 0 1.503-1.917 1.973 1.973 0 0 0-1.498-1.923l-.01-.002-.01-.002a.065.065 0 0 1-.046-.06v-.91c.002-.447-.173-.87-.49-1.188a1.67 1.67 0 0 0-1.186-.496l-1.883-.004h-.987l-1.883-.005h-.005z"/><path fill="#211915" d="M239.72 184.263l1.884.004h.987l1.884.004a1.27 1.27 0 0 1 1.266 1.272v.922c.005.22.16.402.367.45h.01a1.568 1.568 0 0 1-.005 3.042.48.48 0 0 0-.38.466v.506l-.002.4c0 .697-.572 1.266-1.27 1.266l-1.884-.003h-.987l-1.884-.005a1.273 1.273 0 0 1-1.267-1.27v-.914a.476.476 0 0 1 .38-.46 1.566 1.566 0 0 0 .003-3.04h-.01a.477.477 0 0 1-.367-.452v-.01-.51l.002-.4a1.277 1.277 0 0 1 1.27-1.27m0-.41c-.924 0-1.677.752-1.68 1.677v.886l-.03.266.075.038a.888.888 0 0 0 .64.583l.016.004h.004c.505.134.857.592.856 1.12 0 .53-.36.988-.87 1.117a.895.895 0 0 0-.7.855v.917c0 .448.174.87.492 1.188.317.32.74.495 1.186.495l1.883.004h.988l1.883.004c.93 0 1.683-.752 1.684-1.677v-.4l.002-.506c0-.035.026-.058.052-.063h.008l.007-.003a1.974 1.974 0 0 0 1.503-1.917 1.973 1.973 0 0 0-1.498-1.923l-.01-.003-.01-.002a.067.067 0 0 1-.045-.06v-.911a1.683 1.683 0 0 0-1.676-1.684l-1.883-.003h-.987l-1.883-.005h-.005zM225.64 184.3a1.277 1.277 0 0 1 1.273 1.272v.925a.48.48 0 0 0 .38.452 1.572 1.572 0 0 1 0 3.048.48.48 0 0 0-.38.47v.91c0 .7-.573 1.27-1.273 1.27h-1.823.785-3.956a4.174 4.174 0 0 1 0-8.35h4.994m-1.037.002h-.785.785m1.037-.413h-4.992a1.65 1.65 0 0 0-.172.01 4.584 4.584 0 0 0 0 9.153c.06.006.116.01.172.01h4.993c.93 0 1.685-.757 1.685-1.685v-.91c0-.036.027-.06.053-.066l.007-.002.008-.002a1.978 1.978 0 0 0 1.503-1.924 1.98 1.98 0 0 0-1.504-1.925l-.024-.006a.07.07 0 0 1-.043-.057v-.914a1.686 1.686 0 0 0-1.685-1.683"/><path fill="#211915" d="M255.734 184.166a4.257 4.257 0 0 1 0 8.515h-6.586a1.302 1.302 0 0 1-1.298-1.297v-.927a.49.49 0 0 1 .388-.478 1.604 1.604 0 0 0 0-3.11h-.01a.49.49 0 0 1-.378-.46V185.463c0-.713.584-1.298 1.298-1.298h6.586m0-.412h-6.586a1.71 1.71 0 0 0-1.71 1.71V186.41a.9.9 0 0 0 .69.855l.014.004h.01c.523.134.89.607.89 1.152 0 .546-.368 1.02-.897 1.154a.904.904 0 0 0-.706.878v.928c0 .943.766 1.71 1.708 1.71h6.586a4.652 4.652 0 0 0 4.595-4.67c0-2.52-1.972-4.57-4.49-4.666l-.106-.002M130.635 82.91h.445v1.333h-.445zM130.635 84.244h.445v1.778h-.445zM130.635 86.466h.445v.444h-.445zM130.635 87.8h.445v.888h-.445zM130.635 89.577h.445v.444h-.445zM130.635 91.8h.445v.888h-.445zM130.635 92.688h.445v1.333h-.445zM130.635 94.466h.445v2.222h-.445zM130.635 96.688h.445v.89h-.445zM131.08 82.91h.444v.444h-.444zM131.08 85.577h.444v.445h-.444zM131.08 86.91h.444v.89h-.444zM131.08 89.133h.444v.444h-.444zM131.08 90.466h.444v.445h-.444zM131.08 92.244h.444v.444h-.444zM131.08 94.466h.444v.444h-.444zM131.08 97.132h.444v.445h-.444zM131.525 82.91h.444v.444h-.445zM131.525 83.8h.444v.444h-.445zM131.525 84.244h.444v.89h-.445zM131.525 85.577h.444v.445h-.445zM131.525 86.466h.444v.444h-.445zM131.525 88.243h.444v.89h-.445zM131.525 90.91h.444v1.333h-.445zM131.525 93.577h.444v.444h-.445zM131.525 94.466h.444v.444h-.445zM131.525 95.355h.444v1.333h-.445zM131.525 97.132h.444v.445h-.445zM131.97 82.91h.444v.444h-.445zM131.97 83.8h.444v.444h-.445zM131.97 84.244h.444v.89h-.445zM131.97 85.577h.444v.445h-.445zM131.97 86.466h.444v.444h-.445zM131.97 87.355h.444v2.222h-.445zM131.97 90.02h.444v.446h-.445zM131.97 90.91h.444v.89h-.445zM131.97 92.688h.444v.89h-.445zM131.97 94.466h.444v.444h-.445zM131.97 95.355h.444v1.333h-.445zM131.97 97.132h.444v.445h-.445z"/><path fill="#211915" d="M132.413 82.91h.444v.444h-.444zM132.413 83.8h.444v.444h-.444zM132.413 84.244h.444v.89h-.444zM132.413 85.577h.444v.445h-.444zM132.413 86.466h.444v3.555h-.444zM132.413 90.466h.444v.89h-.444zM132.413 91.8h.444v.443h-.444zM132.413 93.132h.444v.445h-.444zM132.413 94.466h.444v.444h-.444zM132.413 95.355h.444v1.333h-.444zM132.413 97.132h.444v.445h-.444zM132.858 82.91h.445v.444h-.445zM132.858 85.577h.445v.445h-.445zM132.858 86.466h.445v1.778h-.445zM132.858 89.577h.445v1.778h-.445zM132.858 92.244h.445v.444h-.445zM132.858 93.577h.445v.444h-.445zM132.858 94.466h.445v.444h-.445zM132.858 97.132h.445v.445h-.445z"/><path fill="#211915" d="M133.302 82.91h.444v1.333h-.444zM133.302 84.244h.444v1.778h-.444zM133.302 86.466h.444v.444h-.444zM133.302 87.355h.444v.444h-.444zM133.302 88.243h.444v.444h-.444zM133.302 89.133h.444v.444h-.444zM133.302 90.02h.444v.446h-.444zM133.302 90.91h.444v.445h-.444zM133.302 91.8h.444v.443h-.444zM133.302 92.688h.444v.444h-.444zM133.302 93.577h.444v.444h-.444zM133.302 94.466h.444v2.222h-.444zM133.302 96.688h.444v.89h-.444zM133.747 87.355h.445v3.11h-.445zM133.747 93.132h.445v.445h-.445zM134.19 83.8h.445v.444h-.444zM134.19 84.244h.445v2.222h-.444z"/><path fill="#211915" d="M134.19 86.91h.445v1.778h-.444zM134.19 89.577h.445v1.333h-.444zM134.19 91.355h.445v.444h-.444zM134.19 92.244h.445v.444h-.444zM134.19 92.688h.445v.89h-.444zM134.19 94.02h.445v.445h-.444zM134.19 94.91h.445v1.778h-.444zM134.19 97.132h.445v.445h-.444zM134.635 82.91h.445v.444h-.445zM134.635 83.8h.445v.444h-.445zM134.635 84.244h.445v1.333h-.445zM134.635 86.02h.445v.446h-.445zM134.635 88.688h.445v.89h-.445zM134.635 91.355h.445v.444h-.445zM134.635 92.244h.445v.444h-.445zM134.635 92.688h.445v.89h-.445zM134.635 94.02h.445v.445h-.445zM134.635 94.466h.445v.444h-.445zM134.635 95.355h.445v1.333h-.445zM134.635 96.688h.445v.89h-.445zM135.08 83.355h.445v.444h-.445zM135.08 84.244h.445v.89h-.445zM135.08 85.577h.445v.445h-.445zM135.08 86.466h.445v.89h-.445zM135.08 87.8h.445v.888h-.445zM135.08 89.577h.445V91.8h-.445zM135.08 92.688h.445v.444h-.445zM135.08 93.577h.445v.444h-.445zM135.08 94.466h.445v.444h-.445zM135.08 95.355h.445v.445h-.445zM135.525 82.91h.444v.444h-.445zM135.525 83.8h.444v.444h-.445z"/><path fill="#211915" d="M135.525 84.688h.444v.445h-.445zM135.525 88.243h.444v2.222h-.445zM135.525 91.8h.444v.443h-.445zM135.525 94.02h.444v.445h-.445zM135.525 95.355h.444v.445h-.445zM135.525 96.244h.444v.445h-.445z"/><path fill="#211915" d="M135.525 96.688h.444v.445h-.445zM135.97 84.688h.443v1.778h-.444zM135.97 86.91h.443v.89h-.444zM135.97 88.688h.443v.445h-.444zM135.97 90.02h.443v.89h-.444zM135.97 91.355h.443v.444h-.444zM135.97 92.244h.443v.444h-.444zM135.97 93.132h.443v.445h-.444zM135.97 94.466h.443v.89h-.444zM135.97 95.8h.443v.888h-.444zM135.97 96.688h.443v.89h-.444zM136.413 84.688h.444v.89h-.444zM136.413 86.466h.444v1.778h-.444zM136.413 89.577h.444v.444h-.444zM136.413 90.91h.444v1.778h-.444zM136.413 93.132h.444v1.333h-.444zM136.413 94.466h.444v.444h-.444zM136.413 95.355h.444v.445h-.444zM136.413 96.244h.444v.445h-.444z"/><path fill="#211915" d="M136.413 96.688h.444v.89h-.444zM136.858 83.8h.445v.444h-.445zM136.858 84.688h.445v2.222h-.445zM136.858 87.355h.445v.444h-.445zM136.858 88.243h.445v.444h-.445zM136.858 89.133h.445v.444h-.445zM136.858 90.02h.445v.446h-.445zM136.858 91.355h.445v.89h-.445zM136.858 92.688h.445v1.333h-.445zM136.858 94.91h.445v.445h-.445zM136.858 96.688h.445v.445h-.445z"/><path fill="#211915" d="M137.302 83.355h.444v.89h-.444z"/><path fill="#211915" d="M137.302 84.244h.444v.89h-.444zM137.302 87.355h.444v3.11h-.444zM137.302 90.91h.444v.445h-.444zM137.302 92.244h.444v.444h-.444zM137.302 94.466h.444v.444h-.444zM137.302 95.355h.444v1.333h-.444zM137.302 96.688h.444v.89h-.444zM137.747 83.355h.445v.89h-.445zM137.747 84.688h.445v.445h-.445zM137.747 85.577h.445v.89h-.445zM137.747 86.91h.445v.445h-.445zM137.747 87.8h.445v.888h-.445zM137.747 89.133h.445v.444h-.445zM137.747 90.466h.445V91.8h-.445zM137.747 92.244h.445v.444h-.445zM137.747 93.132h.445v.445h-.445zM137.747 94.02h.445v.445h-.445zM137.747 94.466h.445v.444h-.445zM137.747 95.355h.445v.445h-.445zM137.747 96.244h.445v.445h-.445z"/><path fill="#211915" d="M138.19 84.688h.446v.89h-.445zM138.19 86.466h.446v1.778h-.445zM138.19 88.688h.446v.445h-.445zM138.19 90.02h.446v.446h-.445zM138.19 93.577h.446v.89h-.445z"/><path fill="#211915" d="M138.19 94.466h.446v.89h-.445zM138.19 96.244h.446v.445h-.445zM138.19 97.132h.446v.445h-.445zM138.636 82.91h.444v.89h-.444zM138.636 84.244h.444v.445h-.444zM138.636 85.132h.444v.89h-.444zM138.636 86.91h.444v.445h-.444zM138.636 87.8h.444v.443h-.444zM138.636 88.688h.444v.89h-.444zM138.636 90.466h.444v.89h-.444zM138.636 91.8h.444v.443h-.444zM138.636 93.132h.444v.445h-.444zM138.636 94.91h.444v.445h-.444zM138.636 95.8h.444v.888h-.444zM139.08 82.91h.445v.444h-.445zM139.08 83.8h.445v.444h-.445zM139.08 84.244h.445v.445h-.445zM139.08 85.132h.445v.445h-.445zM139.08 86.02h.445v1.334h-.445zM139.08 90.466h.445v.445h-.445zM139.08 92.688h.445v1.778h-.445zM139.08 94.91h.445v.89h-.445z"/><path fill="#211915" d="M139.525 82.91h.444v1.333h-.445zM139.525 84.688h.444v.445h-.445zM139.525 85.577h.444v.89h-.445zM139.525 87.355h.444v1.333h-.445zM139.525 89.133h.444v.444h-.445zM139.525 90.02h.444v1.78h-.445zM139.525 92.244h.444v.444h-.445zM139.525 93.132h.444v.445h-.445zM139.525 94.02h.444v.445h-.445zM139.525 94.91h.444v.89h-.445zM139.525 96.244h.444v.445h-.445zM139.97 82.91h.444v1.333h-.445zM139.97 84.244h.444v.89h-.445zM139.97 86.02h.444v.446h-.445zM139.97 88.243h.444v.89h-.445zM139.97 89.577h.444v.444h-.445zM139.97 90.466h.444v1.778h-.445zM139.97 92.688h.444v.89h-.445zM139.97 95.355h.444v1.333h-.445zM139.97 96.688h.444v.445h-.445zM140.414 82.91h.444v.444h-.444zM140.414 83.8h.444v.444h-.444zM140.414 84.688h.444v.445h-.444zM140.414 85.577h.444v.445h-.444zM140.414 86.466h.444v.444h-.444zM140.414 87.355h.444v.444h-.444zM140.414 88.243h.444v.444h-.444zM140.414 89.577h.444v.89h-.444zM140.414 91.355h.444v.444h-.444zM140.414 92.244h.444v.444h-.444zM140.414 93.132h.444v.89h-.444zM140.414 94.466h.444v.444h-.444zM140.414 95.355h.444v.445h-.444zM140.414 96.688h.444v.445h-.444zM140.858 82.91h.445v.444h-.445zM140.858 85.132h.445v.445h-.445zM140.858 86.02h.445v1.334h-.445zM140.858 87.8h.445v.443h-.445zM140.858 90.02h.445v.89h-.445zM140.858 91.355h.445v1.333h-.445zM140.858 93.577h.445v.444h-.445zM140.858 94.466h.445v.89h-.445zM140.858 95.8h.445v.444h-.445zM140.858 97.132h.445v.445h-.445zM141.302 83.8h.444v.444h-.444zM141.302 84.244h.444v.445h-.444z"/><path fill="#211915" d="M141.302 85.132h.444v.89h-.444zM141.302 86.466h.444v.444h-.444zM141.302 88.243h.444v1.333h-.444zM141.302 90.02h.444v.446h-.444zM141.302 91.8h.444v.443h-.444zM141.302 93.577h.444v.89h-.444z"/><path fill="#211915" d="M141.302 94.466h.444V95.8h-.444zM141.302 96.244h.444v.445h-.444zM141.302 97.132h.444v.445h-.444zM141.747 86.91h.444v.89h-.443zM141.747 88.243h.444v.444h-.443zM141.747 90.02h.444v.446h-.443zM141.747 91.8h.444v.888h-.443zM141.747 93.132h.444v.89h-.443zM141.747 95.355h.444v.89h-.443zM141.747 96.688h.444v.445h-.443zM142.19 82.91h.445v1.333h-.444zM142.19 84.244h.445v1.778h-.444z"/><path fill="#211915" d="M142.19 86.466h.445v1.778h-.444zM142.19 88.688h.445v.445h-.444zM142.19 90.466h.445v.89h-.444zM142.19 92.244h.445v.444h-.444zM142.19 93.577h.445v.444h-.444zM142.19 94.466h.445v.444h-.444zM142.19 95.355h.445v.445h-.444zM142.19 96.244h.445v.445h-.444zM142.636 82.91h.444v.444h-.444zM142.636 85.577h.444v.445h-.444zM142.636 86.466h.444v.444h-.444zM142.636 88.243h.444v.89h-.444zM142.636 89.577h.444v1.333h-.444zM142.636 92.244h.444v.444h-.444zM142.636 93.577h.444v.444h-.444zM142.636 95.355h.444v1.333h-.444zM142.636 96.688h.444v.89h-.444zM143.08 82.91h.445v.444h-.445zM143.08 83.8h.445v.444h-.445zM143.08 84.244h.445v.89h-.445zM143.08 85.577h.445v.445h-.445zM143.08 86.466h.445v.444h-.445zM143.08 87.355h.445v1.333h-.445zM143.08 90.02h.445v.446h-.445zM143.08 90.91h.445v1.333h-.445zM143.08 93.577h.445v.89h-.445z"/><path fill="#211915" d="M143.08 94.466h.445v1.778h-.445zM143.08 96.688h.445v.89h-.445zM143.524 82.91h.444v.444h-.444zM143.524 83.8h.444v.444h-.444zM143.524 84.244h.444v.89h-.444zM143.524 85.577h.444v.445h-.444zM143.524 86.466h.444v.89h-.444zM143.524 87.8h.444v2.22h-.444zM143.524 90.466h.444v.445h-.444zM143.524 91.355h.444v.89h-.444zM143.524 92.688h.444v.89h-.444z"/><path fill="#211915" d="M143.524 95.355h.444v1.333h-.444zM143.524 96.688h.444v.445h-.444zM143.97 82.91h.444v.444h-.445zM143.97 83.8h.444v.444h-.445zM143.97 84.244h.444v.89h-.445zM143.97 85.577h.444v.445h-.445zM143.97 86.466h.444v1.778h-.445zM143.97 88.688h.444v.445h-.445zM143.97 89.577h.444v.444h-.445zM143.97 90.466h.444V91.8h-.445zM143.97 92.244h.444v.444h-.445zM143.97 92.688h.444v.89h-.445zM143.97 94.02h.444v.445h-.445zM143.97 94.466h.444v.89h-.445zM143.97 96.244h.444v.445h-.445z"/><path fill="#211915" d="M143.97 96.688h.444v.445h-.445zM144.414 82.91h.444v.444h-.444zM144.414 85.577h.444v.445h-.444zM144.414 87.355h.444v.444h-.444zM144.414 88.243h.444v1.333h-.444zM144.414 90.91h.444v.445h-.444zM144.414 91.8h.444v.443h-.444zM144.414 92.688h.444v.89h-.444zM144.414 94.466h.444V95.8h-.444zM144.414 97.132h.444v.445h-.444zM144.858 82.91h.444v1.333h-.444zM144.858 84.244h.444v1.778h-.444zM144.858 86.91h.444v.445h-.444zM144.858 88.688h.444v.445h-.444zM144.858 90.02h.444v.89h-.444zM144.858 91.355h.444v1.333h-.444zM144.858 93.132h.444v1.333h-.444zM144.858 95.8h.444v.444h-.444z"/><path fill="#211915" d="M148.354 109.76h-29.916a5.783 5.783 0 0 1-5.777-5.776v-4.108a2.2 2.2 0 0 1 1.74-2.144 7.053 7.053 0 0 0 5.357-6.858 7.052 7.052 0 0 0-5.377-6.862 2.19 2.19 0 0 1-1.718-2.072v-4.176a5.783 5.783 0 0 1 5.776-5.777h29.916c.12 0 .25.005.397.015 4.89.185 9.46 2.23 12.866 5.76 3.415 3.537 5.295 8.194 5.295 13.113s-1.88 9.576-5.294 13.114a18.788 18.788 0 0 1-12.866 5.758 7.214 7.214 0 0 1-.396.013zM112.72 81.893v.045a2.132 2.132 0 0 0 1.67 2.016l.02.003a7.11 7.11 0 0 1 5.407 6.917 7.11 7.11 0 0 1-5.402 6.915 2.14 2.14 0 0 0-1.695 2.087v4.108a5.725 5.725 0 0 0 5.72 5.718h29.915c.12 0 .248-.004.393-.014 10.153-.384 18.106-8.647 18.106-18.813S158.9 72.443 148.75 72.06a5.743 5.743 0 0 0-.395-.015H118.44a5.725 5.725 0 0 0-5.72 5.718v4.13zM191.283 83.54h.445v1.334h-.445z"/><path fill="#211915" d="M191.283 84.874h.445v1.778h-.445zM191.283 87.096h.445v.89h-.445zM191.283 90.207h.445v.444h-.445zM191.283 92.43h.445v.89h-.445z"/><path fill="#211915" d="M191.283 93.318h.445v1.333h-.445zM191.283 95.096h.445v2.222h-.445zM191.283 97.318h.445v.89h-.445zM191.728 83.54h.444v.445h-.444zM191.728 86.207h.444v.444h-.444zM191.728 87.54h.444v1.334h-.444zM191.728 89.763h.444v.445h-.444zM191.728 91.096h.444v.445h-.444zM191.728 92.43h.444v.89h-.444zM191.728 95.096h.444v.445h-.444zM191.728 97.763h.444v.445h-.444zM192.173 83.54h.445v.445h-.445zM192.173 84.43h.445v.445h-.445z"/><path fill="#211915" d="M192.173 84.874h.445v.89h-.445zM192.173 86.207h.445v.444h-.445zM192.173 87.096h.445v.445h-.445zM192.173 88.874h.445v.445h-.445zM192.173 90.207h.445v.444h-.445zM192.173 91.54h.445v1.334h-.445zM192.173 93.318h.445v.89h-.445zM192.173 95.096h.445v.445h-.445zM192.173 95.985h.445v1.333h-.445zM192.173 97.763h.445v.445h-.445zM192.617 83.54h.444v.445h-.443z"/><path fill="#211915" d="M192.617 84.43h.444v.445h-.443z"/><path fill="#211915" d="M192.617 84.874h.444v.89h-.443zM192.617 86.207h.444v.444h-.443zM192.617 87.096h.444v.445h-.443zM192.617 87.985h.444v.89h-.443zM192.617 90.207h.444v.89h-.443zM192.617 91.54h.444v.89h-.443zM192.617 92.874h.444v.445h-.443zM192.617 93.763h.444v.445h-.443zM192.617 95.096h.444v.445h-.443zM192.617 95.985h.444v1.333h-.443zM192.617 97.763h.444v.445h-.443zM193.06 83.54h.445v.445h-.444z"/><path fill="#211915" d="M193.06 84.43h.445v.445h-.444z"/><path fill="#211915" d="M193.06 84.874h.445v.89h-.444zM193.06 86.207h.445v.444h-.444zM193.06 87.096h.445v1.333h-.444zM193.06 88.874h.445v1.778h-.444zM193.06 91.54h.445v1.334h-.444zM193.06 93.763h.445v.445h-.444zM193.06 95.096h.445v.445h-.444zM193.06 95.985h.445v1.333h-.444zM193.06 97.763h.445v.445h-.444zM193.506 83.54h.445v.445h-.444zM193.506 86.207h.445v.444h-.444zM193.506 87.096h.445v.89h-.444zM193.506 88.874h.445v.89h-.444zM193.506 90.207h.445v1.778h-.444zM193.506 92.874h.445v.445h-.444zM193.506 94.207h.445v.444h-.444zM193.506 95.096h.445v.445h-.444zM193.506 97.763h.445v.445h-.444z"/><path fill="#211915" d="M193.95 83.54h.444v1.334h-.444z"/><path fill="#211915" d="M193.95 84.874h.444v1.778h-.444zM193.95 87.096h.444v.445h-.444zM193.95 87.985h.444v.444h-.444zM193.95 88.874h.444v.445h-.444zM193.95 89.763h.444v.445h-.444zM193.95 90.652h.444v.444h-.444zM193.95 91.54h.444v.445h-.444zM193.95 92.43h.444v.444h-.444zM193.95 93.318h.444v.445h-.444zM193.95 94.207h.444v.444h-.444zM193.95 95.096h.444v2.222h-.444zM193.95 97.318h.444v.89h-.444zM194.395 87.985h.444v1.333h-.445zM194.395 89.763h.444v1.333h-.445zM194.395 92.874h.444v.445h-.445zM194.84 84.43h.444v.445h-.445z"/><path fill="#211915" d="M194.84 84.874h.444v2.222h-.445zM194.84 87.54h.444v1.334h-.445zM194.84 89.318h.444v.89h-.445zM194.84 90.652h.444v.89h-.445zM194.84 91.985h.444v.444h-.445zM194.84 93.763h.444v.445h-.445zM194.84 94.652h.444v.444h-.445zM194.84 95.54h.444v1.78h-.445zM194.84 97.763h.444v.445h-.445zM195.284 83.54h.444v.89h-.444zM195.284 85.318h.444v.89h-.444zM195.284 86.65h.444v.446h-.444zM195.284 88.874h.444v1.333h-.444zM195.284 91.096h.444v.445h-.444zM195.284 92.874h.444v.445h-.444z"/><path fill="#211915" d="M195.284 93.318h.444v.89h-.444zM195.284 96.43h.444v.89h-.444z"/><path fill="#211915" d="M195.284 97.318h.444v.89h-.444zM195.728 83.985h.444v.445h-.444zM195.728 86.207h.444v.444h-.444zM195.728 87.096h.444v1.333h-.444zM195.728 90.207h.444v1.778h-.444zM195.728 92.874h.444v.445h-.444z"/><path fill="#211915" d="M195.728 93.318h.444v.445h-.444zM195.728 94.207h.444v.444h-.444zM195.728 95.096h.444v1.333h-.444zM196.172 83.54h.445v.445h-.445zM196.172 84.43h.445v.445h-.445zM196.172 85.318h.445v.444h-.445zM196.172 86.65h.445v.446h-.445zM196.172 88.874h.445v.445h-.445zM196.172 89.763h.445v1.333h-.445zM196.172 92.43h.445v.444h-.445zM196.172 94.207h.445v.89h-.445zM196.172 95.985h.445v.445h-.445zM196.172 96.874h.445v.444h-.445zM196.172 97.318h.445v.89h-.445zM196.617 86.207h.444v.89h-.443zM196.617 87.54h.444v.89h-.443zM196.617 88.874h.444v.89h-.443zM196.617 90.652h.444v.89h-.443zM196.617 91.985h.444v.444h-.443zM196.617 93.763h.444v.445h-.443zM196.617 95.096h.444v1.778h-.443zM196.617 97.763h.444v.445h-.443z"/><path fill="#211915" d="M197.06 85.318h.445v.89h-.444zM197.06 87.096h.445v1.778h-.444zM197.06 90.207h.445v.444h-.444zM197.06 91.096h.445v2.222h-.444zM197.06 93.763h.445v1.333h-.444zM197.06 95.985h.445v.445h-.444zM197.06 96.874h.445v.444h-.444zM197.06 97.318h.445v.89h-.444zM197.506 84.43h.445v.445h-.444zM197.506 85.318h.445v2.222h-.444zM197.506 87.985h.445v.444h-.444zM197.506 88.874h.445v.445h-.444zM197.506 89.763h.445v.445h-.444zM197.506 90.652h.445v.444h-.444zM197.506 91.54h.445v.89h-.444zM197.506 92.874h.445v.445h-.444z"/><path fill="#211915" d="M197.506 93.318h.445v1.333h-.444zM197.506 95.54h.445v.89h-.444zM197.506 97.318h.445v.444h-.444zM197.95 83.985h.444v.89h-.444z"/><path fill="#211915" d="M197.95 84.874h.444v.89h-.444zM197.95 87.985h.444v3.11h-.444zM197.95 91.54h.444v.445h-.444zM197.95 92.874h.444v.445h-.444zM197.95 95.096h.444v.445h-.444zM197.95 95.985h.444v1.333h-.444zM197.95 97.318h.444v.89h-.444zM198.395 83.985h.445v.89h-.445zM198.395 85.318h.445v.444h-.445zM198.395 86.207h.445v.89h-.445zM198.395 87.54h.445v.445h-.445zM198.395 88.43h.445v.888h-.445zM198.395 89.763h.445v.445h-.445zM198.395 91.096h.445v1.333h-.445zM198.395 92.874h.445v.445h-.445zM198.395 93.763h.445v.445h-.445zM198.395 94.652h.445v.444h-.445zM198.395 95.096h.445v.445h-.445zM198.395 95.985h.445v.445h-.445zM198.395 96.874h.445v.444h-.445z"/><path fill="#211915" d="M198.84 85.318h.443v.89h-.444zM198.84 87.096h.443v1.778h-.444zM198.84 89.318h.443v.445h-.444zM198.84 90.652h.443v.444h-.444zM198.84 94.207h.443v.89h-.444z"/><path fill="#211915" d="M198.84 95.096h.443v.89h-.444zM198.84 96.874h.443v.444h-.444zM198.84 97.763h.443v.445h-.444zM199.284 83.54h.444v.89h-.444zM199.284 84.874h.444v.445h-.444zM199.284 85.763h.444v.89h-.444zM199.284 87.54h.444v.445h-.444zM199.284 88.43h.444v.443h-.444zM199.284 89.318h.444v.89h-.444zM199.284 91.096h.444v.89h-.444zM199.284 92.43h.444v.444h-.444zM199.284 93.763h.444v.445h-.444zM199.284 95.54h.444v.446h-.444zM199.284 96.43h.444v.89h-.444zM199.728 83.54h.445v.445h-.445zM199.728 84.43h.445v.445h-.445z"/><path fill="#211915" d="M199.728 84.874h.445v.445h-.445zM199.728 85.763h.445v.444h-.445zM199.728 86.65h.445v1.334h-.445zM199.728 91.096h.445v.445h-.445zM199.728 93.318h.445v1.778h-.445zM199.728 95.54h.445v.89h-.445z"/><path fill="#211915" d="M200.172 83.54h.444v1.334h-.444zM200.172 85.318h.444v.444h-.444zM200.172 86.207h.444v.89h-.444zM200.172 87.985h.444v1.333h-.444zM200.172 89.763h.444v.445h-.444zM200.172 90.652h.444v1.778h-.444zM200.172 92.874h.444v.445h-.444zM200.172 93.763h.444v.445h-.444zM200.172 94.652h.444v.444h-.444zM200.172 95.54h.444v.89h-.444zM200.172 96.874h.444v.444h-.444zM200.617 83.54h.444v1.334h-.443z"/><path fill="#211915" d="M200.617 84.874h.444v.89h-.443zM200.617 86.65h.444v.446h-.443zM200.617 88.874h.444v.89h-.443zM200.617 90.207h.444v.444h-.443zM200.617 91.096h.444v1.778h-.443zM200.617 93.318h.444v.89h-.443zM200.617 95.985h.444v1.333h-.443zM200.617 97.318h.444v.444h-.443zM201.06 83.54h.446v.445h-.445z"/><path fill="#211915" d="M201.06 84.43h.446v.445h-.445zM201.06 85.318h.446v.444h-.445zM201.06 86.207h.446v.444h-.445zM201.06 87.096h.446v.445h-.445zM201.06 87.985h.446v.444h-.445zM201.06 88.874h.446v.445h-.445zM201.06 90.207h.446v.89h-.445zM201.06 91.985h.446v.444h-.445zM201.06 92.874h.446v.445h-.445zM201.06 93.763h.446v.89h-.445zM201.06 95.096h.446v.445h-.445zM201.06 95.985h.446v.445h-.445zM201.06 97.318h.446v.444h-.445zM201.506 83.54h.444v.445h-.444zM201.506 85.763h.444v.444h-.444zM201.506 86.65h.444v1.334h-.444zM201.506 88.43h.444v.443h-.444zM201.506 90.652h.444v.89h-.444zM201.506 91.985h.444v1.333h-.444zM201.506 94.207h.444v.444h-.444zM201.506 95.096h.444v.89h-.444zM201.506 96.43h.444v.444h-.444zM201.506 97.763h.444v.445h-.444zM201.95 84.43h.444v.445h-.444z"/><path fill="#211915" d="M201.95 84.874h.444v.445h-.444zM201.95 85.763h.444v.89h-.444zM201.95 87.096h.444v.445h-.444zM201.95 88.874h.444v1.333h-.444zM201.95 90.652h.444v.444h-.444zM201.95 92.43h.444v.444h-.444zM201.95 94.207h.444v.89h-.444z"/><path fill="#211915" d="M201.95 95.096h.444v1.333h-.444zM201.95 96.874h.444v.444h-.444zM201.95 97.763h.444v.445h-.444zM202.395 87.54h.445v.89h-.445zM202.395 88.874h.445v.445h-.445zM202.395 90.652h.445v.444h-.445zM202.395 92.43h.445v.89h-.445zM202.395 93.763h.445v.89h-.445zM202.395 95.985h.445v.89h-.445zM202.395 97.318h.445v.444h-.445zM202.84 83.54h.443v1.334h-.444z"/><path fill="#211915" d="M202.84 84.874h.443v1.778h-.444zM202.84 87.096h.443v1.778h-.444zM202.84 89.318h.443v.445h-.444zM202.84 91.096h.443v.89h-.444zM202.84 92.874h.443v.445h-.444zM202.84 94.207h.443v.444h-.444zM202.84 95.096h.443v.445h-.444zM202.84 95.985h.443v.445h-.444zM202.84 96.874h.443v.444h-.444zM203.284 83.54h.444v.445h-.444zM203.284 86.207h.444v.444h-.444zM203.284 87.096h.444v.445h-.444zM203.284 88.874h.444v2.667h-.444zM203.284 92.874h.444v.445h-.444zM203.284 94.207h.444v.444h-.444zM203.284 95.985h.444v1.333h-.444zM203.284 97.318h.444v.89h-.444zM203.728 83.54h.445v.445h-.445zM203.728 84.43h.445v.445h-.445z"/><path fill="#211915" d="M203.728 84.874h.445v.89h-.445zM203.728 86.207h.445v.444h-.445zM203.728 87.096h.445v.445h-.445zM203.728 87.985h.445v1.333h-.445zM203.728 89.763h.445v.445h-.445zM203.728 90.652h.445v.444h-.445zM203.728 91.54h.445v1.334h-.445zM203.728 94.207h.445v.89h-.445z"/><path fill="#211915" d="M203.728 95.096h.445v1.778h-.445zM203.728 97.318h.445v.89h-.445zM204.172 83.54h.444v.445h-.444zM204.172 84.43h.444v.445h-.444z"/><path fill="#211915" d="M204.172 84.874h.444v.89h-.444zM204.172 86.207h.444v.444h-.444zM204.172 87.096h.444v.89h-.444zM204.172 88.43h.444v2.22h-.444zM204.172 91.096h.444v.445h-.444zM204.172 91.985h.444v.89h-.444zM204.172 93.318h.444v.89h-.444zM204.172 95.985h.444v1.333h-.444zM204.172 97.318h.444v.444h-.444zM204.617 83.54h.445v.445h-.445zM204.617 84.43h.445v.445h-.445z"/><path fill="#211915" d="M204.617 84.874h.445v.89h-.445zM204.617 86.207h.445v.444h-.445zM204.617 87.096h.445v1.778h-.445zM204.617 89.318h.445v.445h-.445zM204.617 90.207h.445v.444h-.445zM204.617 91.096h.445v1.333h-.445zM204.617 92.874h.445v.445h-.445z"/><path fill="#211915" d="M204.617 93.318h.445v.89h-.445zM204.617 94.652h.445v.444h-.445zM204.617 95.096h.445v.89h-.445zM204.617 96.874h.445v.444h-.445zM204.617 97.318h.445v.444h-.445zM205.06 83.54h.446v.445h-.445zM205.06 86.207h.446v.444h-.445zM205.06 87.985h.446v.444h-.445zM205.06 88.874h.446v1.333h-.445zM205.06 91.54h.446v.445h-.445zM205.06 92.43h.446v.444h-.445z"/><path fill="#211915" d="M205.06 93.318h.446v.89h-.445zM205.06 95.096h.446v1.333h-.445zM205.06 97.763h.446v.445h-.445zM205.506 83.54h.444v1.334h-.444z"/><path fill="#211915" d="M205.506 84.874h.444v1.778h-.444zM205.506 87.54h.444v.445h-.444zM205.506 89.318h.444v.445h-.444zM205.506 90.652h.444v.89h-.444zM205.506 91.985h.444v1.333h-.444zM205.506 93.763h.444v1.333h-.444zM205.506 96.43h.444v.444h-.444z"/><path fill="#211915" d="M209.278 109.76h-29.916a5.784 5.784 0 0 1-5.778-5.776v-4.108a2.2 2.2 0 0 1 1.74-2.144 7.053 7.053 0 0 0 5.356-6.858 7.052 7.052 0 0 0-5.377-6.862 2.19 2.19 0 0 1-1.718-2.072v-4.176a5.784 5.784 0 0 1 5.777-5.777h29.916c.12 0 .25.005.397.015 4.89.185 9.46 2.23 12.865 5.76 3.415 3.537 5.295 8.194 5.295 13.113s-1.88 9.576-5.295 13.114a18.788 18.788 0 0 1-12.866 5.758 7.214 7.214 0 0 1-.396.013zm-35.634-27.868v.045a2.132 2.132 0 0 0 1.69 2.02 7.11 7.11 0 0 1 5.407 6.917 7.11 7.11 0 0 1-5.4 6.915 2.14 2.14 0 0 0-1.696 2.086v4.108a5.725 5.725 0 0 0 5.72 5.718h29.915c.12 0 .247-.005.392-.015 10.153-.384 18.106-8.647 18.106-18.813s-7.953-18.43-18.105-18.813a5.72 5.72 0 0 0-.394-.014h-29.917a5.725 5.725 0 0 0-5.72 5.718v4.128z"/></g></svg>