<svg xmlns="http://www.w3.org/2000/svg" xmlns:xlink="http://www.w3.org/1999/xlink" viewBox="0 0 320 250"><pattern x="-480" width="323" height="250" patternUnits="userSpaceOnUse" id="a" viewBox="21.605 -250 323 250" overflow="visible"><path fill="none" d="M21.605-250h323V0h-323z"/><path fill="#916633" d="M666.743-250V0h-325v-250z"/><path fill="#916633" d="M343.743-250V0h-325v-250z"/><path opacity=".6" fill="#A67339" d="M292.6-46.606c0-9.787 7.757-17.72 17.323-17.72s17.322 7.932 17.322 17.72c0 9.786-7.756 17.718-17.322 17.718S292.6-36.82 292.6-46.606z"/><path opacity=".6" fill="#A67339" d="M292.845-51.84c0-5.476 4.34-9.912 9.695-9.912 5.352 0 9.69 4.436 9.69 9.912 0 5.476-4.338 9.916-9.69 9.916-5.355 0-9.695-4.44-9.695-9.916z"/><path opacity=".3" fill="#734A1E" d="M297.834-30.47c0-1.255.997-2.275 2.227-2.275s2.227 1.02 2.227 2.276c0 1.26-.998 2.278-2.226 2.278-1.23 0-2.226-1.02-2.226-2.277z"/><path opacity=".6" fill="#A67339" d="M331.067-32.745c0-1.257.996-2.276 2.226-2.276 1.228 0 2.224 1.018 2.224 2.275 0 1.258-.996 2.276-2.224 2.276-1.23 0-2.226-1.017-2.226-2.275zM218.68-52.832c0-4.324 3.427-7.83 7.655-7.83s7.656 3.506 7.656 7.83c0 4.326-3.427 7.83-7.655 7.83s-7.654-3.504-7.654-7.83z"/><path opacity=".3" fill="#734A1E" d="M91.864-64.444c0-9.422 7.468-17.562 16.68-17.562 9.21 0 16.678 8.14 16.678 17.562 0 9.424-7.468 17.06-16.68 17.06-9.21 0-16.678-7.637-16.678-17.06zM150.108-53.9c0-3.13 2.48-5.67 5.54-5.67s5.543 2.54 5.543 5.67-2.48 5.666-5.54 5.666-5.542-2.536-5.542-5.666zM181.13-73.307c0-5.96 4.725-10.79 10.55-10.79 5.826 0 10.548 4.828 10.548 10.79 0 5.957-4.722 10.79-10.547 10.79s-10.55-4.833-10.55-10.79z"/><path opacity=".6" fill="#A67339" d="M171.368-38.332c0-7.287 5.77-13.19 12.894-13.19 7.12 0 12.893 5.903 12.893 13.19 0 7.284-5.773 13.19-12.893 13.19-7.123 0-12.894-5.906-12.894-13.19zM27.334-66.15c0-9.786 7.757-17.717 17.322-17.717s17.322 7.93 17.322 17.718-7.757 17.72-17.322 17.72-17.322-7.932-17.322-17.72z"/><path opacity=".6" fill="#A67339" d="M27.578-71.383c0-5.474 4.34-9.912 9.693-9.912s9.693 4.438 9.693 9.912c0 5.477-4.34 9.916-9.692 9.916s-9.692-4.44-9.692-9.916zM242.01-55.627c0-3.337 2.647-6.044 5.912-6.044 3.26 0 5.908 2.706 5.908 6.043s-2.646 6.044-5.908 6.044c-3.265 0-5.91-2.707-5.91-6.044zM156.315-53.47c0-1.88 1.487-3.4 3.323-3.4 1.835 0 3.325 1.52 3.325 3.4 0 1.876-1.49 3.4-3.325 3.4-1.836 0-3.323-1.524-3.323-3.4zM114.967-68.627c0-4.652 3.69-8.425 8.24-8.425 4.546 0 8.236 3.773 8.236 8.425 0 4.655-3.69 8.426-8.236 8.426-4.55 0-8.24-3.773-8.24-8.427z"/><path opacity=".3" fill="#734A1E" d="M32.57-50.012c0-1.256.994-2.275 2.225-2.275 1.227 0 2.225 1.02 2.225 2.275 0 1.258-.998 2.276-2.225 2.276-1.232 0-2.226-1.017-2.226-2.276zM112.862-47.177c0-1.258.997-2.276 2.224-2.276 1.23 0 2.226 1.02 2.226 2.276 0 1.256-.997 2.273-2.226 2.273-1.227 0-2.224-1.017-2.224-2.273zM247.496-53.41c0-1.26.997-2.278 2.225-2.278 1.23 0 2.226 1.018 2.226 2.278 0 1.256-.997 2.276-2.225 2.276-1.227 0-2.224-1.02-2.224-2.276z"/><path opacity=".6" fill="#A67339" d="M65.8-52.287c0-1.258.996-2.278 2.225-2.278 1.228 0 2.225 1.02 2.225 2.278 0 1.256-.997 2.275-2.225 2.275-1.23 0-2.226-1.02-2.226-2.275zM208.18-57.954c0-1.255.998-2.276 2.226-2.276 1.23 0 2.226 1.02 2.226 2.276 0 1.256-.997 2.277-2.226 2.277-1.228 0-2.225-1.022-2.225-2.277zM186.547-50.012c0-1.256.996-2.275 2.223-2.275 1.23 0 2.224 1.02 2.224 2.275 0 1.258-.994 2.276-2.224 2.276-1.227 0-2.223-1.017-2.223-2.276zM108.908-122.776c0-9.787-7.758-17.72-17.323-17.72-9.567 0-17.323 7.932-17.323 17.72 0 9.786 7.756 17.718 17.323 17.718 9.564 0 17.323-7.932 17.323-17.718z"/><path opacity=".6" fill="#A67339" d="M108.66-128.01c0-5.476-4.338-9.912-9.692-9.912-5.352 0-9.692 4.437-9.692 9.913s4.34 9.916 9.692 9.916c5.354 0 9.693-4.44 9.693-9.915z"/><path opacity=".3" fill="#734A1E" d="M103.672-106.64c0-1.255-.996-2.274-2.226-2.274-1.228 0-2.227 1.02-2.227 2.275 0 1.258.998 2.277 2.226 2.277 1.23 0 2.226-1.02 2.226-2.276zM152.383-139.393c0-2.35-1.862-4.253-4.158-4.253-2.294 0-4.154 1.903-4.154 4.253 0 2.347 1.86 4.25 4.155 4.25 2.296 0 4.158-1.903 4.158-4.25z"/><path opacity=".6" fill="#A67339" d="M254.063-138.438c0-6.297-4.99-11.405-11.15-11.405-6.154 0-11.148 5.11-11.148 11.405 0 6.296 4.994 11.404 11.15 11.404 6.157 0 11.148-5.108 11.148-11.404zM202.558-131.2c0-3.34-2.644-6.046-5.908-6.046s-5.91 2.706-5.91 6.045c0 3.336 2.646 6.044 5.91 6.044s5.908-2.708 5.908-6.045z"/><path opacity=".3" fill="#734A1E" d="M142.64-137.705c0-1.255-.995-2.274-2.225-2.274-1.228 0-2.224 1.02-2.224 2.275 0 1.26.997 2.276 2.225 2.276 1.23 0 2.226-1.015 2.226-2.275z"/><path opacity=".6" fill="#A67339" d="M172.673-133.162c0-1.256-.997-2.276-2.226-2.276-1.228 0-2.224 1.02-2.224 2.276 0 1.26.996 2.278 2.224 2.278 1.23 0 2.226-1.02 2.226-2.278zM70.44-108.914c0-1.258-.996-2.277-2.225-2.277-1.23 0-2.225 1.018-2.225 2.276 0 1.256.996 2.275 2.225 2.275 1.23 0 2.225-1.017 2.225-2.274z"/><path opacity=".3" fill="#734A1E" d="M311.847-106.79c0-9.423-7.467-17.562-16.678-17.562-9.21 0-16.68 8.14-16.68 17.562 0 9.424 7.47 17.06 16.68 17.06s16.677-7.636 16.677-17.06z"/><path opacity=".6" fill="#A67339" d="M288.745-110.974c0-4.652-3.69-8.426-8.24-8.426-4.548 0-8.235 3.775-8.235 8.426 0 4.653 3.688 8.426 8.235 8.426 4.55 0 8.24-3.772 8.24-8.426z"/><path opacity=".3" fill="#734A1E" d="M290.85-89.523c0-1.258-.998-2.277-2.225-2.277-1.228 0-2.225 1.02-2.225 2.277 0 1.255.997 2.274 2.225 2.274 1.227 0 2.225-1.017 2.225-2.273z"/><path opacity=".6" fill="#A67339" d="M347.466-99.894c0-1.258-.998-2.276-2.227-2.276-1.23 0-2.225 1.018-2.225 2.276 0 1.256.996 2.274 2.224 2.274 1.228 0 2.226-1.02 2.226-2.274z"/><path opacity=".3" fill="#734A1E" d="M346.7-172.255c0-6.694-5.307-12.48-11.85-12.48-6.545 0-11.85 5.786-11.85 12.48 0 6.696 5.305 12.122 11.85 12.122 6.543 0 11.85-5.427 11.85-12.122z"/><path opacity=".6" fill="#A67339" d="M86.567-176.356c0-4.322-3.426-7.83-7.655-7.83-4.228 0-7.655 3.508-7.655 7.83 0 4.328 3.428 7.832 7.655 7.832 4.23 0 7.655-3.504 7.655-7.832z"/><path opacity=".3" fill="#734A1E" d="M213.383-187.966c0-9.423-7.468-17.564-16.678-17.564s-16.678 8.14-16.678 17.564c0 9.422 7.468 17.06 16.678 17.06s16.678-7.638 16.678-17.06zM124.118-196.83c0-5.96-4.725-10.79-10.55-10.79-5.827 0-10.548 4.83-10.548 10.79 0 5.958 4.722 10.79 10.548 10.79 5.825 0 10.55-4.832 10.55-10.79z"/><path opacity=".6" fill="#A67339" d="M277.914-189.672c0-9.787-7.758-17.72-17.323-17.72-9.565 0-17.32 7.933-17.32 17.72 0 9.787 7.755 17.72 17.32 17.72 9.566 0 17.324-7.933 17.324-17.72z"/><path opacity=".6" fill="#A67339" d="M277.668-194.905c0-5.477-4.34-9.91-9.692-9.91-5.353 0-9.692 4.434-9.692 9.91 0 5.475 4.34 9.915 9.692 9.915 5.353 0 9.692-4.44 9.692-9.915zM63.237-179.15c0-3.338-2.646-6.043-5.91-6.043-3.263 0-5.91 2.705-5.91 6.043s2.646 6.044 5.91 6.044c3.263 0 5.91-2.706 5.91-6.044zM190.28-192.15c0-4.653-3.69-8.426-8.24-8.426-4.548 0-8.235 3.772-8.235 8.425 0 4.654 3.687 8.427 8.235 8.427 4.55 0 8.24-3.773 8.24-8.428zM175.743-221.025c0-7.285-5.773-13.19-12.894-13.19-7.123 0-12.896 5.905-12.896 13.19 0 7.284 5.773 13.19 12.895 13.19 7.12 0 12.893-5.906 12.893-13.19z"/><path opacity=".6" fill="#A67339" d="M160.563-232.705c0-1.256-.996-2.275-2.223-2.275-1.23 0-2.225 1.02-2.225 2.275 0 1.26.995 2.276 2.225 2.276 1.227 0 2.223-1.016 2.223-2.275z"/><g><path opacity=".6" fill="#A67339" d="M24.466-99.894c0-1.258-.998-2.276-2.227-2.276-1.23 0-2.225 1.018-2.225 2.276 0 1.256.996 2.274 2.224 2.274 1.228 0 2.226-1.02 2.226-2.274z"/><path opacity=".3" fill="#734A1E" d="M23.7-172.255c0-6.694-5.307-12.48-11.85-12.48-6.545 0-11.85 5.786-11.85 12.48 0 6.696 5.305 12.122 11.85 12.122 6.543 0 11.85-5.427 11.85-12.122z"/></g></pattern><pattern id="b" xlink:href="#a" patternTransform="translate(198.76 -18.597)"/><path fill="url(#b)" d="M0 0h320v250H0z"/></svg>