<?xml version="1.0" encoding="utf-8"?>
<!-- Generator: Adobe Illustrator 19.1.0, SVG Export Plug-In . SVG Version: 6.00 Build 0)  -->
<svg version="1.1" id="Capa_1" xmlns="http://www.w3.org/2000/svg" xmlns:xlink="http://www.w3.org/1999/xlink" x="0px" y="0px"
	 viewBox="0 0 320 250" enable-background="new 0 0 320 250" xml:space="preserve">
<pattern  x="-480" width="323" height="250" patternUnits="userSpaceOnUse" id="tierras" viewBox="21.605 -250 323 250" overflow="visible">
	<g>
		<polygon fill="none" points="21.605,-250 344.604,-250 344.604,0 21.605,0 		"/>
		<g>
			<polygon fill="#916633" points="666.743,-250 666.743,0 341.743,0 341.743,-250 			"/>
		</g>
		<g>
			<polygon fill="#916633" points="343.743,-250 343.743,0 18.743,0 18.743,-250 			"/>
			<path opacity="0.6" fill="#A67339" d="M292.6-46.606c0-9.787,7.757-17.719,17.323-17.719s17.322,7.931,17.322,17.719
				c0,9.786-7.756,17.718-17.322,17.718S292.6-36.82,292.6-46.606z"/>
			<path opacity="0.6" fill="#A67339" d="M292.845-51.84c0-5.476,4.341-9.912,9.695-9.912c5.352,0,9.69,4.436,9.69,9.912
				c0,5.476-4.338,9.916-9.69,9.916C297.185-41.924,292.845-46.364,292.845-51.84z"/>
			<path opacity="0.3" fill="#734A1E" d="M297.834-30.469c0-1.256,0.997-2.276,2.227-2.276c1.228,0,2.226,1.019,2.226,2.276
				c0,1.258-0.998,2.277-2.226,2.277C298.831-28.192,297.834-29.211,297.834-30.469z"/>
			<path opacity="0.6" fill="#A67339" d="M331.067-32.745c0-1.257,0.996-2.276,2.226-2.276c1.228,0,2.224,1.019,2.224,2.276
				c0,1.258-0.996,2.276-2.224,2.276C332.063-30.469,331.067-31.487,331.067-32.745z"/>
			<path opacity="0.6" fill="#A67339" d="M218.681-52.832c0-4.324,3.426-7.831,7.654-7.831c4.228,0,7.656,3.507,7.656,7.831
				c0,4.326-3.428,7.831-7.656,7.831C222.107-45.002,218.681-48.506,218.681-52.832z"/>
			<path opacity="0.3" fill="#734A1E" d="M91.864-64.444c0-9.422,7.468-17.562,16.679-17.562c9.21,0,16.679,8.14,16.679,17.562
				c0,9.424-7.468,17.061-16.679,17.061C99.332-47.384,91.864-55.021,91.864-64.444z"/>
			<path opacity="0.3" fill="#734A1E" d="M150.108-53.9c0-3.131,2.481-5.67,5.541-5.67c3.06,0,5.542,2.539,5.542,5.67
				c0,3.13-2.481,5.666-5.542,5.666C152.59-48.234,150.108-50.77,150.108-53.9z"/>
			<path opacity="0.3" fill="#734A1E" d="M181.131-73.307c0-5.961,4.724-10.791,10.55-10.791c5.825,0,10.547,4.829,10.547,10.791
				c0,5.957-4.722,10.789-10.547,10.789C185.855-62.518,181.131-67.35,181.131-73.307z"/>
			<path opacity="0.6" fill="#A67339" d="M171.368-38.332c0-7.287,5.771-13.19,12.894-13.19c7.12,0,12.893,5.903,12.893,13.19
				c0,7.284-5.773,13.191-12.893,13.191C177.139-25.142,171.368-31.048,171.368-38.332z"/>
			<path opacity="0.6" fill="#A67339" d="M27.334-66.149c0-9.787,7.757-17.718,17.322-17.718c9.565,0,17.322,7.93,17.322,17.718
				c0,9.787-7.757,17.719-17.322,17.719C35.091-48.43,27.334-56.362,27.334-66.149z"/>
			<path opacity="0.6" fill="#A67339" d="M27.578-71.383c0-5.474,4.339-9.912,9.693-9.912c5.352,0,9.692,4.438,9.692,9.912
				c0,5.477-4.339,9.916-9.692,9.916C31.918-61.467,27.578-65.906,27.578-71.383z"/>
			<path opacity="0.6" fill="#A67339" d="M242.011-55.627c0-3.337,2.646-6.044,5.911-6.044c3.261,0,5.908,2.707,5.908,6.044
				c0,3.337-2.646,6.044-5.908,6.044C244.657-49.583,242.011-52.29,242.011-55.627z"/>
			<path opacity="0.6" fill="#A67339" d="M156.315-53.471c0-1.878,1.487-3.399,3.323-3.399c1.835,0,3.325,1.521,3.325,3.399
				c0,1.877-1.489,3.401-3.325,3.401C157.802-50.071,156.315-51.594,156.315-53.471z"/>
			<path opacity="0.6" fill="#A67339" d="M114.967-68.627c0-4.652,3.69-8.425,8.24-8.425c4.546,0,8.236,3.773,8.236,8.425
				c0,4.655-3.69,8.426-8.236,8.426C118.657-60.201,114.967-63.973,114.967-68.627z"/>
			<path fill="#68431C" d="M173.287-82.46"/>
			<path opacity="0.3" fill="#734A1E" d="M32.569-50.012c0-1.256,0.995-2.275,2.226-2.275c1.227,0,2.225,1.019,2.225,2.275
				c0,1.258-0.998,2.276-2.225,2.276C33.563-47.736,32.569-48.753,32.569-50.012z"/>
			<path opacity="0.3" fill="#734A1E" d="M112.862-47.177c0-1.258,0.997-2.276,2.224-2.276c1.229,0,2.226,1.019,2.226,2.276
				c0,1.256-0.997,2.273-2.226,2.273C113.859-44.904,112.862-45.921,112.862-47.177z"/>
			<path opacity="0.3" fill="#734A1E" d="M247.496-53.41c0-1.26,0.997-2.278,2.225-2.278c1.228,0,2.225,1.018,2.225,2.278
				c0,1.256-0.997,2.276-2.225,2.276C248.493-51.134,247.496-52.155,247.496-53.41z"/>
			<path opacity="0.6" fill="#A67339" d="M65.799-52.287c0-1.258,0.997-2.278,2.226-2.278c1.228,0,2.225,1.02,2.225,2.278
				c0,1.256-0.997,2.275-2.225,2.275C66.796-50.012,65.799-51.031,65.799-52.287z"/>
			<path opacity="0.6" fill="#A67339" d="M208.181-57.954c0-1.255,0.997-2.276,2.225-2.276c1.229,0,2.226,1.021,2.226,2.276
				c0,1.256-0.997,2.277-2.226,2.277C209.178-55.677,208.181-56.699,208.181-57.954z"/>
			<path opacity="0.6" fill="#A67339" d="M186.547-50.012c0-1.256,0.996-2.275,2.223-2.275c1.23,0,2.224,1.019,2.224,2.275
				c0,1.258-0.994,2.276-2.224,2.276C187.543-47.736,186.547-48.753,186.547-50.012z"/>
			<path fill="#68431C" d="M189.799-84.241"/>
			<path opacity="0.6" fill="#A67339" d="M108.908-122.776c0-9.787-7.758-17.721-17.323-17.721c-9.567,0-17.323,7.933-17.323,17.721
				c0,9.786,7.756,17.718,17.323,17.718C101.149-105.058,108.908-112.99,108.908-122.776z"/>
			<path opacity="0.6" fill="#A67339" d="M108.661-128.009c0-5.477-4.339-9.913-9.693-9.913c-5.352,0-9.692,4.437-9.692,9.913
				c0,5.475,4.339,9.915,9.692,9.915C104.322-118.094,108.661-122.533,108.661-128.009z"/>
			<path opacity="0.3" fill="#734A1E" d="M103.672-106.639c0-1.256-0.996-2.275-2.226-2.275c-1.228,0-2.227,1.019-2.227,2.275
				c0,1.257,0.999,2.276,2.227,2.276C102.676-104.362,103.672-105.382,103.672-106.639z"/>
			<path opacity="0.3" fill="#734A1E" d="M152.383-139.393c0-2.35-1.862-4.253-4.158-4.253c-2.294,0-4.154,1.903-4.154,4.253
				c0,2.347,1.86,4.25,4.154,4.25C150.521-135.143,152.383-137.046,152.383-139.393z"/>
			<path opacity="0.6" fill="#A67339" d="M254.063-138.438c0-6.297-4.991-11.405-11.149-11.405c-6.155,0-11.149,5.109-11.149,11.405
				c0,6.296,4.994,11.404,11.149,11.404C249.072-127.033,254.063-132.142,254.063-138.438z"/>
			<path opacity="0.6" fill="#A67339" d="M202.558-131.201c0-3.339-2.644-6.045-5.908-6.045s-5.909,2.706-5.909,6.045
				c0,3.337,2.645,6.045,5.909,6.045S202.558-127.864,202.558-131.201z"/>
			<path opacity="0.3" fill="#734A1E" d="M142.641-137.705c0-1.255-0.996-2.274-2.226-2.274c-1.228,0-2.224,1.019-2.224,2.274
				c0,1.26,0.996,2.276,2.224,2.276C141.645-135.429,142.641-136.445,142.641-137.705z"/>
			<path opacity="0.6" fill="#A67339" d="M172.673-133.162c0-1.256-0.997-2.276-2.226-2.276c-1.228,0-2.224,1.02-2.224,2.276
				c0,1.259,0.996,2.278,2.224,2.278C171.677-130.884,172.673-131.903,172.673-133.162z"/>
			<path opacity="0.6" fill="#A67339" d="M70.44-108.914c0-1.258-0.996-2.277-2.225-2.277c-1.229,0-2.225,1.019-2.225,2.277
				c0,1.256,0.996,2.275,2.225,2.275C69.444-106.639,70.44-107.657,70.44-108.914z"/>
			<path opacity="0.3" fill="#734A1E" d="M311.847-106.79c0-9.423-7.467-17.562-16.678-17.562c-9.21,0-16.678,8.139-16.678,17.562
				c0,9.424,7.468,17.06,16.678,17.06C304.38-89.73,311.847-97.366,311.847-106.79z"/>
			<path opacity="0.6" fill="#A67339" d="M288.745-110.974c0-4.652-3.69-8.426-8.24-8.426c-4.548,0-8.235,3.775-8.235,8.426
				c0,4.653,3.688,8.426,8.235,8.426C285.055-102.547,288.745-106.32,288.745-110.974z"/>
			<path opacity="0.3" fill="#734A1E" d="M290.85-89.523c0-1.258-0.998-2.277-2.225-2.277c-1.228,0-2.225,1.019-2.225,2.277
				c0,1.255,0.997,2.274,2.225,2.274C289.852-87.249,290.85-88.267,290.85-89.523z"/>
			<path opacity="0.6" fill="#A67339" d="M347.466-99.894c0-1.258-0.998-2.276-2.227-2.276c-1.228,0-2.224,1.018-2.224,2.276
				c0,1.256,0.996,2.274,2.224,2.274C346.468-97.62,347.466-98.639,347.466-99.894z"/>
			<path opacity="0.3" fill="#734A1E" d="M346.7-172.255c0-6.694-5.307-12.479-11.85-12.479c-6.545,0-11.85,5.785-11.85,12.479
				c0,6.696,5.305,12.122,11.85,12.122C341.393-160.133,346.7-165.56,346.7-172.255z"/>
			<path opacity="0.6" fill="#A67339" d="M86.567-176.356c0-4.322-3.426-7.83-7.655-7.83c-4.228,0-7.655,3.508-7.655,7.83
				c0,4.328,3.428,7.832,7.655,7.832C83.141-168.524,86.567-172.028,86.567-176.356z"/>
			<path opacity="0.3" fill="#734A1E" d="M213.383-187.966c0-9.423-7.468-17.564-16.678-17.564c-9.21,0-16.678,8.141-16.678,17.564
				c0,9.422,7.468,17.06,16.678,17.06C205.915-170.906,213.383-178.544,213.383-187.966z"/>
			<path opacity="0.3" fill="#734A1E" d="M124.118-196.831c0-5.959-4.725-10.789-10.55-10.789c-5.827,0-10.548,4.83-10.548,10.789
				c0,5.959,4.722,10.791,10.548,10.791C119.393-186.041,124.118-190.872,124.118-196.831z"/>
			<path opacity="0.6" fill="#A67339" d="M277.914-189.672c0-9.787-7.758-17.719-17.323-17.719c-9.566,0-17.322,7.932-17.322,17.719
				c0,9.787,7.756,17.719,17.322,17.719C270.156-171.953,277.914-179.885,277.914-189.672z"/>
			<path opacity="0.6" fill="#A67339" d="M277.668-194.905c0-5.477-4.339-9.911-9.692-9.911c-5.353,0-9.692,4.435-9.692,9.911
				c0,5.475,4.339,9.915,9.692,9.915C273.329-184.99,277.668-189.43,277.668-194.905z"/>
			<path opacity="0.6" fill="#A67339" d="M63.237-179.15c0-3.338-2.646-6.043-5.911-6.043c-3.262,0-5.909,2.705-5.909,6.043
				s2.646,6.044,5.909,6.044C60.59-173.106,63.237-175.812,63.237-179.15z"/>
			<path opacity="0.6" fill="#A67339" d="M190.279-192.151c0-4.652-3.688-8.425-8.239-8.425c-4.548,0-8.235,3.772-8.235,8.425
				c0,4.655,3.687,8.428,8.235,8.428C186.591-183.723,190.279-187.496,190.279-192.151z"/>
			<path fill="#68431C" d="M131.96-205.984"/>
			<path fill="#68431C" d="M115.447-207.765"/>
			<path opacity="0.6" fill="#A67339" d="M175.743-221.025c0-7.285-5.773-13.19-12.894-13.19c-7.122,0-12.895,5.905-12.895,13.19
				c0,7.284,5.773,13.191,12.895,13.191C169.97-207.835,175.743-213.741,175.743-221.025z"/>
			<path opacity="0.6" fill="#A67339" d="M160.563-232.705c0-1.256-0.996-2.275-2.223-2.275c-1.23,0-2.225,1.019-2.225,2.275
				c0,1.259,0.995,2.276,2.225,2.276C159.567-230.429,160.563-231.446,160.563-232.705z"/>
		</g>
		<g>
			<path opacity="0.6" fill="#A67339" d="M24.466-99.894c0-1.258-0.998-2.276-2.227-2.276c-1.228,0-2.224,1.018-2.224,2.276
				c0,1.256,0.996,2.274,2.224,2.274C23.468-97.62,24.466-98.639,24.466-99.894z"/>
			<path opacity="0.3" fill="#734A1E" d="M23.7-172.255c0-6.694-5.307-12.479-11.85-12.479c-6.545,0-11.85,5.785-11.85,12.479
				c0,6.696,5.305,12.122,11.85,12.122C18.393-160.133,23.7-165.56,23.7-172.255z"/>
		</g>
	</g>
</pattern>
<pattern  id="SVGID_1_" xlink:href="#tierras" patternTransform="matrix(1 0 0 1 198.7597 -18.5974)">
</pattern>
<rect x="0" y="0" fill="url(#SVGID_1_)" width="320" height="250"/>
</svg>
