<svg xmlns="http://www.w3.org/2000/svg" xmlns:xlink="http://www.w3.org/1999/xlink" viewBox="0 0 320 250"><pattern x="-480" width="323" height="250" patternUnits="userSpaceOnUse" id="a" viewBox="21.605 -250 323 250" overflow="visible"><path fill="none" d="M21.605-250h322.999V0H21.605z"/><path fill="#916633" d="M666.743-250V0h-325v-250z"/><path fill="#916633" d="M343.743-250V0h-325v-250z"/><path opacity=".6" fill="#A67339" d="M292.6-46.606c0-9.787 7.757-17.719 17.323-17.719s17.322 7.931 17.322 17.719c0 9.786-7.756 17.718-17.322 17.718S292.6-36.82 292.6-46.606z"/><path opacity=".6" fill="#A67339" d="M292.845-51.84c0-5.476 4.341-9.912 9.695-9.912 5.352 0 9.69 4.436 9.69 9.912 0 5.476-4.338 9.916-9.69 9.916-5.355 0-9.695-4.44-9.695-9.916z"/><path opacity=".3" fill="#734A1E" d="M297.834-30.469c0-1.256.997-2.276 2.227-2.276 1.228 0 2.226 1.019 2.226 2.276 0 1.258-.998 2.277-2.226 2.277-1.23 0-2.227-1.019-2.227-2.277z"/><path opacity=".6" fill="#A67339" d="M331.067-32.745c0-1.257.996-2.276 2.226-2.276 1.228 0 2.224 1.019 2.224 2.276 0 1.258-.996 2.276-2.224 2.276-1.23 0-2.226-1.018-2.226-2.276zM218.681-52.832c0-4.324 3.426-7.831 7.654-7.831s7.656 3.507 7.656 7.831c0 4.326-3.428 7.831-7.656 7.831-4.228-.001-7.654-3.505-7.654-7.831z"/><path opacity=".3" fill="#734A1E" d="M91.864-64.444c0-9.422 7.468-17.562 16.679-17.562 9.21 0 16.679 8.14 16.679 17.562 0 9.424-7.468 17.061-16.679 17.061-9.211-.001-16.679-7.638-16.679-17.061zM150.108-53.9c0-3.131 2.481-5.67 5.541-5.67 3.06 0 5.542 2.539 5.542 5.67 0 3.13-2.481 5.666-5.542 5.666-3.059 0-5.541-2.536-5.541-5.666zm31.023-19.407c0-5.961 4.724-10.791 10.55-10.791 5.825 0 10.547 4.829 10.547 10.791 0 5.957-4.722 10.789-10.547 10.789-5.826 0-10.55-4.832-10.55-10.789z"/><path opacity=".6" fill="#A67339" d="M171.368-38.332c0-7.287 5.771-13.19 12.894-13.19 7.12 0 12.893 5.903 12.893 13.19 0 7.284-5.773 13.191-12.893 13.191-7.123-.001-12.894-5.907-12.894-13.191zM27.334-66.149c0-9.787 7.757-17.718 17.322-17.718s17.322 7.93 17.322 17.718c0 9.787-7.757 17.719-17.322 17.719s-17.322-7.932-17.322-17.719z"/><path opacity=".6" fill="#A67339" d="M27.578-71.383c0-5.474 4.339-9.912 9.693-9.912 5.352 0 9.692 4.438 9.692 9.912 0 5.477-4.339 9.916-9.692 9.916s-9.693-4.439-9.693-9.916zm214.433 15.756c0-3.337 2.646-6.044 5.911-6.044 3.261 0 5.908 2.707 5.908 6.044 0 3.337-2.646 6.044-5.908 6.044-3.265 0-5.911-2.707-5.911-6.044zm-85.696 2.156c0-1.878 1.487-3.399 3.323-3.399 1.835 0 3.325 1.521 3.325 3.399 0 1.877-1.489 3.401-3.325 3.401-1.836-.001-3.323-1.524-3.323-3.401zm-41.348-15.156c0-4.652 3.69-8.425 8.24-8.425 4.546 0 8.236 3.773 8.236 8.425 0 4.655-3.69 8.426-8.236 8.426-4.55 0-8.24-3.772-8.24-8.426z"/><path opacity=".3" fill="#734A1E" d="M32.569-50.012c0-1.256.995-2.275 2.226-2.275 1.227 0 2.225 1.019 2.225 2.275 0 1.258-.998 2.276-2.225 2.276-1.232 0-2.226-1.017-2.226-2.276zm80.293 2.835c0-1.258.997-2.276 2.224-2.276 1.229 0 2.226 1.019 2.226 2.276 0 1.256-.997 2.273-2.226 2.273-1.227 0-2.224-1.017-2.224-2.273zm134.634-6.233c0-1.26.997-2.278 2.225-2.278 1.228 0 2.225 1.018 2.225 2.278 0 1.256-.997 2.276-2.225 2.276-1.228 0-2.225-1.021-2.225-2.276z"/><path opacity=".6" fill="#A67339" d="M65.799-52.287c0-1.258.997-2.278 2.226-2.278 1.228 0 2.225 1.02 2.225 2.278 0 1.256-.997 2.275-2.225 2.275-1.229 0-2.226-1.019-2.226-2.275zm142.382-5.667c0-1.255.997-2.276 2.225-2.276 1.229 0 2.226 1.021 2.226 2.276 0 1.256-.997 2.277-2.226 2.277-1.228 0-2.225-1.022-2.225-2.277zm-21.634 7.942c0-1.256.996-2.275 2.223-2.275 1.23 0 2.224 1.019 2.224 2.275 0 1.258-.994 2.276-2.224 2.276-1.227 0-2.223-1.017-2.223-2.276zm-77.639-72.764c0-9.787-7.758-17.721-17.323-17.721-9.567 0-17.323 7.933-17.323 17.721 0 9.786 7.756 17.718 17.323 17.718 9.564 0 17.323-7.932 17.323-17.718z"/><path opacity=".6" fill="#A67339" d="M108.661-128.009c0-5.477-4.339-9.913-9.693-9.913-5.352 0-9.692 4.437-9.692 9.913 0 5.475 4.339 9.915 9.692 9.915 5.354 0 9.693-4.439 9.693-9.915z"/><path opacity=".3" fill="#734A1E" d="M103.672-106.639c0-1.256-.996-2.275-2.226-2.275-1.228 0-2.227 1.019-2.227 2.275 0 1.257.999 2.276 2.227 2.276 1.23.001 2.226-1.019 2.226-2.276zm48.711-32.754c0-2.35-1.862-4.253-4.158-4.253-2.294 0-4.154 1.903-4.154 4.253 0 2.347 1.86 4.25 4.154 4.25 2.296 0 4.158-1.903 4.158-4.25z"/><path opacity=".6" fill="#A67339" d="M254.063-138.438c0-6.297-4.991-11.405-11.149-11.405-6.155 0-11.149 5.109-11.149 11.405 0 6.296 4.994 11.404 11.149 11.404 6.158.001 11.149-5.108 11.149-11.404zm-51.505 7.237c0-3.339-2.644-6.045-5.908-6.045s-5.909 2.706-5.909 6.045c0 3.337 2.645 6.045 5.909 6.045s5.908-2.708 5.908-6.045z"/><path opacity=".3" fill="#734A1E" d="M142.641-137.705c0-1.255-.996-2.274-2.226-2.274-1.228 0-2.224 1.019-2.224 2.274 0 1.26.996 2.276 2.224 2.276 1.23 0 2.226-1.016 2.226-2.276z"/><path opacity=".6" fill="#A67339" d="M172.673-133.162c0-1.256-.997-2.276-2.226-2.276-1.228 0-2.224 1.02-2.224 2.276 0 1.259.996 2.278 2.224 2.278 1.23 0 2.226-1.019 2.226-2.278zM70.44-108.914c0-1.258-.996-2.277-2.225-2.277s-2.225 1.019-2.225 2.277c0 1.256.996 2.275 2.225 2.275s2.225-1.018 2.225-2.275z"/><path opacity=".3" fill="#734A1E" d="M311.847-106.79c0-9.423-7.467-17.562-16.678-17.562-9.21 0-16.678 8.139-16.678 17.562 0 9.424 7.468 17.06 16.678 17.06 9.211 0 16.678-7.636 16.678-17.06z"/><path opacity=".6" fill="#A67339" d="M288.745-110.974c0-4.652-3.69-8.426-8.24-8.426-4.548 0-8.235 3.775-8.235 8.426 0 4.653 3.688 8.426 8.235 8.426 4.55.001 8.24-3.772 8.24-8.426z"/><path opacity=".3" fill="#734A1E" d="M290.85-89.523c0-1.258-.998-2.277-2.225-2.277-1.228 0-2.225 1.019-2.225 2.277 0 1.255.997 2.274 2.225 2.274 1.227 0 2.225-1.018 2.225-2.274z"/><path opacity=".6" fill="#A67339" d="M347.466-99.894c0-1.258-.998-2.276-2.227-2.276-1.228 0-2.224 1.018-2.224 2.276 0 1.256.996 2.274 2.224 2.274 1.229 0 2.227-1.019 2.227-2.274z"/><path opacity=".3" fill="#734A1E" d="M346.7-172.255c0-6.694-5.307-12.479-11.85-12.479-6.545 0-11.85 5.785-11.85 12.479 0 6.696 5.305 12.122 11.85 12.122 6.543 0 11.85-5.427 11.85-12.122z"/><path opacity=".6" fill="#A67339" d="M86.567-176.356c0-4.322-3.426-7.83-7.655-7.83-4.228 0-7.655 3.508-7.655 7.83 0 4.328 3.428 7.832 7.655 7.832 4.229 0 7.655-3.504 7.655-7.832z"/><path opacity=".3" fill="#734A1E" d="M213.383-187.966c0-9.423-7.468-17.564-16.678-17.564s-16.678 8.141-16.678 17.564c0 9.422 7.468 17.06 16.678 17.06s16.678-7.638 16.678-17.06zm-89.265-8.865c0-5.959-4.725-10.789-10.55-10.789-5.827 0-10.548 4.83-10.548 10.789s4.722 10.791 10.548 10.791c5.825-.001 10.55-4.832 10.55-10.791z"/><path opacity=".6" fill="#A67339" d="M277.914-189.672c0-9.787-7.758-17.719-17.323-17.719-9.566 0-17.322 7.932-17.322 17.719s7.756 17.719 17.322 17.719c9.565 0 17.323-7.932 17.323-17.719z"/><path opacity=".6" fill="#A67339" d="M277.668-194.905c0-5.477-4.339-9.911-9.692-9.911s-9.692 4.435-9.692 9.911c0 5.475 4.339 9.915 9.692 9.915s9.692-4.44 9.692-9.915zM63.237-179.15c0-3.338-2.646-6.043-5.911-6.043-3.262 0-5.909 2.705-5.909 6.043s2.646 6.044 5.909 6.044c3.264 0 5.911-2.706 5.911-6.044zm127.042-13.001c0-4.652-3.688-8.425-8.239-8.425-4.548 0-8.235 3.772-8.235 8.425 0 4.655 3.687 8.428 8.235 8.428 4.551 0 8.239-3.773 8.239-8.428zm-14.536-28.874c0-7.285-5.773-13.19-12.894-13.19-7.122 0-12.895 5.905-12.895 13.19 0 7.284 5.773 13.191 12.895 13.191 7.121-.001 12.894-5.907 12.894-13.191z"/><path opacity=".6" fill="#A67339" d="M160.563-232.705c0-1.256-.996-2.275-2.223-2.275-1.23 0-2.225 1.019-2.225 2.275 0 1.259.995 2.276 2.225 2.276 1.227 0 2.223-1.017 2.223-2.276zM24.466-99.894c0-1.258-.998-2.276-2.227-2.276-1.228 0-2.224 1.018-2.224 2.276 0 1.256.996 2.274 2.224 2.274 1.229 0 2.227-1.019 2.227-2.274z"/><path opacity=".3" fill="#734A1E" d="M23.7-172.255c0-6.694-5.307-12.479-11.85-12.479-6.545 0-11.85 5.785-11.85 12.479 0 6.696 5.305 12.122 11.85 12.122 6.543 0 11.85-5.427 11.85-12.122z"/></pattern><pattern id="b" xlink:href="#a" patternTransform="translate(198.76 -18.597)"/><path fill="url(#b)" d="M0 0h320v250H0z"/></svg>