<?xml version="1.0" encoding="utf-8"?>
<!-- Generator: Adobe Illustrator 19.1.0, SVG Export Plug-In . SVG Version: 6.00 Build 0)  -->
<svg version="1.1" id="Capa_1" xmlns="http://www.w3.org/2000/svg" xmlns:xlink="http://www.w3.org/1999/xlink" x="0px" y="0px"
	 viewBox="0 0 40 40" style="enable-background:new 0 0 40 40;" xml:space="preserve">
<style type="text/css">
	.st0{enable-background:new    ;}
	.st1{fill:#FFFFFF;}
</style>
<g class="st0">
	<path class="st1" d="M22.4,17.8c0.7-1,1-1.9,1-2.8c0-0.9-0.3-1.7-0.9-2.3c-0.6-0.6-1.4-0.9-2.3-0.9c-1.7,0-3.3,1.2-4.8,3.6
		l-4.8-2.9c1.3-2,2.7-3.4,4.2-4.5c1.5-1,3.4-1.5,5.8-1.5c2.3,0,4.4,0.7,6.2,2.2c1.8,1.5,2.7,3.5,2.7,6.1c0,1.4-0.4,2.7-1.1,4
		c-0.7,1.3-2,2.9-3.9,4.9l-4.9,5.1h10.7v5.4H11.1v-4.5l7.9-8.1C20.6,20,21.7,18.7,22.4,17.8z"/>
</g>
</svg>
