<?xml version="1.0" encoding="utf-8"?>
<!-- Generator: Adobe Illustrator 19.1.0, SVG Export Plug-In . SVG Version: 6.00 Build 0)  -->
<svg version="1.1" id="Capa_1" xmlns="http://www.w3.org/2000/svg" xmlns:xlink="http://www.w3.org/1999/xlink" x="0px" y="0px"
	 viewBox="0 0 40 40" style="enable-background:new 0 0 40 40;" xml:space="preserve">
<style type="text/css">
	.st0{enable-background:new    ;}
	.st1{fill:#FFFFFF;}
</style>
<g class="st0">
	<path class="st1" d="M11.7,12.4V7.3h16.6v4.2l-5.5,6.3c2.2,0.4,3.8,1.3,5,2.7c1.2,1.5,1.8,3.1,1.8,5.1c0,2.8-1,5.1-2.9,6.7
		c-1.9,1.6-4.4,2.4-7.4,2.4c-3,0-6-1.1-9.1-3.2l2.5-4.8c2.6,1.8,4.8,2.7,6.9,2.7c1.2,0,2.2-0.3,3-0.9c0.8-0.6,1.2-1.5,1.2-2.6
		s-0.5-2-1.4-2.7c-0.9-0.7-2.2-1-3.8-1c-0.9,0-2.1,0.2-3.6,0.7v-4.5l5.2-6.1H11.7z"/>
</g>
</svg>
