<?xml version="1.0" encoding="utf-8"?>
<!-- Generator: Adobe Illustrator 19.1.0, SVG Export Plug-In . SVG Version: 6.00 Build 0)  -->
<svg version="1.1" id="Capa_1" xmlns="http://www.w3.org/2000/svg" xmlns:xlink="http://www.w3.org/1999/xlink" x="0px" y="0px"
	 viewBox="0 0 1024 711" enable-background="new 0 0 1024 711" xml:space="preserve">
<g opacity="0.31">
	<g>
		<defs>
			
				<rect id="SVGID_1_" x="541.566" y="198.955" transform="matrix(-0.9911 -0.1331 0.1331 -0.9911 1303.6699 566.3522)" width="258.399" height="81.292"/>
		</defs>
		<clipPath id="SVGID_2_">
			<use xlink:href="#SVGID_1_"  overflow="visible"/>
		</clipPath>
		<path clip-path="url(#SVGID_2_)" fill="#F7F7F8" d="M793.406,299.495c0,0-90.287-40.288-167.478-49.026
			c-77.191-8.742-85.376-9.544-85.376-9.544s47.656-27.301,97.21-0.035c7.355-9.891,19.777-1.381,19.777-1.381
			s12.377-41.649,52.664-33.04c40.287,8.61,76.911,38.881,56.854,64.777C789.145,269.534,793.406,299.495,793.406,299.495"/>
	</g>
</g>
<path opacity="0.2" fill="#F7F7F8" d="M977.854,141.427c18-20.161-10.405-47.185-43.072-56.588
	c-32.664-9.406-45.247,24.163-45.247,24.163s-9.735-7.719-16.358,0c-39.221-25.293-36.848-4.572-36.848-4.572
	s-36.479,0.141,26.555,11.776c63.032,11.634,135.034,49.988,135.034,49.988S996.13,141.29,977.854,141.427z"/>
<g opacity="0.5">
	<g>
		<defs>
			
				<rect id="SVGID_3_" x="214.064" y="96.317" transform="matrix(-0.9988 0.048 -0.048 -0.9988 694.9633 257.9441)" width="260.642" height="81.997"/>
		</defs>
		<clipPath id="SVGID_4_">
			<use xlink:href="#SVGID_3_"  overflow="visible"/>
		</clipPath>
		<path clip-path="url(#SVGID_4_)" fill="#F7F7F8" d="M216.182,186.614c0,0,94.204-32.713,172.539-34.849
			c78.329-2.136,86.622-2.238,86.622-2.238s-45.542-31.543-97.693-8.408c-6.541-10.571-19.755-3.092-19.755-3.092
			s-8.851-42.919-50.083-37.737c-41.227,5.185-80.639,32.45-62.717,60.204C223.048,156.87,216.182,186.614,216.182,186.614"/>
	</g>
</g>
<g opacity="0.5">
	<g>
		<defs>
			
				<rect id="SVGID_5_" x="349.028" y="434.821" transform="matrix(-0.9939 -0.1104 0.1104 -0.9939 942.4085 1016.3926)" width="300.624" height="94.574"/>
		</defs>
		<clipPath id="SVGID_6_">
			<use xlink:href="#SVGID_5_"  overflow="visible"/>
		</clipPath>
		<path clip-path="url(#SVGID_6_)" fill="#F7F7F8" d="M344.345,514.898c0,0,113.252-20.095,202.856-8.254
			c89.601,11.839,99.064,13.233,99.064,13.233s-46.121-44.224-109.732-27.377c-5.523-13.23-21.937-7.119-21.937-7.119
			s-2.26-50.494-50.165-52.105c-47.899-1.606-97.753,22.267-82.399,57.141C357.584,482.273,344.345,514.898,344.345,514.898"/>
	</g>
</g>
<g opacity="0.2">
	<g>
		<path fill="#F7F7F8" d="M26.083,128.095c0,0,62.954-31.82,117.667-40.708c54.707-8.887,24.879-9.061,24.879-9.061
			s0.728-18.496-33.649,2.642c-5.581-6.792-14.137-0.302-14.137-0.302S110.587,51.413,82.17,58.938
			c-28.409,7.521-54.674,26.734-39.49,44.499C26.883,102.975,26.083,128.095,26.083,128.095"/>
	</g>
</g>
<path opacity="0.2" fill="#F7F7F8" d="M973.349,483.042c16.621-18.615-9.607-43.565-39.77-52.248
	c-30.159-8.686-41.777,22.31-41.777,22.31s-8.99-7.127-15.104,0c-36.214-23.354-34.023-4.222-34.023-4.222
	s-33.682,0.13,24.518,10.874c58.2,10.742,124.682,46.155,124.682,46.155S990.225,482.916,973.349,483.042z"/>
<path opacity="0.2" fill="#F7F7F8" d="M861.945,664.307c11.689-13.093-6.758-30.642-27.973-36.749
	c-21.212-6.108-29.384,15.692-29.384,15.692s-6.323-5.014-10.624,0c-25.472-16.426-23.93-2.971-23.93-2.971
	s-23.69,0.092,17.245,7.648c40.935,7.556,87.695,32.465,87.695,32.465S873.814,664.218,861.945,664.307z"/>
<g opacity="0.2">
	<g>
		<path fill="#F7F7F8" d="M34.698,449.35c0,0,58.127-29.38,108.646-37.586c50.513-8.206,22.971-8.367,22.971-8.367
			s0.673-17.078-31.068,2.439c-5.153-6.271-13.053-0.278-13.053-0.278s-9.47-27.011-35.708-20.064
			c-26.231,6.946-50.481,24.685-36.462,41.088C35.437,426.155,34.698,449.35,34.698,449.35"/>
	</g>
</g>
<g opacity="0.2">
	<g>
		<path fill="#F7F7F8" d="M96.996,660.871c0,0,54.533-27.562,101.927-35.262c47.389-7.699,21.551-7.85,21.551-7.85
			s0.631-16.021-29.147,2.289c-4.834-5.883-12.246-0.262-12.246-0.262s-8.884-25.34-33.5-18.822
			c-24.608,6.517-47.36,23.157-34.208,38.546C97.689,639.112,96.996,660.871,96.996,660.871"/>
	</g>
</g>
<path fill="#C75D83" stroke="#FFFFFF" stroke-linejoin="round" stroke-miterlimit="10" d="M-38.424-208.936"/>
</svg>
