<?xml version="1.0" encoding="utf-8"?>
<!-- Generator: Adobe Illustrator 19.1.0, SVG Export Plug-In . SVG Version: 6.00 Build 0)  -->
<svg version="1.1" id="Capa_1" xmlns="http://www.w3.org/2000/svg" xmlns:xlink="http://www.w3.org/1999/xlink" x="0px" y="0px"
	 viewBox="0 0 300 900" enable-background="new 0 0 300 900" xml:space="preserve">
<g opacity="0.5">
	<g>
		<defs>
			
				<rect id="SVGID_1_" x="198.278" y="46.262" transform="matrix(-0.9939 -0.1104 0.1104 -0.9939 525.3138 164.991)" width="137.893" height="43.382"/>
		</defs>
		<clipPath id="SVGID_2_">
			<use xlink:href="#SVGID_1_"  overflow="visible"/>
		</clipPath>
		<path clip-path="url(#SVGID_2_)" fill="#F7F7F8" d="M196.129,82.994c0,0,51.947-9.218,93.048-3.787
			c41.1,5.432,45.44,6.07,45.44,6.07s-21.155-20.284-50.333-12.557c-2.534-6.068-10.062-3.266-10.062-3.266
			s-1.036-23.162-23.01-23.9c-21.971-0.737-44.839,10.214-37.796,26.21C202.202,68.029,196.129,82.994,196.129,82.994"/>
	</g>
</g>
<g opacity="0.2">
	<g>
		<path fill="#F7F7F8" d="M11.603-136.512c0,0,28.876-14.596,53.973-18.672c25.094-4.076,11.412-4.155,11.412-4.155
			s0.334-8.485-15.435,1.211c-2.559-3.116-6.484-0.138-6.484-0.138s-4.704-13.419-17.739-9.969
			c-13.031,3.452-25.079,12.264-18.114,20.412C11.97-148.033,11.603-136.512,11.603-136.512"/>
	</g>
</g>
<g opacity="0.2">
	<g>
		<path fill="#F7F7F8" d="M32.079,30.91c0,0,26.662-13.477,49.835-17.24c23.17-3.764,10.537-3.838,10.537-3.838
			s0.308-7.834-14.251,1.119c-2.364-2.877-5.987-0.129-5.987-0.129S67.869-1.565,55.833,1.621
			C43.802,4.807,32.678,12.943,39.108,20.467C32.418,20.271,32.079,30.91,32.079,30.91"/>
	</g>
</g>
<path fill="#C75D83" stroke="#FFFFFF" stroke-linejoin="round" stroke-miterlimit="10" d="M57.966-171.542"/>
<g opacity="0.5">
	<g>
		<defs>
			
				<rect id="SVGID_3_" x="118.027" y="203.093" transform="matrix(-0.9988 0.048 -0.048 -0.9988 384.5196 440.3327)" width="137.894" height="43.38"/>
		</defs>
		<clipPath id="SVGID_4_">
			<use xlink:href="#SVGID_3_"  overflow="visible"/>
		</clipPath>
		<path clip-path="url(#SVGID_4_)" fill="#F7F7F8" d="M119.146,250.864c0,0,49.839-17.307,91.283-18.437
			c41.44-1.13,45.828-1.185,45.828-1.185s-24.094-16.688-51.685-4.448c-3.461-5.593-10.452-1.636-10.452-1.636
			s-4.683-22.706-26.497-19.965c-21.811,2.742-42.663,17.169-33.181,31.852C122.779,235.128,119.146,250.864,119.146,250.864"/>
	</g>
</g>
<g opacity="0.2">
	<g>
		<path fill="#F7F7F8" d="M11.603,200.488c0,0,28.876-14.596,53.973-18.672c25.094-4.076,11.412-4.155,11.412-4.155
			s0.334-8.485-15.435,1.211c-2.559-3.116-6.484-0.138-6.484-0.138s-4.704-13.419-17.739-9.969
			c-13.031,3.452-25.079,12.264-18.114,20.412C11.97,188.967,11.603,200.488,11.603,200.488"/>
	</g>
</g>
<g opacity="0.2">
	<g>
		<path fill="#F7F7F8" d="M232.079,355.91c0,0,26.662-13.477,49.835-17.24c23.17-3.764,10.537-3.838,10.537-3.838
			s0.308-7.834-14.251,1.119c-2.364-2.877-5.987-0.129-5.987-0.129s-4.344-12.388-16.379-9.201
			c-12.031,3.186-23.155,11.322-16.725,18.846C232.418,345.272,232.079,355.91,232.079,355.91"/>
	</g>
</g>
<path fill="#C75D83" stroke="#FFFFFF" stroke-linejoin="round" stroke-miterlimit="10" d="M57.966,165.458"/>
<g opacity="0.5">
	<g>
		<defs>
			
				<rect id="SVGID_5_" x="-79.973" y="570.093" transform="matrix(-0.9988 0.048 -0.048 -0.9988 6.3617 1183.4126)" width="137.894" height="43.38"/>
		</defs>
		<clipPath id="SVGID_6_">
			<use xlink:href="#SVGID_5_"  overflow="visible"/>
		</clipPath>
		<path clip-path="url(#SVGID_6_)" fill="#F7F7F8" d="M-78.854,617.864c0,0,49.839-17.307,91.283-18.437
			c41.44-1.13,45.828-1.184,45.828-1.184s-24.094-16.688-51.685-4.448c-3.461-5.593-10.452-1.636-10.452-1.636
			s-4.683-22.706-26.497-19.965c-21.811,2.742-42.663,17.169-33.181,31.852C-75.221,602.128-78.854,617.864-78.854,617.864"/>
	</g>
</g>
<g opacity="0.5">
	<g>
		<defs>
			
				<rect id="SVGID_7_" x="242.278" y="634.262" transform="matrix(-0.9939 -0.1104 0.1104 -0.9939 548.1331 1342.2544)" width="137.893" height="43.382"/>
		</defs>
		<clipPath id="SVGID_8_">
			<use xlink:href="#SVGID_7_"  overflow="visible"/>
		</clipPath>
		<path clip-path="url(#SVGID_8_)" fill="#F7F7F8" d="M240.129,670.994c0,0,51.947-9.218,93.049-3.787
			c41.1,5.432,45.439,6.07,45.439,6.07s-21.155-20.284-50.333-12.557c-2.534-6.068-10.062-3.266-10.062-3.266
			s-1.036-23.162-23.01-23.9c-21.971-0.737-44.839,10.214-37.796,26.21C246.202,656.029,240.129,670.994,240.129,670.994"/>
	</g>
</g>
<g opacity="0.2">
	<g>
		<path fill="#F7F7F8" d="M167.773,565.723c0,0,28.876-14.596,53.973-18.672c25.094-4.076,11.412-4.155,11.412-4.155
			s0.334-8.485-15.435,1.211c-2.559-3.116-6.484-0.138-6.484-0.138S206.535,530.55,193.5,534
			c-13.031,3.452-25.079,12.264-18.114,20.412C168.14,554.201,167.773,565.723,167.773,565.723"/>
	</g>
</g>
<g opacity="0.2">
	<g>
		<path fill="#F7F7F8" d="M32.079,722.91c0,0,26.662-13.477,49.835-17.24c23.17-3.764,10.537-3.838,10.537-3.838
			s0.308-7.834-14.251,1.119c-2.364-2.877-5.987-0.129-5.987-0.129s-4.344-12.388-16.379-9.201
			c-12.031,3.185-23.155,11.322-16.725,18.846C32.418,712.271,32.079,722.91,32.079,722.91"/>
	</g>
</g>
<g opacity="0.5">
	<g>
		<defs>
			
				<rect id="SVGID_9_" x="150.027" y="829.093" transform="matrix(-0.9988 0.048 -0.048 -0.9988 478.5271 1690.0756)" width="137.894" height="43.38"/>
		</defs>
		<clipPath id="SVGID_10_">
			<use xlink:href="#SVGID_9_"  overflow="visible"/>
		</clipPath>
		<path clip-path="url(#SVGID_10_)" fill="#F7F7F8" d="M151.146,876.864c0,0,49.839-17.307,91.283-18.437
			c41.44-1.13,45.828-1.184,45.828-1.184s-24.094-16.688-51.685-4.448c-3.461-5.593-10.452-1.636-10.452-1.636
			s-4.683-22.706-26.497-19.965c-21.811,2.742-42.663,17.169-33.181,31.852C154.779,861.128,151.146,876.864,151.146,876.864"/>
	</g>
</g>
<g opacity="0.5">
	<g>
		<defs>
			
				<rect id="SVGID_11_" x="198.278" y="1047.262" transform="matrix(-0.9939 -0.1104 0.1104 -0.9939 414.8093 2160.8728)" width="137.893" height="43.382"/>
		</defs>
		<clipPath id="SVGID_12_">
			<use xlink:href="#SVGID_11_"  overflow="visible"/>
		</clipPath>
		<path clip-path="url(#SVGID_12_)" fill="#F7F7F8" d="M196.129,1083.994c0,0,51.947-9.218,93.048-3.787
			c41.1,5.432,45.44,6.07,45.44,6.07s-21.155-20.284-50.333-12.557c-2.534-6.068-10.062-3.266-10.062-3.266
			s-1.036-23.162-23.01-23.9c-21.971-0.737-44.839,10.214-37.796,26.21C202.202,1069.029,196.129,1083.994,196.129,1083.994"/>
	</g>
</g>
<g opacity="0.2">
	<g>
		<path fill="#F7F7F8" d="M32.079,1031.91c0,0,26.662-13.477,49.835-17.24c23.17-3.764,10.537-3.838,10.537-3.838
			s0.308-7.834-14.251,1.119c-2.364-2.877-5.987-0.129-5.987-0.129s-4.344-12.388-16.379-9.201
			c-12.031,3.185-23.155,11.322-16.725,18.846C32.418,1021.271,32.079,1031.91,32.079,1031.91"/>
	</g>
</g>
<path fill="#C75D83" stroke="#FFFFFF" stroke-linejoin="round" stroke-miterlimit="10" d="M57.966,829.458"/>
</svg>
