<?xml version="1.0" encoding="utf-8"?>
<!-- Generator: Adobe Illustrator 19.1.0, SVG Export Plug-In . SVG Version: 6.00 Build 0)  -->
<svg version="1.1" id="Capa_1" xmlns="http://www.w3.org/2000/svg" xmlns:xlink="http://www.w3.org/1999/xlink" x="0px" y="0px"
	 viewBox="0 0 320 223.043" enable-background="new 0 0 320 223.043" xml:space="preserve">
<g>
	<defs>
		<rect id="SVGID_1_" x="-12.194" y="-3090.076" width="320" height="6650"/>
	</defs>
	<clipPath id="SVGID_2_">
		<use xlink:href="#SVGID_1_"  overflow="visible"/>
	</clipPath>
	<g clip-path="url(#SVGID_2_)">
		<defs>
			<rect id="SVGID_3_" x="141.806" y="8.924" width="148" height="212"/>
		</defs>
		<clipPath id="SVGID_4_">
			<use xlink:href="#SVGID_3_"  overflow="visible"/>
		</clipPath>
		<g clip-path="url(#SVGID_4_)">
			<defs>
				<rect id="SVGID_5_" x="140.806" y="8.924" width="149" height="214"/>
			</defs>
			<clipPath id="SVGID_6_">
				<use xlink:href="#SVGID_5_"  overflow="visible"/>
			</clipPath>
			<g clip-path="url(#SVGID_6_)" enable-background="new    ">
				<g>
					<defs>
						<rect id="SVGID_7_" x="141.806" y="8.924" width="148" height="212"/>
					</defs>
					<clipPath id="SVGID_8_">
						<use xlink:href="#SVGID_7_"  overflow="visible"/>
					</clipPath>
					<g clip-path="url(#SVGID_8_)">
						<defs>
							<polygon id="SVGID_9_" points="220.387,83.645 217.267,83.361 214.149,83.075 198.785,219.272 204.802,219.818 
								210.818,220.368 							"/>
						</defs>
						<clipPath id="SVGID_10_">
							<use xlink:href="#SVGID_9_"  overflow="visible"/>
						</clipPath>
						<g clip-path="url(#SVGID_10_)">
							<defs>
								<rect id="SVGID_11_" x="140.806" y="8.924" width="149" height="214"/>
							</defs>
							<clipPath id="SVGID_12_">
								<use xlink:href="#SVGID_11_"  overflow="visible"/>
							</clipPath>
							<rect x="193.785" y="78.075" clip-path="url(#SVGID_12_)" fill="#FAFFF8" width="31.602" height="147.293"/>
						</g>
					</g>
					<g clip-path="url(#SVGID_8_)">
						<defs>
							<rect id="SVGID_13_" x="140.806" y="8.924" width="149" height="214"/>
						</defs>
						<clipPath id="SVGID_14_">
							<use xlink:href="#SVGID_13_"  overflow="visible"/>
						</clipPath>
						<g opacity="0.1" clip-path="url(#SVGID_14_)" enable-background="new    ">
							<g>
								<defs>
									<rect id="SVGID_15_" x="204.806" y="82.924" width="16" height="138"/>
								</defs>
								<clipPath id="SVGID_16_">
									<use xlink:href="#SVGID_15_"  overflow="visible"/>
								</clipPath>
								<g clip-path="url(#SVGID_16_)">
									<defs>
										<polygon id="SVGID_17_" points="204.802,219.818 210.818,220.368 220.387,83.645 217.267,83.361 										"/>
									</defs>
									<clipPath id="SVGID_18_">
										<use xlink:href="#SVGID_17_"  overflow="visible"/>
									</clipPath>
									<g clip-path="url(#SVGID_18_)">
										<defs>
											<rect id="SVGID_19_" x="203.806" y="81.924" width="18" height="139"/>
										</defs>
										<clipPath id="SVGID_20_">
											<use xlink:href="#SVGID_19_"  overflow="visible"/>
										</clipPath>
										<rect x="199.802" y="78.361" clip-path="url(#SVGID_20_)" width="25.585" height="147.007"/>
									</g>
								</g>
							</g>
						</g>
					</g>
					<g clip-path="url(#SVGID_8_)">
						<defs>
							<ellipse id="SVGID_21_" cx="217.134" cy="84.816" rx="6.382" ry="6.376"/>
						</defs>
						<clipPath id="SVGID_22_">
							<use xlink:href="#SVGID_21_"  overflow="visible"/>
						</clipPath>
						<g clip-path="url(#SVGID_22_)">
							<defs>
								<rect id="SVGID_23_" x="140.806" y="8.924" width="149" height="214"/>
							</defs>
							<clipPath id="SVGID_24_">
								<use xlink:href="#SVGID_23_"  overflow="visible"/>
							</clipPath>
							<rect x="205.752" y="73.44" clip-path="url(#SVGID_24_)" fill="#5595E4" width="22.765" height="22.753"/>
						</g>
					</g>
					<g clip-path="url(#SVGID_8_)">
						<defs>
							<rect id="SVGID_25_" x="140.806" y="8.924" width="149" height="214"/>
						</defs>
						<clipPath id="SVGID_26_">
							<use xlink:href="#SVGID_25_"  overflow="visible"/>
						</clipPath>
						
							<ellipse clip-path="url(#SVGID_26_)" fill="none" stroke="#FFFFFF" stroke-width="1.872" stroke-miterlimit="10" cx="217.134" cy="84.816" rx="6.382" ry="6.376"/>
					</g>
					<g clip-path="url(#SVGID_8_)">
						<defs>
							<rect id="SVGID_27_" x="140.806" y="8.924" width="149" height="214"/>
						</defs>
						<clipPath id="SVGID_28_">
							<use xlink:href="#SVGID_27_"  overflow="visible"/>
						</clipPath>
						<g opacity="0.1" clip-path="url(#SVGID_28_)" enable-background="new    ">
							<g>
								<defs>
									<rect id="SVGID_29_" x="215.806" y="77.924" width="9" height="14"/>
								</defs>
								<clipPath id="SVGID_30_">
									<use xlink:href="#SVGID_29_"  overflow="visible"/>
								</clipPath>
								<g clip-path="url(#SVGID_30_)">
									<defs>
										<path id="SVGID_31_" d="M217.715,78.463l-1.159,12.704c3.51,0.32,6.615-2.264,6.935-5.77
											C223.811,81.886,221.226,78.783,217.715,78.463z"/>
									</defs>
									<clipPath id="SVGID_32_">
										<use xlink:href="#SVGID_31_"  overflow="visible"/>
									</clipPath>
									<g clip-path="url(#SVGID_32_)">
										<defs>
											<rect id="SVGID_33_" x="215.806" y="77.924" width="9" height="15"/>
										</defs>
										<clipPath id="SVGID_34_">
											<use xlink:href="#SVGID_33_"  overflow="visible"/>
										</clipPath>
										<rect x="211.556" y="73.463" clip-path="url(#SVGID_34_)" width="16.962" height="22.731"/>
									</g>
								</g>
							</g>
						</g>
					</g>
					<g clip-path="url(#SVGID_8_)">
						<defs>
							<circle id="SVGID_35_" cx="217.134" cy="84.816" r="3.222"/>
						</defs>
						<clipPath id="SVGID_36_">
							<use xlink:href="#SVGID_35_"  overflow="visible"/>
						</clipPath>
						<g clip-path="url(#SVGID_36_)">
							<defs>
								<rect id="SVGID_37_" x="140.806" y="8.924" width="149" height="214"/>
							</defs>
							<clipPath id="SVGID_38_">
								<use xlink:href="#SVGID_37_"  overflow="visible"/>
							</clipPath>
							<rect x="208.909" y="76.595" clip-path="url(#SVGID_38_)" fill="#FAFFF8" width="16.45" height="16.444"/>
						</g>
					</g>
					<g clip-path="url(#SVGID_8_)">
						<defs>
							<rect id="SVGID_39_" x="140.806" y="8.924" width="149" height="214"/>
						</defs>
						<clipPath id="SVGID_40_">
							<use xlink:href="#SVGID_39_"  overflow="visible"/>
						</clipPath>
						<g opacity="0.1" clip-path="url(#SVGID_40_)" enable-background="new    ">
							<g>
								<defs>
									<rect id="SVGID_41_" x="216.806" y="80.924" width="4" height="8"/>
								</defs>
								<clipPath id="SVGID_42_">
									<use xlink:href="#SVGID_41_"  overflow="visible"/>
								</clipPath>
								<g clip-path="url(#SVGID_42_)">
									<defs>
										<path id="SVGID_43_" d="M217.428,81.608l-0.586,6.417c1.773,0.163,3.343-1.143,3.506-2.915
											C220.509,83.335,219.204,81.772,217.428,81.608z"/>
									</defs>
									<clipPath id="SVGID_44_">
										<use xlink:href="#SVGID_43_"  overflow="visible"/>
									</clipPath>
									<g clip-path="url(#SVGID_44_)">
										<defs>
											<rect id="SVGID_45_" x="215.806" y="80.924" width="6" height="9"/>
										</defs>
										<clipPath id="SVGID_46_">
											<use xlink:href="#SVGID_45_"  overflow="visible"/>
										</clipPath>
										<rect x="211.842" y="76.608" clip-path="url(#SVGID_46_)" width="13.519" height="16.431"/>
									</g>
								</g>
							</g>
						</g>
					</g>
					<g clip-path="url(#SVGID_8_)">
						<defs>
							<path id="SVGID_47_" d="M222.02,74.882c-0.199,2.18-2.126,3.781-4.305,3.581c-2.18-0.198-3.785-2.122-3.586-4.301
								l4.807-52.612c0.197-2.174,2.938-12.672,5.118-12.476c2.18,0.198,2.968,11.022,2.77,13.198L222.02,74.882z"/>
						</defs>
						<clipPath id="SVGID_48_">
							<use xlink:href="#SVGID_47_"  overflow="visible"/>
						</clipPath>
						<g clip-path="url(#SVGID_48_)">
							<defs>
								<rect id="SVGID_49_" x="140.806" y="8.924" width="149" height="214"/>
							</defs>
							<clipPath id="SVGID_50_">
								<use xlink:href="#SVGID_49_"  overflow="visible"/>
							</clipPath>
							<rect x="209.112" y="4.071" clip-path="url(#SVGID_50_)" fill="#FAFFF8" width="22.741" height="79.408"/>
						</g>
					</g>
					<g clip-path="url(#SVGID_8_)">
						<defs>
							<rect id="SVGID_51_" x="140.806" y="8.924" width="149" height="214"/>
						</defs>
						<clipPath id="SVGID_52_">
							<use xlink:href="#SVGID_51_"  overflow="visible"/>
						</clipPath>
						<g opacity="0.1" clip-path="url(#SVGID_52_)" enable-background="new    ">
							<g>
								<defs>
									<rect id="SVGID_53_" x="216.806" y="8.924" width="11" height="70"/>
								</defs>
								<clipPath id="SVGID_54_">
									<use xlink:href="#SVGID_53_"  overflow="visible"/>
								</clipPath>
								<g clip-path="url(#SVGID_54_)">
									<defs>
										<path id="SVGID_55_" d="M224.056,9.074l-6.341,69.389c2.18,0.198,4.107-1.401,4.305-3.581l4.805-52.61
											C227.024,20.096,226.234,9.274,224.056,9.074z"/>
									</defs>
									<clipPath id="SVGID_56_">
										<use xlink:href="#SVGID_55_"  overflow="visible"/>
									</clipPath>
									<g clip-path="url(#SVGID_56_)">
										<defs>
											<rect id="SVGID_57_" x="216.806" y="8.924" width="11" height="70"/>
										</defs>
										<clipPath id="SVGID_58_">
											<use xlink:href="#SVGID_57_"  overflow="visible"/>
										</clipPath>
										<rect x="212.715" y="4.074" clip-path="url(#SVGID_58_)" width="19.14" height="79.405"/>
									</g>
								</g>
							</g>
						</g>
					</g>
					<g clip-path="url(#SVGID_8_)">
						<defs>
							<path id="SVGID_59_" d="M206.108,83.391c2.148-0.423,4.227,0.984,4.646,3.128c0.414,2.148-0.989,4.223-3.137,4.64
								l-51.908,10.06c-2.15,0.415-13.004,0.717-13.422-1.429c-0.414-2.148,9.764-5.924,11.912-6.343L206.108,83.391z"/>
						</defs>
						<clipPath id="SVGID_60_">
							<use xlink:href="#SVGID_59_"  overflow="visible"/>
						</clipPath>
						<g clip-path="url(#SVGID_60_)">
							<defs>
								<rect id="SVGID_61_" x="140.806" y="8.924" width="149" height="214"/>
							</defs>
							<clipPath id="SVGID_62_">
								<use xlink:href="#SVGID_61_"  overflow="visible"/>
							</clipPath>
							<rect x="137.275" y="78.316" clip-path="url(#SVGID_62_)" fill="#FAFFF8" width="78.552" height="28.2"/>
						</g>
					</g>
					<g clip-path="url(#SVGID_8_)">
						<defs>
							<rect id="SVGID_63_" x="140.806" y="8.924" width="149" height="214"/>
						</defs>
						<clipPath id="SVGID_64_">
							<use xlink:href="#SVGID_63_"  overflow="visible"/>
						</clipPath>
						<g opacity="0.1" clip-path="url(#SVGID_64_)" enable-background="new    ">
							<g>
								<defs>
									<rect id="SVGID_65_" x="141.806" y="82.924" width="69" height="17"/>
								</defs>
								<clipPath id="SVGID_66_">
									<use xlink:href="#SVGID_65_"  overflow="visible"/>
								</clipPath>
								<g clip-path="url(#SVGID_66_)">
									<defs>
										<path id="SVGID_67_" d="M142.287,99.79l68.469-13.273c-0.42-2.144-2.496-3.549-4.646-3.128l-51.91,10.058
											C152.051,93.866,141.873,97.642,142.287,99.79z"/>
									</defs>
									<clipPath id="SVGID_68_">
										<use xlink:href="#SVGID_67_"  overflow="visible"/>
									</clipPath>
									<g clip-path="url(#SVGID_68_)">
										<defs>
											<rect id="SVGID_69_" x="141.806" y="81.924" width="70" height="18"/>
										</defs>
										<clipPath id="SVGID_70_">
											<use xlink:href="#SVGID_69_"  overflow="visible"/>
										</clipPath>
										<rect x="137.275" y="78.314" clip-path="url(#SVGID_70_)" width="78.481" height="26.475"/>
									</g>
								</g>
							</g>
						</g>
					</g>
					<g clip-path="url(#SVGID_8_)">
						<defs>
							<path id="SVGID_71_" d="M228.238,85.406c-2.038-0.803-4.335,0.208-5.133,2.24c-0.798,2.038,0.204,4.329,2.24,5.13
								l49.228,19.282c2.037,0.797,12.661,3.055,13.459,1.023c0.8-2.039-8.527-7.592-10.564-8.391L228.238,85.406z"/>
						</defs>
						<clipPath id="SVGID_72_">
							<use xlink:href="#SVGID_71_"  overflow="visible"/>
						</clipPath>
						<g clip-path="url(#SVGID_72_)">
							<defs>
								<rect id="SVGID_73_" x="140.806" y="8.924" width="149" height="214"/>
							</defs>
							<clipPath id="SVGID_74_">
								<use xlink:href="#SVGID_73_"  overflow="visible"/>
							</clipPath>
							<rect x="217.83" y="80.13" clip-path="url(#SVGID_74_)" fill="#FAFFF8" width="75.25" height="38.777"/>
						</g>
					</g>
					<g clip-path="url(#SVGID_8_)">
						<defs>
							<rect id="SVGID_75_" x="140.806" y="8.924" width="149" height="214"/>
						</defs>
						<clipPath id="SVGID_76_">
							<use xlink:href="#SVGID_75_"  overflow="visible"/>
						</clipPath>
						<g opacity="0.1" clip-path="url(#SVGID_76_)" enable-background="new    ">
							<g>
								<defs>
									<rect id="SVGID_77_" x="222.806" y="83.924" width="66" height="30"/>
								</defs>
								<clipPath id="SVGID_78_">
									<use xlink:href="#SVGID_77_"  overflow="visible"/>
								</clipPath>
								<g clip-path="url(#SVGID_78_)">
									<defs>
										<path id="SVGID_79_" d="M288.032,113.081l-64.927-25.436c0.798-2.032,3.096-3.042,5.133-2.24l49.23,19.284
											C279.505,105.489,288.832,111.042,288.032,113.081z"/>
									</defs>
									<clipPath id="SVGID_80_">
										<use xlink:href="#SVGID_79_"  overflow="visible"/>
									</clipPath>
									<g clip-path="url(#SVGID_80_)">
										<defs>
											<rect id="SVGID_81_" x="221.806" y="83.924" width="67" height="30"/>
										</defs>
										<clipPath id="SVGID_82_">
											<use xlink:href="#SVGID_81_"  overflow="visible"/>
										</clipPath>
										<rect x="218.105" y="80.13" clip-path="url(#SVGID_82_)" width="74.976" height="37.951"/>
									</g>
								</g>
							</g>
						</g>
					</g>
				</g>
			</g>
		</g>
	</g>
</g>
<g>
	<defs>
		<rect id="SVGID_83_" x="-12.194" y="-3090.076" width="320" height="6650"/>
	</defs>
	<clipPath id="SVGID_84_">
		<use xlink:href="#SVGID_83_"  overflow="visible"/>
	</clipPath>
	<g clip-path="url(#SVGID_84_)">
		<defs>
			<rect id="SVGID_85_" x="196.806" y="76.924" width="29" height="145"/>
		</defs>
		<clipPath id="SVGID_86_">
			<use xlink:href="#SVGID_85_"  overflow="visible"/>
		</clipPath>
		<g clip-path="url(#SVGID_86_)">
			<defs>
				<rect id="SVGID_87_" x="196.806" y="76.924" width="29" height="145"/>
			</defs>
			<clipPath id="SVGID_88_">
				<use xlink:href="#SVGID_87_"  overflow="visible"/>
			</clipPath>
			<path clip-path="url(#SVGID_88_)" fill="none" stroke="#422B2C" stroke-width="1.872" stroke-miterlimit="10" d="M223.492,85.396
				c0.32-3.51-2.266-6.614-5.775-6.934c-3.511-0.32-6.614,2.264-6.937,5.772c-0.212,2.314,0.845,4.445,2.594,5.723l-14.589,129.314
				l6.017,0.546l6.015,0.55l9.086-129.815C221.855,89.614,223.281,87.705,223.492,85.396z"/>
		</g>
	</g>
</g>
<g>
	<defs>
		<rect id="SVGID_89_" x="-12.194" y="-3090.076" width="320" height="6650"/>
	</defs>
	<clipPath id="SVGID_90_">
		<use xlink:href="#SVGID_89_"  overflow="visible"/>
	</clipPath>
	<g clip-path="url(#SVGID_90_)">
		<defs>
			<rect id="SVGID_91_" x="212.806" y="7.924" width="16" height="72"/>
		</defs>
		<clipPath id="SVGID_92_">
			<use xlink:href="#SVGID_91_"  overflow="visible"/>
		</clipPath>
		<g clip-path="url(#SVGID_92_)">
			<defs>
				<rect id="SVGID_93_" x="212.806" y="7.924" width="16" height="72"/>
			</defs>
			<clipPath id="SVGID_94_">
				<use xlink:href="#SVGID_93_"  overflow="visible"/>
			</clipPath>
			<path clip-path="url(#SVGID_94_)" fill="none" stroke="#422B2C" stroke-width="1.872" stroke-miterlimit="10" d="M222.02,74.882
				l4.805-52.61c0.199-2.176-0.592-12.998-2.77-13.198c-2.182-0.196-4.922,10.302-5.118,12.476l-4.807,52.612
				c-0.199,2.18,1.406,4.101,3.586,4.301C219.895,78.661,221.822,77.061,222.02,74.882z"/>
		</g>
	</g>
</g>
<g>
	<defs>
		<rect id="SVGID_95_" x="-12.194" y="-3090.076" width="320" height="6650"/>
	</defs>
	<clipPath id="SVGID_96_">
		<use xlink:href="#SVGID_95_"  overflow="visible"/>
	</clipPath>
	<g clip-path="url(#SVGID_96_)">
		<defs>
			<rect id="SVGID_97_" x="140.806" y="81.924" width="72" height="21"/>
		</defs>
		<clipPath id="SVGID_98_">
			<use xlink:href="#SVGID_97_"  overflow="visible"/>
		</clipPath>
		<g clip-path="url(#SVGID_98_)">
			<defs>
				<rect id="SVGID_99_" x="140.806" y="81.924" width="72" height="21"/>
			</defs>
			<clipPath id="SVGID_100_">
				<use xlink:href="#SVGID_99_"  overflow="visible"/>
			</clipPath>
			<path clip-path="url(#SVGID_100_)" fill="none" stroke="#422B2C" stroke-width="1.872" stroke-miterlimit="10" d="
				M210.754,86.519c-0.419-2.144-2.496-3.549-4.646-3.128l-51.91,10.058c-2.148,0.419-12.326,4.193-11.912,6.343
				c0.418,2.144,11.274,1.843,13.422,1.429l51.908-10.06C209.765,90.74,211.168,88.667,210.754,86.519z"/>
		</g>
	</g>
</g>
<g>
	<defs>
		<rect id="SVGID_101_" x="-12.194" y="-3090.076" width="320" height="6650"/>
	</defs>
	<clipPath id="SVGID_102_">
		<use xlink:href="#SVGID_101_"  overflow="visible"/>
	</clipPath>
	<g clip-path="url(#SVGID_102_)">
		<defs>
			<rect id="SVGID_103_" x="220.806" y="83.924" width="69" height="31"/>
		</defs>
		<clipPath id="SVGID_104_">
			<use xlink:href="#SVGID_103_"  overflow="visible"/>
		</clipPath>
		<g clip-path="url(#SVGID_104_)">
			<defs>
				<rect id="SVGID_105_" x="220.806" y="83.924" width="69" height="31"/>
			</defs>
			<clipPath id="SVGID_106_">
				<use xlink:href="#SVGID_105_"  overflow="visible"/>
			</clipPath>
			<path clip-path="url(#SVGID_106_)" fill="none" stroke="#422B2C" stroke-width="1.872" stroke-miterlimit="10" d="
				M277.468,104.69l-49.23-19.284c-2.038-0.803-4.335,0.208-5.133,2.24c-0.798,2.037,0.204,4.329,2.24,5.13l49.228,19.282
				c2.038,0.797,12.661,3.055,13.459,1.023C288.832,111.042,279.505,105.489,277.468,104.69z"/>
		</g>
	</g>
</g>
<g>
	<defs>
		<rect id="SVGID_107_" x="61.529" y="219.829" width="195.732" height="2.761"/>
	</defs>
	<clipPath id="SVGID_108_">
		<use xlink:href="#SVGID_107_"  overflow="visible"/>
	</clipPath>
	<g clip-path="url(#SVGID_108_)">
		<defs>
			<rect id="SVGID_109_" x="-0.593" y="-3064" width="320" height="6650"/>
		</defs>
		<clipPath id="SVGID_110_">
			<use xlink:href="#SVGID_109_"  overflow="visible"/>
		</clipPath>
		<rect x="56.529" y="214.829" clip-path="url(#SVGID_110_)" fill="#422B2C" width="205.732" height="12.761"/>
	</g>
</g>
<g>
	<defs>
		<path id="SVGID_111_" d="M31.386,198.386c0,0-3.967,0.325-6.061,2.701c-1.718,1.949-0.392,4.619-0.392,4.619
			s2.82,0.978,4.538-0.973C31.565,202.359,31.386,198.386,31.386,198.386"/>
	</defs>
	<clipPath id="SVGID_112_">
		<use xlink:href="#SVGID_111_"  overflow="visible"/>
	</clipPath>
	<g clip-path="url(#SVGID_112_)">
		<defs>
			<rect id="SVGID_113_" x="-0.593" y="-3064" width="320" height="6650"/>
		</defs>
		<clipPath id="SVGID_114_">
			<use xlink:href="#SVGID_113_"  overflow="visible"/>
		</clipPath>
		<rect x="19.444" y="193.386" clip-path="url(#SVGID_114_)" fill="#80B03C" width="16.945" height="17.565"/>
	</g>
</g>
<g>
	<defs>
		<path id="SVGID_115_" d="M31.386,198.386l-6.453,7.32c0,0,2.82,0.978,4.538-0.973C31.565,202.359,31.386,198.386,31.386,198.386"
			/>
	</defs>
	<clipPath id="SVGID_116_">
		<use xlink:href="#SVGID_115_"  overflow="visible"/>
	</clipPath>
	<g clip-path="url(#SVGID_116_)">
		<defs>
			<rect id="SVGID_117_" x="-0.593" y="-3064" width="320" height="6650"/>
		</defs>
		<clipPath id="SVGID_118_">
			<use xlink:href="#SVGID_117_"  overflow="visible"/>
		</clipPath>
		<rect x="19.933" y="193.386" clip-path="url(#SVGID_118_)" width="16.456" height="17.565"/>
	</g>
</g>
<g>
	<defs>
		<path id="SVGID_119_" d="M21.168,210.208c-0.204,0.216-0.544,0.225-0.759,0.021c-0.215-0.204-0.225-0.544-0.021-0.759l4.878-4.985
			c0.204-0.215,0.544-0.224,0.76-0.02c0.215,0.204,0.225,0.542,0.021,0.758L21.168,210.208z"/>
	</defs>
	<clipPath id="SVGID_120_">
		<use xlink:href="#SVGID_119_"  overflow="visible"/>
	</clipPath>
	<g clip-path="url(#SVGID_120_)">
		<defs>
			<rect id="SVGID_121_" x="-0.593" y="-3064" width="320" height="6650"/>
		</defs>
		<clipPath id="SVGID_122_">
			<use xlink:href="#SVGID_121_"  overflow="visible"/>
		</clipPath>
		<rect x="15.241" y="199.318" clip-path="url(#SVGID_122_)" fill="#5F7332" width="15.953" height="16.058"/>
	</g>
</g>
<g>
	<defs>
		<path id="SVGID_123_" d="M10.461,189.435c0,0,3.851,0.316,5.884,2.623c1.668,1.893,0.38,4.486,0.38,4.486
			s-2.738,0.948-4.406-0.946C10.287,193.293,10.461,189.435,10.461,189.435"/>
	</defs>
	<clipPath id="SVGID_124_">
		<use xlink:href="#SVGID_123_"  overflow="visible"/>
	</clipPath>
	<g clip-path="url(#SVGID_124_)">
		<defs>
			<rect id="SVGID_125_" x="-0.593" y="-3064" width="320" height="6650"/>
		</defs>
		<clipPath id="SVGID_126_">
			<use xlink:href="#SVGID_125_"  overflow="visible"/>
		</clipPath>
		<rect x="5.458" y="184.435" clip-path="url(#SVGID_126_)" fill="#80B03C" width="16.743" height="17.346"/>
	</g>
</g>
<g>
	<defs>
		<path id="SVGID_127_" d="M10.461,189.435l6.265,7.109c0,0-2.738,0.948-4.406-0.946C10.287,193.293,10.461,189.435,10.461,189.435"
			/>
	</defs>
	<clipPath id="SVGID_128_">
		<use xlink:href="#SVGID_127_"  overflow="visible"/>
	</clipPath>
	<g clip-path="url(#SVGID_128_)">
		<defs>
			<rect id="SVGID_129_" x="-0.593" y="-3064" width="320" height="6650"/>
		</defs>
		<clipPath id="SVGID_130_">
			<use xlink:href="#SVGID_129_"  overflow="visible"/>
		</clipPath>
		<rect x="5.458" y="184.435" clip-path="url(#SVGID_130_)" width="16.269" height="17.346"/>
	</g>
</g>
<g>
	<defs>
		<path id="SVGID_131_" d="M20.382,200.915c0.198,0.209,0.528,0.217,0.737,0.019c0.209-0.197,0.218-0.527,0.02-0.736l-4.736-4.84
			c-0.198-0.209-0.529-0.219-0.738-0.02c-0.209,0.197-0.218,0.527-0.02,0.736L20.382,200.915z"/>
	</defs>
	<clipPath id="SVGID_132_">
		<use xlink:href="#SVGID_131_"  overflow="visible"/>
	</clipPath>
	<g clip-path="url(#SVGID_132_)">
		<defs>
			<rect id="SVGID_133_" x="-0.593" y="-3064" width="320" height="6650"/>
		</defs>
		<clipPath id="SVGID_134_">
			<use xlink:href="#SVGID_133_"  overflow="visible"/>
		</clipPath>
		<rect x="10.503" y="190.195" clip-path="url(#SVGID_134_)" fill="#5F7332" width="15.78" height="15.882"/>
	</g>
</g>
<g>
	<defs>
		<path id="SVGID_135_" d="M12.596,200.948c0,0,2.478-0.181,3.997,1.086c1.247,1.037,0.684,2.812,0.684,2.812
			s-1.646,0.872-2.893-0.167C12.864,203.414,12.596,200.948,12.596,200.948"/>
	</defs>
	<clipPath id="SVGID_136_">
		<use xlink:href="#SVGID_135_"  overflow="visible"/>
	</clipPath>
	<g clip-path="url(#SVGID_136_)">
		<defs>
			<rect id="SVGID_137_" x="-0.593" y="-3064" width="320" height="6650"/>
		</defs>
		<clipPath id="SVGID_138_">
			<use xlink:href="#SVGID_137_"  overflow="visible"/>
		</clipPath>
		<rect x="7.596" y="195.939" clip-path="url(#SVGID_138_)" fill="#80B03C" width="14.808" height="14.249"/>
	</g>
</g>
<g>
	<defs>
		<path id="SVGID_139_" d="M12.596,200.948l4.681,3.898c0,0-1.646,0.872-2.893-0.167C12.864,203.414,12.596,200.948,12.596,200.948"
			/>
	</defs>
	<clipPath id="SVGID_140_">
		<use xlink:href="#SVGID_139_"  overflow="visible"/>
	</clipPath>
	<g clip-path="url(#SVGID_140_)">
		<defs>
			<rect id="SVGID_141_" x="-0.593" y="-3064" width="320" height="6650"/>
		</defs>
		<clipPath id="SVGID_142_">
			<use xlink:href="#SVGID_141_"  overflow="visible"/>
		</clipPath>
		<rect x="7.596" y="195.948" clip-path="url(#SVGID_142_)" width="14.681" height="14.24"/>
	</g>
</g>
<g>
	<defs>
		<path id="SVGID_143_" d="M20.03,207.263c0.147,0.113,0.358,0.087,0.471-0.061c0.113-0.146,0.086-0.355-0.06-0.47l-3.487-2.608
			c-0.147-0.113-0.358-0.087-0.47,0.06c-0.114,0.146-0.087,0.356,0.06,0.47L20.03,207.263z"/>
	</defs>
	<clipPath id="SVGID_144_">
		<use xlink:href="#SVGID_143_"  overflow="visible"/>
	</clipPath>
	<g clip-path="url(#SVGID_144_)">
		<defs>
			<rect id="SVGID_145_" x="-0.593" y="-3064" width="320" height="6650"/>
		</defs>
		<clipPath id="SVGID_146_">
			<use xlink:href="#SVGID_145_"  overflow="visible"/>
		</clipPath>
		<rect x="11.414" y="199.054" clip-path="url(#SVGID_146_)" fill="#5F7332" width="14.157" height="13.279"/>
	</g>
</g>
<g>
	<defs>
		<path id="SVGID_147_" d="M29.389,193.147c0,0-2.666-0.33-4.378,0.95c-1.404,1.053-0.896,3.001-0.896,3.001s1.73,1.032,3.133-0.019
			C28.96,195.796,29.389,193.147,29.389,193.147"/>
	</defs>
	<clipPath id="SVGID_148_">
		<use xlink:href="#SVGID_147_"  overflow="visible"/>
	</clipPath>
	<g clip-path="url(#SVGID_148_)">
		<defs>
			<rect id="SVGID_149_" x="-0.593" y="-3064" width="320" height="6650"/>
		</defs>
		<clipPath id="SVGID_150_">
			<use xlink:href="#SVGID_149_"  overflow="visible"/>
		</clipPath>
		<rect x="19.026" y="188.108" clip-path="url(#SVGID_150_)" fill="#80B03C" width="15.363" height="14.443"/>
	</g>
</g>
<g>
	<defs>
		<path id="SVGID_151_" d="M29.389,193.147l-5.273,3.951c0,0,1.73,1.032,3.133-0.019C28.96,195.796,29.389,193.147,29.389,193.147"
			/>
	</defs>
	<clipPath id="SVGID_152_">
		<use xlink:href="#SVGID_151_"  overflow="visible"/>
	</clipPath>
	<g clip-path="url(#SVGID_152_)">
		<defs>
			<rect id="SVGID_153_" x="-0.593" y="-3064" width="320" height="6650"/>
		</defs>
		<clipPath id="SVGID_154_">
			<use xlink:href="#SVGID_153_"  overflow="visible"/>
		</clipPath>
		<rect x="19.116" y="188.147" clip-path="url(#SVGID_154_)" width="15.273" height="14.404"/>
	</g>
</g>
<g>
	<defs>
		<path id="SVGID_155_" d="M21.008,199.554c-0.164,0.114-0.39,0.073-0.505-0.091c-0.114-0.164-0.073-0.39,0.091-0.504l3.911-2.624
			c0.165-0.114,0.39-0.073,0.505,0.091c0.114,0.164,0.073,0.39-0.091,0.505L21.008,199.554z"/>
	</defs>
	<clipPath id="SVGID_156_">
		<use xlink:href="#SVGID_155_"  overflow="visible"/>
	</clipPath>
	<g clip-path="url(#SVGID_156_)">
		<defs>
			<rect id="SVGID_157_" x="-0.593" y="-3064" width="320" height="6650"/>
		</defs>
		<clipPath id="SVGID_158_">
			<use xlink:href="#SVGID_157_"  overflow="visible"/>
		</clipPath>
		<rect x="15.439" y="191.271" clip-path="url(#SVGID_158_)" fill="#5F7332" width="14.636" height="13.348"/>
	</g>
</g>
<g>
	<defs>
		<path id="SVGID_159_" d="M20.151,185.269c0,0-1.99,2.55-1.851,5.251c0.113,2.216,2.281,3.071,2.281,3.071s2.066-1.073,1.952-3.289
			C22.395,187.602,20.151,185.269,20.151,185.269"/>
	</defs>
	<clipPath id="SVGID_160_">
		<use xlink:href="#SVGID_159_"  overflow="visible"/>
	</clipPath>
	<g clip-path="url(#SVGID_160_)">
		<defs>
			<rect id="SVGID_161_" x="-0.593" y="-3064" width="320" height="6650"/>
		</defs>
		<clipPath id="SVGID_162_">
			<use xlink:href="#SVGID_161_"  overflow="visible"/>
		</clipPath>
		<rect x="13.294" y="180.269" clip-path="url(#SVGID_162_)" fill="#80B03C" width="14.245" height="18.322"/>
	</g>
</g>
<g>
	<defs>
		<path id="SVGID_163_" d="M20.151,185.269l0.43,8.322c0,0,2.066-1.073,1.952-3.289C22.395,187.602,20.151,185.269,20.151,185.269"
			/>
	</defs>
	<clipPath id="SVGID_164_">
		<use xlink:href="#SVGID_163_"  overflow="visible"/>
	</clipPath>
	<g clip-path="url(#SVGID_164_)">
		<defs>
			<rect id="SVGID_165_" x="-0.593" y="-3064" width="320" height="6650"/>
		</defs>
		<clipPath id="SVGID_166_">
			<use xlink:href="#SVGID_165_"  overflow="visible"/>
		</clipPath>
		<rect x="15.151" y="180.269" clip-path="url(#SVGID_166_)" width="12.387" height="18.322"/>
	</g>
</g>
<g>
	<defs>
		<path id="SVGID_167_" d="M21.036,197.721c0.003,0.227-0.179,0.414-0.406,0.417c-0.229,0.005-0.415-0.177-0.419-0.404l0.003-5.35
			c-0.003-0.227,0.177-0.413,0.406-0.417c0.227-0.003,0.414,0.179,0.419,0.406L21.036,197.721z"/>
	</defs>
	<clipPath id="SVGID_168_">
		<use xlink:href="#SVGID_167_"  overflow="visible"/>
	</clipPath>
	<g clip-path="url(#SVGID_168_)">
		<defs>
			<rect id="SVGID_169_" x="-0.593" y="-3064" width="320" height="6650"/>
		</defs>
		<clipPath id="SVGID_170_">
			<use xlink:href="#SVGID_169_"  overflow="visible"/>
		</clipPath>
		<rect x="15.212" y="186.967" clip-path="url(#SVGID_170_)" fill="#5F7332" width="10.827" height="16.171"/>
	</g>
</g>
<g>
	<defs>
		<path id="SVGID_171_" d="M21.367,215.393v-18.42c0-0.409-0.332-0.742-0.742-0.742c-0.409,0-0.742,0.333-0.742,0.742v18.42H21.367z
			"/>
	</defs>
	<clipPath id="SVGID_172_">
		<use xlink:href="#SVGID_171_"  overflow="visible"/>
	</clipPath>
	<g clip-path="url(#SVGID_172_)">
		<defs>
			<rect id="SVGID_173_" x="-0.593" y="-3064" width="320" height="6650"/>
		</defs>
		<clipPath id="SVGID_174_">
			<use xlink:href="#SVGID_173_"  overflow="visible"/>
		</clipPath>
		<rect x="14.883" y="191.231" clip-path="url(#SVGID_174_)" fill="#5F7332" width="11.483" height="29.162"/>
	</g>
</g>
<g>
	<defs>
		<path id="SVGID_175_" d="M24.894,199.218c-0.138,0.661-0.786,1.085-1.448,0.947c-0.661-0.136-1.086-0.784-0.948-1.445
			c0.138-0.661,0.786-1.086,1.447-0.948C24.606,197.909,25.031,198.558,24.894,199.218"/>
	</defs>
	<clipPath id="SVGID_176_">
		<use xlink:href="#SVGID_175_"  overflow="visible"/>
	</clipPath>
	<g clip-path="url(#SVGID_176_)">
		<defs>
			<rect id="SVGID_177_" x="-0.593" y="-3064" width="320" height="6650"/>
		</defs>
		<clipPath id="SVGID_178_">
			<use xlink:href="#SVGID_177_"  overflow="visible"/>
		</clipPath>
		<rect x="17.471" y="192.746" clip-path="url(#SVGID_178_)" fill="#C66E3D" width="12.449" height="12.445"/>
	</g>
</g>
<g>
	<defs>
		<path id="SVGID_179_" d="M18.573,206.619c0.104,0.667-0.354,1.293-1.021,1.395c-0.668,0.104-1.294-0.353-1.397-1.019
			c-0.104-0.667,0.354-1.293,1.021-1.396C17.845,205.495,18.471,205.953,18.573,206.619"/>
	</defs>
	<clipPath id="SVGID_180_">
		<use xlink:href="#SVGID_179_"  overflow="visible"/>
	</clipPath>
	<g clip-path="url(#SVGID_180_)">
		<defs>
			<rect id="SVGID_181_" x="-0.593" y="-3064" width="320" height="6650"/>
		</defs>
		<clipPath id="SVGID_182_">
			<use xlink:href="#SVGID_181_"  overflow="visible"/>
		</clipPath>
		<rect x="11.14" y="200.584" clip-path="url(#SVGID_182_)" fill="#C66E3D" width="12.447" height="12.445"/>
	</g>
</g>
<g>
	<defs>
		<path id="SVGID_183_" d="M18.463,199.102c0,0.676-0.549,1.223-1.224,1.223c-0.676,0-1.224-0.547-1.224-1.223
			c0-0.675,0.548-1.222,1.224-1.222C17.915,197.88,18.463,198.427,18.463,199.102"/>
	</defs>
	<clipPath id="SVGID_184_">
		<use xlink:href="#SVGID_183_"  overflow="visible"/>
	</clipPath>
	<g clip-path="url(#SVGID_184_)">
		<defs>
			<rect id="SVGID_185_" x="-0.593" y="-3064" width="320" height="6650"/>
		</defs>
		<clipPath id="SVGID_186_">
			<use xlink:href="#SVGID_185_"  overflow="visible"/>
		</clipPath>
		<rect x="11.015" y="192.88" clip-path="url(#SVGID_186_)" fill="#C66E3D" width="12.448" height="12.445"/>
	</g>
</g>
<g>
	<defs>
		<path id="SVGID_187_" d="M26.138,208.057c0,0.676-0.549,1.222-1.224,1.222c-0.676,0-1.225-0.546-1.225-1.222
			c0-0.675,0.549-1.222,1.225-1.222C25.589,206.835,26.138,207.382,26.138,208.057"/>
	</defs>
	<clipPath id="SVGID_188_">
		<use xlink:href="#SVGID_187_"  overflow="visible"/>
	</clipPath>
	<g clip-path="url(#SVGID_188_)">
		<defs>
			<rect id="SVGID_189_" x="-0.593" y="-3064" width="320" height="6650"/>
		</defs>
		<clipPath id="SVGID_190_">
			<use xlink:href="#SVGID_189_"  overflow="visible"/>
		</clipPath>
		<rect x="18.689" y="201.835" clip-path="url(#SVGID_190_)" fill="#C66E3D" width="12.448" height="12.444"/>
	</g>
</g>
<g>
	<defs>
		<path id="SVGID_191_" d="M379.653,232.283c0,3.516-2.855,6.368-6.375,6.368c-3.52,0-6.376-2.852-6.376-6.368
			s2.855-6.368,6.376-6.368C376.798,225.915,379.653,228.767,379.653,232.283"/>
	</defs>
	<clipPath id="SVGID_192_">
		<use xlink:href="#SVGID_191_"  overflow="visible"/>
	</clipPath>
	<g clip-path="url(#SVGID_192_)">
		<defs>
			<rect id="SVGID_193_" x="-0.593" y="-3064" width="320" height="6650"/>
		</defs>
		<clipPath id="SVGID_194_">
			<use xlink:href="#SVGID_193_"  overflow="visible"/>
		</clipPath>
		<rect x="361.902" y="220.915" clip-path="url(#SVGID_194_)" fill="#97723F" width="22.751" height="22.736"/>
	</g>
</g>
<g>
	<defs>
		<path id="SVGID_195_" d="M351.041,237.896c0,1.864-1.513,3.376-3.379,3.376c-1.866,0-3.379-1.512-3.379-3.376
			s1.513-3.375,3.379-3.375C349.528,234.521,351.041,236.032,351.041,237.896"/>
	</defs>
	<clipPath id="SVGID_196_">
		<use xlink:href="#SVGID_195_"  overflow="visible"/>
	</clipPath>
	<g clip-path="url(#SVGID_196_)">
		<defs>
			<rect id="SVGID_197_" x="-0.593" y="-3064" width="320" height="6650"/>
		</defs>
		<clipPath id="SVGID_198_">
			<use xlink:href="#SVGID_197_"  overflow="visible"/>
		</clipPath>
		<rect x="339.283" y="229.521" clip-path="url(#SVGID_198_)" fill="#97723F" width="16.758" height="16.751"/>
	</g>
</g>
<g>
	<defs>
		<rect id="SVGID_199_" x="-14.143" y="201.523" width="403.407" height="20.52"/>
	</defs>
	<clipPath id="SVGID_200_">
		<use xlink:href="#SVGID_199_"  overflow="visible"/>
	</clipPath>
	<g clip-path="url(#SVGID_200_)">
		<defs>
			<rect id="SVGID_201_" x="-0.593" y="-3064" width="320" height="6650"/>
		</defs>
		<clipPath id="SVGID_202_">
			<use xlink:href="#SVGID_201_"  overflow="visible"/>
		</clipPath>
		<g clip-path="url(#SVGID_202_)" enable-background="new    ">
			<g>
				<defs>
					<rect id="SVGID_203_" x="-0.593" y="201" width="320" height="22"/>
				</defs>
				<clipPath id="SVGID_204_">
					<use xlink:href="#SVGID_203_"  overflow="visible"/>
				</clipPath>
				<g clip-path="url(#SVGID_204_)">
					<defs>
						<path id="SVGID_205_" d="M460.194,211.783c0,5.667-4.6,10.26-10.273,10.26H-14.934c-5.673,0-10.271-4.593-10.271-10.26
							s4.598-10.26,10.271-10.26h464.856C455.594,201.523,460.194,206.116,460.194,211.783"/>
					</defs>
					<clipPath id="SVGID_206_">
						<use xlink:href="#SVGID_205_"  overflow="visible"/>
					</clipPath>
					<g clip-path="url(#SVGID_206_)">
						<defs>
							<rect id="SVGID_207_" x="-0.593" y="201" width="320" height="22"/>
						</defs>
						<clipPath id="SVGID_208_">
							<use xlink:href="#SVGID_207_"  overflow="visible"/>
						</clipPath>
						<rect x="-30.206" y="196.523" clip-path="url(#SVGID_208_)" fill="#8BA967" width="495.4" height="30.52"/>
					</g>
				</g>
			</g>
		</g>
	</g>
</g>
<g>
	<defs>
		<rect id="SVGID_209_" x="-14.143" y="213.263" width="403.407" height="10.26"/>
	</defs>
	<clipPath id="SVGID_210_">
		<use xlink:href="#SVGID_209_"  overflow="visible"/>
	</clipPath>
	<g clip-path="url(#SVGID_210_)">
		<defs>
			<rect id="SVGID_211_" x="-0.593" y="-3062.52" width="320" height="6650"/>
		</defs>
		<clipPath id="SVGID_212_">
			<use xlink:href="#SVGID_211_"  overflow="visible"/>
		</clipPath>
		<g clip-path="url(#SVGID_212_)" enable-background="new    ">
			<g>
				<defs>
					<rect id="SVGID_213_" x="-0.593" y="212.48" width="320" height="12"/>
				</defs>
				<clipPath id="SVGID_214_">
					<use xlink:href="#SVGID_213_"  overflow="visible"/>
				</clipPath>
				<g clip-path="url(#SVGID_214_)">
					<defs>
						<path id="SVGID_215_" d="M-14.934,223.523h464.856c5.673,0,10.273-4.593,10.273-10.26h-485.4
							C-25.205,218.93-20.608,223.523-14.934,223.523"/>
					</defs>
					<clipPath id="SVGID_216_">
						<use xlink:href="#SVGID_215_"  overflow="visible"/>
					</clipPath>
					<g clip-path="url(#SVGID_216_)">
						<defs>
							<rect id="SVGID_217_" x="-0.593" y="212.48" width="320" height="12"/>
						</defs>
						<clipPath id="SVGID_218_">
							<use xlink:href="#SVGID_217_"  overflow="visible"/>
						</clipPath>
						<rect x="-30.205" y="208.263" clip-path="url(#SVGID_218_)" fill="#7F9D52" width="495.4" height="20.26"/>
					</g>
				</g>
			</g>
		</g>
	</g>
</g>
<g>
	<defs>
		<path id="SVGID_219_" d="M333.951,238.991c0,0.701-0.57,1.271-1.273,1.271c-0.702,0-1.271-0.57-1.271-1.271
			c0-0.703,0.569-1.272,1.271-1.272C333.382,237.719,333.951,238.288,333.951,238.991"/>
	</defs>
	<clipPath id="SVGID_220_">
		<use xlink:href="#SVGID_219_"  overflow="visible"/>
	</clipPath>
	<g clip-path="url(#SVGID_220_)">
		<defs>
			<rect id="SVGID_221_" x="-0.593" y="-3064" width="320" height="6650"/>
		</defs>
		<clipPath id="SVGID_222_">
			<use xlink:href="#SVGID_221_"  overflow="visible"/>
		</clipPath>
		<rect x="326.407" y="232.719" clip-path="url(#SVGID_222_)" fill="#97723F" width="12.544" height="12.543"/>
	</g>
</g>
<g>
	<defs>
		<path id="SVGID_223_" d="M352.269,273.279c0,2.414,1.959,4.373,4.378,4.373c2.417,0,4.378-1.959,4.378-4.373
			c0-2.416-1.96-4.373-4.378-4.373C354.229,268.906,352.269,270.863,352.269,273.279"/>
	</defs>
	<clipPath id="SVGID_224_">
		<use xlink:href="#SVGID_223_"  overflow="visible"/>
	</clipPath>
	<g clip-path="url(#SVGID_224_)">
		<defs>
			<rect id="SVGID_225_" x="-0.593" y="-3064" width="320" height="6650"/>
		</defs>
		<clipPath id="SVGID_226_">
			<use xlink:href="#SVGID_225_"  overflow="visible"/>
		</clipPath>
		<rect x="347.269" y="263.906" clip-path="url(#SVGID_226_)" fill="#97723F" width="18.755" height="18.746"/>
	</g>
</g>
<g>
	<defs>
		<path id="SVGID_227_" d="M330.797,284.713c0,3.329,2.701,6.025,6.032,6.025c3.332,0,6.032-2.696,6.032-6.025
			c0-3.327-2.7-6.025-6.032-6.025C333.499,278.688,330.797,281.386,330.797,284.713"/>
	</defs>
	<clipPath id="SVGID_228_">
		<use xlink:href="#SVGID_227_"  overflow="visible"/>
	</clipPath>
	<g clip-path="url(#SVGID_228_)">
		<defs>
			<rect id="SVGID_229_" x="-0.593" y="-3064" width="320" height="6650"/>
		</defs>
		<clipPath id="SVGID_230_">
			<use xlink:href="#SVGID_229_"  overflow="visible"/>
		</clipPath>
		<rect x="325.797" y="273.688" clip-path="url(#SVGID_230_)" fill="#694B26" width="22.064" height="22.05"/>
	</g>
</g>
<g>
	<defs>
		<path id="SVGID_231_" d="M325.214,265.182c0,4.068,3.301,7.366,7.373,7.366c4.072,0,7.373-3.298,7.373-7.366
			s-3.302-7.366-7.373-7.366C328.515,257.816,325.214,261.114,325.214,265.182"/>
	</defs>
	<clipPath id="SVGID_232_">
		<use xlink:href="#SVGID_231_"  overflow="visible"/>
	</clipPath>
	<g clip-path="url(#SVGID_232_)">
		<defs>
			<rect id="SVGID_233_" x="-0.593" y="-3064" width="320" height="6650"/>
		</defs>
		<clipPath id="SVGID_234_">
			<use xlink:href="#SVGID_233_"  overflow="visible"/>
		</clipPath>
		<rect x="320.214" y="252.816" clip-path="url(#SVGID_234_)" fill="#97723F" width="24.747" height="24.732"/>
	</g>
</g>
<g>
	<defs>
		<path id="SVGID_235_" d="M365.611,274.84c0,1.864,1.513,3.375,3.379,3.375c1.866,0,3.379-1.511,3.379-3.375
			s-1.513-3.376-3.379-3.376C367.124,271.464,365.611,272.976,365.611,274.84"/>
	</defs>
	<clipPath id="SVGID_236_">
		<use xlink:href="#SVGID_235_"  overflow="visible"/>
	</clipPath>
	<g clip-path="url(#SVGID_236_)">
		<defs>
			<rect id="SVGID_237_" x="-0.593" y="-3064" width="320" height="6650"/>
		</defs>
		<clipPath id="SVGID_238_">
			<use xlink:href="#SVGID_237_"  overflow="visible"/>
		</clipPath>
		<rect x="360.611" y="266.464" clip-path="url(#SVGID_238_)" fill="#97723F" width="16.758" height="16.751"/>
	</g>
</g>
<g>
	<defs>
		<path id="SVGID_239_" d="M368.748,273.602c0,0.703,0.569,1.272,1.272,1.272c0.703,0,1.272-0.569,1.272-1.272
			c0-0.701-0.57-1.271-1.272-1.271C369.317,272.331,368.748,272.901,368.748,273.602"/>
	</defs>
	<clipPath id="SVGID_240_">
		<use xlink:href="#SVGID_239_"  overflow="visible"/>
	</clipPath>
	<g clip-path="url(#SVGID_240_)">
		<defs>
			<rect id="SVGID_241_" x="-0.593" y="-3064" width="320" height="6650"/>
		</defs>
		<clipPath id="SVGID_242_">
			<use xlink:href="#SVGID_241_"  overflow="visible"/>
		</clipPath>
		<rect x="363.748" y="267.331" clip-path="url(#SVGID_242_)" fill="#694B26" width="12.544" height="12.543"/>
	</g>
</g>
<g>
	<defs>
		<path id="SVGID_243_" d="M346.266,276.139c0,0.702,0.569,1.272,1.272,1.272c0.703,0,1.273-0.57,1.273-1.272
			c0-0.701-0.57-1.271-1.273-1.271C346.835,274.868,346.266,275.438,346.266,276.139"/>
	</defs>
	<clipPath id="SVGID_244_">
		<use xlink:href="#SVGID_243_"  overflow="visible"/>
	</clipPath>
	<g clip-path="url(#SVGID_244_)">
		<defs>
			<rect id="SVGID_245_" x="-0.593" y="-3064" width="320" height="6650"/>
		</defs>
		<clipPath id="SVGID_246_">
			<use xlink:href="#SVGID_245_"  overflow="visible"/>
		</clipPath>
		<rect x="341.266" y="269.868" clip-path="url(#SVGID_246_)" fill="#97723F" width="12.545" height="12.543"/>
	</g>
</g>
<g>
	<defs>
		<path id="SVGID_247_" d="M333.893,271.704c0,0.702,0.57,1.27,1.272,1.27c0.703,0,1.272-0.568,1.272-1.27
			c0-0.703-0.569-1.271-1.272-1.271C334.463,270.433,333.893,271.001,333.893,271.704"/>
	</defs>
	<clipPath id="SVGID_248_">
		<use xlink:href="#SVGID_247_"  overflow="visible"/>
	</clipPath>
	<g clip-path="url(#SVGID_248_)">
		<defs>
			<rect id="SVGID_249_" x="-0.593" y="-3064" width="320" height="6650"/>
		</defs>
		<clipPath id="SVGID_250_">
			<use xlink:href="#SVGID_249_"  overflow="visible"/>
		</clipPath>
		<rect x="328.893" y="265.433" clip-path="url(#SVGID_250_)" fill="#97723F" width="12.544" height="12.541"/>
	</g>
</g>
<g>
	<defs>
		<path id="SVGID_251_" d="M328.331,318.282c0,2.414,1.959,4.373,4.378,4.373c2.417,0,4.378-1.959,4.378-4.373
			c0-2.416-1.96-4.373-4.378-4.373C330.29,313.909,328.331,315.866,328.331,318.282"/>
	</defs>
	<clipPath id="SVGID_252_">
		<use xlink:href="#SVGID_251_"  overflow="visible"/>
	</clipPath>
	<g clip-path="url(#SVGID_252_)">
		<defs>
			<rect id="SVGID_253_" x="-0.593" y="-3064" width="320" height="6650"/>
		</defs>
		<clipPath id="SVGID_254_">
			<use xlink:href="#SVGID_253_"  overflow="visible"/>
		</clipPath>
		<rect x="323.331" y="308.909" clip-path="url(#SVGID_254_)" fill="#97723F" width="18.755" height="18.746"/>
	</g>
</g>
<g>
	<defs>
		<path id="SVGID_255_" d="M341.672,319.842c0,1.864,1.513,3.376,3.379,3.376c1.866,0,3.379-1.512,3.379-3.376
			s-1.513-3.375-3.379-3.375C343.185,316.467,341.672,317.978,341.672,319.842"/>
	</defs>
	<clipPath id="SVGID_256_">
		<use xlink:href="#SVGID_255_"  overflow="visible"/>
	</clipPath>
	<g clip-path="url(#SVGID_256_)">
		<defs>
			<rect id="SVGID_257_" x="-0.593" y="-3064" width="320" height="6650"/>
		</defs>
		<clipPath id="SVGID_258_">
			<use xlink:href="#SVGID_257_"  overflow="visible"/>
		</clipPath>
		<rect x="336.672" y="311.467" clip-path="url(#SVGID_258_)" fill="#97723F" width="16.758" height="16.751"/>
	</g>
</g>
<g>
	<defs>
		<path id="SVGID_259_" d="M344.809,318.605c0,0.703,0.569,1.271,1.272,1.271c0.703,0,1.272-0.568,1.272-1.271
			c0-0.702-0.57-1.272-1.272-1.272C345.378,317.333,344.809,317.903,344.809,318.605"/>
	</defs>
	<clipPath id="SVGID_260_">
		<use xlink:href="#SVGID_259_"  overflow="visible"/>
	</clipPath>
	<g clip-path="url(#SVGID_260_)">
		<defs>
			<rect id="SVGID_261_" x="-0.593" y="-3064" width="320" height="6650"/>
		</defs>
		<clipPath id="SVGID_262_">
			<use xlink:href="#SVGID_261_"  overflow="visible"/>
		</clipPath>
		<rect x="339.809" y="312.333" clip-path="url(#SVGID_262_)" fill="#694B26" width="12.544" height="12.543"/>
	</g>
</g>
<g>
	<defs>
		<path id="SVGID_263_" d="M322.327,321.142c0,0.701,0.57,1.271,1.272,1.271c0.703,0,1.273-0.57,1.273-1.271
			c0-0.702-0.57-1.272-1.273-1.272C322.897,319.87,322.327,320.44,322.327,321.142"/>
	</defs>
	<clipPath id="SVGID_264_">
		<use xlink:href="#SVGID_263_"  overflow="visible"/>
	</clipPath>
	<g clip-path="url(#SVGID_264_)">
		<defs>
			<rect id="SVGID_265_" x="-0.593" y="-3064" width="320" height="6650"/>
		</defs>
		<clipPath id="SVGID_266_">
			<use xlink:href="#SVGID_265_"  overflow="visible"/>
		</clipPath>
		<rect x="317.327" y="314.87" clip-path="url(#SVGID_266_)" fill="#97723F" width="12.545" height="12.543"/>
	</g>
</g>
<g>
	<g>
		<defs>
			<rect id="SVGID_267_" x="-0.593" y="-3064" width="320" height="6650"/>
		</defs>
		<clipPath id="SVGID_268_">
			<use xlink:href="#SVGID_267_"  overflow="visible"/>
		</clipPath>
		<g clip-path="url(#SVGID_268_)">
			<defs>
				<rect id="SVGID_269_" x="-0.593" y="186" width="320" height="26"/>
			</defs>
			<clipPath id="SVGID_270_">
				<use xlink:href="#SVGID_269_"  overflow="visible"/>
			</clipPath>
			<g clip-path="url(#SVGID_270_)">
				<defs>
					<rect id="SVGID_271_" x="-0.593" y="186" width="320" height="26"/>
				</defs>
				<clipPath id="SVGID_272_">
					<use xlink:href="#SVGID_271_"  overflow="visible"/>
				</clipPath>
				<path clip-path="url(#SVGID_272_)" fill="none" stroke="#422B2C" stroke-linejoin="round" stroke-miterlimit="10" d="
					M437.886,211.2c-0.038-5.348-4.388-9.668-9.751-9.668H30.478c0.405-1.612,0.342-3.023,0.342-3.023s-3.766,0.309-5.754,2.564
					c-0.131,0.149-0.241,0.302-0.337,0.458h-3.457v-2.117l1.171-0.786c-0.025,0.063-0.047,0.129-0.061,0.197
					c-0.131,0.628,0.272,1.243,0.9,1.372c0.628,0.13,1.244-0.271,1.375-0.899c0.131-0.628-0.273-1.243-0.901-1.374
					c-0.077-0.016-0.153-0.024-0.229-0.024l0.696-0.466c0.536,0.229,1.687,0.569,2.67-0.167c1.625-1.217,2.032-3.733,2.032-3.733
					s-2.531-0.313-4.156,0.903c-0.931,0.698-0.976,1.81-0.919,2.418l-2.578,1.73v-1.418c0-0.23-0.108-0.433-0.276-0.561l0.002-2.936
					c0.571-0.436,1.495-1.374,1.419-2.835c-0.131-2.563-2.261-4.778-2.261-4.778s-1.889,2.421-1.757,4.985
					c0.08,1.555,1.225,2.404,1.816,2.74l-0.002,2.789c-0.196,0.125-0.324,0.344-0.324,0.596V199l-2.763-2.824
					c0.259-0.838,0.523-2.418-0.584-3.673c-1.93-2.19-5.586-2.489-5.586-2.489s-0.166,3.662,1.765,5.85
					c1.168,1.326,2.888,1.184,3.71,1.019l1.138,1.163c-0.058-0.009-0.118-0.015-0.179-0.015c-0.642,0-1.162,0.519-1.162,1.161
					c0,0.641,0.52,1.16,1.162,1.16c0.641,0,1.162-0.519,1.162-1.16c0-0.052-0.004-0.102-0.011-0.152l1.348,1.377v1.117h-3.788
					c-1.4-0.715-3.118-0.59-3.118-0.59s0.025,0.234,0.106,0.59h-28.201"/>
			</g>
		</g>
	</g>
</g>
<g>
	<g>
		<defs>
			<rect id="SVGID_273_" x="229.263" y="-3095.901" width="320" height="6650"/>
		</defs>
		<clipPath id="SVGID_274_">
			<use xlink:href="#SVGID_273_"  overflow="visible"/>
		</clipPath>
	</g>
</g>
<g>
	<g>
		<defs>
			<rect id="SVGID_275_" x="229.263" y="-3095.901" width="320" height="6650"/>
		</defs>
		<clipPath id="SVGID_276_">
			<use xlink:href="#SVGID_275_"  overflow="visible"/>
		</clipPath>
	</g>
</g>
<g>
	<g>
		<defs>
			<rect id="SVGID_277_" x="229.263" y="-3095.901" width="320" height="6650"/>
		</defs>
		<clipPath id="SVGID_278_">
			<use xlink:href="#SVGID_277_"  overflow="visible"/>
		</clipPath>
	</g>
</g>
<g>
	<g>
		<defs>
			<rect id="SVGID_279_" x="229.263" y="-3095.901" width="320" height="6650"/>
		</defs>
		<clipPath id="SVGID_280_">
			<use xlink:href="#SVGID_279_"  overflow="visible"/>
		</clipPath>
	</g>
</g>
<g>
	<g>
		<defs>
			<rect id="SVGID_281_" x="229.263" y="-3095.901" width="320" height="6650"/>
		</defs>
		<clipPath id="SVGID_282_">
			<use xlink:href="#SVGID_281_"  overflow="visible"/>
		</clipPath>
	</g>
</g>
<g>
	<g>
		<defs>
			<rect id="SVGID_283_" x="229.263" y="-3095.901" width="320" height="6650"/>
		</defs>
		<clipPath id="SVGID_284_">
			<use xlink:href="#SVGID_283_"  overflow="visible"/>
		</clipPath>
	</g>
</g>
<g>
	<g>
		<defs>
			<rect id="SVGID_285_" x="229.263" y="-3095.901" width="320" height="6650"/>
		</defs>
		<clipPath id="SVGID_286_">
			<use xlink:href="#SVGID_285_"  overflow="visible"/>
		</clipPath>
	</g>
</g>
<g>
	<g>
		<defs>
			<rect id="SVGID_287_" x="229.263" y="-3095.901" width="320" height="6650"/>
		</defs>
		<clipPath id="SVGID_288_">
			<use xlink:href="#SVGID_287_"  overflow="visible"/>
		</clipPath>
	</g>
</g>
<g>
	<g>
		<defs>
			<rect id="SVGID_289_" x="229.263" y="-3095.901" width="320" height="6650"/>
		</defs>
		<clipPath id="SVGID_290_">
			<use xlink:href="#SVGID_289_"  overflow="visible"/>
		</clipPath>
	</g>
</g>
<g>
	<g>
		<defs>
			<rect id="SVGID_291_" x="229.263" y="-3095.901" width="320" height="6650"/>
		</defs>
		<clipPath id="SVGID_292_">
			<use xlink:href="#SVGID_291_"  overflow="visible"/>
		</clipPath>
	</g>
</g>
<g>
	<g>
		<defs>
			<rect id="SVGID_293_" x="229.263" y="-3095.901" width="320" height="6650"/>
		</defs>
		<clipPath id="SVGID_294_">
			<use xlink:href="#SVGID_293_"  overflow="visible"/>
		</clipPath>
	</g>
</g>
<g>
	<g>
		<defs>
			<rect id="SVGID_295_" x="229.263" y="-3095.901" width="320" height="6650"/>
		</defs>
		<clipPath id="SVGID_296_">
			<use xlink:href="#SVGID_295_"  overflow="visible"/>
		</clipPath>
	</g>
</g>
<g>
	<g>
		<defs>
			<rect id="SVGID_297_" x="229.263" y="-3095.901" width="320" height="6650"/>
		</defs>
		<clipPath id="SVGID_298_">
			<use xlink:href="#SVGID_297_"  overflow="visible"/>
		</clipPath>
	</g>
</g>
<g>
	<g>
		<defs>
			<rect id="SVGID_299_" x="229.263" y="-3095.901" width="320" height="6650"/>
		</defs>
		<clipPath id="SVGID_300_">
			<use xlink:href="#SVGID_299_"  overflow="visible"/>
		</clipPath>
	</g>
</g>
<g>
	<g>
		<defs>
			<rect id="SVGID_301_" x="229.263" y="-3095.901" width="320" height="6650"/>
		</defs>
		<clipPath id="SVGID_302_">
			<use xlink:href="#SVGID_301_"  overflow="visible"/>
		</clipPath>
	</g>
</g>
<g>
	<g>
		<defs>
			<rect id="SVGID_303_" x="229.263" y="-3095.901" width="320" height="6650"/>
		</defs>
		<clipPath id="SVGID_304_">
			<use xlink:href="#SVGID_303_"  overflow="visible"/>
		</clipPath>
	</g>
</g>
<g>
	<g>
		<defs>
			<rect id="SVGID_305_" x="229.263" y="-3095.901" width="320" height="6650"/>
		</defs>
		<clipPath id="SVGID_306_">
			<use xlink:href="#SVGID_305_"  overflow="visible"/>
		</clipPath>
	</g>
</g>
<g>
	<g>
		<defs>
			<rect id="SVGID_307_" x="229.263" y="-3095.901" width="320" height="6650"/>
		</defs>
		<clipPath id="SVGID_308_">
			<use xlink:href="#SVGID_307_"  overflow="visible"/>
		</clipPath>
	</g>
</g>
</svg>
