<?xml version="1.0" encoding="utf-8"?>
<!-- Generator: Adobe Illustrator 16.0.0, SVG Export Plug-In . SVG Version: 6.00 Build 0)  -->
<!DOCTYPE svg PUBLIC "-//W3C//DTD SVG 1.1//EN" "http://www.w3.org/Graphics/SVG/1.1/DTD/svg11.dtd">
<svg version="1.1" id="Capa_1" xmlns="http://www.w3.org/2000/svg" xmlns:xlink="http://www.w3.org/1999/xlink" x="0px" y="0px"
	 width="92.75px" height="100.501px" viewBox="0 0 92.75 100.501" enable-background="new 0 0 92.75 100.501" xml:space="preserve">
<g>
	<g>
		<g>
			<g>
				<path fill="none" stroke="#DCB440" stroke-width="6.6393" stroke-miterlimit="10" d="M38.84,73.882
					c1.604,8.374,6.704,13.308,13.703,16.754"/>
				<polyline fill="none" stroke="#DCB440" stroke-width="6.6393" stroke-miterlimit="10" points="48.899,92.771 48.899,88.577 
					52.543,86.794 				"/>
			</g>
			<g>
				<path fill="none" stroke="#DCB440" stroke-width="6.6393" stroke-miterlimit="10" d="M33.377,72.268
					c-1.239,7.044,1.053,12.99,5.231,18.566"/>
				<polyline fill="none" stroke="#DCB440" stroke-width="6.6393" stroke-miterlimit="10" points="34.392,91.09 36.295,87.352 
					40.35,87.413 				"/>
			</g>
		</g>
		<g>
			<path fill="#BC71A4" d="M4.305,17.074c7.239-5.686,21.194-6.719,32.049,3.878c10.857,10.599,32.822,34.639,44.713,36.705
				C74.35,77.299,38.813,84.454,19.81,63.861C2.097,44.657,14.762,22.897,4.305,17.074z"/>
			<path fill="#B65B98" d="M36.354,20.952c-10.855-10.591-24.807-9.563-32.046-3.878c13.608-1.001,30.761,5.735,48.154,29.693
				c7.608,10.477,15.35,16.686,22.349,20.271c2.856-2.655,5.034-5.812,6.259-9.385C69.176,55.588,47.211,31.551,36.354,20.952z"/>
			<path fill="#CA95B9" d="M9.871,42.086c0.911,6.967,3.274,14.549,9.939,21.775c6.384,6.911,14.627,10.695,23.021,11.933
				C39.361,55.027,22.352,44.355,9.871,42.086z"/>
		</g>
		<circle fill="#2A2929" cx="20.837" cy="19.93" r="2.456"/>
		<path fill="#CA95B9" d="M56.948,9.972c7.453-7.449,16.712-8.931,21.507-4.136c4.794,4.795,3.316,14.053-4.141,21.509
			C61.821,39.843,42.688,41.605,42.688,41.605S44.454,22.463,56.948,9.972z"/>
		<path fill="#CA95B9" d="M68.25,18.142c9.784-3.923,18.877-1.631,21.396,4.661c2.519,6.297-2.487,14.226-12.267,18.143
			C60.975,47.509,42.688,41.6,42.688,41.6S51.846,24.706,68.25,18.142z"/>
		<path fill="#DCB440" d="M12.377,13.401c-3.122,0.678-5.901,1.972-8.073,3.673c2.236,1.249,3.416,3.229,4.062,5.748
			C10.535,20.21,11.979,16.965,12.377,13.401z"/>
	</g>
	<path fill="none" stroke="#422B2C" stroke-width="3.3196" stroke-miterlimit="10" d="M77.852,40.5
		c10.03-4.013,15.159-12.134,12.574-18.585c-1.5-3.756-5.263-5.828-9.089-6.483c0.909-3.773,0.482-8.047-2.376-10.905
		c-5.567-5.563-14.565-2.031-19.75,2.172C52.246,12.345,47.737,20.8,44.997,29.202c-2.985-2.998-5.942-6.027-8.967-8.986
		c-3.015-2.95-6.422-5.165-10.322-6.758c-7.205-2.942-16.486-2.313-22.72,2.576c3.542,1.976,4.444,6.037,4.776,9.778
		c0.468,5.278,0.235,10.586,0.927,15.852c0,1.197,0.391,2.513,0.63,3.684c0.151,0.737,0.305,1.47,0.54,2.185
		c0.462,1.401,0.926,2.802,1.389,4.202c0.766,2.317,2.075,4.445,3.219,6.595c0.087,0.163,0.145,0.101,0.299,0.218
		c0.333,0.252,0.54,0.695,0.737,1.051c0.669,1.202,1.502,2.241,2.396,3.287c1.854,2.169,3.969,4.091,6.238,5.817
		c2.297,1.749,4.818,3.175,7.45,4.354c0.35,0.156,0.968,0.213,0.992,0.642c0.021,0.361,0.03,0.724,0.045,1.086
		c0.04,0.957-0.126,1.901-0.153,2.863c-0.138,4.872,0.838,8.208,2.571,12.684l-0.986,3.08l2.436-2.775
		c0.38,0.564,1.49,1.385,1.904,1.942c-0.081-0.319-0.994-2.683-0.786-2.822c0.768-0.513,1.537-1.026,2.305-1.539
		c-0.794-0.027-1.588-0.056-2.383-0.083c-0.474-0.017-0.402-0.029-0.525-0.466c-0.447-1.587-0.894-3.175-1.341-4.762
		c-0.862-3.06-1.723-6.12-2.585-9.18c0.938,0.312,1.864,0.679,2.811,0.976c0.576,0.181,1.155,0.35,1.739,0.504
		c0.233,0.062,0.466,0.122,0.7,0.18c0.486,0.12,0.387,0.251,0.507,0.7c0.511,1.909,1.24,3.762,2.22,5.48
		c1.807,3.168,4.442,5.744,7.487,7.724l-0.191,0.013v4.299c0.437-0.662,0.874-1.324,1.311-1.986
		c0.238-0.361,0.476-0.722,0.714-1.082c0.126-0.191,1.664,0.738,1.946,0.877c-0.158-0.199-1.405-1.562-1.322-1.696
		c0.461-0.746,0.923-1.493,1.384-2.239c-0.742,0.365-1.483,0.73-2.225,1.097c-0.147,0.072-0.444-0.434-0.533-0.542
		c-1.191-1.457-2.382-2.914-3.573-4.371c-2.181-2.667-3.753-6.864-7.008-7.992c0.392,0.136,1.269,0.576,1.269,0.589
		c8.915,0.753,16.114,0.7,24.382-3.221c1.636-0.775,3.206-1.688,4.691-2.724c0.7-0.488,1.381-1.004,2.042-1.543
		c0.429-0.351,1.389-1.533,1.917-1.528c0.316,0.003,1.248,0.111,1.51-0.146c0.859-0.814,1.875-1.506,2.642-2.408
		c1.781-2.093,3.243-4.447,4.133-7.062c-3.598-0.627-6.935-2.682-9.917-4.688c-4.113-2.768-7.931-5.968-11.628-9.262
		C65.63,43.668,71.863,42.896,77.852,40.5C87.882,36.487,71.863,42.896,77.852,40.5z"/>
</g>
</svg>
