<?xml version="1.0" encoding="utf-8"?>
<!-- Generator: Adobe Illustrator 16.0.0, SVG Export Plug-In . SVG Version: 6.00 Build 0)  -->
<!DOCTYPE svg PUBLIC "-//W3C//DTD SVG 1.1//EN" "http://www.w3.org/Graphics/SVG/1.1/DTD/svg11.dtd">
<svg version="1.1" id="Capa_1" xmlns="http://www.w3.org/2000/svg" xmlns:xlink="http://www.w3.org/1999/xlink" x="0px" y="0px"
	 width="143.287px" height="106.582px" viewBox="0 0 143.287 106.582" enable-background="new 0 0 143.287 106.582"
	 xml:space="preserve">
<g>
	<g>
		<g>
			<path fill="none" stroke="#DCB440" stroke-width="6.933" stroke-miterlimit="10" d="M78.638,76.927
				c-1.945,10.166-8.135,16.139-16.621,20.322"/>
			<polyline fill="none" stroke="#DCB440" stroke-width="6.933" stroke-miterlimit="10" points="66.44,99.847 66.44,94.762 
				62.017,92.595 			"/>
		</g>
		<g>
			<path fill="none" stroke="#DCB440" stroke-width="6.933" stroke-miterlimit="10" d="M85.263,77.267
				c1.508,8.551-1.279,15.762-6.348,22.521"/>
			<polyline fill="none" stroke="#DCB440" stroke-width="6.933" stroke-miterlimit="10" points="84.034,100.101 81.729,95.564 
				76.81,95.639 			"/>
		</g>
	</g>
	<g>
		<path fill="#83714E" d="M13.421,54.856c-4.963-4.178-6.727-10.309-4.496-14.15c2.232-3.853,7.607-3.965,12.57,0.217
			c8.305,7.004,11.223,19.831,11.223,19.831S21.729,61.857,13.421,54.856z"/>
		<path fill="#83714E" d="M12.29,67.714C5.866,67.042,1.524,62.521,1.884,57.531c0.355-4.987,5.271-8.545,11.703-7.875
			C24.358,50.78,32.72,60.75,32.72,60.75S23.062,68.837,12.29,67.714z"/>
	</g>
	<path fill="#A69368" d="M102.14,5.492C43.53-10.145,32.72,60.777,32.72,60.777s68.645,42.955,89.933-1.662
		C132.214,39.067,125.05,11.606,102.14,5.492z"/>
	<path fill="#968660" d="M123.692,24.755c-3.771-9.08-10.988-16.439-21.553-19.263C43.53-10.145,32.72,60.777,32.72,60.777
		s2.492,1.555,6.666,3.771C46.093,33.813,78.202,4.721,123.692,24.755z"/>
	<path fill="#B4A37F" d="M58.989,73.319c18.637,6.784,42.819,10.944,57.301-4.672C93.604,61.901,73.11,64.769,58.989,73.319z"/>
	<circle fill="#2A2929" cx="112.843" cy="29.352" r="4.049"/>
</g>
<path fill="#B4A37F" d="M82.7,40.364c-8.883,2.092-19.33,13.555-18.869,15.518c0.461,1.949,11.426,8.367,20.309,6.272
	c8.883-2.093,12.637-10.559,11.266-16.348C94.196,40.679,89.245,38.816,82.7,40.364z"/>
<g>
	<polygon fill="#DCB440" points="125.03,36.941 137.925,43.793 124.79,45.168 	"/>
</g>
<g>
	<path fill="none" stroke="#422B2C" stroke-width="3.467" stroke-miterlimit="10" d="M137.925,43.793
		c-2.266-2.071-11.304-7.47-11.304-7.47c-0.213-4.837-1.129-7.872-2.942-12.226c0.008,0-3.815-8.361-8.015-11.668
		c-0.121-0.115-0.24-0.227-0.363-0.342c-0.791-0.721-1.62-1.405-2.489-2.052c-0.144-0.098-0.289-0.203-0.431-0.305
		c-0.887-0.633-1.812-1.226-2.778-1.767c-0.144-0.078-0.289-0.156-0.431-0.228c-1.004-0.541-2.039-1.049-3.129-1.492
		c-0.106-0.041-0.213-0.071-0.321-0.119c-1.15-0.45-2.339-0.856-3.58-1.188C43.53-10.703,32.72,60.218,32.72,60.218
		s0.027,0.015,0.064,0.041c0.023,0.014,0.037,0.021,0.086,0.055c0.07,0.044,0.172,0.102,0.305,0.186
		c0.002,0.004,0.01,0.008,0.016,0.008c0.129,0.082,0.295,0.184,0.48,0.291c0.035,0.021,0.068,0.041,0.1,0.058
		c0.205,0.126,0.436,0.261,0.703,0.413c0.021,0.014,0.041,0.027,0.059,0.041c0.24,0.143,0.514,0.295,0.803,0.46
		c0.061,0.034,0.121,0.071,0.189,0.108c0.311,0.177,0.646,0.361,1.012,0.564c0.061,0.037,0.121,0.071,0.18,0.102
		c0.311,0.177,0.652,0.363,0.994,0.549c0.105,0.055,0.207,0.111,0.314,0.17c0.4,0.22,0.82,0.443,1.264,0.677
		c0.033,0.021,0.064,0.034,0.098,0.056l0,0c4.75,2.519,11.672,5.879,19.607,8.771l0,0c0.055,0.017,0.105,0.032,0.16,0.054
		c1.09,0.396,2.197,0.785,3.324,1.161c0.08,0.026,0.162,0.052,0.244,0.074c1.119,0.368,2.254,0.729,3.404,1.069
		c0.088,0.031,0.184,0.059,0.281,0.082c1.141,0.334,2.295,0.652,3.457,0.957c0.102,0.023,0.203,0.051,0.305,0.074
		c1.156,0.295,2.318,0.572,3.49,0.826c0.111,0.023,0.223,0.044,0.332,0.066c1.156,0.244,2.318,0.476,3.482,0.672L64.739,93.371
		l-2.719-1.334l1.627,2.672l-1.627,1.982c0.74-0.361,1.385-0.762,2.088-1.15l2.23,3.748v-5.088l0.008-0.025
		c5.789-3.75,10.042-8.827,11.875-16.248c1.032,0.166,2.077,0.314,3.114,0.438c0.125,0.014,0.261,0.026,0.384,0.04
		c0.993,0.115,1.991,0.21,2.981,0.277l-4.603,16.351l-3.293,0.051l2.793,1.725l-0.686,2.424c0.498-0.652,0.949-1.32,1.396-1.984
		l3.723,2.02l-2.303-4.816H81.7c2.891-4.404,4.395-10.039,3.801-16c0.027,0.004,0.062,0.143,0.096,0.146
		c1.146,0.064,2.291,0.162,3.432,0.158c0.138,0,0.269,0.037,0.404,0.035c1.137-0.019,2.264-0.041,3.381-0.127
		c0.138-0.01,0.271-0.014,0.402-0.022c1.117-0.095,2.219-0.22,3.312-0.394c0.135-0.022,0.27-0.047,0.406-0.07
		c1.086-0.184,2.157-0.402,3.215-0.668c0.135-0.036,0.268-0.073,0.399-0.107c1.054-0.277,2.089-0.6,3.106-0.968
		c0.132-0.048,0.261-0.099,0.394-0.149c1.013-0.375,2.009-0.806,2.979-1.289c0.129-0.062,0.258-0.125,0.383-0.193
		c0.965-0.49,1.91-1.031,2.83-1.625c0.121-0.08,0.248-0.161,0.369-0.242c0.91-0.609,1.797-1.273,2.664-1.991
		c0.115-0.091,0.233-0.192,0.352-0.294c0.854-0.734,1.684-1.521,2.482-2.373c0.057-0.064,0.129-0.111,0.186-0.18
		c-0.006,0-0.01,0-0.014,0c2.418-2.605,4.201-5.745,6.012-9.533c2.096-4.4,2.902-6.296,3.734-11.9
		C126.028,46.659,138.407,44.233,137.925,43.793z"/>
	<path fill="none" stroke="#422B2C" stroke-width="3.4665" stroke-miterlimit="10" d="M21.499,40.374
		c-4.963-4.178-10.34-4.072-12.57-0.224c-1.439,2.485-1.195,5.914,0.48,9.161c-4.268,0.873-7.248,3.839-7.525,7.671
		c-0.359,4.986,3.982,9.514,10.406,10.188c10.771,1.123,20.43-6.969,20.43-6.969S29.802,47.371,21.499,40.374z"/>
</g>
</svg>
