<?xml version="1.0" encoding="utf-8"?>
<!-- Generator: Adobe Illustrator 16.0.0, SVG Export Plug-In . SVG Version: 6.00 Build 0)  -->
<!DOCTYPE svg PUBLIC "-//W3C//DTD SVG 1.1//EN" "http://www.w3.org/Graphics/SVG/1.1/DTD/svg11.dtd">
<svg version="1.1" id="Capa_1" xmlns="http://www.w3.org/2000/svg" xmlns:xlink="http://www.w3.org/1999/xlink" x="0px" y="0px"
	 width="152.954px" height="148.229px" viewBox="0 0 152.954 148.229" enable-background="new 0 0 152.954 148.229"
	 xml:space="preserve">
<g>
	<path fill="#472728" d="M148.918,59.858c-4.459-4.634-12.247-7.086-22.533-7.086c-7.626,0-16.443,1.311-26.208,3.898
		C83.46,61.099,71.807,68.874,64.459,75.337c-0.395-0.246-0.809-0.469-1.242-0.668c-0.421-0.192-0.849-0.361-1.293-0.496
		c0.111-9.787-1.59-23.691-9.13-39.253C42.044,12.731,29.263,0.005,17.723,0c-3.664,0-6.994,1.302-9.638,3.76
		c-7.807,7.272-8.163,25.615-7.84,45.377c0.016,1.095,0.033,2.133,0.042,3.099c0.13,10.544,4.049,17.964,10.502,24.227
		c-0.934,0.521-1.749,1.102-2.447,1.751c-5.32,4.957-9.146,18.233-8.197,28.424c0.73,7.854,4.036,13.853,9.56,17.349
		c2.922,1.852,6.216,2.789,9.792,2.789c3.578,0,7.15-0.97,10.544-2.487c-0.857,4.045-1.265,8.146-0.288,10.753
		c0.713,1.907,2.081,3.402,3.848,4.206c0.911,0.423,1.931,0.646,2.988,0.646c3.441,0,6.413-2.128,10.636-7.738
		c2.404,7.966,6.993,13.267,13.496,15.251c1.784,0.547,3.64,0.824,5.514,0.824c15.562,0,29.714-19.871,30.081-29.624
		c0.036-0.951-0.051-1.948-0.265-2.993c1.297,0.117,2.548,0.171,3.777,0.171c8.109,0,14.919-2.544,21.438-8.005
		c0.766-0.643,1.587-1.328,2.458-2.053c15.154-12.617,28.792-24.822,29.217-35.451C153.097,66.355,151.708,62.756,148.918,59.858z"
		/>
	<g>
		<g>
			<path fill="#DE00DB" d="M54.059,86.963c0,0,6.09-21.629-7.081-48.806C33.821,10.994,19.357,2.516,12.485,8.912
				c-6.88,6.415-5.888,31.167-5.735,43.669c0.151,12.505,6.529,19.616,18.911,27.607C38.033,88.19,53.061,92.73,54.059,86.963z"/>
			<path fill="#ED497E" d="M38.971,80.033c0,0-21.173-1.364-26.237,3.337c-5.067,4.724-11.347,28.129,0.425,35.578
				c11.775,7.459,29.891-10.184,36.994-20.008C57.25,89.114,54.226,81.153,38.971,80.033z"/>
			<path fill="#DE00DB" d="M60.198,89.788c0,0,12.444-18.721,41.636-26.451c29.182-7.729,45.023-2.291,44.655,7.102
				c-0.375,9.391-19.792,24.766-29.371,32.812c-9.589,8.031-19.137,7.836-33.267,3.645C69.727,102.727,56.485,94.303,60.198,89.788z
				"/>
			<path fill="#ED497E" d="M75.284,96.7c0,0,14.848,15.17,14.574,22.086c-0.258,6.905-13.921,26.936-27.254,22.867
				c-13.335-4.072-11.75-29.314-8.926-41.106S64.504,85.876,75.284,96.7z"/>
		</g>
		<path fill="#734A1E" d="M48.374,118.861c-1.264,2.735-9.705,16.038-12.098,14.928l0,0c-2.386-1.085,2.193-16.164,3.447-18.911
			L53.93,83.943c1.257-2.743,4.214-4.08,6.609-2.974l0,0c2.383,1.087,3.299,4.202,2.031,6.947L48.374,118.861z"/>
	</g>
</g>
</svg>
