<?xml version="1.0" encoding="utf-8"?>
<!-- Generator: Adobe Illustrator 16.0.0, SVG Export Plug-In . SVG Version: 6.00 Build 0)  -->
<!DOCTYPE svg PUBLIC "-//W3C//DTD SVG 1.1//EN" "http://www.w3.org/Graphics/SVG/1.1/DTD/svg11.dtd">
<svg version="1.1" id="Capa_1" xmlns="http://www.w3.org/2000/svg" xmlns:xlink="http://www.w3.org/1999/xlink" x="0px" y="0px"
	 width="16px" height="16px" viewBox="0 0 16 16" enable-background="new 0 0 16 16" xml:space="preserve">
<g>
	<g>
		<path fill="#EFCE36" d="M8.044,0.502c4.165,0,7.541,3.376,7.541,7.542c0,4.165-3.375,7.541-7.541,7.541
			c-4.166,0-7.542-3.376-7.542-7.541C0.503,3.878,3.878,0.502,8.044,0.502"/>
	</g>
	<g>
		<path fill="#472728" d="M8.044,16c-4.387,0-7.957-3.57-7.957-7.957c0-4.388,3.569-7.957,7.957-7.957
			C12.431,0.086,16,3.655,16,8.043C16,12.43,12.431,16,8.044,16z M8.044,0.917c-3.93,0-7.126,3.196-7.126,7.126
			c0,3.929,3.197,7.125,7.126,7.125c3.929,0,7.125-3.196,7.125-7.125C15.169,4.113,11.973,0.917,8.044,0.917z"/>
	</g>
</g>
<g>
	<g>
		<path fill="#472728" d="M8.19,12.851c-0.723,0-1.086-0.584-1.086-1.306V4.542c0-0.722,0.363-1.307,1.086-1.307
			c0.722,0,1.084,0.585,1.084,1.307v7.003C9.275,12.266,8.912,12.851,8.19,12.851"/>
	</g>
	<g>
		<circle fill="#FFFFFF" cx="10.205" cy="4.169" r="1.659"/>
	</g>
</g>
</svg>
