<?xml version="1.0" encoding="utf-8"?>
<!-- Generator: Adobe Illustrator 19.1.0, SVG Export Plug-In . SVG Version: 6.00 Build 0)  -->
<svg version="1.1" id="Capa_1" xmlns="http://www.w3.org/2000/svg" xmlns:xlink="http://www.w3.org/1999/xlink" x="0px" y="0px"
	 viewBox="0 0 1024 432.8" style="enable-background:new 0 0 1024 432.8;" xml:space="preserve">
<style type="text/css">
	.st0{fill:none;}
	.st1{clip-path:url(#SVGID_2_);}
	.st2{fill:#916633;}
	.st3{fill:#66B32A;}
	.st4{opacity:0.1;}
	.st5{fill:#547428;}
	.st6{fill:#E06E37;}
	.st7{opacity:0.6;fill:#A67339;}
	.st8{opacity:0.3;fill:#734A1E;}
	.st9{fill:#7EAC63;}
	.st10{fill:#709F4C;}
	.st11{fill:#68431C;}
	.st12{clip-path:url(#SVGID_2_);fill:none;stroke:#472728;stroke-width:2.1337;stroke-linejoin:round;stroke-miterlimit:10;}
	.st13{clip-path:url(#SVGID_2_);fill:none;stroke:#472728;stroke-width:1.4224;stroke-linejoin:round;stroke-miterlimit:10;}
</style>
<path class="st0" d="M515.4,901.6c21,0,41.8-0.8,62.2-0.8H453.3C473.7,900.8,494.4,901.6,515.4,901.6z"/>
<g>
	<g>
		<defs>
			<rect id="SVGID_1_" y="19.8" width="1024" height="413"/>
		</defs>
		<clipPath id="SVGID_2_">
			<use xlink:href="#SVGID_1_"  style="overflow:visible;"/>
		</clipPath>
		<g class="st1">
			<rect y="110.8" class="st2" width="1024" height="322"/>
			<g>
				<g>
					<g>
						<path class="st3" d="M115.6,55c0,0-10.1,0.8-15.4,6.9c-4.4,5-1,11.7-1,11.7s7.2,2.5,11.5-2.5C116,65.1,115.6,55,115.6,55z"/>
						<path class="st4" d="M115.6,55L99.2,73.6c0,0,7.2,2.5,11.5-2.5C116,65.1,115.6,55,115.6,55z"/>
					</g>
					<path class="st5" d="M89.6,85c-0.5,0.5-1.4,0.6-1.9,0.1l0,0c-0.5-0.5-0.6-1.4-0.1-1.9l12.4-12.7c0.5-0.5,1.4-0.6,1.9-0.1l0,0
						c0.5,0.5,0.6,1.4,0.1,1.9L89.6,85z"/>
				</g>
				<g>
					<g>
						<path class="st3" d="M62.5,32.2c0,0,9.8,0.8,14.9,6.7c4.2,4.8,1,11.4,1,11.4s-7,2.4-11.2-2.4C62,42.1,62.5,32.2,62.5,32.2z"/>
						<path class="st4" d="M62.5,32.2l15.9,18.1c0,0-7,2.4-11.2-2.4C62,42.1,62.5,32.2,62.5,32.2z"/>
					</g>
					<path class="st5" d="M87.7,61.4c0.5,0.5,1.3,0.6,1.9,0l0,0c0.5-0.5,0.6-1.3,0.1-1.9l-12-12.3c-0.5-0.5-1.3-0.6-1.9-0.1l0,0
						c-0.5,0.5-0.6,1.3-0.1,1.9L87.7,61.4z"/>
				</g>
				<g>
					<g>
						<path class="st3" d="M67.9,61.5c0,0,6.3-0.5,10.1,2.8c3.2,2.6,1.7,7.1,1.7,7.1s-4.2,2.2-7.3-0.4
							C68.6,67.8,67.9,61.5,67.9,61.5z"/>
						<path class="st4" d="M67.9,61.5l11.9,9.9c0,0-4.2,2.2-7.3-0.4C68.6,67.8,67.9,61.5,67.9,61.5z"/>
					</g>
					<path class="st5" d="M86.8,77.6c0.4,0.3,0.9,0.2,1.2-0.2l0,0c0.3-0.4,0.2-0.9-0.2-1.2l-8.9-6.6c-0.4-0.3-0.9-0.2-1.2,0.2l0,0
						c-0.3,0.4-0.2,0.9,0.2,1.2L86.8,77.6z"/>
				</g>
				<g>
					<g>
						<path class="st3" d="M110.5,41.7c0,0-6.8-0.8-11.1,2.4c-3.6,2.7-2.3,7.6-2.3,7.6s4.4,2.6,8,0
							C109.4,48.4,110.5,41.7,110.5,41.7z"/>
						<path class="st4" d="M110.5,41.7l-13.4,10c0,0,4.4,2.6,8,0C109.4,48.4,110.5,41.7,110.5,41.7z"/>
					</g>
					<path class="st5" d="M89.2,58c-0.4,0.3-1,0.2-1.3-0.2l0,0c-0.3-0.4-0.2-1,0.2-1.3l9.9-6.7c0.4-0.3,1-0.2,1.3,0.2l0,0
						c0.3,0.4,0.2,1-0.2,1.3L89.2,58z"/>
				</g>
				<g>
					<path class="st3" d="M87.1,21.7c0,0-5.1,6.5-4.7,13.3c0.3,5.6,5.8,7.8,5.8,7.8s5.2-2.7,5-8.4C92.8,27.6,87.1,21.7,87.1,21.7z"
						/>
					<path class="st4" d="M87.1,21.7l1.1,21.2c0,0,5.2-2.7,5-8.4C92.8,27.6,87.1,21.7,87.1,21.7z"/>
				</g>
				<path class="st5" d="M89.3,53.3c0,0.6-0.5,1.1-1,1.1l0,0c-0.6,0-1.1-0.5-1.1-1l0-13.6c0-0.6,0.5-1.1,1-1.1l0,0
					c0.6,0,1.1,0.5,1.1,1L89.3,53.3z"/>
				<path class="st5" d="M90.2,98.2V51.4c0-1-0.8-1.9-1.9-1.9c-1,0-1.9,0.8-1.9,1.9v46.8H90.2z"/>
				<path class="st6" d="M99.1,57.1c-0.4,1.7-2,2.8-3.7,2.4c-1.7-0.3-2.8-2-2.4-3.7c0.4-1.7,2-2.8,3.7-2.4
					C98.4,53.8,99.5,55.4,99.1,57.1z"/>
				<circle class="st6" cx="80" cy="76.4" r="3.1"/>
				<circle class="st6" cx="79.7" cy="56.8" r="3.1"/>
				<circle class="st6" cx="99.2" cy="79.6" r="3.1"/>
			</g>
			<circle class="st7" cx="96.9" cy="137.2" r="11.1"/>
			<path class="st8" d="M292.1,153.7c0,13.4-10.8,24.9-24.2,24.9c-13.4,0-24.2-11.6-24.2-24.9c0-13.4,10.8-24.2,24.2-24.2
				C281.2,129.5,292.1,140.3,292.1,153.7z"/>
			<circle class="st8" cx="199.5" cy="138.8" r="8"/>
			<path class="st8" d="M854.3,167c0,3.3-2.7,6-6,6c-3.3,0-6-2.7-6-6c0-3.3,2.7-6,6-6C851.6,161,854.3,163.7,854.3,167z"/>
			<circle class="st8" cx="147.2" cy="166.3" r="15.3"/>
			<circle class="st7" cx="157.9" cy="116.7" r="18.7"/>
			<circle class="st7" cx="360.6" cy="156.1" r="25.1"/>
			<path class="st7" d="M999.8,141.1c0,8.9-7.2,16.2-16.2,16.2c-8.9,0-16.2-7.2-16.2-16.2c0-8.9,7.2-16.2,16.2-16.2
				C992.5,125,999.8,132.2,999.8,141.1z"/>
			<circle class="st7" cx="371.3" cy="163.6" r="14.1"/>
			<circle class="st7" cx="918.5" cy="155.4" r="8.6"/>
			<circle class="st7" cx="65.5" cy="141.2" r="8.6"/>
			<circle class="st7" cx="193.7" cy="138.1" r="4.8"/>
			<path class="st7" d="M258.5,159.7c0,6.6-5.4,12-12,12c-6.6,0-12-5.4-12-12c0-6.6,5.4-12,12-12C253.2,147.7,258.5,153,258.5,159.7
				z"/>
			<g>
				<path class="st9" d="M1204.2,89c0,14.4-11.7,26.1-26.1,26.1H-2c-14.4,0-26.1-11.7-26.1-26.1l0,0C-28.1,74.6-16.4,63-2,63h1180.2
					C1192.6,63,1204.2,74.6,1204.2,89L1204.2,89z"/>
				<path class="st10" d="M-2,115.1h1180.2c14.4,0,26.1-11.7,26.1-26.1H-28.1C-28.1,103.4-16.4,115.1-2,115.1z"/>
			</g>
			<path class="st11" d="M173.9,179.3"/>
			<circle class="st8" cx="374.9" cy="133.2" r="3.2"/>
			<circle class="st8" cx="258.4" cy="129.2" r="3.2"/>
			<path class="st8" d="M840.1,164.6c0,1.8-1.4,3.2-3.2,3.2c-1.8,0-3.2-1.4-3.2-3.2c0-1.8,1.4-3.2,3.2-3.2
				C838.7,161.4,840.1,162.9,840.1,164.6z"/>
			<circle class="st8" cx="62.9" cy="138.1" r="3.2"/>
			<circle class="st7" cx="880.5" cy="158.2" r="3.2"/>
			<circle class="st7" cx="326.7" cy="136.5" r="3.2"/>
			<circle class="st7" cx="120" cy="144.5" r="3.2"/>
			<circle class="st7" cx="151.4" cy="133.2" r="3.2"/>
			<path class="st11" d="M149.9,181.8"/>
			<circle class="st7" cx="482" cy="165" r="11.1"/>
			<path class="st8" d="M677.2,181.5c0,13.4-10.8,24.9-24.2,24.9s-24.2-11.6-24.2-24.9c0-13.4,10.8-24.2,24.2-24.2
				S677.2,168.1,677.2,181.5z"/>
			<circle class="st8" cx="584.6" cy="166.5" r="8"/>
			<circle class="st8" cx="532.3" cy="194" r="15.3"/>
			<circle class="st7" cx="543" cy="144.4" r="18.7"/>
			<circle class="st7" cx="745.7" cy="183.9" r="25.1"/>
			<circle class="st7" cx="756.4" cy="191.3" r="14.1"/>
			<circle class="st7" cx="450.6" cy="168.9" r="8.6"/>
			<circle class="st7" cx="578.8" cy="165.9" r="4.8"/>
			<circle class="st7" cx="631.7" cy="187.4" r="12"/>
			<path class="st11" d="M559,207"/>
			<path class="st8" d="M763.3,161c0,1.8-1.4,3.2-3.2,3.2c-1.8,0-3.2-1.4-3.2-3.2c0-1.8,1.4-3.2,3.2-3.2
				C761.8,157.7,763.3,159.2,763.3,161z"/>
			<circle class="st8" cx="643.5" cy="156.9" r="3.2"/>
			<circle class="st8" cx="448" cy="165.8" r="3.2"/>
			<circle class="st7" cx="711.8" cy="164.2" r="3.2"/>
			<circle class="st7" cx="505.1" cy="172.2" r="3.2"/>
			<path class="st7" d="M539.7,161c0,1.8-1.4,3.2-3.2,3.2s-3.2-1.4-3.2-3.2c0-1.8,1.4-3.2,3.2-3.2S539.7,159.2,539.7,161z"/>
			<path class="st11" d="M535,209.6"/>
			<circle class="st7" cx="941.4" cy="245.3" r="11.1"/>
			<path class="st8" d="M746.1,261.8c0,13.4,10.8,24.9,24.2,24.9s24.2-11.6,24.2-24.9c0-13.4-10.8-24.2-24.2-24.2
				S746.1,248.4,746.1,261.8z"/>
			<circle class="st8" cx="838.7" cy="246.9" r="8"/>
			<path class="st8" d="M186.1,250.6c0,3.3,2.7,6,6,6c3.3,0,6-2.7,6-6c0-3.3-2.7-6-6-6C188.8,244.6,186.1,247.3,186.1,250.6z"/>
			<circle class="st8" cx="891" cy="274.4" r="15.3"/>
			<circle class="st7" cx="880.3" cy="224.8" r="18.7"/>
			<circle class="st7" cx="677.6" cy="264.2" r="25.1"/>
			<circle class="st7" cx="54.6" cy="249.3" r="16.2"/>
			<circle class="st7" cx="666.9" cy="271.7" r="14.1"/>
			<circle class="st7" cx="121.8" cy="239" r="8.6"/>
			<circle class="st7" cx="972.7" cy="249.3" r="8.6"/>
			<circle class="st7" cx="844.5" cy="246.2" r="4.8"/>
			<circle class="st7" cx="791.6" cy="267.8" r="12"/>
			<path class="st11" d="M864.3,287.4"/>
			<circle class="st8" cx="663.3" cy="241.3" r="3.2"/>
			<circle class="st8" cx="779.8" cy="237.3" r="3.2"/>
			<path class="st8" d="M200.2,248.2c0,1.8,1.4,3.2,3.2,3.2c1.8,0,3.2-1.4,3.2-3.2c0-1.8-1.4-3.2-3.2-3.2
				C201.7,245,200.2,246.4,200.2,248.2z"/>
			<circle class="st8" cx="975.3" cy="246.2" r="3.2"/>
			<circle class="st7" cx="159.8" cy="241.8" r="3.2"/>
			<circle class="st8" cx="595.4" cy="287.8" r="6"/>
			<circle class="st7" cx="457.9" cy="286.5" r="16.2"/>
			<circle class="st7" cx="525.1" cy="276.2" r="8.6"/>
			<path class="st8" d="M603.5,285.4c0,1.8,1.4,3.2,3.2,3.2c1.8,0,3.2-1.4,3.2-3.2c0-1.8-1.4-3.2-3.2-3.2
				C604.9,282.2,603.5,283.6,603.5,285.4z"/>
			<circle class="st7" cx="563.1" cy="279" r="3.2"/>
			<circle class="st7" cx="711.5" cy="244.6" r="3.2"/>
			<circle class="st7" cx="918.2" cy="252.6" r="3.2"/>
			<circle class="st7" cx="886.8" cy="241.3" r="3.2"/>
			<path class="st11" d="M888.3,289.9"/>
			<circle class="st7" cx="880.6" cy="359.7" r="11.1"/>
			<path class="st8" d="M357.8,241.6c0,13.4,10.8,24.9,24.2,24.9c13.4,0,24.2-11.6,24.2-24.9s-10.8-24.2-24.2-24.2
				C368.7,217.3,357.8,228.2,357.8,241.6z"/>
			<circle class="st8" cx="778" cy="361.2" r="8"/>
			<circle class="st8" cx="830.3" cy="388.8" r="15.3"/>
			<circle class="st7" cx="819.5" cy="339.1" r="18.7"/>
			<circle class="st7" cx="275.4" cy="251.4" r="25.1"/>
			<circle class="st7" cx="264.7" cy="258.9" r="14.1"/>
			<circle class="st7" cx="911.9" cy="363.7" r="8.6"/>
			<circle class="st7" cx="783.7" cy="360.6" r="4.8"/>
			<circle class="st7" cx="403.3" cy="247.5" r="12"/>
			<path class="st11" d="M803.6,401.8"/>
			<path class="st8" d="M257.9,228.5c0,1.8,1.4,3.2,3.2,3.2c1.8,0,3.2-1.4,3.2-3.2c0-1.8-1.4-3.2-3.2-3.2
				C259.3,225.3,257.9,226.8,257.9,228.5z"/>
			<circle class="st8" cx="391.5" cy="217" r="3.2"/>
			<circle class="st8" cx="914.5" cy="360.5" r="3.2"/>
			<circle class="st7" cx="309.3" cy="231.8" r="3.2"/>
			<path class="st8" d="M128.5,343.4c0,3.3,2.7,6,6,6c3.3,0,6-2.7,6-6c0-3.3-2.7-6-6-6C131.2,337.4,128.5,340.1,128.5,343.4z"/>
			<path class="st8" d="M142.6,341c0,1.8,1.4,3.2,3.2,3.2c1.8,0,3.2-1.4,3.2-3.2c0-1.8-1.4-3.2-3.2-3.2
				C144.1,337.8,142.6,339.2,142.6,341z"/>
			<path class="st8" d="M307.2,334.5c0,9.5,7.7,17.7,17.2,17.7c9.5,0,17.2-8.2,17.2-17.7c0-9.5-7.7-17.2-17.2-17.2
				C314.9,317.3,307.2,325,307.2,334.5z"/>
			<circle class="st7" cx="217.8" cy="344.2" r="25.1"/>
			<circle class="st7" cx="207.1" cy="351.7" r="14.1"/>
			<circle class="st7" cx="251.7" cy="324.6" r="3.2"/>
			<circle class="st7" cx="857.5" cy="367" r="3.2"/>
			<circle class="st7" cx="826" cy="355.7" r="3.2"/>
			<path class="st11" d="M827.5,404.3"/>
			<circle class="st7" cx="696" cy="340.3" r="11.1"/>
			<path class="st8" d="M500.8,356.8c0,13.4,10.8,24.9,24.2,24.9c13.4,0,24.2-11.6,24.2-24.9c0-13.4-10.8-24.2-24.2-24.2
				C511.6,332.6,500.8,343.4,500.8,356.8z"/>
			<circle class="st8" cx="645.7" cy="369.3" r="15.3"/>
			<circle class="st7" cx="432.2" cy="359.2" r="25.1"/>
			<circle class="st7" cx="421.5" cy="366.6" r="14.1"/>
			<circle class="st7" cx="727.3" cy="344.3" r="8.6"/>
			<circle class="st7" cx="546.3" cy="362.7" r="12"/>
			<path class="st11" d="M619,382.3"/>
			<path class="st11" d="M642.9,384.9"/>
			<circle class="st7" cx="574.1" cy="434.1" r="18.7"/>
			<circle class="st7" cx="66.3" cy="388.6" r="18.7"/>
			<path class="st7" d="M577.5,450.7c0,1.8,1.4,3.2,3.2,3.2c1.8,0,3.2-1.4,3.2-3.2c0-1.8-1.4-3.2-3.2-3.2
				C578.9,447.4,577.5,448.9,577.5,450.7z"/>
		</g>
		<path class="st12" d="M1147.6,87.6c-0.1-13.6-11.1-24.6-24.8-24.6H113.3c1-4.1,0.9-7.7,0.9-7.7s-9.6,0.8-14.6,6.5
			c-0.3,0.4-0.6,0.8-0.9,1.2h-8.8v-5.4l3-2c-0.1,0.2-0.1,0.3-0.2,0.5c-0.3,1.6,0.7,3.2,2.3,3.5c1.6,0.3,3.2-0.7,3.5-2.3
			c0.3-1.6-0.7-3.2-2.3-3.5c-0.2,0-0.4-0.1-0.6-0.1l1.8-1.2c1.4,0.6,4.3,1.4,6.8-0.4c4.1-3.1,5.2-9.5,5.2-9.5s-6.4-0.8-10.6,2.3
			c-2.4,1.8-2.5,4.6-2.3,6.1l-6.5,4.4v-3.6c0-0.6-0.3-1.1-0.7-1.4l0-7.5c1.4-1.1,3.8-3.5,3.6-7.2c-0.3-6.5-5.7-12.1-5.7-12.1
			s-4.8,6.2-4.5,12.7c0.2,4,3.1,6.1,4.6,7l0,7.1c-0.5,0.3-0.8,0.9-0.8,1.5v4.7l-7-7.2c0.7-2.1,1.3-6.1-1.5-9.3
			c-4.9-5.6-14.2-6.3-14.2-6.3s-0.4,9.3,4.5,14.9c3,3.4,7.3,3,9.4,2.6l2.9,3c-0.1,0-0.3,0-0.5,0c-1.6,0-2.9,1.3-2.9,2.9
			c0,1.6,1.3,2.9,2.9,2.9c1.6,0,2.9-1.3,2.9-2.9c0-0.1,0-0.3,0-0.4l3.4,3.5V63h-9.6c-3.6-1.8-7.9-1.5-7.9-1.5s0.1,0.6,0.3,1.5H-2.5"
			/>
		<path class="st13" d="M1147.6,87.7"/>
	</g>
</g>
</svg>
