<?xml version="1.0" encoding="utf-8"?>
<!-- Generator: Adobe Illustrator 19.1.0, SVG Export Plug-In . SVG Version: 6.00 Build 0)  -->
<svg version="1.1" id="Capa_1" xmlns="http://www.w3.org/2000/svg" xmlns:xlink="http://www.w3.org/1999/xlink" x="0px" y="0px"
	 viewBox="0 0 220.6 95.2" style="enable-background:new 0 0 220.6 95.2;" xml:space="preserve">
<style type="text/css">
	.st0{fill:#472728;}
	.st1{fill:#CCCCCC;}
	.st2{fill:#FFFFFF;}
	.st3{opacity:0.6;}
	.st4{fill:#FFDF11;}
	.st5{fill:#5C0000;}
	.st6{fill:#33CC33;}
	.st7{fill:#FF0000;}
</style>
<g>
	<g>
		<g>
			<path class="st0" d="M61.3,42c-2.6,0-4.9-1.1-6.9-3.2c-0.7-0.8-1.4-1.7-1.8-2.6c-1.6-2.1-2.5-4.7-2.5-7.7c0-3.4,1.1-6.2,3.1-8.4
				c2.1-2.2,4.5-3.3,7.3-3.3c2.6,0,4.7,0.8,6.4,2.5V9c0-0.2,0.1-0.3,0.3-0.3h6.2c0.2,0,0.3,0.1,0.3,0.3v30.8c0,0.1,0,0.1,0,0.2
				l-0.4,1.5c0,0.1-0.1,0.2-0.3,0.2h-5.3l-0.5,0c-0.1,0-0.3-0.1-0.3-0.3l0-1.4c-0.1,0-0.1-0.1-0.1-0.2v-0.2
				C65.2,41.2,63.4,42,61.3,42z M57.9,32.1c0.2,0.3,0.4,0.5,0.6,0.8c1,1.1,2.2,1.6,3.6,1.6c1.4,0,2.5-0.5,3.5-1.6
				c0.8-0.9,1.3-2.1,1.4-3.4c-0.2-0.9-0.6-1.8-1.2-2.5c-0.9-1.1-2-1.6-3.3-1.6c-1.3,0-2.4,0.5-3.3,1.6c-0.9,1.1-1.4,2.4-1.4,4
				C57.8,31.4,57.8,31.8,57.9,32.1z"/>
			<path class="st0" d="M73.5,9v30.8h-0.2v0.1h0.2l-0.4,1.5h-0.2h-5l-0.5,0l0-1.6h-0.1v-0.9c-1.8,1.8-3.6,2.8-6,2.8
				c-2.5,0-4.8-1-6.7-3.1c-0.7-0.8-1.3-1.6-1.8-2.6c-1.6-2.1-2.5-4.6-2.5-7.6c0-3.3,1-6.1,3-8.2c2-2.1,4.4-3.2,7.1-3.2
				c2.7,0,5,1,6.7,2.9V9H73.5 M62.1,34.8c1.4,0,2.7-0.6,3.7-1.7c0.8-1,1.3-2.1,1.5-3.6c-0.2-1-0.6-2-1.3-2.7
				c-0.9-1.1-2.1-1.7-3.5-1.7c-1.4,0-2.5,0.6-3.5,1.7c-1,1.1-1.5,2.5-1.5,4.2c0,0.4,0,0.8,0.1,1.2c0.2,0.3,0.4,0.6,0.7,0.9
				C59.4,34.3,60.7,34.8,62.1,34.8 M73.5,8.5h-6.2c-0.3,0-0.5,0.2-0.5,0.5v9.6c-1.7-1.4-3.7-2.1-6.1-2.1c-2.9,0-5.4,1.1-7.5,3.4
				c-2.1,2.2-3.2,5.1-3.2,8.6c0,3,0.9,5.7,2.5,7.9c0.5,0.9,1.1,1.8,1.8,2.6c2,2.2,4.5,3.3,7.1,3.3c2.1,0,3.8-0.7,5.5-2.1
				c0,0,0,0,0,0l0,1.3c0,0.3,0.2,0.5,0.5,0.5l0.5,0l5,0h0.2c0.3,0,0.5-0.2,0.5-0.4L74,40c0-0.1,0-0.2,0-0.3V9
				C74,8.7,73.8,8.5,73.5,8.5L73.5,8.5z M58.2,32c0-0.3-0.1-0.7-0.1-1c0-1.6,0.4-2.8,1.3-3.8c0.9-1,1.9-1.5,3.1-1.5
				c1.2,0,2.2,0.5,3,1.5c0.6,0.7,1,1.5,1.1,2.4c-0.1,1.3-0.6,2.3-1.3,3.2c-0.9,1-2,1.5-3.3,1.5c-1.3,0-2.4-0.5-3.4-1.6
				C58.5,32.5,58.3,32.3,58.2,32L58.2,32z"/>
		</g>
		<g>
			<path class="st0" d="M119.7,41.9c-4.3,0-7.8-1.3-10.5-4c-2.4-2.3-3.7-5.1-4.1-8.5c-0.4-1.3-0.5-2.7-0.5-4.3c0-4.4,1.5-8.1,4.5-11
				c3-2.9,6.7-4.4,11.1-4.4c4.8,0,8.9,1.8,12.1,5.4c0,0,0.1,0,0.1,0.1c0,0.1,0.1,0.2,0.1,0.2c0,0.1,0,0.2,0,0.2l-0.1,0.1l-1.4,3.1
				l-3.8,4.3c-0.1,0.1-0.1,0.1-0.2,0.1c0,0,0,0,0,0c-0.1,0-0.2,0-0.2-0.1c-1.8-2.3-4.2-3.4-6.9-3.4c-2.2,0-4.1,0.7-5.6,2.1
				c-1.3,1.1-2,2.6-2.2,4.4c0.2,2,1,3.7,2.3,5c1.6,1.6,3.5,2.4,5.8,2.4c3.1,0,5.7-1.2,7.6-3.7c0-0.1,0.1-0.1,0.2-0.1c0,0,0,0,0,0
				c0.1,0,0.1,0,0.2,0.1l4.1,4.2c0.1,0,0.1,0.1,0.1,0.2c0,0.1,0,0.2,0,0.3l-1.6,1.9c0,0,0,0-0.1,0.1
				C127.6,40.1,123.9,41.9,119.7,41.9z"/>
			<path class="st0" d="M120.2,10.1c4.7,0,8.7,1.8,11.9,5.3h0.1l0,0.1c0,0,0,0,0,0.1l-0.1,0.1l-1.4,3.1l-3.8,4.3
				c-1.9-2.4-4.3-3.6-7.1-3.6c-2.3,0-4.2,0.7-5.8,2.2c-1.3,1.2-2.1,2.7-2.3,4.6c0.2,2.1,1,3.9,2.4,5.3c1.6,1.6,3.6,2.5,6,2.5
				c3.2,0,5.8-1.3,7.8-3.8l4.1,4.2l0.1,0l-1.6,1.9h0c-3.1,3.5-6.7,5.2-10.8,5.2c-4.2,0-7.6-1.2-10.3-3.9c-2.3-2.3-3.6-5-4-8.3
				c-0.4-1.3-0.5-2.7-0.5-4.2c0-4.3,1.5-7.9,4.4-10.8C112.3,11.5,115.9,10.1,120.2,10.1 M120.2,9.5c-4.4,0-8.2,1.5-11.3,4.5
				c-3.1,3-4.6,6.7-4.6,11.2c0,1.5,0.2,3,0.5,4.3c0.3,3.4,1.7,6.3,4.1,8.6c2.7,2.7,6.3,4,10.7,4c4.3,0,8-1.8,11.2-5.3
				c0,0,0.1,0,0.1-0.1l1.6-1.9c0.1-0.1,0.2-0.3,0.1-0.5c0-0.2-0.2-0.3-0.3-0.3l-4-4.2c-0.1-0.1-0.2-0.2-0.4-0.2c0,0,0,0,0,0
				c-0.2,0-0.3,0.1-0.4,0.2c-1.9,2.4-4.4,3.6-7.4,3.6c-2.2,0-4-0.8-5.6-2.3c-1.3-1.3-2-2.9-2.2-4.9c0.2-1.7,0.9-3.1,2.1-4.2
				c1.5-1.4,3.3-2.1,5.5-2.1c2.7,0,4.9,1.1,6.7,3.3c0.1,0.1,0.3,0.2,0.4,0.2c0,0,0,0,0,0c0.2,0,0.3-0.1,0.4-0.2l3.8-4.3
				c0,0,0.1-0.1,0.1-0.1l1.4-3.1l0.1-0.1c0.1-0.1,0.2-0.3,0.1-0.5c0-0.1,0-0.2-0.1-0.3c-0.1-0.1-0.2-0.2-0.3-0.2
				C129.2,11.3,125.1,9.5,120.2,9.5L120.2,9.5z"/>
		</g>
		<g>
			<path class="st0" d="M27.1,41.6c-0.1,0-0.2,0-0.2-0.1l-7.7-10.4l-2,2.3v6.2c0,0,0,0,0.1,0.1c0.1,0.1,0.1,0.2,0,0.3l-0.6,1.5
				c0,0.1-0.1,0.2-0.3,0.2h-6c-0.2,0-0.3-0.1-0.3-0.3V10.8c0-0.2,0.1-0.3,0.3-0.3h6.5c0.2,0,0.3,0.1,0.3,0.3V22l10.5-11.4
				c0.1-0.1,0.1-0.1,0.2-0.1H36c0.1,0,0.2,0.1,0.3,0.2c0,0.1,0,0.2,0,0.2c0,0,0,0.1,0,0.1l-1.9,3.6l-9,9.9c1.1,1.5,2.7,3.7,4.8,6.7
				l2.1,2.9c1.7,2.4,3,4.2,4,5.5c0.1,0.1,0.1,0.2,0,0.3c0,0-0.1,0.1-0.1,0.1c0,0-1.8,1.5-1.8,1.5c0,0-0.1,0.1-0.2,0.1H27.1z"/>
			<path class="st0" d="M36,10.8l-0.1,0.1H36l-1.9,3.6l-9.1,10c1.1,1.5,2.7,3.8,4.9,6.9c2.7,3.8,4.7,6.7,6.1,8.4h-1.3l1.3,0
				l-1.8,1.5h-4.4h0h-2.6l-7.9-10.6l-2.3,2.6v6.5h-0.3v0l0.4,0l-0.6,1.5h-6v-1.6v-29h6.5v11.9l11-11.9H36 M36,10.2H28
				c-0.2,0-0.3,0.1-0.4,0.2L17.5,21.3V10.8c0-0.3-0.2-0.5-0.5-0.5h-6.5c-0.3,0-0.5,0.2-0.5,0.5v29v1.6c0,0.3,0.2,0.5,0.5,0.5h6
				c0.2,0,0.4-0.1,0.5-0.3l0.6-1.5c0.1-0.2,0-0.4-0.1-0.5c0,0,0,0,0,0v-6l1.7-1.9l7.5,10.1c0.1,0.1,0.3,0.2,0.4,0.2h2.6h4.4
				c0.1,0,0.3,0,0.4-0.1l1.8-1.5c0,0,0,0,0,0c0.1-0.1,0.1-0.1,0.2-0.2c0.1-0.2,0.1-0.4-0.1-0.6c-1-1.3-2.3-3.2-4-5.5
				c-0.6-0.9-1.3-1.9-2.1-2.9c-2-2.9-3.6-5-4.7-6.5l8.8-9.7c0,0,0.1-0.1,0.1-0.1l1.9-3.6c0-0.1,0.1-0.2,0.1-0.3c0-0.1,0-0.2,0-0.3
				C36.4,10.4,36.2,10.2,36,10.2L36,10.2z"/>
		</g>
		<g>
			<path class="st0" d="M39.6,41.6c-0.1,0-0.3-0.1-0.3-0.2l-0.2-1.6c0,0,0-22.4,0-22.4c0-0.2,0.1-0.3,0.3-0.3h6.3
				c0.2,0,0.3,0.1,0.3,0.3v22.4c0,0.1,0,0.1,0,0.2c0,0-0.3,1.5-0.3,1.5c0,0.1-0.1,0.2-0.3,0.2H39.6z"/>
			<path class="st0" d="M45.7,17.4v22.4h-0.4v0.1h0.4l-0.3,1.5h-5.8l-0.2-1.6l0.1,0h-0.1V17.4H45.7 M45.7,16.9h-6.3
				c-0.3,0-0.5,0.2-0.5,0.5v22.4c0,0,0,0,0,0c0,0,0,0.1,0,0.1l0.2,1.6c0,0.3,0.3,0.5,0.5,0.5h5.8c0.3,0,0.5-0.2,0.5-0.5l0.3-1.4
				c0-0.1,0.1-0.2,0.1-0.2V17.4C46.3,17.1,46,16.9,45.7,16.9L45.7,16.9z"/>
		</g>
		<g>
			<path class="st0" d="M42.5,16.6c-1,0-1.9-0.4-2.6-1.1c-0.6-0.6-0.9-1.3-1-2.1c-0.2-0.4-0.3-0.9-0.3-1.4c0-1.1,0.4-2,1.1-2.8
				c0.8-0.8,1.7-1.1,2.8-1.1c1.1,0,2,0.4,2.8,1.1c0.8,0.8,1.1,1.7,1.1,2.8c0,0.7-0.1,1.3-0.4,1.8c-0.1,0.6-0.5,1.2-0.9,1.7
				C44.4,16.2,43.6,16.6,42.5,16.6z"/>
			<path class="st0" d="M42.6,8.3c1,0,1.9,0.4,2.6,1.1c0.7,0.7,1.1,1.6,1.1,2.6c0,0.6-0.1,1.2-0.4,1.7c-0.1,0.6-0.4,1.1-0.9,1.6
				c-0.7,0.7-1.5,1-2.4,1c-1,0-1.8-0.3-2.4-1c-0.5-0.5-0.9-1.2-1-1.9C39,13,38.9,12.5,38.9,12c0-1,0.4-1.9,1.1-2.6
				C40.7,8.7,41.5,8.3,42.6,8.3 M42.6,7.8c-1.2,0-2.2,0.4-3,1.2c-0.8,0.8-1.2,1.8-1.2,3c0,0.5,0.1,1.1,0.3,1.5
				c0.1,0.8,0.5,1.5,1.1,2.2c0.8,0.8,1.7,1.1,2.8,1.1c1.1,0,2-0.4,2.8-1.1c0.5-0.5,0.9-1.1,1-1.8c0.3-0.6,0.4-1.2,0.4-1.9
				c0-1.2-0.4-2.2-1.2-3C44.8,8.2,43.7,7.8,42.6,7.8L42.6,7.8z"/>
		</g>
		<g>
			<path class="st0" d="M87.5,41.9c-1.5,0-3.2-0.3-4.9-0.9c-1.7-0.5-3.2-1.4-4.6-2.5c0,0-0.1-0.1-0.1-0.1l-0.4-1.6
				c0-0.1-0.1-0.2-0.1-0.2l0-0.1c0-0.1,0-0.2,0-0.2c0.1-0.1,0.1-0.1,0.2-0.1h0l2.5-3.6c0-0.1,0.1-0.1,0.2-0.1c0,0,0,0,0,0
				c0.1,0,0.1,0,0.2,0.1c2.3,1.8,4.7,2.6,7.3,2.6c0.6,0,1.1-0.1,1.5-0.3c-0.1-0.1-0.2-0.2-0.4-0.3c-0.6-0.4-1.4-0.8-2.6-1.1
				c-1.2-0.4-2-0.7-2.7-0.9c-0.6-0.3-1.3-0.6-2.1-1.1c-1.7-1-2.5-2.6-2.5-4.6c0-0.1,0-0.3,0-0.4c-0.3-0.7-0.4-1.5-0.4-2.3
				c0-2.1,0.9-3.9,2.6-5.3c1.7-1.3,3.9-2,6.6-2c2.7,0,5.4,0.9,8.1,2.7c0.1,0.1,0.2,0.2,0.1,0.4L96.1,20l-0.7,2.8l-2.2,3.9
				c0,0.1-0.1,0.1-0.2,0.1c0,0,0,0-0.1,0c-0.1,0-0.1,0-0.2,0C91,25.6,89.3,25,87.5,25c-0.2,0-0.5,0-0.7,0c0.5,0.2,1.2,0.5,2.1,0.7
				c1.4,0.4,2.4,0.8,3,1c0.6,0.2,1.3,0.6,2.2,1.1c1.6,1,2.5,2.7,2.5,5c0,1.5-0.4,2.8-1.1,3.9c-0.3,1.2-1,2.4-2.1,3.3
				C91.9,41.3,89.9,41.9,87.5,41.9z"/>
			<path class="st0" d="M88,17.1c2.6,0,5.3,0.9,7.9,2.7l-0.1,0.1l-0.8,2.9l-2.2,3.9c-1.8-1.2-3.6-1.9-5.4-1.9
				c-0.7,0-1.2,0.1-1.6,0.2c0.6,0.3,1.6,0.7,2.9,1.1c1.4,0.4,2.4,0.8,3,1c0.6,0.2,1.3,0.6,2.2,1.1c1.6,0.9,2.3,2.5,2.3,4.7
				c0,1.4-0.4,2.7-1.1,3.8c-0.3,1.3-1,2.3-2.1,3.2c-1.5,1.2-3.4,1.8-5.8,1.8c-1.5,0-3.2-0.3-4.8-0.8c-1.7-0.6-3.2-1.4-4.5-2.5
				l-0.4-1.7c0,0,0,0-0.1,0l0,0l0-0.1h0.1l2.6-3.7c2.3,1.8,4.8,2.7,7.5,2.7c0.8,0,1.4-0.2,1.9-0.5c0,0,0,0,0,0
				c-0.2-0.2-0.4-0.4-0.7-0.6c-0.6-0.4-1.5-0.8-2.6-1.2c-1.1-0.4-2-0.7-2.6-0.9c-0.6-0.3-1.3-0.6-2.1-1.1c-1.6-1-2.4-2.4-2.4-4.3
				c0-0.1,0-0.3,0-0.4c-0.3-0.7-0.4-1.4-0.4-2.2c0-2.1,0.8-3.7,2.5-5.1C83.2,17.7,85.3,17.1,88,17.1 M88,16.5c-2.8,0-5,0.7-6.8,2.1
				c-1.8,1.4-2.7,3.3-2.7,5.5c0,0.8,0.1,1.6,0.4,2.3c0,0.1,0,0.2,0,0.3c0,2.1,0.9,3.7,2.6,4.8c0.8,0.5,1.5,0.9,2.1,1.2
				c0.6,0.3,1.5,0.6,2.7,0.9c1.1,0.3,1.9,0.7,2.5,1.1c-0.3,0.1-0.6,0.1-1,0.1c-2.5,0-4.9-0.9-7.1-2.6c-0.1-0.1-0.2-0.1-0.3-0.1
				c0,0-0.1,0-0.1,0c-0.1,0-0.3,0.1-0.4,0.2l-2.5,3.5c-0.1,0-0.2,0.1-0.3,0.2c-0.1,0.1-0.1,0.3-0.1,0.4c0,0.2,0,0.3,0.1,0.4l0.4,1.5
				c0,0.1,0.1,0.2,0.2,0.3c1.4,1.2,3,2,4.7,2.6c1.8,0.6,3.4,0.9,5,0.9c2.5,0,4.5-0.7,6.1-2c1.1-0.9,1.9-2.1,2.2-3.4
				c0.7-1.1,1.1-2.5,1.1-4c0-2.4-0.9-4.1-2.6-5.2c-0.4-0.2-0.7-0.4-1.1-0.6c0.1,0,0.2-0.1,0.2-0.2l2.2-3.9c0,0,0-0.1,0.1-0.1
				l0.7-2.8l0,0c0.1-0.2,0.1-0.6-0.2-0.7C93.5,17.5,90.7,16.5,88,16.5L88,16.5z M91.3,26.2c-0.6-0.2-1.3-0.5-2.3-0.7
				c-0.1,0-0.3-0.1-0.4-0.1C89.5,25.5,90.4,25.8,91.3,26.2L91.3,26.2z"/>
		</g>
		<g>
			<path class="st0" d="M146.5,42c-3.2,0-5.9-1.1-8.1-3.2c-1.2-1.2-2.1-2.6-2.6-4.2c-1-1.7-1.6-3.8-1.6-6c0-3.3,1.2-6.1,3.5-8.4
				c2.3-2.3,5.2-3.4,8.7-3.4c3.5,0,6.4,1.2,8.7,3.4c2.3,2.3,3.5,5.1,3.5,8.4c0,1.7-0.3,3.3-1,4.8c-0.4,2-1.4,3.8-3,5.4
				C152.4,40.9,149.7,42,146.5,42z M146.5,25.5c-1.4,0-2.6,0.5-3.5,1.5c-0.9,1-1.4,2.4-1.4,4c0,0.2,0,0.4,0,0.6
				c0.2,0.4,0.5,0.9,0.9,1.4c1,1.1,2.3,1.6,3.8,1.6c1.6,0,2.8-0.5,3.8-1.6c0.6-0.7,1-1.4,1.2-2.3c-0.1-1.4-0.5-2.6-1.4-3.6
				C149.1,26,147.9,25.5,146.5,25.5z"/>
			<path class="st0" d="M146.3,17.1c3.4,0,6.2,1.1,8.5,3.3c2.3,2.2,3.4,5,3.4,8.2c0,1.7-0.3,3.3-0.9,4.7c-0.4,2-1.4,3.8-2.9,5.3
				c-2.1,2.1-4.7,3.1-7.9,3.1c-3.2,0-5.8-1-7.9-3.1c-1.2-1.2-2.1-2.5-2.6-4c-1-1.7-1.6-3.7-1.6-5.9c0-3.2,1.1-6,3.4-8.2
				C140.1,18.2,142.9,17.1,146.3,17.1 M146.3,34.8c1.6,0,3-0.6,4-1.7c0.6-0.7,1.1-1.5,1.3-2.4c-0.1-1.6-0.5-2.8-1.4-3.9
				c-1-1.1-2.2-1.6-3.7-1.6s-2.8,0.5-3.7,1.6c-1,1.1-1.5,2.5-1.5,4.2c0,0.2,0,0.4,0,0.6c0.2,0.6,0.6,1.1,1,1.5
				C143.3,34.3,144.7,34.8,146.3,34.8 M146.3,16.5c-3.5,0-6.5,1.2-8.9,3.5c-2.4,2.3-3.5,5.2-3.5,8.6c0,2.3,0.5,4.3,1.6,6.1
				c0.5,1.6,1.4,3,2.7,4.2c2.2,2.2,5,3.2,8.3,3.2c3.3,0,6.1-1.1,8.3-3.2c1.6-1.6,2.6-3.4,3.1-5.5c0.6-1.5,1-3.1,1-4.8
				c0-3.4-1.2-6.3-3.5-8.6C152.8,17.7,149.8,16.5,146.3,16.5L146.3,16.5z M141.8,31.5c0-0.2,0-0.3,0-0.5c0-1.6,0.4-2.8,1.3-3.8
				c0.9-1,2-1.4,3.3-1.4c1.4,0,2.4,0.5,3.3,1.4c0.8,0.9,1.2,2,1.3,3.4c-0.2,0.8-0.6,1.5-1.2,2.1c-0.9,1-2.1,1.5-3.6,1.5
				c-1.5,0-2.7-0.5-3.6-1.5C142.4,32.4,142.1,31.9,141.8,31.5L141.8,31.5z"/>
		</g>
		<g>
			<path class="st0" d="M172.1,42c-2.5,0-4.8-1.1-6.8-3.2c-1.1-1.2-1.9-2.5-2.4-4c-1-1.8-1.6-3.9-1.6-6.3c0-3.4,1.1-6.2,3.1-8.4
				c2.1-2.2,4.5-3.3,7.3-3.3c2.6,0,4.7,0.8,6.4,2.5V9c0-0.2,0.1-0.3,0.3-0.3h6.2c0.2,0,0.3,0.1,0.3,0.3v30.8c0,0,0,0,0,0.1
				c0,0,0,0,0,0.1l-0.7,1.6c0,0.1-0.1,0.2-0.3,0.2h-5.8c-0.2,0-0.3-0.1-0.3-0.3v-2C176.4,41.1,174.4,42,172.1,42z M173.4,25.4
				c-1.3,0-2.4,0.5-3.3,1.6c-0.9,1.1-1.4,2.4-1.4,4c0,0.1,0,0.3,0,0.4c0.2,0.5,0.6,1,1,1.5c1,1.1,2.2,1.6,3.6,1.6
				c1.4,0,2.5-0.5,3.5-1.6c0.6-0.6,1-1.4,1.2-2.3c-0.1-1.4-0.5-2.7-1.4-3.7C175.7,25.9,174.7,25.4,173.4,25.4z"/>
			<path class="st0" d="M184.7,9v30.8h-0.1l0.1,0l-0.7,1.6h-5.8v-2.7c-1.6,2-3.7,3-6.2,3c-2.5,0-4.7-1-6.6-3.1
				c-1.1-1.1-1.8-2.4-2.3-3.9c-1-1.8-1.6-3.9-1.6-6.3c0-3.3,1-6.1,3-8.2c2-2.1,4.4-3.2,7.1-3.2c2.7,0,5,1,6.7,2.9V9H184.7
				 M173.3,34.8c1.4,0,2.7-0.6,3.7-1.7c0.6-0.7,1-1.5,1.3-2.4c-0.1-1.6-0.5-2.9-1.4-3.9c-0.9-1.1-2.1-1.7-3.5-1.7
				c-1.4,0-2.5,0.6-3.5,1.7c-1,1.1-1.5,2.5-1.5,4.2c0,0.1,0,0.3,0,0.4c0.3,0.6,0.6,1.2,1.1,1.7C170.6,34.3,171.8,34.8,173.3,34.8
				 M184.7,8.5h-6.2c-0.3,0-0.5,0.2-0.5,0.5v9.6c-1.7-1.4-3.7-2.1-6.1-2.1c-2.9,0-5.4,1.1-7.5,3.4c-2.1,2.2-3.2,5.1-3.2,8.6
				c0,2.4,0.5,4.6,1.6,6.5c0.5,1.5,1.3,2.8,2.4,4c2,2.2,4.4,3.3,7,3.3c2.2,0,4.1-0.7,5.6-2.2v1.3c0,0.3,0.2,0.5,0.5,0.5h5.8
				c0.2,0,0.4-0.1,0.5-0.3l0.7-1.6c0-0.1,0.1-0.2,0-0.3V9C185.2,8.7,185,8.5,184.7,8.5L184.7,8.5z M168.9,31.3c0-0.1,0-0.2,0-0.3
				c0-1.6,0.4-2.8,1.3-3.8c0.9-1,1.9-1.5,3.1-1.5c1.2,0,2.2,0.5,3,1.5c0.8,0.9,1.2,2.1,1.3,3.5c-0.2,0.8-0.6,1.5-1.1,2.1
				c-0.9,1-2,1.5-3.3,1.5c-1.3,0-2.4-0.5-3.4-1.6C169.5,32.3,169.2,31.8,168.9,31.3L168.9,31.3z"/>
		</g>
		<g>
			<path class="st0" d="M201.2,42c-3.2,0-5.9-1-8-3c-1.3-1.2-2.2-2.7-2.7-4.5c-0.9-1.6-1.4-3.6-1.4-5.9c0-3.6,1.2-6.5,3.5-8.6
				c2.3-2.1,5.1-3.2,8.2-3.2c3.1,0,5.8,1,8,2.9c2.2,1.9,3.3,4.5,3.3,7.9v3.3c0,0,0,0.1,0,0.1l-0.7,2.1c0,0.1-0.1,0.2-0.3,0.2h-3.8
				l2.7,2.9h0c0.1,0,0.2,0,0.2,0.1c0.1,0.1,0.1,0.2,0,0.2l0,0c0,0,0,0,0,0c0,0.1,0,0.2-0.1,0.2l-0.5,1.6c0,0,0,0.1-0.1,0.1
				C207.2,40.8,204.4,42,201.2,42z M197.2,33.2c0.1,0.1,0.3,0.2,0.4,0.4c1,0.7,2.2,1.1,3.5,1.1c1.8,0,3.3-0.5,4.5-1.5H197.2z
				 M203.7,26.2c-0.8-0.6-1.6-0.9-2.7-0.9c-1.1,0-2,0.3-2.8,0.9H203.7z"/>
			<path class="st0" d="M200.8,17.1c3.1,0,5.7,0.9,7.9,2.8c2.2,1.9,3.2,4.4,3.2,7.7v3.3h0l-0.7,2.1h-4.4l3.2,3.5h0.2l0,0.1l0,0
				c0,0,0,0-0.1,0.1l-0.5,1.6c-2.4,2.2-5.1,3.4-8.3,3.4c-3.2,0-5.8-1-7.8-2.9c-1.3-1.2-2.2-2.6-2.6-4.3c-0.9-1.7-1.3-3.6-1.3-5.8
				c0-3.5,1.1-6.3,3.4-8.4C195,18.1,197.7,17.1,200.8,17.1 M197.4,26.4h6.9c-0.1-0.2-0.3-0.3-0.4-0.4c-0.8-0.7-1.8-1-2.9-1
				c-1.1,0-2.2,0.3-3.2,1C197.7,26.2,197.5,26.2,197.4,26.4 M201.1,35c2.1,0,3.8-0.7,5.2-2h-9.8c0.3,0.3,0.6,0.6,0.9,0.9
				C198.6,34.6,199.8,35,201.1,35 M200.8,16.5c-3.2,0-6,1.1-8.4,3.3c-2.4,2.2-3.6,5.1-3.6,8.8c0,2.3,0.5,4.3,1.4,6
				c0.5,1.8,1.5,3.3,2.8,4.5c2.2,2,4.9,3.1,8.2,3.1c3.2,0,6.2-1.2,8.6-3.5c0.1-0.1,0.1-0.1,0.1-0.2l0.5-1.5c0.1-0.1,0.1-0.2,0.1-0.4
				c0,0,0-0.1,0-0.1c0-0.1,0-0.3-0.1-0.4c-0.1-0.1-0.2-0.2-0.3-0.2l-2.2-2.4h3.2c0.2,0,0.4-0.2,0.5-0.4l0.7-2c0-0.1,0-0.1,0-0.2
				v-3.3c0-3.4-1.1-6.1-3.4-8.1C206.8,17.5,204,16.5,200.8,16.5L200.8,16.5z M199.2,25.9c0.5-0.2,1.1-0.3,1.7-0.3
				c0.6,0,1.2,0.1,1.7,0.3H199.2L199.2,25.9z M198,33.5h6.8c-1,0.6-2.2,0.9-3.6,0.9C200,34.4,198.9,34.1,198,33.5L198,33.5z"/>
		</g>
	</g>
	<g>
		<g>
			<polygon class="st1" points="45.3,20.8 39.5,20.8 39.5,39.9 39.4,39.9 39.6,41.4 45.4,41.4 45.7,39.9 45.3,39.9 			"/>
			<path class="st1" d="M42.5,9.4c-1,0-1.8,0.3-2.4,1c-0.7,0.7-1,1.5-1,2.4c0,1,0.3,1.8,1,2.4c0.7,0.7,1.5,1,2.4,1
				c1,0,1.8-0.3,2.4-1c0.7-0.7,1-1.5,1-2.4c0-1-0.3-1.8-1-2.4C44.3,9.8,43.5,9.4,42.5,9.4z"/>
			<path class="st1" d="M73.2,12.7h-5.7v10.2c-1.9-1.8-3.8-2.7-6.3-2.7c-2.5,0-4.8,1-6.7,3c-1.9,2-2.8,4.5-2.8,7.6
				c0,3.1,1,5.7,2.9,7.8c1.9,2.1,4.2,3.1,6.7,3.1c2.5,0,4.3-1,6.2-3.1v1.2l-0.2,0l0,1.6l0.5,0l0,0h5h0.2l0.4-1.5h-0.3V12.7z
				 M66,35.2c-0.9,1.1-2.1,1.6-3.4,1.6c-1.3,0-2.5-0.5-3.5-1.6c-1-1.1-1.5-2.4-1.5-4.1c0-1.7,0.5-3.1,1.5-4.2c1-1.1,2.2-1.7,3.5-1.7
				c1.4,0,2.5,0.6,3.5,1.7c0.9,1.1,1.4,2.5,1.4,4.2C67.4,32.7,66.9,34.1,66,35.2z"/>
			<path class="st1" d="M87.5,24.7c1.8,0,3.6,0.6,5.4,1.9l2.2-3.9l0.8-3L93.9,20v2c-2.1-1.2-4.1-1.8-6.2-1.8c-2.5,0-4.5,0.6-6,1.8
				c-1.5,1.2-2.3,2.8-2.3,4.7c0,1.9,0.8,3.4,2.4,4.4c0.8,0.5,1.5,0.9,2.1,1.1c0.6,0.3,1.5,0.6,2.6,0.9c1.1,0.4,2,0.7,2.6,1.2
				c0.6,0.4,0.9,0.9,0.9,1.4c0,0.5-0.2,0.9-0.7,1.2c-0.4,0.3-1,0.4-1.8,0.4c-2.5,0-4.8-0.8-7-2.5L79,37v-0.5h-1.4l0.5,1.9
				c1.3,1.1,2.9,1.9,4.5,2.5c1.7,0.6,3.3,0.9,4.8,0.9c2.3,0,4.2-0.6,5.8-1.9c1.5-1.2,2.3-2.9,2.3-4.9c0-2.1-0.7-3.5-2.2-4.4
				c-0.8-0.5-1.4-0.8-2-1c-0.6-0.2-1.5-0.5-2.8-0.9c-1.3-0.4-2.3-0.8-2.8-1.1c-0.6-0.3-0.9-0.7-0.9-1.3
				C84.8,25.2,85.7,24.7,87.5,24.7z"/>
			<path class="st1" d="M119.8,19.5c2.8,0,5.2,1.2,7.1,3.6l3.8-4.3l1.5-3.4h-1.1l-2.6,1.2c-2.5-2-5.5-2.9-8.9-2.9
				c-4,0-7.3,1.4-10.1,4c-2.8,2.7-4.1,6-4.1,10.1c0,4,1.3,7.3,4,10c2.7,2.6,6.1,3.9,10.3,3.9c4.2,0,7.8-1.8,10.8-5.2h0l1.6-1.9
				l-3.3-1.1v1l-2-2c-1.9,2.4-4.4,3.5-7.3,3.5c-2.2,0-4-0.8-5.6-2.3c-1.5-1.5-2.3-3.5-2.3-6.1c0-2.5,0.8-4.5,2.4-6
				C115.6,20.3,117.5,19.5,119.8,19.5z"/>
			<path class="st1" d="M146.4,20.2c-3.2,0-5.8,1-7.9,3.1c-2.1,2.1-3.1,4.6-3.1,7.7c0,3,1,5.6,3.1,7.6c2.1,2.1,4.7,3.1,7.9,3.1
				c3.2,0,5.8-1,7.9-3.1c2.1-2.1,3.1-4.6,3.1-7.6c0-3-1-5.6-3.1-7.7C152.2,21.3,149.6,20.2,146.4,20.2z M150.1,35.2
				c-1,1.1-2.2,1.6-3.7,1.6s-2.8-0.5-3.7-1.6c-1-1.1-1.5-2.5-1.5-4.2c0-1.7,0.5-3.1,1.5-4.2s2.2-1.6,3.7-1.6s2.8,0.5,3.7,1.6
				c1,1.1,1.5,2.5,1.5,4.2C151.6,32.7,151.1,34.1,150.1,35.2z"/>
			<path class="st1" d="M183.9,12.7h-5.4v10.2c-1.5-1.8-4.1-2.7-6.6-2.7s-4.7,1-6.6,3c-1.9,2-2.8,4.5-2.8,7.6c0,3.1,1,5.7,2.9,7.8
				c1.9,2.1,4.1,3.1,6.6,3.1c2.5,0,4.6-1,6.2-3.1v2.8h5.8l0.7-1.6l-0.7-0.1V12.7z M176.8,35.2c-0.9,1.1-2.1,1.6-3.4,1.6
				c-1.3,0-2.5-0.5-3.5-1.6c-1-1.1-1.5-2.4-1.5-4.1c0-1.7,0.5-3.1,1.5-4.2c1-1.1,2.2-1.7,3.5-1.7c1.4,0,2.5,0.6,3.5,1.7
				c0.9,1.1,1.4,2.5,1.4,4.2C178.2,32.7,177.8,34.1,176.8,35.2z"/>
			<path class="st1" d="M36,10.8h-1.1l-5,3.4h-3.2L16.5,25.5V14.3h-6.1v27.2h6l0.6-1.6l-0.4,0v-6.1l2.6-3l7.9,10.7h2.6h0h4.4
				l1.8-1.5l-3-0.1c-1.2-1.6-2.6-3.7-4.5-6.3c-2.5-3.5-4.2-5.9-5.2-7.2l10.8-11.9L36,10.8z"/>
			<path class="st1" d="M211.8,30.9l-0.7-0.1V30c0-3-1-5.4-3-7.1c-2-1.7-4.4-2.6-7.3-2.6c-2.9,0-5.3,1-7.5,2.9
				c-2.1,1.9-3.2,4.5-3.2,7.8c0,3.3,1,5.9,3.1,7.8c2.1,2,4.7,2.9,7.8,2.9c3.2,0,5.9-1.2,8.3-3.4l0.6-1.9h-1.1l-0.4,0.9l-2.3-2.5
				c-1.3,1.4-3,2.1-5,2.1c-1.3,0-2.4-0.4-3.4-1.1c-1-0.7-1.6-1.7-1.8-2.8h15.2L211.8,30.9z M196.1,28.8c0.2-1.1,0.7-2.1,1.7-2.8
				c1-0.7,2-1,3.2-1c1.1,0,2.1,0.3,2.9,1c0.8,0.7,1.3,1.7,1.4,2.8H196.1z"/>
		</g>
		<g>
			<path class="st2" d="M10.4,10.7h6.5v12l11-12H36L24.4,23.6c1,1.4,2.9,4,5.6,7.8c2.7,3.8,4.7,6.6,6.1,8.5h-7.6l-8.6-11.5l-2.9,3.3
				v8.3h-6.5V10.7z"/>
			<path class="st2" d="M39.9,14.6c-0.7-0.7-1.1-1.6-1.1-2.6c0-1,0.4-1.9,1.1-2.6c0.7-0.7,1.6-1.1,2.6-1.1c1,0,1.9,0.4,2.6,1.1
				c0.7,0.7,1.1,1.6,1.1,2.6c0,1-0.4,1.9-1.1,2.6c-0.7,0.7-1.6,1.1-2.6,1.1C41.5,15.6,40.6,15.3,39.9,14.6z M45.7,39.9h-6.3V17.4
				h6.3V39.9z"/>
			<path class="st2" d="M60.6,40.2c-2.7,0-5-1.1-7.1-3.4c-2.1-2.3-3.1-5.1-3.1-8.4c0-3.3,1-6.1,3-8.2c2-2.1,4.4-3.2,7.1-3.2
				s5,1,6.7,2.9v-11h6.3v31h-6.3v-3C65.5,39.1,63.3,40.2,60.6,40.2z M56.7,28.7c0,1.8,0.5,3.3,1.6,4.4c1.1,1.2,2.4,1.7,3.8,1.7
				c1.4,0,2.7-0.6,3.7-1.7c1-1.2,1.5-2.6,1.5-4.5c0-1.8-0.5-3.3-1.5-4.6c-1-1.2-2.3-1.8-3.7-1.8c-1.5,0-2.7,0.6-3.8,1.8
				C57.2,25.4,56.7,26.9,56.7,28.7z"/>
			<path class="st2" d="M96.3,32.9c0,2.2-0.8,4-2.4,5.3c-1.6,1.3-3.7,2-6.2,2c-1.7,0-3.4-0.3-5.2-0.9c-1.8-0.6-3.4-1.5-4.9-2.7
				l2.8-3.9c2.3,1.8,4.8,2.7,7.5,2.7c0.8,0,1.4-0.2,1.9-0.5c0.5-0.3,0.7-0.7,0.7-1.3c0-0.5-0.3-1-1-1.5c-0.7-0.4-1.6-0.9-2.8-1.3
				c-1.2-0.4-2.2-0.7-2.8-1c-0.7-0.3-1.4-0.7-2.2-1.2c-1.7-1.1-2.5-2.6-2.5-4.7c0-2.1,0.8-3.8,2.5-5.1c1.7-1.3,3.8-2,6.5-2
				c2.6,0,5.3,0.9,7.9,2.7l-2.3,4.2c-1.9-1.3-3.9-2-5.8-2c-1.9,0-2.9,0.5-2.9,1.6c0,0.6,0.3,1,0.9,1.4c0.6,0.3,1.6,0.7,3,1.2
				c1.4,0.4,2.4,0.8,3,1c0.6,0.2,1.3,0.6,2.2,1.1C95.5,29.1,96.3,30.7,96.3,32.9z"/>
			<path class="st2" d="M120,34.1c3.2,0,5.8-1.3,7.8-3.8l4.2,4.3c-3.3,3.7-7.2,5.6-11.7,5.6c-4.5,0-8.2-1.4-11.1-4.3
				c-2.9-2.8-4.4-6.4-4.4-10.8c0-4.3,1.5-7.9,4.4-10.8c3-2.9,6.6-4.3,10.9-4.3c4.8,0,8.8,1.8,12,5.5l-4,4.6
				c-2.1-2.6-4.6-3.8-7.7-3.8c-2.4,0-4.5,0.8-6.3,2.4c-1.7,1.6-2.6,3.8-2.6,6.5s0.8,4.9,2.5,6.5C115.7,33.3,117.7,34.1,120,34.1z"/>
			<path class="st2" d="M158.2,28.7c0,3.3-1.1,6-3.4,8.2c-2.3,2.2-5.1,3.3-8.5,3.3c-3.4,0-6.2-1.1-8.5-3.3c-2.3-2.2-3.4-5-3.4-8.2
				s1.1-6,3.4-8.2c2.3-2.2,5.1-3.4,8.5-3.4c3.4,0,6.2,1.1,8.5,3.4C157,22.6,158.2,25.4,158.2,28.7z M140.7,28.7
				c0,1.8,0.5,3.3,1.6,4.5c1,1.2,2.4,1.7,4,1.7c1.6,0,3-0.6,4-1.7c1-1.2,1.6-2.7,1.6-4.5s-0.5-3.3-1.6-4.5c-1-1.2-2.4-1.8-4-1.8
				c-1.6,0-3,0.6-4,1.8C141.2,25.3,140.7,26.8,140.7,28.7z"/>
			<path class="st2" d="M171.8,40.2c-2.7,0-5-1.1-7.1-3.4c-2.1-2.3-3.1-5.1-3.1-8.4c0-3.3,1-6.1,3-8.2c2-2.1,4.4-3.2,7.1-3.2
				c2.7,0,5,1,6.7,2.9v-11h6.3v31h-6.3v-3C176.6,39.1,174.4,40.2,171.8,40.2z M167.8,28.7c0,1.8,0.5,3.3,1.6,4.4
				c1.1,1.2,2.4,1.7,3.8,1.7c1.4,0,2.7-0.6,3.7-1.7c1-1.2,1.5-2.6,1.5-4.5c0-1.8-0.5-3.3-1.5-4.6c-1-1.2-2.3-1.8-3.7-1.8
				c-1.5,0-2.7,0.6-3.8,1.8C168.4,25.4,167.8,26.9,167.8,28.7z"/>
			<path class="st2" d="M210,36.6c-2.5,2.4-5.5,3.6-8.9,3.6c-3.4,0-6.2-1.1-8.5-3.2c-2.2-2.1-3.3-4.9-3.3-8.5c0-3.5,1.1-6.3,3.4-8.4
				c2.3-2.1,4.9-3.1,8-3.1c3.1,0,5.7,0.9,7.9,2.8c2.2,1.9,3.2,4.4,3.2,7.7v3.3h-16.4c0.2,1.2,0.8,2.2,1.9,3c1.1,0.8,2.3,1.2,3.7,1.2
				c2.2,0,4-0.7,5.4-2.2L210,36.6z M204,23.3c-0.9-0.7-1.9-1.1-3.2-1.1c-1.2,0-2.4,0.4-3.4,1.1c-1,0.8-1.6,1.8-1.8,3h9.9
				C205.4,25.1,204.9,24,204,23.3z"/>
		</g>
	</g>
	<g>
		<g class="st3">
			<path d="M81.5,66.3C81.5,66.3,81.5,66.3,81.5,66.3c0,0.8,0.5,1.4,1.2,1.5c0,0,0,0,0,0c2.3,0.6,3.9,2.6,3.9,5.1c0,2.4-1.7,4.5-4,5
				c-0.7,0.1-1.3,0.8-1.3,1.5l0,1.2l0,1.9c0,2.3,1.9,4.2,4.2,4.2l6.3,0l3.3,0l6.3,0c2.3,0,4.2-1.9,4.2-4.2l0-1.3l0-1.7
				c0-0.8,0.5-1.4,1.3-1.5c2.3-0.6,4-2.6,4-5c0-2.4-1.7-4.5-3.9-5.1c0,0,0,0,0,0c-0.7-0.2-1.2-0.8-1.2-1.5c0,0,0,0,0,0l0,0l0-1.2
				l0-1.9c0-2.3-1.9-4.2-4.2-4.2l-6.3,0l-3.3,0l-6.3,0c-2.3,0-4.2,1.9-4.2,4.2l0,1.3L81.5,66.3C81.5,66.3,81.5,66.3,81.5,66.3
				L81.5,66.3z"/>
		</g>
		<g class="st3">
			<path d="M111.9,66.3C111.9,66.3,111.9,66.3,111.9,66.3c0,0.8,0.5,1.4,1.2,1.5c0,0,0,0,0,0c2.3,0.6,3.9,2.6,3.9,5.1
				c0,2.4-1.7,4.5-4,5c-0.7,0.1-1.3,0.8-1.3,1.5l0,1.2l0,1.9c0,2.3,1.9,4.2,4.2,4.2l6.3,0l3.3,0l6.3,0c2.3,0,4.2-1.9,4.2-4.2l0-1.3
				l0-1.7c0-0.8,0.5-1.4,1.3-1.5c2.3-0.6,4-2.6,4-5c0-2.4-1.7-4.5-3.9-5.1c0,0,0,0,0,0c-0.7-0.2-1.2-0.8-1.2-1.5c0,0,0,0,0,0l0,0
				l0-1.2l0-1.9c0-2.3-1.9-4.2-4.2-4.2l-6.3,0l-3.3,0l-6.3,0c-2.3,0-4.2,1.9-4.2,4.2l0,1.3L111.9,66.3
				C111.9,66.3,111.9,66.3,111.9,66.3L111.9,66.3z"/>
		</g>
		<g class="st3">
			<path d="M40.3,73.1c0,7.4,5.8,13.5,13.1,13.9c0.2,0,0.3,0,0.5,0h0.9H67h-2.6h6.1c2.3,0,4.2-1.9,4.2-4.2v-3c0-0.8,0.5-1.4,1.3-1.6
				c2.3-0.6,4-2.6,4-5.1c0-2.4-1.7-4.5-4-5.1c0,0,0,0,0,0c-0.7-0.2-1.2-0.8-1.2-1.5c0,0,0,0,0,0v0l0,0l0,0v-3c0-1.7-1.1-3.2-2.5-3.9
				c-0.5-0.2-1.1-0.4-1.7-0.4h-6.1H67H53.8c-0.2,0-0.3,0-0.5,0C46.1,59.6,40.3,65.7,40.3,73.1z"/>
		</g>
		<g class="st3">
			<g>
				<g>
					<g>
						<g>
							<path d="M143.2,78.1c-0.7,0.2-1.3,0.8-1.3,1.6l0,3.1c0,2.4,1.9,4.3,4.3,4.3h21.9c0.1,0,0.2,0,0.3,0
								c7.6-0.3,13.6-6.5,13.6-14.1c0-7.6-6-13.9-13.6-14.1c-0.1,0-0.2,0-0.3,0h-21.9c-2.4,0-4.3,1.9-4.3,4.3v3.1h0c0,0,0,0,0,0
								c0,0.7,0.6,1.4,1.3,1.5c0,0,0,0,0,0c2.3,0.6,4,2.7,4,5.2C147.2,75.4,145.5,77.5,143.2,78.1z"/>
						</g>
					</g>
				</g>
			</g>
		</g>
		<g>
			<path class="st4" d="M85.7,85.6c-2.4,0-4.4-2-4.4-4.4l0-3c0-0.8,0.6-1.5,1.4-1.7c2.2-0.6,3.8-2.6,3.8-4.9c0-2.3-1.6-4.3-3.8-4.9
				c-0.8-0.2-1.4-0.9-1.4-1.7l0-3.1c0-2.4,2-4.4,4.4-4.4l15.8,0c2.4,0,4.4,2,4.4,4.4l0,3c0,0.7,0.5,1.2,1.1,1.3
				c2.4,0.6,4.1,2.8,4.1,5.2c0,2.5-1.7,4.6-4.1,5.2c-0.7,0.1-1.1,0.7-1.1,1.4l0,3c0,2.4-2,4.4-4.4,4.4
				C101.5,85.6,85.7,85.6,85.7,85.6z"/>
			<path class="st5" d="M85.7,57.7C85.7,57.7,85.7,57.7,85.7,57.7l6.3,0l3.3,0l6.3,0c2.3,0,4.2,1.9,4.2,4.2l0,1.9l0,1.2l0,0
				c0,0,0,0,0,0c0,0.7,0.5,1.3,1.2,1.5c0,0,0,0,0,0c2.3,0.6,3.9,2.6,3.9,5.1c0,2.4-1.7,4.5-4,5c-0.7,0.1-1.3,0.8-1.3,1.5l0,1.7
				l0,1.3c0,2.3-1.9,4.2-4.2,4.2c0,0,0,0,0,0l-6.3,0l-3.3,0l-6.3,0c-2.3,0-4.2-1.9-4.2-4.2l0-1.9l0-1.2c0-0.8,0.5-1.4,1.3-1.5
				c2.3-0.6,4-2.6,4-5c0-2.4-1.7-4.5-3.9-5.1c0,0,0,0,0,0c-0.7-0.2-1.2-0.8-1.2-1.5c0,0,0,0,0,0l0,0c0,0,0,0,0,0l0-1.7l0-1.3
				C81.5,59.6,83.4,57.7,85.7,57.7 M85.7,57.4c-2.5,0-4.6,2.1-4.6,4.6l0,1.3l0,1.7l0,0l0,0.1c0,0.9,0.6,1.6,1.5,1.8l0.1-0.4l0,0.4
				c2.1,0.5,3.6,2.5,3.6,4.7c0,2.2-1.5,4.2-3.7,4.7c-0.9,0.2-1.5,1-1.5,1.9l0,1.2l0,1.9c0,1.2,0.5,2.4,1.3,3.2
				c0.9,0.9,2,1.3,3.2,1.4l6.3,0l3.3,0l6.3,0c2.5,0,4.6-2.1,4.6-4.6l0-1.3l0-1.7c0-0.6,0.4-1.1,1-1.2c2.5-0.6,4.2-2.8,4.2-5.4
				c0-2.6-1.7-4.8-4.2-5.4c-0.6-0.1-1-0.6-1-1.2l0-1.2l0-1.9c0-2.5-2-4.6-4.6-4.6l-6.3,0l-3.3,0L85.7,57.4L85.7,57.4L85.7,57.4z"/>
		</g>
		<g>
			<path class="st4" d="M116.1,85.6c-2.4,0-4.4-2-4.4-4.4l0-3c0-0.8,0.6-1.5,1.4-1.7c2.2-0.6,3.8-2.6,3.8-4.9c0-2.3-1.6-4.3-3.8-4.9
				c-0.8-0.2-1.4-0.9-1.4-1.7l0-3.1c0-2.4,2-4.4,4.4-4.4l15.8,0c2.4,0,4.4,2,4.4,4.4l0,3c0,0.7,0.5,1.2,1.1,1.4
				c2.4,0.6,4.1,2.8,4.1,5.2c0,2.5-1.7,4.6-4.1,5.2c-0.7,0.1-1.1,0.7-1.1,1.4l0,3c0,2.4-2,4.4-4.4,4.4
				C131.9,85.6,116.1,85.6,116.1,85.6z"/>
			<path class="st5" d="M116.2,57.7C116.2,57.7,116.2,57.7,116.2,57.7l6.3,0l3.3,0l6.3,0c2.3,0,4.2,1.9,4.2,4.2l0,1.9l0,1.2l0,0
				c0,0,0,0,0,0c0,0.7,0.5,1.3,1.2,1.5c0,0,0,0,0,0c2.3,0.6,3.9,2.6,3.9,5.1c0,2.4-1.7,4.5-4,5c-0.7,0.1-1.3,0.8-1.3,1.5l0,1.7
				l0,1.3c0,2.3-1.9,4.2-4.2,4.2c0,0,0,0,0,0l-6.3,0l-3.3,0l-6.3,0c-2.3,0-4.2-1.9-4.2-4.2l0-1.9l0-1.2c0-0.8,0.5-1.4,1.3-1.5
				c2.3-0.6,4-2.6,4-5c0-2.4-1.7-4.5-3.9-5.1c0,0,0,0,0,0c-0.7-0.2-1.2-0.8-1.2-1.5c0,0,0,0,0,0l0,0c0,0,0,0,0,0l0-1.7l0-1.3
				C111.9,59.6,113.8,57.7,116.2,57.7 M116.2,57.4c-2.5,0-4.6,2.1-4.6,4.6l0,1.3l0,1.7l0,0l0,0.1c0,0.9,0.6,1.6,1.5,1.8l0.1-0.4
				l0,0.4c2.1,0.5,3.6,2.5,3.6,4.7c0,2.2-1.5,4.2-3.7,4.7c-0.9,0.2-1.5,1-1.5,1.9l0,1.2l0,1.9c0,2.5,2,4.6,4.6,4.6l6.3,0l3.3,0
				l6.3,0c2.5,0,4.6-2.1,4.6-4.6l0-1.3l0-1.7c0-0.6,0.4-1.1,1-1.2c2.5-0.6,4.2-2.8,4.2-5.4c0-2.6-1.7-4.8-4.2-5.4l0,0l0,0
				c-0.5-0.1-0.9-0.6-0.9-1.1l0-1.2l0-1.9c0-2.5-2-4.6-4.6-4.6l-6.3,0l-3.3,0L116.2,57.4L116.2,57.4L116.2,57.4z"/>
		</g>
		<g>
			<g>
				<path class="st6" d="M53.8,85.8c-0.2,0-0.3,0-0.5,0c-7.4-0.4-13.3-6.6-13.3-14s5.8-13.6,13.3-14c0.1,0,0.3,0,0.5,0h16.6
					c0.6,0,1.2,0.1,1.8,0.4c1.6,0.7,2.7,2.3,2.7,4v3c0,0.7,0.5,1.2,1.1,1.4c2.4,0.6,4.1,2.8,4.1,5.3c0,2.5-1.7,4.6-4.1,5.2
					c-0.7,0.1-1.1,0.7-1.1,1.4v3c0,2.4-2,4.4-4.4,4.4H53.8z"/>
				<path class="st5" d="M70.4,57.8c0.6,0,1.2,0.1,1.7,0.4c1.5,0.7,2.5,2.1,2.5,3.9v3l0,0l0,0v0c0,0,0,0,0,0c0,0.7,0.5,1.3,1.2,1.5
					c0,0,0,0,0,0c2.3,0.6,4,2.6,4,5.1c0,2.4-1.7,4.5-4,5.1c-0.7,0.2-1.3,0.8-1.3,1.6v3c0,2.3-1.9,4.2-4.2,4.2h-6.1H67H54.8h-0.9
					c-0.2,0-0.3,0-0.5,0c-7.3-0.4-13.1-6.4-13.1-13.9c0-7.4,5.8-13.5,13.1-13.8c0.2,0,0.3,0,0.5,0H67H70.4 M67,57.8h-2.6H67
					 M70.4,57.5H67h-2.6H53.8c-0.2,0-0.3,0-0.5,0c-7.5,0.4-13.4,6.7-13.4,14.2s5.9,13.8,13.5,14.2c0.1,0,0.3,0,0.5,0h0.9H67h3.4
					c2.5,0,4.6-2.1,4.6-4.6v-3c0-0.6,0.4-1.1,1-1.2c2.5-0.6,4.2-2.9,4.2-5.4c0-2.6-1.7-4.8-4.2-5.4l0,0l0,0
					c-0.5-0.1-0.9-0.6-0.9-1.2l0,0l0,0v-3c0-1.8-1.1-3.5-2.8-4.2C71.7,57.6,71.1,57.5,70.4,57.5L70.4,57.5z"/>
			</g>
		</g>
		<g>
			<g>
				<g>
					<g>
						<g>
							<path class="st7" d="M146.2,85.9c-2.5,0-4.5-2-4.5-4.5l0-3.1c0-0.8,0.6-1.6,1.4-1.8c2.3-0.6,3.9-2.6,3.9-5
								c0-2.4-1.6-4.4-3.9-5c-0.8-0.2-1.4-0.9-1.4-1.7l0-3.1c0-2.5,2-4.5,4.5-4.5h21.9c0.1,0,0.2,0,0.3,0
								c7.7,0.3,13.8,6.6,13.8,14.3c0,7.7-6.1,14-13.8,14.3c-0.1,0-0.2,0-0.3,0H146.2z"/>
							<g>
								<path class="st5" d="M168.1,57.4c0.1,0,0.2,0,0.3,0c7.6,0.3,13.6,6.5,13.6,14.1c0,7.6-6,13.9-13.6,14.1c-0.1,0-0.2,0-0.3,0
									h-21.9c-2.4,0-4.3-1.9-4.3-4.3l0-3.1c0-0.8,0.6-1.4,1.3-1.6c2.3-0.6,4-2.7,4-5.2c0-2.5-1.7-4.6-4-5.2c0,0,0,0,0,0
									c-0.7-0.2-1.2-0.8-1.3-1.5c0,0,0,0,0,0h0v-3.1c0-2.4,1.9-4.3,4.3-4.3H168.1 M168.1,57h-21.9c-2.6,0-4.7,2.1-4.7,4.7v3.1
									c0,0.9,0.7,1.7,1.5,1.9c2.2,0.6,3.8,2.5,3.8,4.8c0,2.3-1.5,4.3-3.8,4.8c-0.9,0.2-1.6,1-1.6,1.9l0,3.1c0,2.6,2.1,4.7,4.7,4.7
									h21.9c0.1,0,0.2,0,0.3,0c7.8-0.3,13.9-6.7,13.9-14.5c0-7.8-6.1-14.2-14-14.5C168.3,57,168.2,57,168.1,57L168.1,57z"/>
							</g>
						</g>
					</g>
				</g>
			</g>
		</g>
	</g>
</g>
</svg>
