<?xml version="1.0" encoding="utf-8"?>
<!-- Generator: Adobe Illustrator 16.0.0, SVG Export Plug-In . SVG Version: 6.00 Build 0)  -->
<!DOCTYPE svg PUBLIC "-//W3C//DTD SVG 1.1//EN" "http://www.w3.org/Graphics/SVG/1.1/DTD/svg11.dtd">
<svg version="1.1" xmlns="http://www.w3.org/2000/svg" xmlns:xlink="http://www.w3.org/1999/xlink" x="0px" y="0px" width="558px"
	 height="226px" viewBox="0 0 558 226" enable-background="new 0 0 558 226" xml:space="preserve">
<g id="Capa_3">
</g>
<g id="Capa_2">
</g>
<g id="Capa_1">
</g>
<g id="Capa_5">
	<g>
		<g>
			<path fill="#472728" d="M150.203,99.908c-6.896,0-13.318-2.988-18.573-8.641c-1.95-2.099-3.562-4.42-4.793-6.9
				c-4.407-5.701-6.641-12.619-6.641-20.565c0-9.046,2.819-16.573,8.378-22.375c5.571-5.818,12.208-8.77,19.729-8.77
				c6.296,0,11.647,1.825,15.955,5.435V13.066c0-0.828,0.671-1.5,1.5-1.5h16.25c0.829,0,1.5,0.672,1.5,1.5v80.143
				c0.104,0.279,0.124,0.587,0.051,0.883l-0.947,3.84c-0.166,0.67-0.767,1.141-1.457,1.141h-13.72l-1.388-0.044
				c-0.795-0.025-1.433-0.667-1.452-1.463l-0.077-3.161C160.11,98.191,155.593,99.908,150.203,99.908z M142.073,73.204
				c0.422,0.633,0.899,1.232,1.42,1.784c2.561,2.715,5.448,4.035,8.828,4.035c3.36,0,6.148-1.308,8.523-3.998
				c1.942-2.199,3.11-4.978,3.474-8.26c-0.489-2.378-1.489-4.476-2.974-6.24c-2.183-2.59-4.769-3.85-7.907-3.85
				c-3.146,0-5.787,1.281-8.072,3.917c-2.339,2.698-3.477,5.97-3.477,10.002C141.888,71.5,141.95,72.376,142.073,73.204z"/>
			<path fill="#472728" d="M182.007,13.066v80.392h-0.551v0.274h0.646l-0.947,3.84h-0.591h-13.129l-1.34-0.043l-0.099-4.071h-0.239
				v-2.285c-4.681,4.82-9.418,7.235-15.554,7.235c-6.441,0-12.416-2.721-17.475-8.162c-1.897-2.042-3.434-4.268-4.614-6.679
				c-4.279-5.48-6.419-12.068-6.419-19.766c0-8.688,2.656-15.801,7.961-21.337c5.303-5.539,11.524-8.308,18.646-8.308
				c7.122,0,13.048,2.497,17.455,7.493V13.066H182.007 M152.321,80.523c3.778,0,6.994-1.5,9.647-4.506
				c2.209-2.502,3.496-5.611,3.865-9.321c-0.524-2.733-1.638-5.112-3.342-7.137c-2.463-2.923-5.479-4.384-9.054-4.384
				c-3.576,0-6.643,1.479-9.206,4.435c-2.564,2.957-3.843,6.618-3.843,10.984c0,1.104,0.084,2.157,0.253,3.16
				c0.509,0.801,1.094,1.556,1.761,2.263C145.237,79.023,148.543,80.523,152.321,80.523 M182.007,10.066h-16.25
				c-1.657,0-3,1.344-3,3v22.088c-4.121-2.631-9.017-3.997-14.455-3.997c-7.945,0-14.948,3.106-20.813,9.233
				c-5.835,6.088-8.794,13.966-8.794,23.411c0,8.231,2.309,15.418,6.864,21.365c1.287,2.56,2.958,4.954,4.971,7.121
				c5.547,5.967,12.349,9.12,19.672,9.12c4.798,0,8.938-1.26,12.888-3.997l0.005,0.19c0.039,1.592,1.313,2.875,2.903,2.926
				l1.34,0.043c0.032,0.002,0.064,0.002,0.096,0.002h13.129h0.591c1.38,0,2.583-0.941,2.913-2.281l0.947-3.84
				c0.12-0.488,0.115-0.99-0.007-1.465v-79.92C185.007,11.41,183.664,10.066,182.007,10.066L182.007,10.066z M143.511,72.648
				c-0.082-0.656-0.123-1.345-0.123-2.054c0-3.655,1.017-6.605,3.11-9.019c1.983-2.288,4.253-3.4,6.939-3.4
				c2.668,0,4.879,1.085,6.76,3.316c1.292,1.535,2.146,3.288,2.602,5.345c-0.358,2.899-1.368,5.257-3.079,7.194
				c-2.074,2.35-4.494,3.492-7.399,3.492c-2.944,0-5.475-1.166-7.736-3.564C144.198,73.549,143.838,73.109,143.511,72.648
				L143.511,72.648z"/>
		</g>
		<g>
			<path fill="#472728" d="M302.725,99.737c-11.357,0-20.763-3.547-27.955-10.541c-6.261-6.088-9.893-13.65-10.794-22.478
				c-0.933-3.532-1.406-7.348-1.406-11.342c0-11.63,4.059-21.476,12.063-29.263c8.004-7.788,17.908-11.736,29.439-11.736
				c12.629,0,23.363,4.72,31.911,14.029c0.272,0.106,0.511,0.291,0.684,0.536c0.188,0.27,0.28,0.589,0.271,0.908
				c0.087,0.445-0.03,0.923-0.351,1.283l-0.139,0.156l-3.575,7.979c-0.062,0.137-0.143,0.264-0.242,0.376l-9.813,11.177
				c-0.285,0.325-0.695,0.511-1.127,0.511c-0.01,0-0.021,0-0.031,0c-0.441-0.01-0.857-0.213-1.136-0.558
				c-4.736-5.862-10.443-8.713-17.446-8.713c-5.59,0-10.233,1.767-14.197,5.399c-3.131,2.869-4.959,6.454-5.586,10.956
				c0.557,5.128,2.512,9.395,5.813,12.682c4.031,4.017,8.785,5.97,14.529,5.97c7.952,0,14.273-3.05,19.324-9.322
				c0.269-0.335,0.668-0.538,1.098-0.558c0.023-0.001,0.047-0.002,0.07-0.002c0.404,0,0.791,0.163,1.074,0.453l10.549,10.825
				c0.39,0.184,0.684,0.528,0.803,0.947c0.136,0.479,0.025,0.993-0.295,1.374l-4.079,4.854c-0.068,0.081-0.144,0.154-0.226,0.218
				C323.738,95.069,313.904,99.737,302.725,99.737z"/>
			<path fill="#472728" d="M304.072,15.878c12.382,0,22.766,4.598,31.154,13.927h0.212l-0.069,0.192
				c0.031,0.034,0.064,0.105,0.096,0.142l-0.291,0.328l-3.67,8.19l-9.813,11.177c-4.992-6.179-11.195-9.271-18.613-9.271
				c-5.936,0-10.998,1.933-15.211,5.794c-3.416,3.131-5.438,7.145-6.084,12.039c0.569,5.577,2.652,10.169,6.266,13.767
				c4.288,4.272,9.483,6.407,15.588,6.407c8.355,0,15.188-3.293,20.492-9.882l10.788,11.07l0.194,0.064l-4.079,4.854h-0.033
				c-8.004,9.055-17.429,13.56-28.274,13.56c-10.893,0-19.861-3.263-26.909-10.116c-6.06-5.893-9.512-13.12-10.36-21.672
				c-0.924-3.454-1.386-7.146-1.386-11.072c0-11.256,3.87-20.658,11.608-28.188C283.416,19.66,292.882,15.878,304.072,15.878
				 M304.072,12.878c-11.936,0-22.192,4.092-30.486,12.161c-8.305,8.08-12.517,18.287-12.517,30.338
				c0,4.081,0.479,7.985,1.426,11.611c0.958,9.137,4.735,16.97,11.229,23.283c7.481,7.276,17.238,10.966,29,10.966
				c11.597,0,21.783-4.812,30.283-14.305c0.115-0.099,0.223-0.208,0.321-0.325l4.079-4.854c0.641-0.761,0.861-1.791,0.59-2.748
				c-0.209-0.735-0.688-1.355-1.327-1.745l-10.394-10.665c-0.566-0.581-1.342-0.906-2.148-0.906c-0.047,0-0.095,0.001-0.142,0.003
				c-0.857,0.041-1.657,0.447-2.195,1.115c-4.748,5.897-10.687,8.764-18.155,8.764c-5.328,0-9.734-1.81-13.471-5.532
				c-3.056-3.043-4.811-6.839-5.359-11.595c0.601-4.057,2.267-7.289,5.087-9.874c3.676-3.368,7.988-5.006,13.185-5.006
				c6.521,0,11.846,2.668,16.279,8.156c0.557,0.688,1.388,1.096,2.272,1.113c0.021,0.001,0.041,0.001,0.062,0.001
				c0.862,0,1.685-0.371,2.254-1.021l9.813-11.177c0.198-0.226,0.361-0.479,0.484-0.753l3.48-7.77
				c0.591-0.675,0.829-1.549,0.715-2.384c-0.015-0.582-0.198-1.157-0.543-1.647c-0.265-0.379-0.609-0.685-1.002-0.902
				C328.082,17.689,317.043,12.878,304.072,12.878L304.072,12.878z"/>
		</g>
		<g>
			<path fill="#472728" d="M60.904,99.072c-0.476,0-0.923-0.226-1.206-0.607L40.24,72.163l-4.356,4.969v15.529
				c0.004,0.006,0.007,0.011,0.011,0.016c0.289,0.412,0.352,0.94,0.168,1.408l-1.581,4.034c-0.225,0.575-0.779,0.953-1.396,0.953
				H17.308c-0.829,0-1.5-0.672-1.5-1.5V17.731c0-0.828,0.671-1.5,1.5-1.5h17.076c0.829,0,1.5,0.672,1.5,1.5v27.257l26.175-28.275
				c0.284-0.307,0.683-0.481,1.101-0.481h21.038c0.592,0,1.128,0.348,1.37,0.888c0.119,0.266,0.155,0.553,0.115,0.829
				c0.01,0.257-0.046,0.517-0.17,0.753l-4.867,9.309c-0.059,0.113-0.133,0.219-0.219,0.313L57.473,53.585
				c2.795,3.887,6.84,9.524,12.14,16.952c1.932,2.708,3.729,5.237,5.394,7.579c4.397,6.186,7.871,11.071,10.392,14.443
				c0.34,0.455,0.394,1.063,0.14,1.57c-0.119,0.237-0.296,0.434-0.509,0.576c-0.001,0.001-4.746,4.012-4.746,4.012
				c-0.271,0.229-0.614,0.354-0.968,0.354H60.904z"/>
			<path fill="#472728" d="M84.197,17.731l-0.246,0.274h0.231l-4.867,9.309l-23.77,26.16c2.801,3.894,7.081,9.854,12.845,17.934
				c7.048,9.881,12.318,17.386,15.806,22.05h-3.456l3.316,0.105l-4.742,4.009H67.811h-0.003h-6.904L40.339,69.774l-5.955,6.793
				v16.891h-0.826v0.108l1.109-0.028l-1.581,4.034H17.308v-4.114V17.731h17.076v31.085l28.775-31.085H84.197 M84.197,14.731H63.159
				c-0.836,0-1.634,0.349-2.201,0.962L37.384,41.159V17.731c0-1.657-1.343-3-3-3H17.308c-1.657,0-3,1.343-3,3v75.727v4.114
				c0,1.657,1.343,3,3,3h15.777c1.234,0,2.343-0.756,2.793-1.905l1.581-4.034c0.303-0.772,0.27-1.628-0.076-2.366v-14.57
				l2.757-3.146l18.352,24.806c0.565,0.765,1.46,1.216,2.412,1.216h6.904h11.508c0.709,0,1.396-0.251,1.937-0.709l4.692-3.967
				c0.389-0.278,0.713-0.65,0.936-1.095c0.508-1.016,0.4-2.231-0.28-3.141c-2.511-3.357-5.979-8.236-10.371-14.414
				c-1.665-2.342-3.463-4.872-5.396-7.581C66.855,64.09,63.1,58.845,59.399,53.695l22.137-24.363c0.172-0.189,0.319-0.4,0.438-0.628
				l4.867-9.309c0.225-0.429,0.338-0.897,0.342-1.367c0.051-0.51-0.029-1.034-0.247-1.521C86.453,15.427,85.38,14.731,84.197,14.731
				L84.197,14.731z"/>
		</g>
		<g>
			<path fill="#472728" d="M93.609,99.072c-0.75,0-1.384-0.553-1.486-1.295l-0.562-4.078c-0.011-0.077-0.015-0.153-0.014-0.229
				V35.018c0-0.828,0.671-1.5,1.5-1.5h16.525c0.829,0,1.5,0.672,1.5,1.5v58.44c0,0.237-0.055,0.463-0.154,0.662l-0.658,3.714
				c-0.127,0.716-0.75,1.238-1.477,1.238H93.609z"/>
			<path fill="#472728" d="M109.573,35.018v58.44h-1.102v0.274h0.993l-0.68,3.84H93.609l-0.562-4.078l0.143-0.036h-0.143v-58.44
				H109.573 M109.573,32.018H93.048c-1.657,0-3,1.343-3,3v58.435c-0.002,0.149,0.007,0.3,0.028,0.451l0.562,4.078
				c0.204,1.484,1.473,2.591,2.972,2.591h15.175c1.455,0,2.7-1.044,2.954-2.477l0.627-3.538c0.134-0.341,0.208-0.712,0.208-1.1
				v-58.44C112.573,33.36,111.229,32.018,109.573,32.018L109.573,32.018z"/>
		</g>
		<g>
			<path fill="#472728" d="M101.196,33.578c-2.894,0-5.377-1.012-7.38-3.007c-1.593-1.588-2.567-3.49-2.895-5.655
				c-0.467-1.235-0.704-2.583-0.704-4.007c0-3.079,1.083-5.721,3.221-7.849c2.135-2.128,4.784-3.207,7.872-3.207
				c3.09,0,5.738,1.079,7.872,3.208c2.137,2.126,3.221,4.767,3.221,7.848c0,1.801-0.377,3.47-1.122,4.964
				c-0.444,1.774-1.353,3.354-2.704,4.699C106.574,32.566,104.091,33.578,101.196,33.578z"/>
			<path fill="#472728" d="M101.309,11.354c2.688,0,4.96,0.922,6.813,2.77c1.854,1.845,2.781,4.108,2.781,6.786
				c0,1.637-0.348,3.116-1.039,4.44c-0.363,1.576-1.142,2.962-2.345,4.159c-1.72,1.713-3.828,2.569-6.323,2.569
				c-2.496,0-4.602-0.856-6.322-2.569c-1.406-1.401-2.236-3.059-2.493-4.976c-0.442-1.108-0.665-2.315-0.665-3.624
				c0-2.678,0.927-4.941,2.779-6.786C96.35,12.275,98.62,11.354,101.309,11.354 M101.309,8.354c-3.5,0-6.504,1.227-8.931,3.645
				c-2.429,2.42-3.662,5.418-3.662,8.911c0,1.55,0.251,3.024,0.746,4.388c0.4,2.425,1.506,4.555,3.294,6.337
				c2.295,2.286,5.134,3.444,8.439,3.444s6.145-1.158,8.439-3.443c1.507-1.5,2.535-3.262,3.06-5.24
				c0.801-1.665,1.207-3.508,1.207-5.485c0-3.494-1.233-6.493-3.665-8.913C107.815,9.58,104.811,8.354,101.309,8.354L101.309,8.354z
				"/>
		</g>
		<g>
			<path fill="#472728" d="M218.547,99.861c-4.094,0-8.505-0.77-13.113-2.288c-4.402-1.449-8.543-3.719-12.308-6.747
				c-0.249-0.201-0.428-0.476-0.51-0.785l-1.039-3.92c-0.257-0.328-0.362-0.747-0.302-1.15c-0.084-0.422,0.018-0.863,0.282-1.207
				c0.191-0.249,0.453-0.428,0.746-0.519l6.423-9.119c0.235-0.334,0.597-0.558,1.002-0.619c0.075-0.011,0.149-0.017,0.224-0.017
				c0.329,0,0.652,0.108,0.916,0.313c5.802,4.474,12.059,6.742,18.595,6.742c0.892,0,1.688-0.083,2.383-0.247
				c-1.457-0.95-3.586-1.868-6.33-2.729c-3.037-0.952-5.398-1.783-7.016-2.471c-1.653-0.699-3.547-1.721-5.627-3.033
				c-4.555-2.827-6.87-7.07-6.87-12.607c0-0.303,0.009-0.602,0.024-0.897c-0.706-1.843-1.063-3.896-1.063-6.106
				c0-5.853,2.395-10.689,7.118-14.376c4.609-3.597,10.604-5.421,17.818-5.421c7.172,0,14.421,2.424,21.545,7.204
				c0.649,0.435,0.854,1.296,0.473,1.978l-0.049,0.088l-1.945,7.382c-0.033,0.124-0.081,0.242-0.143,0.354l-5.665,10.078
				c-0.111,0.197-0.265,0.365-0.446,0.493c0.846,0.445,1.746,0.952,2.696,1.52c4.537,2.746,6.833,7.324,6.833,13.612
				c0,3.953-0.96,7.47-2.855,10.458c-0.932,3.498-2.891,6.486-5.827,8.886C230.335,98.128,224.961,99.861,218.547,99.861z
				 M222.529,56.072c1.853,0.579,3.454,1.096,4.793,1.547c-1.644-0.735-3.283-1.265-4.913-1.585
				C222.449,56.047,222.489,56.06,222.529,56.072z"/>
			<path fill="#472728" d="M219.902,34.157c6.903,0,13.806,2.317,20.709,6.949l-0.142,0.254l-1.994,7.566l-5.665,10.078
				c-4.721-3.225-9.426-4.837-14.111-4.837c-1.699,0-3.086,0.171-4.169,0.507c1.626,0.819,4.143,1.764,7.552,2.829
				c3.706,1.158,6.339,2.047,7.902,2.66c1.562,0.615,3.434,1.574,5.615,2.877c4.067,2.462,6.102,6.57,6.102,12.324
				c0,3.774-0.919,7.056-2.747,9.849c-0.828,3.297-2.619,6.073-5.385,8.334c-3.945,3.224-8.952,4.813-15.022,4.813
				c-4.046,0-8.261-0.769-12.644-2.213c-4.385-1.443-8.331-3.671-11.836-6.491l-1.149-4.337c-0.052-0.042-0.105-0.082-0.158-0.124
				l0.092-0.128l-0.104-0.391h0.382l6.824-9.688c6.104,4.707,12.607,7.055,19.511,7.055c2.107,0,3.779-0.416,5.015-1.25
				c0.026-0.017,0.047-0.036,0.072-0.053c-0.394-0.55-0.961-1.077-1.705-1.582c-1.586-1.072-3.879-2.081-6.879-3.022
				c-3.001-0.94-5.295-1.747-6.878-2.42c-1.586-0.671-3.389-1.644-5.413-2.921c-4.114-2.553-6.171-6.332-6.171-11.339
				c0-0.387,0.017-0.768,0.04-1.144c-0.715-1.741-1.08-3.692-1.08-5.86c0-5.392,2.18-9.79,6.541-13.193
				C207.366,35.858,212.998,34.157,219.902,34.157 M219.902,31.157c-7.557,0-13.862,1.931-18.741,5.738
				c-5.106,3.985-7.695,9.22-7.695,15.559c0,2.278,0.354,4.408,1.052,6.345c-0.009,0.233-0.013,0.45-0.013,0.659
				c0,5.191,1.962,9.484,5.702,12.543c-0.084-0.007-0.168-0.011-0.253-0.011c-0.149,0-0.299,0.011-0.449,0.033
				c-0.809,0.123-1.533,0.57-2.004,1.239l-6.183,8.777c-0.365,0.198-0.689,0.472-0.949,0.81c-0.475,0.618-0.688,1.393-0.603,2.156
				c-0.038,0.607,0.109,1.219,0.428,1.746l0.973,3.674c0.164,0.618,0.521,1.168,1.02,1.569c3.905,3.142,8.205,5.497,12.779,7.003
				c4.758,1.568,9.328,2.363,13.582,2.363c6.769,0,12.462-1.848,16.92-5.49c3.124-2.553,5.23-5.727,6.268-9.439
				c1.969-3.189,2.966-6.909,2.966-11.066c0-6.849-2.54-11.859-7.549-14.891c-0.446-0.267-0.88-0.52-1.3-0.758l5.239-9.32
				c0.125-0.222,0.221-0.459,0.286-0.705l1.899-7.204c0.7-1.35,0.279-3.019-0.992-3.872
				C234.908,33.666,227.378,31.157,219.902,31.157L219.902,31.157z M211.584,77.86c-0.779-0.242-1.552-0.521-2.319-0.839
				C209.955,77.286,210.726,77.565,211.584,77.86L211.584,77.86z"/>
		</g>
		<g>
			<path fill="#472728" d="M372.545,99.908c-8.631,0-15.912-2.857-21.64-8.492c-3.268-3.217-5.64-6.919-7.05-11.007
				c-2.802-4.709-4.223-10.113-4.223-16.064c0-8.845,3.12-16.419,9.274-22.513c6.151-6.088,13.97-9.175,23.237-9.175
				s17.086,3.087,23.237,9.174c6.154,6.095,9.274,13.669,9.274,22.514c0,4.56-0.836,8.818-2.486,12.66
				c-1.146,5.477-3.834,10.324-7.987,14.411C388.457,97.051,381.177,99.908,372.545,99.908z M360.573,71.674
				c0.573,1.224,1.318,2.345,2.218,3.336c2.448,2.701,5.509,4.014,9.354,4.014s6.905-1.313,9.354-4.014
				c1.408-1.553,2.426-3.406,3.026-5.514c-0.173-3.628-1.281-6.536-3.387-8.885c-2.253-2.513-5.063-3.734-8.593-3.734
				c-3.531,0-6.343,1.222-8.595,3.734c-2.296,2.561-3.411,5.793-3.411,9.883C360.539,70.895,360.551,71.287,360.573,71.674z"/>
			<path fill="#472728" d="M372.145,34.157c8.901,0,16.295,2.914,22.183,8.74c5.886,5.829,8.829,12.978,8.829,21.447
				c0,4.436-0.81,8.503-2.424,12.206c-1.072,5.264-3.604,9.863-7.602,13.796c-5.463,5.376-12.326,8.062-20.586,8.062
				c-8.263,0-15.123-2.686-20.588-8.062c-3.158-3.108-5.4-6.633-6.733-10.572c-2.726-4.523-4.091-9.666-4.091-15.43
				c0-8.47,2.943-15.618,8.83-21.447C355.85,37.071,363.242,34.157,372.145,34.157 M372.145,80.523c4.251,0,7.739-1.5,10.465-4.506
				c1.63-1.797,2.769-3.915,3.424-6.349c-0.148-4.062-1.408-7.414-3.778-10.059c-2.529-2.821-5.765-4.233-9.71-4.233
				s-7.184,1.412-9.712,4.233c-2.529,2.821-3.794,6.448-3.794,10.884c0,0.528,0.02,1.045,0.055,1.551
				c0.651,1.462,1.512,2.788,2.586,3.973C364.405,79.023,367.894,80.523,372.145,80.523 M372.145,31.157
				c-9.678,0-17.851,3.232-24.292,9.608c-6.45,6.387-9.72,14.319-9.72,23.579c0,6.17,1.465,11.786,4.355,16.699
				c1.492,4.251,3.969,8.099,7.364,11.44c6.02,5.922,13.654,8.924,22.692,8.924c9.039,0,16.674-3.002,22.69-8.924
				c4.331-4.261,7.146-9.314,8.372-15.025c1.691-3.994,2.549-8.404,2.549-13.114c0-9.259-3.27-17.192-9.718-23.579
				C389.995,34.39,381.821,31.157,372.145,31.157L372.145,31.157z M362.057,71.295c-0.012-0.27-0.018-0.538-0.018-0.801
				c0-3.703,0.99-6.608,3.027-8.881c1.952-2.178,4.397-3.236,7.479-3.236c3.078,0,5.524,1.059,7.477,3.236
				c1.817,2.028,2.799,4.553,2.991,7.707c-0.547,1.805-1.408,3.34-2.625,4.682c-2.149,2.369-4.845,3.521-8.243,3.521
				s-6.094-1.152-8.242-3.521C363.167,73.191,362.548,72.283,362.057,71.295L362.057,71.295z"/>
		</g>
		<g>
			<path fill="#472728" d="M439.41,99.908c-6.88,0-13.071-2.907-18.401-8.641c-2.86-3.078-4.98-6.62-6.302-10.527
				c-2.801-4.916-4.221-10.614-4.221-16.938c0-9.045,2.818-16.573,8.378-22.375c5.573-5.818,12.211-8.77,19.729-8.77
				c6.296,0,11.646,1.826,15.955,5.436V13.066c0-0.828,0.672-1.5,1.5-1.5h16.25c0.828,0,1.5,0.672,1.5,1.5v80.24
				c0.033,0.262-0.004,0.531-0.11,0.779l-1.752,4.078c-0.236,0.551-0.778,0.908-1.378,0.908h-15.063c-0.828,0-1.5-0.672-1.5-1.5
				v-3.275C450,97.981,445.024,99.908,439.41,99.908z M431.308,71.312c0.613,1.347,1.446,2.583,2.479,3.677
				c2.561,2.716,5.447,4.035,8.827,4.035c3.359,0,6.146-1.308,8.521-3.998c1.359-1.541,2.345-3.368,2.932-5.437
				c-0.164-3.593-1.279-6.641-3.318-9.063c-2.184-2.59-4.771-3.85-7.908-3.85c-3.146,0-5.786,1.281-8.07,3.917
				c-2.34,2.698-3.477,5.97-3.477,10.002C431.293,70.837,431.299,71.075,431.308,71.312z"/>
			<path fill="#472728" d="M472.299,13.066v80.392h-0.16l0.172,0.036l-1.752,4.078h-15.063v-7.126
				c-4.13,5.309-9.647,7.962-16.086,7.962c-6.441,0-12.244-2.721-17.303-8.162c-2.77-2.98-4.773-6.357-6.025-10.123
				c-2.729-4.734-4.096-10.174-4.096-16.321c0-8.688,2.656-15.801,7.961-21.337c5.305-5.539,11.523-8.308,18.646-8.308
				c7.121,0,13.047,2.497,17.455,7.493V13.066H472.299 M442.613,80.523c3.778,0,6.993-1.5,9.646-4.506
				c1.57-1.779,2.674-3.865,3.314-6.255c-0.139-4.054-1.366-7.456-3.679-10.203c-2.464-2.923-5.481-4.384-9.056-4.384
				s-6.643,1.479-9.204,4.435c-2.563,2.957-3.843,6.618-3.843,10.984c0,0.362,0.012,0.716,0.029,1.066
				c0.694,1.609,1.652,3.063,2.873,4.356C435.529,79.023,438.834,80.523,442.613,80.523 M472.299,10.066h-16.25
				c-1.657,0-3,1.344-3,3v22.088c-4.121-2.631-9.018-3.997-14.455-3.997c-7.943,0-14.946,3.106-20.813,9.232
				c-5.835,6.09-8.794,13.968-8.794,23.412c0,6.534,1.462,12.438,4.347,17.556c1.393,4.056,3.604,7.732,6.577,10.931
				c5.626,6.052,12.187,9.12,19.5,9.12c4.88,0,9.307-1.359,13.086-3.983v0.147c0,1.656,1.343,3,3,3h15.063
				c1.199,0,2.283-0.714,2.757-1.816l1.752-4.078c0.198-0.461,0.274-0.96,0.231-1.448V13.066
				C475.299,11.41,473.956,10.066,472.299,10.066L472.299,10.066z M432.797,70.954c-0.002-0.119-0.004-0.238-0.004-0.359
				c0-3.655,1.018-6.605,3.109-9.02c1.982-2.288,4.252-3.399,6.938-3.399c2.668,0,4.88,1.085,6.762,3.317
				c1.801,2.139,2.77,4.733,2.953,7.919c-0.533,1.773-1.368,3.288-2.544,4.62c-2.074,2.349-4.493,3.491-7.397,3.491
				c-2.944,0-5.475-1.166-7.735-3.564C434.027,73.057,433.329,72.049,432.797,70.954L432.797,70.954z"/>
		</g>
		<g>
			<path fill="#472728" d="M515.463,99.908c-8.62,0-15.858-2.697-21.514-8.017c-3.467-3.258-5.911-7.245-7.268-11.854
				c-2.395-4.505-3.609-9.821-3.609-15.802c0-9.593,3.151-17.346,9.365-23.041c6.179-5.665,13.576-8.538,21.986-8.538
				c8.382,0,15.616,2.569,21.504,7.638c5.924,5.104,8.928,12.208,8.928,21.117v8.724c0,0.227-0.05,0.44-0.14,0.633l-1.779,5.33
				c-0.204,0.612-0.777,1.025-1.423,1.025h-8.152l5.582,6.083c0.367,0.073,0.697,0.281,0.921,0.59
				c0.235,0.324,0.329,0.725,0.269,1.113c0.008,0.069,0.011,0.141,0.01,0.211c-0.009,0.352-0.141,0.687-0.368,0.948l-1.288,3.951
				c-0.077,0.239-0.214,0.455-0.397,0.627C531.563,96.793,523.95,99.908,515.463,99.908z M507.318,77.124
				c2.401,1.523,5.087,2.295,7.998,2.295c3.552,0,6.614-0.755,9.266-2.295H507.318z M518.931,57.112
				c-1.207-0.457-2.558-0.683-4.073-0.683c-1.471,0-2.845,0.226-4.146,0.683H518.931z"/>
			<path fill="#472728" d="M514.424,34.157c8.066,0,14.893,2.426,20.525,7.274c5.631,4.851,8.406,11.511,8.406,19.98v8.724h-0.01
				l-1.832,5.488h-11.564l8.309,9.054h0.393l-0.102,0.311l0.094,0.097c-0.061,0.057-0.121,0.111-0.18,0.167l-1.402,4.304
				c-6.137,5.778-13.338,8.853-21.598,8.853c-8.262,0-15.092-2.535-20.486-7.609c-3.32-3.12-5.621-6.897-6.898-11.33
				c-2.334-4.329-3.506-9.406-3.506-15.232c0-9.192,2.955-16.506,8.879-21.936C499.373,36.871,506.357,34.157,514.424,34.157
				 M505.475,58.612h18.109c-0.332-0.548-0.695-0.798-1.088-1.127c-2.092-1.746-4.639-2.556-7.639-2.556s-5.75,0.865-8.244,2.679
				C506.205,57.905,505.828,58.064,505.475,58.612 M515.316,80.919c5.482,0,10.035-1.729,13.664-5.295h-25.693
				c0.684,0.823,1.494,1.561,2.438,2.233C508.559,79.886,511.756,80.919,515.316,80.919 M514.424,31.157
				c-8.797,0-16.536,3.005-23,8.933c-6.537,5.991-9.852,14.115-9.852,24.146c0,6.17,1.249,11.676,3.714,16.371
				c1.44,4.807,4.009,8.969,7.636,12.378c5.942,5.589,13.526,8.423,22.541,8.423c8.883,0,16.841-3.253,23.654-9.668
				c0.366-0.346,0.64-0.777,0.796-1.255l1.209-3.712c0.322-0.474,0.506-1.033,0.52-1.615c0.002-0.073,0.001-0.146-0.003-0.219
				c0.063-0.713-0.131-1.432-0.56-2.022c-0.334-0.461-0.787-0.811-1.301-1.019l-3.004-3.274h4.739c1.291,0,2.437-0.825,2.846-2.05
				l1.761-5.275c0.151-0.357,0.235-0.751,0.235-1.163v-8.724c0-9.365-3.179-16.853-9.448-22.254
				C530.739,33.85,523.175,31.157,514.424,31.157L514.424,31.157z"/>
		</g>
	</g>
	<g>
		<g>
			<polygon fill="#CCCCCC" points="108.361,43.782 93.361,43.782 93.361,93.68 92.976,93.714 93.537,97.782 108.711,97.782 
				109.392,93.782 108.361,93.782 			"/>
			<path fill="#CCCCCC" d="M101.125,14.188c-2.496,0-4.603,0.859-6.322,2.579s-2.58,3.828-2.58,6.322c0,2.496,0.86,4.603,2.58,6.322
				s3.826,2.579,6.322,2.579c2.494,0,4.603-0.859,6.322-2.579s2.58-3.826,2.58-6.322c0-2.494-0.86-4.603-2.58-6.322
				S103.619,14.188,101.125,14.188z"/>
			<path fill="#CCCCCC" d="M181.361,22.782h-15v26.629c-5-4.653-9.803-6.98-16.412-6.98c-6.61,0-12.49,2.58-17.412,7.739
				c-4.924,5.158-7.441,11.784-7.441,19.877c0,8.092,2.5,14.87,7.558,20.333c5.058,5.462,11.02,8.193,17.46,8.193
				c6.439,0,11.246-2.664,16.246-7.992v3.092l-0.439-0.016l0.099,4.106l1.341,0.019l0,0h13.129h0.591l0.947-4h-0.667V22.782z
				 M162.417,81.427c-2.463,2.8-5.447,4.198-8.953,4.198c-3.507,0-6.575-1.398-9.205-4.198c-2.63-2.798-3.945-6.389-3.945-10.772
				c0-4.383,1.28-8.059,3.843-11.026c2.562-2.967,5.63-4.451,9.206-4.451c3.574,0,6.591,1.467,9.054,4.4
				c2.46,2.934,3.692,6.609,3.692,11.026C166.11,75.021,164.878,78.629,162.417,81.427z"/>
			<path fill="#CCCCCC" d="M218.624,54.166c4.686,0,9.39,1.617,14.111,4.854l5.665-10.116l2.044-7.789l-5.083,0.667v5.257
				c-5.394-3.059-10.787-4.608-16.181-4.608c-6.407,0-11.633,1.586-15.679,4.755c-4.046,3.17-6.07,7.268-6.07,12.29
				c0,5.025,2.056,8.818,6.17,11.381c2.023,1.282,3.827,2.26,5.412,2.934c1.584,0.675,3.877,1.484,6.879,2.428
				c3,0.945,5.293,1.957,6.879,3.034c1.583,1.079,2.376,2.261,2.376,3.541c0,1.281-0.574,2.311-1.719,3.085
				c-1.147,0.775-2.698,1.164-4.653,1.164c-6.407,0-12.599-2.191-18.264-6.576l-4.151,5.691v-1.375h-3.688l1.319,5.006
				c3.506,2.832,7.451,5.067,11.835,6.517c4.383,1.449,8.598,2.222,12.645,2.222c6.069,0,11.077-1.596,15.022-4.832
				c3.945-3.236,5.917-7.524,5.917-12.887c0-5.36-1.889-9.182-5.664-11.475c-2.023-1.214-3.761-2.104-5.21-2.678
				c-1.451-0.572-3.895-1.396-7.334-2.477c-3.439-1.078-5.902-2.023-7.385-2.833c-1.483-0.809-2.225-1.92-2.225-3.337
				C211.594,55.447,213.936,54.166,218.624,54.166z"/>
			<path fill="#CCCCCC" d="M303,40.509c7.418,0,13.623,3.104,18.613,9.307l9.813-11.221l3.936-8.813h-3l-6.893,3.227
				c-6.636-5.105-14.359-7.618-23.176-7.618c-10.387,0-19.169,3.529-26.352,10.543c-7.182,7.015-10.773,15.776-10.773,26.262
				c0,10.487,3.522,19.175,10.572,26.054c7.045,6.879,16.016,10.149,26.906,10.149c10.846,0,20.27-4.616,28.274-13.616h0.034
				l4.078-4.869l-8.672-2.787v2.673l-5.252-5.2c-4.924,6.138-11.365,9.205-19.119,9.205c-5.665,0-10.539-1.988-14.518-5.968
				c-3.979-3.979-5.992-9.256-5.992-15.831s2.094-11.801,6.309-15.68C292.004,42.448,297.066,40.509,303,40.509z"/>
			<path fill="#CCCCCC" d="M372.465,42.431c-8.262,0-15.123,2.716-20.586,8.144c-5.461,5.43-8.193,12.088-8.193,19.979
				c0,7.89,2.732,14.533,8.193,19.929c5.463,5.396,12.324,8.092,20.586,8.092c8.26,0,15.123-2.696,20.586-8.092
				s8.193-12.039,8.193-19.929c0-7.891-2.73-14.549-8.193-19.979C387.588,45.146,380.725,42.431,372.465,42.431z M382.176,81.427
				c-2.529,2.8-5.766,4.198-9.711,4.198s-7.182-1.398-9.711-4.198c-2.529-2.798-3.793-6.424-3.793-10.874
				c0-4.451,1.264-8.093,3.793-10.925s5.766-4.249,9.711-4.249s7.182,1.417,9.711,4.249s3.793,6.474,3.793,10.925
				C385.969,75.003,384.705,78.629,382.176,81.427z"/>
			<path fill="#CCCCCC" d="M470.361,22.782h-14v26.629c-4-4.653-10.605-6.98-17.215-6.98s-12.389,2.58-17.312,7.739
				c-4.923,5.158-7.392,11.784-7.392,19.877c0,8.092,2.525,14.87,7.583,20.333c5.059,5.462,10.833,8.193,17.274,8.193
				c6.439,0,12.061-2.664,16.061-7.992v7.201h15.115l1.754-4.068l-1.869-0.137V22.782z M451.814,81.427
				c-2.463,2.8-5.447,4.198-8.953,4.198c-3.508,0-6.574-1.398-9.205-4.198c-2.63-2.798-3.945-6.389-3.945-10.772
				c0-4.383,1.281-8.059,3.844-11.026c2.563-2.967,5.631-4.451,9.205-4.451s6.592,1.467,9.055,4.4
				c2.461,2.934,3.691,6.609,3.691,11.026C455.506,75.021,454.275,78.629,451.814,81.427z"/>
			<path fill="#CCCCCC" d="M84.111,17.782h-3l-12.966,9H59.72L33.361,56.087V26.782h-16v71h15.654l1.519-4.074l-1.173,0.005V77.734
				l6.907-7.88l20.564,27.928h6.907h-0.004h11.507l4.743-4l-7.725-0.188c-3.017-4.224-6.905-9.687-11.686-16.415
				c-6.542-9.205-11.026-15.493-13.454-18.866L79.243,27.18L84.111,17.782z"/>
			<path fill="#CCCCCC" d="M543.264,70.153l-1.902-0.234v-2.098c0-7.89-2.58-14.094-7.807-18.613
				c-5.227-4.517-11.564-6.777-19.051-6.777c-7.484,0-13.967,2.529-19.463,7.587c-5.498,5.058-8.24,11.871-8.24,20.435
				c0,8.564,2.699,15.393,8.096,20.483c5.395,5.093,12.223,7.638,20.484,7.638c8.26,0,15.461-3.087,21.598-8.887l1.59-4.904h-3
				l-0.951,2.346l-6.135-6.553c-3.439,3.575-7.824,5.408-13.15,5.408c-3.305,0-6.271-0.986-8.902-2.875s-4.182-4.326-4.652-7.326
				h39.652L543.264,70.153z M502.182,64.782c0.404-3,1.854-5.41,4.35-7.23c2.494-1.82,5.242-2.655,8.244-2.655
				c3,0,5.547,0.763,7.637,2.516c2.09,1.754,3.303,4.37,3.643,7.37H502.182z"/>
		</g>
		<g>
			<path fill="#FFFFFF" d="M17.308,17.51h17.004v31.283L63.088,17.51h21.037L53.823,51.191c2.616,3.634,7.448,10.409,14.497,20.328
				c7.048,9.919,12.317,17.314,15.805,22.182H64.287L41.942,63.617l-7.63,8.502v21.582H17.308V17.51z"/>
			<path fill="#FFFFFF" d="M94.425,27.593c-1.853-1.854-2.78-4.123-2.78-6.813c0-2.688,0.927-4.96,2.78-6.813
				c1.853-1.854,4.124-2.779,6.813-2.779c2.688,0,4.959,0.926,6.813,2.779c1.853,1.853,2.78,4.125,2.78,6.813
				c0,2.689-0.927,4.959-2.78,6.813c-1.853,1.853-4.125,2.779-6.813,2.779C98.548,30.372,96.278,29.445,94.425,27.593z
				 M109.413,93.701H93.062V35.06h16.351V93.701z"/>
			<path fill="#FFFFFF" d="M148.379,94.573c-6.94,0-13.134-2.943-18.584-8.829s-8.175-13.189-8.175-21.909
				s2.651-15.859,7.957-21.418c5.303-5.56,11.517-8.339,18.639-8.339c7.121,0,12.934,2.507,17.44,7.521V12.823h16.35v80.878h-16.35
				v-7.739C161.078,91.703,155.317,94.573,148.379,94.573z M138.079,64.489c0,4.725,1.417,8.594,4.251,11.608
				c2.834,3.017,6.14,4.523,9.919,4.523c3.777,0,6.993-1.507,9.646-4.523c2.651-3.015,3.979-6.902,3.979-11.663
				c0-4.759-1.327-8.72-3.979-11.881c-2.653-3.161-5.905-4.741-9.756-4.741c-3.853,0-7.158,1.599-9.919,4.796
				C139.458,55.807,138.079,59.767,138.079,64.489z"/>
			<path fill="#FFFFFF" d="M241.626,75.443c0,5.777-2.125,10.41-6.376,13.897c-4.251,3.488-9.646,5.232-16.187,5.232
				c-4.36,0-8.902-0.782-13.625-2.344c-4.725-1.562-8.976-3.869-12.753-6.921l7.193-10.246c6.104,4.725,12.607,7.085,19.511,7.085
				c2.107,0,3.778-0.418,5.014-1.254c1.234-0.834,1.853-1.943,1.853-3.324c0-1.38-0.854-2.652-2.561-3.815
				c-1.708-1.161-4.18-2.251-7.412-3.27c-3.234-1.017-5.706-1.889-7.412-2.616c-1.708-0.726-3.651-1.779-5.832-3.161
				c-4.433-2.761-6.649-6.848-6.649-12.263c0-5.412,2.18-9.827,6.54-13.243c4.36-3.415,9.991-5.123,16.895-5.123
				c6.903,0,13.806,2.326,20.71,6.976l-6.104,10.9c-5.087-3.488-10.156-5.231-15.206-5.231c-5.051,0-7.575,1.381-7.575,4.142
				c0,1.526,0.799,2.725,2.397,3.597c1.598,0.872,4.251,1.891,7.957,3.052c3.706,1.164,6.339,2.055,7.903,2.671
				c1.562,0.618,3.434,1.581,5.614,2.889C239.591,65.543,241.626,69.667,241.626,75.443z"/>
			<path fill="#FFFFFF" d="M303.56,78.659c8.355,0,15.187-3.306,20.491-9.919l10.9,11.227c-8.648,9.739-18.84,14.606-30.574,14.606
				c-11.736,0-21.401-3.706-28.994-11.118c-7.594-7.412-11.39-16.768-11.39-28.067c0-11.299,3.869-20.728,11.609-28.285
				c7.738-7.558,17.203-11.336,28.395-11.336c12.497,0,22.961,4.76,31.391,14.278l-10.572,11.99
				c-5.379-6.685-12.063-10.028-20.057-10.028c-6.395,0-11.863,2.09-16.404,6.268c-4.541,4.18-6.813,9.811-6.813,16.896
				s2.143,12.771,6.432,17.059C292.26,76.517,297.455,78.659,303.56,78.659z"/>
			<path fill="#FFFFFF" d="M403.076,64.38c0,8.502-2.943,15.66-8.828,21.474c-5.887,5.814-13.281,8.72-22.182,8.72
				c-8.902,0-16.297-2.905-22.182-8.72c-5.887-5.813-8.83-12.972-8.83-21.474s2.943-15.677,8.83-21.527
				c5.885-5.849,13.279-8.774,22.182-8.774c8.9,0,16.295,2.926,22.182,8.774C400.133,48.703,403.076,55.878,403.076,64.38z
				 M357.514,64.38c0,4.796,1.363,8.703,4.088,11.718c2.725,3.017,6.213,4.523,10.465,4.523c4.25,0,7.738-1.507,10.463-4.523
				c2.726-3.015,4.088-6.922,4.088-11.718s-1.362-8.72-4.088-11.771c-2.725-3.052-6.213-4.578-10.463-4.578
				c-4.252,0-7.74,1.526-10.465,4.578S357.514,59.584,357.514,64.38z"/>
			<path fill="#FFFFFF" d="M438.664,94.573c-6.941,0-13.135-2.943-18.586-8.829c-5.449-5.886-8.174-13.189-8.174-21.909
				s2.651-15.859,7.957-21.418c5.303-5.56,11.516-8.339,18.639-8.339c7.121,0,12.934,2.507,17.439,7.521V12.823h16.35v80.878h-16.35
				v-7.739C451.361,91.703,445.602,94.573,438.664,94.573z M428.363,64.489c0,4.725,1.416,8.594,4.25,11.608
				c2.834,3.017,6.141,4.523,9.92,4.523c3.777,0,6.992-1.507,9.646-4.523c2.651-3.015,3.979-6.902,3.979-11.663
				c0-4.759-1.327-8.72-3.979-11.881c-2.654-3.161-5.904-4.741-9.756-4.741c-3.853,0-7.158,1.599-9.919,4.796
				C429.742,55.807,428.363,59.767,428.363,64.489z"/>
			<path fill="#FFFFFF" d="M538.561,85.199c-6.613,6.25-14.371,9.374-23.271,9.374c-8.902,0-16.26-2.742-22.072-8.229
				c-5.814-5.486-8.721-12.844-8.721-22.072c0-9.228,2.959-16.568,8.883-22.019c5.922-5.45,12.918-8.175,20.982-8.175
				c8.066,0,14.914,2.436,20.547,7.303c5.631,4.869,8.447,11.555,8.447,20.057v8.72h-42.727c0.506,3.198,2.18,5.814,5.014,7.848
				c2.834,2.035,6.029,3.053,9.592,3.053c5.738,0,10.463-1.925,14.17-5.777L538.561,85.199z M522.863,50.428
				c-2.252-1.889-4.996-2.834-8.229-2.834c-3.234,0-6.195,0.981-8.883,2.943c-2.689,1.962-4.252,4.615-4.688,7.957h25.723
				C526.424,55.006,525.115,52.318,522.863,50.428z"/>
		</g>
	</g>
	<g>
		<g opacity="0.6">
			<path d="M202.896,162.724c0,0.025,0.001,0.05,0.002,0.076c0.055,1.906,1.399,3.493,3.193,3.912
				c0.025,0.005,0.052,0.007,0.076,0.013c5.921,1.478,10.304,6.835,10.291,13.213c-0.01,6.372-4.405,11.713-10.327,13.173
				c-1.861,0.387-3.265,2.022-3.293,3.994l-0.005,3.088l-0.009,4.832c-0.01,6.056,4.935,11.02,10.992,11.029l16.34,0.029
				l8.564,0.015l16.34,0.028c6.056,0.01,11.019-4.936,11.03-10.991l0.005-3.479l0.008-4.391c0.004-1.993,1.417-3.656,3.295-4.046
				c5.922-1.459,10.316-6.801,10.327-13.173c0.012-6.378-4.37-11.735-10.291-13.213c-0.025-0.005-0.051-0.008-0.076-0.013
				c-1.795-0.42-3.141-2.006-3.193-3.913c-0.001-0.024-0.001-0.05-0.001-0.075l-0.001-0.001l0.005-3.089l0.009-4.832
				c0.011-6.056-4.935-11.018-10.991-11.028l-16.34-0.029l-8.564-0.014l-16.34-0.028c-6.057-0.012-11.02,4.935-11.031,10.99
				l-0.005,3.479l-0.008,4.39C202.898,162.688,202.896,162.705,202.896,162.724L202.896,162.724z"/>
		</g>
		<g opacity="0.6">
			<path d="M282.408,162.724c0,0.025,0,0.05,0.001,0.076c0.056,1.906,1.399,3.493,3.193,3.912c0.025,0.005,0.052,0.007,0.076,0.013
				c5.921,1.478,10.304,6.835,10.291,13.213c-0.01,6.372-4.405,11.713-10.327,13.173c-1.861,0.387-3.265,2.022-3.293,3.994
				l-0.005,3.088l-0.009,4.832c-0.01,6.056,4.935,11.02,10.992,11.029l16.34,0.029l8.564,0.015l16.34,0.028
				c6.056,0.01,11.019-4.936,11.03-10.991l0.005-3.479l0.008-4.391c0.004-1.993,1.417-3.656,3.296-4.046
				c5.921-1.459,10.315-6.801,10.326-13.173c0.012-6.378-4.37-11.735-10.291-13.213c-0.025-0.005-0.05-0.008-0.076-0.013
				c-1.795-0.42-3.141-2.006-3.193-3.913c-0.001-0.024-0.001-0.05-0.001-0.075l-0.001-0.001l0.005-3.089l0.009-4.832
				c0.011-6.056-4.935-11.018-10.991-11.028l-16.34-0.029l-8.564-0.014l-16.34-0.028c-6.057-0.012-11.02,4.935-11.03,10.99
				l-0.006,3.479l-0.008,4.39c0,0.018-0.001,0.035-0.003,0.053L282.408,162.724z"/>
		</g>
		<g opacity="0.6">
			<path d="M95.288,180.345c0,19.338,15.155,35.124,34.232,36.16c0.396,0.042,0.796,0.065,1.2,0.065h2.443h31.884h-6.816h15.818
				c6.073,0,11.043-4.968,11.043-11.042v-7.892c0-2,1.414-3.669,3.296-4.063c5.937-1.474,10.336-6.838,10.336-13.229
				c0-6.395-4.404-11.762-10.344-13.233c-0.026-0.006-0.052-0.008-0.077-0.012c-1.801-0.418-3.152-2.007-3.21-3.919
				c-0.001-0.024-0.001-0.051-0.001-0.076v-0.002l-0.001-0.049l0.001-0.004v-7.891c0-4.515-2.749-8.421-6.657-10.125
				c-1.345-0.589-2.828-0.916-4.386-0.916h-15.818h6.816h-34.327c-0.404,0-0.805,0.023-1.2,0.067
				C110.443,145.221,95.288,161.008,95.288,180.345z"/>
		</g>
		<g opacity="0.6">
			<g>
				<g>
					<g>
						<g>
							<path d="M364.026,193.404c-1.921,0.402-3.363,2.104-3.364,4.145l0.001,8.048c0,6.193,5.067,11.261,11.262,11.261h57.151
								c0.26-0.001,0.518-0.012,0.773-0.029c19.746-0.746,35.526-16.987,35.526-36.917c0-19.928-15.78-36.17-35.526-36.915
								c-0.256-0.017-0.514-0.03-0.774-0.03h-57.15c-6.194,0-11.263,5.066-11.263,11.261v8.103h0.001
								c0,0.027,0.001,0.052,0.001,0.077c0.06,1.951,1.438,3.571,3.275,3.995c0.025,0.007,0.051,0.008,0.077,0.015
								c6.058,1.501,10.55,6.974,10.55,13.495C374.566,186.431,370.08,191.899,364.026,193.404z"/>
						</g>
					</g>
				</g>
			</g>
		</g>
		<g>
			<path fill="#FFDF11" d="M213.815,213.538c-3.196-0.005-6.207-1.263-8.478-3.541s-3.518-5.293-3.513-8.49l0.014-7.92
				c0.034-2.401,1.754-4.486,4.09-4.971c5.587-1.379,9.521-6.397,9.53-12.196c0.012-5.804-3.909-10.837-9.533-12.24
				c-2.33-0.54-3.96-2.537-4.027-4.867l0.012-8.026c0.013-6.612,5.4-11.99,12.01-11.99l41.268,0.071
				c6.623,0.012,12.001,5.409,11.989,12.031l-0.014,7.92c0.041,1.469,1.037,2.689,2.423,3.014
				c6.608,1.643,11.151,7.476,11.139,14.201c-0.012,6.721-4.57,12.536-11.088,14.143c-1.481,0.308-2.531,1.598-2.534,3.076
				l-0.013,7.868c-0.013,6.611-5.402,11.99-12.012,11.99C255.079,213.61,213.815,213.538,213.815,213.538z"/>
			<path fill="#5C0000" d="M213.921,140.296c0.007,0,0.015,0,0.021,0l16.34,0.028l8.564,0.014l16.34,0.029
				c6.057,0.011,11.002,4.973,10.991,11.029l-0.009,4.831l-0.005,3.089l0.001,0.001c0,0.025,0,0.051,0.001,0.075
				c0.053,1.907,1.398,3.493,3.193,3.913c0.025,0.005,0.051,0.008,0.076,0.013c5.921,1.478,10.303,6.835,10.291,13.213
				c-0.011,6.372-4.405,11.714-10.327,13.174c-1.878,0.389-3.291,2.052-3.295,4.045l-0.008,4.391l-0.005,3.479
				c-0.012,6.051-4.965,10.991-11.013,10.991c-0.006,0-0.012,0-0.018,0l-16.34-0.028l-8.564-0.014l-16.34-0.03
				c-6.058-0.01-11.002-4.973-10.992-11.029l0.009-4.832l0.005-3.088c0.028-1.972,1.432-3.607,3.293-3.993
				c5.922-1.461,10.317-6.802,10.327-13.174c0.013-6.378-4.37-11.735-10.291-13.213c-0.024-0.006-0.051-0.008-0.076-0.012
				c-1.794-0.42-3.139-2.007-3.193-3.913c-0.001-0.026-0.002-0.051-0.002-0.076l-0.001-0.001c0.001-0.018,0.003-0.035,0.003-0.053
				l0.008-4.39l0.005-3.478C202.923,145.237,207.874,140.296,213.921,140.296 M213.921,138.296c-7.16,0-12.996,5.826-13.01,12.987
				l-0.005,3.479l-0.008,4.335l-0.049,0.893l0.119,0.119c0.375,2.439,2.208,4.46,4.667,5.036l0.075,0.018l0.061,0.01
				c5.123,1.313,8.698,5.928,8.688,11.246c-0.008,5.328-3.615,9.94-8.775,11.229c-2.77,0.594-4.804,3.074-4.845,5.914l-0.005,3.113
				l-0.009,4.831c-0.006,3.464,1.346,6.73,3.804,9.198c2.459,2.467,5.721,3.829,9.185,3.835l16.339,0.03l8.565,0.014l16.339,0.028
				c7.183,0,13.02-5.826,13.034-12.987l0.005-3.479l0.008-4.39c0.002-1.008,0.717-1.887,1.7-2.09l0.037-0.008l0.036-0.01
				c6.964-1.717,11.837-7.931,11.849-15.111c0.014-7.187-4.842-13.419-11.807-15.157l-0.053-0.013l-0.054-0.011l-0.037-0.007
				l-0.017-0.003c-0.916-0.24-1.569-1.058-1.595-2.008v-0.767l0.004-2.34l0.009-4.83c0.013-7.174-5.813-13.021-12.987-13.033
				l-16.34-0.029l-8.565-0.014l-16.339-0.028h-0.001H213.921L213.921,138.296z"/>
		</g>
		<g>
			<path fill="#FFDF11" d="M293.326,213.538c-3.196-0.005-6.207-1.263-8.478-3.541s-3.519-5.293-3.513-8.49l0.014-7.92
				c0.034-2.401,1.754-4.486,4.09-4.971c5.588-1.379,9.521-6.397,9.53-12.196c0.012-5.804-3.909-10.837-9.533-12.24
				c-2.147-0.497-3.702-2.236-3.983-4.331l-0.115-0.058l0.074-0.694l0.011-7.812c0.012-6.61,5.399-11.989,12.009-11.989
				l41.268,0.071c6.623,0.012,12.001,5.409,11.989,12.031l-0.014,7.92c0.041,1.469,1.036,2.689,2.423,3.014
				c6.608,1.643,11.152,7.476,11.14,14.201c-0.011,6.72-4.57,12.536-11.087,14.143c-1.481,0.308-2.532,1.598-2.535,3.076
				l-0.013,7.868c-0.013,6.611-5.401,11.99-12.013,11.99L293.326,213.538z"/>
			<path fill="#5C0000" d="M293.432,140.296c0.007,0,0.015,0,0.021,0l16.34,0.028l8.564,0.014l16.34,0.029
				c6.057,0.011,11.002,4.973,10.991,11.029l-0.009,4.831l-0.005,3.089l0.001,0.001c0,0.025,0,0.051,0.001,0.075
				c0.053,1.907,1.398,3.493,3.193,3.913c0.026,0.005,0.051,0.008,0.076,0.013c5.921,1.478,10.303,6.835,10.291,13.213
				c-0.011,6.372-4.405,11.714-10.326,13.174c-1.879,0.389-3.292,2.052-3.296,4.045l-0.008,4.391l-0.005,3.479
				c-0.012,6.051-4.965,10.991-11.013,10.991c-0.006,0-0.012,0-0.018,0l-16.34-0.028l-8.564-0.014l-16.34-0.03
				c-6.058-0.01-11.002-4.973-10.992-11.029l0.009-4.832l0.005-3.088c0.028-1.972,1.432-3.607,3.293-3.993
				c5.922-1.461,10.317-6.802,10.327-13.174c0.013-6.378-4.37-11.735-10.291-13.213c-0.024-0.006-0.051-0.008-0.076-0.012
				c-1.794-0.42-3.138-2.007-3.193-3.913c-0.001-0.026-0.001-0.051-0.001-0.076l-0.002-0.001c0.002-0.018,0.003-0.035,0.003-0.053
				l0.008-4.39l0.006-3.478C282.434,145.237,287.385,140.296,293.432,140.296 M293.432,138.296c-7.16,0-12.996,5.826-13.009,12.987
				l-0.006,3.479l-0.008,4.308l-0.144,1.304l0.291,0.146c0.508,2.253,2.27,4.083,4.59,4.626l0.075,0.018l0.061,0.01
				c5.122,1.313,8.698,5.928,8.688,11.246c-0.008,5.328-3.615,9.94-8.774,11.229c-2.77,0.594-4.805,3.074-4.846,5.914l-0.005,3.113
				l-0.009,4.831c-0.006,3.464,1.346,6.73,3.805,9.198c2.459,2.467,5.721,3.829,9.185,3.835l16.339,0.03l8.565,0.014l16.339,0.028
				c7.184,0,13.021-5.826,13.034-12.987l0.005-3.479l0.008-4.39c0.002-1.008,0.717-1.887,1.701-2.09l0.037-0.008l0.036-0.01
				c6.964-1.717,11.835-7.931,11.848-15.111c0.013-7.187-4.842-13.419-11.807-15.157l-0.053-0.013l-0.054-0.011l-0.035-0.007
				l-0.018-0.003c-0.916-0.239-1.569-1.058-1.596-2.008v-0.767l0.004-2.34l0.009-4.83c0.013-7.174-5.813-13.021-12.987-13.033
				l-16.34-0.029l-8.565-0.014l-16.339-0.028h-0.002H293.432L293.432,138.296z"/>
		</g>
		<g>
			<g>
				<path fill="#FF0000" d="M130.721,214.055c-0.423,0-0.862-0.023-1.306-0.071c-19.675-1.067-35.127-17.389-35.127-37.154
					s15.452-36.087,35.178-37.158c0.377-0.043,0.818-0.067,1.254-0.067h43.329c1.66,0,3.271,0.336,4.786,0.999
					c4.408,1.923,7.257,6.257,7.257,11.041v7.982c0.043,1.438,1.045,2.661,2.437,2.984c6.629,1.635,11.195,7.476,11.195,14.219
					c0,6.738-4.563,12.577-11.095,14.199c-1.485,0.312-2.537,1.609-2.537,3.093v7.892c0,6.64-5.402,12.042-12.043,12.042H130.721z"
					/>
				<path fill="#5C0000" d="M174.05,140.604c1.558,0,3.041,0.327,4.386,0.915c3.908,1.705,6.657,5.61,6.657,10.125v7.892
					l-0.001,0.003l0.001,0.049v0.002c0,0.025,0,0.052,0.001,0.076c0.058,1.912,1.409,3.501,3.21,3.919
					c0.025,0.004,0.051,0.006,0.077,0.012c5.939,1.472,10.344,6.839,10.344,13.233c0,6.392-4.399,11.755-10.336,13.229
					c-1.882,0.395-3.296,2.063-3.296,4.063v7.892c0,6.074-4.97,11.042-11.043,11.042h-15.818h6.816h-31.884h-2.443
					c-0.404,0-0.805-0.023-1.2-0.065c-19.077-1.036-34.232-16.822-34.232-36.16c0-19.337,15.155-35.124,34.232-36.159
					c0.396-0.044,0.796-0.066,1.2-0.066h34.327H174.05 M165.048,140.604h-6.816H165.048 M174.05,138.604h-9.002h-6.816h-27.511
					c-0.454,0-0.912,0.024-1.363,0.072c-20.23,1.127-36.069,17.875-36.069,38.153c0,20.279,15.842,37.028,36.073,38.154
					c0.461,0.048,0.918,0.071,1.359,0.071h2.443h31.884h9.002c7.192,0,13.043-5.851,13.043-13.042v-7.892
					c0-1.013,0.718-1.898,1.706-2.106l0.036-0.007l0.036-0.009c6.979-1.732,11.854-7.971,11.854-15.17
					c0-7.204-4.878-13.444-11.863-15.175c-0.069-0.016-0.123-0.026-0.17-0.034c-0.916-0.243-1.57-1.063-1.599-2.016v-0.02v-0.01
					v-0.04v-7.892c0-5.182-3.084-9.876-7.857-11.958C177.594,138.968,175.849,138.604,174.05,138.604L174.05,138.604z"/>
			</g>
		</g>
		<g>
			<g>
				<g>
					<g>
						<g>
							<path fill="#00FF00" d="M371.925,214.342c-6.761,0-12.262-5.5-12.262-12.261l-0.001-8.048
								c0.001-2.464,1.75-4.619,4.159-5.123c5.724-1.424,9.745-6.572,9.745-12.514c0-5.946-4.025-11.097-9.791-12.525
								c-2.373-0.544-4.039-2.575-4.111-4.95l-0.002-8.21c0-6.761,5.501-12.261,12.263-12.261h57.15
								c0.282,0,0.562,0.015,0.839,0.032c20.434,0.771,36.462,17.425,36.462,37.914c0,20.488-16.028,37.143-36.489,37.915
								c-0.246,0.018-0.525,0.029-0.807,0.03H371.925z"/>
							<g>
								<path fill="#5C0000" d="M429.075,139.45c0.261,0,0.519,0.014,0.774,0.03c19.746,0.745,35.526,16.987,35.526,36.916
									s-15.78,36.17-35.526,36.916c-0.256,0.018-0.514,0.028-0.773,0.029h-57.151c-6.194,0-11.262-5.067-11.262-11.261
									l-0.001-8.048c0.001-2.041,1.443-3.742,3.364-4.145c6.054-1.505,10.54-6.974,10.54-13.492
									c0-6.522-4.492-11.995-10.55-13.496c-0.026-0.006-0.052-0.008-0.077-0.015c-1.838-0.424-3.216-2.044-3.275-3.995
									c0-0.025-0.001-0.05-0.001-0.077h-0.001v-8.103c0-6.193,5.068-11.261,11.263-11.261H429.075 M429.075,137.45h-57.15
									c-7.313,0-13.263,5.948-13.263,13.261v8.103v0.035l0.001,0.035v0.03l0.002,0.037c0.086,2.815,2.052,5.226,4.786,5.874
									l0.068,0.019l0.089,0.016c5.257,1.315,8.958,6.061,8.958,11.537c0,5.47-3.695,10.212-8.991,11.543
									c-2.849,0.617-4.911,3.173-4.913,6.093l0.001,8.049c0,7.312,5.949,13.261,13.262,13.261h57.151
									c0.3-0.001,0.59-0.013,0.879-0.032c10.075-0.388,19.485-4.604,26.502-11.873c7.041-7.295,10.919-16.898,10.919-27.04
									s-3.878-19.745-10.919-27.041c-7.018-7.27-16.429-11.485-26.506-11.873C429.662,137.465,429.37,137.45,429.075,137.45
									L429.075,137.45z"/>
							</g>
						</g>
					</g>
				</g>
			</g>
		</g>
	</g>
</g>
<g id="Test">
</g>
</svg>
