<?xml version="1.0" encoding="utf-8"?>
<!-- Generator: Adobe Illustrator 19.1.0, SVG Export Plug-In . SVG Version: 6.00 Build 0)  -->
<svg version="1.1" id="Capa_1" xmlns="http://www.w3.org/2000/svg" xmlns:xlink="http://www.w3.org/1999/xlink" x="0px" y="0px"
	 viewBox="0 0 143 27.957" enable-background="new 0 0 143 27.957" xml:space="preserve">
<g>
	<defs>
		<rect id="SVGID_1_" x="-0.049" width="143.098" height="30"/>
	</defs>
	<clipPath id="SVGID_2_">
		<use xlink:href="#SVGID_1_"  overflow="visible"/>
	</clipPath>
	<g clip-path="url(#SVGID_2_)">
		<g>
			<g>
				<g>
					<g>
						<path fill="#916633" d="M206.062-12.4c0,7.097-5.695,12.848-12.717,12.848H-35.472c-7.024,0-12.716-5.751-12.716-12.848l0,0
							c0-7.096,5.693-12.849,12.716-12.849h228.817C200.367-25.249,206.062-19.496,206.062-12.4L206.062-12.4z"/>
					</g>
					<ellipse opacity="0.6" fill="#A67339" cx="-16.141" cy="-13.702" rx="5.744" ry="5.803"/>
					<ellipse opacity="0.3" fill="#734A1E" cx="72.239" cy="-5.097" rx="12.514" ry="12.645"/>
					<ellipse opacity="0.3" fill="#734A1E" cx="36.895" cy="-12.91" rx="4.158" ry="4.202"/>
					<ellipse opacity="0.3" fill="#734A1E" cx="161.62" cy="-9.075" rx="3.118" ry="3.152"/>
					<ellipse opacity="0.3" fill="#734A1E" cx="9.862" cy="1.472" rx="7.914" ry="7.997"/>
					<ellipse opacity="0.6" fill="#A67339" cx="15.428" cy="-24.448" rx="9.674" ry="9.775"/>
					<ellipse opacity="0.6" fill="#A67339" cx="120.173" cy="-3.833" rx="12.997" ry="13.132"/>
					<ellipse opacity="0.6" fill="#A67339" cx="162.038" cy="-25.771" rx="8.365" ry="8.45"/>
					<ellipse opacity="0.6" fill="#A67339" cx="125.714" cy="0.045" rx="7.272" ry="7.346"/>
					<ellipse opacity="0.6" fill="#A67339" cx="197.951" cy="-15.146" rx="4.434" ry="4.479"/>
					<ellipse opacity="0.6" fill="#A67339" cx="-32.335" cy="-11.631" rx="4.434" ry="4.48"/>
					<ellipse opacity="0.6" fill="#A67339" cx="33.903" cy="-13.228" rx="2.494" ry="2.518"/>
					<ellipse opacity="0.6" fill="#A67339" cx="61.238" cy="-1.996" rx="6.18" ry="6.243"/>
					<g>
						<path fill="#734A1E" d="M169.917,13.296c0,7.097-5.694,12.851-12.717,12.851H0.673c-7.024,0-12.717-5.754-12.717-12.851l0,0
							c0-7.096,5.693-12.848,12.717-12.848H157.2C164.223,0.448,169.917,6.201,169.917,13.296L169.917,13.296z"/>
					</g>
					<g>
						<path fill="#709F4C" d="M238.587-38.865c0,7.521-6.036,13.616-13.479,13.616H-67.237c-7.444,0-13.477-6.095-13.477-13.616l0,0
							c0-7.521,6.033-13.616,13.477-13.616h292.345C232.551-52.481,238.587-46.386,238.587-38.865L238.587-38.865z"/>
						<path fill="#326535" d="M-67.237-25.249h292.345c7.443,0,13.479-6.095,13.479-13.616H-80.714
							C-80.714-31.344-74.681-25.249-67.237-25.249z"/>
					</g>
					<path fill="#68431C" d="M136.975,26.147c0.07-0.41,0.115-0.828,0.115-1.257c0-3.944-3.164-7.141-7.066-7.141
						c-3.903,0-7.067,3.197-7.067,7.141c0,0.429,0.044,0.846,0.116,1.257H136.975z"/>
					<path opacity="0.3" fill="#A67339" d="M49.359,26.147c0.13-0.738,0.209-1.491,0.209-2.265c0-7.105-5.7-12.866-12.732-12.866
						c-7.032,0-12.732,5.76-12.732,12.866c0,0.774,0.08,1.526,0.208,2.265H49.359z"/>
					<path opacity="0.3" fill="#A67339" d="M39.134,26.147c0.066-0.385,0.107-0.776,0.107-1.176c0-3.691-2.96-6.684-6.614-6.684
						c-3.651,0-6.612,2.993-6.612,6.684c0,0.401,0.041,0.792,0.109,1.176H39.134z"/>
					<ellipse fill="#68431C" cx="156.083" cy="15.213" rx="2.667" ry="2.692"/>
					<ellipse fill="#68431C" cx="23.661" cy="10.948" rx="2.666" ry="2.695"/>
					<ellipse fill="#68431C" cx="122.065" cy="7.003" rx="1.5" ry="1.515"/>
					<ellipse fill="#68431C" cx="129.351" cy="14.613" rx="1.499" ry="1.515"/>
					<ellipse opacity="0.3" fill="#A67339" cx="65.83" cy="15.813" rx="1.67" ry="1.687"/>
					<ellipse opacity="0.3" fill="#A67339" cx="153.265" cy="15.28" rx="1.67" ry="1.685"/>
					<ellipse opacity="0.3" fill="#734A1E" cx="127.572" cy="-15.792" rx="1.67" ry="1.686"/>
					<ellipse opacity="0.3" fill="#734A1E" cx="67.329" cy="-17.893" rx="1.67" ry="1.687"/>
					<ellipse opacity="0.3" fill="#734A1E" cx="155.759" cy="-10.325" rx="1.669" ry="1.685"/>
					<ellipse opacity="0.3" fill="#734A1E" cx="-33.687" cy="-13.273" rx="1.669" ry="1.687"/>
					<ellipse opacity="0.6" fill="#A67339" cx="178.292" cy="-13.693" rx="1.669" ry="1.687"/>
					<ellipse opacity="0.6" fill="#A67339" cx="102.64" cy="-14.106" rx="1.67" ry="1.688"/>
					<ellipse opacity="0.6" fill="#A67339" cx="-4.189" cy="-9.906" rx="1.669" ry="1.687"/>
					<ellipse opacity="0.6" fill="#A67339" cx="12.045" cy="-15.792" rx="1.669" ry="1.686"/>
					<ellipse fill="#68431C" cx="11.273" cy="11.091" rx="1.5" ry="1.515"/>
					<ellipse fill="#68431C" cx="65.166" cy="9.117" rx="1.499" ry="1.515"/>
					<path opacity="0.3" fill="#A67339" d="M90.468,0.448c-0.497,1.23-0.777,2.575-0.777,3.987c0,5.826,4.675,10.547,10.441,10.547
						c5.766,0,10.44-4.721,10.44-10.547c0-1.412-0.279-2.757-0.777-3.987H90.468z"/>
				</g>
				<g>
					<rect x="-43" y="-26" fill="#472728" width="241" height="3"/>
				</g>
			</g>
			<g>
				<rect x="-4.521" y="0.051" fill="#472728" width="166.917" height="2.534"/>
			</g>
		</g>
		<path fill="none" stroke="#472728" stroke-width="2" stroke-miterlimit="10" d="M224.929-52H-67.416
			c-7.444,0-13.477,5.979-13.477,13.5S-74.86-25-67.416-25h31.765c-7.024,0-12.716,5.905-12.716,13.001
			C-48.368-4.903-42.675,1-35.651,1H0.494C-6.53,1-12.224,6.903-12.224,13.999C-12.224,21.096-6.53,27,0.494,27h23.639h1.812h13.01
			H49.18h73.714h13.902h20.225c7.023,0,12.717-5.904,12.717-13.001C169.738,6.903,164.044,1,157.021,1h36.145
			c7.022,0,12.717-5.903,12.717-12.999c0-7.096-5.694-13.001-12.717-13.001h31.763c7.443,0,13.479-5.979,13.479-13.5
			S232.372-52,224.929-52z"/>
	</g>
</g>
</svg>
