<?xml version="1.0" encoding="utf-8"?>
<!-- Generator: Adobe Illustrator 19.1.0, SVG Export Plug-In . SVG Version: 6.00 Build 0)  -->
<svg version="1.1" id="Capa_1" xmlns="http://www.w3.org/2000/svg" xmlns:xlink="http://www.w3.org/1999/xlink" x="0px" y="0px"
	 viewBox="0 0 159.5 219.043" enable-background="new 0 0 159.5 219.043" xml:space="preserve">
<g>
	<defs>
		<rect id="SVGID_1_" x="-148.194" y="-3091.076" width="320" height="6650"/>
	</defs>
	<clipPath id="SVGID_2_">
		<use xlink:href="#SVGID_1_"  overflow="visible"/>
	</clipPath>
	<g clip-path="url(#SVGID_2_)">
		<defs>
			<rect id="SVGID_3_" x="5.806" y="7.924" width="148" height="212"/>
		</defs>
		<clipPath id="SVGID_4_">
			<use xlink:href="#SVGID_3_"  overflow="visible"/>
		</clipPath>
		<g clip-path="url(#SVGID_4_)">
			<defs>
				<rect id="SVGID_5_" x="4.806" y="7.924" width="149" height="214"/>
			</defs>
			<clipPath id="SVGID_6_">
				<use xlink:href="#SVGID_5_"  overflow="visible"/>
			</clipPath>
			<g clip-path="url(#SVGID_6_)">
				<defs>
					<rect id="SVGID_7_" x="5.806" y="7.924" width="148" height="212"/>
				</defs>
				<clipPath id="SVGID_8_">
					<use xlink:href="#SVGID_7_"  overflow="visible"/>
				</clipPath>
				<g clip-path="url(#SVGID_8_)">
					<defs>
						<polygon id="SVGID_9_" points="84.387,82.645 81.267,82.361 78.149,82.075 62.785,218.272 68.802,218.818 74.818,219.368 
													"/>
					</defs>
					<clipPath id="SVGID_10_">
						<use xlink:href="#SVGID_9_"  overflow="visible"/>
					</clipPath>
					<g clip-path="url(#SVGID_10_)">
						<defs>
							<rect id="SVGID_11_" x="4.806" y="7.924" width="149" height="214"/>
						</defs>
						<clipPath id="SVGID_12_">
							<use xlink:href="#SVGID_11_"  overflow="visible"/>
						</clipPath>
						<rect x="57.785" y="77.075" clip-path="url(#SVGID_12_)" fill="#FAFFF8" width="31.602" height="147.293"/>
					</g>
				</g>
				<g clip-path="url(#SVGID_8_)">
					<defs>
						<rect id="SVGID_13_" x="4.806" y="7.924" width="149" height="214"/>
					</defs>
					<clipPath id="SVGID_14_">
						<use xlink:href="#SVGID_13_"  overflow="visible"/>
					</clipPath>
					<g opacity="0.1" clip-path="url(#SVGID_14_)" enable-background="new    ">
						<g>
							<defs>
								<rect id="SVGID_15_" x="68.806" y="81.924" width="16" height="138"/>
							</defs>
							<clipPath id="SVGID_16_">
								<use xlink:href="#SVGID_15_"  overflow="visible"/>
							</clipPath>
							<g clip-path="url(#SVGID_16_)">
								<defs>
									<polygon id="SVGID_17_" points="68.802,218.818 74.818,219.368 84.387,82.645 81.267,82.361 									"/>
								</defs>
								<clipPath id="SVGID_18_">
									<use xlink:href="#SVGID_17_"  overflow="visible"/>
								</clipPath>
								<g clip-path="url(#SVGID_18_)">
									<defs>
										<rect id="SVGID_19_" x="67.806" y="80.924" width="18" height="139"/>
									</defs>
									<clipPath id="SVGID_20_">
										<use xlink:href="#SVGID_19_"  overflow="visible"/>
									</clipPath>
									<rect x="63.802" y="77.361" clip-path="url(#SVGID_20_)" width="25.585" height="147.007"/>
								</g>
							</g>
						</g>
					</g>
				</g>
				<g clip-path="url(#SVGID_8_)">
					<defs>
						<ellipse id="SVGID_21_" cx="81.134" cy="83.816" rx="6.382" ry="6.376"/>
					</defs>
					<clipPath id="SVGID_22_">
						<use xlink:href="#SVGID_21_"  overflow="visible"/>
					</clipPath>
					<g clip-path="url(#SVGID_22_)">
						<defs>
							<rect id="SVGID_23_" x="4.806" y="7.924" width="149" height="214"/>
						</defs>
						<clipPath id="SVGID_24_">
							<use xlink:href="#SVGID_23_"  overflow="visible"/>
						</clipPath>
						<rect x="69.752" y="72.44" clip-path="url(#SVGID_24_)" fill="#5595E4" width="22.765" height="22.753"/>
					</g>
				</g>
				<g clip-path="url(#SVGID_8_)">
					<defs>
						<rect id="SVGID_25_" x="4.806" y="7.924" width="149" height="214"/>
					</defs>
					<clipPath id="SVGID_26_">
						<use xlink:href="#SVGID_25_"  overflow="visible"/>
					</clipPath>
					
						<ellipse clip-path="url(#SVGID_26_)" fill="none" stroke="#FFFFFF" stroke-width="1.872" stroke-miterlimit="10" cx="81.134" cy="83.816" rx="6.382" ry="6.376"/>
				</g>
				<g clip-path="url(#SVGID_8_)">
					<defs>
						<rect id="SVGID_27_" x="4.806" y="7.924" width="149" height="214"/>
					</defs>
					<clipPath id="SVGID_28_">
						<use xlink:href="#SVGID_27_"  overflow="visible"/>
					</clipPath>
					<g opacity="0.1" clip-path="url(#SVGID_28_)" enable-background="new    ">
						<g>
							<defs>
								<rect id="SVGID_29_" x="79.806" y="76.924" width="9" height="14"/>
							</defs>
							<clipPath id="SVGID_30_">
								<use xlink:href="#SVGID_29_"  overflow="visible"/>
							</clipPath>
							<g clip-path="url(#SVGID_30_)">
								<defs>
									<path id="SVGID_31_" d="M81.715,77.463l-1.159,12.704c3.51,0.32,6.615-2.264,6.935-5.77
										C87.811,80.886,85.226,77.783,81.715,77.463z"/>
								</defs>
								<clipPath id="SVGID_32_">
									<use xlink:href="#SVGID_31_"  overflow="visible"/>
								</clipPath>
								<g clip-path="url(#SVGID_32_)">
									<defs>
										<rect id="SVGID_33_" x="79.806" y="76.924" width="9" height="15"/>
									</defs>
									<clipPath id="SVGID_34_">
										<use xlink:href="#SVGID_33_"  overflow="visible"/>
									</clipPath>
									<rect x="75.556" y="72.463" clip-path="url(#SVGID_34_)" width="16.962" height="22.731"/>
								</g>
							</g>
						</g>
					</g>
				</g>
				<g clip-path="url(#SVGID_8_)">
					<defs>
						<circle id="SVGID_35_" cx="81.134" cy="83.816" r="3.222"/>
					</defs>
					<clipPath id="SVGID_36_">
						<use xlink:href="#SVGID_35_"  overflow="visible"/>
					</clipPath>
					<g clip-path="url(#SVGID_36_)">
						<defs>
							<rect id="SVGID_37_" x="4.806" y="7.924" width="149" height="214"/>
						</defs>
						<clipPath id="SVGID_38_">
							<use xlink:href="#SVGID_37_"  overflow="visible"/>
						</clipPath>
						<rect x="72.909" y="75.595" clip-path="url(#SVGID_38_)" fill="#FAFFF8" width="16.45" height="16.444"/>
					</g>
				</g>
				<g clip-path="url(#SVGID_8_)">
					<defs>
						<rect id="SVGID_39_" x="4.806" y="7.924" width="149" height="214"/>
					</defs>
					<clipPath id="SVGID_40_">
						<use xlink:href="#SVGID_39_"  overflow="visible"/>
					</clipPath>
					<g opacity="0.1" clip-path="url(#SVGID_40_)" enable-background="new    ">
						<g>
							<defs>
								<rect id="SVGID_41_" x="80.806" y="79.924" width="4" height="8"/>
							</defs>
							<clipPath id="SVGID_42_">
								<use xlink:href="#SVGID_41_"  overflow="visible"/>
							</clipPath>
							<g clip-path="url(#SVGID_42_)">
								<defs>
									<path id="SVGID_43_" d="M81.428,80.608l-0.586,6.417c1.773,0.163,3.343-1.143,3.506-2.915
										C84.509,82.335,83.204,80.772,81.428,80.608z"/>
								</defs>
								<clipPath id="SVGID_44_">
									<use xlink:href="#SVGID_43_"  overflow="visible"/>
								</clipPath>
								<g clip-path="url(#SVGID_44_)">
									<defs>
										<rect id="SVGID_45_" x="79.806" y="79.924" width="6" height="9"/>
									</defs>
									<clipPath id="SVGID_46_">
										<use xlink:href="#SVGID_45_"  overflow="visible"/>
									</clipPath>
									<rect x="75.842" y="75.608" clip-path="url(#SVGID_46_)" width="13.519" height="16.431"/>
								</g>
							</g>
						</g>
					</g>
				</g>
				<g clip-path="url(#SVGID_8_)">
					<defs>
						<path id="SVGID_47_" d="M86.02,73.882c-0.199,2.18-2.126,3.781-4.305,3.581c-2.18-0.198-3.785-2.122-3.586-4.301l4.807-52.612
							c0.197-2.174,2.938-12.672,5.118-12.476c2.18,0.198,2.968,11.022,2.77,13.198L86.02,73.882z"/>
					</defs>
					<clipPath id="SVGID_48_">
						<use xlink:href="#SVGID_47_"  overflow="visible"/>
					</clipPath>
					<g clip-path="url(#SVGID_48_)">
						<defs>
							<rect id="SVGID_49_" x="4.806" y="7.924" width="149" height="214"/>
						</defs>
						<clipPath id="SVGID_50_">
							<use xlink:href="#SVGID_49_"  overflow="visible"/>
						</clipPath>
						<rect x="73.112" y="3.071" clip-path="url(#SVGID_50_)" fill="#FAFFF8" width="22.741" height="79.408"/>
					</g>
				</g>
				<g clip-path="url(#SVGID_8_)">
					<defs>
						<rect id="SVGID_51_" x="4.806" y="7.924" width="149" height="214"/>
					</defs>
					<clipPath id="SVGID_52_">
						<use xlink:href="#SVGID_51_"  overflow="visible"/>
					</clipPath>
					<g opacity="0.1" clip-path="url(#SVGID_52_)" enable-background="new    ">
						<g>
							<defs>
								<rect id="SVGID_53_" x="80.806" y="7.924" width="11" height="70"/>
							</defs>
							<clipPath id="SVGID_54_">
								<use xlink:href="#SVGID_53_"  overflow="visible"/>
							</clipPath>
							<g clip-path="url(#SVGID_54_)">
								<defs>
									<path id="SVGID_55_" d="M88.056,8.074l-6.341,69.389c2.18,0.198,4.107-1.401,4.305-3.581l4.805-52.61
										C91.024,19.096,90.234,8.274,88.056,8.074z"/>
								</defs>
								<clipPath id="SVGID_56_">
									<use xlink:href="#SVGID_55_"  overflow="visible"/>
								</clipPath>
								<g clip-path="url(#SVGID_56_)">
									<defs>
										<rect id="SVGID_57_" x="80.806" y="7.924" width="11" height="70"/>
									</defs>
									<clipPath id="SVGID_58_">
										<use xlink:href="#SVGID_57_"  overflow="visible"/>
									</clipPath>
									<rect x="76.715" y="3.074" clip-path="url(#SVGID_58_)" width="19.14" height="79.405"/>
								</g>
							</g>
						</g>
					</g>
				</g>
				<g clip-path="url(#SVGID_8_)">
					<defs>
						<path id="SVGID_59_" d="M70.108,82.391c2.148-0.423,4.227,0.984,4.646,3.128c0.414,2.148-0.989,4.223-3.137,4.64
							l-51.908,10.06c-2.15,0.415-13.004,0.717-13.422-1.429c-0.414-2.148,9.764-5.924,11.912-6.343L70.108,82.391z"/>
					</defs>
					<clipPath id="SVGID_60_">
						<use xlink:href="#SVGID_59_"  overflow="visible"/>
					</clipPath>
					<g clip-path="url(#SVGID_60_)">
						<defs>
							<rect id="SVGID_61_" x="4.806" y="7.924" width="149" height="214"/>
						</defs>
						<clipPath id="SVGID_62_">
							<use xlink:href="#SVGID_61_"  overflow="visible"/>
						</clipPath>
						<rect x="1.275" y="77.316" clip-path="url(#SVGID_62_)" fill="#FAFFF8" width="78.552" height="28.2"/>
					</g>
				</g>
				<g clip-path="url(#SVGID_8_)">
					<defs>
						<rect id="SVGID_63_" x="4.806" y="7.924" width="149" height="214"/>
					</defs>
					<clipPath id="SVGID_64_">
						<use xlink:href="#SVGID_63_"  overflow="visible"/>
					</clipPath>
					<g opacity="0.1" clip-path="url(#SVGID_64_)" enable-background="new    ">
						<g>
							<defs>
								<rect id="SVGID_65_" x="5.806" y="81.924" width="69" height="17"/>
							</defs>
							<clipPath id="SVGID_66_">
								<use xlink:href="#SVGID_65_"  overflow="visible"/>
							</clipPath>
							<g clip-path="url(#SVGID_66_)">
								<defs>
									<path id="SVGID_67_" d="M6.287,98.79l68.469-13.273c-0.42-2.144-2.496-3.549-4.646-3.128l-51.91,10.058
										C16.051,92.866,5.873,96.642,6.287,98.79z"/>
								</defs>
								<clipPath id="SVGID_68_">
									<use xlink:href="#SVGID_67_"  overflow="visible"/>
								</clipPath>
								<g clip-path="url(#SVGID_68_)">
									<defs>
										<rect id="SVGID_69_" x="5.806" y="80.924" width="70" height="18"/>
									</defs>
									<clipPath id="SVGID_70_">
										<use xlink:href="#SVGID_69_"  overflow="visible"/>
									</clipPath>
									<rect x="1.275" y="77.314" clip-path="url(#SVGID_70_)" width="78.481" height="26.475"/>
								</g>
							</g>
						</g>
					</g>
				</g>
				<g clip-path="url(#SVGID_8_)">
					<defs>
						<path id="SVGID_71_" d="M92.238,84.406c-2.038-0.803-4.335,0.208-5.133,2.24c-0.798,2.038,0.204,4.329,2.24,5.13
							l49.228,19.282c2.037,0.797,12.661,3.055,13.459,1.023c0.8-2.039-8.527-7.592-10.564-8.391L92.238,84.406z"/>
					</defs>
					<clipPath id="SVGID_72_">
						<use xlink:href="#SVGID_71_"  overflow="visible"/>
					</clipPath>
					<g clip-path="url(#SVGID_72_)">
						<defs>
							<rect id="SVGID_73_" x="4.806" y="7.924" width="149" height="214"/>
						</defs>
						<clipPath id="SVGID_74_">
							<use xlink:href="#SVGID_73_"  overflow="visible"/>
						</clipPath>
						<rect x="81.83" y="79.13" clip-path="url(#SVGID_74_)" fill="#FAFFF8" width="75.25" height="38.777"/>
					</g>
				</g>
				<g clip-path="url(#SVGID_8_)">
					<defs>
						<rect id="SVGID_75_" x="4.806" y="7.924" width="149" height="214"/>
					</defs>
					<clipPath id="SVGID_76_">
						<use xlink:href="#SVGID_75_"  overflow="visible"/>
					</clipPath>
					<g opacity="0.1" clip-path="url(#SVGID_76_)" enable-background="new    ">
						<g>
							<defs>
								<rect id="SVGID_77_" x="86.806" y="82.924" width="66" height="30"/>
							</defs>
							<clipPath id="SVGID_78_">
								<use xlink:href="#SVGID_77_"  overflow="visible"/>
							</clipPath>
							<g clip-path="url(#SVGID_78_)">
								<defs>
									<path id="SVGID_79_" d="M152.032,112.081L87.105,86.645c0.798-2.032,3.096-3.042,5.133-2.24l49.23,19.284
										C143.505,104.489,152.832,110.042,152.032,112.081z"/>
								</defs>
								<clipPath id="SVGID_80_">
									<use xlink:href="#SVGID_79_"  overflow="visible"/>
								</clipPath>
								<g clip-path="url(#SVGID_80_)">
									<defs>
										<rect id="SVGID_81_" x="85.806" y="82.924" width="67" height="30"/>
									</defs>
									<clipPath id="SVGID_82_">
										<use xlink:href="#SVGID_81_"  overflow="visible"/>
									</clipPath>
									<rect x="82.105" y="79.13" clip-path="url(#SVGID_82_)" width="74.976" height="37.951"/>
								</g>
							</g>
						</g>
					</g>
				</g>
			</g>
		</g>
	</g>
</g>
<g>
	<defs>
		<rect id="SVGID_83_" x="-148.194" y="-3091.076" width="320" height="6650"/>
	</defs>
	<clipPath id="SVGID_84_">
		<use xlink:href="#SVGID_83_"  overflow="visible"/>
	</clipPath>
	<g clip-path="url(#SVGID_84_)">
		<defs>
			<rect id="SVGID_85_" x="60.806" y="75.924" width="29" height="145"/>
		</defs>
		<clipPath id="SVGID_86_">
			<use xlink:href="#SVGID_85_"  overflow="visible"/>
		</clipPath>
		<g clip-path="url(#SVGID_86_)">
			<defs>
				<rect id="SVGID_87_" x="60.806" y="75.924" width="29" height="145"/>
			</defs>
			<clipPath id="SVGID_88_">
				<use xlink:href="#SVGID_87_"  overflow="visible"/>
			</clipPath>
			<path clip-path="url(#SVGID_88_)" fill="none" stroke="#422B2C" stroke-width="1.872" stroke-miterlimit="10" d="M87.492,84.396
				c0.32-3.51-2.266-6.614-5.775-6.934c-3.511-0.32-6.614,2.264-6.937,5.772c-0.212,2.314,0.845,4.445,2.594,5.723L62.131,219.246
				l12.687,0.122l9.086-129.815C85.855,88.614,87.281,86.705,87.492,84.396z"/>
		</g>
	</g>
</g>
<g>
	<defs>
		<rect id="SVGID_89_" x="-148.194" y="-3091.076" width="320" height="6650"/>
	</defs>
	<clipPath id="SVGID_90_">
		<use xlink:href="#SVGID_89_"  overflow="visible"/>
	</clipPath>
	<g clip-path="url(#SVGID_90_)">
		<defs>
			<rect id="SVGID_91_" x="76.806" y="6.924" width="16" height="72"/>
		</defs>
		<clipPath id="SVGID_92_">
			<use xlink:href="#SVGID_91_"  overflow="visible"/>
		</clipPath>
		<g clip-path="url(#SVGID_92_)">
			<defs>
				<rect id="SVGID_93_" x="76.806" y="6.924" width="16" height="72"/>
			</defs>
			<clipPath id="SVGID_94_">
				<use xlink:href="#SVGID_93_"  overflow="visible"/>
			</clipPath>
			<path clip-path="url(#SVGID_94_)" fill="none" stroke="#422B2C" stroke-width="1.872" stroke-miterlimit="10" d="M86.02,73.882
				l4.805-52.61c0.199-2.176-0.592-12.998-2.77-13.198c-2.182-0.196-4.922,10.302-5.118,12.476L78.13,73.161
				c-0.199,2.18,1.406,4.101,3.586,4.301C83.895,77.661,85.822,76.061,86.02,73.882z"/>
		</g>
	</g>
</g>
<g>
	<defs>
		<rect id="SVGID_95_" x="-148.194" y="-3091.076" width="320" height="6650"/>
	</defs>
	<clipPath id="SVGID_96_">
		<use xlink:href="#SVGID_95_"  overflow="visible"/>
	</clipPath>
	<g clip-path="url(#SVGID_96_)">
		<defs>
			<rect id="SVGID_97_" x="4.806" y="80.924" width="72" height="21"/>
		</defs>
		<clipPath id="SVGID_98_">
			<use xlink:href="#SVGID_97_"  overflow="visible"/>
		</clipPath>
		<g clip-path="url(#SVGID_98_)">
			<defs>
				<rect id="SVGID_99_" x="4.806" y="80.924" width="72" height="21"/>
			</defs>
			<clipPath id="SVGID_100_">
				<use xlink:href="#SVGID_99_"  overflow="visible"/>
			</clipPath>
			<path clip-path="url(#SVGID_100_)" fill="none" stroke="#422B2C" stroke-width="1.872" stroke-miterlimit="10" d="M74.754,85.519
				c-0.419-2.144-2.496-3.549-4.646-3.128l-51.91,10.058c-2.148,0.419-12.326,4.193-11.912,6.343
				c0.418,2.144,11.274,1.843,13.422,1.429l51.908-10.06C73.765,89.74,75.168,87.667,74.754,85.519z"/>
		</g>
	</g>
</g>
<g>
	<defs>
		<rect id="SVGID_101_" x="-148.194" y="-3091.076" width="320" height="6650"/>
	</defs>
	<clipPath id="SVGID_102_">
		<use xlink:href="#SVGID_101_"  overflow="visible"/>
	</clipPath>
	<g clip-path="url(#SVGID_102_)">
		<defs>
			<rect id="SVGID_103_" x="84.806" y="82.924" width="69" height="31"/>
		</defs>
		<clipPath id="SVGID_104_">
			<use xlink:href="#SVGID_103_"  overflow="visible"/>
		</clipPath>
		<g clip-path="url(#SVGID_104_)">
			<defs>
				<rect id="SVGID_105_" x="84.806" y="82.924" width="69" height="31"/>
			</defs>
			<clipPath id="SVGID_106_">
				<use xlink:href="#SVGID_105_"  overflow="visible"/>
			</clipPath>
			<path clip-path="url(#SVGID_106_)" fill="none" stroke="#422B2C" stroke-width="1.872" stroke-miterlimit="10" d="
				M141.468,103.69l-49.23-19.284c-2.038-0.803-4.335,0.208-5.133,2.24c-0.798,2.037,0.204,4.329,2.24,5.13l49.228,19.282
				c2.038,0.797,12.662,3.055,13.459,1.023C152.832,110.042,143.506,104.489,141.468,103.69z"/>
		</g>
	</g>
</g>
<g>
	<g>
		<defs>
			<polyline id="SVGID_107_" points="-136.593,3582 183.407,3582 183.407,-3068 -136.593,-3068 			"/>
		</defs>
		<clipPath id="SVGID_108_">
			<use xlink:href="#SVGID_107_"  overflow="visible"/>
		</clipPath>
	</g>
</g>
<g>
	<g>
		<defs>
			<polyline id="SVGID_109_" points="-136.593,3582 183.407,3582 183.407,-3068 -136.593,-3068 			"/>
		</defs>
		<clipPath id="SVGID_110_">
			<use xlink:href="#SVGID_109_"  overflow="visible"/>
		</clipPath>
	</g>
</g>
<g>
	<g>
		<defs>
			<polyline id="SVGID_111_" points="-136.593,3582 183.407,3582 183.407,-3068 -136.593,-3068 			"/>
		</defs>
		<clipPath id="SVGID_112_">
			<use xlink:href="#SVGID_111_"  overflow="visible"/>
		</clipPath>
	</g>
</g>
<g>
	<g>
		<defs>
			<polyline id="SVGID_113_" points="-136.593,3582 183.407,3582 183.407,-3068 -136.593,-3068 			"/>
		</defs>
		<clipPath id="SVGID_114_">
			<use xlink:href="#SVGID_113_"  overflow="visible"/>
		</clipPath>
	</g>
</g>
<g>
	<g>
		<defs>
			<polyline id="SVGID_115_" points="-136.593,3582 183.407,3582 183.407,-3068 -136.593,-3068 			"/>
		</defs>
		<clipPath id="SVGID_116_">
			<use xlink:href="#SVGID_115_"  overflow="visible"/>
		</clipPath>
	</g>
</g>
<g>
	<g>
		<defs>
			<polyline id="SVGID_117_" points="-136.593,3582 183.407,3582 183.407,-3068 -136.593,-3068 			"/>
		</defs>
		<clipPath id="SVGID_118_">
			<use xlink:href="#SVGID_117_"  overflow="visible"/>
		</clipPath>
	</g>
</g>
<g>
	<g>
		<defs>
			<polyline id="SVGID_119_" points="-136.593,3582 183.407,3582 183.407,-3068 -136.593,-3068 			"/>
		</defs>
		<clipPath id="SVGID_120_">
			<use xlink:href="#SVGID_119_"  overflow="visible"/>
		</clipPath>
	</g>
</g>
<g>
	<g>
		<defs>
			<polyline id="SVGID_121_" points="-136.593,3582 183.407,3582 183.407,-3068 -136.593,-3068 			"/>
		</defs>
		<clipPath id="SVGID_122_">
			<use xlink:href="#SVGID_121_"  overflow="visible"/>
		</clipPath>
	</g>
</g>
<g>
	<g>
		<defs>
			<polyline id="SVGID_123_" points="-136.593,3582 183.407,3582 183.407,-3068 -136.593,-3068 			"/>
		</defs>
		<clipPath id="SVGID_124_">
			<use xlink:href="#SVGID_123_"  overflow="visible"/>
		</clipPath>
	</g>
</g>
<g>
	<g>
		<defs>
			<polyline id="SVGID_125_" points="-136.593,3582 183.407,3582 183.407,-3068 -136.593,-3068 			"/>
		</defs>
		<clipPath id="SVGID_126_">
			<use xlink:href="#SVGID_125_"  overflow="visible"/>
		</clipPath>
	</g>
</g>
<g>
	<g>
		<defs>
			<polyline id="SVGID_127_" points="-136.593,3582 183.407,3582 183.407,-3068 -136.593,-3068 			"/>
		</defs>
		<clipPath id="SVGID_128_">
			<use xlink:href="#SVGID_127_"  overflow="visible"/>
		</clipPath>
	</g>
</g>
<g>
	<g>
		<defs>
			<polyline id="SVGID_129_" points="-136.593,3582 183.407,3582 183.407,-3068 -136.593,-3068 			"/>
		</defs>
		<clipPath id="SVGID_130_">
			<use xlink:href="#SVGID_129_"  overflow="visible"/>
		</clipPath>
	</g>
</g>
<g>
	<g>
		<defs>
			<polyline id="SVGID_131_" points="-136.593,3582 183.407,3582 183.407,-3068 -136.593,-3068 			"/>
		</defs>
		<clipPath id="SVGID_132_">
			<use xlink:href="#SVGID_131_"  overflow="visible"/>
		</clipPath>
	</g>
</g>
<g>
	<g>
		<defs>
			<polyline id="SVGID_133_" points="-136.593,3582 183.407,3582 183.407,-3068 -136.593,-3068 			"/>
		</defs>
		<clipPath id="SVGID_134_">
			<use xlink:href="#SVGID_133_"  overflow="visible"/>
		</clipPath>
	</g>
</g>
<g>
	<g>
		<defs>
			<polyline id="SVGID_135_" points="-136.593,3582 183.407,3582 183.407,-3068 -136.593,-3068 			"/>
		</defs>
		<clipPath id="SVGID_136_">
			<use xlink:href="#SVGID_135_"  overflow="visible"/>
		</clipPath>
	</g>
</g>
<g>
	<g>
		<defs>
			<polyline id="SVGID_137_" points="-136.593,3582 183.407,3582 183.407,-3068 -136.593,-3068 			"/>
		</defs>
		<clipPath id="SVGID_138_">
			<use xlink:href="#SVGID_137_"  overflow="visible"/>
		</clipPath>
	</g>
</g>
<g>
	<g>
		<defs>
			<polyline id="SVGID_139_" points="-136.593,3582 183.407,3582 183.407,-3068 -136.593,-3068 			"/>
		</defs>
		<clipPath id="SVGID_140_">
			<use xlink:href="#SVGID_139_"  overflow="visible"/>
		</clipPath>
		<line clip-path="url(#SVGID_140_)" fill="#5F7332" x1="-109.633" y1="216.393" x2="-121.117" y2="216.393"/>
	</g>
</g>
<g>
	<g>
		<defs>
			<polyline id="SVGID_141_" points="-136.593,3582 183.407,3582 183.407,-3068 -136.593,-3068 			"/>
		</defs>
		<clipPath id="SVGID_142_">
			<use xlink:href="#SVGID_141_"  overflow="visible"/>
		</clipPath>
	</g>
</g>
<g>
	<g>
		<defs>
			<polyline id="SVGID_143_" points="-136.593,3582 183.407,3582 183.407,-3068 -136.593,-3068 			"/>
		</defs>
		<clipPath id="SVGID_144_">
			<use xlink:href="#SVGID_143_"  overflow="visible"/>
		</clipPath>
	</g>
</g>
<g>
	<g>
		<defs>
			<polyline id="SVGID_145_" points="-136.593,3582 183.407,3582 183.407,-3068 -136.593,-3068 			"/>
		</defs>
		<clipPath id="SVGID_146_">
			<use xlink:href="#SVGID_145_"  overflow="visible"/>
		</clipPath>
	</g>
</g>
<g>
	<g>
		<defs>
			<polyline id="SVGID_147_" points="-136.593,3582 183.407,3582 183.407,-3068 -136.593,-3068 			"/>
		</defs>
		<clipPath id="SVGID_148_">
			<use xlink:href="#SVGID_147_"  overflow="visible"/>
		</clipPath>
	</g>
</g>
<g>
	<defs>
		<path id="SVGID_149_" d="M243.653,228.283c0,3.516-2.855,6.368-6.375,6.368c-3.52,0-6.376-2.852-6.376-6.368
			s2.855-6.368,6.376-6.368C240.798,221.915,243.653,224.767,243.653,228.283"/>
	</defs>
	<clipPath id="SVGID_150_">
		<use xlink:href="#SVGID_149_"  overflow="visible"/>
	</clipPath>
	<g clip-path="url(#SVGID_150_)">
		<defs>
			<rect id="SVGID_151_" x="-136.593" y="-3068" width="320" height="6650"/>
		</defs>
		<clipPath id="SVGID_152_">
			<use xlink:href="#SVGID_151_"  overflow="visible"/>
		</clipPath>
		<rect x="225.902" y="216.915" clip-path="url(#SVGID_152_)" fill="#97723F" width="22.751" height="22.736"/>
	</g>
</g>
<g>
	<defs>
		<path id="SVGID_153_" d="M215.041,233.896c0,1.864-1.513,3.376-3.379,3.376c-1.866,0-3.379-1.512-3.379-3.376
			s1.513-3.375,3.379-3.375C213.528,230.521,215.041,232.032,215.041,233.896"/>
	</defs>
	<clipPath id="SVGID_154_">
		<use xlink:href="#SVGID_153_"  overflow="visible"/>
	</clipPath>
	<g clip-path="url(#SVGID_154_)">
		<defs>
			<rect id="SVGID_155_" x="-136.593" y="-3068" width="320" height="6650"/>
		</defs>
		<clipPath id="SVGID_156_">
			<use xlink:href="#SVGID_155_"  overflow="visible"/>
		</clipPath>
		<rect x="203.283" y="225.521" clip-path="url(#SVGID_156_)" fill="#97723F" width="16.758" height="16.751"/>
	</g>
</g>
<g>
	<g>
		<defs>
			<polyline id="SVGID_157_" points="-136.593,3585 183.407,3585 183.407,-3065 -136.593,-3065 			"/>
		</defs>
		<clipPath id="SVGID_158_">
			<use xlink:href="#SVGID_157_"  overflow="visible"/>
		</clipPath>
		<g clip-path="url(#SVGID_158_)">
			<g>
				<defs>
					<path id="SVGID_159_" d="M313.922,200.523c5.673,0,10.273,4.593,10.273,10.26"/>
				</defs>
				<defs>
					<path id="SVGID_160_" d="M324.194,210.783c0,5.667-4.6,10.26-10.273,10.26h-464.856c-5.673,0-10.271-4.593-10.271-10.26
						s4.598-10.26,10.271-10.26"/>
				</defs>
				<clipPath id="SVGID_161_">
					<use xlink:href="#SVGID_159_"  overflow="visible"/>
				</clipPath>
				<clipPath id="SVGID_162_" clip-path="url(#SVGID_161_)">
					<use xlink:href="#SVGID_160_"  overflow="visible"/>
				</clipPath>
				<g clip-path="url(#SVGID_162_)">
					<defs>
						<polyline id="SVGID_163_" points="-136.593,222 183.407,222 183.407,200 						"/>
					</defs>
					<clipPath id="SVGID_164_">
						<use xlink:href="#SVGID_163_"  overflow="visible"/>
					</clipPath>
				</g>
			</g>
		</g>
	</g>
</g>
<g>
	<g>
		<defs>
			<polyline id="SVGID_165_" points="-136.593,3586.48 183.407,3586.48 183.407,-3063.52 -136.593,-3063.52 			"/>
		</defs>
		<clipPath id="SVGID_166_">
			<use xlink:href="#SVGID_165_"  overflow="visible"/>
		</clipPath>
		<g clip-path="url(#SVGID_166_)">
			<defs>
				<polyline id="SVGID_167_" points="-136.593,223.48 183.407,223.48 183.407,211.48 				"/>
			</defs>
			<clipPath id="SVGID_168_">
				<use xlink:href="#SVGID_167_"  overflow="visible"/>
			</clipPath>
			<g clip-path="url(#SVGID_168_)">
				<defs>
					<path id="SVGID_169_" d="M-161.205,212.263c0,5.667,4.598,10.26,10.271,10.26"/>
				</defs>
				<defs>
					<path id="SVGID_170_" d="M-150.934,222.523h464.856c5.673,0,10.273-4.593,10.273-10.26"/>
				</defs>
				<clipPath id="SVGID_171_">
					<use xlink:href="#SVGID_169_"  overflow="visible"/>
				</clipPath>
				<clipPath id="SVGID_172_" clip-path="url(#SVGID_171_)">
					<use xlink:href="#SVGID_170_"  overflow="visible"/>
				</clipPath>
				<g clip-path="url(#SVGID_172_)">
					<defs>
						<polyline id="SVGID_173_" points="-136.593,223.48 183.407,223.48 183.407,211.48 						"/>
					</defs>
					<clipPath id="SVGID_174_">
						<use xlink:href="#SVGID_173_"  overflow="visible"/>
					</clipPath>
				</g>
			</g>
		</g>
	</g>
</g>
<g>
	<defs>
		<path id="SVGID_175_" d="M197.951,234.991c0,0.701-0.57,1.271-1.273,1.271c-0.702,0-1.271-0.57-1.271-1.271
			c0-0.703,0.569-1.272,1.271-1.272C197.382,233.719,197.951,234.288,197.951,234.991"/>
	</defs>
	<clipPath id="SVGID_176_">
		<use xlink:href="#SVGID_175_"  overflow="visible"/>
	</clipPath>
	<g clip-path="url(#SVGID_176_)">
		<defs>
			<rect id="SVGID_177_" x="-136.593" y="-3068" width="320" height="6650"/>
		</defs>
		<clipPath id="SVGID_178_">
			<use xlink:href="#SVGID_177_"  overflow="visible"/>
		</clipPath>
		<rect x="190.407" y="228.719" clip-path="url(#SVGID_178_)" fill="#97723F" width="12.544" height="12.543"/>
	</g>
</g>
<g>
	<defs>
		<path id="SVGID_179_" d="M216.269,269.279c0,2.414,1.959,4.373,4.378,4.373c2.417,0,4.378-1.959,4.378-4.373
			c0-2.416-1.96-4.373-4.378-4.373C218.229,264.906,216.269,266.863,216.269,269.279"/>
	</defs>
	<clipPath id="SVGID_180_">
		<use xlink:href="#SVGID_179_"  overflow="visible"/>
	</clipPath>
	<g clip-path="url(#SVGID_180_)">
		<defs>
			<rect id="SVGID_181_" x="-136.593" y="-3068" width="320" height="6650"/>
		</defs>
		<clipPath id="SVGID_182_">
			<use xlink:href="#SVGID_181_"  overflow="visible"/>
		</clipPath>
		<rect x="211.269" y="259.906" clip-path="url(#SVGID_182_)" fill="#97723F" width="18.755" height="18.746"/>
	</g>
</g>
<g>
	<defs>
		<path id="SVGID_183_" d="M194.797,280.713c0,3.329,2.701,6.025,6.032,6.025c3.332,0,6.032-2.696,6.032-6.025
			c0-3.327-2.7-6.025-6.032-6.025C197.499,274.688,194.797,277.386,194.797,280.713"/>
	</defs>
	<clipPath id="SVGID_184_">
		<use xlink:href="#SVGID_183_"  overflow="visible"/>
	</clipPath>
	<g clip-path="url(#SVGID_184_)">
		<defs>
			<rect id="SVGID_185_" x="-136.593" y="-3068" width="320" height="6650"/>
		</defs>
		<clipPath id="SVGID_186_">
			<use xlink:href="#SVGID_185_"  overflow="visible"/>
		</clipPath>
		<rect x="189.797" y="269.688" clip-path="url(#SVGID_186_)" fill="#694B26" width="22.064" height="22.05"/>
	</g>
</g>
<g>
	<defs>
		<path id="SVGID_187_" d="M189.214,261.182c0,4.068,3.301,7.366,7.373,7.366c4.072,0,7.373-3.298,7.373-7.366
			s-3.302-7.366-7.373-7.366C192.515,253.816,189.214,257.114,189.214,261.182"/>
	</defs>
	<clipPath id="SVGID_188_">
		<use xlink:href="#SVGID_187_"  overflow="visible"/>
	</clipPath>
	<g clip-path="url(#SVGID_188_)">
		<defs>
			<rect id="SVGID_189_" x="-136.593" y="-3068" width="320" height="6650"/>
		</defs>
		<clipPath id="SVGID_190_">
			<use xlink:href="#SVGID_189_"  overflow="visible"/>
		</clipPath>
		<rect x="184.214" y="248.816" clip-path="url(#SVGID_190_)" fill="#97723F" width="24.747" height="24.732"/>
	</g>
</g>
<g>
	<defs>
		<path id="SVGID_191_" d="M229.611,270.84c0,1.864,1.513,3.375,3.379,3.375c1.866,0,3.379-1.511,3.379-3.375
			s-1.513-3.376-3.379-3.376C231.124,267.464,229.611,268.976,229.611,270.84"/>
	</defs>
	<clipPath id="SVGID_192_">
		<use xlink:href="#SVGID_191_"  overflow="visible"/>
	</clipPath>
	<g clip-path="url(#SVGID_192_)">
		<defs>
			<rect id="SVGID_193_" x="-136.593" y="-3068" width="320" height="6650"/>
		</defs>
		<clipPath id="SVGID_194_">
			<use xlink:href="#SVGID_193_"  overflow="visible"/>
		</clipPath>
		<rect x="224.611" y="262.464" clip-path="url(#SVGID_194_)" fill="#97723F" width="16.758" height="16.751"/>
	</g>
</g>
<g>
	<defs>
		<path id="SVGID_195_" d="M232.748,269.602c0,0.703,0.569,1.272,1.272,1.272c0.703,0,1.272-0.569,1.272-1.272
			c0-0.701-0.57-1.271-1.272-1.271C233.317,268.331,232.748,268.901,232.748,269.602"/>
	</defs>
	<clipPath id="SVGID_196_">
		<use xlink:href="#SVGID_195_"  overflow="visible"/>
	</clipPath>
	<g clip-path="url(#SVGID_196_)">
		<defs>
			<rect id="SVGID_197_" x="-136.593" y="-3068" width="320" height="6650"/>
		</defs>
		<clipPath id="SVGID_198_">
			<use xlink:href="#SVGID_197_"  overflow="visible"/>
		</clipPath>
		<rect x="227.748" y="263.331" clip-path="url(#SVGID_198_)" fill="#694B26" width="12.544" height="12.543"/>
	</g>
</g>
<g>
	<defs>
		<path id="SVGID_199_" d="M210.266,272.139c0,0.702,0.569,1.272,1.272,1.272c0.703,0,1.273-0.57,1.273-1.272
			c0-0.701-0.57-1.271-1.273-1.271C210.835,270.868,210.266,271.438,210.266,272.139"/>
	</defs>
	<clipPath id="SVGID_200_">
		<use xlink:href="#SVGID_199_"  overflow="visible"/>
	</clipPath>
	<g clip-path="url(#SVGID_200_)">
		<defs>
			<rect id="SVGID_201_" x="-136.593" y="-3068" width="320" height="6650"/>
		</defs>
		<clipPath id="SVGID_202_">
			<use xlink:href="#SVGID_201_"  overflow="visible"/>
		</clipPath>
		<rect x="205.266" y="265.868" clip-path="url(#SVGID_202_)" fill="#97723F" width="12.545" height="12.543"/>
	</g>
</g>
<g>
	<defs>
		<path id="SVGID_203_" d="M197.893,267.704c0,0.702,0.57,1.27,1.272,1.27c0.703,0,1.272-0.568,1.272-1.27
			c0-0.703-0.569-1.271-1.272-1.271C198.463,266.433,197.893,267.001,197.893,267.704"/>
	</defs>
	<clipPath id="SVGID_204_">
		<use xlink:href="#SVGID_203_"  overflow="visible"/>
	</clipPath>
	<g clip-path="url(#SVGID_204_)">
		<defs>
			<rect id="SVGID_205_" x="-136.593" y="-3068" width="320" height="6650"/>
		</defs>
		<clipPath id="SVGID_206_">
			<use xlink:href="#SVGID_205_"  overflow="visible"/>
		</clipPath>
		<rect x="192.893" y="261.433" clip-path="url(#SVGID_206_)" fill="#97723F" width="12.544" height="12.541"/>
	</g>
</g>
<g>
	<defs>
		<path id="SVGID_207_" d="M192.331,314.282c0,2.414,1.959,4.373,4.378,4.373c2.417,0,4.378-1.959,4.378-4.373
			c0-2.416-1.96-4.373-4.378-4.373C194.29,309.909,192.331,311.866,192.331,314.282"/>
	</defs>
	<clipPath id="SVGID_208_">
		<use xlink:href="#SVGID_207_"  overflow="visible"/>
	</clipPath>
	<g clip-path="url(#SVGID_208_)">
		<defs>
			<rect id="SVGID_209_" x="-136.593" y="-3068" width="320" height="6650"/>
		</defs>
		<clipPath id="SVGID_210_">
			<use xlink:href="#SVGID_209_"  overflow="visible"/>
		</clipPath>
		<rect x="187.331" y="304.909" clip-path="url(#SVGID_210_)" fill="#97723F" width="18.755" height="18.746"/>
	</g>
</g>
<g>
	<defs>
		<path id="SVGID_211_" d="M205.672,315.842c0,1.864,1.513,3.376,3.379,3.376c1.866,0,3.379-1.512,3.379-3.376
			s-1.513-3.375-3.379-3.375C207.185,312.467,205.672,313.978,205.672,315.842"/>
	</defs>
	<clipPath id="SVGID_212_">
		<use xlink:href="#SVGID_211_"  overflow="visible"/>
	</clipPath>
	<g clip-path="url(#SVGID_212_)">
		<defs>
			<rect id="SVGID_213_" x="-136.593" y="-3068" width="320" height="6650"/>
		</defs>
		<clipPath id="SVGID_214_">
			<use xlink:href="#SVGID_213_"  overflow="visible"/>
		</clipPath>
		<rect x="200.672" y="307.467" clip-path="url(#SVGID_214_)" fill="#97723F" width="16.758" height="16.751"/>
	</g>
</g>
<g>
	<defs>
		<path id="SVGID_215_" d="M208.809,314.605c0,0.703,0.569,1.271,1.272,1.271c0.703,0,1.272-0.568,1.272-1.271
			c0-0.702-0.57-1.272-1.272-1.272C209.378,313.333,208.809,313.903,208.809,314.605"/>
	</defs>
	<clipPath id="SVGID_216_">
		<use xlink:href="#SVGID_215_"  overflow="visible"/>
	</clipPath>
	<g clip-path="url(#SVGID_216_)">
		<defs>
			<rect id="SVGID_217_" x="-136.593" y="-3068" width="320" height="6650"/>
		</defs>
		<clipPath id="SVGID_218_">
			<use xlink:href="#SVGID_217_"  overflow="visible"/>
		</clipPath>
		<rect x="203.809" y="308.333" clip-path="url(#SVGID_218_)" fill="#694B26" width="12.544" height="12.543"/>
	</g>
</g>
<g>
	<defs>
		<path id="SVGID_219_" d="M186.327,317.142c0,0.701,0.57,1.271,1.272,1.271c0.703,0,1.273-0.57,1.273-1.271
			c0-0.702-0.57-1.272-1.273-1.272C186.897,315.87,186.327,316.44,186.327,317.142"/>
	</defs>
	<clipPath id="SVGID_220_">
		<use xlink:href="#SVGID_219_"  overflow="visible"/>
	</clipPath>
	<g clip-path="url(#SVGID_220_)">
		<defs>
			<rect id="SVGID_221_" x="-136.593" y="-3068" width="320" height="6650"/>
		</defs>
		<clipPath id="SVGID_222_">
			<use xlink:href="#SVGID_221_"  overflow="visible"/>
		</clipPath>
		<rect x="181.327" y="310.87" clip-path="url(#SVGID_222_)" fill="#97723F" width="12.545" height="12.543"/>
	</g>
</g>
<g>
	<defs>
		<polyline id="SVGID_223_" points="-136.593,3582 183.407,3582 183.407,-3068 -136.593,-3068 		"/>
	</defs>
	<clipPath id="SVGID_224_">
		<use xlink:href="#SVGID_223_"  overflow="visible"/>
	</clipPath>
	<g clip-path="url(#SVGID_224_)">
		<defs>
			<line id="SVGID_225_" x1="183.407" y1="208" x2="183.407" y2="182"/>
		</defs>
		<clipPath id="SVGID_226_">
			<use xlink:href="#SVGID_225_"  overflow="visible"/>
		</clipPath>
		<g clip-path="url(#SVGID_226_)">
			<defs>
				<line id="SVGID_227_" x1="183.407" y1="208" x2="183.407" y2="182"/>
			</defs>
			<clipPath id="SVGID_228_">
				<use xlink:href="#SVGID_227_"  overflow="visible"/>
			</clipPath>
		</g>
	</g>
</g>
<g>
	<g>
		<defs>
			<rect id="SVGID_229_" x="93.263" y="-3096.901" width="320" height="6650"/>
		</defs>
		<clipPath id="SVGID_230_">
			<use xlink:href="#SVGID_229_"  overflow="visible"/>
		</clipPath>
	</g>
</g>
<g>
	<g>
		<defs>
			<rect id="SVGID_231_" x="93.263" y="-3096.901" width="320" height="6650"/>
		</defs>
		<clipPath id="SVGID_232_">
			<use xlink:href="#SVGID_231_"  overflow="visible"/>
		</clipPath>
	</g>
</g>
<g>
	<g>
		<defs>
			<rect id="SVGID_233_" x="93.263" y="-3096.901" width="320" height="6650"/>
		</defs>
		<clipPath id="SVGID_234_">
			<use xlink:href="#SVGID_233_"  overflow="visible"/>
		</clipPath>
	</g>
</g>
<g>
	<g>
		<defs>
			<rect id="SVGID_235_" x="93.263" y="-3096.901" width="320" height="6650"/>
		</defs>
		<clipPath id="SVGID_236_">
			<use xlink:href="#SVGID_235_"  overflow="visible"/>
		</clipPath>
	</g>
</g>
<g>
	<g>
		<defs>
			<rect id="SVGID_237_" x="93.263" y="-3096.901" width="320" height="6650"/>
		</defs>
		<clipPath id="SVGID_238_">
			<use xlink:href="#SVGID_237_"  overflow="visible"/>
		</clipPath>
	</g>
</g>
<g>
	<g>
		<defs>
			<rect id="SVGID_239_" x="93.263" y="-3096.901" width="320" height="6650"/>
		</defs>
		<clipPath id="SVGID_240_">
			<use xlink:href="#SVGID_239_"  overflow="visible"/>
		</clipPath>
	</g>
</g>
<g>
	<g>
		<defs>
			<rect id="SVGID_241_" x="93.263" y="-3096.901" width="320" height="6650"/>
		</defs>
		<clipPath id="SVGID_242_">
			<use xlink:href="#SVGID_241_"  overflow="visible"/>
		</clipPath>
	</g>
</g>
<g>
	<g>
		<defs>
			<rect id="SVGID_243_" x="93.263" y="-3096.901" width="320" height="6650"/>
		</defs>
		<clipPath id="SVGID_244_">
			<use xlink:href="#SVGID_243_"  overflow="visible"/>
		</clipPath>
	</g>
</g>
<g>
	<g>
		<defs>
			<rect id="SVGID_245_" x="93.263" y="-3096.901" width="320" height="6650"/>
		</defs>
		<clipPath id="SVGID_246_">
			<use xlink:href="#SVGID_245_"  overflow="visible"/>
		</clipPath>
	</g>
</g>
<g>
	<g>
		<defs>
			<rect id="SVGID_247_" x="93.263" y="-3096.901" width="320" height="6650"/>
		</defs>
		<clipPath id="SVGID_248_">
			<use xlink:href="#SVGID_247_"  overflow="visible"/>
		</clipPath>
	</g>
</g>
<g>
	<g>
		<defs>
			<rect id="SVGID_249_" x="93.263" y="-3096.901" width="320" height="6650"/>
		</defs>
		<clipPath id="SVGID_250_">
			<use xlink:href="#SVGID_249_"  overflow="visible"/>
		</clipPath>
	</g>
</g>
<g>
	<g>
		<defs>
			<rect id="SVGID_251_" x="93.263" y="-3096.901" width="320" height="6650"/>
		</defs>
		<clipPath id="SVGID_252_">
			<use xlink:href="#SVGID_251_"  overflow="visible"/>
		</clipPath>
	</g>
</g>
<g>
	<g>
		<defs>
			<rect id="SVGID_253_" x="93.263" y="-3096.901" width="320" height="6650"/>
		</defs>
		<clipPath id="SVGID_254_">
			<use xlink:href="#SVGID_253_"  overflow="visible"/>
		</clipPath>
	</g>
</g>
<g>
	<g>
		<defs>
			<rect id="SVGID_255_" x="93.263" y="-3096.901" width="320" height="6650"/>
		</defs>
		<clipPath id="SVGID_256_">
			<use xlink:href="#SVGID_255_"  overflow="visible"/>
		</clipPath>
	</g>
</g>
<g>
	<g>
		<defs>
			<rect id="SVGID_257_" x="93.263" y="-3096.901" width="320" height="6650"/>
		</defs>
		<clipPath id="SVGID_258_">
			<use xlink:href="#SVGID_257_"  overflow="visible"/>
		</clipPath>
	</g>
</g>
<g>
	<g>
		<defs>
			<rect id="SVGID_259_" x="93.263" y="-3096.901" width="320" height="6650"/>
		</defs>
		<clipPath id="SVGID_260_">
			<use xlink:href="#SVGID_259_"  overflow="visible"/>
		</clipPath>
	</g>
</g>
<g>
	<g>
		<defs>
			<rect id="SVGID_261_" x="93.263" y="-3096.901" width="320" height="6650"/>
		</defs>
		<clipPath id="SVGID_262_">
			<use xlink:href="#SVGID_261_"  overflow="visible"/>
		</clipPath>
	</g>
</g>
<g>
	<g>
		<defs>
			<rect id="SVGID_263_" x="93.263" y="-3096.901" width="320" height="6650"/>
		</defs>
		<clipPath id="SVGID_264_">
			<use xlink:href="#SVGID_263_"  overflow="visible"/>
		</clipPath>
	</g>
</g>
</svg>
