<?xml version="1.0" encoding="utf-8"?>
<!-- Generator: Adobe Illustrator 16.0.0, SVG Export Plug-In . SVG Version: 6.00 Build 0)  -->
<!DOCTYPE svg PUBLIC "-//W3C//DTD SVG 1.1//EN" "http://www.w3.org/Graphics/SVG/1.1/DTD/svg11.dtd">
<svg version="1.1" id="Capa_1" xmlns="http://www.w3.org/2000/svg" xmlns:xlink="http://www.w3.org/1999/xlink" x="0px" y="0px"
	 width="86.451px" height="86.451px" viewBox="0 0 86.451 86.451" enable-background="new 0 0 86.451 86.451" xml:space="preserve">
<g>
	<ellipse fill="#AD783E" cx="43.226" cy="43.197" rx="43.226" ry="43.197"/>
	<path fill="#FFFFFF" d="M49.046,14.055c-14.267,3.118-14.087,13.9-14.087,13.9v5.944v8.036h-8.497v13.285h8.497L34.9,85.826
		c2.677,0.518,5.438,0.625,8.266,0.625c3.122,0,6.163-0.166,9.098-0.794l0.06-30.437h12.914l1.258-13.285H52.323v-8.036
		c0-10.657,14.52-5.417,14.52-5.417l1.95-13.458C68.793,15.024,59.054,11.875,49.046,14.055z"/>
	<g>
		<path fill="#F0F1F1" d="M60.305,27.208c3.374,0.134,6.538,1.274,6.538,1.274l1.307-9.016L60.305,27.208z"/>
	</g>
</g>
</svg>
