<?xml version="1.0" encoding="utf-8"?>
<!-- Generator: Adobe Illustrator 16.0.0, SVG Export Plug-In . SVG Version: 6.00 Build 0)  -->
<!DOCTYPE svg PUBLIC "-//W3C//DTD SVG 1.1//EN" "http://www.w3.org/Graphics/SVG/1.1/DTD/svg11.dtd">
<svg version="1.1" id="Capa_1" xmlns="http://www.w3.org/2000/svg" xmlns:xlink="http://www.w3.org/1999/xlink" x="0px" y="0px"
	 width="86.451px" height="86.451px" viewBox="0 0 86.451 86.451" enable-background="new 0 0 86.451 86.451" xml:space="preserve">
<g>
	<circle fill="#AD783E" cx="43.226" cy="42.749" r="43.226"/>
	<path fill="#FFFFFF" d="M57.988,20.113H38.16c-5.191,0-11.731,0.764-17.232,5.229c-4.118,3.516-6.159,8.375-6.159,12.748
		c0,7.416,5.778,14.932,15.986,14.932c0.97,0,2.007-0.1,3.081-0.203c-0.485,1.127-0.97,2.082-0.97,3.689
		c0,2.971,1.557,4.781,2.906,6.49c-4.359,0.273-12.422,0.754-18.409,4.377c-2.565,1.5-4.32,3.312-5.478,5.166
		c2.015,2.119,4.24,4.035,6.646,5.711c-0.055-0.418-0.092-0.842-0.092-1.277c0-6.768,6.159-9.057,8.27-9.807
		c4.048-1.33,9.238-1.504,10.104-1.504c0.968,0,1.453,0,2.214,0.07c7.336,5.158,10.485,7.721,10.485,12.572
		c0,3.107-1.366,5.791-4.017,7.635c2.017-0.105,3.994-0.357,5.928-0.729c3.016-3.107,4.559-6.875,4.559-10.631
		c0-6.561-3.84-9.807-8.099-13.293l-3.458-2.664c-1.076-0.854-2.493-2.018-2.493-4.102c0-2.082,1.417-3.416,2.698-4.648
		c4.014-3.141,8.063-6.455,8.063-13.494c0-7.234-4.604-11.039-6.816-12.846h5.951L57.988,20.113z M41.828,47.693
		c-1.555,1.502-4.151,2.664-6.539,2.664c-8.305,0-12.042-10.557-12.042-16.947c0-2.459,0.485-5.021,2.111-7.018
		c1.556-1.904,4.254-3.141,6.747-3.141c7.994,0,12.111,10.637,12.111,17.504C44.216,42.465,44.044,45.506,41.828,47.693z"/>
	<path fill="#FFFFFF" d="M85.337,33.016c-0.063-0.275-0.122-0.553-0.19-0.826c-0.108-0.43-0.229-0.855-0.351-1.281
		c-0.067-0.236-0.13-0.475-0.201-0.709c-0.052-0.17-0.11-0.338-0.166-0.506h-7.534v-9.58h-4.361v9.58h-9.3v4.129h9.3v9.668h4.361
		v-9.668h8.622C85.458,33.553,85.398,33.283,85.337,33.016z"/>
</g>
</svg>
