<?xml version="1.0" encoding="utf-8"?>
<!-- Generator: Adobe Illustrator 16.0.0, SVG Export Plug-In . SVG Version: 6.00 Build 0)  -->
<!DOCTYPE svg PUBLIC "-//W3C//DTD SVG 1.1//EN" "http://www.w3.org/Graphics/SVG/1.1/DTD/svg11.dtd">
<svg version="1.1" id="Capa_1" xmlns="http://www.w3.org/2000/svg" xmlns:xlink="http://www.w3.org/1999/xlink" x="0px" y="0px"
	 width="86.451px" height="86.451px" viewBox="0 0 86.451 86.451" enable-background="new 0 0 86.451 86.451" xml:space="preserve">
<g>
	<g>
		<circle fill="#AD783E" cx="43.225" cy="43.226" r="43.226"/>
	</g>
	<path fill-rule="evenodd" clip-rule="evenodd" fill="#FFFFFF" d="M56.305,25.294c0.603,0,1.205,0,1.808,0
		c0.078,0.073,0.156,0.094,0.233,0c0.098,0,0.195,0,0.292,0c-0.007,0.156,0.125,0.097,0.191,0.11
		c0.304,0.057,0.617,0.094,0.917,0.159c2.339,0.496,4.347,1.593,6.029,3.276c0.113,0.115,0.211,0.187,0.397,0.147
		c2.01-0.423,3.939-1.067,5.776-1.977c0.527-0.255,1.038-0.533,1.61-0.828c-0.463,1.38-1.124,2.591-2,3.689
		c-0.883,1.104-1.943,2.019-3.138,2.787c2.319-0.264,4.532-0.871,6.746-1.815c-0.125,0.182-0.192,0.283-0.265,0.389
		c-1.521,2.149-3.346,4.008-5.488,5.563c-0.161,0.116-0.213,0.238-0.21,0.426c0.009,0.729,0.038,1.459,0.017,2.186
		c-0.049,1.919-0.282,3.81-0.676,5.684c-0.78,3.727-2.137,7.246-4.063,10.548c-1.858,3.174-4.164,5.986-6.946,8.422
		C55,66.271,52.18,68.049,49.073,69.38c-2.573,1.096-5.247,1.856-8.019,2.282c-1.039,0.162-2.079,0.293-3.124,0.354
		c-0.083,0.006-0.226-0.062-0.256,0.103c-0.155,0-0.311,0-0.466,0c-0.116-0.088-0.235-0.074-0.352,0c-1.089,0-2.179,0-3.27,0
		c-0.078-0.074-0.155-0.094-0.233,0c-0.194,0-0.391,0-0.585,0c0.004-0.008,0.013-0.017,0.018-0.022s0.012-0.022,0.012-0.022
		c-0.092-0.071-0.204-0.058-0.307-0.065c-1.98-0.142-3.93-0.475-5.85-0.96c-3.067-0.786-5.966-1.98-8.697-3.562
		c-0.35-0.201-0.691-0.422-1.108-0.675c6.588,0.655,12.437-0.957,17.7-4.876c-6.186-0.248-10.036-4.5-11.146-8.225
		c1.77,0.304,3.517,0.264,5.255-0.21c-2.765-0.633-5.064-2.013-6.841-4.195c-1.783-2.191-2.631-4.7-2.64-7.557
		c0.857,0.469,1.704,0.815,2.591,1.056c0.896,0.248,1.804,0.398,2.787,0.424c-6.271-4.369-6.187-11.826-3.626-15.743
		c0.715,0.868,1.471,1.694,2.268,2.481c2.19,2.162,4.628,4.01,7.324,5.518c4.612,2.574,9.567,4.003,14.854,4.312
		c0.155,0.012,0.202-0.014,0.159-0.187c-0.142-0.577-0.216-1.17-0.248-1.766c-0.134-2.563,0.448-4.953,1.878-7.104
		c2.014-3.028,4.848-4.819,8.492-5.341c0.064-0.009,0.196,0.048,0.193-0.105c0.095,0,0.194,0,0.292,0
		C56.187,25.367,56.245,25.367,56.305,25.294z"/>
</g>
</svg>
