<?xml version="1.0" encoding="utf-8"?>
<!-- Generator: Adobe Illustrator 19.1.0, SVG Export Plug-In . SVG Version: 6.00 Build 0)  -->
<svg version="1.1" id="Capa_1" xmlns="http://www.w3.org/2000/svg" xmlns:xlink="http://www.w3.org/1999/xlink" x="0px" y="0px"
	 viewBox="0 0 341.2 300" style="enable-background:new 0 0 341.2 300;" xml:space="preserve">
<style type="text/css">
	.st0{fill:#FFFFFF;}
	.st1{opacity:0.3;}
	.st2{fill:#472728;}
	.st3{fill:#3D6D74;}
	.st4{opacity:0.5;clip-path:url(#SVGID_2_);}
	.st5{opacity:0.75;clip-path:url(#SVGID_4_);}
	.st6{clip-path:url(#SVGID_6_);}
	.st7{clip-path:url(#SVGID_4_);}
	.st8{fill:#ACD2E2;}
	.st9{clip-path:url(#SVGID_10_);}
	.st10{opacity:0.75;clip-path:url(#SVGID_12_);}
	.st11{clip-path:url(#SVGID_14_);}
	.st12{clip-path:url(#SVGID_12_);}
	.st13{opacity:0.75;clip-path:url(#SVGID_18_);}
	.st14{clip-path:url(#SVGID_20_);}
	.st15{clip-path:url(#SVGID_18_);}
	.st16{opacity:0.75;clip-path:url(#SVGID_24_);}
	.st17{clip-path:url(#SVGID_26_);}
	.st18{clip-path:url(#SVGID_24_);}
	.st19{fill:none;}
	.st20{fill:#75B5C6;}
	.st21{fill:#66A5B6;}
	.st22{fill:#EFCE36;}
	.st23{fill:#8CB2C1;}
	.st24{opacity:0.75;}
	.st25{fill:#C845D8;}
	.st26{fill:#AA00B7;}
	.st27{fill:#734A1E;}
</style>
<g>
	<path class="st0" d="M170.9,293.3c65.4,0,118.3-53.4,118.3-118.9v-0.4c0-65.4-52.9-118.5-118.3-118.5
		c-65.5,0-118.7,53.1-118.7,118.6v0.1C52.2,239.8,105.4,293.3,170.9,293.3z"/>
	<path class="st1" d="M241.9,78.6c0,0-16.2-41.9-74.3-38.7l32.2,13.8L241.9,78.6z"/>
	<path class="st1" d="M284.8,141.7c-1.2-1.8,1.6-4,2.3-5.8c4.1-11.6,4.8-20.5,4.9-20.6l0-0.3l0-0.3c0.8-2.7,3.5-4.6,6.3-4.4l0.1-0.2
		v0c0-0.2,0.3,0.2,0.5,0.2c0.2,0,0.6,0.2,0.7,0.3c1.9,0.5,3.2,1.9,3.8,3.9c0.1,0.5,0.2,0.9,0.2,1.4l0.7-2.6c0.1-0.3,0.2-0.6,0.3-0.9
		c0,0,0-0.1,0-0.2c0.1-0.3,0.2-0.5,0.4-0.8l0.1-0.2c0.2-0.2,0.4-0.4,0.6-0.6c0,0,0.1-0.1,0.2-0.1c0.2-0.2,0.4-0.4,0.7-0.6l0.1-0.1
		c0.2-0.1,0.4-0.3,0.7-0.4c0,0,0.1,0,0.1,0c0.3-0.1,0.5-0.2,0.9-0.3c0.1,0,0.2,0,0.2,0c0.2,0,0.4-0.1,0.6-0.1c0.1,0,0.1,0,0.2,0
		l0.1,0l1.9,0.1l0.1,0c1.5,0.4,2.8,1.4,3.6,2.8c0.8,1.4,1,3,0.5,4.5l-0.8,2.9c1.2-1.7,3.2-2.6,5.3-2.4c0.9,0.1,1.8,0.4,2.6,0.9
		c0.5,0.3,0.9,0.7,1.3,1.1c1.6,1.8,1.9,4.4,0.8,6.5c0,0.1-0.1,0.2-0.1,0.2c-0.7,2-6.3,18-18.7,35.3c-4.9,6.8-10.2,12.8-15.8,18.2
		C290.2,179.5,290.8,150.6,284.8,141.7z"/>
	<g>
		<g>
			<path class="st2" d="M237,173.9c0,0-9,3.7-13.5,4.4l-7.5,22.6l9.8-1.1l6-0.9l3.1-0.6L237,173.9z"/>
			<g>
				<path class="st2" d="M304.6,96.6l-0.1,0c-0.1,0-0.2,0-0.2,0c-0.2,0-0.4,0-0.6,0.1c-0.1,0-0.1,0-0.2,0c-0.3,0.1-0.6,0.2-0.9,0.3
					c0,0-0.1,0-0.1,0c-0.3,0.1-0.5,0.3-0.8,0.4l-0.1,0.1c-0.3,0.2-0.5,0.4-0.7,0.6c-0.1,0.1-0.1,0.1-0.2,0.1
					c-0.2,0.2-0.5,0.4-0.6,0.6l-0.1,0.2c-0.2,0.3-0.3,0.6-0.5,0.8c0,0.1,0,0.1-0.1,0.2c-0.1,0.3-0.3,0.6-0.3,1l-0.8,2.7
					c0-0.5-0.1-1-0.3-1.5c-0.6-2.1-2.1-3.6-4.2-4.2c-0.2-0.1-0.9-0.3-1.1-0.3c-0.2,0-0.2-0.5-1-0.2v0l0.3,0.2
					c-3-0.2-5.5,1.8-6.3,4.7l0,0.3l0,0.3c0,0.1-0.8,9.7-5.2,22c-4,11.3-11.8,27.2-26.5,38.9c-5.4,4.3-11.5,7.9-18.1,10.5l-3.8,24.5
					c14.7-2.9,28.4-8.9,40.8-18c10.3-7.5,19.7-17.2,27.9-28.6c13.3-18.4,19.3-35.5,20-37.7c0-0.1,0.1-0.2,0.1-0.2
					c1.2-2.3,0.8-5-0.8-7c-0.4-0.5-0.9-0.9-1.4-1.2c-0.8-0.5-1.8-0.9-2.8-1c-2.2-0.2-4.4,0.7-5.7,2.5l0.9-3c0.5-1.6,0.3-3.3-0.6-4.8
					c-0.8-1.5-2.2-2.5-3.8-3l-0.2,0L304.6,96.6z"/>
				<g>
					<g>
						<path class="st3" d="M223.9,180.7l-4.9,17.3c73.8-5.3,99.3-84.5,99.3-84.5c1.1-1.7,0.6-4.1-1.1-5.2c-1.8-1.1-4.1-0.6-5.2,1.1
							l-3.8,5.9l-0.4,0.7c-0.3,0.3-0.8,0.4-1.3,0.3c-0.8-0.2-1.2-1-1-1.8l3-10.6c0.6-2-0.6-4.1-2.6-4.7c-2-0.6-4.1,0.6-4.7,2.6
							l-3,10.6l0,0c0,0,0,0.1,0,0.1c-0.2,0.8-1.1,1.3-1.9,1c-0.7-0.2-1.2-0.9-1.1-1.6l0.2-6.6c0.2-2.2-0.6-4.1-2.6-4.7
							c-2-0.6-4.1,0.6-4.7,2.6C288.1,103.2,282.7,167.5,223.9,180.7"/>
					</g>
					<g>
						<defs>
							<path id="SVGID_1_" d="M301.1,101.8l-3,10.6l0,0c0,0,0,0.1,0,0.1c-0.2,0.8-1.1,1.3-1.9,1c-0.7-0.2-1.2-0.9-1.1-1.6l0.2-6.6
								c0.2-2.2-0.6-4.1-2.6-4.7c-2-0.6-4.1,0.6-4.7,2.6c0,0-5.3,64.3-64.2,77.5l-4.9,17.3c73.8-5.3,99.3-84.5,99.3-84.5
								c1.1-1.8,0.6-4.1-1.1-5.2c-1.8-1.1-4.1-0.6-5.2,1.1l-3.8,5.9l-0.4,0.7c-0.3,0.3-0.8,0.4-1.3,0.3c-0.8-0.2-1.2-1-1-1.8l3-10.6
								c0.6-2-0.6-4.1-2.6-4.7c-0.2-0.1-0.4-0.1-0.7-0.1C303.3,98.9,301.6,100.1,301.1,101.8"/>
						</defs>
						<clipPath id="SVGID_2_">
							<use xlink:href="#SVGID_1_"  style="overflow:visible;"/>
						</clipPath>
						<g class="st4">
							<g>
								<defs>
									
										<rect id="SVGID_3_" x="268" y="114" transform="matrix(-0.9953 -9.691358e-02 9.691358e-02 -0.9953 577.4815 293.4774)" width="55.7" height="37.4"/>
								</defs>
								<clipPath id="SVGID_4_">
									<use xlink:href="#SVGID_3_"  style="overflow:visible;"/>
								</clipPath>
								<g class="st5">
									<g>
										<defs>
											
												<rect id="SVGID_5_" x="268" y="114" transform="matrix(-0.9953 -9.691358e-02 9.691358e-02 -0.9953 577.4815 293.4774)" width="55.7" height="37.4"/>
										</defs>
										<clipPath id="SVGID_6_">
											<use xlink:href="#SVGID_5_"  style="overflow:visible;"/>
										</clipPath>
										<g class="st6">
											<defs>
												
													<rect id="SVGID_7_" x="268" y="114" transform="matrix(-0.9953 -9.691358e-02 9.691358e-02 -0.9953 577.4826 293.4774)" width="55.7" height="37.5"/>
											</defs>
											<clipPath id="SVGID_8_">
												<use xlink:href="#SVGID_7_"  style="overflow:visible;"/>
											</clipPath>
											<g transform="matrix(1 -7.450581e-09 7.450581e-09 1 0 7.629395e-06)" style="clip-path:url(#SVGID_8_);">
												
													<image style="overflow:visible;" width="131" height="88" xlink:href="EADB0572B9014F8B.png"  transform="matrix(0.4236 4.124307e-02 -4.124307e-02 0.4236 269.9419 111.3749)">
												</image>
											</g>
										</g>
									</g>
								</g>
								<g class="st7">
									
										<rect x="276.2" y="126.5" transform="matrix(-0.9279 -0.3728 0.3728 -0.9279 520.2927 364.4572)" class="st8" width="38.4" height="10.9"/>
								</g>
							</g>
						</g>
						<g class="st4">
							<g>
								<defs>
									
										<rect id="SVGID_9_" x="226.4" y="171.7" transform="matrix(-0.9953 -9.686199e-02 9.686199e-02 -0.9953 462.5685 404.3099)" width="29.4" height="38.4"/>
								</defs>
								<clipPath id="SVGID_10_">
									<use xlink:href="#SVGID_9_"  style="overflow:visible;"/>
								</clipPath>
								<g class="st9">
									
										<rect x="221.9" y="185.5" transform="matrix(-0.4402 -0.8979 0.8979 -0.4402 175.7786 491.4499)" class="st8" width="38.4" height="10.9"/>
								</g>
							</g>
						</g>
						<g class="st4">
							<g>
								<defs>
									
										<rect id="SVGID_11_" x="230.3" y="149.9" transform="matrix(-0.9953 -9.695791e-02 9.695791e-02 -0.9953 507.9748 391.6995)" width="66.4" height="67.2"/>
								</defs>
								<clipPath id="SVGID_12_">
									<use xlink:href="#SVGID_11_"  style="overflow:visible;"/>
								</clipPath>
								<g class="st10">
									<g>
										<defs>
											
												<rect id="SVGID_13_" x="230.3" y="149.9" transform="matrix(-0.9953 -9.695791e-02 9.695791e-02 -0.9953 507.9748 391.6995)" width="66.4" height="67.2"/>
										</defs>
										<clipPath id="SVGID_14_">
											<use xlink:href="#SVGID_13_"  style="overflow:visible;"/>
										</clipPath>
										<g class="st11">
											<defs>
												
													<rect id="SVGID_15_" x="230.3" y="149.9" transform="matrix(-0.9953 -9.695791e-02 9.695791e-02 -0.9953 507.9748 391.6995)" width="66.4" height="67.2"/>
											</defs>
											<clipPath id="SVGID_16_">
												<use xlink:href="#SVGID_15_"  style="overflow:visible;"/>
											</clipPath>
											<g transform="matrix(1 -7.450581e-09 7.450581e-09 1 -1.525879e-05 0)" style="clip-path:url(#SVGID_16_);">
												
													<image style="overflow:visible;" width="156" height="158" xlink:href="EADB0572B9014F89.png"  transform="matrix(0.4236 4.124307e-02 -4.124307e-02 0.4236 233.7246 146.8304)">
												</image>
											</g>
										</g>
									</g>
								</g>
								<g class="st12">
									
										<rect x="241.8" y="175" transform="matrix(-0.6172 -0.7868 0.7868 -0.6172 280.0435 497.1099)" class="st8" width="38.4" height="10.9"/>
								</g>
							</g>
						</g>
						<g class="st4">
							<g>
								<defs>
									
										<rect id="SVGID_17_" x="244.6" y="137.6" transform="matrix(-0.9953 -9.691970e-02 9.691970e-02 -0.9953 541.2447 364.0973)" width="69.8" height="62.6"/>
								</defs>
								<clipPath id="SVGID_18_">
									<use xlink:href="#SVGID_17_"  style="overflow:visible;"/>
								</clipPath>
								<g class="st13">
									<g>
										<defs>
											
												<rect id="SVGID_19_" x="244.6" y="137.6" transform="matrix(-0.9953 -9.691970e-02 9.691970e-02 -0.9953 541.2447 364.0973)" width="69.8" height="62.6"/>
										</defs>
										<clipPath id="SVGID_20_">
											<use xlink:href="#SVGID_19_"  style="overflow:visible;"/>
										</clipPath>
										<g class="st14">
											<defs>
												
													<rect id="SVGID_21_" x="244.6" y="137.6" transform="matrix(-0.9953 -9.691970e-02 9.691970e-02 -0.9953 541.2447 364.0973)" width="69.8" height="62.6"/>
											</defs>
											<clipPath id="SVGID_22_">
												<use xlink:href="#SVGID_21_"  style="overflow:visible;"/>
											</clipPath>
											<g transform="matrix(1 -7.450581e-09 7.450581e-09 1 0 0)" style="clip-path:url(#SVGID_22_);">
												
													<image style="overflow:visible;" width="164" height="147" xlink:href="EADB0572B9014F8F.png"  transform="matrix(0.4236 4.124307e-02 -4.124307e-02 0.4236 247.7647 134.3896)">
												</image>
											</g>
										</g>
									</g>
								</g>
								<g class="st15">
									
										<rect x="257.8" y="160.4" transform="matrix(-0.7673 -0.6413 0.6413 -0.7673 383.0593 470.6988)" class="st8" width="38.4" height="10.9"/>
								</g>
							</g>
						</g>
						<g class="st4">
							<g>
								<defs>
									
										<rect id="SVGID_23_" x="260.6" y="129.6" transform="matrix(-0.9953 -9.689590e-02 9.689590e-02 -0.9953 561.0648 327.312)" width="55.7" height="40.9"/>
								</defs>
								<clipPath id="SVGID_24_">
									<use xlink:href="#SVGID_23_"  style="overflow:visible;"/>
								</clipPath>
								<g class="st16">
									<g>
										<defs>
											
												<rect id="SVGID_25_" x="260.6" y="129.6" transform="matrix(-0.9953 -9.689590e-02 9.689590e-02 -0.9953 561.0648 327.312)" width="55.7" height="40.9"/>
										</defs>
										<clipPath id="SVGID_26_">
											<use xlink:href="#SVGID_25_"  style="overflow:visible;"/>
										</clipPath>
										<g class="st17">
											<defs>
												
													<rect id="SVGID_27_" x="260.6" y="129.6" transform="matrix(-0.9953 -9.689713e-02 9.689713e-02 -0.9953 561.0652 327.3123)" width="55.7" height="40.9"/>
											</defs>
											<clipPath id="SVGID_28_">
												<use xlink:href="#SVGID_27_"  style="overflow:visible;"/>
											</clipPath>
											<g transform="matrix(1 -7.450581e-09 7.450581e-09 1 0 0)" style="clip-path:url(#SVGID_28_);">
												
													<image style="overflow:visible;" width="131" height="96" xlink:href="EADB0572B9014F88.png"  transform="matrix(0.4236 4.124307e-02 -4.124307e-02 0.4236 262.7188 127.0007)">
												</image>
											</g>
										</g>
									</g>
								</g>
								<g class="st18">
									
										<rect x="268.7" y="143.8" transform="matrix(-0.8839 -0.4677 0.4677 -0.8839 472.5071 415.7844)" class="st8" width="38.4" height="10.9"/>
								</g>
							</g>
						</g>
					</g>
				</g>
			</g>
		</g>
		<path class="st19" d="M110.3,243.8l-1.2-20.9c-0.3,0.7-0.6,1.5-0.8,2.2c-6.3,17.7-4.6,35.4-2,47c0.2,0.8,0.3,1.5,0.5,2.2
			c4.1,2.6,8.3,5,12.6,7.1C113.5,270.6,110.3,257.6,110.3,243.8z"/>
		<path class="st2" d="M107,185.2l-0.6,0.6l0,0C106.6,185.6,106.8,185.4,107,185.2L107,185.2z"/>
		<path class="st2" d="M98.1,199.3c-1.5,2.1-3,4.3-4.3,6.4v0C95.1,203.5,96.6,201.4,98.1,199.3z"/>
		<path class="st2" d="M87.4,218L87.4,218c-1.9,3.7-3,7.5-4.2,11.2l0,0C84.4,225.5,85.5,221.7,87.4,218z"/>
		<path class="st2" d="M108.3,225.1c0.3-0.7,0.5-1.5,0.8-2.2l-0.3-5.5c-9.3,19.9-8.1,40.3-4.8,55.1c0.9,0.6,1.8,1.3,2.8,1.9
			c-0.2-0.7-0.3-1.5-0.5-2.2C103.7,260.4,102,242.8,108.3,225.1z"/>
		<path class="st2" d="M93.8,205.7L93.8,205.7c-0.5,0.9-1,1.7-1.5,2.6h0C92.7,207.4,93.2,206.5,93.8,205.7z"/>
		<path class="st2" d="M80.2,240L80.2,240c-0.7,3-1,6-2,9c0,0,0,0,0,0C79.2,246,79.5,243,80.2,240z"/>
		<path class="st2" d="M80.2,239.8c0.4-1.8,0.9-3.5,1.3-5.3c0,0,0,0,0,0c0.4-1.7,1-3.5,1.6-5.3c1.2-3.7,2.6-7.5,4.2-11.2
			c1.5-3.3,3.1-6.6,5-9.8c0.5-0.9,1-1.7,1.5-2.6c1.3-2.2,2.8-4.3,4.3-6.4c2.7-3.7,5.7-7.2,9.1-10.7l-0.1-1.5l-0.7-1.3
			c-9.9,9.8-17.7,21.5-23.1,34.8c-3.2,7.9-5.5,16.5-7,25.5c0.7,1,1.5,2,2.3,2.9C79,246,79.5,242.9,80.2,239.8z"/>
		<path class="st2" d="M107,185.2c-0.2,0.2-0.4,0.4-0.6,0.6l0.7,1.3L107,185.2z"/>
		<path class="st3" d="M108.2,217.4L108.2,217.4c-1,2.5-1.5,4.9-2.4,7.4c-0.5,1.4-0.6,2.7-0.6,4.1c0,0,0,0,0,0c-2,1.1-1,2.2-1.2,3.3
			c-0.8,3.6-1.6,7.2-1.9,10.7c-0.1,0.7-0.2,1.4-0.3,2c0,0.5-0.1,1-0.1,1.5c0,0.8-0.1,1.6-0.1,2.4c-0.1,3.8,0.1,7.4,0.4,10.9
			c0,0.1,0,0.3,0,0.4c0.2,2.1,0.5,4.1,0.8,6c0.2,1.1,0.3,2.1,0.5,3.1c0.2,1.1,0.4,2.1,0.6,3.2c0,0-0.3,0-0.3,0
			C100.4,257.6,100.2,237.2,108.2,217.4z"/>
		<path class="st3" d="M90.2,230.2l13.5,1.9c0.3-1.1,0.5-2.2,0.8-3.3l-2.3-4.6L90.2,230.2z"/>
		<polygon class="st3" points="90.2,230 90.2,230 102.6,224.1 105.2,228.9 105.2,228.9 102.6,224.1 		"/>
		<polygon class="st3" points="107.7,203.3 108,204 108,203.5 		"/>
		<path class="st3" d="M107.1,188.6c-0.3,0.3-0.6,0.6-0.9,1l1,0.6L107.1,188.6z"/>
		<path class="st3" d="M102.8,193.3c1.1-1.3,2.3-2.6,3.5-3.8c0.3-0.3,0.6-0.6,0.9-1v0c-3.4,3.4-6.4,7-9.1,10.7
			c0.3-0.4,0.7-0.9,1-1.3C100.3,196.4,101.5,194.8,102.8,193.3z"/>
		<path class="st3" d="M83.1,229.2l7.1,1l12.1-6l2.3,4.6c0.4-1.4,0.8-2.7,1.3-4.1L87.3,218C85.6,221.7,84.3,225.5,83.1,229.2z"/>
		<path class="st3" d="M93.8,205.7c-0.5,0.9-1,1.7-1.5,2.6l3.4,1.2L93.8,205.7z"/>
		<path class="st3" d="M95.7,209.5l13,4.7L108,204l-0.3-0.7l-8.6-5.4c-0.3,0.4-0.7,0.9-1,1.3c-1.5,2.1-3,4.3-4.3,6.4L95.7,209.5z"/>
		<path class="st3" d="M96.1,249.2l5.5-2.7c0-0.5,0.1-1,0.1-1.5l-9.2,4.5L96.1,249.2z"/>
		<path class="st3" d="M101.6,248.8c0-0.8,0.1-1.6,0.1-2.4l-5.5,2.7L101.6,248.8z"/>
		<path class="st3" d="M78.6,249c0.4,0.4,0.7,0.9,1.1,1.3l12.9-0.9l9.2-4.5c0-0.7,0.1-1.4,0.2-2l-21.7-3.1
			C79.6,242.9,79,246,78.6,249z"/>
		<path class="st3" d="M93.4,264.4l8.6-4.2c0-0.1,0-0.3,0-0.4l-12.7,0.9C90.6,261.9,92,263.1,93.4,264.4z"/>
		<path class="st3" d="M96.9,267.2l5.9-1c-0.3-1.9-0.6-4-0.8-6l-8.6,4.2C94.6,265.3,95.7,266.3,96.9,267.2z"/>
		<path class="st8" d="M104,272.5c-0.2-1-0.4-2.1-0.6-3.2l-2.3,1.1C102,271.1,103,271.8,104,272.5z"/>
		<path class="st8" d="M101.1,270.4l2.3-1.1c-0.2-1-0.4-2.1-0.5-3.1l-5.9,1C98.2,268.3,99.6,269.4,101.1,270.4z"/>
		<path class="st8" d="M99.1,197.9l8.6,5.4l-4.9-9.9C101.5,194.8,100.3,196.4,99.1,197.9z"/>
		<path class="st8" d="M107.2,190.2l-1-0.6c-1.2,1.3-2.3,2.5-3.5,3.8l4.9,9.9l0.3,0.2L107.2,190.2z"/>
		<path class="st8" d="M92.3,209L92.3,209c-1.8,3-3.1,6-5.1,9.3v0.1C89.2,215.1,90.5,212,92.3,209z"/>
		<polygon class="st8" points="108.6,214.7 108.6,214.2 95.7,209.5 100.3,218.9 		"/>
		<path class="st8" d="M108.6,214.7l-8.4,4.1l-4.6-9.4l-3.4-1.2c-1.9,3.2-3.5,6.5-5,9.8l18.5,6.7c0.8-2.5,1.8-4.9,3-7.4L108.6,214.7
			L108.6,214.7z"/>
		<rect x="81.5" y="234.5" class="st8" width="0" height="0"/>
		<path class="st8" d="M83.1,229.2L83.1,229.2c-0.6,1.8-1.1,3.4-1.5,5.3h0C82,232.6,82.5,231,83.1,229.2z"/>
		<path class="st8" d="M81.2,234.4L81.2,234.4c0,1.8-0.8,3.6-1.2,5.6h-0.1C80.3,238,81.2,236.2,81.2,234.4z"/>
		<path class="st8" d="M81.5,234.5c-0.5,1.8-0.9,3.6-1.3,5.3l21.7,3.1c0.3-3.5,0.9-7.1,1.7-10.7l-13.5-1.9L81.5,234.5z"/>
		<rect x="81" y="232.1" transform="matrix(0.8966 -0.4429 0.4429 0.8966 -93.9325 62.0305)" class="st8" width="9.6" height="0"/>
		<path class="st8" d="M83.1,229.2c-0.6,1.8-1.1,3.5-1.5,5.3l8.6-4.3L83.1,229.2z"/>
		<path class="st8" d="M92.6,249.4l-12.9,0.9c1.1,1.3,2.2,2.6,3.3,3.8L92.6,249.4z"/>
		<path class="st8" d="M84,255.2l12.2-6l-3.5,0.2l-9.6,4.7C83.3,254.5,83.6,254.9,84,255.2z"/>
		<path class="st8" d="M84,255.2c1.7,1.8,3.5,3.6,5.3,5.4l12.7-0.9c-0.3-3.5-0.5-7.1-0.4-10.9l-5.4,0.4L84,255.2z"/>
		<path class="st2" d="M113.2,242.8l-1.4-25.8c-1,1.9-1.9,3.9-2.6,5.9l1.2,20.9c0,13.8,3.2,26.8,9.1,37.6c1.7,0.8,3.5,1.6,5.2,2.4
			C117.2,272.5,113.2,258.3,113.2,242.8z"/>
		<path class="st2" d="M109.8,182.5l-4.1-74.5c0-36.4,29.8-66.2,66.2-66.2c36.4,0,66.2,29.8,66.2,66.2l0,0.4
			c8.2,4.4,13.8,13,13.8,22.9c0,10.9-6.8,20.3-16.4,24.1l-4.8,87.4c0,12.7-2.7,24.7-7.9,34.8c0.7,0.9,1.4,1.8,2.1,2.7
			c0.1,0,0.1-0.1,0.2-0.1c5.6-10.7,8.7-23.3,8.7-37l2.6-46.7l1.4-24.7l0.8-14.1c1.4-0.7,2.7-1.5,4-2.5c7.8-5.3,12.5-14.1,12.5-23.5
			c0-9.9-5.3-19.2-13.8-24.4c-0.3-17.9-7.4-34.8-20.2-47.5c-13-13-30.3-20.2-48.6-20.2c-14.5,0-29.3,4.6-40.9,13
			c-18.7,13.1-30.4,34.2-30.4,56.5v0.5c-7,5.3-10.9,13.8-10.9,22.8c0,10.3,5.8,19.8,14.9,24.8l1.3,20.7l0.4,7.3l1.7-1.6L109.8,182.5
			z"/>
		<path class="st2" d="M222.5,281.5c0.8-0.4,1.6-0.8,2.4-1.2c-0.7-0.9-1.4-1.8-2.1-2.7c-0.4,0.9-0.9,1.7-1.4,2.5
			C221.8,280.6,222.2,281,222.5,281.5z"/>
		<path class="st2" d="M220,282.7c0.8-0.4,1.7-0.8,2.5-1.2c-0.3-0.4-0.7-0.9-1-1.3C221,281,220.5,281.8,220,282.7z"/>
		<path class="st2" d="M108.4,183.8l1.1,2.5c0.2-0.2,0.4-0.3,0.5-0.5l-0.2-3.2l-1.2,1l-1.7,1.6l0,0
			C107.4,184.8,107.9,184.3,108.4,183.8z"/>
		<path class="st2" d="M107.6,188.1l-0.5-1l0.1,1.5C107.3,188.4,107.4,188.3,107.6,188.1z"/>
		<path class="st2" d="M111.5,212.2c-1,1.7-1.9,3.4-2.7,5.2l0.3,5.5c0.8-2,1.7-3.9,2.6-5.9L111.5,212.2z"/>
		<path class="st2" d="M109.5,186.3l-1.1-2.5c-0.5,0.5-1,1-1.5,1.4l0.1,1.9l0.5,1C108.2,187.5,108.8,186.9,109.5,186.3z"/>
		<path class="st2" d="M110,185.8c-0.2,0.2-0.4,0.3-0.5,0.5l0.6,1.5L110,185.8z"/>
		<path class="st2" d="M110,185.8L110,185.8c-0.2,0.2-0.4,0.3-0.5,0.5v0C109.7,186.1,109.8,185.9,110,185.8z"/>
		<polygon class="st2" points="111.1,205.4 108,203.5 108,204 111.4,210.8 		"/>
		<path class="st2" d="M110.1,214.8c0.2-0.3,0.3-0.7,0.5-1l-1.4,0.7L110.1,214.8z"/>
		<path class="st2" d="M107.6,188.1L107.6,188.1c-0.1,0.1-0.3,0.3-0.4,0.4v0C107.3,188.4,107.4,188.3,107.6,188.1z"/>
		<path class="st2" d="M109.3,191.4l-1.7-3.3c-0.1,0.1-0.3,0.3-0.4,0.4l0.1,1.6L109.3,191.4z"/>
		<path class="st2" d="M110.6,213.8c0.3-0.5,0.6-1,0.9-1.6l-0.1-1.4L108,204l0.6,10.3l0.6,0.2L110.6,213.8z"/>
		<path class="st2" d="M112.2,212.2L112.2,212.2c0,0.5-1,1-1.3,1.6c-0.2,0.3-0.8,0.7-1,1c-0.5,0.9-0.8,1.7-1.8,2.6v0
			C109.2,215.6,110.2,213.9,112.2,212.2z"/>
		<path class="st2" d="M110.4,192.1l-0.2-4.3l-0.6-1.5c-0.6,0.6-1.3,1.2-1.9,1.9l1.7,3.3L110.4,192.1z"/>
		<path class="st2" d="M107.6,188.1c0.6-0.6,1.3-1.2,1.9-1.9v0C108.8,186.9,108.2,187.5,107.6,188.1L107.6,188.1z"/>
		<polygon class="st2" points="109.3,191.4 107.2,190.2 108,203.5 111.1,205.4 110.5,193.8 		"/>
		<polygon class="st2" points="110.4,192.1 109.3,191.4 110.5,193.8 		"/>
		<path class="st2" d="M109.2,214.5l-0.6,0.3l0,0l0.1,2.6c0.4-0.9,0.8-1.7,1.3-2.6L109.2,214.5z"/>
		<polygon class="st2" points="109.2,214.5 108.6,214.2 108.6,214.7 		"/>
		<path class="st20" d="M159.1,292.7c3.9,0.4,7.9,0.6,11.9,0.6c9.1,0,17.9-1,26.4-3l22.7-7.6l2.7-5.1c5.1-10.1,7.9-22,7.9-34.8
			l4.8-87.4c9.6-3.8,16.4-13.1,16.4-24.1c0-9.9-5.6-18.5-13.8-22.9l0-0.4c0-36.4-29.8-66.2-66.2-66.2c-36.4,0-66.2,29.8-66.2,66.2
			l4.1,74.5l1.5,34.5l2,25.8c0,15.4,4,29.7,11.4,41c2.2,0.9,4.4,1.9,6.7,2.7C131.4,286.5,146.4,292.1,159.1,292.7z M208,228.9
			c0,1,0,2-0.1,3c-0.1,1-0.2,2-0.4,3c-0.2,1-0.5,2-0.8,2.9l-0.5,1.4l-0.6,1.4c-0.5,0.9-1,1.8-1.6,2.6c-0.6,0.8-1.3,1.6-2.1,2.3
			c-0.8,0.7-1.7,1.3-2.7,1.7c-0.5,0.2-1.1,0.4-1.6,0.5c-0.6,0.1-1,0.1-1.5,0.2c-1.3,0-2.3-0.2-3.3-0.6c-1.1-0.4-2-0.9-2.8-1.6
			c-0.9-0.7-1.6-1.4-2.3-2.2c-0.7-0.8-1.2-1.7-1.7-2.6l-0.7-1.4l-0.6-1.4c-0.1-0.2-0.1-0.3-0.2-0.5c-0.1,0.2-0.1,0.4-0.2,0.6
			l-0.6,1.5l-0.7,1.4c-0.5,0.9-1.1,1.8-1.7,2.7c-0.7,0.9-1.4,1.7-2.3,2.4c-0.9,0.7-1.8,1.4-2.9,1.8c-0.5,0.2-1.2,0.4-1.8,0.5
			c-0.7,0.1-0.9,0.1-1.7,0.2c-1.2,0-2.4-0.2-3.5-0.7c-1.1-0.4-2.1-1-3-1.7c-0.9-0.7-1.7-1.5-2.4-2.4c-0.7-0.9-1.3-1.8-1.8-2.7
			l-0.7-1.4l-0.3-0.7c-0.5,1.3-1.1,2.5-1.9,3.7c-0.7,1-1.5,2-2.4,2.9c-0.9,0.9-2,1.7-3.2,2.3c-0.7,0.3-1.2,0.6-2,0.7
			c-0.3,0.1-0.8,0.2-1.1,0.2l-0.8,0.1l-0.4,0l-0.3,0l-0.5,0c-0.4,0-0.7-0.1-1-0.2c-0.7-0.2-1.3-0.4-1.9-0.8
			c-0.6-0.3-1.1-0.8-1.6-1.1c-0.5-0.5-0.9-0.9-1.3-1.4c-0.8-0.9-1.5-1.9-2.1-2.9c-0.6-1-1.1-2.1-1.5-3.1l-0.6-1.6l-0.5-1.7l-0.3-1.7
			l-0.2-1.7c-0.1-1.1-0.2-2.3-0.1-3.4c0-0.3,0-0.6,0-1c0-0.3,0-0.6,0-0.9c0-1,0-2,0-3c0-0.6,0-1.2,0-1.8c0-0.1,0-0.1,0-0.2
			c0-0.5,0-1.1,0-1.6c0-0.3,0.4-0.5,0.6-0.5c0.3,0,0.7,0.2,0.7,0.4c0,0,0,0,0,0c0,0.6,0,1.1,0,1.7c0,0,0,0.1,0,0.1c0,0,0,0,0,0
			c0,0.8-0.2,1.6-0.3,2.4c0,0.8-0.1,1.7-0.1,2.5c0,1.1,0.1,2.2,0.3,3.3l0.3,1.6l0.4,1.6c0.3,1,0.7,2,1.2,3c0.5,0.9,1.1,1.9,1.7,2.7
			c0.6,0.8,1.4,1.6,2.2,2.1c0.8,0.6,1.8,0.9,2.6,1.1c0.8,0.2,1.8,0.2,2.4,0.3l0.8-0.1c0.3,0,0.4-0.1,0.6-0.1c0.3,0,0.7-0.2,1.1-0.4
			c0.8-0.4,1.5-0.9,2.2-1.5c0.7-0.6,1.3-1.4,1.9-2.2c0.5-0.8,1-1.7,1.4-2.6c0.4-0.9,0.7-1.9,1-2.9c0.3-1,0.5-2,0.6-3
			c0.1-1,0.2-2.1,0.2-3.1c0-1,0.8-1.9,1.8-2c1,0,1.7,0.8,1.8,1.8l-0.2,0.1v0.1c0,0.9,0.2,1.8,0.3,2.7c0.1,0.9,0.3,1.8,0.5,2.7
			c0.2,0.9,0.5,1.8,0.8,2.6l0.5,1.3l0.6,1.2c0.4,0.8,0.9,1.5,1.4,2.2c0.5,0.7,1.1,1.3,1.8,1.8c0.7,0.5,1.3,1,2.1,1.2
			c0.7,0.3,1.5,0.4,2.2,0.5c0.2,0,1,0,1.2-0.1c0.3-0.1,0.6-0.1,1-0.3c0.7-0.3,1.4-0.7,2.1-1.2c0.7-0.5,1.3-1.1,1.8-1.8
			c0.5-0.7,1-1.4,1.5-2.2l0.6-1.2l0.5-1.3c0.3-0.9,0.6-1.7,0.8-2.6c0.2-0.9,0.4-1.8,0.5-2.7c0.1-0.9,0.2-1.9,0.2-2.8
			c0-0.8,0.4-1.4,1.2-1.4c0.8,0,1.3,0.6,1.3,1.3v0.1v0c0,0.9,0.2,1.9,0.3,2.8c0.1,0.9,0.3,1.9,0.5,2.8c0.2,0.9,0.5,1.8,0.8,2.7
			l0.5,1.3l0.6,1.3c0.4,0.8,0.9,1.6,1.5,2.3l0.9,1c0.3,0.3,0.6,0.6,1,0.9c0.7,0.5,1.4,1.1,2.2,1.4c0.8,0.4,1.7,0.5,2.4,0.6
			c0.5,0,1,0,1.4-0.1c0.4-0.1,0.8-0.1,1.2-0.3c0.8-0.3,1.6-0.8,2.3-1.3c0.7-0.5,1.4-1.2,2-1.9c0.6-0.7,1.1-1.5,1.6-2.3l0.6-1.3
			l0.6-1.3c0.3-0.9,0.6-1.8,0.9-2.7c0.2-0.9,0.4-1.9,0.5-2.8c0.1-1,0.2-1.9,0.2-2.9l0,0c0-0.3,0.2-0.4,0.5-0.4
			c0.2,0,0.4,0.2,0.4,0.5c0,0.6,0,1.1,0,1.7C208,228.8,208,228.8,208,228.9z M216.9,196.6c0,1.1-0.2,2.2-0.3,3.3
			c-0.2,1.1-0.4,2.2-0.7,3.3c-0.3,1.1-0.6,2.2-1.1,3.2c-0.4,1.1-0.9,2.1-1.5,3.1c-0.6,1-1.3,2-2.1,2.8c-0.4,0.5-0.9,0.8-1.3,1.2
			c-0.5,0.3-1,0.7-1.5,1l-0.8,0.4c-0.3,0.1-0.6,0.2-1,0.3c-0.7,0.2-1.2,0.2-1.7,0.3c-0.5,0-0.7,0-1.1-0.1c-0.3,0-0.6-0.1-0.9-0.2
			c-0.6-0.1-1.2-0.4-1.8-0.7c-0.6-0.3-1.1-0.6-1.6-1c-0.5-0.4-1-0.8-1.4-1.2c-0.8-0.9-1.6-1.8-2.2-2.8c-0.6-1-1.2-2-1.6-3.1
			c-0.4-1-0.8-1.9-1.1-2.9c-0.3,1-0.6,2-1,3c-0.4,1.1-1,2.2-1.6,3.2c-0.6,1-1.3,2-2.2,2.9c-0.4,0.5-0.9,0.9-1.4,1.3
			c-0.5,0.4-1,0.8-1.6,1.1l-0.9,0.4c-0.3,0.1-0.7,0.2-1.1,0.3l-0.6,0.1c-0.2,0-0.3,0-0.4,0.1l-0.8,0l-0.2-0.1h0l0,0.1l-0.1,0l-0.1,0
			l-0.3,0l-0.5,0c-0.3,0-0.7-0.1-1-0.2c-0.7-0.2-1.3-0.4-1.9-0.7c-0.6-0.3-1.1-0.7-1.7-1c-0.5-0.4-1-0.8-1.4-1.3
			c-0.9-0.9-1.6-1.9-2.2-2.9c-0.6-1-1.2-2.1-1.6-3.2c-0.3-0.8-0.6-1.5-0.9-2.3c-0.3,0.8-0.5,1.6-0.9,2.3c-0.5,1.1-1,2.1-1.6,3.2
			c-0.6,1-1.4,2-2.2,2.9c-0.4,0.5-0.9,0.9-1.4,1.3c-0.5,0.4-1,0.8-1.7,1l-0.9,0.4c-0.3,0.1-0.7,0.2-1.1,0.3c-0.9,0.2-1,0.2-1.9,0.2
			c-1.4-0.1-2.7-0.4-3.9-1c-0.6-0.3-1.1-0.7-1.6-1c-0.5-0.4-1-0.8-1.4-1.3c-0.8-0.9-1.6-1.9-2.2-2.9c-0.6-1-1.1-2.1-1.6-3.2
			c-0.5-1.1-0.8-2.2-1.1-3.3c0,0,0,0,0,0c-0.3,1.1-0.7,2.2-1.2,3.2c-0.5,1.1-1,2.1-1.6,3.1c-0.6,1-1.3,1.9-2.2,2.8
			c-0.4,0.4-0.9,0.8-1.4,1.2c-0.5,0.3-1,0.7-1.6,1l-0.9,0.4c-0.3,0.1-0.7,0.2-1,0.3c-0.8,0.2-1.1,0.1-1.9,0.2
			c-1.3-0.1-2.6-0.4-3.7-1c-0.6-0.3-1-0.7-1.6-1c-0.4-0.4-0.9-0.8-1.3-1.2c-0.8-0.9-1.5-1.8-2.1-2.8c-0.6-1-1.1-2-1.5-3.1
			c-0.4-1.1-0.8-2.1-1.1-3.2c-0.2-0.9-0.4-1.7-0.5-2.6c0,0,0.3,0,0.3,0l1.5,0.5c0.3,1,0.7,2,1.1,3c0.4,1,0.9,1.9,1.5,2.8
			c0.6,0.9,1.2,1.7,1.9,2.4c0.3,0.4,0.8,0.7,1.1,1c0.4,0.2,0.8,0.6,1.2,0.8c0.8,0.5,1.8,0.6,2.7,0.7c0.3-0.1,1.1-0.1,1.4-0.2
			c0.2-0.1,0.4-0.1,0.6-0.2l0.6-0.3c0.4-0.2,0.8-0.5,1.2-0.8c0.4-0.3,0.8-0.6,1.1-1c0.7-0.7,1.3-1.5,1.8-2.4c0.5-0.9,1-1.8,1.4-2.8
			c0.4-1,0.7-2,1-3c0.3-1,0.5-2,0.7-3.1c0.2-1,0.7-2.1,0.7-3.2c0.1-1.1,0.5-2.1,0.5-3.2v0c0-0.8,0.2-1.4,1-1.4c0.8,0,1,0.6,1,1.4
			v0.1c0,0.3,0,0.5,0,0.8c0.2,0.2,0.3,0.5,0.3,0.8l0,0.1c0,1.1,0.1,2.1,0.2,3.2c0.1,0.9,0.2,1.7,0.4,2.6c0.1,0.7,0.3,1.3,0.5,2
			c0.3,1,0.6,2,1.1,2.9c0.4,1,0.9,1.9,1.4,2.7c0.5,0.9,1.1,1.6,1.8,2.3c0.3,0.4,0.7,0.6,1.1,1c0.4,0.2,0.7,0.5,1.2,0.7
			c0.8,0.4,1.6,0.6,2.4,0.6c0.2-0.1,1.2-0.1,1.3-0.2c0.2-0.1,0.3-0.1,0.5-0.2l0.6-0.3c0.4-0.2,0.8-0.5,1.1-0.7c0.3-0.3,0.7-0.6,1-1
			c0.7-0.7,1.3-1.5,1.8-2.4c0.5-0.9,1-1.8,1.4-2.7c0.4-0.9,0.7-1.9,1-2.9c0.3-1,0.5-2,0.7-3.1c0.2-1,0.3-2.1,0.4-3.1
			c0.1-1,0.1-2.1,0.1-3.2c0-1,0.8-1.8,1.8-1.8c1,0,1.9,0.7,1.9,1.7v0.1v0c0,0.2-0.2,0.4-0.1,0.6c0.2,0.3,0.1,0.6,0.1,0.9v0.1v0
			c0,1,0.1,2.1,0.2,3.1c0.1,1,0.3,2,0.4,3c0.1,0.5,0.3,1.1,0.4,1.6c0.3,1,0.6,2,1,2.9c0.4,0.9,0.8,1.9,1.4,2.7
			c0.5,0.9,1.1,1.6,1.8,2.3c0.3,0.4,0.7,0.6,1,1c0.4,0.2,0.7,0.5,1.1,0.7c0.4,0.2,0.8,0.4,1.2,0.5c0.2,0.1,0.4,0.1,0.6,0.1l0.3,0
			l0.2,0l0.1-0.1l0-0.1h0l0.7,0c0.1,0,0.3,0,0.4,0l0.2-0.1c0.2-0.1,0.3-0.1,0.5-0.1l0.6-0.3c0.4-0.2,0.8-0.5,1.1-0.7
			c0.3-0.3,0.7-0.6,1-0.9c0.7-0.7,1.3-1.5,1.8-2.3c0.5-0.8,1-1.8,1.4-2.7c0.4-0.9,0.8-1.9,1.1-2.9c0.3-1,0.5-2,0.7-3.1
			c0.2-1,0.4-2.1,0.4-3.1c0.1-1,0.1-2.1,0.2-3.2c0-0.8,0.6-1.5,1.5-1.6c0.8,0,1.6,0.6,1.6,1.4v0.1v0c0,0.2-0.2,0.5-0.1,0.7
			c0.2,0.2,0.1,0.5,0.1,0.8v0.1v0c0,1.1,0.2,2.1,0.3,3.2c0.1,1.1,0.3,2.1,0.5,3.1c0,0,0,0,0,0.1c0.1,0.5,0.2,0.9,0.3,1.4
			c0.3,1,0.6,2,1,3c0.4,1,0.8,1.9,1.4,2.8c0.5,0.9,1.1,1.7,1.8,2.4c0.3,0.4,0.7,0.7,1.1,1c0.4,0.3,0.8,0.6,1.2,0.8
			c0.8,0.5,1.8,0.7,2.5,0.7c0.5-0.1,1.2,0,1.5-0.2c0.2-0.1,0.4-0.1,0.6-0.2l0.6-0.3c0.4-0.2,0.8-0.5,1.2-0.8c0.4-0.3,0.8-0.6,1.1-1
			c0.7-0.7,1.4-1.5,1.9-2.4c0.6-0.9,1.1-1.8,1.5-2.8c0.5-1,0.8-2,1.1-3c0.3-1,0.6-2.1,0.8-3.1c0.2-1.1-0.3-2.1-0.2-3.2
			c0.2-1.1-0.4-2.2-0.4-3.2v0c0-0.3,0.9-0.5,1.2-0.5c0.3,0,0.8,0.2,0.8,0.5c0,0.4,0.2,0.8,0.2,1.2c0.2,0.1,0.4,0.3,0.4,0.5
			C216.8,194.3,216.9,195.5,216.9,196.6z"/>
		<path class="st20" d="M221.5,280.2c-6.6-8.4-11.9-15-12.4-15.6l-8.7,6.9l-9,7c0.3,0.6,3.8,5,8.7,11.2c6.9-1.7,13.6-4.1,20-7
			C220.5,281.8,221,281,221.5,280.2z"/>
		<path class="st20" d="M118.2,206.6L118.2,206.6c-1,0.6-0.8,1-0.8,1l-1.3-2.5c-1.7,2.4-3.3,4.8-4.7,7.2l0.3,4.8
			C113.6,213.4,115.2,209.9,118.2,206.6z"/>
		<path class="st20" d="M116.1,205l1.3,2.5c0,0,0.3-0.4,0.7-1l-1.1-2.7C116.7,204.3,116.4,204.6,116.1,205z"/>
		<path class="st20" d="M112.6,193.5l6.6,4.1l-6.9-13.9c-0.8,0.7-1.5,1.4-2.3,2.1l0.1,2L112.6,193.5z"/>
		<path class="st20" d="M111.4,210.8l0.1,1.4c0.1-0.2,0.2-0.4,0.3-0.6L111.4,210.8z"/>
		<path class="st20" d="M114.4,207.5c-0.9,1.4-1.4,2.7-2.2,4.1c-0.1,0.2,0,0.4,0,0.6v0c1-2.4,2.3-4.2,4-7.2h-0.1
			C115.6,206,115,206.7,114.4,207.5z"/>
		<path class="st20" d="M114.4,207.5l-3.3-2.1l0.3,5.4l0.4,0.8C112.6,210.2,113.5,208.9,114.4,207.5z"/>
		<polygon class="st20" points="110.1,187.8 110.4,192.1 112.6,193.5 		"/>
		<path class="st20" d="M116.9,203.9c0,0.4-0.5,0.7-0.8,1.1l0,0C116.3,204.6,116.9,204.3,116.9,203.9L116.9,203.9z"/>
		<path class="st20" d="M120.2,199.9l-1.1-2.3l-6.6-4.1l4.4,10.4C118,202.5,119.1,201.2,120.2,199.9z"/>
		<path class="st20" d="M116.1,205l-5.7-11.2l0.6,11.6l3.3,2.1C115,206.7,115.5,205.8,116.1,205z"/>
		<path class="st20" d="M116.1,205c0.3-0.4,0.6-0.7,0.8-1.1l-4.4-10.4l-2.2-1.4l0.1,1.7L116.1,205z"/>
		<path class="st20" d="M98.1,290.7c0.1-0.2,0.2-0.3,0.4-0.4C98.3,290.4,98.2,290.6,98.1,290.7z"/>
		<path class="st20" d="M99,290c-0.2,0.1-0.4,0.1-0.5,0.3C98.6,290.2,98.8,290.1,99,290z"/>
		<path class="st20" d="M78.5,249C78.5,249,78.5,249,78.5,249c0,0.5-0.1,1.1-0.1,1.5h0C78.4,250.1,78.5,249.5,78.5,249z"/>
		<path class="st20" d="M100.5,290.4c0,0,0,0.1,0.1,0.1C100.5,290.5,100.5,290.4,100.5,290.4z"/>
		<path class="st20" d="M98.4,290.3C98.5,290.3,98.5,290.3,98.4,290.3C98.5,290.3,98.5,290.3,98.4,290.3z"/>
		<path class="st20" d="M99,290C99,290,99,290,99,290C99,290,99,290,99,290c0.5-0.2,1.1,0,1.5,0.4C100.1,290,99.5,289.9,99,290z"/>
		<path class="st20" d="M78.6,249c-0.1,0.5-0.1,0.9-0.2,1.4l1.3-0.1C79.3,249.9,78.9,249.5,78.6,249z"/>
		<path class="st20" d="M98.1,290.7C98.1,290.7,98.1,290.7,98.1,290.7C98.1,290.7,98.1,290.7,98.1,290.7z"/>
		<path class="st20" d="M77.7,256.5L77.7,256.5c0,0.7-0.1,1.2-0.1,1.7l0-0.1C77.6,257.6,77.6,257.2,77.7,256.5z"/>
		<path class="st20" d="M77.5,258.4L77.5,258.4c-0.1,1-0.1,2-0.2,3h0C77.4,260.4,77.4,259.4,77.5,258.4z"/>
		<path class="st20" d="M225,280.4c0-0.1,0.1-0.1,0.1-0.2c-0.1,0-0.1,0.1-0.2,0.1C225,280.3,225,280.3,225,280.4z"/>
		<g>
			<path class="st20" d="M119.7,105.5c-14.3,0-25.9,11.6-25.9,25.9c0,14.3,11.6,25.9,25.9,25.9c14.3,0,25.9-11.6,25.9-25.9
				C145.6,117.1,134,105.5,119.7,105.5"/>
		</g>
		<g>
			<path class="st21" d="M119.7,113.2c10.8,0,19.6,8.8,19.6,19.6c0,10.8-8.8,19.6-19.6,19.6c-10.8,0-19.6-8.8-19.6-19.6
				C100.1,122,108.9,113.2,119.7,113.2"/>
		</g>
		<g>
			<path class="st21" d="M225.6,113.2c10.8,0,19.6,8.8,19.6,19.6c0,10.8-8.8,19.6-19.6,19.6c-10.8,0-19.6-8.8-19.6-19.6
				C206,122,214.8,113.2,225.6,113.2"/>
		</g>
		<g>
			
				<rect x="234.2" y="165.8" transform="matrix(0.9988 4.813725e-02 -4.813725e-02 0.9988 9.114 -11.121)" class="st2" width="2.6" height="35.7"/>
		</g>
		<g>
			
				<rect x="91.3" y="190.9" transform="matrix(4.786920e-02 0.9989 -0.9989 4.786920e-02 295.8304 74.0279)" class="st2" width="35.7" height="2.6"/>
		</g>
		<g>
			<g>
				<path class="st22" d="M119.7,114c9.6,0,17.4,7.8,17.4,17.4c0,9.6-7.8,17.4-17.4,17.4c-9.6,0-17.4-7.8-17.4-17.4
					C102.3,121.8,110.1,114,119.7,114"/>
			</g>
			<g>
				<path class="st2" d="M119.7,149.8c-10.1,0-18.4-8.2-18.4-18.4c0-10.1,8.2-18.4,18.4-18.4c10.1,0,18.4,8.2,18.4,18.4
					C138.1,141.5,129.8,149.8,119.7,149.8z M119.7,114.9c-9.1,0-16.5,7.4-16.5,16.5c0,9.1,7.4,16.5,16.5,16.5
					c9.1,0,16.5-7.4,16.5-16.5C136.2,122.3,128.8,114.9,119.7,114.9z"/>
			</g>
		</g>
		<g>
			<g>
				<path class="st22" d="M226,114c9.6,0,17.4,7.8,17.4,17.4c0,9.6-7.8,17.4-17.4,17.4c-9.6,0-17.4-7.8-17.4-17.4
					C208.6,121.8,216.4,114,226,114"/>
			</g>
			<g>
				<path class="st2" d="M226,149.8c-10.1,0-18.4-8.2-18.4-18.4c0-10.1,8.2-18.4,18.4-18.4c10.1,0,18.4,8.2,18.4,18.4
					C244.4,141.5,236.2,149.8,226,149.8z M226,114.9c-9.1,0-16.5,7.4-16.5,16.5c0,9.1,7.4,16.5,16.5,16.5c9.1,0,16.5-7.4,16.5-16.5
					C242.5,122.3,235.1,114.9,226,114.9z"/>
			</g>
		</g>
		<g>
			<path class="st21" d="M108.3,107.9c0,0,12.5-20.3,26.6,1.5C134.9,109.4,123.5,98.6,108.3,107.9z"/>
		</g>
		<g>
			<g>
				<path class="st2" d="M134.2,109.8c-0.2,0-0.5-0.1-0.6-0.2c-10.8-9.6-23.4-1.6-23.9-1.3c-0.4,0.3-1,0.2-1.3-0.3
					c-0.3-0.4-0.2-1,0.3-1.3c0.1-0.1,14.3-9.1,26.3,1.5c0.4,0.4,0.4,1,0.1,1.4C134.7,109.6,134.5,109.8,134.2,109.8z"/>
			</g>
		</g>
		<g>
			<path class="st21" d="M172.3,41.8c0,0,56.6,14.7,39.1,64.1c0,0,14.3-4.8,27.2,2.7C238.6,108.6,238.3,47,172.3,41.8z"/>
		</g>
		<g>
			<g>
				<path class="st2" d="M209.5,109.8c-0.3,0-0.5-0.1-0.7-0.3c-0.4-0.4-0.3-1,0.1-1.4c11.9-10.6,26.1-1.6,26.3-1.5
					c0.4,0.3,0.6,0.9,0.3,1.3c-0.3,0.4-0.9,0.6-1.3,0.3c-0.5-0.3-13.1-8.3-23.9,1.3C210,109.7,209.8,109.8,209.5,109.8z"/>
			</g>
		</g>
		<g>
			<g>
				<path class="st2" d="M119.7,142.5c-1.7,0-3-1.4-3-3v-16.2c0-1.7,1.4-3,3-3c1.7,0,3,1.4,3,3v16.2
					C122.7,141.1,121.4,142.5,119.7,142.5"/>
			</g>
			<g>
				<circle class="st0" cx="124.8" cy="123.7" r="3.8"/>
			</g>
		</g>
		<g>
			<g>
				<path class="st2" d="M226,142.5c-1.7,0-3-1.4-3-3v-16.2c0-1.7,1.4-3,3-3c1.7,0,3,1.4,3,3v16.2C229,141.1,227.7,142.5,226,142.5"
					/>
			</g>
			<g>
				<circle class="st0" cx="231" cy="122.4" r="3.8"/>
			</g>
		</g>
		<g>
			<path class="st21" d="M171.2,163c-10.3,0-20-3.8-27.5-10.8c-3.9-3.6-4.1-9.7-0.5-13.5c3.6-3.9,9.7-4.1,13.5-0.5
				c8.6,8,22,7.5,30-1c3.6-3.9,9.7-4.1,13.5-0.5c3.9,3.6,4.1,9.7,0.5,13.5c-7.3,7.9-17.3,12.4-28.1,12.8
				C172.1,163,171.6,163,171.2,163"/>
		</g>
		<g>
			<path class="st8" d="M171.2,160.4c-10.3,0-20-3.8-27.5-10.8c-3.9-3.6-4.1-9.7-0.5-13.5c3.6-3.9,9.7-4.1,13.5-0.5
				c8.6,8,22,7.5,30-1c3.6-3.9,9.7-4.1,13.5-0.5c3.9,3.6,4.1,9.7,0.5,13.5c-7.3,7.9-17.3,12.4-28.1,12.7
				C172.1,160.4,171.6,160.4,171.2,160.4"/>
		</g>
		<g>
			<path class="st23" d="M171.2,156c-8.3,0-16.7-3-23.2-9.1c-1.3-1.2-1.4-3.2-0.2-4.5c1.2-1.3,3.2-1.4,4.5-0.2
				c11.1,10.4,28.6,9.8,39-1.3c1.2-1.3,3.2-1.4,4.5-0.2c1.3,1.2,1.4,3.2,0.2,4.5C189.4,152.3,180.3,156,171.2,156"/>
		</g>
		<g>
			<path class="st2" d="M171.2,154.2c-8.3,0-16.7-3-23.2-9.1c-1.3-1.2-1.4-3.2-0.2-4.5c1.2-1.3,3.2-1.4,4.5-0.2
				c11.1,10.4,28.6,9.8,39-1.3c1.2-1.3,3.2-1.4,4.5-0.2c1.3,1.2,1.4,3.2,0.2,4.5C189.4,150.6,180.3,154.2,171.2,154.2"/>
		</g>
		<g>
			<g>
				<path class="st21" d="M171.2,163c-10.3,0-20-3.8-27.5-10.8c-3.9-3.6-4.1-9.7-0.5-13.5c3.6-3.9,9.7-4.1,13.5-0.5
					c8.6,8,22,7.5,30-1c3.6-3.9,9.7-4.1,13.5-0.5c3.9,3.6,4.1,9.7,0.5,13.5c-7.3,7.9-17.3,12.4-28.1,12.8
					C172.1,163,171.6,163,171.2,163"/>
			</g>
			<g>
				<path class="st8" d="M171.2,160.4c-10.3,0-20-3.8-27.5-10.8c-3.9-3.6-4.1-9.7-0.5-13.5c3.6-3.9,9.7-4.1,13.5-0.5
					c8.6,8,22,7.5,30-1c3.6-3.9,9.7-4.1,13.5-0.5c3.9,3.6,4.1,9.7,0.5,13.5c-7.3,7.9-17.3,12.4-28.1,12.7
					C172.1,160.4,171.6,160.4,171.2,160.4"/>
			</g>
			<g>
				<path class="st23" d="M171.2,156c-8.3,0-16.7-3-23.2-9.1c-1.3-1.2-1.4-3.2-0.2-4.5c1.2-1.3,3.2-1.4,4.5-0.2
					c11.1,10.4,28.6,9.8,39-1.3c1.2-1.3,3.2-1.4,4.5-0.2c1.3,1.2,1.4,3.2,0.2,4.5C189.4,152.3,180.3,156,171.2,156"/>
			</g>
			<g>
				<path class="st2" d="M171.2,154.2c-8.3,0-16.7-3-23.2-9.1c-1.3-1.2-1.4-3.2-0.2-4.5c1.2-1.3,3.2-1.4,4.5-0.2
					c11.1,10.4,28.6,9.8,39-1.3c1.2-1.3,3.2-1.4,4.5-0.2c1.3,1.2,1.4,3.2,0.2,4.5C189.4,150.6,180.3,154.2,171.2,154.2"/>
			</g>
		</g>
		<rect x="115.2" y="183" class="st20" width="111" height="70"/>
		<g>
			<g>
				<g>
					<g>
						<path class="st21" d="M137.9,222.7c-0.1,2.2-0.1,4.5,0,6.7c0,1.1,0.2,2.2,0.3,3.3l0.3,1.6l0.4,1.6c0.3,1,0.8,2,1.2,3
							c0.5,1,1.1,1.9,1.7,2.7c0.7,0.8,1.4,1.6,2.2,2.1c0.8,0.6,1.8,0.9,2.6,1.1c0.8,0.2,1.8,0.2,2.4,0.3l0.8-0.1
							c0.3,0,0.4-0.1,0.6-0.1c0.3,0,0.7-0.2,1.1-0.4c0.8-0.4,1.5-0.9,2.2-1.5c0.7-0.6,1.3-1.4,1.9-2.2c0.5-0.8,1-1.7,1.4-2.6
							c0.4-0.9,0.7-1.9,1-2.9c0.3-1,0.5-2,0.6-3c0.1-1,0.2-2.1,0.2-3.1h3.8c0,0.9,0,1.8,0.1,2.7c0.1,0.9,0.2,1.8,0.4,2.7
							c0.2,0.9,0.4,1.8,0.7,2.6l0.5,1.3l0.6,1.2c0.4,0.8,0.9,1.5,1.4,2.2c0.5,0.7,1.1,1.3,1.8,1.8c0.7,0.5,1.3,1,2.1,1.2
							c0.7,0.3,1.5,0.4,2.3,0.5c0.2,0,1,0,1.2-0.1c0.3-0.1,0.6-0.1,1-0.3c0.7-0.3,1.4-0.7,2.1-1.2c0.7-0.5,1.3-1.1,1.8-1.8
							c0.5-0.7,1-1.4,1.5-2.2l0.6-1.2l0.5-1.3c0.3-0.9,0.6-1.7,0.8-2.6c0.2-0.9,0.4-1.8,0.5-2.7c0.1-0.9,0.2-1.9,0.2-2.8h2.7
							c0,0.9,0,1.9,0.1,2.8c0.1,0.9,0.2,1.9,0.4,2.8c0.2,0.9,0.4,1.8,0.7,2.7l0.5,1.3l0.6,1.3c0.4,0.8,0.9,1.6,1.5,2.3l0.9,1
							c0.3,0.3,0.6,0.6,1,0.9c0.7,0.5,1.4,1.1,2.2,1.4c0.8,0.4,1.7,0.5,2.4,0.6c0.5,0,1,0,1.4-0.1c0.4-0.1,0.8-0.1,1.2-0.3
							c0.8-0.3,1.6-0.8,2.3-1.3c0.7-0.6,1.4-1.2,2-1.9c0.6-0.7,1.1-1.5,1.6-2.3l0.7-1.3l0.6-1.3c0.3-0.9,0.6-1.8,0.9-2.7
							c0.2-0.9,0.4-1.9,0.5-2.8c0.1-1,0.2-1.9,0.2-2.9l0,0c0-0.3,0.2-0.4,0.5-0.4c0.2,0,0.4,0.2,0.4,0.5c0,1,0,2-0.1,3
							c-0.1,1-0.2,2-0.4,3c-0.2,1-0.5,2-0.8,2.9l-0.5,1.4l-0.6,1.4c-0.5,0.9-1,1.8-1.6,2.6c-0.6,0.8-1.3,1.6-2.2,2.3
							c-0.8,0.7-1.7,1.3-2.7,1.7c-0.5,0.2-1.1,0.4-1.6,0.5c-0.6,0.1-1,0.1-1.5,0.2c-1.3,0-2.3-0.2-3.3-0.6c-1.1-0.4-2-1-2.9-1.6
							c-0.9-0.7-1.6-1.4-2.3-2.3c-0.7-0.8-1.2-1.7-1.8-2.6l-0.7-1.4l-0.6-1.4c-0.3-1-0.7-2-0.9-3c-0.2-1-0.4-2-0.5-3.1
							c-0.1-1-0.2-2.1-0.2-3.1c0-0.8,0.6-1.4,1.3-1.4c0.8,0,1.4,0.6,1.4,1.3l0,0.1l0,0c0,1,0,2.1-0.1,3.1c-0.1,1-0.3,2.1-0.5,3.1
							c-0.2,1-0.5,2-0.8,3l-0.6,1.5l-0.7,1.4c-0.5,0.9-1.1,1.9-1.7,2.7c-0.7,0.9-1.4,1.7-2.3,2.4c-0.9,0.7-1.8,1.4-3,1.8
							c-0.5,0.2-1.2,0.4-1.8,0.5c-0.7,0.1-0.9,0.1-1.7,0.2c-1.2,0-2.4-0.2-3.5-0.7c-1.1-0.4-2.1-1-3-1.7c-0.9-0.7-1.7-1.5-2.4-2.4
							c-0.7-0.9-1.3-1.8-1.8-2.7l-0.7-1.4l-0.6-1.5c-0.4-1-0.7-2-0.9-3c-0.2-1-0.4-2.1-0.5-3.1c-0.1-1-0.2-2.1-0.2-3.1
							c0-1,0.8-1.9,1.8-2c1,0,1.9,0.8,2,1.8l0,0.1v0.1c0,4.8-1,9.6-3.7,13.8c-0.7,1-1.5,2.1-2.4,2.9c-0.9,0.9-2,1.7-3.2,2.3
							c-0.7,0.3-1.2,0.6-2,0.7c-0.3,0.1-0.8,0.2-1.1,0.2l-0.8,0.1l-0.4,0l-0.3,0l-0.5,0c-0.4,0-0.7-0.1-1-0.2
							c-0.7-0.2-1.3-0.4-1.9-0.8c-0.6-0.3-1.1-0.8-1.6-1.1c-0.5-0.5-0.9-0.9-1.3-1.4c-0.8-0.9-1.5-1.9-2.2-2.9
							c-0.6-1-1.1-2.1-1.5-3.2l-0.6-1.6l-0.5-1.7l-0.3-1.7l-0.2-1.7c-0.1-1.2-0.2-2.3-0.1-3.4c0-2.3,0.1-4.5,0-6.7
							c0-0.3,0.2-0.5,0.4-0.5C137.7,222.2,137.9,222.4,137.9,222.7C137.9,222.7,137.9,222.7,137.9,222.7"/>
					</g>
				</g>
			</g>
			<g>
				<path class="st21" d="M123.4,193.2c0.1,1.1,0.1,2.2,0.3,3.3c0.1,1.1,0.3,2.1,0.5,3.2c0.2,1.1,0.5,2.1,0.8,3.1c0.3,1,0.7,2,1.1,3
					c0.4,1,0.9,1.9,1.5,2.8c0.6,0.9,1.2,1.7,1.9,2.4c0.3,0.4,0.8,0.7,1.1,1c0.4,0.2,0.8,0.6,1.2,0.8c0.8,0.5,1.8,0.6,2.7,0.7
					c0.3-0.1,1.1-0.1,1.4-0.2c0.2-0.1,0.4-0.1,0.6-0.2l0.6-0.3c0.4-0.2,0.8-0.5,1.2-0.8c0.4-0.3,0.8-0.6,1.1-1
					c0.7-0.7,1.3-1.6,1.8-2.4c0.5-0.9,1-1.8,1.4-2.8c0.4-1,0.7-2,1-3c0.3-1,0.5-2.1,0.7-3.1c0.2-1.1,0.3-2.1,0.4-3.2
					c0.1-1.1,0.1-2.1,0.1-3.2h2.8c0,1.1,0.1,2.1,0.2,3.2c0.1,1.1,0.3,2.1,0.4,3.2c0.2,1,0.4,2.1,0.7,3.1c0.3,1,0.6,2,1.1,2.9
					c0.4,1,0.9,1.9,1.4,2.7c0.5,0.9,1.2,1.7,1.8,2.4c0.3,0.4,0.7,0.6,1.1,1c0.4,0.2,0.8,0.5,1.2,0.7c0.8,0.4,1.6,0.6,2.4,0.6
					c0.2-0.1,1.2-0.1,1.3-0.2c0.2-0.1,0.3-0.1,0.5-0.2l0.6-0.3c0.4-0.2,0.8-0.5,1.1-0.7c0.3-0.3,0.7-0.6,1-1
					c0.7-0.7,1.3-1.5,1.8-2.4c0.5-0.9,1-1.8,1.4-2.7c0.4-0.9,0.7-1.9,1-2.9c0.3-1,0.5-2,0.7-3.1c0.2-1,0.3-2.1,0.4-3.1
					c0.1-1.1,0.1-2.1,0.1-3.2h3.5c0,1.1,0,2.1,0.1,3.2c0.1,1.1,0.2,2.1,0.4,3.1c0.2,1,0.4,2.1,0.7,3.1c0.3,1,0.6,2,1,2.9
					c0.4,0.9,0.8,1.9,1.4,2.7c0.5,0.9,1.1,1.6,1.8,2.3c0.3,0.4,0.7,0.6,1,1c0.4,0.2,0.7,0.5,1.1,0.7c0.4,0.2,0.8,0.4,1.2,0.5
					c0.2,0.1,0.4,0.1,0.6,0.1l0.3,0l0.2,0l0.1,0l0,0h0l0,0c-0.1,0,0.2,0-0.1,0l0.8-0.1c0.1,0,0.3,0,0.4,0l0.2-0.1
					c0.2-0.1,0.3-0.1,0.5-0.1l0.6-0.3c0.4-0.2,0.8-0.5,1.1-0.7c0.3-0.3,0.7-0.6,1-1c0.7-0.7,1.3-1.5,1.8-2.3c0.5-0.8,1-1.8,1.4-2.7
					c0.4-0.9,0.8-1.9,1.1-2.9c0.3-1,0.5-2,0.7-3.1c0.2-1,0.4-2.1,0.4-3.1c0.1-1.1,0.1-2.1,0.2-3.2h3c0,1.1,0,2.1,0.1,3.2
					c0.1,1.1,0.2,2.1,0.4,3.2c0.2,1,0.4,2.1,0.7,3.1c0.3,1,0.6,2,1,3c0.4,1,0.8,1.9,1.4,2.8c0.5,0.9,1.1,1.7,1.8,2.5
					c0.3,0.4,0.7,0.7,1.1,1c0.4,0.3,0.8,0.6,1.2,0.8c0.8,0.5,1.8,0.7,2.5,0.8c0.5-0.1,1.2,0,1.5-0.2c0.2-0.1,0.4-0.1,0.6-0.2
					l0.6-0.3c0.4-0.2,0.8-0.5,1.2-0.8c0.4-0.3,0.8-0.6,1.1-1c0.7-0.7,1.4-1.5,1.9-2.4c0.6-0.9,1.1-1.8,1.5-2.8c0.5-1,0.8-2,1.1-3
					c0.3-1,0.6-2.1,0.8-3.1c0.2-1.1,0.4-2.1,0.5-3.2c0.2-1.1,0.2-2.2,0.3-3.3l0,0c0-0.3,0.3-0.5,0.5-0.5c0.3,0,0.5,0.2,0.5,0.5
					c0,1.1,0,2.2-0.1,3.4c0,1.1-0.2,2.2-0.3,3.4c-0.2,1.1-0.4,2.2-0.7,3.3c-0.3,1.1-0.6,2.2-1.1,3.2c-0.4,1.1-0.9,2.1-1.5,3.1
					c-0.6,1-1.3,2-2.1,2.8c-0.4,0.5-0.9,0.8-1.3,1.2c-0.5,0.3-1,0.7-1.6,1l-0.8,0.4c-0.3,0.1-0.6,0.2-1,0.3
					c-0.7,0.2-1.2,0.2-1.7,0.3c-0.5,0-0.7,0-1.1-0.1c-0.3,0-0.6-0.1-1-0.2c-0.6-0.1-1.2-0.4-1.8-0.7c-0.6-0.3-1.1-0.6-1.6-1
					c-0.5-0.4-1-0.8-1.4-1.2c-0.8-0.9-1.6-1.8-2.2-2.8c-0.6-1-1.2-2-1.6-3.1c-0.5-1.1-0.9-2.2-1.2-3.3c-0.3-1.1-0.6-2.2-0.8-3.4
					c-0.2-1.1-0.4-2.3-0.5-3.4c-0.1-1.1-0.1-2.3-0.2-3.4c0-0.8,0.6-1.5,1.4-1.6c0.8,0,1.5,0.6,1.6,1.4v0.1v0c0,1.1,0,2.3-0.1,3.4
					c-0.1,1.1-0.2,2.3-0.4,3.4c-0.2,1.1-0.4,2.3-0.8,3.4c-0.3,1.1-0.7,2.2-1.1,3.3c-0.4,1.1-1,2.2-1.6,3.2c-0.6,1-1.3,2-2.2,2.9
					c-0.4,0.5-0.9,0.9-1.4,1.3c-0.5,0.4-1,0.8-1.7,1.1l-0.9,0.4c-0.3,0.1-0.7,0.2-1.1,0.3l-0.6,0.1c-0.2,0-0.3,0-0.4,0.1l-0.8,0.1
					l-0.2,0h0l0,0l-0.1,0l-0.1,0l-0.3,0l-0.5,0c-0.4,0-0.7-0.1-1-0.2c-0.7-0.2-1.3-0.4-1.9-0.7c-0.6-0.3-1.1-0.7-1.7-1.1
					c-0.5-0.4-1-0.8-1.4-1.3c-0.9-0.9-1.6-1.9-2.2-2.9c-0.6-1-1.2-2.1-1.6-3.2c-0.5-1.1-0.8-2.2-1.2-3.3c-0.3-1.1-0.6-2.3-0.8-3.4
					c-0.2-1.1-0.4-2.3-0.5-3.4c-0.1-1.2-0.1-2.3-0.2-3.5c0-1,0.7-1.8,1.7-1.8c1,0,1.8,0.7,1.8,1.7v0.1v0c0,1.2,0,2.3-0.2,3.5
					c-0.1,1.2-0.3,2.3-0.5,3.4c-0.2,1.1-0.5,2.3-0.8,3.4c-0.3,1.1-0.7,2.2-1.2,3.3c-0.5,1.1-1,2.2-1.6,3.2c-0.6,1-1.4,2-2.2,2.9
					c-0.4,0.5-0.9,0.9-1.4,1.3c-0.5,0.4-1,0.8-1.7,1l-0.9,0.4c-0.3,0.1-0.7,0.2-1.1,0.3c-0.9,0.2-1.1,0.2-2,0.2
					c-1.4-0.1-2.8-0.4-3.9-1c-0.6-0.3-1.1-0.7-1.6-1.1c-0.5-0.4-1-0.8-1.4-1.3c-0.8-0.9-1.6-1.9-2.2-2.9c-0.6-1-1.1-2.1-1.6-3.2
					c-0.5-1.1-0.8-2.2-1.1-3.3c-0.3-1.1-0.6-2.2-0.8-3.4c-0.2-1.1-0.3-2.3-0.4-3.4c-0.1-1.1-0.1-2.3-0.1-3.4v0
					c0-0.8,0.6-1.4,1.4-1.4c0.8,0,1.4,0.6,1.4,1.4l0,0.1c0,1.1-0.1,2.3-0.2,3.4c-0.1,1.1-0.3,2.3-0.5,3.4c-0.2,1.1-0.5,2.2-0.8,3.4
					c-0.3,1.1-0.7,2.2-1.2,3.3c-0.5,1.1-1,2.1-1.6,3.1c-0.6,1-1.3,2-2.2,2.8c-0.4,0.4-0.9,0.8-1.4,1.2c-0.5,0.3-1,0.7-1.6,1
					l-0.9,0.4c-0.3,0.1-0.7,0.2-1,0.3c-0.8,0.2-1.1,0.1-1.9,0.2c-1.3-0.1-2.6-0.4-3.7-1c-0.6-0.3-1-0.7-1.6-1
					c-0.4-0.4-0.9-0.8-1.3-1.2c-0.8-0.9-1.5-1.8-2.1-2.8c-0.6-1-1.1-2-1.5-3.1c-0.4-1.1-0.8-2.2-1.1-3.2c-0.3-1.1-0.5-2.2-0.7-3.3
					c-0.1-1.1-0.3-2.2-0.3-3.4c-0.1-1.1,0-2.2,0-3.3c0-0.3,0.2-0.5,0.5-0.5C123.2,192.8,123.4,193,123.4,193.2"/>
			</g>
			<g class="st24">
				<g>
					<g>
						<path class="st8" d="M123.1,191.6c0.1,1.1,0.1,2.2,0.3,3.3c0.1,1.1,0.3,2.1,0.5,3.2c0.2,1.1,0.5,2.1,0.8,3.1
							c0.3,1,0.7,2,1.1,3c0.4,1,0.9,1.9,1.5,2.8c0.6,0.9,1.2,1.7,1.9,2.4c0.3,0.4,0.8,0.7,1.1,1c0.4,0.2,0.8,0.6,1.2,0.8
							c0.8,0.5,1.8,0.6,2.7,0.7c0.3-0.1,1.1-0.1,1.4-0.2c0.2-0.1,0.4-0.1,0.6-0.2l0.6-0.3c0.4-0.2,0.8-0.5,1.2-0.8
							c0.4-0.3,0.8-0.6,1.1-1c0.7-0.7,1.3-1.6,1.8-2.4c0.5-0.9,1-1.8,1.4-2.8c0.4-1,0.7-2,1-3c0.3-1,0.5-2.1,0.7-3.1
							c0.2-1.1,0.3-2.1,0.4-3.2c0.1-1.1,0.1-2.1,0.1-3.2h2.8c0,1.1,0.1,2.1,0.2,3.2c0.1,1.1,0.3,2.1,0.4,3.2c0.2,1,0.4,2.1,0.7,3.1
							c0.3,1,0.6,2,1.1,2.9c0.4,1,0.9,1.9,1.4,2.7c0.5,0.9,1.2,1.7,1.8,2.4c0.3,0.4,0.7,0.6,1.1,1c0.4,0.2,0.8,0.5,1.2,0.7
							c0.8,0.4,1.6,0.6,2.4,0.6c0.2-0.1,1.2-0.1,1.3-0.2c0.2-0.1,0.3-0.1,0.5-0.2l0.6-0.3c0.4-0.2,0.8-0.5,1.1-0.7
							c0.3-0.3,0.7-0.6,1-1c0.7-0.7,1.3-1.5,1.8-2.4c0.5-0.9,1-1.8,1.4-2.7c0.4-0.9,0.7-1.9,1-2.9c0.3-1,0.5-2,0.7-3.1
							c0.2-1,0.3-2.1,0.4-3.1c0.1-1.1,0.1-2.1,0.1-3.2h3.5c0,1.1,0,2.1,0.1,3.2c0.1,1.1,0.2,2.1,0.4,3.1c0.2,1,0.4,2.1,0.7,3.1
							c0.3,1,0.6,2,1,2.9c0.4,0.9,0.8,1.9,1.4,2.7c0.5,0.9,1.1,1.6,1.8,2.3c0.3,0.4,0.7,0.6,1,1c0.4,0.2,0.7,0.5,1.1,0.7
							c0.4,0.2,0.8,0.4,1.2,0.5c0.2,0.1,0.4,0.1,0.6,0.1l0.3,0l0.2,0l0.1,0l0,0h0l0,0c-0.1,0,0.2,0-0.1,0l0.8-0.1c0.1,0,0.3,0,0.4,0
							l0.2-0.1c0.2-0.1,0.3-0.1,0.5-0.1l0.6-0.3c0.4-0.2,0.8-0.5,1.1-0.7c0.3-0.3,0.7-0.6,1-1c0.7-0.7,1.3-1.5,1.8-2.3
							c0.5-0.8,1-1.8,1.4-2.7c0.4-0.9,0.8-1.9,1.1-2.9c0.3-1,0.5-2,0.7-3.1c0.2-1,0.4-2.1,0.4-3.1c0.1-1.1,0.1-2.1,0.2-3.2h3
							c0,1.1,0,2.1,0.1,3.2c0.1,1.1,0.2,2.1,0.4,3.2c0.2,1,0.4,2.1,0.7,3.1c0.3,1,0.6,2,1,3c0.4,1,0.8,1.9,1.4,2.8
							c0.5,0.9,1.1,1.7,1.8,2.5c0.3,0.4,0.7,0.7,1.1,1c0.4,0.3,0.8,0.6,1.2,0.8c0.8,0.5,1.8,0.7,2.5,0.8c0.5-0.1,1.2,0,1.5-0.2
							c0.2-0.1,0.4-0.1,0.6-0.2l0.6-0.3c0.4-0.2,0.8-0.5,1.2-0.8c0.4-0.3,0.8-0.6,1.1-1c0.7-0.7,1.4-1.5,1.9-2.4
							c0.6-0.9,1.1-1.8,1.5-2.8c0.5-1,0.8-2,1.1-3c0.3-1,0.6-2.1,0.8-3.1c0.2-1.1,0.4-2.1,0.5-3.2c0.2-1.1,0.2-2.2,0.3-3.3l0,0
							c0-0.3,0.3-0.5,0.5-0.5c0.3,0,0.5,0.2,0.5,0.5c0,1.1,0,2.2-0.1,3.4c0,1.1-0.2,2.2-0.3,3.4c-0.2,1.1-0.4,2.2-0.7,3.3
							c-0.3,1.1-0.6,2.2-1.1,3.2c-0.4,1.1-0.9,2.1-1.5,3.1c-0.6,1-1.3,2-2.1,2.8c-0.4,0.5-0.9,0.8-1.3,1.2c-0.5,0.3-1,0.7-1.6,1
							l-0.8,0.4c-0.3,0.1-0.6,0.2-1,0.3c-0.7,0.2-1.2,0.2-1.7,0.3c-0.5,0-0.7,0-1.1-0.1c-0.3,0-0.6-0.1-1-0.2
							c-0.6-0.1-1.2-0.4-1.8-0.7c-0.6-0.3-1.1-0.6-1.6-1c-0.5-0.4-1-0.8-1.4-1.2c-0.8-0.9-1.6-1.8-2.2-2.8c-0.6-1-1.2-2-1.6-3.1
							c-0.5-1.1-0.9-2.2-1.2-3.3c-0.3-1.1-0.6-2.2-0.8-3.4c-0.2-1.1-0.4-2.3-0.5-3.4c-0.1-1.1-0.1-2.3-0.2-3.4
							c0-0.8,0.6-1.5,1.4-1.6c0.8,0,1.5,0.6,1.6,1.4v0.1v0c0,1.1,0,2.3-0.1,3.4c-0.1,1.1-0.2,2.3-0.4,3.4c-0.2,1.1-0.4,2.3-0.8,3.4
							c-0.3,1.1-0.7,2.2-1.1,3.3c-0.4,1.1-1,2.2-1.6,3.2c-0.6,1-1.3,2-2.2,2.9c-0.4,0.5-0.9,0.9-1.4,1.3c-0.5,0.4-1,0.8-1.7,1.1
							l-0.9,0.4c-0.3,0.1-0.7,0.2-1.1,0.3l-0.6,0.1c-0.2,0-0.3,0-0.4,0.1l-0.8,0.1l-0.2,0h0l0,0l-0.1,0l-0.1,0l-0.3,0l-0.5,0
							c-0.4,0-0.7-0.1-1-0.2c-0.7-0.2-1.3-0.4-1.9-0.7c-0.6-0.3-1.1-0.7-1.7-1.1c-0.5-0.4-1-0.8-1.4-1.3c-0.9-0.9-1.6-1.9-2.2-2.9
							c-0.6-1-1.2-2.1-1.6-3.2c-0.5-1.1-0.8-2.2-1.2-3.3c-0.3-1.1-0.6-2.3-0.8-3.4c-0.2-1.1-0.4-2.3-0.5-3.4
							c-0.1-1.2-0.1-2.3-0.2-3.5c0-1,0.7-1.8,1.7-1.8c1,0,1.8,0.7,1.8,1.7v0.1v0c0,1.2,0,2.3-0.2,3.5c-0.1,1.2-0.3,2.3-0.5,3.4
							c-0.2,1.1-0.5,2.3-0.8,3.4c-0.3,1.1-0.7,2.2-1.2,3.3c-0.5,1.1-1,2.2-1.6,3.2c-0.6,1-1.4,2-2.2,2.9c-0.4,0.5-0.9,0.9-1.4,1.3
							c-0.5,0.4-1,0.8-1.7,1l-0.9,0.4c-0.3,0.1-0.7,0.2-1.1,0.3c-0.9,0.2-1.1,0.2-2,0.2c-1.4-0.1-2.8-0.4-3.9-1
							c-0.6-0.3-1.1-0.7-1.6-1.1c-0.5-0.4-1-0.8-1.4-1.3c-0.8-0.9-1.6-1.9-2.2-2.9c-0.6-1-1.1-2.1-1.6-3.2c-0.5-1.1-0.8-2.2-1.1-3.3
							c-0.3-1.1-0.6-2.2-0.8-3.4c-0.2-1.1-0.3-2.3-0.4-3.4c-0.1-1.1-0.1-2.3-0.1-3.4v0c0-0.8,0.6-1.4,1.4-1.4c0.8,0,1.4,0.6,1.4,1.4
							l0,0.1c0,1.1-0.1,2.3-0.2,3.4c-0.1,1.1-0.3,2.3-0.5,3.4c-0.2,1.1-0.5,2.2-0.8,3.4c-0.3,1.1-0.7,2.2-1.2,3.3
							c-0.5,1.1-1,2.1-1.6,3.1c-0.6,1-1.3,2-2.2,2.8c-0.4,0.4-0.9,0.8-1.4,1.2c-0.5,0.3-1,0.7-1.6,1l-0.9,0.4
							c-0.3,0.1-0.7,0.2-1,0.3c-0.8,0.2-1.1,0.1-1.9,0.2c-1.3-0.1-2.6-0.4-3.7-1c-0.6-0.3-1-0.7-1.6-1c-0.4-0.4-0.9-0.8-1.3-1.2
							c-0.8-0.9-1.5-1.8-2.1-2.8c-0.6-1-1.1-2-1.5-3.1c-0.4-1.1-0.8-2.2-1.1-3.2c-0.3-1.1-0.5-2.2-0.7-3.3c-0.1-1.1-0.3-2.2-0.3-3.4
							c-0.1-1.1,0-2.2,0-3.3c0-0.3,0.2-0.5,0.5-0.5C122.8,191.1,123,191.3,123.1,191.6"/>
					</g>
				</g>
			</g>
			<g class="st24">
				<g>
					<g>
						<path class="st8" d="M137.9,220.9c-0.1,2.2-0.1,4.5,0,6.7c0,1.1,0.2,2.2,0.3,3.3l0.3,1.6l0.4,1.6c0.3,1,0.8,2,1.2,3
							c0.5,1,1.1,1.9,1.7,2.7c0.7,0.8,1.4,1.6,2.2,2.1c0.8,0.6,1.8,0.9,2.6,1.1c0.8,0.2,1.8,0.2,2.4,0.3l0.8-0.1
							c0.3,0,0.4-0.1,0.6-0.1c0.3,0,0.7-0.2,1.1-0.4c0.8-0.4,1.5-0.9,2.2-1.5c0.7-0.6,1.3-1.4,1.9-2.2c0.5-0.8,1-1.7,1.4-2.6
							c0.4-0.9,0.7-1.9,1-2.9c0.3-1,0.5-2,0.6-3c0.1-1,0.2-2.1,0.2-3.1h3.8c0,0.9,0,1.8,0.1,2.7c0.1,0.9,0.2,1.8,0.4,2.7
							c0.2,0.9,0.4,1.8,0.7,2.6l0.5,1.3l0.6,1.2c0.4,0.8,0.9,1.5,1.4,2.2c0.5,0.7,1.1,1.3,1.8,1.8c0.7,0.5,1.3,1,2.1,1.2
							c0.7,0.3,1.5,0.4,2.3,0.5c0.2,0,1,0,1.2-0.1c0.3-0.1,0.6-0.1,1-0.3c0.7-0.3,1.4-0.7,2.1-1.2c0.7-0.5,1.3-1.1,1.8-1.8
							c0.5-0.7,1-1.4,1.5-2.2l0.6-1.2l0.5-1.3c0.3-0.9,0.6-1.7,0.8-2.6c0.2-0.9,0.4-1.8,0.5-2.7c0.1-0.9,0.2-1.9,0.2-2.8h2.7
							c0,0.9,0,1.9,0.1,2.8c0.1,0.9,0.2,1.9,0.4,2.8c0.2,0.9,0.4,1.8,0.7,2.7l0.5,1.3l0.6,1.3c0.4,0.8,0.9,1.6,1.5,2.3l0.9,1
							c0.3,0.3,0.6,0.6,1,0.9c0.7,0.5,1.4,1.1,2.2,1.4c0.8,0.4,1.7,0.5,2.4,0.6c0.5,0,1,0,1.4-0.1c0.4-0.1,0.8-0.1,1.2-0.3
							c0.8-0.3,1.6-0.8,2.3-1.3c0.7-0.6,1.4-1.2,2-1.9c0.6-0.7,1.1-1.5,1.6-2.3l0.7-1.3l0.6-1.3c0.3-0.9,0.6-1.8,0.9-2.7
							c0.2-0.9,0.4-1.9,0.5-2.8c0.1-1,0.2-1.9,0.2-2.9l0,0c0-0.3,0.2-0.4,0.5-0.4c0.2,0,0.4,0.2,0.4,0.5c0,1,0,2-0.1,3
							c-0.1,1-0.2,2-0.4,3c-0.2,1-0.5,2-0.8,2.9l-0.5,1.4l-0.6,1.4c-0.5,0.9-1,1.8-1.6,2.6c-0.6,0.8-1.3,1.6-2.2,2.3
							c-0.8,0.7-1.7,1.3-2.7,1.7c-0.5,0.2-1.1,0.4-1.6,0.5c-0.6,0.1-1,0.1-1.5,0.2c-1.3,0-2.3-0.2-3.3-0.6c-1.1-0.4-2-1-2.9-1.6
							c-0.9-0.7-1.6-1.4-2.3-2.3c-0.7-0.8-1.2-1.7-1.8-2.6l-0.7-1.4l-0.6-1.4c-0.3-1-0.7-2-0.9-3c-0.2-1-0.4-2-0.5-3.1
							c-0.1-1-0.2-2.1-0.2-3.1c0-0.8,0.6-1.4,1.3-1.4c0.8,0,1.4,0.6,1.4,1.3l0,0.1l0,0c0,1,0,2.1-0.1,3.1c-0.1,1-0.3,2.1-0.5,3.1
							c-0.2,1-0.5,2-0.8,3l-0.6,1.5l-0.7,1.4c-0.5,0.9-1.1,1.9-1.7,2.7c-0.7,0.9-1.4,1.7-2.3,2.4c-0.9,0.7-1.8,1.4-3,1.8
							c-0.5,0.2-1.2,0.4-1.8,0.5c-0.7,0.1-0.9,0.1-1.7,0.2c-1.2,0-2.4-0.2-3.5-0.7c-1.1-0.4-2.1-1-3-1.7c-0.9-0.7-1.7-1.5-2.4-2.4
							c-0.7-0.9-1.3-1.8-1.8-2.7l-0.7-1.4l-0.6-1.5c-0.4-1-0.7-2-0.9-3c-0.2-1-0.4-2.1-0.5-3.1c-0.1-1-0.2-2.1-0.2-3.1
							c0-1,0.8-1.9,1.8-2c1,0,1.9,0.8,2,1.8l0,0.1v0.1c0,4.8-1,9.6-3.7,13.8c-0.7,1-1.5,2.1-2.4,2.9c-0.9,0.9-2,1.7-3.2,2.3
							c-0.7,0.3-1.2,0.6-2,0.7c-0.3,0.1-0.8,0.2-1.1,0.2l-0.8,0.1l-0.4,0l-0.3,0l-0.5,0c-0.4,0-0.7-0.1-1-0.2
							c-0.7-0.2-1.3-0.4-1.9-0.8c-0.6-0.3-1.1-0.8-1.6-1.1c-0.5-0.5-0.9-0.9-1.3-1.4c-0.8-0.9-1.5-1.9-2.2-2.9
							c-0.6-1-1.1-2.1-1.5-3.2l-0.6-1.6l-0.5-1.7l-0.3-1.7l-0.2-1.7c-0.1-1.2-0.2-2.3-0.1-3.4c0-2.3,0.1-4.5,0-6.7
							c0-0.3,0.2-0.5,0.4-0.5C137.7,220.4,137.9,220.6,137.9,220.9C137.9,220.9,137.9,220.9,137.9,220.9"/>
					</g>
				</g>
			</g>
		</g>
	</g>
	<g>
		<path class="st2" d="M330.7,28.6c-1.7-1.7-4.6-2.6-8.4-2.6c-2.8,0-6.1,0.5-9.8,1.5c-6.2,1.7-10.6,4.5-13.3,7
			c-0.1-0.1-0.3-0.2-0.5-0.2c-0.2-0.1-0.3-0.1-0.5-0.2c0-3.6-0.6-8.8-3.4-14.6c-4-8.3-8.8-13-13.1-13c-1.4,0-2.6,0.5-3.6,1.4
			c-2.9,2.7-3,9.5-2.9,16.9c0,0.4,0,0.8,0,1.2c0,3.9,1.5,6.7,3.9,9c-0.3,0.2-0.7,0.4-0.9,0.7c-2,1.8-3.4,6.8-3.1,10.6
			c0.3,2.9,1.5,5.2,3.6,6.5c1.1,0.7,2.3,1,3.6,1c1.3,0,2.7-0.4,3.9-0.9c-0.3,1.5-0.5,3-0.1,4c0.3,0.7,0.8,1.3,1.4,1.6
			c0.3,0.2,0.7,0.2,1.1,0.2c1.3,0,2.4-0.8,4-2.9c0.9,3,2.6,4.9,5,5.7c0.7,0.2,1.4,0.3,2.1,0.3c5.8,0,11.1-7.4,11.2-11
			c0-0.4,0-0.7-0.1-1.1c0.5,0,0.9,0.1,1.4,0.1c3,0,5.6-0.9,8-3c0.3-0.2,0.6-0.5,0.9-0.8c5.6-4.7,10.7-9.3,10.9-13.2
			C332.2,31,331.7,29.7,330.7,28.6z"/>
		<g>
			<g>
				<path class="st25" d="M295.3,38.7c0,0,2.3-8.1-2.6-18.2c-4.9-10.1-10.3-13.3-12.9-10.9c-2.6,2.4-2.2,11.6-2.1,16.3
					c0.1,4.7,2.4,7.3,7,10.3C289.3,39.1,294.9,40.8,295.3,38.7z"/>
				<path class="st26" d="M289.7,36.1c0,0-7.9-0.5-9.8,1.2c-1.9,1.8-4.2,10.5,0.2,13.3c4.4,2.8,11.1-3.8,13.8-7.5
					C296.5,39.5,295.4,36.5,289.7,36.1z"/>
				<path class="st25" d="M297.6,39.7c0,0,4.6-7,15.5-9.9c10.9-2.9,16.8-0.9,16.6,2.6c-0.1,3.5-7.4,9.2-10.9,12.2
					c-3.6,3-7.1,2.9-12.4,1.4C301.1,44.6,296.2,41.4,297.6,39.7z"/>
				<path class="st26" d="M303.2,42.3c0,0,5.5,5.7,5.4,8.2c-0.1,2.6-5.2,10-10.2,8.5c-5-1.5-4.4-10.9-3.3-15.3
					C296.2,39.3,299.2,38.3,303.2,42.3z"/>
			</g>
			<path class="st27" d="M293.2,50.6c-0.5,1-3.6,6-4.5,5.6l0,0c-0.9-0.4,0.8-6,1.3-7l5.3-11.5c0.5-1,1.6-1.5,2.5-1.1l0,0
				c0.9,0.4,1.2,1.6,0.8,2.6L293.2,50.6z"/>
		</g>
	</g>
</g>
</svg>
