<?xml version="1.0" encoding="utf-8"?>
<!-- Generator: Adobe Illustrator 19.1.0, SVG Export Plug-In . SVG Version: 6.00 Build 0)  -->
<svg version="1.1" id="Capa_1" xmlns="http://www.w3.org/2000/svg" xmlns:xlink="http://www.w3.org/1999/xlink" x="0px" y="0px"
	 viewBox="-844 441 170 200" style="enable-background:new -844 441 170 200;" xml:space="preserve">
<style type="text/css">
	.st0{opacity:0.1;}
	.st1{fill:#33B533;}
	.st2{fill:#33BE33;}
	.st3{fill:#33CC33;}
	.st4{opacity:0.3;}
	.st5{fill:none;}
	.st6{fill:#CC3333;}
	.st7{fill:#9F161D;}
	.st8{fill:#B23333;}
	.st9{fill:#FFB400;}
	.st10{fill:#CB7000;}
	.st11{fill:#FFCC00;}
</style>
<g>
</g>
<g>
</g>
<g>
</g>
<g>
</g>
<g>
</g>
<g>
</g>
<g>
	<g>
		<g class="st0">
		</g>
		<g>
			<g>
				<g>
					<path class="st1" d="M-801.8,552.4c2,0,3.9,0.4,5.5,1.2l4.3,2.3l0,0l0,0l0,0l0,0c0.6,0.3,1.3,0.4,2,0.4c0.7,0,1.3-0.1,1.9-0.3
						c0,0,0,0,0.1,0c1.8-0.7,3.8-1,5.9-1c2.4,0,4.9,0.5,6.8,1.5c2.2,1.1,3.2,2.7,3.2,4.4l0,0v5.6l3.4,1.8c1.8,0.9,2.7,2.3,2.6,3.6
						v5.5c0.1,1.3-0.7,2.6-2.3,3.5l-8.3,5.1l3.6-2.2l-16.8,10.3l-1.3,0.8c-0.2,0.2-0.4,0.3-0.7,0.3c-5.6,3.1-12.7,4.7-19.9,4.7
						c-6.5,0-12.8-1.3-17.9-3.9c-5.6-2.9-8.4-6.9-8.5-11l0,0l-0.1-6.3h0.1c0.2-3.5,2.4-7.1,6.7-10c0.2-0.2,0.3-0.3,0.6-0.4l18-11.2
						l-3.6,2.2l8.3-5.1c0.9-0.5,1.8-0.9,2.8-1.2C-804.3,552.6-803.1,552.4-801.8,552.4 M-801.8,551.4L-801.8,551.4
						c-1.3,0-2.7,0.2-3.8,0.5c-1.2,0.3-2.2,0.8-3.1,1.3l-8.3,5.1l0,0l-14.5,9c-0.3,0.2-0.4,0.3-0.7,0.4c-4,2.7-6.5,6.2-6.9,9.8h-0.3
						v1l0.1,6.3v0.6l0,0c0.3,4.4,3.4,8.5,9,11.4c5,2.7,11.5,4.1,18.4,4.1c7.6,0,14.8-1.7,20.4-4.8c0.3-0.2,0.5-0.3,0.7-0.4l1.3-0.8
						l16.8-10.3l0,0l4.7-2.9c1.9-1.1,2.9-2.7,2.8-4.4v-5.5c0.1-1.8-1-3.4-3.1-4.5l-2.9-1.5v-5v-0.9h-0.1c-0.3-1.7-1.6-3.2-3.6-4.3
						c-2-1-4.5-1.6-7.2-1.6c-2.2,0-4.4,0.3-6.3,1.1h-0.1c-0.4,0.2-0.9,0.3-1.5,0.3c-0.3,0-0.7,0-1-0.1v-0.2l-0.7-0.2h-0.1l0,0
						l-4.1-2.1C-797.5,551.9-799.7,551.4-801.8,551.4L-801.8,551.4L-801.8,551.4z"/>
				</g>
			</g>
			<g>
				<path class="st2" d="M-766.2,577.2v-5.7l-3.4-0.4l1.5,3.3c-0.2-0.2-0.4-0.3-0.7-0.4l-4.4-2.3c-1.1-0.6-1.3-1.5-0.5-2.2
					c0.9-0.9,1.4-2.1,1.4-3.1l0,0l0.3-5.6h-1.6v2.3c-0.9-0.3-1.1-0.5-1.5-0.8c-3.5-1.9-9-2-12.9-0.4c0,0-0.1,0-0.2,0
					c-1.2,0.4-2.8,0.7-3.8,0.2l-0.1,0.2l0,0v-0.3v-0.1l-4.3-2.3c-2.5-1.3-6.1-1.5-9.1-0.8c-1,0.3-2,0.7-2.8,1.1l-8.3,5.1l3.6-2.2
					l-18,11.2c-0.2,0.2-0.3,0.3-0.4,0.4c-2.6,1.8-4.4,3.8-5.3,5.9v-1.8h-1.5l0.1,6.4l0,0c0,4.1,2.8,8.1,8.5,11
					c10.6,5.6,27.2,5.2,37.8-0.7c0.3-0.1,0.4-0.3,0.7-0.3l1.3-0.8l16.8-10.3l-3.6,2.2l8.3-5.1C-766.9,579.8-766.2,578.5-766.2,577.2
					z"/>
				<g>
					<path class="st3" d="M-829.9,590c10.6,5.6,27.2,5.2,37.8-0.8c0.3-0.1,0.4-0.3,0.7-0.3l1.3-0.8l16.8-10.3l-3.6,2.2l8.3-5.1
						c3.2-2,3.1-5-0.3-6.8l-4.4-2.3c-1.1-0.6-1.3-1.5-0.5-2.2c2.3-2.4,1.7-5.3-1.8-7.2s-8.7-2-12.7-0.4c0,0,0,0-0.1,0
						c-1.2,0.4-2.7,0.4-3.8-0.1l0,0l0,0l0,0l0,0l-4.3-2.3c-2.5-1.3-6.1-1.5-9.1-0.8c-1,0.3-2,0.7-2.8,1.2l-8.3,5.1l3.6-2.2l-18,11.2
						c-0.2,0.2-0.4,0.3-0.6,0.4C-841.1,575-840.5,584.5-829.9,590z"/>
					<g>
						<g>
							<g>
								<path class="st2" d="M-821,566.8c-8.4,5.2-8.1,13.2,0.6,17.8c4.9,2.6,11.4,3.6,17.7,3c1.6-0.2,3.3-0.4,4.9-0.8
									c1.2-0.3,2.3-0.6,3.4-0.9c1.9-0.6,3.6-1.5,5.1-2.4c2.2-1.4,3.8-3,4.9-4.6c0.9-1.5,1.3-3,1.3-4.5c0-0.9-0.2-1.6-0.5-2.4
									c-0.9-2.3-3-4.4-6.2-6.2C-798.6,561.1-812.6,561.6-821,566.8z M-799.1,586.1c-0.9-0.6-1.9-1.4-2.7-2.2l1.7,0.7
									c1,0.4,2.1,0.8,3.3,1C-797.5,585.7-798.2,585.9-799.1,586.1z M-785.4,577.7c-0.8-0.7-1.7-1.3-2.9-1.8l-4.6-2.2
									c3.2-0.6,5.9-0.3,8.1,0.2C-784.6,575.1-784.9,576.4-785.4,577.7z M-785.4,571.7c-3-0.3-6.3-0.1-9.8,0.9l-9.2-4.4
									c-4.5-2-11.2-1.4-14.8,1.3s-2.8,6.4,1.7,8.4l0.2,0.1c-0.2,0.8,0.4,1.5,1.5,2.1c1.3,0.5,2.9,0.6,4.3,0.2l5.7,2.1
									c0.2,1.7,1.1,3.2,2.2,4.4c-5.6,0.4-11.4-0.5-15.7-2.8c-8.1-4.3-8.4-11.6-0.6-16.5c7.8-4.8,20.7-5.3,28.8-1
									C-788.2,567.9-786.3,569.7-785.4,571.7z"/>
							</g>
							<g class="st4">
								<path d="M-821,566.8c-8.4,5.2-8.1,13.2,0.6,17.8c4.9,2.6,11.4,3.6,17.7,3c1.6-0.2,3.3-0.4,4.9-0.8c1.2-0.3,2.3-0.6,3.4-0.9
									c1.9-0.6,3.6-1.5,5.1-2.4c2.2-1.4,3.8-3,4.9-4.6c0.9-1.5,1.3-3,1.3-4.5c0-0.9-0.2-1.6-0.5-2.4c-0.9-2.3-3-4.4-6.2-6.2
									C-798.6,561.1-812.6,561.6-821,566.8z M-799.1,586.1c-0.9-0.6-1.9-1.4-2.7-2.2l1.7,0.7c1,0.4,2.1,0.8,3.3,1
									C-797.5,585.7-798.2,585.9-799.1,586.1z M-785.4,577.7c-0.8-0.7-1.7-1.3-2.9-1.8l-4.6-2.2c3.2-0.6,5.9-0.3,8.1,0.2
									C-784.6,575.1-784.9,576.4-785.4,577.7z M-785.4,571.7c-3-0.3-6.3-0.1-9.8,0.9l-9.2-4.4c-4.5-2-11.2-1.4-14.8,1.3
									s-2.8,6.4,1.7,8.4l0.2,0.1c-0.2,0.8,0.4,1.5,1.5,2.1c1.3,0.5,2.9,0.6,4.3,0.2l5.7,2.1c0.2,1.7,1.1,3.2,2.2,4.4
									c-5.6,0.4-11.4-0.5-15.7-2.8c-8.1-4.3-8.4-11.6-0.6-16.5c7.8-4.8,20.7-5.3,28.8-1C-788.2,567.9-786.3,569.7-785.4,571.7z"/>
							</g>
						</g>
						<g>
							<g>
								<g>
									<path class="st3" d="M-803.7,571.1c-1.5-0.6-3.4-0.5-4.7,0.3c-0.1,0.1-0.2,0.1-0.3,0.2c-0.6,0.4-0.9,0.9-0.8,1.5
										s0.6,1,1.3,1.3c1.5,0.6,3.4,0.5,4.7-0.3c0.1-0.1,0.2-0.1,0.3-0.2c0.6-0.4,0.9-0.9,0.8-1.5
										C-802.6,572-803,571.5-803.7,571.1z"/>
									<path class="st3" d="M-813.3,576.3c-0.9,0.1-1.5,0.3-2.1,0.7c-1.1,0.8-0.9,1.9,0.5,2.5c0.7,0.3,1.5,0.4,2.3,0.3
										c0.8-0.1,1.4-0.3,1.9-0.6c0.1,0,0.2-0.1,0.2-0.2c0.5-0.4,0.8-0.9,0.7-1.4s-0.5-0.9-1.2-1.2
										C-811.6,576.3-812.5,576.2-813.3,576.3z"/>
								</g>
							</g>
						</g>
						<path class="st5" d="M-819.9,584.2c8.5,4.4,21.9,3.9,29.9-1c8.1-5,7.9-12.7-0.6-17.1s-21.9-3.9-29.9,1
							C-828.7,572.2-828.4,579.8-819.9,584.2"/>
						<g>
							<g>
								<path class="st2" d="M-804.6,573.3c0.2-0.1,0.2-0.3-0.1-0.3l-2.1-0.9c-0.2-0.1-0.5-0.1-0.7,0.1c-0.2,0.1-0.2,0.3,0.1,0.3
									l2.1,0.9C-805.1,573.5-804.8,573.5-804.6,573.3"/>
							</g>
							<g class="st4">
								<path d="M-804.6,573.3c0.2-0.1,0.2-0.3-0.1-0.3l-2.1-0.9c-0.2-0.1-0.5-0.1-0.7,0.1c-0.2,0.1-0.2,0.3,0.1,0.3l2.1,0.9
									C-805.1,573.5-804.8,573.5-804.6,573.3"/>
							</g>
						</g>
						<g>
							<g>
								<path class="st2" d="M-811.8,578.7c0.2-0.1,0.2-0.3-0.1-0.3l-2-0.9c-0.2-0.1-0.5-0.1-0.7,0.1c-0.2,0.1-0.2,0.3,0.1,0.3
									l2,0.9C-812.3,578.9-812,578.8-811.8,578.7"/>
							</g>
							<g class="st4">
								<path d="M-811.8,578.7c0.2-0.1,0.2-0.3-0.1-0.3l-2-0.9c-0.2-0.1-0.5-0.1-0.7,0.1c-0.2,0.1-0.2,0.3,0.1,0.3l2,0.9
									C-812.3,578.9-812,578.8-811.8,578.7"/>
							</g>
						</g>
						<path class="st3" d="M-803,578.3c-1.1,0.8-2.6,1.4-4.3,1.5c-0.9,0.1-1.6-0.2-1.7-0.7c-0.1-0.5,0.5-0.9,1.4-1.1
							c1.9-0.3,3.2-1.3,3.1-2.4c-0.1-0.5,0.5-0.9,1.4-1.1c0.9-0.1,1.6,0.2,1.7,0.7c0.2,1-0.3,2.1-1.4,2.9
							C-802.8,578.2-802.9,578.2-803,578.3"/>
						<g>
							<g>
								<path class="st2" d="M-803.8,578c-0.9,0.7-2.1,1.1-3.6,1.4c-0.3,0-0.5-0.1-0.6-0.3c0-0.2,0.2-0.3,0.4-0.3
									c2.5-0.3,4.3-1.7,3.9-3.2c0-0.2,0.2-0.3,0.4-0.3c0.3,0,0.5,0.1,0.6,0.3C-802.3,576.3-802.8,577.2-803.8,578"/>
							</g>
							<g class="st4">
								<path d="M-803.8,578c-0.9,0.7-2.1,1.1-3.6,1.4c-0.3,0-0.5-0.1-0.6-0.3c0-0.2,0.2-0.3,0.4-0.3c2.5-0.3,4.3-1.7,3.9-3.2
									c0-0.2,0.2-0.3,0.4-0.3c0.3,0,0.5,0.1,0.6,0.3C-802.3,576.3-802.8,577.2-803.8,578"/>
							</g>
						</g>
						<g>
							<g>
								<path class="st3" d="M-805.1,581.1c0.2,0.1,0.3,0.1,0.4,0.2c0.2,0.1,0.3,0.1,0.4,0.2c0.2,0,0.3,0.1,0.4,0.1s0.3,0.1,0.4,0.1
									c0.3,0.1,0.6,0.1,0.9,0.1c0.2,0,0.3,0,0.4,0c0.2,0,0.3-0.1,0.3-0.2c0.1-0.1,0.1-0.2,0.1-0.3s0-0.2-0.1-0.3
									c-0.1-0.2-0.3-0.3-0.4-0.5c-0.3-0.3-0.9-0.5-1.4-0.8l0.3-0.2c0.5,0.2,1.1,0.4,1.7,0.5c0.3,0.1,0.6,0.1,0.9,0.1
									c0.2,0,0.3,0,0.4,0c0.1,0,0.3-0.1,0.3-0.1c0.1-0.1,0.1-0.1,0.1-0.2s0-0.2-0.1-0.3c-0.1-0.2-0.3-0.3-0.4-0.4
									c-0.1-0.1-0.2-0.2-0.3-0.2c-0.1-0.1-0.2-0.2-0.3-0.2c-0.1-0.1-0.3-0.1-0.3-0.2s-0.3-0.1-0.3-0.2l0.3-0.3
									c0.5,0.3,1,0.4,1.6,0.5c0.3,0.1,0.6,0.1,0.9,0.1c0.2,0,0.3,0,0.4,0c0.1,0,0.1,0,0.2-0.1h0.1l0,0l0,0l0,0l0,0l0,0l0,0l0,0
									l0.1-0.1c0,0,0,0,0-0.1v-0.1c0-0.1,0-0.2-0.1-0.3c-0.1-0.2-0.3-0.3-0.4-0.4c-0.3-0.3-0.8-0.5-1.3-0.8l0.3-0.2
									c0.3,0.1,0.5,0.2,0.8,0.3c0.2,0,0.3,0.1,0.4,0.1s0.3,0.1,0.4,0.1c0.3,0.1,0.6,0.1,0.9,0.1c0.2,0,0.3,0,0.4,0
									c0.1,0,0.2,0,0.2-0.1h0.1l0,0l0,0l0,0l0,0l0,0l0,0l0,0c0.1,0,0.1-0.1,0.1-0.1v-0.1c0-0.1,0-0.2-0.1-0.3
									c-0.1-0.2-0.3-0.3-0.4-0.5c-0.1-0.1-0.2-0.2-0.3-0.3s-0.2-0.2-0.3-0.2c-0.3-0.2-0.4-0.3-0.7-0.3l0,0c0,0,0,0,0-0.1h0.1
									c0.3,0.1,0.5,0.3,0.8,0.3c0.1,0.1,0.3,0.2,0.3,0.2c0.1,0.1,0.2,0.2,0.3,0.3c0.2,0.2,0.3,0.3,0.4,0.5
									c0.1,0.1,0.1,0.2,0.1,0.3c0,0.1,0,0.1-0.1,0.2c0,0.1-0.1,0.1-0.1,0.2c-0.2,0.1-0.3,0.2-0.5,0.2c-0.2,0-0.3,0.1-0.5,0.1
									c-0.3,0-0.7,0-1-0.1c-0.7-0.1-1.3-0.3-1.8-0.5c-0.1,0-0.1-0.1,0-0.2c0.1-0.1,0.2-0.1,0.3,0l0,0l0,0c0.5,0.3,1,0.5,1.5,0.9
									c0.2,0.2,0.3,0.3,0.4,0.5c0.1,0.1,0.1,0.2,0.1,0.3v0.1c0,0,0,0.1-0.1,0.1c-0.1,0.1-0.1,0.1-0.2,0.2l0,0l0,0l0,0l0,0l0,0l0,0
									h-0.1c0,0-0.1,0-0.2,0.1c-0.1,0-0.2,0.1-0.3,0.1c-0.2,0-0.4,0.1-0.6,0.1c-0.3,0-0.7-0.1-1-0.1c-0.7-0.1-1.3-0.3-1.8-0.5
									c-0.1-0.1-0.1-0.2,0-0.2c0.1-0.1,0.3-0.1,0.3,0l0,0c0.5,0.3,1,0.5,1.4,0.9c0.2,0.2,0.3,0.3,0.4,0.5c0.1,0.1,0.1,0.2,0.1,0.3
									c0,0.1-0.1,0.3-0.3,0.3s-0.3,0.2-0.5,0.2s-0.4,0.1-0.6,0.1c-0.3,0-0.7-0.1-1-0.1c-0.7-0.1-1.2-0.3-1.8-0.5l0,0
									c-0.1,0-0.1-0.1,0-0.2c0.1-0.1,0.2-0.1,0.3,0l0,0c0.5,0.3,1,0.5,1.4,0.9c0.2,0.2,0.3,0.3,0.4,0.5c0.1,0.1,0.1,0.2,0.1,0.3
									c0,0.1-0.1,0.3-0.2,0.3c-0.2,0.1-0.3,0.2-0.5,0.2s-0.3,0.1-0.5,0c-0.3,0-0.7-0.1-1-0.1c-0.2,0-0.3-0.1-0.4-0.1
									c-0.2,0-0.3-0.1-0.4-0.2c-0.2-0.1-0.3-0.1-0.4-0.2c-0.2-0.1-0.3-0.1-0.4-0.2c0,0,0,0,0-0.1
									C-805.2,581.1-805.2,581.1-805.1,581.1"/>
							</g>
						</g>
						<g>
							<g>
								<path class="st3" d="M-800.4,581.6c0.3,0.1,0.5,0.3,0.8,0.3c0.1,0.1,0.3,0.1,0.4,0.2c0.2,0.1,0.3,0.1,0.4,0.2
									c0.3,0.1,0.6,0.2,0.9,0.2c0.2,0,0.3,0,0.4,0c0.2,0,0.3,0,0.4-0.1c0.1,0,0.2-0.1,0.3-0.1l0,0l0,0l0,0l0,0l0,0l0,0l0,0l0,0
									l0,0l0,0l0,0c0,0,0,0,0-0.1s0-0.2-0.1-0.3c-0.1-0.1-0.1-0.2-0.2-0.3c-0.2-0.2-0.3-0.3-0.5-0.4c-0.1-0.1-0.2-0.1-0.3-0.2
									c-0.1-0.1-0.3-0.1-0.3-0.2l0.3-0.3c0.4,0.2,0.9,0.3,1.4,0.4c0.3,0.1,0.5,0.1,0.8,0.1c0.1,0,0.3,0,0.3,0s0.2-0.1,0.3-0.1
									c0.1-0.1,0.1-0.1,0.1-0.2c0-0.1,0-0.2-0.1-0.2c-0.1-0.2-0.2-0.3-0.3-0.4c-0.3-0.3-0.7-0.4-1.1-0.7l0.3-0.2
									c0.4,0.2,0.9,0.3,1.4,0.4c0.3,0.1,0.5,0.1,0.8,0.1c0.1,0,0.3,0,0.3,0s0.3-0.1,0.3-0.1l0.1-0.1v-0.1c0-0.1,0-0.2-0.1-0.3
									c-0.1-0.2-0.2-0.3-0.3-0.4c-0.3-0.3-0.7-0.5-1.1-0.7c0,0,0,0,0-0.1h0.1c0.4,0.2,0.9,0.4,1.2,0.7c0.2,0.2,0.3,0.3,0.4,0.4
									c0.1,0.1,0.1,0.2,0.1,0.3s0,0.1,0,0.2s-0.1,0.1-0.1,0.1c-0.1,0.1-0.3,0.2-0.4,0.2c-0.2,0-0.3,0-0.4,0c-0.3,0-0.6,0-0.9-0.1
									c-0.5-0.1-1-0.3-1.5-0.4c-0.1,0-0.1-0.1,0-0.2c0.1-0.1,0.2-0.1,0.3,0l0,0l0,0c0.4,0.2,0.9,0.4,1.2,0.7
									c0.2,0.2,0.3,0.3,0.4,0.4c0.1,0.1,0.1,0.2,0.1,0.3s-0.1,0.3-0.2,0.3s-0.3,0.2-0.4,0.2c-0.2,0-0.3,0-0.5,0
									c-0.3,0-0.6,0-0.9-0.1c-0.5-0.1-1-0.3-1.5-0.4c-0.1-0.1-0.1-0.2-0.1-0.2c0.1-0.1,0.3-0.1,0.3,0l0,0c0.2,0.1,0.3,0.1,0.3,0.2
									s0.3,0.1,0.3,0.2c0.3,0.2,0.4,0.3,0.6,0.4c0.1,0.1,0.2,0.2,0.3,0.3c0.1,0.1,0.1,0.2,0.1,0.3v0.1v0.1v0.1l0,0l0,0l0,0l0,0
									l0,0l0,0l0,0l0,0c-0.2,0.1-0.3,0.2-0.6,0.2c-0.2,0-0.3,0-0.5,0s-0.3-0.1-0.5-0.1c-0.3-0.1-0.6-0.2-0.9-0.3
									c-0.2-0.1-0.3-0.1-0.4-0.2c-0.2-0.1-0.3-0.1-0.3-0.2C-799.9,581.9-800.1,581.7-800.4,581.6
									C-800.4,581.6-800.4,581.6-800.4,581.6C-800.4,581.6-800.4,581.6-800.4,581.6L-800.4,581.6"/>
							</g>
						</g>
						<g>
							<g>
								<path class="st3" d="M-800.5,572.5c-0.1,0-0.2,0.1-0.3,0.1c-0.2,0-0.3-0.1-0.2-0.2c0.3-0.9-0.2-1.6-1.4-2.1
									c-1-0.4-2.4-0.5-3.7-0.3c-0.2,0-0.3,0-0.3-0.1s0-0.2,0.2-0.2c1.5-0.3,3-0.2,4.2,0.3C-800.7,570.5-800.1,571.5-800.5,572.5
									C-800.4,572.5-800.4,572.5-800.5,572.5"/>
							</g>
						</g>
					</g>
				</g>
			</g>
		</g>
	</g>
	<g>
		<g class="st0">
		</g>
		<g>
			<g>
				<g>
					<path class="st6" d="M-717,548.5c-1.9,0-3.7-0.2-5-0.9l-3.8-2c-0.7-0.3-1-0.9-1-1.4l-0.1-6.3c-0.3-0.3-0.6-0.4-0.9-0.6
						c-1.6-0.9-3.7-1.3-5.9-1.3c-1.9,0-3.7,0.3-5.2,0.9c0,0,0,0-0.1,0c-0.5,0.2-1.1,0.3-1.7,0.3c-0.7,0-1.4-0.2-2-0.4
						c-0.1,0-0.1-0.1-0.1-0.1l-3.8-2c-1.5-0.8-2.4-2-2.5-3.2v-0.1v-7.2v-0.1c0.1-1.1,0.9-2.2,2.2-3.1l26.3-16.2
						c0.1-0.1,0.3-0.2,0.4-0.3c4.9-2.8,11.4-4.4,18.2-4.4c6.1,0,12,1.3,16.3,3.6c5.2,2.7,7.9,6.8,7.9,10.9v6.3c0,0-0.2,0.1-0.2,0.2
						c-0.1,3.6-2.4,6.9-6.4,9.7c0,0-0.1,0.1-0.2,0.1c-0.1,0.1-0.2,0.1-0.3,0.2l-26.3,16C-712.6,548.2-714.8,548.5-717,548.5
						L-717,548.5z"/>
					<g>
						<path class="st7" d="M-701.9,500.7c5.8,0,11.5,1.2,15.9,3.5c5.3,2.8,8.3,6.7,7.4,10.6v5.5h0.2c-0.1,4.3-2.1,7.1-6.2,9.8
							c-0.1,0.1-0.3,0.4-0.3,0.5l-26.3,16.4c-1.5,0.9-3.7,1.5-5.7,1.5c-1.8,0-3.5-0.3-4.9-1l-3.8-2.1c-0.6-0.3-0.9-0.7-0.9-1.1
							l-0.1-6.5c-0.3-0.3-0.7-0.5-1.1-0.7c-1.7-0.9-3.8-1.4-6-1.4c-1.9,0-3.7,0.3-5.3,0.9l0,0c-0.5,0.2-1,0.3-1.6,0.3
							c-0.7,0-1.3-0.6-1.8-0.8v-0.5l0,0l-3.8-1.6c-1.5-0.8-2.2-1.6-2.3-2.7v-0.3v-7.4l0,0c0.1-0.9,0.8-1.7,2.1-2.6l26.3-16.2
							c0.1-0.1,0.3-0.1,0.3-0.2C-715,502.1-708.4,500.7-701.9,500.7 M-701.9,500.1c-6.9,0-13.4,1.5-18.4,4.4
							c-0.2,0.1-0.3,0.2-0.4,0.3l-26.3,16.3c-1.5,0.9-2.2,2.1-2.4,3.2c0,0.1,0,0.1,0,0.2v7.2c0,0.1,0,0.1,0,0.2
							c0.1,1.4,1,2.6,2.7,3.4l3.8,2c0,0,0.1,0.1,0.2,0.1c0.6,0.3,1.4,0.4,2.1,0.4c0.7,0,1.3-0.1,1.9-0.3h0.1c1.5-0.6,3.2-0.9,5-0.9
							c2.1,0,4.2,0.4,5.7,1.3c0.3,0.2,0.5,0.3,0.8,0.4l0.1,6.2c0,0.7,0.4,1.4,1.2,1.7l3.8,2.1c1.4,0.8,3.2,1.1,5.2,1.1
							c2.3,0,4.4-0.6,6.1-1.5l26.3-16.3c0.1-0.1,0.2-0.2,0.3-0.2l0.1-0.1c4.2-2.8,6.4-6.2,6.5-9.9c0-0.1,0-0.2,0-0.2v-6.2
							c0.9-4.4-2.6-8.4-7.9-11.2C-690,501.3-695.9,500.1-701.9,500.1L-701.9,500.1z"/>
					</g>
				</g>
				<g>
					<path class="st8" d="M-678.6,513.5h-1.7v2.8c-0.9-1.9-3.1-3.6-5.8-5c-9.6-5-24.5-4.6-34,0.9c-0.1,0.1-0.2,0.2-0.3,0.2
						l-25.2,15.2l-0.5-3.8h-2.7v7.5v0.2c0,1.1,0.8,1.8,2.3,2.6l3.8,1.7l0,0v0.5c0.9,0.5,2.4,0.7,3.4,0.3v0.1
						c3.5-1.4,8.2-1.2,11.3,0.4c0.4,0.3,0.8,0.5,1.1,0.8l0.1,6.6c0,0.4,0.3,0.9,0.9,1.2l3.8,2.1c3,1.5,7.7,1.4,10.6-0.3l26.3-16.2
						c0.1-0.1,0.3-0.7,0.3-0.7c4.1-2.7,6.2-5.6,6.2-9.8l0,0V513.5z"/>
					<g>
						<g>
							<g>
								<g>
									<path class="st6" d="M-726.1,536.6c-0.7,0.7-0.5,1.5,0.4,2l3.8,2.1c3,1.5,7.7,1.4,10.6-0.3l26.3-16.2
										c0.1-0.1,0.3-0.2,0.3-0.3c8.7-5.8,8.2-14.5-1.4-19.4c-9.6-5-24.6-4.6-34,0.9c-0.1,0.1-0.3,0.2-0.3,0.2l-26.3,16.2
										c-2.8,1.8-2.7,4.4,0.2,6.1l3.8,2.1l0,0l0,0c0.9,0.5,2.4,0.5,3.4,0.1l0,0c3.5-1.4,8.2-1.3,11.3,0.4
										C-724.7,531.8-724.1,534.4-726.1,536.6z"/>
								</g>
							</g>
						</g>
					</g>
				</g>
			</g>
			<g>
				<polygon class="st7" points="-723,519.4 -722.5,519.1 -721.3,519.7 -721.7,520 				"/>
				<polygon class="st7" points="-721.7,520 -721.3,519.7 -719.6,520.7 -720.1,520.9 				"/>
				<polygon class="st7" points="-719.6,521.1 -719.2,520.8 -718.3,521.3 -718.8,521.5 				"/>
				<polygon class="st7" points="-716.7,522.6 -716.3,522.4 -715.9,522.6 -716.3,522.9 				"/>
				<polygon class="st7" points="-714.6,523.7 -714.2,523.5 -713.4,523.9 -713.8,524.2 				"/>
				<polygon class="st7" points="-713.8,524.2 -713.4,523.9 -712.1,524.6 -712.5,524.9 				"/>
				<polygon class="st7" points="-712.1,525 -711.7,524.8 -709.6,525.9 -710,526.1 				"/>
				<polygon class="st7" points="-710,526.1 -709.6,525.9 -708.8,526.3 -709.2,526.6 				"/>
				<polygon class="st7" points="-722.5,519.1 -722.2,518.9 -721.8,519 -722.1,519.3 				"/>
				<polygon class="st7" points="-720.1,520.4 -719.6,520.2 -719.2,520.4 -719.6,520.7 				"/>
				<polygon class="st7" points="-718.8,521.1 -718.4,520.8 -717.1,521.5 -717.6,521.8 				"/>
				<polygon class="st7" points="-716.7,522.2 -716.3,522 -715.9,522.1 -716.3,522.4 				"/>
				<polygon class="st7" points="-715.4,522.8 -715.1,522.5 -714.7,522.8 -715,523.1 				"/>
				<polygon class="st7" points="-714.2,523.5 -713.8,523.2 -713,523.7 -713.4,523.9 				"/>
				<polygon class="st7" points="-711.7,524.8 -711.3,524.6 -710.9,524.8 -711.2,525 				"/>
				<polygon class="st7" points="-709.2,526.1 -708.8,525.9 -708.3,526.1 -708.8,526.3 				"/>
				<polygon class="st7" points="-722.2,518.9 -721.8,518.6 -721.3,518.8 -721.8,519 				"/>
				<polygon class="st7" points="-721.3,519.3 -720.9,519 -720.5,519.3 -720.9,519.5 				"/>
				<polygon class="st7" points="-720.9,519.5 -720.5,519.3 -719.6,519.7 -720.1,520 				"/>
				<polygon class="st7" points="-719.6,520.2 -719.3,519.9 -718.9,520.2 -719.2,520.4 				"/>
				<polygon class="st7" points="-718.9,520.6 -718.4,520.3 -718,520.6 -718.4,520.8 				"/>
				<polygon class="st7" points="-717.1,521.5 -716.7,521.3 -716.3,521.4 -716.7,521.7 				"/>
				<polygon class="st7" points="-715.9,522.1 -715.5,521.9 -715.1,522.1 -715.4,522.4 				"/>
				<polygon class="st7" points="-714.7,522.8 -714.2,522.5 -713,523.2 -713.4,523.5 				"/>
				<polygon class="st7" points="-713,523.7 -712.5,523.4 -711.8,523.9 -712.1,524.1 				"/>
				<polygon class="st7" points="-711.3,524.6 -710.9,524.3 -710.5,524.5 -710.9,524.8 				"/>
				<polygon class="st7" points="-710.5,525 -710,524.8 -708.9,525.4 -709.2,525.6 				"/>
				<polygon class="st7" points="-708.8,525.9 -708.4,525.6 -708,525.9 -708.3,526.1 				"/>
				<polygon class="st7" points="-721.8,518.6 -721.3,518.4 -720.9,518.6 -721.3,518.8 				"/>
				<polygon class="st7" points="-720.9,519 -720.5,518.8 -720.1,519 -720.5,519.3 				"/>
				<polygon class="st7" points="-720.5,519.3 -720.1,519 -719.3,519.5 -719.6,519.7 				"/>
				<polygon class="st7" points="-719.3,519.9 -718.9,519.6 -718.4,519.9 -718.9,520.2 				"/>
				<polygon class="st7" points="-718.4,520.3 -718,520.2 -717.6,520.3 -718,520.6 				"/>
				<polygon class="st7" points="-717.6,520.8 -717.1,520.6 -716.4,521 -716.7,521.3 				"/>
				<polygon class="st7" points="-715.5,521.9 -715.1,521.6 -714.2,522.1 -714.7,522.4 				"/>
				<polygon class="st7" points="-714.2,522.5 -713.8,522.3 -713,522.7 -713.4,523 				"/>
				<polygon class="st7" points="-713,523.2 -712.6,523 -712.2,523.1 -712.5,523.4 				"/>
				<polygon class="st7" points="-712.2,523.7 -711.8,523.4 -711.3,523.7 -711.8,523.9 				"/>
				<polygon class="st7" points="-710.9,524.3 -710.5,524.1 -710,524.3 -710.5,524.5 				"/>
				<polygon class="st7" points="-710,524.8 -709.7,524.5 -708.4,525.2 -708.9,525.4 				"/>
				<polygon class="st7" points="-708.4,525.6 -708,525.4 -707.6,525.6 -708,525.9 				"/>
				<polygon class="st7" points="-721.3,518.4 -721,518.1 -720.6,518.4 -720.9,518.6 				"/>
				<polygon class="st7" points="-720.5,518.8 -720.1,518.5 -719.7,518.8 -720.1,519 				"/>
				<polygon class="st7" points="-720.1,519 -719.7,518.8 -718.9,519.2 -719.3,519.5 				"/>
				<polygon class="st7" points="-718.9,519.6 -718.4,519.4 -718,519.6 -718.4,519.9 				"/>
				<polygon class="st7" points="-718,520.2 -717.6,519.9 -716.4,520.5 -716.8,520.8 				"/>
				<polygon class="st7" points="-716.4,521 -716,520.8 -714.2,521.6 -714.7,521.9 				"/>
				<polygon class="st7" points="-713.8,522.3 -713.5,522 -712.2,522.7 -712.6,523 				"/>
				<polygon class="st7" points="-711.8,523.4 -711.3,523.1 -710.9,523.4 -711.3,523.7 				"/>
				<polygon class="st7" points="-710.5,524.1 -710.1,523.8 -709.7,524 -710,524.3 				"/>
				<polygon class="st7" points="-709.7,524.5 -709.3,524.3 -708,524.9 -708.4,525.2 				"/>
				<polygon class="st7" points="-708,525.4 -707.6,525.1 -707.1,525.4 -707.6,525.6 				"/>
				<polygon class="st7" points="-721,518.1 -720.6,517.8 -720.1,518.1 -720.6,518.4 				"/>
				<polygon class="st7" points="-718.4,519.4 -718.1,519.2 -717.7,519.4 -718,519.6 				"/>
				<polygon class="st7" points="-717.6,519.9 -717.2,519.6 -716.4,520.1 -716.8,520.3 				"/>
				<polygon class="st7" points="-716,520.8 -715.5,520.5 -714.7,520.9 -715.1,521.2 				"/>
				<polygon class="st7" points="-714.7,521.4 -714.3,521.2 -712.6,522 -713,522.3 				"/>
				<polygon class="st7" points="-712.2,522.7 -711.8,522.5 -711.3,522.7 -711.8,523 				"/>
				<polygon class="st7" points="-710.9,523.4 -710.6,523.1 -710.1,523.3 -710.5,523.6 				"/>
				<polygon class="st7" points="-710.1,523.8 -709.7,523.6 -709.3,523.8 -709.7,524 				"/>
				<polygon class="st7" points="-707.6,525.1 -707.2,524.9 -706.8,525.1 -707.1,525.4 				"/>
				<polygon class="st7" points="-720.6,517.8 -720.1,517.6 -718.9,518.3 -719.3,518.5 				"/>
				<polygon class="st7" points="-719.3,518.5 -718.9,518.3 -717.2,519.1 -717.7,519.4 				"/>
				<polygon class="st7" points="-717.2,519.6 -716.8,519.4 -716.4,519.6 -716.8,519.8 				"/>
				<polygon class="st7" points="-716.4,520.1 -716,519.8 -715.5,520.1 -716,520.2 				"/>
				<polygon class="st7" points="-715.5,520.5 -715.2,520.2 -714.8,520.5 -715.1,520.8 				"/>
				<polygon class="st7" points="-714.7,520.9 -714.3,520.7 -713.9,520.9 -714.3,521.2 				"/>
				<polygon class="st7" points="-713.9,521.4 -713.5,521.1 -713,521.4 -713.5,521.6 				"/>
				<polygon class="st7" points="-713,521.8 -712.6,521.6 -712.2,521.8 -712.6,522 				"/>
				<polygon class="st7" points="-712.2,522.3 -711.8,522 -711.4,522.2 -711.8,522.5 				"/>
				<polygon class="st7" points="-711.3,522.7 -711,522.5 -710.6,522.6 -711,522.9 				"/>
				<polygon class="st7" points="-710.6,523.1 -710.1,522.9 -709.7,523.1 -710.1,523.3 				"/>
				<polygon class="st7" points="-709.7,523.6 -709.3,523.3 -707.2,524.4 -707.6,524.7 				"/>
				<polygon class="st7" points="-707.6,524.7 -707.2,524.4 -706.4,524.9 -706.8,525.1 				"/>
				<polygon class="st7" points="-716,519.8 -715.6,519.6 -714.3,520.2 -714.8,520.5 				"/>
				<polygon class="st7" points="-714.3,520.7 -713.9,520.4 -712.6,521.1 -713,521.4 				"/>
				<polygon class="st7" points="-711.4,522.2 -711,522 -710.6,522.2 -711,522.5 				"/>
				<polygon class="st7" points="-718.9,517.8 -718.5,517.6 -718.1,517.8 -718.5,518 				"/>
				<polygon class="st7" points="-718.5,518 -718.1,517.8 -716,518.9 -716.4,519.1 				"/>
				<polygon class="st7" points="-716,519.3 -715.6,519.1 -714.3,519.7 -714.8,520 				"/>
				<polygon class="st7" points="-714.3,520.2 -713.9,520 -713.1,520.4 -713.5,520.7 				"/>
				<polygon class="st7" points="-713,520.8 -712.7,520.7 -711.8,521.1 -712.3,521.4 				"/>
				<polygon class="st7" points="-711.8,521.5 -711.4,521.3 -711,521.5 -711.4,521.8 				"/>
				<polygon class="st7" points="-710.1,522.4 -709.7,522.2 -709.4,522.4 -709.7,522.6 				"/>
				<polygon class="st7" points="-709.3,522.9 -708.9,522.6 -708.5,522.8 -708.9,523.1 				"/>
				<polygon class="st7" points="-708.5,523.3 -708.1,523.1 -706.4,523.9 -706.8,524.2 				"/>
				<polygon class="st7" points="-706.4,524.4 -706,524.2 -705.6,524.3 -705.9,524.6 				"/>
				<polygon class="st7" points="-719.4,517.1 -718.9,516.9 -718.1,517.3 -718.5,517.6 				"/>
				<polygon class="st7" points="-717.7,518 -717.3,517.8 -716.5,518.2 -716.8,518.4 				"/>
				<polygon class="st7" points="-716.5,518.6 -716,518.4 -715.6,518.6 -716,518.9 				"/>
				<polygon class="st7" points="-714.3,519.7 -713.9,519.5 -712.7,520.2 -713.1,520.4 				"/>
				<polygon class="st7" points="-712.3,520.8 -711.8,520.6 -711.4,520.8 -711.8,521.1 				"/>
				<polygon class="st7" points="-710.6,521.7 -710.2,521.4 -709.8,521.7 -710.1,522 				"/>
				<polygon class="st7" points="-710.1,522 -709.8,521.7 -708.9,522.1 -709.4,522.4 				"/>
				<polygon class="st7" points="-707.2,523.5 -706.8,523.2 -706,523.7 -706.4,523.9 				"/>
				<polygon class="st7" points="-706.4,523.9 -706,523.7 -705.2,524.1 -705.6,524.3 				"/>
				<polygon class="st7" points="-718.5,517.1 -718.1,516.8 -717.7,517.1 -718.1,517.3 				"/>
				<polygon class="st7" points="-716.5,518.2 -716,517.9 -715.6,518.2 -716,518.4 				"/>
				<polygon class="st7" points="-715.6,518.6 -715.2,518.4 -714,519 -714.3,519.3 				"/>
				<polygon class="st7" points="-712.7,520.2 -712.3,519.9 -710.6,520.8 -711,521 				"/>
				<polygon class="st7" points="-710.2,521.4 -709.8,521.3 -709.4,521.4 -709.8,521.7 				"/>
				<polygon class="st7" points="-709.8,521.7 -709.4,521.4 -708.9,521.7 -709.4,522 				"/>
				<polygon class="st7" points="-708.9,522.1 -708.5,521.9 -708.1,522.1 -708.5,522.4 				"/>
				<polygon class="st7" points="-708.1,522.5 -707.7,522.3 -706.5,523 -706.8,523.2 				"/>
				<polygon class="st7" points="-718.5,516.6 -718.2,516.4 -717.7,516.6 -718.1,516.8 				"/>
				<polygon class="st7" points="-717.7,517.1 -717.3,516.8 -716.9,517 -717.3,517.2 				"/>
				<polygon class="st7" points="-716.9,517.5 -716.5,517.2 -716,517.5 -716.5,517.8 				"/>
				<polygon class="st7" points="-715.6,518.2 -715.3,517.9 -714.8,518.1 -715.2,518.4 				"/>
				<polygon class="st7" points="-713.6,519.2 -713.1,519 -712.7,519.2 -713.1,519.5 				"/>
				<polygon class="st7" points="-712.7,519.7 -712.3,519.5 -711.1,520.1 -711.4,520.3 				"/>
				<polygon class="st7" points="-710.2,521 -709.8,520.8 -709.4,521 -709.8,521.3 				"/>
				<polygon class="st7" points="-708.5,521.9 -708.2,521.6 -707.3,522.1 -707.7,522.3 				"/>
				<polygon class="st7" points="-706.9,522.8 -706.5,522.5 -706,522.7 -706.5,523 				"/>
				<polygon class="st7" points="-706,523.2 -705.6,523 -705.2,523.1 -705.6,523.4 				"/>
				<polygon class="st7" points="-705.6,523.4 -705.2,523.1 -704.4,523.7 -704.7,523.8 				"/>
				<polygon class="st7" points="-715.6,517.7 -715.3,517.4 -714.4,517.8 -714.8,518.1 				"/>
				<polygon class="st7" points="-714.4,518.4 -714,518.1 -713.1,518.5 -713.6,518.8 				"/>
				<polygon class="st7" points="-713.1,519 -712.7,518.8 -711.9,519.2 -712.3,519.5 				"/>
				<polygon class="st7" points="-711.5,519.9 -711.1,519.6 -710.2,520.1 -710.6,520.3 				"/>
				<polygon class="st7" points="-710.2,520.6 -709.8,520.3 -709.4,520.5 -709.8,520.8 				"/>
				<polygon class="st7" points="-708.5,521.4 -708.2,521.2 -707.7,521.4 -708.2,521.6 				"/>
				<polygon class="st7" points="-707.3,522.1 -706.9,521.9 -705.3,522.7 -705.6,523 				"/>
				<polygon class="st7" points="-704.7,523.4 -704.4,523.1 -704,523.4 -704.4,523.7 				"/>
				<polygon class="st7" points="-716,517 -715.7,516.7 -714.8,517.2 -715.3,517.4 				"/>
				<polygon class="st7" points="-714.4,517.8 -714,517.7 -712.4,518.5 -712.7,518.8 				"/>
				<polygon class="st7" points="-711.5,519.4 -711.1,519.1 -710.6,519.4 -711.1,519.6 				"/>
				<polygon class="st7" points="-710.6,519.9 -710.2,519.6 -708.2,520.7 -708.6,520.9 				"/>
				<polygon class="st7" points="-708.2,521.2 -707.7,520.9 -706.5,521.6 -706.9,521.9 				"/>
				<polygon class="st7" points="-706,522.3 -705.7,522 -705.3,522.2 -705.6,522.5 				"/>
				<polygon class="st7" points="-705.3,522.7 -704.8,522.5 -704.4,522.7 -704.8,522.9 				"/>
				<polygon class="st7" points="-704.8,522.9 -704.4,522.7 -703.6,523.1 -704,523.4 				"/>
				<polygon class="st7" points="-716.5,516.3 -716.1,516 -715.7,516.3 -716.1,516.6 				"/>
				<polygon class="st7" points="-715.7,516.7 -715.3,516.5 -713.2,517.6 -713.6,517.8 				"/>
				<polygon class="st7" points="-713.1,518.1 -712.8,517.8 -712.4,518 -712.8,518.3 				"/>
				<polygon class="st7" points="-712.4,518.5 -711.9,518.3 -711.5,518.4 -711.9,518.7 				"/>
				<polygon class="st7" points="-711.5,519 -711.1,518.7 -710.6,519 -711.1,519.1 				"/>
				<polygon class="st7" points="-710.6,519.4 -710.2,519.1 -709.9,519.4 -710.2,519.6 				"/>
				<polygon class="st7" points="-709.8,519.8 -709.5,519.6 -708.6,520 -709,520.2 				"/>
				<polygon class="st7" points="-708.6,520.5 -708.2,520.2 -707.7,520.5 -708.2,520.7 				"/>
				<polygon class="st7" points="-708.2,520.7 -707.7,520.5 -706.5,521.1 -706.9,521.4 				"/>
				<polygon class="st7" points="-706,521.8 -705.7,521.5 -704.8,522 -705.3,522.2 				"/>
				<polygon class="st7" points="-704.4,522.7 -704,522.5 -703.6,522.6 -704,522.9 				"/>
				<polygon class="st7" points="-716.5,515.9 -716.1,515.6 -715.3,516 -715.7,516.3 				"/>
				<polygon class="st7" points="-715.7,516.3 -715.3,516 -714.5,516.5 -714.8,516.7 				"/>
				<polygon class="st7" points="-712.8,517.8 -712.4,517.6 -709.5,519.1 -709.9,519.4 				"/>
				<polygon class="st7" points="-709.5,519.6 -709,519.3 -708.6,519.6 -709,519.8 				"/>
				<polygon class="st7" points="-708.2,520.2 -707.7,520 -707.4,520.2 -707.7,520.5 				"/>
				<polygon class="st7" points="-706.1,521.4 -705.7,521.1 -705.3,521.3 -705.7,521.5 				"/>
				<polygon class="st7" points="-705.3,521.8 -704.8,521.5 -703.6,522.2 -704,522.5 				"/>
				<polygon class="st7" points="-704,522.5 -703.6,522.2 -702.8,522.6 -703.2,522.9 				"/>
				<polygon class="st7" points="-716.1,515.6 -715.7,515.4 -714.9,515.8 -715.3,516 				"/>
				<polygon class="st7" points="-714.8,516.2 -714.5,516 -714.1,516.2 -714.5,516.5 				"/>
				<polygon class="st7" points="-714.1,516.7 -713.6,516.5 -712.8,516.9 -713.2,517.2 				"/>
				<polygon class="st7" points="-712.8,517.3 -712.4,517.1 -711.9,517.3 -712.4,517.6 				"/>
				<polygon class="st7" points="-711.9,517.8 -711.6,517.5 -710.7,518 -711.1,518.3 				"/>
				<polygon class="st7" points="-710.7,518.4 -710.3,518.2 -709.9,518.4 -710.3,518.7 				"/>
				<polygon class="st7" points="-709.5,519.1 -709,518.9 -707.8,519.6 -708.2,519.8 				"/>
				<polygon class="st7" points="-707.7,520 -707.4,519.7 -707,520 -707.4,520.2 				"/>
				<polygon class="st7" points="-707,520.4 -706.5,520.2 -706.1,520.4 -706.5,520.7 				"/>
				<polygon class="st7" points="-706.1,520.8 -705.7,520.6 -705.3,520.8 -705.7,521.1 				"/>
				<polygon class="st7" points="-705.7,521.1 -705.3,520.8 -704.8,521.1 -705.3,521.3 				"/>
				<polygon class="st7" points="-704.8,521.5 -704.5,521.3 -704.1,521.5 -704.4,521.8 				"/>
				<polygon class="st7" points="-704,522 -703.6,521.7 -703.2,522 -703.6,522.2 				"/>
				<polygon class="st7" points="-714.5,516 -714.1,515.8 -713.2,516.2 -713.6,516.5 				"/>
				<polygon class="st7" points="-712.8,516.9 -712.4,516.6 -710.7,517.5 -711.2,517.8 				"/>
				<polygon class="st7" points="-710.7,518 -710.3,517.8 -709.9,517.9 -710.3,518.2 				"/>
				<polygon class="st7" points="-709.5,518.6 -709,518.4 -708.7,518.6 -709,518.9 				"/>
				<polygon class="st7" points="-706.1,520.4 -705.7,520.2 -704.9,520.6 -705.3,520.8 				"/>
				<polygon class="st7" points="-705.3,520.8 -704.9,520.6 -704.1,521 -704.5,521.3 				"/>
				<polygon class="st7" points="-703.6,521.7 -703.2,521.4 -702.8,521.7 -703.2,522 				"/>
				<polygon class="st7" points="-702.8,522.1 -702.4,522 -701.9,522.1 -702.4,522.4 				"/>
				<polygon class="st7" points="-715.8,514.9 -715.4,514.6 -714.5,515.1 -714.9,515.3 				"/>
				<polygon class="st7" points="-714.5,515.5 -714.1,515.3 -713.6,515.5 -714.1,515.8 				"/>
				<polygon class="st7" points="-713.6,516 -713.2,515.7 -712.4,516.1 -712.8,516.4 				"/>
				<polygon class="st7" points="-712,516.8 -711.6,516.6 -711.2,516.8 -711.6,517.1 				"/>
				<polygon class="st7" points="-711.2,517.3 -710.7,517.1 -710.3,517.2 -710.7,517.5 				"/>
				<polygon class="st7" points="-710.3,517.8 -709.9,517.5 -709.1,517.9 -709.5,518.2 				"/>
				<polygon class="st7" points="-708.7,518.6 -708.3,518.4 -707.4,518.8 -707.8,519 				"/>
				<polygon class="st7" points="-707.4,519.3 -707,519 -706.5,519.2 -707,519.5 				"/>
				<polygon class="st7" points="-706.1,519.9 -705.8,519.7 -705.3,519.9 -705.7,520.2 				"/>
				<polygon class="st7" points="-704.5,520.8 -704.1,520.6 -703.6,520.8 -704.1,521 				"/>
				<polygon class="st7" points="-703.6,521.3 -703.2,521 -702.4,521.4 -702.8,521.7 				"/>
				<polygon class="st7" points="-715.4,514.6 -714.9,514.4 -714.5,514.6 -714.9,514.9 				"/>
				<polygon class="st7" points="-714.5,515.1 -714.1,514.9 -713.7,515 -714.1,515.3 				"/>
				<polygon class="st7" points="-714.1,515.3 -713.7,515 -713.3,515.3 -713.6,515.5 				"/>
				<polygon class="st7" points="-713.2,515.7 -712.9,515.5 -712.4,515.7 -712.9,516 				"/>
				<polygon class="st7" points="-712.4,516.1 -712,516 -710.7,516.6 -711.2,516.8 				"/>
				<polygon class="st7" points="-708.3,518.4 -707.8,518.1 -707.4,518.4 -707.8,518.6 				"/>
				<polygon class="st7" points="-706.1,519.5 -705.8,519.2 -704.1,520.1 -704.5,520.3 				"/>
				<polygon class="st7" points="-704.1,520.6 -703.6,520.3 -702.9,520.8 -703.2,521 				"/>
				<polygon class="st7" points="-714.9,514.4 -714.5,514.2 -713.3,514.8 -713.7,515 				"/>
				<polygon class="st7" points="-713.3,515.3 -712.9,515 -712.4,515.2 -712.9,515.5 				"/>
				<polygon class="st7" points="-712.4,515.7 -712,515.5 -711.2,515.9 -711.6,516.1 				"/>
				<polygon class="st7" points="-710.7,516.6 -710.4,516.3 -709.1,517 -709.5,517.2 				"/>
				<polygon class="st7" points="-709.1,517.4 -708.7,517.2 -708.3,517.4 -708.7,517.7 				"/>
				<polygon class="st7" points="-708.3,517.9 -707.8,517.7 -706.2,518.5 -706.6,518.8 				"/>
				<polygon class="st7" points="-706.2,519 -705.8,518.8 -705.3,519 -705.8,519.2 				"/>
				<polygon class="st7" points="-705.3,519.5 -704.9,519.2 -704.5,519.4 -704.9,519.6 				"/>
				<polygon class="st7" points="-704.5,519.9 -704.1,519.6 -703.7,519.8 -704.1,520.1 				"/>
				<polygon class="st7" points="-703.6,520.3 -703.3,520.1 -702.4,520.5 -702.9,520.8 				"/>
				<polygon class="st7" points="-702.4,521 -702,520.8 -701.6,520.9 -702,521.2 				"/>
				<polygon class="st7" points="-714.5,514.2 -714.2,513.9 -712.9,514.5 -713.3,514.8 				"/>
				<polygon class="st7" points="-713.3,514.8 -712.9,514.5 -712,515 -712.4,515.2 				"/>
				<polygon class="st7" points="-711.6,515.7 -711.2,515.5 -710.8,515.6 -711.2,515.9 				"/>
				<polygon class="st7" points="-709.5,516.7 -709.1,516.6 -708.3,517 -708.7,517.2 				"/>
				<polygon class="st7" points="-708.3,517.4 -707.9,517.2 -707.5,517.4 -707.8,517.7 				"/>
				<polygon class="st7" points="-707.4,517.8 -707.1,517.6 -705.3,518.5 -705.8,518.8 				"/>
				<polygon class="st7" points="-705.3,519 -704.9,518.7 -704.1,519.1 -704.5,519.4 				"/>
				<polygon class="st7" points="-702.9,520.3 -702.4,520.1 -701.2,520.7 -701.6,520.9 				"/>
				<polygon class="st7" points="-701.6,520.9 -701.2,520.7 -700.8,520.9 -701.2,521.2 				"/>
				<polygon class="st7" points="-714.2,513.9 -713.7,513.7 -713.3,513.8 -713.7,514.1 				"/>
				<polygon class="st7" points="-713.3,514.3 -712.9,514.1 -712.4,514.3 -712.9,514.5 				"/>
				<polygon class="st7" points="-712.4,514.8 -712.1,514.5 -711.7,514.8 -712,515 				"/>
				<polygon class="st7" points="-711.6,515.2 -711.2,514.9 -710.8,515.2 -711.2,515.5 				"/>
				<polygon class="st7" points="-710.8,515.6 -710.4,515.4 -710,515.6 -710.4,515.9 				"/>
				<polygon class="st7" points="-710,516 -709.5,515.9 -709.1,516 -709.5,516.3 				"/>
				<polygon class="st7" points="-709.1,516.6 -708.7,516.3 -708.3,516.5 -708.7,516.7 				"/>
				<polygon class="st7" points="-707.9,517.2 -707.5,516.9 -706.6,517.3 -707.1,517.6 				"/>
				<polygon class="st7" points="-706.2,518.1 -705.8,517.8 -705.3,518 -705.8,518.3 				"/>
				<polygon class="st7" points="-705.3,518.5 -705,518.3 -704.6,518.4 -704.9,518.7 				"/>
				<polygon class="st7" points="-704.5,519 -704.1,518.7 -703.3,519.1 -703.7,519.4 				"/>
				<polygon class="st7" points="-703.3,519.6 -702.9,519.4 -702.4,519.6 -702.9,519.8 				"/>
				<polygon class="st7" points="-702.4,520.1 -702,519.8 -701.6,520 -702,520.2 				"/>
				<polygon class="st7" points="-701.2,520.7 -700.8,520.4 -700.4,520.7 -700.8,520.9 				"/>
				<polygon class="st7" points="-713.7,513.7 -713.3,513.4 -713,513.7 -713.3,513.8 				"/>
				<polygon class="st7" points="-711.7,514.8 -711.2,514.5 -710.8,514.7 -711.2,514.9 				"/>
				<polygon class="st7" points="-710.8,515.2 -710.4,514.9 -709.2,515.6 -709.5,515.9 				"/>
				<polygon class="st7" points="-709.1,516 -708.8,515.8 -708.3,516 -708.7,516.3 				"/>
				<polygon class="st7" points="-707.1,517.2 -706.6,516.9 -705.9,517.3 -706.2,517.6 				"/>
				<polygon class="st7" points="-705.8,517.8 -705.4,517.6 -704.1,518.2 -704.6,518.4 				"/>
				<polygon class="st7" points="-703.7,518.9 -703.3,518.7 -702.9,518.9 -703.3,519.1 				"/>
				<polygon class="st7" points="-702.9,519.4 -702.4,519.1 -701.7,519.6 -702,519.8 				"/>
				<polygon class="st7" points="-701.6,520 -701.2,519.7 -700.8,520 -701.2,520.2 				"/>
				<polygon class="st7" points="-700.4,520.7 -700,520.4 -699.5,520.7 -700,520.9 				"/>
				<polygon class="st7" points="-712.5,513.8 -712.1,513.6 -711.7,513.8 -712.1,514.1 				"/>
				<polygon class="st7" points="-712.1,514.1 -711.7,513.8 -711.2,514 -711.7,514.3 				"/>
				<polygon class="st7" points="-711.2,514.5 -710.8,514.3 -710,514.7 -710.4,514.9 				"/>
				<polygon class="st7" points="-710,515.1 -709.6,514.9 -709.2,515.1 -709.5,515.4 				"/>
				<polygon class="st7" points="-708.3,516 -707.9,515.8 -706.6,516.5 -707.1,516.6 				"/>
				<polygon class="st7" points="-706.6,516.9 -706.3,516.6 -705.9,516.9 -706.2,517.2 				"/>
				<polygon class="st7" points="-705,517.8 -704.6,517.5 -704.1,517.8 -704.6,518 				"/>
				<polygon class="st7" points="-703.3,518.7 -703,518.4 -702.1,518.9 -702.4,519.1 				"/>
				<polygon class="st7" points="-702.4,519.1 -702.1,518.9 -700.8,519.6 -701.2,519.7 				"/>
				<polygon class="st7" points="-700.8,520 -700.4,519.7 -700,520 -700.4,520.2 				"/>
				<polygon class="st7" points="-700,520.4 -699.5,520.2 -699.2,520.4 -699.5,520.7 				"/>
				<polygon class="st7" points="-709.2,515.1 -708.8,514.9 -707.9,515.3 -708.3,515.5 				"/>
				<polygon class="st7" points="-707.9,515.8 -707.5,515.5 -707.1,515.8 -707.5,516 				"/>
				<polygon class="st7" points="-706.3,516.6 -705.9,516.4 -705.4,516.6 -705.9,516.9 				"/>
				<polygon class="st7" points="-704.6,517.5 -704.1,517.2 -703.4,517.8 -703.7,518 				"/>
				<polygon class="st7" points="-703.3,518.2 -703,517.9 -702.1,518.4 -702.5,518.6 				"/>
				<polygon class="st7" points="-701.2,519.3 -700.8,519 -700,519.5 -700.4,519.7 				"/>
				<polygon class="st7" points="-700,520 -699.6,519.7 -699.2,519.9 -699.5,520.2 				"/>
				<polygon class="st7" points="-712.5,512.9 -712.1,512.6 -710.9,513.3 -711.2,513.6 				"/>
				<polygon class="st7" points="-711.2,513.6 -710.9,513.3 -709.2,514.2 -709.6,514.4 				"/>
				<polygon class="st7" points="-709.2,514.7 -708.8,514.4 -707.1,515.3 -707.5,515.5 				"/>
				<polygon class="st7" points="-707.1,515.8 -706.7,515.5 -706.3,515.7 -706.7,516 				"/>
				<polygon class="st7" points="-705.4,516.6 -705,516.4 -704.2,516.8 -704.6,517.1 				"/>
				<polygon class="st7" points="-703.7,517.5 -703.4,517.2 -703,517.5 -703.4,517.8 				"/>
				<polygon class="st7" points="-702.5,518.2 -702.1,517.9 -701.7,518.1 -702.1,518.4 				"/>
				<polygon class="st7" points="-701.7,518.6 -701.2,518.4 -700.8,518.6 -701.2,518.8 				"/>
				<polygon class="st7" points="-700.8,519 -700.5,518.8 -700,519 -700.4,519.3 				"/>
				<polygon class="st7" points="-700,519.5 -699.6,519.2 -699.2,519.5 -699.6,519.7 				"/>
				<polygon class="st7" points="-712.1,512.6 -711.8,512.4 -711.3,512.6 -711.7,512.9 				"/>
				<polygon class="st7" points="-709.6,514 -709.2,513.7 -708.8,513.9 -709.2,514.2 				"/>
				<polygon class="st7" points="-708.8,514.4 -708.4,514.2 -708,514.3 -708.3,514.6 				"/>
				<polygon class="st7" points="-707.1,515.3 -706.7,515 -704.2,516.4 -704.6,516.6 				"/>
				<polygon class="st7" points="-703.4,517.2 -703,517 -702.5,517.2 -703,517.5 				"/>
				<polygon class="st7" points="-702.1,517.9 -701.7,517.7 -701.3,517.9 -701.7,518.1 				"/>
				<polygon class="st7" points="-700.5,518.8 -700,518.5 -698.8,519.2 -699.2,519.5 				"/>
				<polygon class="st7" points="-699.2,519.5 -698.8,519.2 -698,519.6 -698.3,519.9 				"/>
				<polygon class="st7" points="-711.8,512.4 -711.3,512.1 -710.9,512.4 -711.3,512.6 				"/>
				<polygon class="st7" points="-710.9,512.8 -710.5,512.6 -710,512.8 -710.5,513.1 				"/>
				<polygon class="st7" points="-710.5,513.1 -710,512.8 -709.3,513.2 -709.6,513.5 				"/>
				<polygon class="st7" points="-709.2,513.7 -708.9,513.5 -708.4,513.7 -708.8,513.9 				"/>
				<polygon class="st7" points="-708.4,514.2 -708,513.9 -707.6,514.2 -708,514.3 				"/>
				<polygon class="st7" points="-707.6,514.6 -707.1,514.3 -705.9,515 -706.3,515.3 				"/>
				<polygon class="st7" points="-705.9,515.5 -705.5,515.2 -705.1,515.5 -705.4,515.7 				"/>
				<polygon class="st7" points="-705.1,515.9 -704.7,515.7 -704.2,515.9 -704.7,516.1 				"/>
				<polygon class="st7" points="-704.2,516.4 -703.8,516.1 -702.5,516.7 -703,517 				"/>
				<polygon class="st7" points="-701.7,517.7 -701.3,517.4 -700.5,517.8 -700.9,518.1 				"/>
				<polygon class="st7" points="-700.9,518.1 -700.5,517.8 -698.8,518.7 -699.2,519 				"/>
				<polygon class="st7" points="-698.8,519.2 -698.4,519 -697.6,519.4 -698,519.6 				"/>
				<polygon class="st7" points="-711.3,512.1 -710.9,511.9 -710.5,512.1 -710.9,512.4 				"/>
				<polygon class="st7" points="-710.5,512.6 -710,512.4 -709.7,512.5 -710,512.8 				"/>
				<polygon class="st7" points="-710,512.8 -709.7,512.5 -708.9,513 -709.3,513.2 				"/>
				<polygon class="st7" points="-708.9,513.5 -708.4,513.2 -708,513.4 -708.4,513.7 				"/>
				<polygon class="st7" points="-708,513.9 -707.6,513.7 -706.7,514.1 -707.1,514.3 				"/>
				<polygon class="st7" points="-706.7,514.6 -706.4,514.3 -704.2,515.5 -704.7,515.7 				"/>
				<polygon class="st7" points="-704.2,515.9 -703.8,515.6 -703.4,515.9 -703.8,516.1 				"/>
				<polygon class="st7" points="-703.4,516.3 -703,516 -702.2,516.5 -702.5,516.7 				"/>
				<polygon class="st7" points="-702.2,517 -701.8,516.7 -700.9,517.2 -701.3,517.4 				"/>
				<polygon class="st7" points="-699.6,518.3 -699.3,518 -698,518.7 -698.4,519 				"/>
				<polygon class="st7" points="-698.4,519 -698,518.7 -697.6,519 -698,519.2 				"/>
				<polygon class="st7" points="-710.9,511.9 -710.6,511.7 -710.1,511.9 -710.5,512.1 				"/>
				<polygon class="st7" points="-710,512.4 -709.7,512.1 -709.3,512.3 -709.7,512.5 				"/>
				<polygon class="st7" points="-709.7,512.5 -709.3,512.3 -708.4,512.7 -708.9,513 				"/>
				<polygon class="st7" points="-708.4,513.2 -708,513 -707.6,513.2 -708,513.4 				"/>
				<polygon class="st7" points="-707.6,513.7 -707.1,513.4 -705.5,514.3 -705.9,514.5 				"/>
				<polygon class="st7" points="-705.5,514.8 -705.1,514.5 -704.7,514.8 -705.1,514.9 				"/>
				<polygon class="st7" points="-704.7,515.2 -704.2,514.9 -703.8,515.2 -704.2,515.5 				"/>
				<polygon class="st7" points="-703.8,515.6 -703.5,515.4 -702.2,516 -702.6,516.3 				"/>
				<polygon class="st7" points="-702.2,516.5 -701.8,516.3 -701.3,516.5 -701.8,516.7 				"/>
				<polygon class="st7" points="-701.8,516.7 -701.3,516.5 -700.5,516.9 -700.9,517.2 				"/>
				<polygon class="st7" points="-700.5,517.4 -700,517.2 -699.7,517.3 -700,517.6 				"/>
				<polygon class="st7" points="-700,517.6 -699.7,517.3 -698.8,517.8 -699.3,518 				"/>
				<polygon class="st7" points="-698.4,518.5 -698,518.3 -697.6,518.4 -698,518.7 				"/>
				<polygon class="st7" points="-698,518.7 -697.6,518.4 -697.1,518.7 -697.6,519 				"/>
				<polygon class="st7" points="-710.6,511.7 -710.1,511.4 -709.7,511.6 -710.1,511.9 				"/>
				<polygon class="st7" points="-708,513 -707.7,512.7 -707.2,513 -707.6,513.2 				"/>
				<polygon class="st7" points="-706.4,513.8 -705.9,513.6 -705.5,513.8 -705.9,514.1 				"/>
				<polygon class="st7" points="-705.5,514.3 -705.1,514.1 -703.9,514.7 -704.2,514.9 				"/>
				<polygon class="st7" points="-703,515.6 -702.6,515.4 -702.2,515.6 -702.6,515.8 				"/>
				<polygon class="st7" points="-702.2,516 -701.8,515.8 -701.3,516 -701.8,516.3 				"/>
				<polygon class="st7" points="-701.3,516.5 -700.9,516.2 -700.1,516.6 -700.5,516.9 				"/>
				<polygon class="st7" points="-699.7,517.3 -699.3,517.1 -698,517.8 -698.4,518 				"/>
				<polygon class="st7" points="-697.1,518.7 -696.8,518.4 -696.4,518.6 -696.7,518.9 				"/>
				<polygon class="st7" points="-710.1,511.4 -709.7,511.2 -708.5,511.9 -708.9,512 				"/>
				<polygon class="st7" points="-708.9,512 -708.5,511.9 -706.8,512.7 -707.2,513 				"/>
				<polygon class="st7" points="-706.4,513.4 -705.9,513.1 -705.5,513.3 -705.9,513.6 				"/>
				<polygon class="st7" points="-704.7,514.3 -704.3,514 -703.9,514.3 -704.3,514.5 				"/>
				<polygon class="st7" points="-703.5,514.9 -703,514.7 -702.2,515.1 -702.6,515.4 				"/>
				<polygon class="st7" points="-702.2,515.6 -701.8,515.4 -700.6,516 -700.9,516.2 				"/>
				<polygon class="st7" points="-700.6,516.5 -700.1,516.2 -698.8,516.9 -699.3,517.1 				"/>
				<polygon class="st7" points="-698,517.8 -697.6,517.5 -697.2,517.8 -697.6,518 				"/>
			</g>
		</g>
	</g>
	<g>
		<g class="st0">
		</g>
		<g>
			<g>
				<g>
					<path class="st9" d="M-769,556.9c-2.7,0-5.1-0.5-7-1.5l-3.1-1.7l-2-1c-0.9-0.5-1.5-1.3-1.7-2.2c0-0.1,0-0.3,0-0.3s0-0.1,0-0.2
						v-6.8c0-0.2-0.1-0.3-0.1-0.4c0-0.2,0-0.4,0-0.7c-0.3-0.3-0.6-0.4-0.9-0.6c-2-1-4.6-1.6-7.4-1.6c-2.3,0-4.6,0.4-6.6,1.1
						c-0.9,0.3-1.8,0.5-2.7,0.5c-1,0-2-0.2-2.8-0.6l-5.3-2.8c-2.3-1.2-3.6-3-3.7-5c0-0.1,0-0.2,0-0.3c0-0.1,0-0.1,0-0.2v-6.9
						c0-0.1,0-0.2,0-0.3c-0.1-2,1.1-3.8,3.3-5.2l25.7-15.9c2.1-1.4,5.1-2.1,8.2-2.1c2.7,0,5.1,0.5,7,1.5l5.1,2.7
						c0.5,0.3,1.2,0.4,1.9,0.4c0.6,0,1.2-0.1,1.7-0.3h0.1c2.2-0.9,4.8-1.3,7.4-1.3c3.2,0,6.2,0.7,8.6,1.9c2.5,1.3,4,3.2,4.4,5.2
						c0.1,0.7,0.1,1.4-0.1,2.1v4.6l3.6,1.9c2.3,1.2,3.6,3,3.7,5c0,0.2,0,0.3,0,0.6c0,0.2,0,0.3,0,0.5v6.5c-0.1,2.1-1.2,3.8-3.3,5.2
						l-25.7,15.9C-762.9,556.2-765.9,556.9-769,556.9z"/>
					<path class="st10" d="M-775,502.7c2.6,0,5,0.5,6.9,1.5l3.2,1.6l2,1l0,0l0,0l0,0c0.5,0.3,1.2,0.4,2,0.4c0.7,0,1.3-0.1,1.8-0.3
						h0.1c2.2-0.9,4.8-1.3,7.4-1.3l0,0c3.2,0,6.2,0.7,8.4,1.9c2.4,1.3,3.8,3.1,4.2,5c0.1,0.7,0.1,1.3-0.1,2v4.9l1.5,0.8l2.2,1.2
						c2.2,1.2,3.4,2.8,3.5,4.7c0,0.4,0,0.8,0,1.1v6.5c-0.1,1.9-1,3.7-3.2,5l-10.2,6.3l-5.4,3.3l-10.1,6.2c-2.1,1.3-5,2.1-8,2.1
						c-2.6,0-5-0.5-6.8-1.5l-3.2-1.6l-2-1c-0.9-0.5-1.5-1.2-1.5-2.1c0-0.2,0-0.3,0-0.4v-6.8c0-0.2-0.1-0.3-0.1-0.4
						c0-0.3,0-0.5,0-0.8c-0.3-0.3-0.7-0.5-1.1-0.8c-2.1-1-4.7-1.6-7.5-1.6c-2.4,0-4.7,0.4-6.7,1.2c0,0,0,0-0.1,0
						c-0.8,0.3-1.6,0.4-2.6,0.4c-1,0-1.9-0.2-2.7-0.6l0,0l-0.2-0.1l0,0l-3-1.3l-2.2-1.2c-2.2-1.2-3.4-2.8-3.5-4.7c0-0.1,0-0.3,0-0.3
						V526c0-0.1,0-0.3,0-0.3c-0.1-1.9,1-3.6,3.2-5l10.2-6.3l5.4-3.3l10.2-6.3C-780.9,503.4-778,502.7-775,502.7 M-775,502.1
						c-3.1,0-6.2,0.8-8.4,2.1l-10.2,6.3l-5.4,3.3l-10.2,6.3c-2.3,1.5-3.5,3.3-3.4,5.5c0,0.1,0,0.3,0,0.3v6.9c0,0.1,0,0.1,0,0.2
						s0,0.2,0,0.3c0.1,2.1,1.5,3.9,3.8,5.2l2.2,1.2l2.8,1.5l0.2,0.1c0.1,0,0.1,0.1,0.2,0.1c0.9,0.3,1.8,0.6,2.8,0.6
						c0.9,0,1.9-0.2,2.7-0.5h0.1c2-0.8,4.2-1.1,6.5-1.1c2.8,0,5.4,0.5,7.3,1.5c0.3,0.2,0.5,0.3,0.8,0.5c0,0.2,0,0.3,0,0.5
						c0,0.2,0.1,0.3,0.1,0.4v6.8v0.1c0,0.1,0,0.3,0,0.3c0.2,1,0.8,1.9,1.8,2.5l2,1l3.2,1.6c2,1,4.5,1.6,7.2,1.6
						c3.1,0,6.2-0.8,8.4-2.1l10.2-6.3l5.4-3.3l10.2-6.3c2.2-1.4,3.4-3.2,3.4-5.4v-6.5c0,0,0,0,0-0.1c0-0.2,0-0.3,0-0.5s0-0.3,0-0.6
						c-0.1-2.1-1.5-3.9-3.8-5.2l-2.2-1.2l-1.2-0.6v-4.4c0.2-0.7,0.2-1.5,0.1-2.1c-0.3-2.1-2-4.1-4.5-5.5c-2.4-1.3-5.5-2-8.6-2
						c-2.7,0-5.3,0.4-7.6,1.4c-0.1,0-0.1,0-0.1,0.1c-0.4,0.2-1,0.3-1.6,0.3c-0.7,0-1.3-0.1-1.7-0.3l-0.3,0.5l0.3-0.5l-2-1l-3.2-1.6
						C-769.8,502.7-772.3,502.1-775,502.1L-775,502.1z"/>
				</g>
				<g class="st4">
					<path d="M-769,556.9c-2.7,0-5.1-0.5-7-1.5l-3.1-1.7l-2-1c-0.9-0.5-1.5-1.3-1.7-2.2c0-0.1,0-0.3,0-0.3s0-0.1,0-0.2v-6.8
						c0-0.2-0.1-0.3-0.1-0.4c0-0.2,0-0.4,0-0.7c-0.3-0.3-0.6-0.4-0.9-0.6c-2-1-4.6-1.6-7.4-1.6c-2.3,0-4.6,0.4-6.6,1.1
						c-0.9,0.3-1.8,0.5-2.7,0.5c-1,0-2-0.2-2.8-0.6l-5.3-2.8c-2.3-1.2-3.6-3-3.7-5c0-0.1,0-0.2,0-0.3c0-0.1,0-0.1,0-0.2v-6.9
						c0-0.1,0-0.2,0-0.3c-0.1-2,1.1-3.8,3.3-5.2l25.7-15.9c2.1-1.4,5.1-2.1,8.2-2.1c2.7,0,5.1,0.5,7,1.5l5.1,2.7
						c0.5,0.3,1.2,0.4,1.9,0.4c0.6,0,1.2-0.1,1.7-0.3h0.1c2.2-0.9,4.8-1.3,7.4-1.3c3.2,0,6.2,0.7,8.6,1.9c2.5,1.3,4,3.2,4.4,5.2
						c0.1,0.7,0.1,1.4-0.1,2.1v4.6l3.6,1.9c2.3,1.2,3.6,3,3.7,5c0,0.2,0,0.3,0,0.6c0,0.2,0,0.3,0,0.5v6.5c-0.1,2.1-1.2,3.8-3.3,5.2
						l-25.7,15.9C-762.9,556.2-765.9,556.9-769,556.9z"/>
					<path d="M-775,502.7c2.6,0,5,0.5,6.9,1.5l3.2,1.6l2,1l0,0l0,0l0,0c0.5,0.3,1.2,0.4,2,0.4c0.7,0,1.3-0.1,1.8-0.3h0.1
						c2.2-0.9,4.8-1.3,7.4-1.3l0,0c3.2,0,6.2,0.7,8.4,1.9c2.4,1.3,3.8,3.1,4.2,5c0.1,0.7,0.1,1.3-0.1,2v4.9l1.5,0.8l2.2,1.2
						c2.2,1.2,3.4,2.8,3.5,4.7c0,0.4,0,0.8,0,1.1v6.5c-0.1,1.9-1,3.7-3.2,5l-10.2,6.3l-5.4,3.3l-10.1,6.2c-2.1,1.3-5,2.1-8,2.1
						c-2.6,0-5-0.5-6.8-1.5l-3.2-1.6l-2-1c-0.9-0.5-1.5-1.2-1.5-2.1c0-0.2,0-0.3,0-0.4v-6.8c0-0.2-0.1-0.3-0.1-0.4
						c0-0.3,0-0.5,0-0.8c-0.3-0.3-0.7-0.5-1.1-0.8c-2.1-1-4.7-1.6-7.5-1.6c-2.4,0-4.7,0.4-6.7,1.2c0,0,0,0-0.1,0
						c-0.8,0.3-1.6,0.4-2.6,0.4c-1,0-1.9-0.2-2.7-0.6l0,0l-0.2-0.1l0,0l-3-1.3l-2.2-1.2c-2.2-1.2-3.4-2.8-3.5-4.7c0-0.1,0-0.3,0-0.3
						V526c0-0.1,0-0.3,0-0.3c-0.1-1.9,1-3.6,3.2-5l10.2-6.3l5.4-3.3l10.2-6.3C-780.9,503.4-778,502.7-775,502.7 M-775,502.1
						c-3.1,0-6.2,0.8-8.4,2.1l-10.2,6.3l-5.4,3.3l-10.2,6.3c-2.3,1.5-3.5,3.3-3.4,5.5c0,0.1,0,0.3,0,0.3v6.9c0,0.1,0,0.1,0,0.2
						s0,0.2,0,0.3c0.1,2.1,1.5,3.9,3.8,5.2l2.2,1.2l2.8,1.5l0.2,0.1c0.1,0,0.1,0.1,0.2,0.1c0.9,0.3,1.8,0.6,2.8,0.6
						c0.9,0,1.9-0.2,2.7-0.5h0.1c2-0.8,4.2-1.1,6.5-1.1c2.8,0,5.4,0.5,7.3,1.5c0.3,0.2,0.5,0.3,0.8,0.5c0,0.2,0,0.3,0,0.5
						c0,0.2,0.1,0.3,0.1,0.4v6.8v0.1c0,0.1,0,0.3,0,0.3c0.2,1,0.8,1.9,1.8,2.5l2,1l3.2,1.6c2,1,4.5,1.6,7.2,1.6
						c3.1,0,6.2-0.8,8.4-2.1l10.2-6.3l5.4-3.3l10.2-6.3c2.2-1.4,3.4-3.2,3.4-5.4v-6.5c0,0,0,0,0-0.1c0-0.2,0-0.3,0-0.5s0-0.3,0-0.6
						c-0.1-2.1-1.5-3.9-3.8-5.2l-2.2-1.2l-1.2-0.6v-4.4c0.2-0.7,0.2-1.5,0.1-2.1c-0.3-2.1-2-4.1-4.5-5.5c-2.4-1.3-5.5-2-8.6-2
						c-2.7,0-5.3,0.4-7.6,1.4c-0.1,0-0.1,0-0.1,0.1c-0.4,0.2-1,0.3-1.6,0.3c-0.7,0-1.3-0.1-1.7-0.3l-0.3,0.5l0.3-0.5l-2-1l-3.2-1.6
						C-769.8,502.7-772.3,502.1-775,502.1L-775,502.1z"/>
				</g>
			</g>
			<path class="st9" d="M-731.6,533.7v-8.2h-2.6v3.8c0-0.1-0.7-0.3-0.9-0.3l-2.4-1.2l-2.9-1.5c-0.3-0.2-0.7-0.4-0.7-0.7
				c0-0.2,0.2-0.4,0.3-0.5l0,0h0.3c1.4-1.4,2.1-3.1,2.1-4.7v-7.7h-3.4v3.1c0-0.3-0.9-0.4-1.2-0.6c-2.3-1.2-5.4-1.9-8.5-1.9
				c-2.7,0-5.2,0.4-7.4,1.3h-0.1c-0.5,0.2-1.2,0.3-1.9,0.3c-0.8,0-1.5-0.2-2-0.4l0,0l0,0l0,0l-2.1-1l-3.1-1.6
				c-1.9-1-4.3-1.5-6.9-1.5c-3,0-6,0.8-8,2.1l-10.2,6.3l-5.4,3.3l-10,6.2c-0.1,0.1,0,0.1,0,0.2v-2.9h-3.4v7.3c0,0.1,0,0.3,0,0.3
				c0.1,1.9,1.4,3.5,3.5,4.7l2.3,1.2l2.8,1.5l0,0l0.2,0.1h0.1c0.8,0.3,1.7,0.6,2.7,0.6c0.9,0,1.8-0.2,2.6-0.4h0.1
				c2-0.8,4.3-1.2,6.7-1.2c2.8,0,5.6,0.3,7.5,1.4c0.7,0.3,1.2,0.9,1.7,0.9h-0.2v8.1c0,0.2-0.2,0.3-0.2,0.4c0.1,0.9,0.5,1.5,1.5,2.1
				l2,1l3.1,1.6c1.9,1,4.3,1.5,6.8,1.5c3,0,6-0.8,8-2.1l10.2-6.3l5.4-3.3l10.4-6.3c2.1-1.3,3.2-3.2,3.2-5L-731.6,533.7L-731.6,533.7
				z"/>
			<g>
				<path class="st11" d="M-735.4,521.3l-2.2-1.2l-2.8-1.5c-0.3-0.2-0.6-0.4-0.7-0.7c0-0.2,0.2-0.4,0.3-0.5l0,0l0,0
					c1.5-1.5,2.1-3.2,1.8-5c-0.3-2-1.8-3.8-4.2-5c-2.3-1.2-5.3-1.9-8.4-1.9c-2.7,0-5.1,0.4-7.4,1.3h-0.1c-0.5,0.2-1.2,0.3-1.8,0.3
					c-0.8,0-1.5-0.2-2-0.4l0,0l0,0l0,0l-2.1-0.9l-3.2-1.6c-1.9-1-4.3-1.5-6.9-1.5c-3,0-6,0.8-8,2.1l-10.2,6.2l-5.4,3.3l-10.2,6.3
					c-2.1,1.3-3.2,3.1-3.2,5c0.1,1.9,1.3,3.5,3.5,4.7l2.2,1.2l2.8,1.5l0,0l0.2,0.1l0,0c0.8,0.3,1.7,0.5,2.7,0.5
					c0.9,0,1.8-0.2,2.6-0.4h0.1c2-0.8,4.3-1.2,6.7-1.2c2.8,0,5.6,0.6,7.5,1.6c1.9,1,3,2.3,3.2,3.7c0.2,1.1-0.3,2.3-1.3,3.3
					c-0.6,0.6-0.9,1.4-0.9,2.1c0.1,0.9,0.7,1.5,1.5,2.1l2.1,1l3.2,1.6c1.9,0.9,4.3,1.5,6.9,1.5c3,0,6-0.8,8-2.1l10.2-6.3l5.4-3.3
					l10.2-6.3c2.1-1.3,3.2-3.1,3.2-5C-732,524.1-733.2,522.5-735.4,521.3z"/>
				<g>
					<g>
						<path class="st9" d="M-760.5,517.6l-12,0.4c-1,0-1.9,0.5-1.8,1.1c0,0.6,0.9,1,1.9,1l7.4-0.3l-12.4,7.7
							c-0.7,0.4-0.7,1.1,0.1,1.5c0.8,0.4,1.9,0.3,2.7-0.1l12.4-7.7l0.2,4.3c0,0.6,0.9,1,1.9,1c0.5,0,0.9-0.2,1.3-0.3
							c0.3-0.2,0.5-0.5,0.5-0.8l-0.3-6.8C-758.7,518-759.5,517.6-760.5,517.6"/>
					</g>
					<g class="st4">
						<path d="M-760.5,517.6l-12,0.4c-1,0-1.9,0.5-1.8,1.1c0,0.6,0.9,1,1.9,1l7.4-0.3l-12.4,7.7c-0.7,0.4-0.7,1.1,0.1,1.5
							c0.8,0.4,1.9,0.3,2.7-0.1l12.4-7.7l0.2,4.3c0,0.6,0.9,1,1.9,1c0.5,0,0.9-0.2,1.3-0.3c0.3-0.2,0.5-0.5,0.5-0.8l-0.3-6.8
							C-758.7,518-759.5,517.6-760.5,517.6"/>
					</g>
				</g>
			</g>
		</g>
	</g>
</g>
</svg>
