<?xml version="1.0" encoding="utf-8"?>
<!-- Generator: Adobe Illustrator 19.1.0, SVG Export Plug-In . SVG Version: 6.00 Build 0)  -->
<svg version="1.1" id="Capa_1" xmlns="http://www.w3.org/2000/svg" xmlns:xlink="http://www.w3.org/1999/xlink" x="0px" y="0px"
	 viewBox="0 0 200 200" style="enable-background:new 0 0 200 200;" xml:space="preserve">
<style type="text/css">
	.st0{opacity:0.1;}
	.st1{fill:#33B533;}
	.st2{fill:#33BE33;}
	.st3{fill:#33CC33;}
	.st4{filter:url(#Adobe_OpacityMaskFilter);}
	.st5{opacity:0.3;mask:url(#SVGID_1_);}
	.st6{fill:none;}
	.st7{filter:url(#Adobe_OpacityMaskFilter_1_);}
	.st8{opacity:0.3;mask:url(#SVGID_2_);}
	.st9{filter:url(#Adobe_OpacityMaskFilter_2_);}
	.st10{opacity:0.3;mask:url(#SVGID_3_);}
	.st11{filter:url(#Adobe_OpacityMaskFilter_3_);}
	.st12{opacity:0.3;mask:url(#SVGID_4_);}
	.st13{fill:#CC3333;}
	.st14{fill:#9F161D;}
	.st15{fill:#B23333;}
	.st16{fill:#FFB400;}
	.st17{fill:#CB7000;}
	.st18{filter:url(#Adobe_OpacityMaskFilter_4_);}
	.st19{opacity:0.3;mask:url(#SVGID_5_);}
	.st20{fill:#FFCC00;}
	.st21{filter:url(#Adobe_OpacityMaskFilter_5_);}
	.st22{opacity:0.3;mask:url(#SVGID_6_);}
</style>
<g>
	<g>
		<g class="st0">
			
				<image style="overflow:visible;" width="163" height="133" xlink:href="3313DD165F6B854F.png"  transform="matrix(1 0 0 1 -31 69)">
			</image>
		</g>
		<g>
			<g>
				
					<image style="overflow:visible;opacity:0.1;" width="308" height="208" xlink:href="3313DD165F6B854D.png"  transform="matrix(0.2876 0 0 0.2876 5 95.7189)">
				</image>
				<g>
					<path class="st1" d="M49.9,97.5c2.3,0,4.6,0.5,6.4,1.4l5,2.7c0,0,0,0,0,0l0,0h0c0,0,0,0,0,0c0.7,0.3,1.5,0.5,2.3,0.5
						c0.8,0,1.5-0.1,2.2-0.4c0,0,0,0,0.1,0c2.1-0.8,4.5-1.2,6.9-1.2c2.8,0,5.7,0.6,7.9,1.7c2.6,1.3,3.8,3.2,3.7,5.1l0,0l0,6.5l4,2.1
						c2.1,1.1,3.1,2.7,3,4.2l0,6.4c0.1,1.5-0.8,3-2.7,4.1l-9.7,6l4.2-2.6l-19.6,12.1l-1.5,0.9c-0.2,0.2-0.5,0.3-0.8,0.4
						c-6.5,3.6-14.9,5.5-23.3,5.5c-7.6,0-15-1.5-20.9-4.6c-6.5-3.4-9.8-8.1-9.9-12.9l0,0l-0.1-7.4h0.1c0.2-4.1,2.8-8.3,7.8-11.7
						c0.2-0.2,0.4-0.3,0.7-0.5l21.1-13.1l-4.2,2.6l9.7-6c1-0.6,2.1-1,3.3-1.4C47,97.7,48.4,97.5,49.9,97.5 M49.9,96.3L49.9,96.3
						c-1.5,0-3.1,0.2-4.5,0.6c-1.4,0.4-2.6,0.9-3.6,1.5l-9.7,6l0,0l-16.9,10.5c-0.3,0.2-0.5,0.3-0.8,0.5c-4.7,3.2-7.6,7.3-8.1,11.5
						H6l0,1.2l0.1,7.4l0,0.7l0,0c0.3,5.2,4,9.9,10.5,13.3c5.8,3.1,13.4,4.8,21.5,4.8c8.9,0,17.3-2,23.8-5.6c0.3-0.2,0.6-0.3,0.8-0.5
						l1.5-0.9l19.6-12.1v0l5.5-3.4c2.2-1.3,3.4-3.2,3.3-5.1l0-6.4c0.1-2.1-1.2-4-3.6-5.3l-3.4-1.8l0-5.8l0-1.1l-0.1,0
						c-0.4-2-1.9-3.7-4.2-5c-2.3-1.2-5.3-1.9-8.4-1.9c-2.6,0-5.2,0.4-7.4,1.3c0,0-0.1,0-0.1,0c-0.5,0.2-1.1,0.3-1.7,0.3
						c-0.4,0-0.8,0-1.2-0.1l0-0.2l-0.8-0.2l-0.1,0h0l-4.8-2.5C54.9,96.9,52.4,96.3,49.9,96.3L49.9,96.3L49.9,96.3z"/>
				</g>
			</g>
			<g>
				<path class="st2" d="M91.5,126.5l0-6.7l-4-0.5l1.8,3.9c-0.2-0.2-0.5-0.3-0.8-0.5l-5.1-2.7c-1.3-0.7-1.5-1.8-0.6-2.6
					c1.1-1.1,1.6-2.4,1.6-3.6l0,0l0.4-6.6l-1.9,0v2.7c-1-0.3-1.3-0.6-1.8-0.9c-4.1-2.2-10.5-2.3-15.1-0.5c0,0-0.1,0-0.2,0
					c-1.4,0.5-3.3,0.8-4.5,0.2c0,0-0.1,0.2-0.1,0.2h0l0-0.3c0,0,0-0.1,0-0.1l-5-2.7c-2.9-1.5-7.1-1.8-10.6-0.9
					c-1.2,0.3-2.3,0.8-3.3,1.3l-9.7,6l4.2-2.6l-21.1,13.1c-0.2,0.2-0.3,0.3-0.5,0.5c-3,2.1-5.2,4.4-6.2,6.9V128H7.2l0.1,7.5l0,0
					c0,4.8,3.3,9.5,9.9,12.9c12.4,6.5,31.8,6.1,44.2-0.8c0.3-0.1,0.5-0.3,0.8-0.4l1.5-0.9l19.6-12.1l-4.2,2.6l9.7-6
					C90.7,129.5,91.6,128,91.5,126.5z"/>
				<g>
					<path class="st3" d="M17.1,141.5c12.4,6.5,31.8,6.1,44.2-0.9c0.3-0.1,0.5-0.3,0.8-0.4l1.5-0.9l19.6-12.1l-4.2,2.6l9.7-6
						c3.7-2.3,3.6-5.9-0.3-7.9l-5.1-2.7c-1.3-0.7-1.5-1.8-0.6-2.6c2.7-2.8,2-6.2-2.1-8.4c-4.1-2.2-10.2-2.3-14.8-0.5c0,0,0,0-0.1,0
						c-1.4,0.5-3.2,0.5-4.5-0.1c0,0,0,0,0,0h0l0,0c0,0,0,0,0,0l-5-2.7c-2.9-1.5-7.1-1.8-10.6-0.9c-1.2,0.3-2.3,0.8-3.3,1.4l-9.7,6
						l4.2-2.6l-21.1,13.1c-0.2,0.2-0.5,0.3-0.7,0.5C4,123.9,4.7,135,17.1,141.5z"/>
					<g>
						<g>
							<g>
								<path class="st2" d="M27.5,114.3c-9.8,6.1-9.5,15.4,0.7,20.8c5.7,3,13.3,4.2,20.7,3.5c1.9-0.2,3.9-0.5,5.7-0.9
									c1.4-0.3,2.7-0.7,4-1.1c2.2-0.7,4.2-1.7,6-2.8c2.6-1.6,4.5-3.5,5.7-5.4c1.1-1.7,1.5-3.5,1.5-5.3c0-1-0.2-1.9-0.6-2.8
									c-1.1-2.7-3.5-5.2-7.3-7.2C53.6,107.7,37.3,108.3,27.5,114.3z M53.1,136.9c-1.1-0.7-2.2-1.6-3.1-2.6l2,0.8
									c1.2,0.5,2.5,0.9,3.9,1.2C55,136.5,54.1,136.7,53.1,136.9z M69.1,127.1c-0.9-0.8-2-1.5-3.4-2.1l-5.4-2.6
									c3.7-0.7,6.9-0.4,9.5,0.2C70,124.1,69.7,125.6,69.1,127.1z M69.1,120.1c-3.5-0.3-7.4-0.1-11.5,1l-10.7-5.2
									c-5.3-2.3-13.1-1.6-17.3,1.5c-4.2,3.1-3.3,7.5,2,9.8l0.2,0.1c-0.2,0.9,0.5,1.8,1.8,2.4c1.5,0.6,3.4,0.7,5,0.2l6.7,2.5
									c0.2,2,1.3,3.8,2.6,5.1c-6.6,0.5-13.3-0.6-18.4-3.3c-9.5-5-9.8-13.6-0.7-19.3c9.1-5.6,24.2-6.2,33.7-1.2
									C65.8,115.6,68,117.7,69.1,120.1z"/>
							</g>
							<defs>
								<filter id="Adobe_OpacityMaskFilter" filterUnits="userSpaceOnUse" x="20.3" y="109.4" width="51.4" height="29.4">
									
										<feColorMatrix  type="matrix" values="-1 0 0 0 1  0 -1 0 0 1  0 0 -1 0 1  0 0 0 1 0" color-interpolation-filters="sRGB" result="source"/>
								</filter>
							</defs>
							<mask maskUnits="userSpaceOnUse" x="20.3" y="109.4" width="51.4" height="29.4" id="SVGID_1_">
								<g class="st4">
									
										<image style="overflow:visible;" width="56" height="34" xlink:href="3313DD165F6B8553.jpg"  transform="matrix(1 0 0 1 18 107)">
									</image>
								</g>
							</mask>
							<g class="st5">
								<path d="M27.5,114.3c-9.8,6.1-9.5,15.4,0.7,20.8c5.7,3,13.3,4.2,20.7,3.5c1.9-0.2,3.9-0.5,5.7-0.9c1.4-0.3,2.7-0.7,4-1.1
									c2.2-0.7,4.2-1.7,6-2.8c2.6-1.6,4.5-3.5,5.7-5.4c1.1-1.7,1.5-3.5,1.5-5.3c0-1-0.2-1.9-0.6-2.8c-1.1-2.7-3.5-5.2-7.3-7.2
									C53.6,107.7,37.3,108.3,27.5,114.3z M53.1,136.9c-1.1-0.7-2.2-1.6-3.1-2.6l2,0.8c1.2,0.5,2.5,0.9,3.9,1.2
									C55,136.5,54.1,136.7,53.1,136.9z M69.1,127.1c-0.9-0.8-2-1.5-3.4-2.1l-5.4-2.6c3.7-0.7,6.9-0.4,9.5,0.2
									C70,124.1,69.7,125.6,69.1,127.1z M69.1,120.1c-3.5-0.3-7.4-0.1-11.5,1l-10.7-5.2c-5.3-2.3-13.1-1.6-17.3,1.5
									c-4.2,3.1-3.3,7.5,2,9.8l0.2,0.1c-0.2,0.9,0.5,1.8,1.8,2.4c1.5,0.6,3.4,0.7,5,0.2l6.7,2.5c0.2,2,1.3,3.8,2.6,5.1
									c-6.6,0.5-13.3-0.6-18.4-3.3c-9.5-5-9.8-13.6-0.7-19.3c9.1-5.6,24.2-6.2,33.7-1.2C65.8,115.6,68,117.7,69.1,120.1z"/>
							</g>
						</g>
						<g>
							
								<image style="overflow:visible;opacity:0.1;" width="19" height="13" xlink:href="3313DD165F6B8555.png"  transform="matrix(1 0 0 1 32.3271 118.3271)">
							</image>
							<g>
								<g>
									<path class="st3" d="M47.7,119.4c-1.7-0.7-4-0.6-5.5,0.3c-0.1,0.1-0.2,0.1-0.3,0.2c-0.7,0.5-1,1.1-0.9,1.7
										c0.1,0.6,0.7,1.2,1.5,1.5c1.7,0.7,4,0.6,5.5-0.3c0.1-0.1,0.2-0.1,0.3-0.2c0.7-0.5,1-1.1,0.9-1.7
										C49,120.4,48.5,119.8,47.7,119.4z"/>
									<path class="st3" d="M36.5,125.4c-1,0.1-1.8,0.4-2.4,0.8c-1.3,0.9-1,2.2,0.6,2.9c0.8,0.3,1.7,0.5,2.7,0.4
										c0.9-0.1,1.6-0.3,2.2-0.7c0.1,0,0.2-0.1,0.2-0.2c0.6-0.5,0.9-1,0.8-1.6c-0.1-0.6-0.6-1-1.4-1.4
										C38.4,125.4,37.4,125.3,36.5,125.4z"/>
								</g>
							</g>
						</g>
						<path class="st6" d="M28.7,134.7c9.9,5.2,25.6,4.6,35-1.2c9.5-5.9,9.2-14.8-0.7-20c-9.9-5.2-25.6-4.6-35,1.2
							C18.5,120.6,18.8,129.5,28.7,134.7"/>
						<g>
							<g>
								<path class="st2" d="M46.6,122c0.2-0.1,0.2-0.3-0.1-0.4l-2.4-1c-0.2-0.1-0.6-0.1-0.8,0.1c-0.2,0.1-0.2,0.3,0.1,0.4l2.4,1
									C46,122.2,46.4,122.2,46.6,122"/>
							</g>
							<defs>
								<filter id="Adobe_OpacityMaskFilter_1_" filterUnits="userSpaceOnUse" x="43.2" y="120.5" width="3.5" height="1.7">
									
										<feColorMatrix  type="matrix" values="-1 0 0 0 1  0 -1 0 0 1  0 0 -1 0 1  0 0 0 1 0" color-interpolation-filters="sRGB" result="source"/>
								</filter>
							</defs>
							<mask maskUnits="userSpaceOnUse" x="43.2" y="120.5" width="3.5" height="1.7" id="SVGID_2_">
								<g class="st7">
									
										<image style="overflow:visible;" width="8" height="7" xlink:href="3313DD165F6B8557.jpg"  transform="matrix(1 0 0 1 41 118)">
									</image>
								</g>
							</mask>
							<g class="st8">
								<path d="M46.6,122c0.2-0.1,0.2-0.3-0.1-0.4l-2.4-1c-0.2-0.1-0.6-0.1-0.8,0.1c-0.2,0.1-0.2,0.3,0.1,0.4l2.4,1
									C46,122.2,46.4,122.2,46.6,122"/>
							</g>
						</g>
						<g>
							<g>
								<path class="st2" d="M38.2,128.3c0.2-0.1,0.2-0.3-0.1-0.4l-2.3-1c-0.2-0.1-0.6-0.1-0.8,0.1c-0.2,0.1-0.2,0.3,0.1,0.4l2.3,1
									C37.6,128.5,38,128.4,38.2,128.3"/>
							</g>
							<defs>
								<filter id="Adobe_OpacityMaskFilter_2_" filterUnits="userSpaceOnUse" x="34.8" y="126.8" width="3.5" height="1.7">
									
										<feColorMatrix  type="matrix" values="-1 0 0 0 1  0 -1 0 0 1  0 0 -1 0 1  0 0 0 1 0" color-interpolation-filters="sRGB" result="source"/>
								</filter>
							</defs>
							<mask maskUnits="userSpaceOnUse" x="34.8" y="126.8" width="3.5" height="1.7" id="SVGID_3_">
								<g class="st9">
									
										<image style="overflow:visible;" width="9" height="7" xlink:href="3313DD165F6B8555.jpg"  transform="matrix(1 0 0 1 32 124)">
									</image>
								</g>
							</mask>
							<g class="st10">
								<path d="M38.2,128.3c0.2-0.1,0.2-0.3-0.1-0.4l-2.3-1c-0.2-0.1-0.6-0.1-0.8,0.1c-0.2,0.1-0.2,0.3,0.1,0.4l2.3,1
									C37.6,128.5,38,128.4,38.2,128.3"/>
							</g>
						</g>
						<path class="st3" d="M48.5,127.8c-1.3,0.9-3,1.6-5,1.8c-1,0.1-1.9-0.2-2-0.8c-0.1-0.6,0.6-1.1,1.6-1.3
							c2.2-0.3,3.8-1.5,3.6-2.8c-0.1-0.6,0.6-1.1,1.6-1.3c1-0.1,1.9,0.2,2,0.8c0.2,1.2-0.3,2.4-1.6,3.4
							C48.7,127.7,48.6,127.7,48.5,127.8"/>
						<g>
							<g>
								<path class="st2" d="M47.6,127.4c-1,0.8-2.5,1.3-4.2,1.6c-0.3,0-0.6-0.1-0.7-0.3c0-0.2,0.2-0.4,0.5-0.4c2.9-0.4,5-2,4.6-3.7
									c0-0.2,0.2-0.4,0.5-0.4c0.3,0,0.6,0.1,0.7,0.3C49.3,125.5,48.8,126.5,47.6,127.4"/>
							</g>
							<defs>
								<filter id="Adobe_OpacityMaskFilter_3_" filterUnits="userSpaceOnUse" x="42.8" y="124.1" width="6.4" height="4.8">
									
										<feColorMatrix  type="matrix" values="-1 0 0 0 1  0 -1 0 0 1  0 0 -1 0 1  0 0 0 1 0" color-interpolation-filters="sRGB" result="source"/>
								</filter>
							</defs>
							<mask maskUnits="userSpaceOnUse" x="42.8" y="124.1" width="6.4" height="4.8" id="SVGID_4_">
								<g class="st11">
									
										<image style="overflow:visible;" width="12" height="9" xlink:href="3313DD165F6B855C.jpg"  transform="matrix(1 0 0 1 40 122)">
									</image>
								</g>
							</mask>
							<g class="st12">
								<path d="M47.6,127.4c-1,0.8-2.5,1.3-4.2,1.6c-0.3,0-0.6-0.1-0.7-0.3c0-0.2,0.2-0.4,0.5-0.4c2.9-0.4,5-2,4.6-3.7
									c0-0.2,0.2-0.4,0.5-0.4c0.3,0,0.6,0.1,0.7,0.3C49.3,125.5,48.8,126.5,47.6,127.4"/>
							</g>
						</g>
						<g>
							
								<image style="overflow:visible;opacity:0.1;" width="15" height="11" xlink:href="3313DD165F6B855D.png"  transform="matrix(1 0 0 1 44.3271 123.3271)">
							</image>
							<g>
								<path class="st3" d="M46,131.1c0.2,0.1,0.3,0.1,0.5,0.2c0.2,0.1,0.3,0.1,0.5,0.2c0.2,0,0.3,0.1,0.5,0.1
									c0.2,0,0.3,0.1,0.5,0.1c0.4,0.1,0.7,0.1,1.1,0.1c0.2,0,0.4,0,0.5,0c0.2,0,0.3-0.1,0.4-0.2c0.1-0.1,0.1-0.2,0.1-0.3
									c0-0.1,0-0.2-0.1-0.3c-0.1-0.2-0.3-0.4-0.5-0.6c-0.4-0.3-1-0.6-1.6-0.9l0.3-0.2c0.6,0.2,1.3,0.5,2,0.6
									c0.3,0.1,0.7,0.1,1.1,0.1c0.2,0,0.3,0,0.5,0c0.1,0,0.3-0.1,0.3-0.1c0.1-0.1,0.1-0.1,0.1-0.2c0-0.1,0-0.2-0.1-0.3
									c-0.1-0.2-0.3-0.4-0.5-0.5c-0.1-0.1-0.2-0.2-0.3-0.2c-0.1-0.1-0.2-0.2-0.4-0.2c-0.1-0.1-0.3-0.1-0.4-0.2
									c-0.1-0.1-0.3-0.1-0.4-0.2l0.4-0.3c0.6,0.3,1.2,0.5,1.9,0.6c0.3,0.1,0.7,0.1,1,0.1c0.2,0,0.3,0,0.5,0c0.1,0,0.1,0,0.2-0.1
									c0,0,0.1,0,0.1,0l0,0l0,0l0,0l0,0l0,0l0,0c0,0,0,0,0,0l0.1-0.1c0,0,0,0,0-0.1c0,0,0-0.1,0-0.1c0-0.1,0-0.2-0.1-0.3
									c-0.1-0.2-0.3-0.4-0.5-0.5c-0.4-0.3-0.9-0.6-1.5-0.9l0.3-0.2c0.3,0.1,0.6,0.2,0.9,0.3c0.2,0,0.3,0.1,0.5,0.1
									c0.2,0,0.3,0.1,0.5,0.1c0.3,0.1,0.7,0.1,1.1,0.1c0.2,0,0.4,0,0.5,0c0.1,0,0.2,0,0.2-0.1c0,0,0.1,0,0.1,0l0,0l0,0l0,0l0,0
									l0,0l0,0c0,0,0,0,0,0c0.1,0,0.1-0.1,0.1-0.1c0,0,0-0.1,0-0.1c0-0.1,0-0.2-0.1-0.3c-0.1-0.2-0.3-0.4-0.5-0.6
									c-0.1-0.1-0.2-0.2-0.3-0.3c-0.1-0.1-0.2-0.2-0.4-0.2c-0.3-0.2-0.5-0.3-0.8-0.4l0,0c0,0,0,0,0-0.1c0,0,0.1,0,0.1,0
									c0.3,0.1,0.6,0.3,0.9,0.4c0.1,0.1,0.3,0.2,0.4,0.2c0.1,0.1,0.2,0.2,0.4,0.3c0.2,0.2,0.4,0.4,0.5,0.6
									c0.1,0.1,0.1,0.2,0.1,0.4c0,0.1,0,0.1-0.1,0.2c0,0.1-0.1,0.1-0.1,0.2c-0.2,0.1-0.4,0.2-0.6,0.2c-0.2,0-0.4,0.1-0.6,0.1
									c-0.4,0-0.8,0-1.2-0.1c-0.8-0.1-1.5-0.4-2.1-0.6c-0.1,0-0.1-0.1,0-0.2c0.1-0.1,0.2-0.1,0.4,0l0,0l0,0c0.6,0.3,1.2,0.6,1.7,1
									c0.2,0.2,0.4,0.4,0.5,0.6c0.1,0.1,0.1,0.2,0.1,0.4c0,0,0,0.1,0,0.1c0,0,0,0.1-0.1,0.1c-0.1,0.1-0.1,0.1-0.2,0.2c0,0,0,0,0,0
									l0,0l0,0l0,0l0,0l0,0l-0.1,0c0,0-0.1,0-0.2,0.1c-0.1,0-0.2,0.1-0.3,0.1c-0.2,0-0.5,0.1-0.7,0.1c-0.4,0-0.8-0.1-1.2-0.1
									c-0.8-0.1-1.5-0.4-2.1-0.6c-0.1-0.1-0.1-0.2,0-0.2c0.1-0.1,0.3-0.1,0.4,0l0,0c0.6,0.3,1.2,0.6,1.6,1
									c0.2,0.2,0.4,0.4,0.5,0.6c0.1,0.1,0.1,0.2,0.1,0.4c0,0.1-0.1,0.3-0.3,0.4c-0.2,0.1-0.4,0.2-0.6,0.2c-0.2,0-0.5,0.1-0.7,0.1
									c-0.4,0-0.8-0.1-1.2-0.1c-0.8-0.1-1.4-0.4-2.1-0.6l0,0c-0.1,0-0.1-0.1,0-0.2c0.1-0.1,0.2-0.1,0.3,0l0,0
									c0.6,0.3,1.2,0.6,1.6,1c0.2,0.2,0.4,0.4,0.5,0.6c0.1,0.1,0.1,0.2,0.1,0.4c0,0.1-0.1,0.3-0.2,0.4c-0.2,0.1-0.4,0.2-0.6,0.2
									c-0.2,0-0.4,0.1-0.6,0c-0.4,0-0.8-0.1-1.2-0.1c-0.2,0-0.4-0.1-0.5-0.1c-0.2,0-0.3-0.1-0.5-0.2c-0.2-0.1-0.3-0.1-0.5-0.2
									c-0.2-0.1-0.3-0.1-0.5-0.2c0,0,0,0,0-0.1C45.9,131.1,45.9,131.1,46,131.1"/>
							</g>
						</g>
						<g>
							
								<image style="overflow:visible;opacity:0.1;" width="12" height="8" xlink:href="3313DD165F6B855F.png"  transform="matrix(1 0 0 1 50.3271 127.3271)">
							</image>
							<g>
								<path class="st3" d="M51.6,131.6c0.3,0.1,0.6,0.3,0.9,0.4c0.1,0.1,0.3,0.1,0.5,0.2c0.2,0.1,0.3,0.1,0.5,0.2
									c0.3,0.1,0.7,0.2,1,0.2c0.2,0,0.4,0,0.5,0c0.2,0,0.3,0,0.5-0.1c0.1,0,0.2-0.1,0.3-0.1l0,0l0,0c0,0,0,0,0,0l0,0l0,0l0,0l0,0
									l0,0l0,0c0,0,0,0,0,0c0,0,0,0,0,0c0,0,0,0,0-0.1c0-0.1,0-0.2-0.1-0.3c-0.1-0.1-0.1-0.2-0.2-0.3c-0.2-0.2-0.4-0.3-0.6-0.5
									c-0.1-0.1-0.2-0.1-0.4-0.2c-0.1-0.1-0.3-0.1-0.4-0.2l0.4-0.3c0.5,0.2,1,0.4,1.6,0.5c0.3,0.1,0.6,0.1,0.9,0.1
									c0.1,0,0.3,0,0.4,0c0.1,0,0.2-0.1,0.3-0.1c0.1-0.1,0.1-0.1,0.1-0.2c0-0.1,0-0.2-0.1-0.2c-0.1-0.2-0.2-0.3-0.4-0.5
									c-0.3-0.3-0.8-0.5-1.3-0.8l0.3-0.2c0.5,0.2,1,0.4,1.6,0.5c0.3,0.1,0.6,0.1,0.9,0.1c0.1,0,0.3,0,0.4,0c0.1,0,0.3-0.1,0.3-0.1
									c0,0,0.1-0.1,0.1-0.1c0,0,0-0.1,0-0.1c0-0.1,0-0.2-0.1-0.3c-0.1-0.2-0.2-0.3-0.4-0.5c-0.3-0.3-0.8-0.6-1.3-0.8
									c0,0,0,0,0-0.1c0,0,0.1,0,0.1,0c0.5,0.2,1,0.5,1.4,0.8c0.2,0.2,0.4,0.3,0.5,0.5c0.1,0.1,0.1,0.2,0.1,0.3c0,0.1,0,0.1,0,0.2
									c0,0.1-0.1,0.1-0.1,0.1c-0.1,0.1-0.3,0.2-0.5,0.2c-0.2,0-0.4,0-0.5,0c-0.4,0-0.7,0-1-0.1c-0.6-0.1-1.2-0.3-1.8-0.5
									c-0.1,0-0.1-0.1,0-0.2c0.1-0.1,0.2-0.1,0.3,0l0,0l0,0c0.5,0.2,1,0.5,1.4,0.8c0.2,0.2,0.4,0.3,0.5,0.5
									c0.1,0.1,0.1,0.2,0.1,0.3c0,0.1-0.1,0.3-0.2,0.4c-0.1,0.1-0.3,0.2-0.5,0.2c-0.2,0-0.4,0-0.6,0c-0.4,0-0.7,0-1-0.1
									c-0.6-0.1-1.2-0.3-1.8-0.5c-0.1-0.1-0.1-0.2-0.1-0.2c0.1-0.1,0.3-0.1,0.4,0c0,0,0,0,0,0c0.2,0.1,0.3,0.1,0.4,0.2
									c0.1,0.1,0.3,0.1,0.4,0.2c0.3,0.2,0.5,0.3,0.7,0.5c0.1,0.1,0.2,0.2,0.3,0.3c0.1,0.1,0.1,0.2,0.1,0.4c0,0,0,0.1,0,0.1
									c0,0,0,0.1,0,0.1l0,0.1l0,0l0,0l0,0l0,0l0,0l0,0l0,0l0,0c-0.2,0.1-0.4,0.2-0.7,0.2c-0.2,0-0.4,0-0.6,0
									c-0.2,0-0.4-0.1-0.6-0.1c-0.4-0.1-0.7-0.2-1-0.3c-0.2-0.1-0.3-0.1-0.5-0.2c-0.2-0.1-0.3-0.1-0.4-0.2
									C52.1,132,51.9,131.8,51.6,131.6c-0.1,0.1-0.1,0-0.1,0C51.6,131.6,51.6,131.6,51.6,131.6L51.6,131.6"/>
							</g>
						</g>
						<g>
							
								<image style="overflow:visible;opacity:0.1;" width="10" height="7" xlink:href="61DEF43BCA8A447C.png"  transform="matrix(1 0 0 1 43.3271 116.3271)">
							</image>
							<g>
								<path class="st3" d="M51.4,121c-0.1,0-0.2,0.1-0.3,0.1c-0.2,0-0.3-0.1-0.2-0.2c0.4-1-0.2-1.9-1.6-2.5
									c-1.2-0.5-2.8-0.6-4.3-0.3c-0.2,0-0.3,0-0.4-0.1c-0.1-0.1,0-0.2,0.2-0.2c1.7-0.4,3.5-0.2,4.9,0.4
									C51.2,118.7,51.9,119.8,51.4,121C51.5,121,51.5,121,51.4,121"/>
							</g>
						</g>
					</g>
				</g>
			</g>
		</g>
	</g>
	<g>
		<g class="st0">
			
				<image style="overflow:visible;" width="158" height="133" xlink:href="61DEF43BCA8A447B.png"  transform="matrix(1 0 0 1 74 7)">
			</image>
		</g>
		<g>
			<g>
				<g>
					<path class="st13" d="M149.1,93c-2.2,0-4.3-0.2-5.9-1.1l-4.5-2.3c-0.8-0.4-1.2-1-1.2-1.6l-0.1-7.4c-0.3-0.3-0.7-0.5-1.1-0.7
						c-1.9-1-4.3-1.5-6.9-1.5c-2.2,0-4.3,0.4-6.1,1.1c0,0,0,0-0.1,0c-0.6,0.2-1.3,0.4-2,0.4c-0.8,0-1.6-0.2-2.3-0.5
						c-0.1,0-0.1-0.1-0.1-0.1l-4.5-2.3c-1.8-0.9-2.8-2.3-2.9-3.7c0,0,0-0.1,0-0.1l0-8.4c0,0,0-0.1,0-0.1c0.1-1.3,1-2.6,2.6-3.6
						l30.8-19c0.1-0.1,0.3-0.2,0.5-0.3c5.7-3.3,13.3-5.1,21.3-5.1c7.1,0,14,1.5,19.1,4.2c6.1,3.2,9.2,7.9,9.2,12.7V61
						c0,0-0.2,0.1-0.2,0.2c-0.1,4.2-2.8,8.1-7.5,11.3c0,0-0.1,0.1-0.2,0.1c-0.1,0.1-0.2,0.1-0.3,0.2L156,91.5
						C154.2,92.6,151.7,93,149.1,93C149.1,93,149.1,93,149.1,93z"/>
					<g>
						<path class="st14" d="M166.7,37.1c6.8,0,13.4,1.4,18.6,4.1c6.2,3.3,9.7,7.8,8.7,12.4V60h0.2c-0.1,5-2.5,8.3-7.3,11.5
							c-0.1,0.1-0.3,0.5-0.4,0.6l-30.8,19.2c-1.8,1.1-4.3,1.8-6.7,1.8c-2.1,0-4.1-0.4-5.7-1.2l-4.5-2.4c-0.7-0.4-1-0.8-1-1.3
							l-0.1-7.6c-0.4-0.3-0.8-0.6-1.3-0.8c-2-1-4.5-1.6-7-1.6c-2.2,0-4.3,0.4-6.2,1.1c0,0,0,0,0,0c-0.6,0.2-1.2,0.3-1.9,0.3
							c-0.8,0-1.5-0.7-2.1-0.9c0,0,0-0.6,0-0.6h0l-4.5-1.9c-1.7-0.9-2.6-1.9-2.7-3.2l0-0.3l0-8.6h0c0.1-1,0.9-2,2.4-3l30.8-18.9
							c0.1-0.1,0.3-0.1,0.4-0.2C151.4,38.7,159.1,37.1,166.7,37.1 M166.7,36.3c-8.1,0-15.7,1.8-21.5,5.2c-0.2,0.1-0.3,0.2-0.5,0.3
							l-30.8,19.1c-1.7,1-2.6,2.4-2.8,3.8c0,0.1,0,0.1,0,0.2l0,8.4c0,0.1,0,0.1,0,0.2c0.1,1.6,1.2,3,3.1,4l4.4,2.3
							c0,0,0.1,0.1,0.2,0.1c0.7,0.3,1.6,0.5,2.5,0.5c0.8,0,1.5-0.1,2.2-0.4c0,0,0.1,0,0.1,0c1.8-0.7,3.8-1,5.9-1
							c2.5,0,4.9,0.5,6.7,1.5c0.3,0.2,0.6,0.4,0.9,0.5l0.1,7.2c0,0.8,0.5,1.6,1.4,2l4.5,2.4c1.6,0.9,3.8,1.3,6.1,1.3
							c2.7,0,5.2-0.7,7.1-1.8L187,73c0.1-0.1,0.2-0.2,0.3-0.2c0,0,0.1-0.1,0.1-0.1c4.9-3.3,7.5-7.3,7.6-11.6c0-0.1,0-0.2,0-0.2v-7.3
							c1-5.1-3-9.8-9.2-13.1C180.6,37.8,173.8,36.3,166.7,36.3L166.7,36.3z"/>
					</g>
				</g>
				<g>
					<path class="st15" d="M194,52h-2v3.3c-1-2.2-3.6-4.2-6.8-5.9c-11.2-5.9-28.7-5.4-39.7,1c-0.1,0.1-0.2,0.2-0.4,0.2l-29.5,17.8
						L115,64h-3.2l0,8.8l0,0.2c0,1.3,0.9,2.1,2.7,3l4.5,2h0c0,0,0,0.6,0,0.6c1.1,0.6,2.8,0.8,4,0.4c0,0,0,0.1,0,0.1
						c4.1-1.6,9.6-1.4,13.2,0.5c0.5,0.3,0.9,0.6,1.3,0.9l0.1,7.7c0,0.5,0.3,1,1,1.4l4.5,2.4c3.5,1.8,9,1.6,12.4-0.4l30.8-19
						c0.1-0.1,0.3-0.8,0.4-0.8c4.8-3.2,7.2-6.5,7.3-11.5H194V52z"/>
					<g>
						<g>
							<g>
								<g>
									<path class="st13" d="M138.4,79c-0.8,0.8-0.6,1.7,0.5,2.3l4.5,2.4c3.5,1.8,9,1.6,12.4-0.4l30.8-19c0.1-0.1,0.3-0.2,0.4-0.3
										c10.2-6.8,9.6-16.9-1.6-22.7c-11.2-5.9-28.8-5.4-39.8,1c-0.1,0.1-0.3,0.2-0.4,0.2l-30.8,19c-3.3,2.1-3.2,5.2,0.2,7.1
										l4.5,2.4l0,0c0,0,0,0,0,0c1.1,0.6,2.8,0.6,4,0.1c0,0,0,0,0,0c4.1-1.6,9.6-1.5,13.2,0.5C140.1,73.4,140.8,76.5,138.4,79z"/>
								</g>
							</g>
						</g>
					</g>
				</g>
			</g>
			<g>
				<polygon class="st14" points="142.1,58.9 142.6,58.6 144,59.3 143.6,59.6 				"/>
				<polygon class="st14" points="143.6,59.6 144,59.3 146,60.4 145.5,60.7 				"/>
				<polygon class="st14" points="146,60.9 146.5,60.6 147.5,61.1 147,61.4 				"/>
				<polygon class="st14" points="149.4,62.7 149.9,62.4 150.4,62.7 149.9,63 				"/>
				<polygon class="st14" points="151.9,64 152.3,63.7 153.3,64.2 152.8,64.5 				"/>
				<polygon class="st14" points="152.8,64.5 153.3,64.2 154.8,65 154.3,65.3 				"/>
				<polygon class="st14" points="154.8,65.5 155.3,65.2 157.7,66.5 157.2,66.8 				"/>
				<polygon class="st14" points="157.2,66.8 157.7,66.5 158.7,67 158.2,67.3 				"/>
				<polygon class="st14" points="142.6,58.6 143,58.3 143.5,58.5 143.1,58.8 				"/>
				<polygon class="st14" points="145.5,60.1 146,59.8 146.5,60.1 146,60.4 				"/>
				<polygon class="st14" points="147,60.9 147.4,60.6 148.9,61.4 148.4,61.7 				"/>
				<polygon class="st14" points="149.4,62.2 149.9,61.9 150.4,62.1 149.9,62.4 				"/>
				<polygon class="st14" points="150.9,62.9 151.3,62.6 151.8,62.9 151.4,63.2 				"/>
				<polygon class="st14" points="152.3,63.7 152.8,63.4 153.8,63.9 153.3,64.2 				"/>
				<polygon class="st14" points="155.3,65.2 155.7,65 156.2,65.2 155.8,65.5 				"/>
				<polygon class="st14" points="158.2,66.8 158.7,66.5 159.2,66.8 158.7,67 				"/>
				<polygon class="st14" points="143,58.3 143.5,58 144,58.2 143.5,58.5 				"/>
				<polygon class="st14" points="144,58.8 144.5,58.5 145,58.8 144.5,59 				"/>
				<polygon class="st14" points="144.5,59 145,58.8 146,59.3 145.5,59.6 				"/>
				<polygon class="st14" points="146,59.8 146.4,59.5 146.9,59.8 146.5,60.1 				"/>
				<polygon class="st14" points="146.9,60.3 147.4,60 147.9,60.3 147.4,60.6 				"/>
				<polygon class="st14" points="148.9,61.4 149.4,61.1 149.9,61.3 149.4,61.6 				"/>
				<polygon class="st14" points="150.4,62.1 150.8,61.8 151.3,62.1 150.9,62.4 				"/>
				<polygon class="st14" points="151.8,62.9 152.3,62.6 153.8,63.4 153.3,63.7 				"/>
				<polygon class="st14" points="153.8,63.9 154.3,63.6 155.2,64.2 154.8,64.4 				"/>
				<polygon class="st14" points="155.7,65 156.2,64.7 156.7,64.9 156.2,65.2 				"/>
				<polygon class="st14" points="156.7,65.5 157.2,65.2 158.6,65.9 158.2,66.2 				"/>
				<polygon class="st14" points="158.7,66.5 159.1,66.2 159.6,66.5 159.2,66.8 				"/>
				<polygon class="st14" points="143.5,58 144,57.7 144.5,58 144,58.2 				"/>
				<polygon class="st14" points="144.5,58.5 145,58.2 145.4,58.5 145,58.8 				"/>
				<polygon class="st14" points="145,58.8 145.4,58.5 146.4,59 146,59.3 				"/>
				<polygon class="st14" points="146.4,59.5 146.9,59.2 147.4,59.5 146.9,59.8 				"/>
				<polygon class="st14" points="147.4,60 147.9,59.8 148.4,60 147.9,60.3 				"/>
				<polygon class="st14" points="148.4,60.6 148.9,60.3 149.8,60.8 149.4,61.1 				"/>
				<polygon class="st14" points="150.8,61.8 151.3,61.5 152.3,62.1 151.8,62.4 				"/>
				<polygon class="st14" points="152.3,62.6 152.8,62.3 153.7,62.8 153.3,63.1 				"/>
				<polygon class="st14" points="153.8,63.4 154.2,63.1 154.7,63.3 154.3,63.6 				"/>
				<polygon class="st14" points="154.7,63.9 155.2,63.6 155.7,63.9 155.2,64.2 				"/>
				<polygon class="st14" points="156.2,64.7 156.7,64.4 157.2,64.6 156.7,64.9 				"/>
				<polygon class="st14" points="157.2,65.2 157.6,64.9 159.1,65.7 158.6,65.9 				"/>
				<polygon class="st14" points="159.1,66.2 159.6,65.9 160.1,66.2 159.6,66.5 				"/>
				<polygon class="st14" points="144,57.7 144.4,57.4 144.9,57.7 144.5,58 				"/>
				<polygon class="st14" points="145,58.2 145.4,57.9 145.9,58.2 145.4,58.5 				"/>
				<polygon class="st14" points="145.4,58.5 145.9,58.2 146.9,58.7 146.4,59 				"/>
				<polygon class="st14" points="146.9,59.2 147.4,58.9 147.9,59.2 147.4,59.5 				"/>
				<polygon class="st14" points="147.9,59.8 148.4,59.5 149.8,60.2 149.3,60.5 				"/>
				<polygon class="st14" points="149.8,60.8 150.3,60.5 152.3,61.5 151.8,61.8 				"/>
				<polygon class="st14" points="152.8,62.3 153.2,62 154.7,62.8 154.2,63.1 				"/>
				<polygon class="st14" points="155.2,63.6 155.7,63.3 156.2,63.6 155.7,63.9 				"/>
				<polygon class="st14" points="156.7,64.4 157.1,64.1 157.6,64.3 157.2,64.6 				"/>
				<polygon class="st14" points="157.6,64.9 158.1,64.6 159.6,65.4 159.1,65.7 				"/>
				<polygon class="st14" points="159.6,65.9 160.1,65.6 160.6,65.9 160.1,66.2 				"/>
				<polygon class="st14" points="144.4,57.4 144.9,57.1 145.4,57.4 144.9,57.7 				"/>
				<polygon class="st14" points="147.4,58.9 147.8,58.7 148.3,58.9 147.9,59.2 				"/>
				<polygon class="st14" points="148.4,59.5 148.8,59.2 149.8,59.7 149.3,60 				"/>
				<polygon class="st14" points="150.3,60.5 150.8,60.2 151.8,60.7 151.3,61 				"/>
				<polygon class="st14" points="151.8,61.3 152.2,61 154.2,62 153.7,62.3 				"/>
				<polygon class="st14" points="154.7,62.8 155.2,62.5 155.7,62.8 155.2,63.1 				"/>
				<polygon class="st14" points="156.2,63.6 156.6,63.3 157.1,63.5 156.7,63.8 				"/>
				<polygon class="st14" points="157.1,64.1 157.6,63.8 158.1,64.1 157.6,64.3 				"/>
				<polygon class="st14" points="160.1,65.6 160.5,65.3 161,65.6 160.6,65.9 				"/>
				<polygon class="st14" points="144.9,57.1 145.4,56.8 146.9,57.6 146.4,57.9 				"/>
				<polygon class="st14" points="146.4,57.9 146.9,57.6 148.8,58.6 148.3,58.9 				"/>
				<polygon class="st14" points="148.8,59.2 149.3,58.9 149.8,59.1 149.3,59.4 				"/>
				<polygon class="st14" points="149.8,59.7 150.3,59.4 150.8,59.7 150.3,59.9 				"/>
				<polygon class="st14" points="150.8,60.2 151.2,59.9 151.7,60.2 151.3,60.5 				"/>
				<polygon class="st14" points="151.8,60.7 152.2,60.4 152.7,60.7 152.2,61 				"/>
				<polygon class="st14" points="152.7,61.2 153.2,60.9 153.7,61.2 153.2,61.5 				"/>
				<polygon class="st14" points="153.7,61.7 154.2,61.5 154.7,61.7 154.2,62 				"/>
				<polygon class="st14" points="154.7,62.3 155.2,62 155.6,62.2 155.2,62.5 				"/>
				<polygon class="st14" points="155.7,62.8 156.1,62.5 156.6,62.7 156.1,63 				"/>
				<polygon class="st14" points="156.6,63.3 157.1,63 157.6,63.2 157.1,63.5 				"/>
				<polygon class="st14" points="157.6,63.8 158.1,63.5 160.5,64.8 160.1,65.1 				"/>
				<polygon class="st14" points="160.1,65.1 160.5,64.8 161.5,65.3 161,65.6 				"/>
				<polygon class="st14" points="150.3,59.4 150.7,59.1 152.2,59.9 151.7,60.2 				"/>
				<polygon class="st14" points="152.2,60.4 152.7,60.1 154.2,60.9 153.7,61.2 				"/>
				<polygon class="st14" points="155.6,62.2 156.1,61.9 156.6,62.2 156.1,62.5 				"/>
				<polygon class="st14" points="146.8,57.1 147.3,56.8 147.8,57 147.3,57.3 				"/>
				<polygon class="st14" points="147.3,57.3 147.8,57 150.2,58.3 149.8,58.6 				"/>
				<polygon class="st14" points="150.2,58.8 150.7,58.6 152.2,59.3 151.7,59.6 				"/>
				<polygon class="st14" points="152.2,59.9 152.7,59.6 153.6,60.1 153.2,60.4 				"/>
				<polygon class="st14" points="153.7,60.6 154.1,60.4 155.1,60.9 154.6,61.2 				"/>
				<polygon class="st14" points="155.1,61.4 155.6,61.1 156.1,61.4 155.6,61.7 				"/>
				<polygon class="st14" points="157.1,62.4 157.6,62.2 158,62.4 157.6,62.7 				"/>
				<polygon class="st14" points="158.1,63 158.5,62.7 159,62.9 158.5,63.2 				"/>
				<polygon class="st14" points="159,63.5 159.5,63.2 161.5,64.2 161,64.5 				"/>
				<polygon class="st14" points="161.5,64.8 161.9,64.5 162.4,64.7 162,65 				"/>
				<polygon class="st14" points="146.3,56.2 146.8,56 147.8,56.5 147.3,56.8 				"/>
				<polygon class="st14" points="148.3,57.3 148.7,57 149.7,57.5 149.3,57.8 				"/>
				<polygon class="st14" points="149.7,58 150.2,57.8 150.7,58 150.2,58.3 				"/>
				<polygon class="st14" points="152.2,59.3 152.7,59 154.1,59.8 153.6,60.1 				"/>
				<polygon class="st14" points="154.6,60.6 155.1,60.3 155.6,60.6 155.1,60.9 				"/>
				<polygon class="st14" points="156.6,61.6 157,61.3 157.5,61.6 157.1,61.9 				"/>
				<polygon class="st14" points="157.1,61.9 157.5,61.6 158.5,62.1 158,62.4 				"/>
				<polygon class="st14" points="160.5,63.7 161,63.4 161.9,63.9 161.5,64.2 				"/>
				<polygon class="st14" points="161.5,64.2 161.9,63.9 162.9,64.4 162.4,64.7 				"/>
				<polygon class="st14" points="147.3,56.2 147.8,55.9 148.2,56.2 147.8,56.5 				"/>
				<polygon class="st14" points="149.7,57.5 150.2,57.2 150.7,57.5 150.2,57.8 				"/>
				<polygon class="st14" points="150.7,58 151.2,57.7 152.6,58.5 152.2,58.8 				"/>
				<polygon class="st14" points="154.1,59.8 154.6,59.5 156.5,60.5 156.1,60.8 				"/>
				<polygon class="st14" points="157,61.3 157.5,61.1 158,61.3 157.5,61.6 				"/>
				<polygon class="st14" points="157.5,61.6 158,61.3 158.5,61.6 158,61.9 				"/>
				<polygon class="st14" points="158.5,62.1 159,61.8 159.5,62.1 159,62.4 				"/>
				<polygon class="st14" points="159.5,62.6 160,62.3 161.4,63.1 161,63.4 				"/>
				<polygon class="st14" points="147.3,55.7 147.7,55.4 148.2,55.6 147.8,55.9 				"/>
				<polygon class="st14" points="148.2,56.2 148.7,55.9 149.2,56.1 148.7,56.4 				"/>
				<polygon class="st14" points="149.2,56.7 149.7,56.4 150.2,56.7 149.7,57 				"/>
				<polygon class="st14" points="150.7,57.5 151.1,57.2 151.6,57.4 151.2,57.7 				"/>
				<polygon class="st14" points="153.1,58.7 153.6,58.5 154.1,58.7 153.6,59 				"/>
				<polygon class="st14" points="154.1,59.3 154.6,59 156,59.7 155.6,60 				"/>
				<polygon class="st14" points="157,60.8 157.5,60.5 158,60.8 157.5,61.1 				"/>
				<polygon class="st14" points="159,61.8 159.4,61.5 160.4,62.1 160,62.3 				"/>
				<polygon class="st14" points="160.9,62.9 161.4,62.6 161.9,62.8 161.4,63.1 				"/>
				<polygon class="st14" points="161.9,63.4 162.4,63.1 162.9,63.3 162.4,63.6 				"/>
				<polygon class="st14" points="162.4,63.6 162.9,63.3 163.8,63.9 163.4,64.1 				"/>
				<polygon class="st14" points="150.7,56.9 151.1,56.6 152.1,57.1 151.6,57.4 				"/>
				<polygon class="st14" points="152.1,57.7 152.6,57.4 153.6,57.9 153.1,58.2 				"/>
				<polygon class="st14" points="153.6,58.5 154.1,58.2 155,58.7 154.6,59 				"/>
				<polygon class="st14" points="155.5,59.5 156,59.2 157,59.7 156.5,60 				"/>
				<polygon class="st14" points="157,60.3 157.5,60 158,60.2 157.5,60.5 				"/>
				<polygon class="st14" points="159,61.3 159.4,61 159.9,61.2 159.4,61.5 				"/>
				<polygon class="st14" points="160.4,62.1 160.9,61.8 162.8,62.8 162.4,63.1 				"/>
				<polygon class="st14" points="163.4,63.6 163.8,63.3 164.3,63.6 163.8,63.9 				"/>
				<polygon class="st14" points="150.2,56.1 150.6,55.8 151.6,56.3 151.1,56.6 				"/>
				<polygon class="st14" points="152.1,57.1 152.6,56.9 154.5,57.9 154.1,58.2 				"/>
				<polygon class="st14" points="155.5,58.9 156,58.6 156.5,58.9 156,59.2 				"/>
				<polygon class="st14" points="156.5,59.5 157,59.2 159.4,60.4 158.9,60.7 				"/>
				<polygon class="st14" points="159.4,61 159.9,60.7 161.4,61.5 160.9,61.8 				"/>
				<polygon class="st14" points="161.9,62.3 162.3,62 162.8,62.2 162.4,62.5 				"/>
				<polygon class="st14" points="162.8,62.8 163.3,62.5 163.8,62.8 163.3,63 				"/>
				<polygon class="st14" points="163.3,63 163.8,62.8 164.8,63.3 164.3,63.6 				"/>
				<polygon class="st14" points="149.6,55.3 150.1,55 150.6,55.3 150.1,55.6 				"/>
				<polygon class="st14" points="150.6,55.8 151.1,55.5 153.5,56.8 153.1,57.1 				"/>
				<polygon class="st14" points="153.6,57.4 154,57.1 154.5,57.3 154,57.6 				"/>
				<polygon class="st14" points="154.5,57.9 155,57.6 155.5,57.8 155,58.1 				"/>
				<polygon class="st14" points="155.5,58.4 156,58.1 156.5,58.4 156,58.6 				"/>
				<polygon class="st14" points="156.5,58.9 157,58.6 157.4,58.9 157,59.2 				"/>
				<polygon class="st14" points="157.5,59.4 157.9,59.1 158.9,59.6 158.4,59.9 				"/>
				<polygon class="st14" points="158.9,60.2 159.4,59.9 159.9,60.2 159.4,60.4 				"/>
				<polygon class="st14" points="159.4,60.4 159.9,60.2 161.3,60.9 160.9,61.2 				"/>
				<polygon class="st14" points="161.9,61.7 162.3,61.4 163.3,62 162.8,62.2 				"/>
				<polygon class="st14" points="163.8,62.8 164.3,62.5 164.8,62.7 164.3,63 				"/>
				<polygon class="st14" points="149.6,54.8 150.1,54.5 151.1,55 150.6,55.3 				"/>
				<polygon class="st14" points="150.6,55.3 151.1,55 152,55.5 151.6,55.8 				"/>
				<polygon class="st14" points="154,57.1 154.5,56.8 157.9,58.6 157.4,58.9 				"/>
				<polygon class="st14" points="157.9,59.1 158.4,58.8 158.9,59.1 158.4,59.4 				"/>
				<polygon class="st14" points="159.4,59.9 159.9,59.6 160.3,59.9 159.9,60.2 				"/>
				<polygon class="st14" points="161.8,61.2 162.3,60.9 162.8,61.1 162.3,61.4 				"/>
				<polygon class="st14" points="162.8,61.7 163.3,61.4 164.7,62.2 164.3,62.5 				"/>
				<polygon class="st14" points="164.3,62.5 164.7,62.2 165.7,62.7 165.2,63 				"/>
				<polygon class="st14" points="150.1,54.5 150.6,54.2 151.5,54.7 151.1,55 				"/>
				<polygon class="st14" points="151.6,55.2 152,55 152.5,55.2 152,55.5 				"/>
				<polygon class="st14" points="152.5,55.8 153,55.5 154,56 153.5,56.3 				"/>
				<polygon class="st14" points="154,56.5 154.5,56.2 155,56.5 154.5,56.8 				"/>
				<polygon class="st14" points="155,57 155.4,56.7 156.4,57.3 156,57.6 				"/>
				<polygon class="st14" points="156.4,57.8 156.9,57.5 157.4,57.8 156.9,58.1 				"/>
				<polygon class="st14" points="157.9,58.6 158.4,58.3 159.8,59.1 159.4,59.4 				"/>
				<polygon class="st14" points="159.9,59.6 160.3,59.3 160.8,59.6 160.3,59.9 				"/>
				<polygon class="st14" points="160.8,60.1 161.3,59.8 161.8,60.1 161.3,60.4 				"/>
				<polygon class="st14" points="161.8,60.6 162.3,60.3 162.8,60.6 162.3,60.9 				"/>
				<polygon class="st14" points="162.3,60.9 162.8,60.6 163.3,60.9 162.8,61.1 				"/>
				<polygon class="st14" points="163.3,61.4 163.7,61.1 164.2,61.4 163.8,61.7 				"/>
				<polygon class="st14" points="164.3,61.9 164.7,61.6 165.2,61.9 164.7,62.2 				"/>
				<polygon class="st14" points="152,55 152.5,54.7 153.5,55.2 153,55.5 				"/>
				<polygon class="st14" points="154,56 154.5,55.7 156.4,56.7 155.9,57 				"/>
				<polygon class="st14" points="156.4,57.3 156.9,57 157.4,57.2 156.9,57.5 				"/>
				<polygon class="st14" points="157.9,58 158.4,57.7 158.8,58 158.4,58.3 				"/>
				<polygon class="st14" points="161.8,60.1 162.3,59.8 163.2,60.3 162.8,60.6 				"/>
				<polygon class="st14" points="162.8,60.6 163.2,60.3 164.2,60.8 163.7,61.1 				"/>
				<polygon class="st14" points="164.7,61.6 165.2,61.3 165.7,61.6 165.2,61.9 				"/>
				<polygon class="st14" points="165.7,62.1 166.2,61.9 166.7,62.1 166.2,62.4 				"/>
				<polygon class="st14" points="150.5,53.6 151,53.3 152,53.9 151.5,54.1 				"/>
				<polygon class="st14" points="152,54.4 152.5,54.1 153,54.4 152.5,54.7 				"/>
				<polygon class="st14" points="153,54.9 153.5,54.6 154.4,55.1 154,55.4 				"/>
				<polygon class="st14" points="154.9,55.9 155.4,55.7 155.9,55.9 155.4,56.2 				"/>
				<polygon class="st14" points="155.9,56.5 156.4,56.2 156.9,56.4 156.4,56.7 				"/>
				<polygon class="st14" points="156.9,57 157.4,56.7 158.3,57.2 157.9,57.5 				"/>
				<polygon class="st14" points="158.8,58 159.3,57.7 160.3,58.2 159.8,58.5 				"/>
				<polygon class="st14" points="160.3,58.8 160.8,58.5 161.3,58.7 160.8,59 				"/>
				<polygon class="st14" points="161.8,59.5 162.2,59.3 162.7,59.5 162.3,59.8 				"/>
				<polygon class="st14" points="163.7,60.6 164.2,60.3 164.7,60.5 164.2,60.8 				"/>
				<polygon class="st14" points="164.7,61.1 165.2,60.8 166.2,61.3 165.7,61.6 				"/>
				<polygon class="st14" points="151,53.3 151.5,53.1 152,53.3 151.5,53.6 				"/>
				<polygon class="st14" points="152,53.9 152.5,53.6 152.9,53.8 152.5,54.1 				"/>
				<polygon class="st14" points="152.5,54.1 152.9,53.8 153.4,54.1 153,54.4 				"/>
				<polygon class="st14" points="153.5,54.6 153.9,54.3 154.4,54.6 153.9,54.9 				"/>
				<polygon class="st14" points="154.4,55.1 154.9,54.9 156.4,55.6 155.9,55.9 				"/>
				<polygon class="st14" points="159.3,57.7 159.8,57.4 160.3,57.7 159.8,58 				"/>
				<polygon class="st14" points="161.8,59 162.2,58.7 164.2,59.7 163.7,60 				"/>
				<polygon class="st14" points="164.2,60.3 164.7,60 165.6,60.5 165.2,60.8 				"/>
				<polygon class="st14" points="151.5,53.1 152,52.8 153.4,53.5 152.9,53.8 				"/>
				<polygon class="st14" points="153.4,54.1 153.9,53.8 154.4,54 153.9,54.3 				"/>
				<polygon class="st14" points="154.4,54.6 154.9,54.3 155.9,54.8 155.4,55.1 				"/>
				<polygon class="st14" points="156.4,55.6 156.8,55.3 158.3,56.1 157.8,56.4 				"/>
				<polygon class="st14" points="158.3,56.6 158.8,56.4 159.3,56.6 158.8,56.9 				"/>
				<polygon class="st14" points="159.3,57.2 159.8,56.9 161.7,57.9 161.2,58.2 				"/>
				<polygon class="st14" points="161.7,58.4 162.2,58.2 162.7,58.4 162.2,58.7 				"/>
				<polygon class="st14" points="162.7,59 163.2,58.7 163.7,58.9 163.2,59.2 				"/>
				<polygon class="st14" points="163.7,59.5 164.2,59.2 164.6,59.4 164.2,59.7 				"/>
				<polygon class="st14" points="164.7,60 165.1,59.7 166.1,60.2 165.6,60.5 				"/>
				<polygon class="st14" points="166.1,60.8 166.6,60.5 167.1,60.7 166.6,61 				"/>
				<polygon class="st14" points="152,52.8 152.4,52.5 153.9,53.2 153.4,53.5 				"/>
				<polygon class="st14" points="153.4,53.5 153.9,53.2 154.9,53.8 154.4,54 				"/>
				<polygon class="st14" points="155.4,54.6 155.8,54.3 156.3,54.5 155.9,54.8 				"/>
				<polygon class="st14" points="157.8,55.8 158.3,55.6 159.3,56.1 158.8,56.4 				"/>
				<polygon class="st14" points="159.3,56.6 159.7,56.3 160.2,56.6 159.8,56.9 				"/>
				<polygon class="st14" points="160.3,57.1 160.7,56.8 162.7,57.9 162.2,58.2 				"/>
				<polygon class="st14" points="162.7,58.4 163.2,58.1 164.1,58.6 163.7,58.9 				"/>
				<polygon class="st14" points="165.6,60 166.1,59.7 167.6,60.4 167.1,60.7 				"/>
				<polygon class="st14" points="167.1,60.7 167.6,60.4 168,60.7 167.6,61 				"/>
				<polygon class="st14" points="152.4,52.5 152.9,52.2 153.4,52.4 152.9,52.7 				"/>
				<polygon class="st14" points="153.4,53 153.9,52.7 154.4,53 153.9,53.2 				"/>
				<polygon class="st14" points="154.4,53.5 154.8,53.2 155.3,53.5 154.9,53.8 				"/>
				<polygon class="st14" points="155.4,54 155.8,53.7 156.3,54 155.8,54.3 				"/>
				<polygon class="st14" points="156.3,54.5 156.8,54.2 157.3,54.5 156.8,54.8 				"/>
				<polygon class="st14" points="157.3,55 157.8,54.8 158.3,55 157.8,55.3 				"/>
				<polygon class="st14" points="158.3,55.6 158.8,55.3 159.2,55.5 158.8,55.8 				"/>
				<polygon class="st14" points="159.7,56.3 160.2,56 161.2,56.5 160.7,56.8 				"/>
				<polygon class="st14" points="161.7,57.4 162.2,57.1 162.7,57.3 162.2,57.6 				"/>
				<polygon class="st14" points="162.7,57.9 163.1,57.6 163.6,57.8 163.2,58.1 				"/>
				<polygon class="st14" points="163.7,58.4 164.1,58.1 165.1,58.6 164.6,58.9 				"/>
				<polygon class="st14" points="165.1,59.2 165.6,58.9 166.1,59.1 165.6,59.4 				"/>
				<polygon class="st14" points="166.1,59.7 166.6,59.4 167.1,59.6 166.6,59.9 				"/>
				<polygon class="st14" points="167.6,60.4 168,60.1 168.5,60.4 168,60.7 				"/>
				<polygon class="st14" points="152.9,52.2 153.4,51.9 153.8,52.2 153.4,52.4 				"/>
				<polygon class="st14" points="155.3,53.5 155.8,53.2 156.3,53.4 155.8,53.7 				"/>
				<polygon class="st14" points="156.3,54 156.8,53.7 158.2,54.5 157.8,54.8 				"/>
				<polygon class="st14" points="158.3,55 158.7,54.7 159.2,55 158.8,55.3 				"/>
				<polygon class="st14" points="160.7,56.3 161.2,56 162.1,56.5 161.7,56.8 				"/>
				<polygon class="st14" points="162.2,57.1 162.6,56.8 164.1,57.5 163.6,57.8 				"/>
				<polygon class="st14" points="164.6,58.3 165.1,58.1 165.6,58.3 165.1,58.6 				"/>
				<polygon class="st14" points="165.6,58.9 166.1,58.6 167,59.1 166.6,59.4 				"/>
				<polygon class="st14" points="167.1,59.6 167.5,59.3 168,59.6 167.5,59.9 				"/>
				<polygon class="st14" points="168.5,60.4 169,60.1 169.5,60.4 169,60.7 				"/>
				<polygon class="st14" points="154.3,52.4 154.8,52.1 155.3,52.4 154.8,52.7 				"/>
				<polygon class="st14" points="154.8,52.7 155.3,52.4 155.8,52.6 155.3,52.9 				"/>
				<polygon class="st14" points="155.8,53.2 156.3,52.9 157.2,53.4 156.8,53.7 				"/>
				<polygon class="st14" points="157.3,53.9 157.7,53.7 158.2,53.9 157.8,54.2 				"/>
				<polygon class="st14" points="159.2,55 159.7,54.7 161.2,55.5 160.7,55.7 				"/>
				<polygon class="st14" points="161.2,56 161.6,55.7 162.1,56 161.7,56.3 				"/>
				<polygon class="st14" points="163.1,57 163.6,56.7 164.1,57 163.6,57.3 				"/>
				<polygon class="st14" points="165.1,58.1 165.5,57.8 166.5,58.3 166.1,58.6 				"/>
				<polygon class="st14" points="166.1,58.6 166.5,58.3 168,59.1 167.5,59.3 				"/>
				<polygon class="st14" points="168,59.6 168.5,59.3 169,59.6 168.5,59.9 				"/>
				<polygon class="st14" points="169,60.1 169.5,59.8 169.9,60.1 169.5,60.4 				"/>
				<polygon class="st14" points="158.2,53.9 158.7,53.6 159.7,54.1 159.2,54.4 				"/>
				<polygon class="st14" points="159.7,54.7 160.2,54.4 160.6,54.7 160.2,54.9 				"/>
				<polygon class="st14" points="161.6,55.7 162.1,55.4 162.6,55.7 162.1,56 				"/>
				<polygon class="st14" points="163.6,56.7 164.1,56.4 165,57 164.6,57.3 				"/>
				<polygon class="st14" points="165.1,57.5 165.5,57.2 166.5,57.7 166,58 				"/>
				<polygon class="st14" points="167.5,58.8 168,58.5 168.9,59 168.5,59.3 				"/>
				<polygon class="st14" points="169,59.6 169.4,59.3 169.9,59.5 169.5,59.8 				"/>
				<polygon class="st14" points="154.3,51.3 154.8,51 156.2,51.8 155.8,52.1 				"/>
				<polygon class="st14" points="155.8,52.1 156.2,51.8 158.2,52.8 157.7,53.1 				"/>
				<polygon class="st14" points="158.2,53.4 158.7,53.1 160.6,54.1 160.2,54.4 				"/>
				<polygon class="st14" points="160.6,54.7 161.1,54.4 161.6,54.6 161.1,54.9 				"/>
				<polygon class="st14" points="162.6,55.7 163.1,55.4 164,55.9 163.6,56.2 				"/>
				<polygon class="st14" points="164.6,56.7 165,56.4 165.5,56.7 165,57 				"/>
				<polygon class="st14" points="166,57.5 166.5,57.2 167,57.4 166.5,57.7 				"/>
				<polygon class="st14" points="167,58 167.5,57.7 168,58 167.5,58.2 				"/>
				<polygon class="st14" points="168,58.5 168.4,58.2 168.9,58.5 168.5,58.8 				"/>
				<polygon class="st14" points="168.9,59 169.4,58.7 169.9,59 169.4,59.3 				"/>
				<polygon class="st14" points="154.8,51 155.2,50.7 155.7,51 155.3,51.3 				"/>
				<polygon class="st14" points="157.7,52.6 158.2,52.3 158.7,52.5 158.2,52.8 				"/>
				<polygon class="st14" points="158.7,53.1 159.1,52.8 159.6,53 159.2,53.3 				"/>
				<polygon class="st14" points="160.6,54.1 161.1,53.8 164,55.4 163.6,55.6 				"/>
				<polygon class="st14" points="165,56.4 165.5,56.1 166,56.4 165.5,56.7 				"/>
				<polygon class="st14" points="166.5,57.2 167,56.9 167.4,57.2 167,57.4 				"/>
				<polygon class="st14" points="168.4,58.2 168.9,57.9 170.4,58.7 169.9,59 				"/>
				<polygon class="st14" points="169.9,59 170.4,58.7 171.3,59.2 170.9,59.5 				"/>
				<polygon class="st14" points="155.2,50.7 155.7,50.4 156.2,50.7 155.7,51 				"/>
				<polygon class="st14" points="156.2,51.2 156.7,51 157.2,51.2 156.7,51.5 				"/>
				<polygon class="st14" points="156.7,51.5 157.2,51.2 158.1,51.7 157.7,52 				"/>
				<polygon class="st14" points="158.2,52.3 158.6,52 159.1,52.2 158.7,52.5 				"/>
				<polygon class="st14" points="159.1,52.8 159.6,52.5 160.1,52.8 159.6,53 				"/>
				<polygon class="st14" points="160.1,53.3 160.6,53 162.1,53.8 161.6,54.1 				"/>
				<polygon class="st14" points="162.1,54.3 162.5,54 163,54.3 162.6,54.6 				"/>
				<polygon class="st14" points="163,54.8 163.5,54.6 164,54.8 163.5,55.1 				"/>
				<polygon class="st14" points="164,55.4 164.5,55.1 166,55.8 165.5,56.1 				"/>
				<polygon class="st14" points="167,56.9 167.4,56.6 168.4,57.1 167.9,57.4 				"/>
				<polygon class="st14" points="167.9,57.4 168.4,57.1 170.4,58.1 169.9,58.4 				"/>
				<polygon class="st14" points="170.4,58.7 170.8,58.4 171.8,58.9 171.3,59.2 				"/>
				<polygon class="st14" points="155.7,50.4 156.2,50.2 156.7,50.4 156.2,50.7 				"/>
				<polygon class="st14" points="156.7,51 157.2,50.7 157.6,50.9 157.2,51.2 				"/>
				<polygon class="st14" points="157.2,51.2 157.6,50.9 158.6,51.4 158.1,51.7 				"/>
				<polygon class="st14" points="158.6,52 159.1,51.7 159.6,51.9 159.1,52.2 				"/>
				<polygon class="st14" points="159.6,52.5 160.1,52.2 161.1,52.7 160.6,53 				"/>
				<polygon class="st14" points="161.1,53.3 161.5,53 164,54.3 163.5,54.6 				"/>
				<polygon class="st14" points="164,54.8 164.5,54.5 165,54.8 164.5,55.1 				"/>
				<polygon class="st14" points="165,55.3 165.5,55 166.4,55.5 166,55.8 				"/>
				<polygon class="st14" points="166.4,56.1 166.9,55.8 167.9,56.3 167.4,56.6 				"/>
				<polygon class="st14" points="169.4,57.6 169.8,57.3 171.3,58.1 170.8,58.4 				"/>
				<polygon class="st14" points="170.8,58.4 171.3,58.1 171.8,58.4 171.3,58.7 				"/>
				<polygon class="st14" points="156.2,50.2 156.6,49.9 157.1,50.1 156.7,50.4 				"/>
				<polygon class="st14" points="157.2,50.7 157.6,50.4 158.1,50.6 157.6,50.9 				"/>
				<polygon class="st14" points="157.6,50.9 158.1,50.6 159.1,51.1 158.6,51.4 				"/>
				<polygon class="st14" points="159.1,51.7 159.6,51.4 160.1,51.7 159.6,51.9 				"/>
				<polygon class="st14" points="160.1,52.2 160.6,51.9 162.5,52.9 162,53.2 				"/>
				<polygon class="st14" points="162.5,53.5 163,53.2 163.5,53.5 163,53.7 				"/>
				<polygon class="st14" points="163.5,54 164,53.7 164.5,54 164,54.3 				"/>
				<polygon class="st14" points="164.5,54.5 164.9,54.2 166.4,55 165.9,55.3 				"/>
				<polygon class="st14" points="166.4,55.5 166.9,55.3 167.4,55.5 166.9,55.8 				"/>
				<polygon class="st14" points="166.9,55.8 167.4,55.5 168.4,56 167.9,56.3 				"/>
				<polygon class="st14" points="168.4,56.6 168.9,56.3 169.3,56.5 168.9,56.8 				"/>
				<polygon class="st14" points="168.9,56.8 169.3,56.5 170.3,57.1 169.8,57.3 				"/>
				<polygon class="st14" points="170.8,57.9 171.3,57.6 171.8,57.8 171.3,58.1 				"/>
				<polygon class="st14" points="171.3,58.1 171.8,57.8 172.3,58.1 171.8,58.4 				"/>
				<polygon class="st14" points="156.6,49.9 157.1,49.6 157.6,49.8 157.1,50.1 				"/>
				<polygon class="st14" points="159.6,51.4 160,51.1 160.5,51.4 160.1,51.7 				"/>
				<polygon class="st14" points="161.5,52.4 162,52.1 162.5,52.4 162,52.7 				"/>
				<polygon class="st14" points="162.5,52.9 163,52.7 164.4,53.4 164,53.7 				"/>
				<polygon class="st14" points="165.4,54.5 165.9,54.2 166.4,54.5 165.9,54.7 				"/>
				<polygon class="st14" points="166.4,55 166.9,54.7 167.4,55 166.9,55.3 				"/>
				<polygon class="st14" points="167.4,55.5 167.9,55.2 168.8,55.7 168.4,56 				"/>
				<polygon class="st14" points="169.3,56.5 169.8,56.2 171.3,57 170.8,57.3 				"/>
				<polygon class="st14" points="172.3,58.1 172.7,57.8 173.2,58 172.8,58.3 				"/>
				<polygon class="st14" points="157.1,49.6 157.6,49.3 159,50.1 158.6,50.3 				"/>
				<polygon class="st14" points="158.6,50.3 159,50.1 161,51.1 160.5,51.4 				"/>
				<polygon class="st14" points="161.5,51.9 162,51.6 162.5,51.8 162,52.1 				"/>
				<polygon class="st14" points="163.5,52.9 163.9,52.6 164.4,52.9 163.9,53.2 				"/>
				<polygon class="st14" points="164.9,53.7 165.4,53.4 166.4,53.9 165.9,54.2 				"/>
				<polygon class="st14" points="166.4,54.5 166.9,54.2 168.3,54.9 167.9,55.2 				"/>
				<polygon class="st14" points="168.3,55.5 168.8,55.2 170.3,56 169.8,56.2 				"/>
				<polygon class="st14" points="171.3,57 171.7,56.7 172.2,57 171.8,57.3 				"/>
			</g>
		</g>
	</g>
	<g>
		<g class="st0">
			
				<image style="overflow:visible;" width="183" height="147" xlink:href="61DEF43BCA8A4474.png"  transform="matrix(1 0 0 1 -5 14)">
			</image>
		</g>
		<g>
			<g>
				<g>
					<path class="st16" d="M88.3,102.8c-3.1,0-6-0.6-8.2-1.8L76.5,99l-2.3-1.2c-1.1-0.6-1.8-1.5-2-2.6c0-0.1,0-0.3,0-0.4
						c0-0.1,0-0.1,0-0.2v-7.9c0-0.2-0.1-0.3-0.1-0.5c0-0.2,0-0.5,0-0.8c-0.4-0.3-0.7-0.5-1.1-0.7c-2.3-1.2-5.4-1.9-8.7-1.9
						c-2.7,0-5.4,0.5-7.7,1.3c-1,0.4-2.1,0.6-3.2,0.6c-1.2,0-2.3-0.2-3.3-0.7l-6.2-3.3c-2.7-1.4-4.2-3.5-4.3-5.8c0-0.1,0-0.2,0-0.3
						c0-0.1,0-0.1,0-0.2v-8.1c0-0.1,0-0.2,0-0.4c-0.1-2.3,1.3-4.5,3.9-6.1l30.1-18.6c2.5-1.6,6-2.4,9.6-2.4c3.1,0,6,0.6,8.2,1.8
						l6,3.1c0.6,0.3,1.4,0.5,2.2,0.5c0.7,0,1.4-0.1,2-0.4c0,0,0.1,0,0.1,0c2.6-1,5.6-1.5,8.7-1.5c3.7,0,7.3,0.8,10,2.2
						c2.9,1.5,4.7,3.7,5.1,6.1c0.1,0.8,0.1,1.6-0.1,2.4l0,5.4l4.2,2.2c2.7,1.4,4.2,3.5,4.3,5.8c0,0.2,0,0.4,0,0.7c0,0.2,0,0.4,0,0.6
						l0,7.6c-0.1,2.4-1.4,4.5-3.9,6.1l-30.1,18.6C95.4,101.9,91.9,102.8,88.3,102.8z"/>
					<path class="st17" d="M81.3,39.4c3,0,5.9,0.6,8.1,1.8l3.7,1.9l2.3,1.2l0,0l0,0l0,0c0.6,0.3,1.4,0.5,2.3,0.5
						c0.8,0,1.5-0.1,2.1-0.4c0,0,0.1,0,0.1,0c2.6-1,5.6-1.5,8.6-1.5c0,0,0,0,0,0c3.7,0,7.2,0.8,9.8,2.2c2.8,1.5,4.5,3.6,4.9,5.9
						c0.1,0.8,0.1,1.5-0.1,2.3v5.7l1.7,0.9l2.6,1.4c2.6,1.4,4,3.3,4.1,5.5c0,0.5,0,0.9,0,1.3v7.6c-0.1,2.2-1.2,4.3-3.7,5.8
						l-11.9,7.4l-6.3,3.9L97.8,100c-2.5,1.5-5.9,2.4-9.4,2.4c-3,0-5.9-0.6-8-1.8l-3.7-1.9l-2.3-1.2c-1.1-0.6-1.7-1.4-1.8-2.4
						c0-0.2,0-0.3,0-0.5v-8c0-0.2-0.1-0.3-0.1-0.5c0-0.3,0-0.6,0-0.9c-0.4-0.3-0.8-0.6-1.3-0.9c-2.4-1.2-5.5-1.9-8.8-1.9
						c-2.8,0-5.5,0.5-7.8,1.4c0,0,0,0-0.1,0c-0.9,0.4-1.9,0.5-3,0.5c-1.2,0-2.2-0.2-3.1-0.7l0,0l-0.2-0.1l0,0L44.7,82l-2.6-1.4
						c-2.6-1.4-4-3.3-4.1-5.5c0-0.1,0-0.3,0-0.4v-8.1c0-0.1,0-0.3,0-0.4c-0.1-2.2,1.2-4.2,3.7-5.8L53.6,53l6.3-3.9l11.9-7.4
						C74.3,40.2,77.7,39.4,81.3,39.4 M81.3,38.7c-3.6,0-7.2,0.9-9.8,2.5l-11.9,7.4l-6.3,3.9l-11.9,7.4c-2.7,1.7-4.1,3.9-4,6.4
						c0,0.1,0,0.3,0,0.4v8.1c0,0.1,0,0.1,0,0.2c0,0.1,0,0.2,0,0.3c0.1,2.4,1.7,4.6,4.5,6.1l2.6,1.4l3.3,1.7l0.2,0.1
						c0.1,0,0.1,0.1,0.2,0.1c1,0.4,2.1,0.7,3.3,0.7c1.1,0,2.2-0.2,3.2-0.6c0,0,0.1,0,0.1,0c2.3-0.9,4.9-1.3,7.6-1.3
						c3.3,0,6.3,0.6,8.5,1.8c0.3,0.2,0.6,0.4,0.9,0.6c0,0.2,0,0.4,0,0.6c0,0.2,0.1,0.3,0.1,0.5v7.9c0,0,0,0.1,0,0.1
						c0,0.1,0,0.3,0,0.4c0.2,1.2,0.9,2.2,2.1,2.9l2.3,1.2l3.7,1.9c2.3,1.2,5.3,1.9,8.4,1.9c3.6,0,7.2-0.9,9.8-2.5l11.9-7.4l6.3-3.9
						l11.9-7.4c2.6-1.6,4-3.8,4-6.3l0-7.6c0,0,0,0,0-0.1c0-0.2,0-0.4,0-0.6c0-0.2,0-0.4,0-0.7c-0.1-2.4-1.7-4.6-4.5-6.1l-2.6-1.4
						l-1.4-0.7v-5.2c0.2-0.8,0.2-1.7,0.1-2.5c-0.4-2.5-2.3-4.8-5.3-6.4c-2.8-1.5-6.4-2.3-10.1-2.3c-3.1,0-6.2,0.5-8.9,1.6
						c-0.1,0-0.1,0-0.1,0.1c-0.5,0.2-1.2,0.3-1.9,0.3c-0.8,0-1.5-0.1-2-0.4l-0.3,0.6l0.3-0.6l-2.3-1.2l-3.7-1.9
						C87.3,39.4,84.4,38.7,81.3,38.7L81.3,38.7z"/>
				</g>
				<defs>
					<filter id="Adobe_OpacityMaskFilter_4_" filterUnits="userSpaceOnUse" x="37.3" y="38.7" width="95" height="64.4">
						
							<feColorMatrix  type="matrix" values="-1 0 0 0 1  0 -1 0 0 1  0 0 -1 0 1  0 0 0 1 0" color-interpolation-filters="sRGB" result="source"/>
					</filter>
				</defs>
				<mask maskUnits="userSpaceOnUse" x="37.3" y="38.7" width="95" height="64.4" id="SVGID_5_">
					<g class="st18">
						
							<image style="overflow:visible;" width="100" height="70" xlink:href="61DEF43BCA8A4474.jpg"  transform="matrix(1 0 0 1 35 36)">
						</image>
					</g>
				</mask>
				<g class="st19">
					<path d="M88.3,102.8c-3.1,0-6-0.6-8.2-1.8L76.5,99l-2.3-1.2c-1.1-0.6-1.8-1.5-2-2.6c0-0.1,0-0.3,0-0.4c0-0.1,0-0.1,0-0.2v-7.9
						c0-0.2-0.1-0.3-0.1-0.5c0-0.2,0-0.5,0-0.8c-0.4-0.3-0.7-0.5-1.1-0.7c-2.3-1.2-5.4-1.9-8.7-1.9c-2.7,0-5.4,0.5-7.7,1.3
						c-1,0.4-2.1,0.6-3.2,0.6c-1.2,0-2.3-0.2-3.3-0.7l-6.2-3.3c-2.7-1.4-4.2-3.5-4.3-5.8c0-0.1,0-0.2,0-0.3c0-0.1,0-0.1,0-0.2v-8.1
						c0-0.1,0-0.2,0-0.4c-0.1-2.3,1.3-4.5,3.9-6.1l30.1-18.6c2.5-1.6,6-2.4,9.6-2.4c3.1,0,6,0.6,8.2,1.8l6,3.1
						c0.6,0.3,1.4,0.5,2.2,0.5c0.7,0,1.4-0.1,2-0.4c0,0,0.1,0,0.1,0c2.6-1,5.6-1.5,8.7-1.5c3.7,0,7.3,0.8,10,2.2
						c2.9,1.5,4.7,3.7,5.1,6.1c0.1,0.8,0.1,1.6-0.1,2.4l0,5.4l4.2,2.2c2.7,1.4,4.2,3.5,4.3,5.8c0,0.2,0,0.4,0,0.7c0,0.2,0,0.4,0,0.6
						l0,7.6c-0.1,2.4-1.4,4.5-3.9,6.1l-30.1,18.6C95.4,101.9,91.9,102.8,88.3,102.8z"/>
					<path d="M81.3,39.4c3,0,5.9,0.6,8.1,1.8l3.7,1.9l2.3,1.2l0,0l0,0l0,0c0.6,0.3,1.4,0.5,2.3,0.5c0.8,0,1.5-0.1,2.1-0.4
						c0,0,0.1,0,0.1,0c2.6-1,5.6-1.5,8.6-1.5c0,0,0,0,0,0c3.7,0,7.2,0.8,9.8,2.2c2.8,1.5,4.5,3.6,4.9,5.9c0.1,0.8,0.1,1.5-0.1,2.3
						v5.7l1.7,0.9l2.6,1.4c2.6,1.4,4,3.3,4.1,5.5c0,0.5,0,0.9,0,1.3v7.6c-0.1,2.2-1.2,4.3-3.7,5.8l-11.9,7.4l-6.3,3.9L97.8,100
						c-2.5,1.5-5.9,2.4-9.4,2.4c-3,0-5.9-0.6-8-1.8l-3.7-1.9l-2.3-1.2c-1.1-0.6-1.7-1.4-1.8-2.4c0-0.2,0-0.3,0-0.5v-8
						c0-0.2-0.1-0.3-0.1-0.5c0-0.3,0-0.6,0-0.9c-0.4-0.3-0.8-0.6-1.3-0.9c-2.4-1.2-5.5-1.9-8.8-1.9c-2.8,0-5.5,0.5-7.8,1.4
						c0,0,0,0-0.1,0c-0.9,0.4-1.9,0.5-3,0.5c-1.2,0-2.2-0.2-3.1-0.7l0,0l-0.2-0.1l0,0L44.7,82l-2.6-1.4c-2.6-1.4-4-3.3-4.1-5.5
						c0-0.1,0-0.3,0-0.4v-8.1c0-0.1,0-0.3,0-0.4c-0.1-2.2,1.2-4.2,3.7-5.8L53.6,53l6.3-3.9l11.9-7.4C74.3,40.2,77.7,39.4,81.3,39.4
						 M81.3,38.7c-3.6,0-7.2,0.9-9.8,2.5l-11.9,7.4l-6.3,3.9l-11.9,7.4c-2.7,1.7-4.1,3.9-4,6.4c0,0.1,0,0.3,0,0.4v8.1
						c0,0.1,0,0.1,0,0.2c0,0.1,0,0.2,0,0.3c0.1,2.4,1.7,4.6,4.5,6.1l2.6,1.4l3.3,1.7l0.2,0.1c0.1,0,0.1,0.1,0.2,0.1
						c1,0.4,2.1,0.7,3.3,0.7c1.1,0,2.2-0.2,3.2-0.6c0,0,0.1,0,0.1,0c2.3-0.9,4.9-1.3,7.6-1.3c3.3,0,6.3,0.6,8.5,1.8
						c0.3,0.2,0.6,0.4,0.9,0.6c0,0.2,0,0.4,0,0.6c0,0.2,0.1,0.3,0.1,0.5v7.9c0,0,0,0.1,0,0.1c0,0.1,0,0.3,0,0.4
						c0.2,1.2,0.9,2.2,2.1,2.9l2.3,1.2l3.7,1.9c2.3,1.2,5.3,1.9,8.4,1.9c3.6,0,7.2-0.9,9.8-2.5l11.9-7.4l6.3-3.9l11.9-7.4
						c2.6-1.6,4-3.8,4-6.3l0-7.6c0,0,0,0,0-0.1c0-0.2,0-0.4,0-0.6c0-0.2,0-0.4,0-0.7c-0.1-2.4-1.7-4.6-4.5-6.1l-2.6-1.4l-1.4-0.7
						v-5.2c0.2-0.8,0.2-1.7,0.1-2.5c-0.4-2.5-2.3-4.8-5.3-6.4c-2.8-1.5-6.4-2.3-10.1-2.3c-3.1,0-6.2,0.5-8.9,1.6
						c-0.1,0-0.1,0-0.1,0.1c-0.5,0.2-1.2,0.3-1.9,0.3c-0.8,0-1.5-0.1-2-0.4l-0.3,0.6l0.3-0.6l-2.3-1.2l-3.7-1.9
						C87.3,39.4,84.4,38.7,81.3,38.7L81.3,38.7z"/>
				</g>
			</g>
			<path class="st16" d="M132,75.6V66h-3v4.5c0-0.1-0.8-0.3-1.1-0.4l-2.8-1.4l-3.4-1.8c-0.4-0.2-0.8-0.5-0.8-0.8
				c0-0.2,0.2-0.5,0.3-0.6l0,0l0.3,0c1.6-1.6,2.5-3.6,2.5-5.5v-9h-4v3.6c0-0.3-1-0.5-1.4-0.7c-2.7-1.4-6.3-2.2-9.9-2.2
				c-3.1,0-6.1,0.5-8.7,1.5c0,0-0.1,0-0.1,0c-0.6,0.2-1.4,0.4-2.2,0.4c-0.9,0-1.7-0.2-2.3-0.5l0,0l0,0l0,0L93,51.9L89.4,50
				c-2.2-1.2-5-1.8-8.1-1.8c-3.5,0-7,0.9-9.4,2.4L60,58l-6.3,3.9L42,69.2c-0.1,0.1,0,0.1,0,0.2V66h-4v8.5c0,0.1,0,0.3,0,0.4
				c0.1,2.2,1.6,4.1,4.1,5.5l2.7,1.4l3.3,1.7l0,0l0.2,0.1l0.1,0c0.9,0.4,2,0.7,3.1,0.7c1,0,2.1-0.2,3-0.5c0,0,0.1,0,0.1,0
				c2.3-0.9,5-1.4,7.8-1.4c3.3,0,6.5,0.3,8.8,1.6c0.8,0.4,1.4,1,2,1H73v9.5c0,0.2-0.2,0.3-0.2,0.5c0.1,1,0.6,1.8,1.7,2.4l2.3,1.2
				l3.6,1.9c2.2,1.2,5,1.8,8,1.8c3.5,0,7-0.9,9.4-2.4l11.9-7.4l6.3-3.9l12.2-7.4c2.5-1.5,3.8-3.8,3.8-5.9V75.6z"/>
			<g>
				<path class="st20" d="M127.5,61.1l-2.6-1.4l-3.3-1.8c-0.4-0.2-0.7-0.5-0.8-0.8c0-0.2,0.2-0.5,0.3-0.6l0,0l0,0
					c1.7-1.7,2.4-3.8,2.1-5.8c-0.4-2.3-2.1-4.4-4.9-5.9c-2.7-1.4-6.2-2.2-9.8-2.2c-3.1,0-6,0.5-8.6,1.5c0,0-0.1,0-0.1,0
					c-0.6,0.2-1.4,0.4-2.1,0.4c-0.9,0-1.7-0.2-2.3-0.5l0,0l0,0l0,0L93,43l-3.7-1.9c-2.2-1.2-5-1.8-8.1-1.8c-3.5,0-7,0.9-9.4,2.4
					L59.9,49l-6.3,3.9l-11.9,7.4c-2.5,1.5-3.8,3.6-3.7,5.8c0.1,2.2,1.5,4.1,4.1,5.5l2.6,1.4l3.3,1.7l0,0l0.2,0.1l0,0
					c0.9,0.4,2,0.6,3.1,0.6c1,0,2.1-0.2,3-0.5c0,0,0.1,0,0.1,0c2.3-0.9,5-1.4,7.8-1.4c3.3,0,6.5,0.7,8.8,1.9
					c2.2,1.2,3.5,2.7,3.8,4.3c0.2,1.3-0.3,2.7-1.5,3.9c-0.7,0.7-1.1,1.6-1,2.4c0.1,1,0.8,1.8,1.8,2.4l2.4,1.2l3.7,1.9
					c2.2,1.1,5,1.8,8.1,1.8c3.5,0,7-0.9,9.4-2.4l11.9-7.4l6.3-3.9l11.9-7.4c2.5-1.5,3.8-3.6,3.7-5.8
					C131.5,64.4,130.1,62.5,127.5,61.1z"/>
				<g>
					<g>
						<path class="st16" d="M98.2,56.8l-14,0.5c-1.2,0-2.2,0.6-2.1,1.3c0,0.7,1,1.2,2.2,1.2l8.7-0.3l-14.5,9
							c-0.8,0.5-0.8,1.3,0.1,1.8c0.9,0.5,2.2,0.4,3.1-0.1l14.5-9l0.2,5c0,0.7,1,1.2,2.2,1.2c0.6,0,1.1-0.2,1.5-0.4
							c0.4-0.2,0.6-0.6,0.6-0.9l-0.3-8C100.3,57.3,99.4,56.8,98.2,56.8"/>
					</g>
					<defs>
						<filter id="Adobe_OpacityMaskFilter_5_" filterUnits="userSpaceOnUse" x="77.9" y="56.8" width="22.7" height="13.7">
							
								<feColorMatrix  type="matrix" values="-1 0 0 0 1  0 -1 0 0 1  0 0 -1 0 1  0 0 0 1 0" color-interpolation-filters="sRGB" result="source"/>
						</filter>
					</defs>
					<mask maskUnits="userSpaceOnUse" x="77.9" y="56.8" width="22.7" height="13.7" id="SVGID_6_">
						<g class="st21">
							
								<image style="overflow:visible;" width="28" height="19" xlink:href="61DEF43BCA8A4475.jpg"  transform="matrix(1 0 0 1 75 54)">
							</image>
						</g>
					</mask>
					<g class="st22">
						<path d="M98.2,56.8l-14,0.5c-1.2,0-2.2,0.6-2.1,1.3c0,0.7,1,1.2,2.2,1.2l8.7-0.3l-14.5,9c-0.8,0.5-0.8,1.3,0.1,1.8
							c0.9,0.5,2.2,0.4,3.1-0.1l14.5-9l0.2,5c0,0.7,1,1.2,2.2,1.2c0.6,0,1.1-0.2,1.5-0.4c0.4-0.2,0.6-0.6,0.6-0.9l-0.3-8
							C100.3,57.3,99.4,56.8,98.2,56.8"/>
					</g>
				</g>
			</g>
		</g>
	</g>
</g>
</svg>
