<?xml version="1.0" encoding="utf-8"?>
<!-- Generator: Adobe Illustrator 19.1.0, SVG Export Plug-In . SVG Version: 6.00 Build 0)  -->
<svg version="1.1" id="Capa_1" xmlns="http://www.w3.org/2000/svg" xmlns:xlink="http://www.w3.org/1999/xlink" x="0px" y="0px"
	 viewBox="0 0 200 200" style="enable-background:new 0 0 200 200;" xml:space="preserve">
<style type="text/css">
	.st0{fill:#EFCE36;stroke:#472728;stroke-width:3.0546;stroke-miterlimit:10;}
	.st1{fill:#EFCE36;}
	.st2{fill:none;stroke:#472728;stroke-width:3.0546;stroke-miterlimit:10;}
	.st3{fill:#512710;}
	.st4{fill:#009245;}
	.st5{fill:#FFFFFF;}
</style>
<path class="st0" d="M27.5,41.6c0-4,3.2-7.2,7.2-7.2c0,0,17.9,0,39.9,0c5.1,0,10.5,14.4,15.9,14.4c32.5,0,67.3,0,67.3,0
	c4,0,7.2,3.2,7.2,7.2v3.6H27.6v-18H27.5z"/>
<g>
	
		<image style="overflow:visible;opacity:0.5;" width="185" height="120" xlink:href="328340C38EA90DB5.png"  transform="matrix(1 0 0 1 4.3835 47.3835)">
	</image>
	<g>
		<g>
			<path class="st1" d="M168.5,146.6c0,4-3.2,7.2-7.2,7.2H31.3c-4,0-7.2-3.2-7.2-7.2l-7.2-79.6c0-4,3.2-7.2,7.2-7.2h144.7
				c4,0,7.2,3.2,7.2,7.2L168.5,146.6z"/>
		</g>
		<g>
			<path class="st2" d="M168.5,146.6c0,4-3.2,7.2-7.2,7.2H31.3c-4,0-7.2-3.2-7.2-7.2l-7.2-79.6c0-4,3.2-7.2,7.2-7.2h144.7
				c4,0,7.2,3.2,7.2,7.2L168.5,146.6z"/>
		</g>
	</g>
</g>
<g>
	
		<image style="overflow:visible;opacity:0.5;" width="129" height="27" xlink:href="328340C38EA90DB4.png"  transform="matrix(1 0 0 1 32.0607 93.0607)">
	</image>
	<g>
		<g>
			<path class="st3" d="M35.9,97.6h4.2v7.7l7-7.7h5.1l-7.4,8.2c0.6,0.9,1.8,2.5,3.5,5c1.7,2.4,3,4.2,3.9,5.4h-4.9l-5.5-7.4l-1.9,2.1
				v5.3h-4.2V97.6z"/>
			<path class="st3" d="M54.8,100.1c-0.5-0.5-0.7-1-0.7-1.7c0-0.7,0.2-1.2,0.7-1.7c0.5-0.5,1-0.7,1.7-0.7s1.2,0.2,1.7,0.7
				c0.5,0.5,0.7,1,0.7,1.7c0,0.7-0.2,1.2-0.7,1.7c-0.5,0.5-1,0.7-1.7,0.7S55.2,100.6,54.8,100.1z M58.4,116.3h-4v-14.3h4V116.3z"/>
			<path class="st3" d="M68,116.5c-1.7,0-3.2-0.7-4.5-2.2c-1.3-1.4-2-3.2-2-5.4s0.6-3.9,1.9-5.2c1.3-1.4,2.8-2,4.6-2
				s3.2,0.6,4.3,1.8v-7h4v19.8h-4v-1.9C71.1,115.8,69.7,116.5,68,116.5z M65.5,109.1c0,1.2,0.3,2.1,1,2.8c0.7,0.7,1.5,1.1,2.4,1.1
				c0.9,0,1.7-0.4,2.4-1.1c0.6-0.7,1-1.7,1-2.9c0-1.2-0.3-2.1-1-2.9c-0.6-0.8-1.4-1.2-2.4-1.2c-0.9,0-1.8,0.4-2.4,1.2
				C65.8,107,65.5,108,65.5,109.1z"/>
			<path class="st3" d="M90.8,111.8c0,1.4-0.5,2.5-1.6,3.4c-1,0.9-2.4,1.3-4,1.3c-1.1,0-2.2-0.2-3.3-0.6s-2.2-0.9-3.1-1.7l1.8-2.5
				c1.5,1.2,3.1,1.7,4.8,1.7c0.5,0,0.9-0.1,1.2-0.3c0.3-0.2,0.5-0.5,0.5-0.8c0-0.3-0.2-0.6-0.6-0.9c-0.4-0.3-1-0.6-1.8-0.8
				c-0.8-0.2-1.4-0.5-1.8-0.6c-0.4-0.2-0.9-0.4-1.4-0.8c-1.1-0.7-1.6-1.7-1.6-3c0-1.3,0.5-2.4,1.6-3.2c1.1-0.8,2.4-1.3,4.1-1.3
				c1.7,0,3.4,0.6,5.1,1.7l-1.5,2.7c-1.2-0.9-2.5-1.3-3.7-1.3c-1.2,0-1.9,0.3-1.9,1c0,0.4,0.2,0.7,0.6,0.9c0.4,0.2,1,0.5,1.9,0.7
				c0.9,0.3,1.6,0.5,1.9,0.7c0.4,0.2,0.8,0.4,1.4,0.7C90.3,109.4,90.8,110.4,90.8,111.8z"/>
			<path class="st3" d="M100.7,112.9c1.3,0,2.5-0.7,3.6-2l2.4,2.7c-1.8,1.9-3.8,2.9-6,2.9c-2.2,0-4-0.7-5.5-2
				c-1.5-1.4-2.2-3.1-2.2-5.3c0-2.2,0.8-4,2.3-5.4c1.5-1.4,3.3-2.1,5.3-2.1c1,0,2.1,0.2,3.1,0.6c1.1,0.4,2,1.1,2.8,1.9l-2.1,2.7
				c-0.5-0.6-1-1-1.7-1.3c-0.7-0.3-1.3-0.5-2-0.5c-1,0-2,0.3-2.7,1c-0.8,0.7-1.1,1.6-1.1,2.9c0,1.2,0.4,2.2,1.1,2.8
				C98.8,112.6,99.7,112.9,100.7,112.9z"/>
			<path class="st3" d="M123.5,109.1c0,2.1-0.7,3.8-2.2,5.3c-1.4,1.4-3.2,2.1-5.4,2.1c-2.2,0-4-0.7-5.4-2.1
				c-1.4-1.4-2.2-3.2-2.2-5.3c0-2.1,0.7-3.8,2.2-5.3c1.4-1.4,3.2-2.1,5.4-2.1c2.2,0,4,0.7,5.4,2.1
				C122.8,105.3,123.5,107,123.5,109.1z M112.3,109.1c0,1.2,0.3,2.1,1,2.9c0.7,0.7,1.5,1.1,2.6,1.1c1,0,1.9-0.4,2.6-1.1
				c0.7-0.7,1-1.7,1-2.9c0-1.2-0.3-2.1-1-2.9c-0.7-0.7-1.5-1.1-2.6-1.1c-1,0-1.9,0.4-2.6,1.1C112.7,107,112.3,107.9,112.3,109.1z"/>
			<path class="st3" d="M132.2,116.5c-1.7,0-3.2-0.7-4.5-2.2c-1.3-1.4-2-3.2-2-5.4s0.6-3.9,1.9-5.2c1.3-1.4,2.8-2,4.6-2
				c1.7,0,3.2,0.6,4.3,1.8v-7h4v19.8h-4v-1.9C135.3,115.8,133.9,116.5,132.2,116.5z M129.7,109.1c0,1.2,0.3,2.1,1,2.8
				c0.7,0.7,1.5,1.1,2.4,1.1s1.7-0.4,2.4-1.1c0.6-0.7,1-1.7,1-2.9c0-1.2-0.3-2.1-1-2.9c-0.6-0.8-1.4-1.2-2.4-1.2s-1.8,0.4-2.4,1.2
				C130,107,129.7,108,129.7,109.1z"/>
			<path class="st3" d="M156.6,114.2c-1.6,1.5-3.5,2.3-5.7,2.3c-2.2,0-4-0.7-5.4-2c-1.4-1.3-2.1-3.1-2.1-5.4s0.7-4.1,2.2-5.4
				c1.4-1.3,3.2-2,5.1-2c2,0,3.6,0.6,5,1.8s2.1,2.8,2.1,4.9v2.1h-10.5c0.1,0.8,0.5,1.4,1.2,1.9c0.7,0.5,1.5,0.7,2.3,0.7
				c1.4,0,2.6-0.5,3.5-1.4L156.6,114.2z M152.8,105.7c-0.6-0.5-1.2-0.7-2-0.7c-0.8,0-1.5,0.2-2.2,0.7c-0.7,0.5-1,1.1-1.1,1.9h6.3
				C153.6,106.8,153.3,106.2,152.8,105.7z"/>
		</g>
	</g>
</g>
<g>
	<path class="st4" d="M152.1,22c-18-5.6-37,4.4-42.6,22.4s4.4,37,22.4,42.6s37-4.4,42.6-22.4S170,27.6,152.1,22z"/>
	<path class="st5" d="M161.3,51.2l-23.4,14.1c-0.7,0.5-1.6,0.5-2.4,0.3c-0.6-0.2-1.2-0.6-1.5-1.2l-8.2-12c-0.9-1.3-0.5-3.1,0.8-4
		s3.1-0.5,4,0.8l6.6,9.8l21-12.7c1.4-0.9,3.2-0.4,3.9,1C163.1,48.6,162.7,50.3,161.3,51.2z"/>
</g>
</svg>
