<?xml version="1.0" encoding="utf-8"?>
<!-- Generator: Adobe Illustrator 16.0.0, SVG Export Plug-In . SVG Version: 6.00 Build 0)  -->
<!DOCTYPE svg PUBLIC "-//W3C//DTD SVG 1.1//EN" "http://www.w3.org/Graphics/SVG/1.1/DTD/svg11.dtd">
<svg version="1.1" xmlns="http://www.w3.org/2000/svg" xmlns:xlink="http://www.w3.org/1999/xlink" x="0px" y="0px" width="160px"
	 height="231px" viewBox="0 0 160 231" enable-background="new 0 0 160 231" xml:space="preserve">
<g id="Capa_3">
</g>
<g id="Capa_2">
</g>
<g id="Capa_1">
	<g>
		<defs>
			<polygon id="SVGID_666_" points="161,-5 -1,-5 1,241 161,241 			"/>
		</defs>
		<clipPath id="SVGID_1_">
			<use xlink:href="#SVGID_666_"  overflow="visible"/>
		</clipPath>
		<path clip-path="url(#SVGID_1_)" fill="#472728" d="M449.217,0h-628.018c0.244-3,0.15-5.797,0.149-5.828l-0.224-5.664
			c-0.021-0.539-0.256-1.01-0.656-1.375c-0.371-0.338-0.855-0.507-1.355-0.507c-0.037,0-0.073,0.01-0.108,0.012l-5.284,0.29
			c-0.03,0-0.061,0.006-0.091,0.009l-0.062,0.007c-0.718,0.062-1.79,0.182-3.117,0.408c2.794-4.889,3.711-9.765,3.898-10.932
			l0.835-5.189c0.087-0.539-0.049-1.09-0.377-1.527c-0.327-0.438-0.818-0.723-1.36-0.791l-5.188-0.653
			c-0.256-0.032-1.625-0.192-3.574-0.192c-4.189,0-10.006,0.676-15.009,3.707c0.733-2.157,1.058-4.434,0.938-6.752
			c-0.604-11.819-9.753-21.537-10.143-21.945l-4.036-4.227c-0.38-0.398-0.907-0.623-1.456-0.623c-0.034,0-0.068,0.001-0.103,0.002
			c-0.585,0.03-1.129,0.314-1.488,0.777l-3.584,4.613c-0.302,0.387-6.582,8.581-7.717,18.568c-8.644-5.859-19.215-6.79-19.716-6.83
			l-5.222-0.432c-0.055-0.004-0.11-0.006-0.165-0.006c-0.489,0-0.964,0.178-1.333,0.504c-0.411,0.363-0.657,0.877-0.68,1.425
			l-0.223,5.236c-0.027,0.666-0.559,16.343,8.227,26.315c2.891,3.283,6.709,5.385,11.146,6.156c-0.053,0.438-0.078,0.88-0.078,1.324
			c0,0.086,0.001,0.172,0.003,0.256c-1.752-0.198-3.198-0.238-4.057-0.238c-0.709,0-1.113,0.025-1.113,0.025
			c-0.095,0.006-0.194,0.02-0.287,0.038l-5.732,1.185c-1.036,0.214-1.73,1.051-1.588,2.101L-258.609,0h-93.228
			c-24.249,0-43.978,19.842-43.978,44s19.729,44,43.978,44h55.606c-6.699,7-10.463,17.038-10.463,27.45
			c0,23.047,18.794,41.55,41.896,41.55h67.743c-6.705,8-10.6,17.913-10.6,28.432c0,23.327,18.795,46.568,41.896,46.568h64.773h4.965
			h35.648h28.019h201.983h38.094h55.418c23.102,0,41.896-23.241,41.896-46.568c0-10.519-3.894-20.432-10.599-28.432h67.744
			c23.101,0,41.895-18.503,41.895-41.55c0-10.412-3.763-20.45-10.463-27.45h55.602C473.47,88,493.2,68.158,493.2,44
			S473.47,0,449.217,0z"/>
		<g clip-path="url(#SVGID_1_)">
			<g>
				<path fill="#916633" d="M397.028,116.057c0,19.248-15.603,34.845-34.845,34.845h-626.981c-19.245,0-34.845-15.597-34.845-34.845
					l0,0c0-19.244,15.6-34.846,34.845-34.846h626.981C381.426,81.211,397.028,96.813,397.028,116.057L397.028,116.057z"/>
			</g>
			<circle opacity="0.3" fill="#734A1E" cx="30.342" cy="135.863" r="34.289"/>
			<path opacity="0.6" fill="#A67339" d="M197.297,139.291c0,19.67-15.947,35.612-35.611,35.612
				c-19.668,0-35.612-15.942-35.612-35.612s15.944-35.611,35.612-35.611C181.35,103.68,197.297,119.621,197.297,139.291z"/>
			<path opacity="0.6" fill="#A67339" d="M196.795,149.81c0,11.005-8.924,19.923-19.93,19.923c-11.003,0-19.924-8.918-19.924-19.923
				c0-11.007,8.921-19.929,19.924-19.929C187.871,129.881,196.795,138.803,196.795,149.81z"/>
			<path opacity="0.6" fill="#A67339" d="M17.133,144.273c0,9.35-7.584,16.933-16.938,16.933c-9.35,0-16.933-7.583-16.933-16.933
				c0-9.355,7.583-16.938,16.933-16.938C9.549,127.336,17.133,134.918,17.133,144.273z"/>
			<g>
				<path fill="#734A1E" d="M297.988,185.746c0,19.248-15.602,38.879-34.846,38.879h-428.9c-19.246,0-34.846-19.631-34.846-38.879
					l0,0c0-19.244,15.6-34.845,34.846-34.845h428.9C282.387,150.901,297.988,166.502,297.988,185.746L297.988,185.746z"/>
			</g>
			<g>
				<path fill="#BCE63D" d="M486.15,44.283c0,20.396-16.538,36.928-36.934,36.928h-801.054c-20.396,0-36.927-16.531-36.927-36.928
					l0,0c0-20.396,16.53-36.927,36.927-36.927h801.054C469.612,7.356,486.15,23.887,486.15,44.283L486.15,44.283z"/>
				<path opacity="0.1" d="M-351.837,81.211h801.054c20.396,0,36.934-16.531,36.934-36.928h-874.914
					C-388.764,64.68-372.233,81.211-351.837,81.211z"/>
			</g>
			<path opacity="0.3" fill="#A67339" d="M17.355,192.572c0,2.529-2.047,4.575-4.576,4.575c-2.523,0-4.574-2.046-4.574-4.575
				c0-2.524,2.051-4.57,4.574-4.57C15.309,188.002,17.355,190.048,17.355,192.572z"/>
			<path opacity="0.3" fill="#734A1E" d="M21.462,101.16c0,2.529-2.05,4.576-4.573,4.576c-2.527,0-4.576-2.047-4.576-4.576
				c0-2.523,2.049-4.57,4.576-4.57C19.412,96.59,21.462,98.637,21.462,101.16z"/>
			<path opacity="0.6" fill="#A67339" d="M118.217,111.43c0,2.529-2.049,4.576-4.577,4.576c-2.525,0-4.573-2.047-4.573-4.576
				c0-2.525,2.048-4.572,4.573-4.572C116.168,106.857,118.217,108.904,118.217,111.43z"/>
			<circle fill="#68431C" cx="10.958" cy="174.41" r="4.108"/>
			<path opacity="0.3" fill="#A67339" d="M80.291,150.901c-1.363,3.336-2.128,6.983-2.128,10.812
				c0,15.801,12.809,28.604,28.607,28.604c15.8,0,28.606-12.803,28.606-28.604c0-3.828-0.764-7.476-2.128-10.812H80.291z"/>
		</g>
		<g clip-path="url(#SVGID_1_)">
			<rect x="-294" y="82" fill="#472728" width="684" height="5"/>
		</g>
		<g clip-path="url(#SVGID_1_)">
			<rect x="-203" y="151" fill="#472728" width="509" height="5"/>
		</g>
	</g>
</g>
<g id="Test">
</g>
</svg>
