<svg xmlns="http://www.w3.org/2000/svg" xmlns:xlink="http://www.w3.org/1999/xlink" width="52.666" height="52.833" viewBox="0 0 52.666 52.833"><g fill="#FFF"><path d="M25.523 6.39c10.428 0 18.91 8.483 18.91 18.912 0 10.427-8.48 18.91-18.91 18.91-10.428 0-18.91-8.483-18.91-18.91 0-10.43 8.482-18.912 18.91-18.912z"/><path d="M25.523 43.71c-10.168 0-18.41-8.242-18.41-18.41 0-10.166 8.242-18.41 18.41-18.41 10.167 0 18.41 8.243 18.41 18.41 0 10.168-8.243 18.41-18.41 18.41m0 1c10.703 0 19.41-8.707 19.41-19.41 0-10.702-8.707-19.41-19.41-19.41S6.113 14.597 6.113 25.3c0 10.703 8.707 19.41 19.41 19.41z"/></g><image overflow="visible" opacity=".1" width="71" height="72" xlink:href="A126D3B40C593F97.png" transform="matrix(-.986 0 0 -.986 60.77 57.466)"/><path fill="#0097E8" d="M26.175-.065c13.987 0 25.366 11.38 25.366 25.366 0 13.988-11.378 25.368-25.365 25.368C12.187 50.668.808 39.288.808 25.3S12.188-.064 26.175-.064zm-5.01 9.28v16.58H10.77L26.155 41.18 41.54 25.795H31.147V9.215h-9.98z"/><path fill="#FFF" d="M26.175 50.167C12.44 50.167 1.308 39.034 1.308 25.3 1.308 11.567 12.44.434 26.175.434 39.908.434 51.04 11.567 51.04 25.3c0 13.736-11.132 24.867-24.865 24.867m16.573-24.873H31.646V8.714h-10.98v16.58H9.56l16.594 16.593 16.592-16.593M26.175 51.167c14.263 0 25.866-11.604 25.866-25.867 0-14.263-11.603-25.866-25.865-25.866C11.913-.566.308 11.037.308 25.3s11.604 25.867 25.867 25.867zm14.16-24.873l-14.18 14.178-14.18-14.178h9.69V9.714h8.98v16.58h9.69z"/></svg>