<?xml version="1.0" encoding="utf-8"?>
<!-- Generator: Adobe Illustrator 16.0.0, SVG Export Plug-In . SVG Version: 6.00 Build 0)  -->
<!DOCTYPE svg PUBLIC "-//W3C//DTD SVG 1.1//EN" "http://www.w3.org/Graphics/SVG/1.1/DTD/svg11.dtd">
<svg version="1.1" id="Layer_1" xmlns="http://www.w3.org/2000/svg" xmlns:xlink="http://www.w3.org/1999/xlink" x="0px" y="0px"
	 width="52.666px" height="52.833px" viewBox="0 0 52.666 52.833" enable-background="new 0 0 52.666 52.833" xml:space="preserve">
<g id="Mierda">
</g>
<g id="back">
</g>
<g id="Ilustrations">
	<g>
		<g>
			<path fill="#FFFFFF" d="M25.523,6.39c10.428,0,18.911,8.483,18.911,18.912c0,10.427-8.482,18.91-18.911,18.91
				c-10.428,0-18.911-8.483-18.911-18.91C6.612,14.873,15.095,6.39,25.523,6.39z"/>
			<path fill="#FFFFFF" d="M25.523,43.711c-10.168,0-18.411-8.243-18.411-18.41c0-10.167,8.243-18.412,18.411-18.412
				c10.167,0,18.411,8.244,18.411,18.412C43.934,35.468,35.69,43.711,25.523,43.711 M25.523,44.711
				c10.703,0,19.411-8.708,19.411-19.41c0-10.703-8.708-19.412-19.411-19.412c-10.703,0-19.411,8.709-19.411,19.412
				C6.112,36.003,14.82,44.711,25.523,44.711L25.523,44.711z"/>
		</g>
		<g>
			
				<image overflow="visible" opacity="0.1" enable-background="new    " width="71" height="72" xlink:href="A126D3B40C593F97.png"  transform="matrix(-0.9859 0 0 -0.9861 60.7686 57.4663)">
			</image>
			<g>
				<g>
					<path fill="#0097E8" d="M26.175-0.065c13.987,0,25.366,11.379,25.366,25.366c0,13.987-11.379,25.367-25.366,25.367
						c-13.988,0-25.367-11.38-25.367-25.367C0.808,11.313,12.187-0.065,26.175-0.065z M21.165,9.214v16.581H10.769l15.387,15.385
						l15.385-15.385H31.146V9.214H21.165z"/>
				</g>
				<g>
					<path fill="#FFFFFF" d="M26.175,50.167c-13.734,0-24.867-11.133-24.867-24.867c0-13.733,11.133-24.866,24.867-24.866
						c13.733,0,24.866,11.133,24.866,24.866C51.041,39.036,39.908,50.167,26.175,50.167 M42.748,25.294H31.646V8.714H20.665v16.581
						H9.562l16.594,16.592L42.748,25.294 M26.175,51.167c14.263,0,25.866-11.604,25.866-25.867
						c0-14.263-11.604-25.866-25.866-25.866C11.913-0.565,0.308,11.037,0.308,25.3C0.308,39.563,11.912,51.167,26.175,51.167
						L26.175,51.167z M40.334,26.294L26.156,40.472l-14.18-14.178h8.688h1v-1V9.714h8.981v15.581v1h1H40.334L40.334,26.294z"/>
				</g>
			</g>
		</g>
	</g>
</g>
<g id="Elements">
</g>
<g id="grid">
</g>
</svg>
