<?xml version="1.0" encoding="utf-8"?>
<!-- Generator: Adobe Illustrator 16.0.0, SVG Export Plug-In . SVG Version: 6.00 Build 0)  -->
<!DOCTYPE svg PUBLIC "-//W3C//DTD SVG 1.1//EN" "http://www.w3.org/Graphics/SVG/1.1/DTD/svg11.dtd">
<svg version="1.1" id="Layer_1" xmlns="http://www.w3.org/2000/svg" xmlns:xlink="http://www.w3.org/1999/xlink" x="0px" y="0px"
	 width="52.666px" height="52.833px" viewBox="0 0 52.666 52.833" enable-background="new 0 0 52.666 52.833" xml:space="preserve">
<g id="Mierda">
</g>
<g id="back">
</g>
<g id="Ilustrations">
	<g>
		<g>
			<path fill="#FFFFFF" d="M25.644,6.948c10.428,0,18.91,8.483,18.91,18.911c0,10.427-8.482,18.91-18.91,18.91
				S6.732,36.286,6.732,25.859C6.732,15.431,15.216,6.948,25.644,6.948z"/>
			<path fill="#FFFFFF" d="M25.644,44.269c-10.168,0-18.411-8.243-18.411-18.41S15.476,7.448,25.644,7.448
				c10.167,0,18.41,8.244,18.41,18.411S35.811,44.269,25.644,44.269 M25.644,45.269c10.702,0,19.41-8.708,19.41-19.41
				S36.346,6.448,25.644,6.448c-10.703,0-19.411,8.709-19.411,19.411S14.94,45.269,25.644,45.269L25.644,45.269z"/>
		</g>
		<g>
			
				<image overflow="visible" opacity="0.1" enable-background="new    " width="72" height="72" xlink:href="E3EBF67B4F2D4C7.png"  transform="matrix(-0.9861 0 0 -0.9861 61.3291 57.7456)">
			</image>
			<g>
				<g>
					<path fill="#ED497E" d="M26.295,0.493c13.987,0,25.366,11.379,25.366,25.365c0,13.987-11.379,25.367-25.366,25.367
						S0.929,39.845,0.929,25.858C0.929,11.872,12.308,0.493,26.295,0.493z M21.285,9.772v16.58H10.89l15.387,15.385l15.385-15.385
						H31.266V9.772H21.285z"/>
				</g>
				<g>
					<path fill="#FFFFFF" d="M26.295,50.725c-13.733,0-24.866-11.133-24.866-24.867c0-13.732,11.133-24.865,24.866-24.865
						s24.866,11.133,24.866,24.865C51.161,39.593,40.028,50.725,26.295,50.725 M42.868,25.852H31.766V9.272h-10.98v16.58H9.683
						l16.594,16.592L42.868,25.852 M26.295,51.725c14.263,0,25.866-11.604,25.866-25.867S40.557-0.007,26.295-0.007
						S0.429,11.595,0.429,25.858C0.429,40.122,12.032,51.725,26.295,51.725L26.295,51.725z M40.454,26.852L26.276,41.03
						l-14.18-14.178h8.688h1v-1v-15.58h8.98v15.58v1h1H40.454L40.454,26.852z"/>
				</g>
			</g>
		</g>
	</g>
</g>
<g id="Elements">
</g>
<g id="grid">
</g>
</svg>
