<svg xmlns="http://www.w3.org/2000/svg" xmlns:xlink="http://www.w3.org/1999/xlink" width="52.666" height="52.833" viewBox="0 0 52.666 52.833"><g fill="#FFF"><path d="M25.644 6.948c10.428 0 18.91 8.483 18.91 18.91 0 10.428-8.482 18.91-18.91 18.91S6.732 36.287 6.732 25.86c0-10.427 8.484-18.91 18.912-18.91z"/><path d="M25.644 44.27c-10.168 0-18.41-8.244-18.41-18.41s8.242-18.412 18.41-18.412c10.167 0 18.41 8.244 18.41 18.41s-8.243 18.41-18.41 18.41m0 1c10.702 0 19.41-8.707 19.41-19.41S36.346 6.45 25.644 6.45c-10.703 0-19.41 8.71-19.41 19.41s8.706 19.41 19.41 19.41z"/></g><image overflow="visible" opacity=".1" width="72" height="72" xlink:href="E3EBF67B4F2D4C7.png" transform="matrix(-.986 0 0 -.986 61.33 57.746)"/><path fill="#ED497E" d="M26.295.493c13.987 0 25.366 11.38 25.366 25.365 0 13.987-11.378 25.367-25.365 25.367S.93 39.845.93 25.858C.93 11.872 12.307.493 26.294.493zm-5.01 9.28v16.58H10.89l15.387 15.384 15.385-15.385H31.266V9.772h-9.98z"/><path fill="#FFF" d="M26.295 50.725c-13.733 0-24.866-11.133-24.866-24.867C1.43 12.126 12.56.993 26.294.993S51.16 12.126 51.16 25.858c0 13.735-11.132 24.867-24.865 24.867m16.573-24.873H31.766V9.272h-10.98v16.58H9.683l16.594 16.592 16.59-16.592M26.296 51.725c14.263 0 25.866-11.604 25.866-25.867S40.558-.007 26.296-.007.43 11.595.43 25.858c0 14.264 11.602 25.867 25.865 25.867zm14.16-24.873L26.274 41.03l-14.18-14.178h9.69v-16.58h8.98v16.58h9.69z"/></svg>