<svg xmlns="http://www.w3.org/2000/svg" xmlns:xlink="http://www.w3.org/1999/xlink" viewBox="0 0 300 900"><g opacity=".5"><defs><path id="a" transform="rotate(-173.668 267.223 67.952)" d="M198.278 46.262H336.17v43.382H198.28z"/></defs><clipPath id="b"><use xlink:href="#a" overflow="visible"/></clipPath><path clip-path="url(#b)" fill="#F7F7F8" d="M196.13 82.994s51.946-9.218 93.047-3.787c41.1 5.432 45.44 6.07 45.44 6.07s-21.155-20.284-50.333-12.557c-2.534-6.068-10.062-3.266-10.062-3.266s-1.036-23.162-23.01-23.9c-21.97-.737-44.84 10.214-37.796 26.21-11.214-3.735-17.287 11.23-17.287 11.23"/></g><path fill="#F7F7F8" d="M11.603-136.512s28.876-14.596 53.973-18.672c25.094-4.076 11.412-4.155 11.412-4.155s.334-8.484-15.435 1.212c-2.56-3.116-6.484-.138-6.484-.138s-4.705-13.42-17.74-9.97c-13.03 3.453-25.08 12.265-18.114 20.413-7.246-.21-7.613 11.31-7.613 11.31M32.08 30.91s26.66-13.477 49.834-17.24c23.17-3.764 10.537-3.838 10.537-3.838s.31-7.834-14.25 1.12c-2.364-2.878-5.987-.13-5.987-.13s-4.344-12.387-16.38-9.2c-12.03 3.185-23.155 11.32-16.725 18.845-6.69-.196-7.03 10.443-7.03 10.443" opacity=".2"/><g opacity=".5"><defs><path id="c" transform="scale(-1) rotate(-2.75 -9360.58 7786.03)" d="M118.027 203.093H255.92v43.38H118.028z"/></defs><clipPath id="d"><use xlink:href="#c" overflow="visible"/></clipPath><path clip-path="url(#d)" fill="#F7F7F8" d="M119.146 250.864s49.84-17.307 91.283-18.437c41.44-1.13 45.827-1.185 45.827-1.185s-24.094-16.688-51.685-4.448c-3.46-5.593-10.452-1.636-10.452-1.636s-4.683-22.706-26.497-19.965c-21.81 2.742-42.663 17.17-33.18 31.852-11.664-1.917-15.297 13.82-15.297 13.82"/></g><path fill="#F7F7F8" d="M11.603 200.488s28.876-14.596 53.973-18.672c25.094-4.076 11.412-4.155 11.412-4.155s.334-8.484-15.435 1.212c-2.56-3.116-6.484-.138-6.484-.138s-4.705-13.42-17.74-9.97c-13.03 3.453-25.08 12.265-18.114 20.413-7.246-.21-7.613 11.31-7.613 11.31M232.08 355.91s26.66-13.477 49.834-17.24c23.17-3.764 10.537-3.838 10.537-3.838s.31-7.834-14.25 1.12c-2.364-2.878-5.987-.13-5.987-.13s-4.344-12.388-16.38-9.2c-12.03 3.185-23.154 11.32-16.724 18.845-6.692-.195-7.03 10.443-7.03 10.443" opacity=".2"/><g opacity=".5"><defs><path id="e" transform="scale(-1) rotate(-2.75 -24643.4 -459.275)" d="M-79.973 570.093H57.92v43.38H-79.972z"/></defs><clipPath id="f"><use xlink:href="#e" overflow="visible"/></clipPath><path clip-path="url(#f)" fill="#F7F7F8" d="M-78.854 617.864s49.84-17.307 91.283-18.437c41.44-1.13 45.827-1.184 45.827-1.184s-24.094-16.688-51.685-4.448c-3.46-5.593-10.452-1.636-10.452-1.636s-4.683-22.707-26.497-19.966c-21.81 2.742-42.663 17.17-33.18 31.852-11.664-1.918-15.297 13.818-15.297 13.818"/></g><g opacity=".5"><defs><path id="g" transform="rotate(-173.668 311.224 655.948)" d="M242.278 634.262H380.17v43.382H242.28z"/></defs><clipPath id="h"><use xlink:href="#g" overflow="visible"/></clipPath><path clip-path="url(#h)" fill="#F7F7F8" d="M240.13 670.994s51.946-9.218 93.048-3.787c41.1 5.432 45.44 6.07 45.44 6.07s-21.156-20.284-50.334-12.557c-2.534-6.068-10.062-3.266-10.062-3.266s-1.036-23.162-23.01-23.9c-21.97-.737-44.84 10.214-37.796 26.21-11.214-3.735-17.287 11.23-17.287 11.23"/></g><path fill="#F7F7F8" d="M167.773 565.723s28.876-14.596 53.973-18.672c25.094-4.075 11.412-4.154 11.412-4.154s.334-8.485-15.435 1.21c-2.56-3.115-6.484-.137-6.484-.137s-4.705-13.42-17.74-9.97c-13.03 3.452-25.08 12.264-18.114 20.412-7.246-.21-7.613 11.31-7.613 11.31M32.08 722.91s26.66-13.477 49.834-17.24c23.17-3.764 10.537-3.838 10.537-3.838s.31-7.834-14.25 1.12c-2.364-2.878-5.987-.13-5.987-.13s-4.344-12.388-16.38-9.2c-12.03 3.184-23.154 11.32-16.724 18.845-6.692-.196-7.03 10.443-7.03 10.443" opacity=".2"/><g opacity=".5"><defs><path id="i" transform="scale(-1) rotate(-2.75 -35428.89 9118.49)" d="M150.027 829.093H287.92v43.38H150.028z"/></defs><clipPath id="j"><use xlink:href="#i" overflow="visible"/></clipPath><path clip-path="url(#j)" fill="#F7F7F8" d="M151.146 876.864s49.84-17.307 91.283-18.437c41.44-1.13 45.827-1.184 45.827-1.184s-24.094-16.688-51.685-4.448c-3.46-5.593-10.452-1.636-10.452-1.636s-4.683-22.707-26.497-19.966c-21.81 2.742-42.663 17.17-33.18 31.852-11.664-1.918-15.297 13.818-15.297 13.818"/></g><g opacity=".5"><defs><path id="k" transform="rotate(-173.668 267.225 1068.946)" d="M198.278 1047.262H336.17v43.382H198.28z"/></defs><clipPath id="l"><use xlink:href="#k" overflow="visible"/></clipPath><path clip-path="url(#l)" fill="#F7F7F8" d="M196.13 1083.994s51.946-9.218 93.047-3.787c41.1 5.432 45.44 6.07 45.44 6.07s-21.155-20.284-50.333-12.557c-2.534-6.068-10.062-3.266-10.062-3.266s-1.036-23.162-23.01-23.9c-21.97-.737-44.84 10.214-37.796 26.21-11.214-3.735-17.287 11.23-17.287 11.23"/></g><path fill="#F7F7F8" d="M32.08 1031.91s26.66-13.477 49.834-17.24c23.17-3.764 10.537-3.838 10.537-3.838s.31-7.834-14.25 1.12c-2.364-2.878-5.987-.13-5.987-.13s-4.344-12.388-16.38-9.2c-12.03 3.184-23.154 11.32-16.724 18.845-6.692-.196-7.03 10.443-7.03 10.443" opacity=".2"/></svg>