<svg xmlns="http://www.w3.org/2000/svg" width="152.954" height="148.229" viewBox="0 0 152.954 148.229"><path fill="#472728" d="M148.918 59.858c-4.46-4.634-12.247-7.086-22.533-7.086-7.626 0-16.443 1.31-26.208 3.898C83.46 61.1 71.807 68.874 64.46 75.337c-.396-.246-.81-.47-1.243-.668-.42-.193-.85-.362-1.293-.497.11-9.787-1.59-23.69-9.13-39.253C42.044 12.73 29.264.005 17.724 0c-3.665 0-6.995 1.302-9.64 3.76C.28 11.032-.077 29.375.245 49.137c.017 1.095.034 2.133.043 3.1C.417 62.78 4.337 70.2 10.79 76.462c-.935.52-1.75 1.102-2.448 1.75C3.022 83.172-.804 96.448.145 106.64c.73 7.854 4.036 13.853 9.56 17.35 2.922 1.85 6.216 2.788 9.792 2.788 3.578 0 7.15-.97 10.544-2.487-.856 4.044-1.264 8.145-.287 10.752.713 1.907 2.08 3.402 3.848 4.206.912.423 1.932.646 2.99.646 3.44 0 6.412-2.128 10.635-7.738 2.404 7.966 6.993 13.267 13.496 15.25 1.785.548 3.64.825 5.515.825 15.562 0 29.714-19.87 30.08-29.623.037-.95-.05-1.948-.264-2.993 1.298.117 2.55.17 3.778.17 8.11 0 14.92-2.543 21.438-8.004.766-.643 1.587-1.328 2.458-2.053 15.154-12.617 28.792-24.822 29.217-35.45.157-3.922-1.232-7.52-4.022-10.42z"/><path fill="#DE00DB" d="M54.06 86.963s6.09-21.63-7.082-48.806C33.82 10.994 19.358 2.517 12.485 8.912c-6.88 6.415-5.888 31.167-5.735 43.67.15 12.504 6.53 19.615 18.91 27.606 12.373 8.002 27.4 12.542 28.4 6.775z"/><path fill="#ED497E" d="M38.97 80.033S17.8 78.67 12.735 83.37c-5.067 4.724-11.347 28.13.425 35.578 11.774 7.46 29.89-10.184 36.993-20.008 7.097-9.826 4.073-17.787-11.182-18.907z"/><path fill="#DE00DB" d="M60.198 89.788s12.444-18.72 41.636-26.45c29.182-7.73 45.023-2.292 44.655 7.1-.376 9.392-19.793 24.767-29.372 32.813-9.59 8.032-19.137 7.837-33.267 3.646-14.123-4.17-27.365-12.593-23.652-17.108z"/><path fill="#ED497E" d="M75.284 96.7s14.848 15.17 14.574 22.086c-.258 6.905-13.92 26.936-27.254 22.867-13.335-4.072-11.75-29.314-8.926-41.106s10.826-14.67 21.606-3.847z"/><path fill="#734A1E" d="M48.374 118.86c-1.264 2.736-9.705 16.04-12.098 14.93-2.386-1.086 2.193-16.165 3.447-18.912L53.93 83.943c1.257-2.743 4.214-4.08 6.61-2.974 2.382 1.086 3.298 4.2 2.03 6.946L48.374 118.86z"/></svg>