<svg xmlns="http://www.w3.org/2000/svg" xmlns:xlink="http://www.w3.org/1999/xlink" viewBox="0 0 143 27.957"><defs><path id="a" d="M-.05 0h143.1v30H-.05z"/></defs><clipPath id="b"><use xlink:href="#a" overflow="visible"/></clipPath><g clip-path="url(#b)"><path fill="#916633" d="M206.062-12.4c0 7.097-5.695 12.848-12.717 12.848H-35.472c-7.024 0-12.716-5.75-12.716-12.848 0-7.096 5.693-12.85 12.716-12.85h228.817c7.022 0 12.717 5.754 12.717 12.85z"/><ellipse opacity=".6" fill="#A67339" cx="-16.141" cy="-13.702" rx="5.744" ry="5.803"/><ellipse opacity=".3" fill="#734A1E" cx="72.239" cy="-5.097" rx="12.514" ry="12.645"/><ellipse opacity=".3" fill="#734A1E" cx="36.895" cy="-12.91" rx="4.158" ry="4.202"/><ellipse opacity=".3" fill="#734A1E" cx="161.62" cy="-9.075" rx="3.118" ry="3.152"/><ellipse opacity=".3" fill="#734A1E" cx="9.862" cy="1.472" rx="7.914" ry="7.997"/><ellipse opacity=".6" fill="#A67339" cx="15.428" cy="-24.448" rx="9.674" ry="9.775"/><ellipse opacity=".6" fill="#A67339" cx="120.173" cy="-3.833" rx="12.997" ry="13.132"/><ellipse opacity=".6" fill="#A67339" cx="162.038" cy="-25.771" rx="8.365" ry="8.45"/><ellipse opacity=".6" fill="#A67339" cx="125.714" cy=".045" rx="7.272" ry="7.346"/><ellipse opacity=".6" fill="#A67339" cx="197.951" cy="-15.146" rx="4.434" ry="4.479"/><ellipse opacity=".6" fill="#A67339" cx="-32.335" cy="-11.631" rx="4.434" ry="4.48"/><ellipse opacity=".6" fill="#A67339" cx="33.903" cy="-13.228" rx="2.494" ry="2.518"/><ellipse opacity=".6" fill="#A67339" cx="61.238" cy="-1.996" rx="6.18" ry="6.243"/><path fill="#734A1E" d="M169.917 13.296c0 7.097-5.694 12.85-12.717 12.85H.673c-7.024 0-12.717-5.753-12.717-12.85C-12.044 6.2-6.35.448.673.448H157.2c7.023 0 12.717 5.753 12.717 12.848z"/><path fill="#709F4C" d="M238.587-38.865c0 7.52-6.036 13.616-13.48 13.616H-67.236c-7.444 0-13.477-6.094-13.477-13.615 0-7.52 6.033-13.616 13.477-13.616h292.345c7.443 0 13.48 6.094 13.48 13.615z"/><path fill="#326535" d="M-67.237-25.25h292.345c7.443 0 13.48-6.094 13.48-13.615H-80.715c0 7.52 6.033 13.616 13.477 13.616z"/><path fill="#68431C" d="M136.975 26.147c.07-.41.115-.828.115-1.257 0-3.944-3.164-7.14-7.066-7.14-3.903 0-7.067 3.196-7.067 7.14 0 .43.044.846.116 1.257h13.902z"/><path opacity=".3" fill="#A67339" d="M49.36 26.147c.13-.738.208-1.49.208-2.265 0-7.105-5.7-12.866-12.732-12.866-7.032 0-12.732 5.76-12.732 12.866 0 .774.08 1.526.208 2.265H49.36z"/><path opacity=".3" fill="#A67339" d="M39.134 26.147a6.94 6.94 0 0 0 .107-1.176c0-3.69-2.96-6.683-6.613-6.683-3.65 0-6.612 2.993-6.612 6.684 0 .402.04.793.11 1.177h13.01z"/><ellipse fill="#68431C" cx="156.083" cy="15.213" rx="2.667" ry="2.692"/><ellipse fill="#68431C" cx="23.661" cy="10.948" rx="2.666" ry="2.695"/><ellipse fill="#68431C" cx="122.065" cy="7.003" rx="1.5" ry="1.515"/><ellipse fill="#68431C" cx="129.351" cy="14.613" rx="1.499" ry="1.515"/><ellipse opacity=".3" fill="#A67339" cx="65.83" cy="15.813" rx="1.67" ry="1.687"/><ellipse opacity=".3" fill="#A67339" cx="153.265" cy="15.28" rx="1.67" ry="1.685"/><ellipse opacity=".3" fill="#734A1E" cx="127.572" cy="-15.792" rx="1.67" ry="1.686"/><ellipse opacity=".3" fill="#734A1E" cx="67.329" cy="-17.893" rx="1.67" ry="1.687"/><ellipse opacity=".3" fill="#734A1E" cx="155.759" cy="-10.325" rx="1.669" ry="1.685"/><ellipse opacity=".3" fill="#734A1E" cx="-33.687" cy="-13.273" rx="1.669" ry="1.687"/><ellipse opacity=".6" fill="#A67339" cx="178.292" cy="-13.693" rx="1.669" ry="1.687"/><ellipse opacity=".6" fill="#A67339" cx="102.64" cy="-14.106" rx="1.67" ry="1.688"/><ellipse opacity=".6" fill="#A67339" cx="-4.189" cy="-9.906" rx="1.669" ry="1.687"/><ellipse opacity=".6" fill="#A67339" cx="12.045" cy="-15.792" rx="1.669" ry="1.686"/><ellipse fill="#68431C" cx="11.273" cy="11.091" rx="1.5" ry="1.515"/><ellipse fill="#68431C" cx="65.166" cy="9.117" rx="1.499" ry="1.515"/><path opacity=".3" fill="#A67339" d="M90.468.448a10.62 10.62 0 0 0-.777 3.987c0 5.826 4.676 10.547 10.442 10.547s10.44-4.72 10.44-10.547a10.6 10.6 0 0 0-.777-3.987H90.468z"/><g><path fill="#472728" d="M-43-26h241v3H-43z"/></g><g><path fill="#472728" d="M-4.52.05h166.916v2.535H-4.52z"/></g><path fill="none" stroke="#472728" stroke-width="2" stroke-miterlimit="10" d="M224.93-52H-67.417c-7.444 0-13.477 5.98-13.477 13.5S-74.86-25-67.416-25h31.765c-7.025 0-12.717 5.905-12.717 13 0 7.097 5.692 13 12.716 13H.493C-6.53 1-12.224 6.903-12.224 14c0 7.096 5.694 13 12.718 13H157.02c7.024 0 12.718-5.904 12.718-13 0-7.097-5.694-13-12.717-13h36.146c7.022 0 12.717-5.903 12.717-13 0-7.095-5.694-13-12.717-13h31.763c7.442 0 13.478-5.98 13.478-13.5S232.372-52 224.928-52z"/></g></svg>