<svg width="268" height="225" viewBox="0 0 268 225" xmlns="http://www.w3.org/2000/svg" xmlns:xlink="http://www.w3.org/1999/xlink"><title>Page 1</title><defs><path id="a" d="M.07 28.135h57.266V.205H.07v27.93"/><path id="c" d="M.07 28.135h25.716V.205H.07v27.93z"/><path id="e" d="M.547 28.442h57.266V.512H.547v27.93"/><path id="g" d="M.547 28.442h25.718V.512H.547v27.93z"/><path id="i" d="M.267 27.933h57.267V.003H.267v27.93"/><path id="k" d="M.267 27.933h25.717V.003H.267v27.93z"/><path id="m" d="M.196 21.543h21.192V.33H.196v21.213"/><path id="o" d="M.393 26.22v49.932c0 14.358 11.736 26.106 26.077 26.106 14.342 0 26.08-11.748 26.08-26.106v-49.93C52.55 11.864 40.81.115 26.47.115 12.13.116.393 11.866.393 26.22"/><path id="q" d="M.393 26.22v49.932c0 14.358 11.736 26.106 26.077 26.106 14.342 0 26.08-11.748 26.08-26.106v-49.93C52.55 11.864 40.81.115 26.47.115 12.13.116.393 11.866.393 26.22"/><path id="s" d="M.393 26.22v49.932c0 14.358 11.736 26.106 26.077 26.106 14.342 0 26.08-11.748 26.08-26.106v-49.93C52.55 11.864 40.81.115 26.47.115 12.13.116.393 11.866.393 26.22"/><path id="u" d="M.393 26.22v49.932c0 14.358 11.736 26.106 26.077 26.106 14.342 0 26.08-11.748 26.08-26.106v-49.93C52.55 11.864 40.81.115 26.47.115 12.13.116.393 11.866.393 26.22"/><path id="w" d="M.393 26.22v49.932c0 14.358 11.736 26.106 26.077 26.106 14.342 0 26.08-11.748 26.08-26.106v-49.93C52.55 11.864 40.81.115 26.47.115 12.13.116.393 11.866.393 26.22"/><path id="y" d="M.393 26.22v49.932c0 14.358 11.736 26.106 26.077 26.106 14.342 0 26.08-11.748 26.08-26.106v-49.93C52.55 11.864 40.81.115 26.47.115 12.13.116.393 11.866.393 26.22"/><path id="A" d="M.393 26.22v49.932c0 14.358 11.736 26.106 26.077 26.106 14.342 0 26.08-11.748 26.08-26.106v-49.93C52.55 11.864 40.81.115 26.47.115 12.13.116.393 11.866.393 26.22"/><path id="C" d="M.393 26.22v49.932c0 14.358 11.736 26.106 26.077 26.106 14.342 0 26.08-11.748 26.08-26.106v-49.93C52.55 11.864 40.81.115 26.47.115 12.13.116.393 11.866.393 26.22"/><path id="E" d="M.393 26.22v49.932c0 14.358 11.736 26.106 26.077 26.106 14.342 0 26.08-11.748 26.08-26.106v-49.93C52.55 11.864 40.81.115 26.47.115 12.13.116.393 11.866.393 26.22"/><path id="G" d="M.393 26.22v49.932c0 14.358 11.736 26.106 26.077 26.106 14.342 0 26.08-11.748 26.08-26.106v-49.93C52.55 11.864 40.81.115 26.47.115 12.13.116.393 11.866.393 26.22"/><path id="I" d="M.393 26.22v49.932c0 14.358 11.736 26.106 26.077 26.106 14.342 0 26.08-11.748 26.08-26.106v-49.93C52.55 11.864 40.81.115 26.47.115 12.13.116.393 11.866.393 26.22"/><path id="K" d="M.393 26.22v49.932c0 14.358 11.736 26.106 26.077 26.106 14.342 0 26.08-11.748 26.08-26.106v-49.93C52.55 11.864 40.81.115 26.47.115 12.13.116.393 11.866.393 26.22"/><path id="M" d="M.393 26.22v49.932c0 14.358 11.736 26.106 26.077 26.106 14.342 0 26.08-11.748 26.08-26.106v-49.93C52.55 11.864 40.81.115 26.47.115 12.13.116.393 11.866.393 26.22"/><path id="O" d="M.393 26.22v49.932c0 14.358 11.736 26.106 26.077 26.106 14.342 0 26.08-11.748 26.08-26.106v-49.93C52.55 11.864 40.81.115 26.47.115 12.13.116.393 11.866.393 26.22"/><path id="Q" d="M.393 26.22v49.932c0 14.358 11.736 26.106 26.077 26.106 14.342 0 26.08-11.748 26.08-26.106v-49.93C52.55 11.864 40.81.115 26.47.115 12.13.116.393 11.866.393 26.22"/><path id="S" d="M.393 26.22v49.932c0 14.358 11.736 26.106 26.077 26.106 14.342 0 26.08-11.748 26.08-26.106v-49.93C52.55 11.864 40.81.115 26.47.115 12.13.116.393 11.866.393 26.22"/><path id="U" d="M.393 26.22v49.932c0 14.358 11.736 26.106 26.077 26.106 14.342 0 26.08-11.748 26.08-26.106v-49.93C52.55 11.864 40.81.115 26.47.115 12.13.116.393 11.866.393 26.22"/><path id="W" d="M.393 26.22v49.932c0 14.358 11.736 26.106 26.077 26.106 14.342 0 26.08-11.748 26.08-26.106v-49.93C52.55 11.864 40.81.115 26.47.115 12.13.116.393 11.866.393 26.22"/><path id="Y" d="M.393 26.22v49.932c0 14.358 11.736 26.106 26.077 26.106 14.342 0 26.08-11.748 26.08-26.106v-49.93C52.55 11.864 40.81.115 26.47.115 12.13.116.393 11.866.393 26.22"/><path id="aa" d="M.393 26.22v49.932c0 14.358 11.736 26.106 26.077 26.106 14.342 0 26.08-11.748 26.08-26.106v-49.93C52.55 11.864 40.81.115 26.47.115 12.13.116.393 11.866.393 26.22"/><path id="ac" d="M.393 26.22v49.932c0 14.358 11.736 26.106 26.077 26.106 14.342 0 26.08-11.748 26.08-26.106v-49.93C52.55 11.864 40.81.115 26.47.115 12.13.116.393 11.866.393 26.22"/><path id="ae" d="M.393 26.22v49.932c0 14.358 11.736 26.106 26.077 26.106 14.342 0 26.08-11.748 26.08-26.106v-49.93C52.55 11.864 40.81.115 26.47.115 12.13.116.393 11.866.393 26.22"/><path id="ag" d="M.393 26.22v49.932c0 14.358 11.736 26.106 26.077 26.106 14.342 0 26.08-11.748 26.08-26.106v-49.93C52.55 11.864 40.81.115 26.47.115 12.13.116.393 11.866.393 26.22"/><path id="ai" d="M.393 26.22v49.932c0 14.358 11.736 26.106 26.077 26.106 14.342 0 26.08-11.748 26.08-26.106v-49.93C52.55 11.864 40.81.115 26.47.115 12.13.116.393 11.866.393 26.22"/><path id="ak" d="M.393 26.22v49.932c0 14.358 11.736 26.106 26.077 26.106 14.342 0 26.08-11.748 26.08-26.106v-49.93C52.55 11.864 40.81.115 26.47.115 12.13.116.393 11.866.393 26.22"/><path id="am" d="M.393 26.22v49.932c0 14.358 11.736 26.106 26.077 26.106 14.342 0 26.08-11.748 26.08-26.106v-49.93C52.55 11.864 40.81.115 26.47.115 12.13.116.393 11.866.393 26.22"/><path id="ao" d="M.393 26.22v49.932c0 14.358 11.736 26.106 26.077 26.106 14.342 0 26.08-11.748 26.08-26.106v-49.93C52.55 11.864 40.81.115 26.47.115 12.13.116.393 11.866.393 26.22"/><path id="aq" d="M.393 26.22v49.932c0 14.358 11.736 26.106 26.077 26.106 14.342 0 26.08-11.748 26.08-26.106v-49.93C52.55 11.864 40.81.115 26.47.115 12.13.116.393 11.866.393 26.22"/><path id="as" d="M.393 26.22v49.932c0 14.358 11.736 26.106 26.077 26.106 14.342 0 26.08-11.748 26.08-26.106v-49.93C52.55 11.864 40.81.115 26.47.115 12.13.116.393 11.866.393 26.22"/><path id="au" d="M.393 26.22v49.932c0 14.358 11.736 26.106 26.077 26.106 14.342 0 26.08-11.748 26.08-26.106v-49.93C52.55 11.864 40.81.115 26.47.115 12.13.116.393 11.866.393 26.22"/><path id="aw" d="M.393 26.22v49.932c0 14.358 11.736 26.106 26.077 26.106 14.342 0 26.08-11.748 26.08-26.106v-49.93C52.55 11.864 40.81.115 26.47.115 12.13.116.393 11.866.393 26.22"/><path id="ay" d="M.393 26.22v49.932c0 14.358 11.736 26.106 26.077 26.106 14.342 0 26.08-11.748 26.08-26.106v-49.93C52.55 11.864 40.81.115 26.47.115 12.13.116.393 11.866.393 26.22"/><path id="aA" d="M.393 26.22v49.932c0 14.358 11.736 26.106 26.077 26.106 14.342 0 26.08-11.748 26.08-26.106v-49.93C52.55 11.864 40.81.115 26.47.115 12.13.116.393 11.866.393 26.22"/><path id="aC" d="M.393 26.22v49.932c0 14.358 11.736 26.106 26.077 26.106 14.342 0 26.08-11.748 26.08-26.106v-49.93C52.55 11.864 40.81.115 26.47.115 12.13.116.393 11.866.393 26.22"/><path id="aE" d="M.393 26.22v49.932c0 14.358 11.736 26.106 26.077 26.106 14.342 0 26.08-11.748 26.08-26.106v-49.93C52.55 11.864 40.81.115 26.47.115 12.13.116.393 11.866.393 26.22"/><path id="aG" d="M.393 26.22v49.932c0 14.358 11.736 26.106 26.077 26.106 14.342 0 26.08-11.748 26.08-26.106v-49.93C52.55 11.864 40.81.115 26.47.115 12.13.116.393 11.866.393 26.22"/><path id="aI" d="M.393 26.22v49.932c0 14.358 11.736 26.106 26.077 26.106 14.342 0 26.08-11.748 26.08-26.106v-49.93C52.55 11.864 40.81.115 26.47.115 12.13.116.393 11.866.393 26.22"/><path id="aK" d="M.393 26.22v49.932c0 14.358 11.736 26.106 26.077 26.106 14.342 0 26.08-11.748 26.08-26.106v-49.93C52.55 11.864 40.81.115 26.47.115 12.13.116.393 11.866.393 26.22"/><path id="aM" d="M.393 26.22v49.932c0 14.358 11.736 26.106 26.077 26.106 14.342 0 26.08-11.748 26.08-26.106v-49.93C52.55 11.864 40.81.115 26.47.115 12.13.116.393 11.866.393 26.22"/><path id="aO" d="M.393 26.22v49.932c0 14.358 11.736 26.106 26.077 26.106 14.342 0 26.08-11.748 26.08-26.106v-49.93C52.55 11.864 40.81.115 26.47.115 12.13.116.393 11.866.393 26.22"/><path id="aQ" d="M.393 26.22v49.932c0 14.358 11.736 26.106 26.077 26.106 14.342 0 26.08-11.748 26.08-26.106v-49.93C52.55 11.864 40.81.115 26.47.115 12.13.116.393 11.866.393 26.22"/><path id="aS" d="M.393 26.22v49.932c0 14.358 11.736 26.106 26.077 26.106 14.342 0 26.08-11.748 26.08-26.106v-49.93C52.55 11.864 40.81.115 26.47.115 12.13.116.393 11.866.393 26.22"/><path id="aU" d="M.393 26.22v49.932c0 14.358 11.736 26.106 26.077 26.106 14.342 0 26.08-11.748 26.08-26.106v-49.93C52.55 11.864 40.81.115 26.47.115 12.13.116.393 11.866.393 26.22"/><path id="aW" d="M.393 26.22v49.932c0 14.358 11.736 26.106 26.077 26.106 14.342 0 26.08-11.748 26.08-26.106v-49.93C52.55 11.864 40.81.115 26.47.115 12.13.116.393 11.866.393 26.22"/><path id="aY" d="M.393 26.22v49.932c0 14.358 11.736 26.106 26.077 26.106 14.342 0 26.08-11.748 26.08-26.106v-49.93C52.55 11.864 40.81.115 26.47.115 12.13.116.393 11.866.393 26.22"/><path id="ba" d="M.237 11.425h10.875V.538H.237v10.887"/><path id="bc" d="M.162 4.862h3.636V.592H.162v4.27"/><path id="be" d="M.538 4.565h3.53V.42H.538v4.145"/><path id="bg" d="M.523 2.602H3.16V.21H.522v2.392"/><path id="bi" d="M.31 2.56h2.97V.076H.31V2.56"/><path id="bk" d="M.515 5.204H1.86V.51H.514v4.694"/><path id="bm" d="M.03 5.697h5.12V.57H.03v5.127"/><path id="bo" d="M.523 11.298h11.154V.13H.523V11.3"/><path id="bq" d="M.066 4.12h3.707V.41H.066v3.71"/><path id="bs" d="M.085 2.91h2.78V.128H.085V2.91"/><path id="bu" d="M.298 7.27h7.055V.205H.298V7.27"/><path id="bw" d="M.093 11.624h11.35V.262H.092v11.362"/><path id="by" d="M.222 8.803h8.623V.17H.222v8.633"/><path id="bA" d="M.488 12.072h11.586V.474H.488v11.598"/><path id="bC" d="M.504 7.634H7.96V.17H.504v7.464"/><path id="bE" d="M.502 6.962h6.483V.472H.503v6.49"/><path id="bG" d="M.465 4.474h3.952V.518H.465v3.956"/><path id="bI" d="M.15 4.198h3.953V.24H.15V4.2"/><path id="bK" d="M.03 2.626H2.25V.4H.03v2.226"/><path id="bM" d="M.215 5.573h5.51V.058H.215v5.515"/><path id="bO" d="M0 .51h267.977V225H0"/><path id="bQ" d="M0 .51h267.977V225H0"/><path id="bS" d="M0 6.57h267.977V.56H0V6.57"/><path id="bU" d="M.427 6.707h11.35V.027H.426v6.68z"/><path id="bW" d="M.237 5.486h4.88V.6H.236v4.886"/><path id="bY" d="M.492 4.695h4.194v-4.2H.492v4.2"/><path id="ca" d="M.01 1.67h1.488V.18H.008v1.49"/><path id="cc" d="M.42 1.807h1.487V.317H.42v1.49"/><path id="ce" d="M.187 2.043h1.49V.553H.186v1.49"/><path id="cg" d="M.268 1.518h1.487V.028H.268v1.49"/><path id="ci" d="M.174 1.736h1.488V.246H.174v1.49"/><path id="ck" d="M.068 2.028h1.488V.538H.068v1.49"/><path id="cm" d="M.08 1.71h1.488V.22H.08v1.49"/><path id="co" d="M.116 1.63h1.488V.14H.116v1.49"/><path id="cq" d="M.243 2.054H1.73V.564H.244v1.49"/><path id="cs" d="M.024 1.87h1.488V.383H.024v1.49"/><path id="cu" d="M.528 1.896h1.488V.406H.528v1.49"/><path id="cw" d="M.4 1.736h1.487V.246H.4v1.49"/><path id="cy" d="M.407 1.837h1.49V.347H.406v1.49"/><path id="cA" d="M.48 6.655h9.306V.237H.48v6.418z"/></defs><g fill="none" fill-rule="evenodd"><g transform="translate(194.91 23.17)"><mask id="b" fill="#fff"><use xlink:href="#a"/></mask><path d="M9.784 9.03a9.48 9.48 0 0 1 4.59 1.178C15.214 4.55 20.074.204 25.96.204c5.34 0 9.838 3.58 11.255 8.47a7.788 7.788 0 0 1 3.22-.697c4.23 0 7.668 3.353 7.83 7.548a6.554 6.554 0 0 1 9.072 6.053 6.553 6.553 0 0 1-6.55 6.557H9.783c-5.27 0-9.543-4.276-9.543-9.552 0-5.277 4.273-9.553 9.544-9.553" fill="#F3F3F3" mask="url(#b)"/></g><g transform="translate(194.91 23.17)"><mask id="d" fill="#fff"><use xlink:href="#c"/></mask><path d="M25.786.204C19.9.204 15.043 4.55 14.202 10.208a9.487 9.487 0 0 0-4.59-1.178C4.342 9.03.07 13.306.07 18.583c0 5.276 4.272 9.552 9.542 9.552h16.174V.205z" fill="#CECECE" mask="url(#d)"/></g><g transform="translate(107.81)"><mask id="f" fill="#fff"><use xlink:href="#e"/></mask><path d="M10.26 9.336a9.48 9.48 0 0 1 4.59 1.18C15.693 4.855 20.55.51 26.437.51c5.34 0 9.84 3.58 11.256 8.47a7.788 7.788 0 0 1 3.22-.697c4.23 0 7.668 3.354 7.83 7.55a6.554 6.554 0 0 1 9.072 6.053 6.553 6.553 0 0 1-6.55 6.556H10.26c-5.27 0-9.54-4.276-9.54-9.553 0-5.277 4.27-9.554 9.54-9.554" fill="#F3F3F3" mask="url(#f)"/></g><g transform="translate(107.81)"><mask id="h" fill="#fff"><use xlink:href="#g"/></mask><path d="M26.265.51C20.38.51 15.52 4.858 14.68 10.516a9.483 9.483 0 0 0-4.59-1.178c-5.27 0-9.543 4.276-9.543 9.553 0 5.276 4.272 9.552 9.543 9.552h16.175V.512z" fill="#CECECE" mask="url(#h)"/></g><g transform="translate(21.318 18.293)"><mask id="j" fill="#fff"><use xlink:href="#i"/></mask><path d="M9.982 8.827c1.663 0 3.228.428 4.59 1.178C15.41 4.347 20.27.002 26.155.002c5.34 0 9.84 3.578 11.256 8.47a7.78 7.78 0 0 1 3.22-.698c4.23 0 7.668 3.354 7.83 7.55a6.554 6.554 0 0 1 9.072 6.052 6.554 6.554 0 0 1-6.55 6.557H9.982c-5.27 0-9.544-4.277-9.544-9.553 0-5.276 4.273-9.553 9.544-9.553" fill="#F3F3F3" mask="url(#j)"/></g><g transform="translate(21.318 18.293)"><mask id="l" fill="#fff"><use xlink:href="#k"/></mask><path d="M25.984.002C20.1.002 15.24 4.348 14.4 10.005a9.494 9.494 0 0 0-4.59-1.178c-5.27 0-9.543 4.277-9.543 9.553 0 5.277 4.273 9.553 9.542 9.553h16.174V.003z" fill="#CECECE" mask="url(#l)"/></g><path d="M135.69 128.804c4.25.383 3.872-2.09 3.92-4.865.12-6.737-1.328-13.493-.106-20.66 5.126 2.21 6.68 6.568 8.22 10.715 3.993 10.786 12.127 14.775 23.003 14.903 6.923.083 3.08-5.07 3.88-7.8 1.126-3.846-1.7-3.01-4.012-2.897-8.453.413-12.768-2.34-15.777-10.06-1.45-3.717-2.62-7.575-6.11-9.988-2.38-1.65-.566-2.89.315-4.168 3.76-5.456 7.668-10.813 11.302-16.35 1.247-1.9 4.26-4.313 2.28-6.194-1.422-1.355-5.074-.73-7.648-.38-1.934.265-2.733 2.464-3.852 3.958-3.684 4.92-6.728 10.345-12.48 14.532 0-4.827-.237-9.67.076-14.475.246-3.722-1.274-4.457-4.6-4.328-3.003.118-4.956.214-4.838 4.182.494 16.47.914 32.95.88 49.427-.012 4.81 2.432 4.17 5.547 4.447M228.793 128.893c9.96-.06 16.113-7.29 14.68-17.16-.83-5.726-4.562-9.393-8.74-12.784-3.232-2.625-6.68-5.02-9.653-7.907-3.14-3.05-3.84-6.702.028-9.783 3.662-2.917 7.048-1.553 9.03 2.083 2.625 4.815 4.487 3.83 7.517.314 2.75-3.187 2.573-5.244-.468-7.946-5.52-4.903-13.803-6.354-20.68-3.228-9.17 4.167-11.445 14.55-4.816 22.12 2.893 3.302 6.453 5.834 9.906 8.494 2.994 2.306 6.105 4.556 7.82 8.094 1.292 2.666 1.036 5.23-1.203 7.266-2.5 2.273-5.064 1.198-7.155-.592-1.693-1.448-3.055-3.345-4.332-5.202-.976-1.418-1.747-3.62-3.57-1.357-1.607 1.994-6.768 1.105-4.83 6.045 2.933 7.485 8.638 11.59 16.467 11.543M164.648 181.064c-1.406-1.597-2.692-3.364-5.427-.73-5.91 5.688-12.348 4.454-16.012-2.864-4.387-8.766-4.344-17.952-1.11-27.03 3.263-9.167 8.492-10.815 16.78-5.976 5.066 2.955 5.542-2.806 7.94-4.672 2.887-2.242.037-3.476-1.52-4.583-8.884-6.324-22.236-3.806-29.304 5.542-5.01 6.624-6.528 14.33-6.66 20.004.032 13.165 3.55 22.485 9.747 28.234 8.126 7.535 21.594 6.597 27.75-1.63 2.728-3.648-.69-4.602-2.182-6.296" fill="#2F2F2F"/><path d="M186.002 99.38c.003-5.487.27-10.992-.082-16.457-.275-4.28 1.777-4.675 5.106-4.185 7.592 1.12 12.532 7.41 13.113 16.832.583 9.49-5.182 20.097-12.493 23.15-3.6 1.5-6.07 1.884-5.723-3.483.34-5.265.075-10.57.078-15.857m-7.957.298h.187c0 8.15.207 16.308-.088 24.447-.145 3.98 1.317 4.676 4.935 4.528 15.64-.646 26.244-10.22 28.146-25.783 2.132-17.47-3.907-27.743-18.4-30.674-3.662-.743-7.542-.35-11.313-.62-2.76-.2-3.56.988-3.516 3.646.133 8.15.048 16.304.048 24.456M186.34 182.762c-1.645-12.62.188-25.3-.363-37.95-.12-2.692 1.183-3.157 3.45-3.024 6.047.353 10.39 3.117 12.824 8.734 5.897 13.597-3.736 33.312-15.91 32.24m-4.302-48.39c-3.188.238-4.137 1.334-4.06 4.465.196 8.148.066 16.305.066 24.457h.187c0 8.15.057 16.3-.032 24.45-.025 2.37.18 3.657 3.22 3.848 17.608 1.116 30.516-12.35 30.342-31.953-.152-17.187-11.373-26.632-29.722-25.268" fill="#2F2F2F"/><path d="M237.846 181.21c-1.85.27-3.777.044-5.668.044-9.406 0-9.406 0-9.406-9.568 0-8.022.003-8.26 7.976-8.144 3.94.057 4.513-1.476 4.668-4.957.187-4.23-2.147-4.024-4.92-3.9-1.322.06-2.666-.132-3.97.034-4.343.555-3.84-2.41-3.744-5.06.09-2.45-1.036-5.547 3.528-5.265 4.522.28 9.09-.15 13.612.124 3.698.22 4.347-1.42 4.37-4.688.02-3.246-1.005-4.247-4.21-4.178-6.995.154-14.017.255-20.984-.24-4.247-.302-5.133 1.442-5.084 5.053.104 7.755.032 15.513.032 23.27l.572-.003c0 7.95.203 15.91-.09 23.85-.135 3.674 1.212 4.48 4.538 4.376 6.615-.21 13.25-.265 19.86.015 3.75.16 4.747-1.052 4.85-4.787.125-4.593-1.09-6.695-5.93-5.978" fill="#303030"/><path d="M163.332 168.24c-3.855-.025-5.457-2.797-5.557-6.445-.11-3.888 1.99-6.145 5.687-6.26 3.79-.116 4.886 2.814 5.368 5.85-.626 3.44-1.385 6.88-5.498 6.854m.163-19.22c-7.996 0-12.528 4.59-12.553 12.72-.025 7.947 4.86 13.522 11.953 13.636 7.438.118 12.357-5.008 12.484-13.006.13-8.234-4.425-13.35-11.885-13.35M169.563 114.967c3.037-.072 4.46-.724 4.355-4.117-.215-7.005-.138-14.022-.04-21.03.046-3.093-1.04-4.272-4.3-4.302-3.6-.036-4.01 1.725-3.888 4.58.143 3.402.032 6.815.032 10.224h-.17c0 3.412.14 6.83-.04 10.23-.163 3.03.624 4.495 4.05 4.415" fill="#6AC72C"/><path d="M170.306 81.263c3.03-.153 4.823-1.89 4.673-5.12-.15-3.234-1.952-4.685-5.145-4.56-3.073.11-4.99 1.64-5.007 4.784-.02 3.508 2.24 5.06 5.478 4.896" fill="#FF5E1F"/><path d="M69.716 181.526c-14.342 0-26.078-11.748-26.078-26.105V88.35c0-14.36 11.736-26.106 26.078-26.106 14.342 0 26.078 11.746 26.078 26.106v67.073c0 14.358-11.736 26.106-26.078 26.106" fill="#F09600"/><g transform="translate(48.118 64.634)"><mask id="n" fill="#fff"><use xlink:href="#m"/></mask><path d="M4.723 22.22A5.208 5.208 0 0 1-.48 17.01C-.48 7.436 7.3-.353 16.86-.353a5.21 5.21 0 0 1 5.205 5.21c0 2.878-2.33 5.21-5.204 5.21-3.822 0-6.93 3.115-6.93 6.94 0 2.88-2.33 5.212-5.207 5.212" fill="#F8C377" mask="url(#n)"/></g><path d="M55.797 191.426a5.474 5.474 0 0 1-5.472-5.478v-8.905c0-17.412 14.15-31.58 31.547-31.58a5.477 5.477 0 0 1 5.473 5.478 5.474 5.474 0 0 1-5.47 5.478c-11.365 0-20.608 9.253-20.608 20.625v8.905a5.474 5.474 0 0 1-5.47 5.478" fill="#F09600"/><path d="M81.875 191.426a5.475 5.475 0 0 1-5.47-5.478v-8.905c0-11.372-9.242-20.625-20.604-20.625a5.476 5.476 0 0 1-5.473-5.477 5.472 5.472 0 0 1 5.47-5.477c17.4 0 31.55 14.168 31.55 31.58v8.905a5.475 5.475 0 0 1-5.472 5.478M83.792 118.734l.007 10.976c19.587 0 35.523-15.953 35.523-35.563V83.89h-.004v-3.877a2.394 2.394 0 0 0-4.786 0v3.876h-1.507v-3.877a2.394 2.394 0 0 0-4.786 0v4.434h-2.26a2.396 2.396 0 0 0 0 4.792h2.376v4.907c0 13.558-11.017 24.587-24.564 24.587M59.216 125.495l-.006-10.976c-19.59 0-35.524 15.952-35.524 35.562v10.26h.003v3.875a2.395 2.395 0 0 0 2.393 2.397 2.395 2.395 0 0 0 2.393-2.397v-3.874h1.504v3.874a2.395 2.395 0 0 0 4.787 0v-4.433h2.26a2.396 2.396 0 0 0 0-4.792H34.65v-4.91c0-13.557 11.017-24.587 24.564-24.587" fill="#F09600"/><g><g transform="translate(43.245 79.268)"><mask id="p" fill="#fff"><use xlink:href="#o"/></mask><path d="M6.188 107.66c-3.187 0-5.796-2.612-5.796-5.804V97.7c0-3.19 2.61-5.8 5.796-5.8 3.186 0 5.796 2.61 5.796 5.8v4.156c0 3.192-2.61 5.803-5.796 5.803" fill="#26241A" mask="url(#p)"/></g><g transform="translate(43.245 79.268)"><mask id="r" fill="#fff"><use xlink:href="#q"/></mask><path d="M17.777 107.66c-3.186 0-5.794-2.612-5.794-5.804V97.7c0-3.19 2.608-5.8 5.794-5.8 3.188 0 5.796 2.61 5.796 5.8v4.156c0 3.192-2.608 5.803-5.796 5.803" fill="#26241A" mask="url(#r)"/></g><g transform="translate(43.245 79.268)"><mask id="t" fill="#fff"><use xlink:href="#s"/></mask><path d="M29.368 107.66c-3.187 0-5.795-2.612-5.795-5.804V97.7c0-3.19 2.608-5.8 5.795-5.8s5.796 2.61 5.796 5.8v4.156c0 3.192-2.61 5.803-5.796 5.803" fill="#26241A" mask="url(#t)"/></g><g transform="translate(43.245 79.268)"><mask id="v" fill="#fff"><use xlink:href="#u"/></mask><path d="M40.958 107.66c-3.186 0-5.795-2.612-5.795-5.804V97.7c0-3.19 2.61-5.8 5.795-5.8 3.187 0 5.795 2.61 5.795 5.8v4.156c0 3.192-2.608 5.803-5.795 5.803" fill="#26241A" mask="url(#v)"/></g><g transform="translate(43.245 79.268)"><mask id="x" fill="#fff"><use xlink:href="#w"/></mask><path d="M52.55 107.66c-3.19 0-5.797-2.612-5.797-5.804V97.7c0-3.19 2.608-5.8 5.796-5.8 3.185 0 5.793 2.61 5.793 5.8v4.156c0 3.192-2.608 5.803-5.794 5.803" fill="#26241A" mask="url(#x)"/></g><g transform="translate(43.245 79.268)"><mask id="z" fill="#fff"><use xlink:href="#y"/></mask><path d="M1.43 102.258c-3.187 0-5.795-2.61-5.795-5.802V92.3c0-3.19 2.608-5.8 5.794-5.8 3.186 0 5.794 2.61 5.794 5.8v4.156c0 3.19-2.608 5.802-5.795 5.802" fill="#665E4F" mask="url(#z)"/></g><g transform="translate(43.245 79.268)"><mask id="B" fill="#fff"><use xlink:href="#A"/></mask><path d="M13.02 102.258c-3.187 0-5.797-2.61-5.797-5.802V92.3c0-3.19 2.61-5.8 5.796-5.8 3.185 0 5.795 2.61 5.795 5.8v4.156c0 3.19-2.61 5.802-5.796 5.802" fill="#665E4F" mask="url(#B)"/></g><g transform="translate(43.245 79.268)"><mask id="D" fill="#fff"><use xlink:href="#C"/></mask><path d="M24.61 102.258c-3.187 0-5.795-2.61-5.795-5.802V92.3c0-3.19 2.608-5.8 5.794-5.8 3.187 0 5.794 2.61 5.794 5.8v4.156c0 3.19-2.607 5.802-5.795 5.802" fill="#665E4F" mask="url(#D)"/></g><g transform="translate(43.245 79.268)"><mask id="F" fill="#fff"><use xlink:href="#E"/></mask><path d="M36.2 102.258c-3.188 0-5.796-2.61-5.796-5.802V92.3c0-3.19 2.608-5.8 5.796-5.8 3.186 0 5.794 2.61 5.794 5.8v4.156c0 3.19-2.608 5.802-5.794 5.802" fill="#665E4F" mask="url(#F)"/></g><g transform="translate(43.245 79.268)"><mask id="H" fill="#fff"><use xlink:href="#G"/></mask><path d="M47.79 102.258c-3.19 0-5.796-2.61-5.796-5.802V92.3c0-3.19 2.607-5.8 5.795-5.8 3.187 0 5.795 2.61 5.795 5.8v4.156c0 3.19-2.608 5.802-5.796 5.802" fill="#665E4F" mask="url(#H)"/></g><g transform="translate(43.245 79.268)"><mask id="J" fill="#fff"><use xlink:href="#I"/></mask><path d="M6.188 96.855c-3.187 0-5.796-2.61-5.796-5.8v-4.156c0-3.192 2.61-5.8 5.796-5.8 3.186 0 5.796 2.608 5.796 5.8v4.154c0 3.19-2.61 5.8-5.796 5.8" fill="#977B53" mask="url(#J)"/></g><g transform="translate(43.245 79.268)"><mask id="L" fill="#fff"><use xlink:href="#K"/></mask><path d="M17.777 96.855c-3.186 0-5.794-2.61-5.794-5.8v-4.156c0-3.192 2.608-5.8 5.794-5.8 3.188 0 5.796 2.608 5.796 5.8v4.154c0 3.19-2.608 5.8-5.796 5.8" fill="#977B53" mask="url(#L)"/></g><g transform="translate(43.245 79.268)"><mask id="N" fill="#fff"><use xlink:href="#M"/></mask><path d="M29.368 96.855c-3.187 0-5.795-2.61-5.795-5.8v-4.156c0-3.192 2.608-5.8 5.795-5.8s5.796 2.608 5.796 5.8v4.154c0 3.19-2.61 5.8-5.796 5.8" fill="#977B53" mask="url(#N)"/></g><g transform="translate(43.245 79.268)"><mask id="P" fill="#fff"><use xlink:href="#O"/></mask><path d="M40.958 96.855c-3.186 0-5.795-2.61-5.795-5.8v-4.156c0-3.192 2.61-5.8 5.795-5.8 3.187 0 5.795 2.608 5.795 5.8v4.154c0 3.19-2.608 5.8-5.795 5.8" fill="#977B53" mask="url(#P)"/></g><g transform="translate(43.245 79.268)"><mask id="R" fill="#fff"><use xlink:href="#Q"/></mask><path d="M52.55 96.855c-3.19 0-5.797-2.61-5.797-5.8v-4.156c0-3.192 2.608-5.8 5.796-5.8 3.185 0 5.793 2.608 5.793 5.8v4.154c0 3.19-2.608 5.8-5.794 5.8" fill="#977B53" mask="url(#R)"/></g><g transform="translate(43.245 79.268)"><mask id="T" fill="#fff"><use xlink:href="#S"/></mask><path d="M1.43 91.456c-3.187 0-5.795-2.613-5.795-5.802v-4.156c0-3.19 2.608-5.8 5.794-5.8 3.186 0 5.794 2.61 5.794 5.8v4.156c0 3.19-2.608 5.802-5.795 5.802" fill="#C68D42" mask="url(#T)"/></g><g transform="translate(43.245 79.268)"><mask id="V" fill="#fff"><use xlink:href="#U"/></mask><path d="M13.02 91.456c-3.187 0-5.797-2.613-5.797-5.802v-4.156c0-3.19 2.61-5.8 5.796-5.8 3.185 0 5.795 2.61 5.795 5.8v4.156c0 3.19-2.61 5.802-5.796 5.802" fill="#C68D42" mask="url(#V)"/></g><g transform="translate(43.245 79.268)"><mask id="X" fill="#fff"><use xlink:href="#W"/></mask><path d="M24.61 91.456c-3.187 0-5.795-2.613-5.795-5.802v-4.156c0-3.19 2.608-5.8 5.794-5.8 3.187 0 5.794 2.61 5.794 5.8v4.156c0 3.19-2.607 5.802-5.795 5.802" fill="#C68D42" mask="url(#X)"/></g><g transform="translate(43.245 79.268)"><mask id="Z" fill="#fff"><use xlink:href="#Y"/></mask><path d="M36.2 91.456c-3.188 0-5.796-2.613-5.796-5.802v-4.156c0-3.19 2.608-5.8 5.796-5.8 3.186 0 5.794 2.61 5.794 5.8v4.156c0 3.19-2.608 5.802-5.794 5.802" fill="#C68D42" mask="url(#Z)"/></g><g transform="translate(43.245 79.268)"><mask id="ab" fill="#fff"><use xlink:href="#aa"/></mask><path d="M47.79 91.456c-3.19 0-5.796-2.613-5.796-5.802v-4.156c0-3.19 2.607-5.8 5.795-5.8 3.187 0 5.795 2.61 5.795 5.8v4.156c0 3.19-2.608 5.802-5.796 5.802" fill="#C68D42" mask="url(#ab)"/></g><g transform="translate(43.245 79.268)"><mask id="ad" fill="#fff"><use xlink:href="#ac"/></mask><path d="M6.188 86.053c-3.187 0-5.796-2.61-5.796-5.8v-4.157c0-3.19 2.61-5.803 5.796-5.803 3.186 0 5.796 2.612 5.796 5.803v4.156c0 3.19-2.61 5.8-5.796 5.8" fill="#F09600" mask="url(#ad)"/></g><g transform="translate(43.245 79.268)"><mask id="af" fill="#fff"><use xlink:href="#ae"/></mask><path d="M17.777 86.053c-3.186 0-5.794-2.61-5.794-5.8v-4.157c0-3.19 2.608-5.803 5.794-5.803 3.188 0 5.796 2.612 5.796 5.803v4.156c0 3.19-2.608 5.8-5.796 5.8" fill="#F09600" mask="url(#af)"/></g><g transform="translate(43.245 79.268)"><mask id="ah" fill="#fff"><use xlink:href="#ag"/></mask><path d="M29.368 86.053c-3.187 0-5.795-2.61-5.795-5.8v-4.157c0-3.19 2.608-5.803 5.795-5.803s5.796 2.612 5.796 5.803v4.156c0 3.19-2.61 5.8-5.796 5.8" fill="#F09600" mask="url(#ah)"/></g><g transform="translate(43.245 79.268)"><mask id="aj" fill="#fff"><use xlink:href="#ai"/></mask><path d="M40.958 86.053c-3.186 0-5.795-2.61-5.795-5.8v-4.157c0-3.19 2.61-5.803 5.795-5.803 3.187 0 5.795 2.612 5.795 5.803v4.156c0 3.19-2.608 5.8-5.795 5.8" fill="#F09600" mask="url(#aj)"/></g><g transform="translate(43.245 79.268)"><mask id="al" fill="#fff"><use xlink:href="#ak"/></mask><path d="M52.55 86.053c-3.19 0-5.797-2.61-5.797-5.8v-4.157c0-3.19 2.608-5.803 5.796-5.803 3.185 0 5.793 2.612 5.793 5.803v4.156c0 3.19-2.608 5.8-5.794 5.8" fill="#F09600" mask="url(#al)"/></g><g transform="translate(43.245 79.268)"><mask id="an" fill="#fff"><use xlink:href="#am"/></mask><path d="M1.43 80.652c-3.187 0-5.795-2.61-5.795-5.802v-4.156c0-3.19 2.608-5.803 5.794-5.803 3.186 0 5.794 2.613 5.794 5.804v4.156c0 3.19-2.608 5.802-5.795 5.802" fill="#F3AD4A" mask="url(#an)"/></g><g transform="translate(43.245 79.268)"><mask id="ap" fill="#fff"><use xlink:href="#ao"/></mask><path d="M13.02 80.652c-3.187 0-5.797-2.61-5.797-5.802v-4.156c0-3.19 2.61-5.803 5.796-5.803 3.185 0 5.795 2.613 5.795 5.804v4.156c0 3.19-2.61 5.802-5.796 5.802" fill="#F3AD4A" mask="url(#ap)"/></g><g transform="translate(43.245 79.268)"><mask id="ar" fill="#fff"><use xlink:href="#aq"/></mask><path d="M24.61 80.652c-3.187 0-5.795-2.61-5.795-5.802v-4.156c0-3.19 2.608-5.803 5.794-5.803 3.187 0 5.794 2.613 5.794 5.804v4.156c0 3.19-2.607 5.802-5.795 5.802" fill="#F3AD4A" mask="url(#ar)"/></g><g transform="translate(43.245 79.268)"><mask id="at" fill="#fff"><use xlink:href="#as"/></mask><path d="M36.2 80.652c-3.188 0-5.796-2.61-5.796-5.802v-4.156c0-3.19 2.608-5.803 5.796-5.803 3.186 0 5.794 2.613 5.794 5.804v4.156c0 3.19-2.608 5.802-5.794 5.802" fill="#F3AD4A" mask="url(#at)"/></g><g transform="translate(43.245 79.268)"><mask id="av" fill="#fff"><use xlink:href="#au"/></mask><path d="M47.79 80.652c-3.19 0-5.796-2.61-5.796-5.802v-4.156c0-3.19 2.607-5.803 5.795-5.803 3.187 0 5.795 2.613 5.795 5.804v4.156c0 3.19-2.608 5.802-5.796 5.802" fill="#F3AD4A" mask="url(#av)"/></g><g transform="translate(43.245 79.268)"><mask id="ax" fill="#fff"><use xlink:href="#aw"/></mask><path d="M6.188 75.25C3 75.25.392 72.64.392 69.447v-4.155c0-3.19 2.61-5.802 5.796-5.802 3.186 0 5.796 2.61 5.796 5.802v4.155c0 3.193-2.61 5.803-5.796 5.803" fill="#F8C377" mask="url(#ax)"/></g><g transform="translate(43.245 79.268)"><mask id="az" fill="#fff"><use xlink:href="#ay"/></mask><path d="M17.777 75.25c-3.186 0-5.794-2.61-5.794-5.803v-4.155c0-3.19 2.608-5.802 5.794-5.802 3.188 0 5.796 2.61 5.796 5.802v4.155c0 3.193-2.608 5.803-5.796 5.803" fill="#F8C377" mask="url(#az)"/></g><g transform="translate(43.245 79.268)"><mask id="aB" fill="#fff"><use xlink:href="#aA"/></mask><path d="M29.368 75.25c-3.187 0-5.795-2.61-5.795-5.803v-4.155c0-3.19 2.608-5.802 5.795-5.802s5.796 2.61 5.796 5.802v4.155c0 3.193-2.61 5.803-5.796 5.803" fill="#F8C377" mask="url(#aB)"/></g><g transform="translate(43.245 79.268)"><mask id="aD" fill="#fff"><use xlink:href="#aC"/></mask><path d="M40.958 75.25c-3.186 0-5.795-2.61-5.795-5.803v-4.155c0-3.19 2.61-5.802 5.795-5.802 3.187 0 5.795 2.61 5.795 5.802v4.155c0 3.193-2.608 5.803-5.795 5.803" fill="#F8C377" mask="url(#aD)"/></g><g transform="translate(43.245 79.268)"><mask id="aF" fill="#fff"><use xlink:href="#aE"/></mask><path d="M52.55 75.25c-3.19 0-5.797-2.61-5.797-5.803v-4.155c0-3.19 2.608-5.802 5.796-5.802 3.185 0 5.793 2.61 5.793 5.802v4.155c0 3.193-2.608 5.803-5.794 5.803" fill="#F8C377" mask="url(#aF)"/></g><g transform="translate(43.245 79.268)"><mask id="aH" fill="#fff"><use xlink:href="#aG"/></mask><path d="M1.43 69.848c-3.187 0-5.795-2.61-5.795-5.802V59.89c0-3.19 2.608-5.8 5.794-5.8 3.186 0 5.794 2.61 5.794 5.8v4.156c0 3.19-2.608 5.802-5.795 5.802" fill="#FAD7A4" mask="url(#aH)"/></g><g transform="translate(43.245 79.268)"><mask id="aJ" fill="#fff"><use xlink:href="#aI"/></mask><path d="M13.02 69.848c-3.187 0-5.797-2.61-5.797-5.802V59.89c0-3.19 2.61-5.8 5.796-5.8 3.185 0 5.795 2.61 5.795 5.8v4.156c0 3.19-2.61 5.802-5.796 5.802" fill="#FAD7A4" mask="url(#aJ)"/></g><g transform="translate(43.245 79.268)"><mask id="aL" fill="#fff"><use xlink:href="#aK"/></mask><path d="M24.61 69.848c-3.187 0-5.795-2.61-5.795-5.802V59.89c0-3.19 2.608-5.8 5.794-5.8 3.187 0 5.794 2.61 5.794 5.8v4.156c0 3.19-2.607 5.802-5.795 5.802" fill="#FAD7A4" mask="url(#aL)"/></g><g transform="translate(43.245 79.268)"><mask id="aN" fill="#fff"><use xlink:href="#aM"/></mask><path d="M36.2 69.848c-3.188 0-5.796-2.61-5.796-5.802V59.89c0-3.19 2.608-5.8 5.796-5.8 3.186 0 5.794 2.61 5.794 5.8v4.156c0 3.19-2.608 5.802-5.794 5.802" fill="#FAD7A4" mask="url(#aN)"/></g><g transform="translate(43.245 79.268)"><mask id="aP" fill="#fff"><use xlink:href="#aO"/></mask><path d="M47.79 69.848c-3.19 0-5.796-2.61-5.796-5.802V59.89c0-3.19 2.607-5.8 5.795-5.8 3.187 0 5.795 2.61 5.795 5.8v4.156c0 3.19-2.608 5.802-5.796 5.802" fill="#FAD7A4" mask="url(#aP)"/></g><g transform="translate(43.245 79.268)"><mask id="aR" fill="#fff"><use xlink:href="#aQ"/></mask><path d="M6.188 64.447C3 64.447.392 61.837.392 58.645V54.49c0-3.193 2.61-5.803 5.796-5.803 3.186 0 5.796 2.61 5.796 5.802v4.155c0 3.19-2.61 5.802-5.796 5.802" fill="#F09600" mask="url(#aR)"/></g><g transform="translate(43.245 79.268)"><mask id="aT" fill="#fff"><use xlink:href="#aS"/></mask><path d="M17.777 64.447c-3.186 0-5.794-2.61-5.794-5.802V54.49c0-3.193 2.608-5.803 5.794-5.803 3.188 0 5.796 2.61 5.796 5.802v4.155c0 3.19-2.608 5.802-5.796 5.802" fill="#F09600" mask="url(#aT)"/></g><g transform="translate(43.245 79.268)"><mask id="aV" fill="#fff"><use xlink:href="#aU"/></mask><path d="M29.368 64.447c-3.187 0-5.795-2.61-5.795-5.802V54.49c0-3.193 2.608-5.803 5.795-5.803s5.796 2.61 5.796 5.802v4.155c0 3.19-2.61 5.802-5.796 5.802" fill="#F09600" mask="url(#aV)"/></g><g transform="translate(43.245 79.268)"><mask id="aX" fill="#fff"><use xlink:href="#aW"/></mask><path d="M40.958 64.447c-3.186 0-5.795-2.61-5.795-5.802V54.49c0-3.193 2.61-5.803 5.795-5.803 3.187 0 5.795 2.61 5.795 5.802v4.155c0 3.19-2.608 5.802-5.795 5.802" fill="#F09600" mask="url(#aX)"/></g><g transform="translate(43.245 79.268)"><mask id="aZ" fill="#fff"><use xlink:href="#aY"/></mask><path d="M52.55 64.447c-3.19 0-5.797-2.61-5.797-5.802V54.49c0-3.193 2.608-5.803 5.796-5.803 3.185 0 5.793 2.61 5.793 5.802v4.155c0 3.19-2.608 5.802-5.794 5.802" fill="#F09600" mask="url(#aZ)"/></g></g><path d="M95.78 131.01H43.65v-6.638h52.13v6.637z" fill="#F09600"/><g><path d="M49.135 109.01c-4.703 0-8.53-3.828-8.53-8.536 0-4.71 3.827-8.54 8.53-8.54 4.705 0 8.53 3.83 8.53 8.54 0 4.708-3.825 8.537-8.53 8.537" fill="#FFF"/><path d="M49.136 90.266c-5.62 0-10.196 4.58-10.196 10.207 0 5.63 4.575 10.207 10.196 10.207 5.62 0 10.194-4.578 10.194-10.207 0-5.628-4.573-10.207-10.194-10.207m0 3.336a6.868 6.868 0 0 1 6.864 6.87 6.87 6.87 0 0 1-6.864 6.874 6.87 6.87 0 0 1-6.865-6.873 6.868 6.868 0 0 1 6.866-6.87" fill="#F09600"/><path d="M91.023 109.01c-4.704 0-8.53-3.828-8.53-8.536 0-4.71 3.826-8.54 8.53-8.54 4.704 0 8.53 3.83 8.53 8.54 0 4.708-3.826 8.537-8.53 8.537" fill="#FFF"/><path d="M91.023 90.266c-5.622 0-10.195 4.58-10.195 10.207 0 5.63 4.573 10.207 10.195 10.207 5.62 0 10.195-4.578 10.195-10.207 0-5.628-4.574-10.207-10.195-10.207m0 3.336a6.868 6.868 0 0 1 6.864 6.87 6.87 6.87 0 0 1-6.864 6.874 6.87 6.87 0 0 1-6.865-6.873 6.868 6.868 0 0 1 6.865-6.87" fill="#F09600"/><path d="M91.023 105.033a1.37 1.37 0 0 1-1.368-1.37v-6.38a1.368 1.368 0 1 1 2.735 0v6.38a1.37 1.37 0 0 1-1.367 1.37M49.136 105.033a1.37 1.37 0 0 1-1.367-1.37v-6.38a1.368 1.368 0 1 1 2.734 0v6.38a1.37 1.37 0 0 1-1.368 1.37" fill="#26241A"/><g transform="translate(73.7 64.024)"><mask id="bb" fill="#fff"><use xlink:href="#ba"/></mask><path d="M11.113 5.983a5.44 5.44 0 0 1-5.437 5.444A5.44 5.44 0 0 1 .238 5.983 5.44 5.44 0 0 1 5.676.54a5.44 5.44 0 0 1 5.437 5.443" fill="#F8C377" mask="url(#bb)"/></g><path d="M69.408 112.483c-4.197 0-8.164-1.56-11.23-4.43a4.345 4.345 0 0 1-.207-6.137 4.335 4.335 0 0 1 6.13-.207 7.74 7.74 0 0 0 5.59 2.084 7.736 7.736 0 0 0 5.434-2.457 4.335 4.335 0 0 1 6.13-.208 4.347 4.347 0 0 1 .21 6.137c-2.997 3.207-7.074 5.057-11.482 5.205-.192.007-.384.01-.574.01" fill="#FFF"/><path d="M69.41 109.587a13.46 13.46 0 0 1-9.258-3.648 1.446 1.446 0 0 1 1.974-2.115c2.076 1.942 4.79 2.947 7.66 2.863a10.612 10.612 0 0 0 7.45-3.375 1.444 1.444 0 0 1 2.045-.07 1.45 1.45 0 0 1 .07 2.047c-2.468 2.643-5.83 4.167-9.465 4.29-.16.005-.318.007-.475.007" fill="#26241A"/><path d="M33.03 188.398s-2.232.184-3.41 1.524c-.968 1.1-.222 2.606-.222 2.606s1.59.553 2.555-.548c1.18-1.34 1.078-3.582 1.078-3.582" fill="#0AB500"/><g transform="translate(29.236 187.805)"><mask id="bd" fill="#fff"><use xlink:href="#bc"/></mask><path d="M3.795.593L.162 4.723s1.588.553 2.555-.548C3.897 2.835 3.795.593 3.795.593" fill="#000" mask="url(#bd)"/></g><path d="M27.278 195.07a.303.303 0 1 1-.44-.417l2.747-2.813a.303.303 0 0 1 .44.416l-2.747 2.814z" fill="#3F7519"/><path d="M21.25 183.347s2.168.178 3.313 1.48c.94 1.068.214 2.53.214 2.53s-1.542.537-2.48-.532c-1.146-1.3-1.048-3.478-1.048-3.478" fill="#0AB500"/><g transform="translate(20.71 182.927)"><mask id="bf" fill="#fff"><use xlink:href="#be"/></mask><path d="M.54.42l3.528 4.01s-1.542.537-2.48-.532C.44 2.598.54.42.54.42" fill="#000" mask="url(#bf)"/></g><path d="M26.836 189.825a.293.293 0 0 0 .426-.404l-2.666-2.732a.293.293 0 0 0-.415-.012.295.295 0 0 0-.012.416l2.668 2.73z" fill="#3F7519"/><path d="M22.45 189.844s1.396-.102 2.25.613c.704.585.387 1.586.387 1.586s-.927.492-1.63-.094c-.855-.715-1.006-2.106-1.006-2.106" fill="#0AB500"/><g transform="translate(21.927 189.634)"><mask id="bh" fill="#fff"><use xlink:href="#bg"/></mask><path d="M.523.21l2.637 2.2s-.927.49-1.63-.095C.676 1.6.524.21.524.21" fill="#000" mask="url(#bh)"/></g><path d="M26.637 193.407a.19.19 0 0 0 .232-.3l-1.965-1.47a.188.188 0 0 0-.264.032.19.19 0 0 0 .035.265l1.962 1.472z" fill="#3F7519"/><path d="M31.907 185.44s-1.5-.185-2.465.538c-.79.594-.504 1.693-.504 1.693s.974.583 1.764-.01c.964-.723 1.205-2.22 1.205-2.22" fill="#0AB500"/><g transform="translate(28.627 185.366)"><mask id="bj" fill="#fff"><use xlink:href="#bi"/></mask><path d="M3.28.076L.31 2.306s.974.58 1.764-.01C3.04 1.57 3.28.075 3.28.075" fill="#000" mask="url(#bj)"/></g><path d="M27.188 189.057a.206.206 0 0 1-.285-.05.206.206 0 0 1 .052-.286l2.202-1.48a.204.204 0 0 1 .233.337l-2.202 1.48z" fill="#3F7519"/><path d="M26.706 180.996s-1.12 1.44-1.042 2.963c.064 1.25 1.284 1.732 1.284 1.732s1.164-.605 1.1-1.856c-.08-1.523-1.342-2.84-1.342-2.84" fill="#0AB500"/><g transform="translate(26.19 180.488)"><mask id="bl" fill="#fff"><use xlink:href="#bk"/></mask><path d="M.515.51l.242 4.694s1.164-.605 1.1-1.856C1.776 1.825.514.508.514.508" fill="#000" mask="url(#bl)"/></g><path d="M27.204 188.022a.232.232 0 0 1-.465.008l.002-3.02a.232.232 0 1 1 .463-.005v3.017z" fill="#3F7519"/><path d="M27.39 197.996V187.6a.418.418 0 0 0-.835 0v10.396h.835z" fill="#3F7519"/><path d="M29.376 188.868a.69.69 0 1 1-1.35-.282.69.69 0 0 1 1.35.282M25.817 193.044a.688.688 0 1 1-1.36.212.688.688 0 1 1 1.36-.212M25.755 188.802a.69.69 0 1 1-1.38 0 .69.69 0 0 1 1.38 0M30.076 193.855a.69.69 0 1 1-1.378 0 .69.69 0 0 1 1.378 0" fill="#FE6E2F"/><path d="M253.48 207.977a5.67 5.67 0 0 1-5.668 5.674H20.165a5.67 5.67 0 0 1-5.668-5.673 5.67 5.67 0 0 1 5.668-5.675h227.647a5.67 5.67 0 0 1 5.67 5.675" fill="#A0662B"/><g transform="translate(26.19 204.268)"><mask id="bn" fill="#fff"><use xlink:href="#bm"/></mask><path d="M5.15 3.134a2.562 2.562 0 0 1-2.56 2.563A2.562 2.562 0 0 1 .03 3.134a2.56 2.56 0 1 1 5.12 0" fill="#B77431" mask="url(#bn)"/></g><g transform="translate(123.036 205.488)"><mask id="bp" fill="#fff"><use xlink:href="#bo"/></mask><path d="M11.678 5.715A5.58 5.58 0 0 1 6.1 11.298 5.58 5.58 0 0 1 .524 5.715 5.58 5.58 0 0 1 6.1.13a5.58 5.58 0 0 1 5.578 5.585" fill="#804813" mask="url(#bp)"/></g><g transform="translate(111.464 205.488)"><mask id="br" fill="#fff"><use xlink:href="#bq"/></mask><path d="M3.774 2.264a1.855 1.855 0 1 1 0 0" fill="#804813" mask="url(#br)"/></g><g transform="translate(167.5 207.927)"><mask id="bt" fill="#fff"><use xlink:href="#bs"/></mask><path d="M2.865 1.52a1.39 1.39 0 1 1-2.782 0 1.39 1.39 0 0 1 2.782 0" fill="#804813" mask="url(#bt)"/></g><g transform="translate(36.545 210.366)"><mask id="bv" fill="#fff"><use xlink:href="#bu"/></mask><path d="M7.353 3.738a3.53 3.53 0 0 1-7.055 0A3.53 3.53 0 0 1 3.825.206a3.53 3.53 0 0 1 3.528 3.532" fill="#804813" mask="url(#bv)"/></g><g transform="translate(194.3 197.56)"><mask id="bx" fill="#fff"><use xlink:href="#bw"/></mask><path d="M11.442 5.943c0 3.138-2.54 5.68-5.674 5.68a5.678 5.678 0 0 1-5.675-5.68c0-3.137 2.54-5.68 5.675-5.68a5.677 5.677 0 0 1 5.674 5.68" fill="#804813" mask="url(#bx)"/></g><g transform="translate(99.282 198.17)"><mask id="bz" fill="#fff"><use xlink:href="#by"/></mask><path d="M8.846 4.486a4.314 4.314 0 0 1-4.312 4.317A4.314 4.314 0 0 1 .222 4.486 4.314 4.314 0 0 1 4.534.17a4.314 4.314 0 0 1 4.312 4.316" fill="#B77431" mask="url(#bz)"/></g><g transform="translate(208.918 205.488)"><mask id="bB" fill="#fff"><use xlink:href="#bA"/></mask><path d="M12.074 6.273c0 3.203-2.594 5.8-5.793 5.8a5.796 5.796 0 0 1-5.792-5.8c0-3.203 2.594-5.8 5.793-5.8 3.2 0 5.794 2.597 5.794 5.8" fill="#B77431" mask="url(#bB)"/></g><g transform="translate(229.627 198.17)"><mask id="bD" fill="#fff"><use xlink:href="#bC"/></mask><path d="M7.96 3.9a3.73 3.73 0 0 1-3.728 3.733A3.73 3.73 0 0 1 .504 3.9 3.73 3.73 0 0 1 4.232.17 3.73 3.73 0 0 1 7.96 3.9" fill="#B77431" mask="url(#bD)"/></g><g transform="translate(149.227 209.756)"><mask id="bF" fill="#fff"><use xlink:href="#bE"/></mask><path d="M6.985 3.717a3.243 3.243 0 1 1-6.483 0c0-1.792 1.45-3.245 3.242-3.245 1.79 0 3.24 1.453 3.24 3.245" fill="#B77431" mask="url(#bF)"/></g><g transform="translate(182.727 204.268)"><mask id="bH" fill="#fff"><use xlink:href="#bG"/></mask><path d="M4.417 2.496A1.977 1.977 0 1 1 2.44.518c1.092 0 1.977.885 1.977 1.978" fill="#B77431" mask="url(#bH)"/></g><g transform="translate(80.4 206.098)"><mask id="bJ" fill="#fff"><use xlink:href="#bI"/></mask><path d="M4.103 2.22A1.977 1.977 0 1 1 2.127.24c1.09 0 1.976.887 1.976 1.98" fill="#B77431" mask="url(#bJ)"/></g><g transform="translate(49.945 206.098)"><mask id="bL" fill="#fff"><use xlink:href="#bK"/></mask><path d="M2.252 1.514a1.112 1.112 0 1 1-2.223 0 1.112 1.112 0 0 1 2.222 0" fill="#B77431" mask="url(#bL)"/></g><g transform="translate(60.3 209.756)"><mask id="bN" fill="#fff"><use xlink:href="#bM"/></mask><path d="M5.724 2.815A2.756 2.756 0 0 1 2.97 5.573a2.756 2.756 0 0 1 0-5.514 2.755 2.755 0 0 1 2.754 2.755" fill="#B77431" mask="url(#bN)"/></g><g><mask id="bP" fill="#fff"><use xlink:href="#bO"/></mask><path d="M237.37 219.325a5.67 5.67 0 0 1-5.668 5.675H36.275a5.67 5.67 0 0 1-5.668-5.675 5.67 5.67 0 0 1 5.668-5.674h195.427a5.67 5.67 0 0 1 5.67 5.675" fill="#804813" mask="url(#bP)"/></g><g><mask id="bR" fill="#fff"><use xlink:href="#bQ"/></mask><path d="M267.977 196.29a6.01 6.01 0 0 1-6.006 6.012H6.007A6.01 6.01 0 0 1 0 196.29a6.01 6.01 0 0 1 6.006-6.014H261.97a6.01 6.01 0 0 1 6.007 6.014" fill="#A9E71A" mask="url(#bR)"/></g><g transform="translate(0 195.732)"><mask id="bT" fill="#fff"><use xlink:href="#bS"/></mask><path d="M6.006 6.57H261.97A6.01 6.01 0 0 0 267.978.56H0A6.01 6.01 0 0 0 6.006 6.57" fill="#000" mask="url(#bT)"/></g><path d="M189.314 225c.06-.326.093-.658.093-1 0-3.137-2.54-5.68-5.674-5.68a5.677 5.677 0 0 0-5.674 5.68c0 .342.033.674.09 1h11.164zM222.688 225a3.15 3.15 0 1 0-6.248-.555c0 .19.02.374.052.555h6.196z" fill="#744111"/><g transform="translate(46.29 218.293)"><mask id="bV" fill="#fff"><use xlink:href="#bU"/></mask><path d="M11.684 6.707c.058-.325.093-.658.093-1 0-3.137-2.54-5.68-5.675-5.68a5.678 5.678 0 0 0-5.675 5.68c0 .342.036.675.094 1h11.164z" fill="#B77431" mask="url(#bV)"/></g><path d="M114.38 225c.03-.17.05-.343.05-.52a2.95 2.95 0 0 0-2.95-2.95 2.95 2.95 0 0 0-2.947 2.95c0 .177.02.35.05.52h5.798z" fill="#B77431"/><path d="M70.906 213.65c-.04.236-.067.475-.067.722a4.093 4.093 0 0 0 4.09 4.095 4.093 4.093 0 0 0 4.025-4.816h-8.05z" fill="#744111"/><g transform="translate(88.927 214.634)"><mask id="bX" fill="#fff"><use xlink:href="#bW"/></mask><path d="M5.115 3.043a2.44 2.44 0 0 1-2.44 2.443A2.44 2.44 0 0 1 .238 3.043 2.44 2.44 0 0 1 2.677.6a2.44 2.44 0 0 1 2.438 2.443" fill="#B77431" mask="url(#bX)"/></g><g transform="translate(198.564 216.463)"><mask id="bZ" fill="#fff"><use xlink:href="#bY"/></mask><path d="M4.686 2.596A2.1 2.1 0 1 1 2.59.496a2.1 2.1 0 0 1 2.096 2.1" fill="#B77431" mask="url(#bZ)"/></g><path d="M167.695 220.17a1.188 1.188 0 1 1-2.376 0c0-.656.53-1.19 1.187-1.19a1.19 1.19 0 0 1 1.188 1.19M108.673 218.288a1.19 1.19 0 1 1-2.378.002 1.19 1.19 0 0 1 2.378-.002M216.71 216.546a.67.67 0 1 1-1.338 0 .67.67 0 0 1 1.34 0M155.26 219.906a.67.67 0 1 1-1.338 0 .67.67 0 0 1 1.34 0" fill="#744111"/><g transform="translate(64.564 219.512)"><mask id="cb" fill="#fff"><use xlink:href="#ca"/></mask><path d="M1.497.925a.745.745 0 1 1-1.49 0 .745.745 0 0 1 1.49 0" fill="#B77431" mask="url(#cb)"/></g><g transform="translate(192.473 215.244)"><mask id="cd" fill="#fff"><use xlink:href="#cc"/></mask><path d="M1.907 1.062a.745.745 0 1 1-1.49.002.745.745 0 0 1 1.49-.002" fill="#B77431" mask="url(#cd)"/></g><g transform="translate(229.018 218.902)"><mask id="cf" fill="#fff"><use xlink:href="#ce"/></mask><path d="M1.675 1.3a.745.745 0 1 1-1.49-.002.745.745 0 0 1 1.49 0" fill="#B77431" mask="url(#cf)"/></g><g transform="translate(172.982 216.463)"><mask id="ch" fill="#fff"><use xlink:href="#cg"/></mask><path d="M1.756.773a.745.745 0 1 1-1.49 0 .745.745 0 0 1 1.49 0" fill="#B77431" mask="url(#ch)"/></g><g transform="translate(152.882 205.488)"><mask id="cj" fill="#fff"><use xlink:href="#ci"/></mask><path d="M1.662.99a.745.745 0 1 1-1.49 0 .745.745 0 0 1 1.49 0" fill="#804813" mask="url(#cj)"/></g><g transform="translate(65.173 204.268)"><mask id="cl" fill="#fff"><use xlink:href="#ck"/></mask><path d="M1.556 1.283a.745.745 0 1 1-1.49 0 .745.745 0 0 1 1.49 0" fill="#804813" mask="url(#cl)"/></g><g transform="translate(230.236 207.927)"><mask id="cn" fill="#fff"><use xlink:href="#cm"/></mask><path d="M1.57.966a.745.745 0 1 1-1.492 0 .745.745 0 0 1 1.49 0" fill="#804813" mask="url(#cn)"/></g><g transform="translate(20.1 206.707)"><mask id="cp" fill="#fff"><use xlink:href="#co"/></mask><path d="M1.605.884a.745.745 0 1 1-1.49 0 .745.745 0 0 1 1.49 0" fill="#804813" mask="url(#cp)"/></g><g transform="translate(175.418 206.098)"><mask id="cr" fill="#fff"><use xlink:href="#cq"/></mask><path d="M1.732 1.31a.745.745 0 1 1-1.49 0 .745.745 0 0 1 1.49 0" fill="#B77431" mask="url(#cr)"/></g><g transform="translate(141.918 206.098)"><mask id="ct" fill="#fff"><use xlink:href="#cs"/></mask><path d="M1.513 1.126a.745.745 0 1 1-1.49 0 .745.745 0 0 1 1.49 0" fill="#B77431" mask="url(#ct)"/></g><g transform="translate(93.8 207.927)"><mask id="cv" fill="#fff"><use xlink:href="#cu"/></mask><path d="M2.016 1.152a.745.745 0 1 1-1.49 0 .745.745 0 0 1 1.49 0" fill="#B77431" mask="url(#cv)"/></g><g transform="translate(40.2 205.488)"><mask id="cx" fill="#fff"><use xlink:href="#cw"/></mask><path d="M1.887.99a.745.745 0 1 1-1.49 0 .745.745 0 0 1 1.49 0" fill="#B77431" mask="url(#cx)"/></g><g transform="translate(71.873 208.537)"><mask id="cz" fill="#fff"><use xlink:href="#cy"/></mask><path d="M1.896 1.092a.745.745 0 1 1-1.49 0 .745.745 0 0 1 1.49 0" fill="#B77431" mask="url(#cz)"/></g><path d="M41.668 218.35a.67.67 0 1 1-1.338.002.67.67 0 0 1 1.338 0M126.652 217.48a.67.67 0 1 1-1.338 0 .67.67 0 0 1 1.338 0" fill="#744111"/><g transform="translate(136.436 213.415)"><mask id="cB" fill="#fff"><use xlink:href="#cA"/></mask><path d="M.825.236a4.655 4.655 0 0 0 4.307 6.418A4.655 4.655 0 0 0 9.44.237H.825z" fill="#B77431" mask="url(#cB)"/></g></g></g></svg>