<svg id="Capa_1" xmlns="http://www.w3.org/2000/svg" xmlns:xlink="http://www.w3.org/1999/xlink" viewBox="0 0 341.2 300"><style>.st0{fill:#fff}.st1{opacity:.3}.st2{fill:#472728}.st3{fill:#3d6d74}.st4{opacity:.5;clip-path:url(#SVGID_2_)}.st5{opacity:.75;clip-path:url(#SVGID_4_)}.st6{clip-path:url(#SVGID_6_)}.st7{clip-path:url(#SVGID_4_)}.st8{fill:#acd2e2}.st9{clip-path:url(#SVGID_10_)}.st10{opacity:.75;clip-path:url(#SVGID_12_)}.st11{clip-path:url(#SVGID_14_)}.st12{clip-path:url(#SVGID_12_)}.st13{opacity:.75;clip-path:url(#SVGID_18_)}.st14{clip-path:url(#SVGID_20_)}.st15{clip-path:url(#SVGID_18_)}.st16{opacity:.75;clip-path:url(#SVGID_24_)}.st17{clip-path:url(#SVGID_26_)}.st18{clip-path:url(#SVGID_24_)}.st19{fill:none}.st20{fill:#75b5c6}.st21{fill:#66a5b6}.st22{fill:#efce36}.st23{fill:#8cb2c1}.st24{opacity:.75}.st25{fill:#c845d8}.st26{fill:#aa00b7}.st27{fill:#734a1e}</style><path class="st0" d="M170.9 293.3c65.4 0 118.3-53.4 118.3-118.9v-.4c0-65.4-52.9-118.5-118.3-118.5-65.5 0-118.7 53.1-118.7 118.6v.1c0 65.6 53.2 119.1 118.7 119.1z"/><path class="st1" d="M241.9 78.6s-16.2-41.9-74.3-38.7l32.2 13.8 42.1 24.9zM284.8 141.7c-1.2-1.8 1.6-4 2.3-5.8 4.1-11.6 4.8-20.5 4.9-20.6v-.6c.8-2.7 3.5-4.6 6.3-4.4l.1-.2c0-.2.3.2.5.2s.6.2.7.3c1.9.5 3.2 1.9 3.8 3.9.1.5.2.9.2 1.4l.7-2.6.3-.9v-.2c.1-.3.2-.5.4-.8l.1-.2.6-.6s.1-.1.2-.1c.2-.2.4-.4.7-.6l.1-.1c.2-.1.4-.3.7-.4h.1c.3-.1.5-.2.9-.3h.2c.2 0 .4-.1.6-.1H309.5l1.9.1h.1c1.5.4 2.8 1.4 3.6 2.8.8 1.4 1 3 .5 4.5l-.8 2.9c1.2-1.7 3.2-2.6 5.3-2.4.9.1 1.8.4 2.6.9.5.3.9.7 1.3 1.1 1.6 1.8 1.9 4.4.8 6.5 0 .1-.1.2-.1.2-.7 2-6.3 18-18.7 35.3-4.9 6.8-10.2 12.8-15.8 18.2 0 .4.6-28.5-5.4-37.4z"/><path class="st2" d="M237 173.9s-9 3.7-13.5 4.4l-7.5 22.6 9.8-1.1 6-.9 3.1-.6 2.1-24.4z"/><path class="st2" d="M304.6 96.6H304.3c-.2 0-.4 0-.6.1h-.2l-.9.3h-.1c-.3.1-.5.3-.8.4l-.1.1c-.3.2-.5.4-.7.6-.1.1-.1.1-.2.1-.2.2-.5.4-.6.6l-.1.2c-.2.3-.3.6-.5.8 0 .1 0 .1-.1.2-.1.3-.3.6-.3 1l-.8 2.7c0-.5-.1-1-.3-1.5-.6-2.1-2.1-3.6-4.2-4.2-.2-.1-.9-.3-1.1-.3-.2 0-.2-.5-1-.2l.3.2c-3-.2-5.5 1.8-6.3 4.7v.6c0 .1-.8 9.7-5.2 22-4 11.3-11.8 27.2-26.5 38.9-5.4 4.3-11.5 7.9-18.1 10.5l-3.8 24.5c14.7-2.9 28.4-8.9 40.8-18 10.3-7.5 19.7-17.2 27.9-28.6 13.3-18.4 19.3-35.5 20-37.7 0-.1.1-.2.1-.2 1.2-2.3.8-5-.8-7-.4-.5-.9-.9-1.4-1.2-.8-.5-1.8-.9-2.8-1-2.2-.2-4.4.7-5.7 2.5l.9-3c.5-1.6.3-3.3-.6-4.8-.8-1.5-2.2-2.5-3.8-3h-.2l-1.9-.3z"/><path class="st3" d="M223.9 180.7L219 198c73.8-5.3 99.3-84.5 99.3-84.5 1.1-1.7.6-4.1-1.1-5.2-1.8-1.1-4.1-.6-5.2 1.1l-3.8 5.9-.4.7c-.3.3-.8.4-1.3.3-.8-.2-1.2-1-1-1.8l3-10.6c.6-2-.6-4.1-2.6-4.7-2-.6-4.1.6-4.7 2.6l-3 10.6v.1c-.2.8-1.1 1.3-1.9 1-.7-.2-1.2-.9-1.1-1.6l.2-6.6c.2-2.2-.6-4.1-2.6-4.7-2-.6-4.1.6-4.7 2.6 0 0-5.4 64.3-64.2 77.5"/><defs><path id="SVGID_1_" d="M301.1 101.8l-3 10.6v.1c-.2.8-1.1 1.3-1.9 1-.7-.2-1.2-.9-1.1-1.6l.2-6.6c.2-2.2-.6-4.1-2.6-4.7-2-.6-4.1.6-4.7 2.6 0 0-5.3 64.3-64.2 77.5l-4.9 17.3c73.8-5.3 99.3-84.5 99.3-84.5 1.1-1.8.6-4.1-1.1-5.2-1.8-1.1-4.1-.6-5.2 1.1l-3.8 5.9-.4.7c-.3.3-.8.4-1.3.3-.8-.2-1.2-1-1-1.8l3-10.6c.6-2-.6-4.1-2.6-4.7-.2-.1-.4-.1-.7-.1-1.8-.2-3.5 1-4 2.7"/></defs><clipPath id="SVGID_2_"><use xlink:href="#SVGID_1_" overflow="visible"/></clipPath><g class="st4"><defs><path id="SVGID_3_" transform="scale(-1) rotate(5.56 2732.372 -6091.44)" d="M268 114h55.7v37.4H268z"/></defs><clipPath id="SVGID_4_"><use xlink:href="#SVGID_3_" overflow="visible"/></clipPath><g class="st5"><defs><path id="SVGID_5_" transform="scale(-1) rotate(5.56 2732.372 -6091.44)" d="M268 114h55.7v37.4H268z"/></defs><clipPath id="SVGID_6_"><use xlink:href="#SVGID_5_" overflow="visible"/></clipPath><g class="st6"><defs><path id="SVGID_7_" transform="scale(-1) rotate(5.56 2732.372 -6091.45)" d="M268 114h55.7v37.5H268z"/></defs><clipPath id="SVGID_8_"><use xlink:href="#SVGID_7_" overflow="visible"/></clipPath><g clip-path="url(#SVGID_8_)"><image width="131" height="88" xlink:href="EADB0572B9014F8B.png" transform="scale(.4256) rotate(5.56 -2376.968 6660.587)" overflow="visible"/></g></g></g><path transform="rotate(-158.11 295.386 131.925)" class="st7 st8" d="M276.2 126.5h38.4v10.9h-38.4z"/></g><g class="st4"><defs><path id="SVGID_9_" transform="rotate(-174.443 241.098 190.927)" d="M226.4 171.7h29.4v38.4h-29.4z"/></defs><clipPath id="SVGID_10_"><use xlink:href="#SVGID_9_" overflow="visible"/></clipPath><path transform="rotate(-116.117 241.088 190.93)" class="st9 st8" d="M221.9 185.5h38.4v10.9h-38.4z"/></g><g class="st4"><defs><path id="SVGID_11_" transform="rotate(-174.437 263.504 183.508)" d="M230.3 149.9h66.4v67.2h-66.4z"/></defs><clipPath id="SVGID_12_"><use xlink:href="#SVGID_11_" overflow="visible"/></clipPath><g class="st10"><defs><path id="SVGID_13_" transform="rotate(-174.437 263.504 183.508)" d="M230.3 149.9h66.4v67.2h-66.4z"/></defs><clipPath id="SVGID_14_"><use xlink:href="#SVGID_13_" overflow="visible"/></clipPath><g class="st11"><defs><path id="SVGID_15_" transform="rotate(-174.437 263.504 183.508)" d="M230.3 149.9h66.4v67.2h-66.4z"/></defs><clipPath id="SVGID_16_"><use xlink:href="#SVGID_15_" overflow="visible"/></clipPath><g clip-path="url(#SVGID_16_)"><image width="156" height="158" xlink:href="EADB0572B9014F89.png" transform="matrix(.4236 .04124 -.04124 .4236 233.725 146.83)" overflow="visible"/></g></g></g><path transform="rotate(-128.112 260.95 180.432)" class="st12 st8" d="M241.8 175h38.4v10.9h-38.4z"/></g><g class="st4"><defs><path id="SVGID_17_" transform="rotate(-174.437 279.465 168.904)" d="M244.6 137.6h69.8v62.6h-69.8z"/></defs><clipPath id="SVGID_18_"><use xlink:href="#SVGID_17_" overflow="visible"/></clipPath><g class="st13"><defs><path id="SVGID_19_" transform="rotate(-174.437 279.465 168.904)" d="M244.6 137.6h69.8v62.6h-69.8z"/></defs><clipPath id="SVGID_20_"><use xlink:href="#SVGID_19_" overflow="visible"/></clipPath><g class="st14"><defs><path id="SVGID_21_" transform="rotate(-174.437 279.465 168.904)" d="M244.6 137.6h69.8v62.6h-69.8z"/></defs><clipPath id="SVGID_22_"><use xlink:href="#SVGID_21_" overflow="visible"/></clipPath><g clip-path="url(#SVGID_22_)"><image width="164" height="147" xlink:href="EADB0572B9014F8F.png" transform="scale(.4256) rotate(5.56 -2959.734 6151.17)" overflow="visible"/></g></g></g><path transform="rotate(-140.112 276.93 165.848)" class="st15 st8" d="M257.8 160.4h38.4v10.9h-38.4z"/></g><g class="st4"><defs><path id="SVGID_23_" transform="scale(-1) rotate(5.56 3089.497 -5940.42)" d="M260.6 129.6h55.7v40.9h-55.7z"/></defs><clipPath id="SVGID_24_"><use xlink:href="#SVGID_23_" overflow="visible"/></clipPath><g class="st16"><defs><path id="SVGID_25_" transform="scale(-1) rotate(5.56 3089.497 -5940.42)" d="M260.6 129.6h55.7v40.9h-55.7z"/></defs><clipPath id="SVGID_26_"><use xlink:href="#SVGID_25_" overflow="visible"/></clipPath><g class="st17"><defs><path id="SVGID_27_" transform="scale(-1) rotate(5.56 3089.457 -5940.35)" d="M260.6 129.6h55.7v40.9h-55.7z"/></defs><clipPath id="SVGID_28_"><use xlink:href="#SVGID_27_" overflow="visible"/></clipPath><g clip-path="url(#SVGID_28_)"><image width="131" height="96" xlink:href="EADB0572B9014F88.png" transform="matrix(.4236 .04124 -.04124 .4236 262.72 127)" overflow="visible"/></g></g></g><path transform="rotate(-152.116 287.863 149.24)" class="st18 st8" d="M268.7 143.8h38.4v10.9h-38.4z"/></g><path class="st19" d="M110.3 243.8l-1.2-20.9c-.3.7-.6 1.5-.8 2.2-6.3 17.7-4.6 35.4-2 47 .2.8.3 1.5.5 2.2 4.1 2.6 8.3 5 12.6 7.1-5.9-10.8-9.1-23.8-9.1-37.6z"/><path class="st2" d="M107 185.2l-.6.6.6-.6zM98.1 199.3c-1.5 2.1-3 4.3-4.3 6.4 1.3-2.2 2.8-4.3 4.3-6.4zM87.4 218c-1.9 3.7-3 7.5-4.2 11.2 1.2-3.7 2.3-7.5 4.2-11.2zM108.3 225.1c.3-.7.5-1.5.8-2.2l-.3-5.5c-9.3 19.9-8.1 40.3-4.8 55.1.9.6 1.8 1.3 2.8 1.9-.2-.7-.3-1.5-.5-2.2-2.6-11.8-4.3-29.4 2-47.1zM93.8 205.7c-.5.9-1 1.7-1.5 2.6.4-.9.9-1.8 1.5-2.6zM80.2 240c-.7 3-1 6-2 9 1-3 1.3-6 2-9z"/><path class="st2" d="M80.2 239.8c.4-1.8.9-3.5 1.3-5.3.4-1.7 1-3.5 1.6-5.3 1.2-3.7 2.6-7.5 4.2-11.2 1.5-3.3 3.1-6.6 5-9.8.5-.9 1-1.7 1.5-2.6 1.3-2.2 2.8-4.3 4.3-6.4 2.7-3.7 5.7-7.2 9.1-10.7l-.1-1.5-.7-1.3c-9.9 9.8-17.7 21.5-23.1 34.8-3.2 7.9-5.5 16.5-7 25.5.7 1 1.5 2 2.3 2.9.4-2.9.9-6 1.6-9.1z"/><path class="st2" d="M107 185.2l-.6.6.7 1.3-.1-1.9z"/><path class="st3" d="M108.2 217.4c-1 2.5-1.5 4.9-2.4 7.4-.5 1.4-.6 2.7-.6 4.1-2 1.1-1 2.2-1.2 3.3-.8 3.6-1.6 7.2-1.9 10.7-.1.7-.2 1.4-.3 2 0 .5-.1 1-.1 1.5 0 .8-.1 1.6-.1 2.4-.1 3.8.1 7.4.4 10.9v.4c.2 2.1.5 4.1.8 6 .2 1.1.3 2.1.5 3.1.2 1.1.4 2.1.6 3.2h-.3c-3.2-14.8-3.4-35.2 4.6-55z"/><path class="st3" d="M90.2 230.2l13.5 1.9c.3-1.1.5-2.2.8-3.3l-2.3-4.6-12 6z"/><path class="st3" d="M90.2 230l12.4-5.9 2.6 4.8-2.6-4.8zM107.7 203.3l.3.7v-.5zM107.1 188.6c-.3.3-.6.6-.9 1l1 .6-.1-1.6z"/><path class="st3" d="M102.8 193.3c1.1-1.3 2.3-2.6 3.5-3.8.3-.3.6-.6.9-1-3.4 3.4-6.4 7-9.1 10.7.3-.4.7-.9 1-1.3 1.2-1.5 2.4-3.1 3.7-4.6zM83.1 229.2l7.1 1 12.1-6 2.3 4.6c.4-1.4.8-2.7 1.3-4.1L87.3 218c-1.7 3.7-3 7.5-4.2 11.2zM93.8 205.7c-.5.9-1 1.7-1.5 2.6l3.4 1.2-1.9-3.8z"/><path class="st3" d="M95.7 209.5l13 4.7-.7-10.2-.3-.7-8.6-5.4c-.3.4-.7.9-1 1.3-1.5 2.1-3 4.3-4.3 6.4l1.9 3.9zM96.1 249.2l5.5-2.7c0-.5.1-1 .1-1.5l-9.2 4.5 3.6-.3z"/><path class="st3" d="M101.6 248.8c0-.8.1-1.6.1-2.4l-5.5 2.7 5.4-.3zM78.6 249c.4.4.7.9 1.1 1.3l12.9-.9 9.2-4.5c0-.7.1-1.4.2-2l-21.7-3.1c-.7 3.1-1.3 6.2-1.7 9.2zM93.4 264.4l8.6-4.2v-.4l-12.7.9c1.3 1.2 2.7 2.4 4.1 3.7zM96.9 267.2l5.9-1c-.3-1.9-.6-4-.8-6l-8.6 4.2c1.2.9 2.3 1.9 3.5 2.8z"/><path class="st8" d="M104 272.5c-.2-1-.4-2.1-.6-3.2l-2.3 1.1c.9.7 1.9 1.4 2.9 2.1zM101.1 270.4l2.3-1.1c-.2-1-.4-2.1-.5-3.1l-5.9 1c1.2 1.1 2.6 2.2 4.1 3.2zM99.1 197.9l8.6 5.4-4.9-9.9c-1.3 1.4-2.5 3-3.7 4.5z"/><path class="st8" d="M107.2 190.2l-1-.6c-1.2 1.3-2.3 2.5-3.5 3.8l4.9 9.9.3.2-.7-13.3zM92.3 209c-1.8 3-3.1 6-5.1 9.3v.1c2-3.3 3.3-6.4 5.1-9.4zM108.6 214.7v-.5l-12.9-4.7 4.6 9.4z"/><path class="st8" d="M108.6 214.7l-8.4 4.1-4.6-9.4-3.4-1.2c-1.9 3.2-3.5 6.5-5 9.8l18.5 6.7c.8-2.5 1.8-4.9 3-7.4l-.1-2.6zM83.1 229.2c-.6 1.8-1.1 3.4-1.5 5.3.4-1.9.9-3.5 1.5-5.3zM81.2 234.4c0 1.8-.8 3.6-1.2 5.6h-.1c.4-2 1.3-3.8 1.3-5.6z"/><path class="st8" d="M81.5 234.5c-.5 1.8-.9 3.6-1.3 5.3l21.7 3.1c.3-3.5.9-7.1 1.7-10.7l-13.5-1.9-8.6 4.2z"/><path class="st8" d="M83.1 229.2c-.6 1.8-1.1 3.5-1.5 5.3l8.6-4.3-7.1-1zM92.6 249.4l-12.9.9c1.1 1.3 2.2 2.6 3.3 3.8l9.6-4.7zM84 255.2l12.2-6-3.5.2-9.6 4.7c.2.4.5.8.9 1.1z"/><path class="st8" d="M84 255.2c1.7 1.8 3.5 3.6 5.3 5.4l12.7-.9c-.3-3.5-.5-7.1-.4-10.9l-5.4.4-12.2 6z"/><path class="st2" d="M113.2 242.8l-1.4-25.8c-1 1.9-1.9 3.9-2.6 5.9l1.2 20.9c0 13.8 3.2 26.8 9.1 37.6 1.7.8 3.5 1.6 5.2 2.4-7.5-11.3-11.5-25.5-11.5-41zM109.8 182.5l-4.1-74.5c0-36.4 29.8-66.2 66.2-66.2 36.4 0 66.2 29.8 66.2 66.2v.4c8.2 4.4 13.8 13 13.8 22.9 0 10.9-6.8 20.3-16.4 24.1l-4.8 87.4c0 12.7-2.7 24.7-7.9 34.8l2.1 2.7c.1 0 .1-.1.2-.1 5.6-10.7 8.7-23.3 8.7-37l2.6-46.7 1.4-24.7.8-14.1c1.4-.7 2.7-1.5 4-2.5 7.8-5.3 12.5-14.1 12.5-23.5 0-9.9-5.3-19.2-13.8-24.4-.3-17.9-7.4-34.8-20.2-47.5-13-13-30.3-20.2-48.6-20.2-14.5 0-29.3 4.6-40.9 13-18.7 13.1-30.4 34.2-30.4 56.5v.5c-7 5.3-10.9 13.8-10.9 22.8 0 10.3 5.8 19.8 14.9 24.8l1.3 20.7.4 7.3 1.7-1.6 1.2-1.1z"/><path class="st2" d="M222.5 281.5l2.4-1.2-2.1-2.7c-.4.9-.9 1.7-1.4 2.5.4.5.8.9 1.1 1.4z"/><path class="st2" d="M220 282.7c.8-.4 1.7-.8 2.5-1.2-.3-.4-.7-.9-1-1.3-.5.8-1 1.6-1.5 2.5zM108.4 183.8l1.1 2.5c.2-.2.4-.3.5-.5l-.2-3.2-1.2 1-1.7 1.6c.5-.4 1-.9 1.5-1.4zM107.6 188.1l-.5-1 .1 1.5c.1-.2.2-.3.4-.5zM111.5 212.2c-1 1.7-1.9 3.4-2.7 5.2l.3 5.5c.8-2 1.7-3.9 2.6-5.9l-.2-4.8z"/><path class="st2" d="M109.5 186.3l-1.1-2.5c-.5.5-1 1-1.5 1.4l.1 1.9.5 1c.7-.6 1.3-1.2 2-1.8zM110 185.8c-.2.2-.4.3-.5.5l.6 1.5-.1-2z"/><path class="st2" d="M110 185.8c-.2.2-.4.3-.5.5.2-.2.3-.4.5-.5zM111.1 205.4l-3.1-1.9v.5l3.4 6.8zM110.1 214.8c.2-.3.3-.7.5-1l-1.4.7.9.3zM107.6 188.1l-.4.4.4-.4zM109.3 191.4l-1.7-3.3-.4.4.1 1.6 2 1.3z"/><path class="st2" d="M110.6 213.8c.3-.5.6-1 .9-1.6l-.1-1.4-3.4-6.8.6 10.3.6.2 1.4-.7z"/><path class="st2" d="M112.2 212.2c0 .5-1 1-1.3 1.6-.2.3-.8.7-1 1-.5.9-.8 1.7-1.8 2.6 1.1-1.8 2.1-3.5 4.1-5.2zM110.4 192.1l-.2-4.3-.6-1.5c-.6.6-1.3 1.2-1.9 1.9l1.7 3.3 1 .6zM107.6 188.1c.6-.6 1.3-1.2 1.9-1.9l-1.9 1.9zM109.3 191.4l-2.1-1.2.8 13.3 3.1 1.9-.6-11.6z"/><path class="st2" d="M110.4 192.1l-1.1-.7 1.2 2.4zM109.2 214.5l-.6.3.1 2.6c.4-.9.8-1.7 1.3-2.6l-.8-.3zM109.2 214.5l-.6-.3v.5z"/><path class="st20" d="M159.1 292.7c3.9.4 7.9.6 11.9.6 9.1 0 17.9-1 26.4-3l22.7-7.6 2.7-5.1c5.1-10.1 7.9-22 7.9-34.8l4.8-87.4c9.6-3.8 16.4-13.1 16.4-24.1 0-9.9-5.6-18.5-13.8-22.9v-.4c0-36.4-29.8-66.2-66.2-66.2-36.4 0-66.2 29.8-66.2 66.2l4.1 74.5 1.5 34.5 2 25.8c0 15.4 4 29.7 11.4 41 2.2.9 4.4 1.9 6.7 2.7 0 0 15 5.6 27.7 6.2zm48.9-63.8c0 1 0 2-.1 3s-.2 2-.4 3-.5 2-.8 2.9l-.5 1.4-.6 1.4c-.5.9-1 1.8-1.6 2.6-.6.8-1.3 1.6-2.1 2.3-.8.7-1.7 1.3-2.7 1.7-.5.2-1.1.4-1.6.5-.6.1-1 .1-1.5.2-1.3 0-2.3-.2-3.3-.6-1.1-.4-2-.9-2.8-1.6-.9-.7-1.6-1.4-2.3-2.2-.7-.8-1.2-1.7-1.7-2.6l-.7-1.4-.6-1.4c-.1-.2-.1-.3-.2-.5-.1.2-.1.4-.2.6l-.6 1.5-.7 1.4c-.5.9-1.1 1.8-1.7 2.7-.7.9-1.4 1.7-2.3 2.4-.9.7-1.8 1.4-2.9 1.8-.5.2-1.2.4-1.8.5-.7.1-.9.1-1.7.2-1.2 0-2.4-.2-3.5-.7-1.1-.4-2.1-1-3-1.7-.9-.7-1.7-1.5-2.4-2.4-.7-.9-1.3-1.8-1.8-2.7l-.7-1.4-.3-.7c-.5 1.3-1.1 2.5-1.9 3.7-.7 1-1.5 2-2.4 2.9-.9.9-2 1.7-3.2 2.3-.7.3-1.2.6-2 .7-.3.1-.8.2-1.1.2l-.8.1h-1.2c-.4 0-.7-.1-1-.2-.7-.2-1.3-.4-1.9-.8-.6-.3-1.1-.8-1.6-1.1-.5-.5-.9-.9-1.3-1.4-.8-.9-1.5-1.9-2.1-2.9-.6-1-1.1-2.1-1.5-3.1l-.6-1.6-.5-1.7-.3-1.7-.2-1.7c-.1-1.1-.2-2.3-.1-3.4v-1-.9-3-1.8-.2-1.6c0-.3.4-.5.6-.5.3 0 .7.2.7.4v1.8c0 .8-.2 1.6-.3 2.4 0 .8-.1 1.7-.1 2.5 0 1.1.1 2.2.3 3.3l.3 1.6.4 1.6c.3 1 .7 2 1.2 3 .5.9 1.1 1.9 1.7 2.7.6.8 1.4 1.6 2.2 2.1.8.6 1.8.9 2.6 1.1.8.2 1.8.2 2.4.3l.8-.1c.3 0 .4-.1.6-.1.3 0 .7-.2 1.1-.4.8-.4 1.5-.9 2.2-1.5.7-.6 1.3-1.4 1.9-2.2.5-.8 1-1.7 1.4-2.6.4-.9.7-1.9 1-2.9.3-1 .5-2 .6-3 .1-1 .2-2.1.2-3.1s.8-1.9 1.8-2c1 0 1.7.8 1.8 1.8l-.2.1v.1c0 .9.2 1.8.3 2.7.1.9.3 1.8.5 2.7.2.9.5 1.8.8 2.6l.5 1.3.6 1.2c.4.8.9 1.5 1.4 2.2.5.7 1.1 1.3 1.8 1.8s1.3 1 2.1 1.2c.7.3 1.5.4 2.2.5.2 0 1 0 1.2-.1.3-.1.6-.1 1-.3.7-.3 1.4-.7 2.1-1.2.7-.5 1.3-1.1 1.8-1.8s1-1.4 1.5-2.2l.6-1.2.5-1.3c.3-.9.6-1.7.8-2.6.2-.9.4-1.8.5-2.7.1-.9.2-1.9.2-2.8 0-.8.4-1.4 1.2-1.4.8 0 1.3.6 1.3 1.3v.1c0 .9.2 1.9.3 2.8.1.9.3 1.9.5 2.8.2.9.5 1.8.8 2.7l.5 1.3.6 1.3c.4.8.9 1.6 1.5 2.3l.9 1c.3.3.6.6 1 .9.7.5 1.4 1.1 2.2 1.4.8.4 1.7.5 2.4.6.5 0 1 0 1.4-.1.4-.1.8-.1 1.2-.3.8-.3 1.6-.8 2.3-1.3.7-.5 1.4-1.2 2-1.9.6-.7 1.1-1.5 1.6-2.3l.6-1.3.6-1.3.9-2.7c.2-.9.4-1.9.5-2.8.1-1 .2-1.9.2-2.9 0-.3.2-.4.5-.4.2 0 .4.2.4.5v1.7c-.2-.5-.2-.5-.2-.4zm8.9-32.3c0 1.1-.2 2.2-.3 3.3-.2 1.1-.4 2.2-.7 3.3-.3 1.1-.6 2.2-1.1 3.2-.4 1.1-.9 2.1-1.5 3.1s-1.3 2-2.1 2.8c-.4.5-.9.8-1.3 1.2-.5.3-1 .7-1.5 1l-.8.4c-.3.1-.6.2-1 .3-.7.2-1.2.2-1.7.3-.5 0-.7 0-1.1-.1-.3 0-.6-.1-.9-.2-.6-.1-1.2-.4-1.8-.7-.6-.3-1.1-.6-1.6-1s-1-.8-1.4-1.2c-.8-.9-1.6-1.8-2.2-2.8-.6-1-1.2-2-1.6-3.1-.4-1-.8-1.9-1.1-2.9-.3 1-.6 2-1 3-.4 1.1-1 2.2-1.6 3.2-.6 1-1.3 2-2.2 2.9-.4.5-.9.9-1.4 1.3-.5.4-1 .8-1.6 1.1l-.9.4c-.3.1-.7.2-1.1.3l-.6.1c-.2 0-.3 0-.4.1h-.8l-.2-.1v.1h-1c-.3 0-.7-.1-1-.2-.7-.2-1.3-.4-1.9-.7-.6-.3-1.1-.7-1.7-1-.5-.4-1-.8-1.4-1.3-.9-.9-1.6-1.9-2.2-2.9-.6-1-1.2-2.1-1.6-3.2-.3-.8-.6-1.5-.9-2.3-.3.8-.5 1.6-.9 2.3-.5 1.1-1 2.1-1.6 3.2-.6 1-1.4 2-2.2 2.9-.4.5-.9.9-1.4 1.3-.5.4-1 .8-1.7 1l-.9.4c-.3.1-.7.2-1.1.3-.9.2-1 .2-1.9.2-1.4-.1-2.7-.4-3.9-1-.6-.3-1.1-.7-1.6-1-.5-.4-1-.8-1.4-1.3-.8-.9-1.6-1.9-2.2-2.9-.6-1-1.1-2.1-1.6-3.2s-.8-2.2-1.1-3.3c-.3 1.1-.7 2.2-1.2 3.2-.5 1.1-1 2.1-1.6 3.1-.6 1-1.3 1.9-2.2 2.8-.4.4-.9.8-1.4 1.2-.5.3-1 .7-1.6 1l-.9.4c-.3.1-.7.2-1 .3-.8.2-1.1.1-1.9.2-1.3-.1-2.6-.4-3.7-1-.6-.3-1-.7-1.6-1-.4-.4-.9-.8-1.3-1.2-.8-.9-1.5-1.8-2.1-2.8-.6-1-1.1-2-1.5-3.1-.4-1.1-.8-2.1-1.1-3.2-.2-.9-.4-1.7-.5-2.6h.3l1.5.5c.3 1 .7 2 1.1 3 .4 1 .9 1.9 1.5 2.8.6.9 1.2 1.7 1.9 2.4.3.4.8.7 1.1 1 .4.2.8.6 1.2.8.8.5 1.8.6 2.7.7.3-.1 1.1-.1 1.4-.2.2-.1.4-.1.6-.2l.6-.3c.4-.2.8-.5 1.2-.8.4-.3.8-.6 1.1-1 .7-.7 1.3-1.5 1.8-2.4.5-.9 1-1.8 1.4-2.8.4-1 .7-2 1-3 .3-1 .5-2 .7-3.1.2-1 .7-2.1.7-3.2.1-1.1.5-2.1.5-3.2 0-.8.2-1.4 1-1.4s1 .6 1 1.4v.9c.2.2.3.5.3.8v.1c0 1.1.1 2.1.2 3.2.1.9.2 1.7.4 2.6.1.7.3 1.3.5 2 .3 1 .6 2 1.1 2.9.4 1 .9 1.9 1.4 2.7.5.9 1.1 1.6 1.8 2.3.3.4.7.6 1.1 1 .4.2.7.5 1.2.7.8.4 1.6.6 2.4.6.2-.1 1.2-.1 1.3-.2.2-.1.3-.1.5-.2l.6-.3c.4-.2.8-.5 1.1-.7.3-.3.7-.6 1-1 .7-.7 1.3-1.5 1.8-2.4.5-.9 1-1.8 1.4-2.7.4-.9.7-1.9 1-2.9.3-1 .5-2 .7-3.1.2-1 .3-2.1.4-3.1.1-1 .1-2.1.1-3.2 0-1 .8-1.8 1.8-1.8s1.9.7 1.9 1.7v.1c0 .2-.2.4-.1.6.2.3.1.6.1.9v.1c0 1 .1 2.1.2 3.1s.3 2 .4 3c.1.5.3 1.1.4 1.6.3 1 .6 2 1 2.9.4.9.8 1.9 1.4 2.7.5.9 1.1 1.6 1.8 2.3.3.4.7.6 1 1 .4.2.7.5 1.1.7.4.2.8.4 1.2.5.2.1.4.1.6.1h.5l.1-.1v-.1h1.1l.2-.1c.2-.1.3-.1.5-.1l.6-.3c.4-.2.8-.5 1.1-.7.3-.3.7-.6 1-.9.7-.7 1.3-1.5 1.8-2.3.5-.8 1-1.8 1.4-2.7.4-.9.8-1.9 1.1-2.9.3-1 .5-2 .7-3.1.2-1 .4-2.1.4-3.1.1-1 .1-2.1.2-3.2 0-.8.6-1.5 1.5-1.6.8 0 1.6.6 1.6 1.4v.1c0 .2-.2.5-.1.7.2.2.1.5.1.8v.1c0 1.1.2 2.1.3 3.2.1 1.1.3 2.1.5 3.1v.1c.1.5.2.9.3 1.4.3 1 .6 2 1 3s.8 1.9 1.4 2.8c.5.9 1.1 1.7 1.8 2.4.3.4.7.7 1.1 1 .4.3.8.6 1.2.8.8.5 1.8.7 2.5.7.5-.1 1.2 0 1.5-.2.2-.1.4-.1.6-.2l.6-.3c.4-.2.8-.5 1.2-.8.4-.3.8-.6 1.1-1 .7-.7 1.4-1.5 1.9-2.4.6-.9 1.1-1.8 1.5-2.8.5-1 .8-2 1.1-3 .3-1 .6-2.1.8-3.1.2-1.1-.3-2.1-.2-3.2.2-1.1-.4-2.2-.4-3.2 0-.3.9-.5 1.2-.5.3 0 .8.2.8.5 0 .4.2.8.2 1.2.2.1.4.3.4.5.6 1.4.7 2.6.7 3.7z"/><path class="st20" d="M221.5 280.2c-6.6-8.4-11.9-15-12.4-15.6l-8.7 6.9-9 7c.3.6 3.8 5 8.7 11.2 6.9-1.7 13.6-4.1 20-7 .4-.9.9-1.7 1.4-2.5zM118.2 206.6c-1 .6-.8 1-.8 1l-1.3-2.5c-1.7 2.4-3.3 4.8-4.7 7.2l.3 4.8c1.9-3.7 3.5-7.2 6.5-10.5z"/><path class="st20" d="M116.1 205l1.3 2.5s.3-.4.7-1l-1.1-2.7c-.3.5-.6.8-.9 1.2zM112.6 193.5l6.6 4.1-6.9-13.9c-.8.7-1.5 1.4-2.3 2.1l.1 2 2.5 5.7zM111.4 210.8l.1 1.4.3-.6-.4-.8z"/><path class="st20" d="M114.4 207.5c-.9 1.4-1.4 2.7-2.2 4.1-.1.2 0 .4 0 .6 1-2.4 2.3-4.2 4-7.2h-.1c-.5 1-1.1 1.7-1.7 2.5z"/><path class="st20" d="M114.4 207.5l-3.3-2.1.3 5.4.4.8c.8-1.4 1.7-2.7 2.6-4.1zM110.1 187.8l.3 4.3 2.2 1.4zM116.9 203.9c0 .4-.5.7-.8 1.1.2-.4.8-.7.8-1.1zM120.2 199.9l-1.1-2.3-6.6-4.1 4.4 10.4c1.1-1.4 2.2-2.7 3.3-4z"/><path class="st20" d="M116.1 205l-5.7-11.2.6 11.6 3.3 2.1c.7-.8 1.2-1.7 1.8-2.5z"/><path class="st20" d="M116.1 205c.3-.4.6-.7.8-1.1l-4.4-10.4-2.2-1.4.1 1.7 5.7 11.2zM98.1 290.7c.1-.2.2-.3.4-.4-.2.1-.3.3-.4.4zM99 290c-.2.1-.4.1-.5.3.1-.1.3-.2.5-.3zM78.5 249c0 .5-.1 1.1-.1 1.5 0-.4.1-1 .1-1.5zM100.5 290.4s0 .1.1.1c-.1 0-.1-.1-.1-.1zM98.4 290.3c.1 0 .1 0 0 0 .1 0 .1 0 0 0zM99 290c.5-.2 1.1 0 1.5.4-.4-.4-1-.5-1.5-.4z"/><path class="st20" d="M78.6 249c-.1.5-.1.9-.2 1.4l1.3-.1c-.4-.4-.8-.8-1.1-1.3zM98.1 290.7zM77.7 256.5c0 .7-.1 1.2-.1 1.7v-.1c0-.5 0-.9.1-1.6zM77.5 258.4c-.1 1-.1 2-.2 3 .1-1 .1-2 .2-3zM225 280.4c0-.1.1-.1.1-.2-.1 0-.1.1-.2.1.1 0 .1 0 .1.1zM119.7 105.5c-14.3 0-25.9 11.6-25.9 25.9 0 14.3 11.6 25.9 25.9 25.9 14.3 0 25.9-11.6 25.9-25.9 0-14.3-11.6-25.9-25.9-25.9"/><path class="st21" d="M119.7 113.2c10.8 0 19.6 8.8 19.6 19.6s-8.8 19.6-19.6 19.6-19.6-8.8-19.6-19.6 8.8-19.6 19.6-19.6M225.6 113.2c10.8 0 19.6 8.8 19.6 19.6s-8.8 19.6-19.6 19.6-19.6-8.8-19.6-19.6 8.8-19.6 19.6-19.6"/><path transform="rotate(2.76 235.443 183.652) scale(.99996)" class="st2" d="M234.2 165.8h2.6v35.7h-2.6z"/><path transform="matrix(.04787 .9989 -.9989 .04787 295.83 74.028)" class="st2" d="M91.3 190.9H127v2.6H91.3z"/><path class="st22" d="M119.7 114c9.6 0 17.4 7.8 17.4 17.4 0 9.6-7.8 17.4-17.4 17.4-9.6 0-17.4-7.8-17.4-17.4 0-9.6 7.8-17.4 17.4-17.4"/><path class="st2" d="M119.7 149.8c-10.1 0-18.4-8.2-18.4-18.4 0-10.1 8.2-18.4 18.4-18.4 10.1 0 18.4 8.2 18.4 18.4 0 10.1-8.3 18.4-18.4 18.4zm0-34.9c-9.1 0-16.5 7.4-16.5 16.5s7.4 16.5 16.5 16.5 16.5-7.4 16.5-16.5-7.4-16.5-16.5-16.5z"/><path class="st22" d="M226 114c9.6 0 17.4 7.8 17.4 17.4 0 9.6-7.8 17.4-17.4 17.4-9.6 0-17.4-7.8-17.4-17.4 0-9.6 7.8-17.4 17.4-17.4"/><path class="st2" d="M226 149.8c-10.1 0-18.4-8.2-18.4-18.4 0-10.1 8.2-18.4 18.4-18.4 10.1 0 18.4 8.2 18.4 18.4 0 10.1-8.2 18.4-18.4 18.4zm0-34.9c-9.1 0-16.5 7.4-16.5 16.5s7.4 16.5 16.5 16.5 16.5-7.4 16.5-16.5-7.4-16.5-16.5-16.5z"/><path class="st21" d="M108.3 107.9s12.5-20.3 26.6 1.5c0 0-11.4-10.8-26.6-1.5z"/><path class="st2" d="M134.2 109.8c-.2 0-.5-.1-.6-.2-10.8-9.6-23.4-1.6-23.9-1.3-.4.3-1 .2-1.3-.3-.3-.4-.2-1 .3-1.3.1-.1 14.3-9.1 26.3 1.5.4.4.4 1 .1 1.4-.4 0-.6.2-.9.2z"/><g><path class="st21" d="M172.3 41.8s56.6 14.7 39.1 64.1c0 0 14.3-4.8 27.2 2.7 0 0-.3-61.6-66.3-66.8z"/></g><g><path class="st2" d="M209.5 109.8c-.3 0-.5-.1-.7-.3-.4-.4-.3-1 .1-1.4 11.9-10.6 26.1-1.6 26.3-1.5.4.3.6.9.3 1.3s-.9.6-1.3.3c-.5-.3-13.1-8.3-23.9 1.3-.3.2-.5.3-.8.3z"/></g><g><path class="st2" d="M119.7 142.5c-1.7 0-3-1.4-3-3v-16.2c0-1.7 1.4-3 3-3 1.7 0 3 1.4 3 3v16.2c0 1.6-1.3 3-3 3"/><circle class="st0" cx="124.8" cy="123.7" r="3.8"/></g><g><path class="st2" d="M226 142.5c-1.7 0-3-1.4-3-3v-16.2c0-1.7 1.4-3 3-3 1.7 0 3 1.4 3 3v16.2c0 1.6-1.3 3-3 3"/><circle class="st0" cx="231" cy="122.4" r="3.8"/></g><g><path class="st21" d="M171.2 163c-10.3 0-20-3.8-27.5-10.8-3.9-3.6-4.1-9.7-.5-13.5 3.6-3.9 9.7-4.1 13.5-.5 8.6 8 22 7.5 30-1 3.6-3.9 9.7-4.1 13.5-.5 3.9 3.6 4.1 9.7.5 13.5-7.3 7.9-17.3 12.4-28.1 12.8h-1.4"/></g><g><path class="st8" d="M171.2 160.4c-10.3 0-20-3.8-27.5-10.8-3.9-3.6-4.1-9.7-.5-13.5 3.6-3.9 9.7-4.1 13.5-.5 8.6 8 22 7.5 30-1 3.6-3.9 9.7-4.1 13.5-.5 3.9 3.6 4.1 9.7.5 13.5-7.3 7.9-17.3 12.4-28.1 12.7-.5.1-1 .1-1.4.1"/></g><g><path class="st23" d="M171.2 156c-8.3 0-16.7-3-23.2-9.1-1.3-1.2-1.4-3.2-.2-4.5 1.2-1.3 3.2-1.4 4.5-.2 11.1 10.4 28.6 9.8 39-1.3 1.2-1.3 3.2-1.4 4.5-.2 1.3 1.2 1.4 3.2.2 4.5-6.6 7.1-15.7 10.8-24.8 10.8"/></g><g><path class="st2" d="M171.2 154.2c-8.3 0-16.7-3-23.2-9.1-1.3-1.2-1.4-3.2-.2-4.5 1.2-1.3 3.2-1.4 4.5-.2 11.1 10.4 28.6 9.8 39-1.3 1.2-1.3 3.2-1.4 4.5-.2 1.3 1.2 1.4 3.2.2 4.5-6.6 7.2-15.7 10.8-24.8 10.8"/></g><g><path class="st21" d="M171.2 163c-10.3 0-20-3.8-27.5-10.8-3.9-3.6-4.1-9.7-.5-13.5 3.6-3.9 9.7-4.1 13.5-.5 8.6 8 22 7.5 30-1 3.6-3.9 9.7-4.1 13.5-.5 3.9 3.6 4.1 9.7.5 13.5-7.3 7.9-17.3 12.4-28.1 12.8h-1.4"/><path class="st8" d="M171.2 160.4c-10.3 0-20-3.8-27.5-10.8-3.9-3.6-4.1-9.7-.5-13.5 3.6-3.9 9.7-4.1 13.5-.5 8.6 8 22 7.5 30-1 3.6-3.9 9.7-4.1 13.5-.5 3.9 3.6 4.1 9.7.5 13.5-7.3 7.9-17.3 12.4-28.1 12.7-.5.1-1 .1-1.4.1"/><path class="st23" d="M171.2 156c-8.3 0-16.7-3-23.2-9.1-1.3-1.2-1.4-3.2-.2-4.5 1.2-1.3 3.2-1.4 4.5-.2 11.1 10.4 28.6 9.8 39-1.3 1.2-1.3 3.2-1.4 4.5-.2 1.3 1.2 1.4 3.2.2 4.5-6.6 7.1-15.7 10.8-24.8 10.8"/><path class="st2" d="M171.2 154.2c-8.3 0-16.7-3-23.2-9.1-1.3-1.2-1.4-3.2-.2-4.5 1.2-1.3 3.2-1.4 4.5-.2 11.1 10.4 28.6 9.8 39-1.3 1.2-1.3 3.2-1.4 4.5-.2 1.3 1.2 1.4 3.2.2 4.5-6.6 7.2-15.7 10.8-24.8 10.8"/></g><path class="st20" d="M115.2 183h111v70h-111z"/><g><path class="st21" d="M137.9 222.7c-.1 2.2-.1 4.5 0 6.7 0 1.1.2 2.2.3 3.3l.3 1.6.4 1.6c.3 1 .8 2 1.2 3 .5 1 1.1 1.9 1.7 2.7.7.8 1.4 1.6 2.2 2.1.8.6 1.8.9 2.6 1.1.8.2 1.8.2 2.4.3l.8-.1c.3 0 .4-.1.6-.1.3 0 .7-.2 1.1-.4.8-.4 1.5-.9 2.2-1.5.7-.6 1.3-1.4 1.9-2.2.5-.8 1-1.7 1.4-2.6.4-.9.7-1.9 1-2.9.3-1 .5-2 .6-3 .1-1 .2-2.1.2-3.1h3.8c0 .9 0 1.8.1 2.7.1.9.2 1.8.4 2.7.2.9.4 1.8.7 2.6l.5 1.3.6 1.2c.4.8.9 1.5 1.4 2.2.5.7 1.1 1.3 1.8 1.8s1.3 1 2.1 1.2c.7.3 1.5.4 2.3.5.2 0 1 0 1.2-.1.3-.1.6-.1 1-.3.7-.3 1.4-.7 2.1-1.2.7-.5 1.3-1.1 1.8-1.8s1-1.4 1.5-2.2l.6-1.2.5-1.3c.3-.9.6-1.7.8-2.6.2-.9.4-1.8.5-2.7.1-.9.2-1.9.2-2.8h2.7c0 .9 0 1.9.1 2.8.1.9.2 1.9.4 2.8.2.9.4 1.8.7 2.7l.5 1.3.6 1.3c.4.8.9 1.6 1.5 2.3l.9 1c.3.3.6.6 1 .9.7.5 1.4 1.1 2.2 1.4.8.4 1.7.5 2.4.6.5 0 1 0 1.4-.1.4-.1.8-.1 1.2-.3.8-.3 1.6-.8 2.3-1.3.7-.6 1.4-1.2 2-1.9.6-.7 1.1-1.5 1.6-2.3l.7-1.3.6-1.3.9-2.7c.2-.9.4-1.9.5-2.8.1-1 .2-1.9.2-2.9 0-.3.2-.4.5-.4.2 0 .4.2.4.5 0 1 0 2-.1 3s-.2 2-.4 3-.5 2-.8 2.9l-.5 1.4-.6 1.4c-.5.9-1 1.8-1.6 2.6-.6.8-1.3 1.6-2.2 2.3-.8.7-1.7 1.3-2.7 1.7-.5.2-1.1.4-1.6.5-.6.1-1 .1-1.5.2-1.3 0-2.3-.2-3.3-.6-1.1-.4-2-1-2.9-1.6-.9-.7-1.6-1.4-2.3-2.3-.7-.8-1.2-1.7-1.8-2.6l-.7-1.4-.6-1.4c-.3-1-.7-2-.9-3-.2-1-.4-2-.5-3.1-.1-1-.2-2.1-.2-3.1 0-.8.6-1.4 1.3-1.4.8 0 1.4.6 1.4 1.3v.1c0 1 0 2.1-.1 3.1s-.3 2.1-.5 3.1-.5 2-.8 3l-.6 1.5-.7 1.4c-.5.9-1.1 1.9-1.7 2.7-.7.9-1.4 1.7-2.3 2.4-.9.7-1.8 1.4-3 1.8-.5.2-1.2.4-1.8.5-.7.1-.9.1-1.7.2-1.2 0-2.4-.2-3.5-.7-1.1-.4-2.1-1-3-1.7-.9-.7-1.7-1.5-2.4-2.4-.7-.9-1.3-1.8-1.8-2.7l-.7-1.4-.6-1.5c-.4-1-.7-2-.9-3-.2-1-.4-2.1-.5-3.1-.1-1-.2-2.1-.2-3.1s.8-1.9 1.8-2c1 0 1.9.8 2 1.8v.2c0 4.8-1 9.6-3.7 13.8-.7 1-1.5 2.1-2.4 2.9-.9.9-2 1.7-3.2 2.3-.7.3-1.2.6-2 .7-.3.1-.8.2-1.1.2l-.8.1h-1.2c-.4 0-.7-.1-1-.2-.7-.2-1.3-.4-1.9-.8-.6-.3-1.1-.8-1.6-1.1-.5-.5-.9-.9-1.3-1.4-.8-.9-1.5-1.9-2.2-2.9-.6-1-1.1-2.1-1.5-3.2l-.6-1.6-.5-1.7-.3-1.7-.2-1.7c-.1-1.2-.2-2.3-.1-3.4 0-2.3.1-4.5 0-6.7 0-.3.2-.5.4-.5.4-.4.6-.2.6.1M123.4 193.2c.1 1.1.1 2.2.3 3.3.1 1.1.3 2.1.5 3.2s.5 2.1.8 3.1c.3 1 .7 2 1.1 3 .4 1 .9 1.9 1.5 2.8.6.9 1.2 1.7 1.9 2.4.3.4.8.7 1.1 1 .4.2.8.6 1.2.8.8.5 1.8.6 2.7.7.3-.1 1.1-.1 1.4-.2.2-.1.4-.1.6-.2l.6-.3c.4-.2.8-.5 1.2-.8.4-.3.8-.6 1.1-1 .7-.7 1.3-1.6 1.8-2.4.5-.9 1-1.8 1.4-2.8.4-1 .7-2 1-3 .3-1 .5-2.1.7-3.1.2-1.1.3-2.1.4-3.2.1-1.1.1-2.1.1-3.2h2.8c0 1.1.1 2.1.2 3.2s.3 2.1.4 3.2c.2 1 .4 2.1.7 3.1.3 1 .6 2 1.1 2.9.4 1 .9 1.9 1.4 2.7.5.9 1.2 1.7 1.8 2.4.3.4.7.6 1.1 1 .4.2.8.5 1.2.7.8.4 1.6.6 2.4.6.2-.1 1.2-.1 1.3-.2.2-.1.3-.1.5-.2l.6-.3c.4-.2.8-.5 1.1-.7.3-.3.7-.6 1-1 .7-.7 1.3-1.5 1.8-2.4.5-.9 1-1.8 1.4-2.7.4-.9.7-1.9 1-2.9.3-1 .5-2 .7-3.1.2-1 .3-2.1.4-3.1.1-1.1.1-2.1.1-3.2h3.5c0 1.1 0 2.1.1 3.2s.2 2.1.4 3.1.4 2.1.7 3.1c.3 1 .6 2 1 2.9.4.9.8 1.9 1.4 2.7.5.9 1.1 1.6 1.8 2.3.3.4.7.6 1 1 .4.2.7.5 1.1.7.4.2.8.4 1.2.5.2.1.4.1.6.1h.6-.1l.8-.1h.4l.2-.1c.2-.1.3-.1.5-.1l.6-.3c.4-.2.8-.5 1.1-.7.3-.3.7-.6 1-1 .7-.7 1.3-1.5 1.8-2.3.5-.8 1-1.8 1.4-2.7.4-.9.8-1.9 1.1-2.9.3-1 .5-2 .7-3.1.2-1 .4-2.1.4-3.1.1-1.1.1-2.1.2-3.2h3c0 1.1 0 2.1.1 3.2s.2 2.1.4 3.2c.2 1 .4 2.1.7 3.1.3 1 .6 2 1 3s.8 1.9 1.4 2.8c.5.9 1.1 1.7 1.8 2.5.3.4.7.7 1.1 1 .4.3.8.6 1.2.8.8.5 1.8.7 2.5.8.5-.1 1.2 0 1.5-.2.2-.1.4-.1.6-.2l.6-.3c.4-.2.8-.5 1.2-.8.4-.3.8-.6 1.1-1 .7-.7 1.4-1.5 1.9-2.4.6-.9 1.1-1.8 1.5-2.8.5-1 .8-2 1.1-3 .3-1 .6-2.1.8-3.1.2-1.1.4-2.1.5-3.2.2-1.1.2-2.2.3-3.3 0-.3.3-.5.5-.5.3 0 .5.2.5.5 0 1.1 0 2.2-.1 3.4 0 1.1-.2 2.2-.3 3.4-.2 1.1-.4 2.2-.7 3.3-.3 1.1-.6 2.2-1.1 3.2-.4 1.1-.9 2.1-1.5 3.1s-1.3 2-2.1 2.8c-.4.5-.9.8-1.3 1.2-.5.3-1 .7-1.6 1l-.8.4c-.3.1-.6.2-1 .3-.7.2-1.2.2-1.7.3-.5 0-.7 0-1.1-.1-.3 0-.6-.1-1-.2-.6-.1-1.2-.4-1.8-.7-.6-.3-1.1-.6-1.6-1s-1-.8-1.4-1.2c-.8-.9-1.6-1.8-2.2-2.8-.6-1-1.2-2-1.6-3.1-.5-1.1-.9-2.2-1.2-3.3-.3-1.1-.6-2.2-.8-3.4-.2-1.1-.4-2.3-.5-3.4-.1-1.1-.1-2.3-.2-3.4 0-.8.6-1.5 1.4-1.6.8 0 1.5.6 1.6 1.4v.1c0 1.1 0 2.3-.1 3.4s-.2 2.3-.4 3.4-.4 2.3-.8 3.4c-.3 1.1-.7 2.2-1.1 3.3-.4 1.1-1 2.2-1.6 3.2-.6 1-1.3 2-2.2 2.9-.4.5-.9.9-1.4 1.3-.5.4-1 .8-1.7 1.1l-.9.4c-.3.1-.7.2-1.1.3l-.6.1c-.2 0-.3 0-.4.1l-.8.1h-1.2c-.4 0-.7-.1-1-.2-.7-.2-1.3-.4-1.9-.7-.6-.3-1.1-.7-1.7-1.1-.5-.4-1-.8-1.4-1.3-.9-.9-1.6-1.9-2.2-2.9-.6-1-1.2-2.1-1.6-3.2-.5-1.1-.8-2.2-1.2-3.3-.3-1.1-.6-2.3-.8-3.4-.2-1.1-.4-2.3-.5-3.4-.1-1.2-.1-2.3-.2-3.5 0-1 .7-1.8 1.7-1.8s1.8.7 1.8 1.7v.1c0 1.2 0 2.3-.2 3.5-.1 1.2-.3 2.3-.5 3.4s-.5 2.3-.8 3.4c-.3 1.1-.7 2.2-1.2 3.3-.5 1.1-1 2.2-1.6 3.2-.6 1-1.4 2-2.2 2.9-.4.5-.9.9-1.4 1.3-.5.4-1 .8-1.7 1l-.9.4c-.3.1-.7.2-1.1.3-.9.2-1.1.2-2 .2-1.4-.1-2.8-.4-3.9-1-.6-.3-1.1-.7-1.6-1.1-.5-.4-1-.8-1.4-1.3-.8-.9-1.6-1.9-2.2-2.9-.6-1-1.1-2.1-1.6-3.2s-.8-2.2-1.1-3.3c-.3-1.1-.6-2.2-.8-3.4-.2-1.1-.3-2.3-.4-3.4-.1-1.1-.1-2.3-.1-3.4 0-.8.6-1.4 1.4-1.4.8 0 1.4.6 1.4 1.4v.1c0 1.1-.1 2.3-.2 3.4s-.3 2.3-.5 3.4-.5 2.2-.8 3.4c-.3 1.1-.7 2.2-1.2 3.3-.5 1.1-1 2.1-1.6 3.1-.6 1-1.3 2-2.2 2.8-.4.4-.9.8-1.4 1.2-.5.3-1 .7-1.6 1l-.9.4c-.3.1-.7.2-1 .3-.8.2-1.1.1-1.9.2-1.3-.1-2.6-.4-3.7-1-.6-.3-1-.7-1.6-1-.4-.4-.9-.8-1.3-1.2-.8-.9-1.5-1.8-2.1-2.8-.6-1-1.1-2-1.5-3.1-.4-1.1-.8-2.2-1.1-3.2-.3-1.1-.5-2.2-.7-3.3-.1-1.1-.3-2.2-.3-3.4-.1-1.1 0-2.2 0-3.3 0-.3.2-.5.5-.5 1.5 0 1.7.2 1.7.4"/><path class="st24 st8" d="M123.1 191.6c.1 1.1.1 2.2.3 3.3.1 1.1.3 2.1.5 3.2s.5 2.1.8 3.1c.3 1 .7 2 1.1 3 .4 1 .9 1.9 1.5 2.8.6.9 1.2 1.7 1.9 2.4.3.4.8.7 1.1 1 .4.2.8.6 1.2.8.8.5 1.8.6 2.7.7.3-.1 1.1-.1 1.4-.2.2-.1.4-.1.6-.2l.6-.3c.4-.2.8-.5 1.2-.8.4-.3.8-.6 1.1-1 .7-.7 1.3-1.6 1.8-2.4.5-.9 1-1.8 1.4-2.8.4-1 .7-2 1-3 .3-1 .5-2.1.7-3.1.2-1.1.3-2.1.4-3.2.1-1.1.1-2.1.1-3.2h2.8c0 1.1.1 2.1.2 3.2s.3 2.1.4 3.2c.2 1 .4 2.1.7 3.1.3 1 .6 2 1.1 2.9.4 1 .9 1.9 1.4 2.7.5.9 1.2 1.7 1.8 2.4.3.4.7.6 1.1 1 .4.2.8.5 1.2.7.8.4 1.6.6 2.4.6.2-.1 1.2-.1 1.3-.2.2-.1.3-.1.5-.2l.6-.3c.4-.2.8-.5 1.1-.7.3-.3.7-.6 1-1 .7-.7 1.3-1.5 1.8-2.4.5-.9 1-1.8 1.4-2.7.4-.9.7-1.9 1-2.9.3-1 .5-2 .7-3.1.2-1 .3-2.1.4-3.1.1-1.1.1-2.1.1-3.2h3.5c0 1.1 0 2.1.1 3.2s.2 2.1.4 3.1.4 2.1.7 3.1c.3 1 .6 2 1 2.9.4.9.8 1.9 1.4 2.7.5.9 1.1 1.6 1.8 2.3.3.4.7.6 1 1 .4.2.7.5 1.1.7.4.2.8.4 1.2.5.2.1.4.1.6.1h.6-.1l.8-.1h.4l.2-.1c.2-.1.3-.1.5-.1l.6-.3c.4-.2.8-.5 1.1-.7.3-.3.7-.6 1-1 .7-.7 1.3-1.5 1.8-2.3.5-.8 1-1.8 1.4-2.7.4-.9.8-1.9 1.1-2.9.3-1 .5-2 .7-3.1.2-1 .4-2.1.4-3.1.1-1.1.1-2.1.2-3.2h3c0 1.1 0 2.1.1 3.2s.2 2.1.4 3.2c.2 1 .4 2.1.7 3.1.3 1 .6 2 1 3s.8 1.9 1.4 2.8c.5.9 1.1 1.7 1.8 2.5.3.4.7.7 1.1 1 .4.3.8.6 1.2.8.8.5 1.8.7 2.5.8.5-.1 1.2 0 1.5-.2.2-.1.4-.1.6-.2l.6-.3c.4-.2.8-.5 1.2-.8.4-.3.8-.6 1.1-1 .7-.7 1.4-1.5 1.9-2.4.6-.9 1.1-1.8 1.5-2.8.5-1 .8-2 1.1-3 .3-1 .6-2.1.8-3.1.2-1.1.4-2.1.5-3.2.2-1.1.2-2.2.3-3.3 0-.3.3-.5.5-.5.3 0 .5.2.5.5 0 1.1 0 2.2-.1 3.4 0 1.1-.2 2.2-.3 3.4-.2 1.1-.4 2.2-.7 3.3-.3 1.1-.6 2.2-1.1 3.2-.4 1.1-.9 2.1-1.5 3.1s-1.3 2-2.1 2.8c-.4.5-.9.8-1.3 1.2-.5.3-1 .7-1.6 1l-.8.4c-.3.1-.6.2-1 .3-.7.2-1.2.2-1.7.3-.5 0-.7 0-1.1-.1-.3 0-.6-.1-1-.2-.6-.1-1.2-.4-1.8-.7-.6-.3-1.1-.6-1.6-1s-1-.8-1.4-1.2c-.8-.9-1.6-1.8-2.2-2.8-.6-1-1.2-2-1.6-3.1-.5-1.1-.9-2.2-1.2-3.3-.3-1.1-.6-2.2-.8-3.4-.2-1.1-.4-2.3-.5-3.4-.1-1.1-.1-2.3-.2-3.4 0-.8.6-1.5 1.4-1.6.8 0 1.5.6 1.6 1.4v.1c0 1.1 0 2.3-.1 3.4s-.2 2.3-.4 3.4-.4 2.3-.8 3.4c-.3 1.1-.7 2.2-1.1 3.3-.4 1.1-1 2.2-1.6 3.2-.6 1-1.3 2-2.2 2.9-.4.5-.9.9-1.4 1.3-.5.4-1 .8-1.7 1.1l-.9.4c-.3.1-.7.2-1.1.3l-.6.1c-.2 0-.3 0-.4.1l-.8.1h-1.2c-.4 0-.7-.1-1-.2-.7-.2-1.3-.4-1.9-.7-.6-.3-1.1-.7-1.7-1.1-.5-.4-1-.8-1.4-1.3-.9-.9-1.6-1.9-2.2-2.9-.6-1-1.2-2.1-1.6-3.2-.5-1.1-.8-2.2-1.2-3.3-.3-1.1-.6-2.3-.8-3.4-.2-1.1-.4-2.3-.5-3.4-.1-1.2-.1-2.3-.2-3.5 0-1 .7-1.8 1.7-1.8s1.8.7 1.8 1.7v.1c0 1.2 0 2.3-.2 3.5-.1 1.2-.3 2.3-.5 3.4s-.5 2.3-.8 3.4c-.3 1.1-.7 2.2-1.2 3.3-.5 1.1-1 2.2-1.6 3.2-.6 1-1.4 2-2.2 2.9-.4.5-.9.9-1.4 1.3-.5.4-1 .8-1.7 1l-.9.4c-.3.1-.7.2-1.1.3-.9.2-1.1.2-2 .2-1.4-.1-2.8-.4-3.9-1-.6-.3-1.1-.7-1.6-1.1-.5-.4-1-.8-1.4-1.3-.8-.9-1.6-1.9-2.2-2.9-.6-1-1.1-2.1-1.6-3.2s-.8-2.2-1.1-3.3c-.3-1.1-.6-2.2-.8-3.4-.2-1.1-.3-2.3-.4-3.4-.1-1.1-.1-2.3-.1-3.4 0-.8.6-1.4 1.4-1.4.8 0 1.4.6 1.4 1.4v.1c0 1.1-.1 2.3-.2 3.4s-.3 2.3-.5 3.4-.5 2.2-.8 3.4c-.3 1.1-.7 2.2-1.2 3.3-.5 1.1-1 2.1-1.6 3.1-.6 1-1.3 2-2.2 2.8-.4.4-.9.8-1.4 1.2-.5.3-1 .7-1.6 1l-.9.4c-.3.1-.7.2-1 .3-.8.2-1.1.1-1.9.2-1.3-.1-2.6-.4-3.7-1-.6-.3-1-.7-1.6-1-.4-.4-.9-.8-1.3-1.2-.8-.9-1.5-1.8-2.1-2.8-.6-1-1.1-2-1.5-3.1-.4-1.1-.8-2.2-1.1-3.2-.3-1.1-.5-2.2-.7-3.3-.1-1.1-.3-2.2-.3-3.4-.1-1.1 0-2.2 0-3.3 0-.3.2-.5.5-.5 1.4-.1 1.6.1 1.7.4M137.9 220.9c-.1 2.2-.1 4.5 0 6.7 0 1.1.2 2.2.3 3.3l.3 1.6.4 1.6c.3 1 .8 2 1.2 3 .5 1 1.1 1.9 1.7 2.7.7.8 1.4 1.6 2.2 2.1.8.6 1.8.9 2.6 1.1.8.2 1.8.2 2.4.3l.8-.1c.3 0 .4-.1.6-.1.3 0 .7-.2 1.1-.4.8-.4 1.5-.9 2.2-1.5.7-.6 1.3-1.4 1.9-2.2.5-.8 1-1.7 1.4-2.6.4-.9.7-1.9 1-2.9.3-1 .5-2 .6-3 .1-1 .2-2.1.2-3.1h3.8c0 .9 0 1.8.1 2.7.1.9.2 1.8.4 2.7.2.9.4 1.8.7 2.6l.5 1.3.6 1.2c.4.8.9 1.5 1.4 2.2.5.7 1.1 1.3 1.8 1.8s1.3 1 2.1 1.2c.7.3 1.5.4 2.3.5.2 0 1 0 1.2-.1.3-.1.6-.1 1-.3.7-.3 1.4-.7 2.1-1.2.7-.5 1.3-1.1 1.8-1.8s1-1.4 1.5-2.2l.6-1.2.5-1.3c.3-.9.6-1.7.8-2.6.2-.9.4-1.8.5-2.7.1-.9.2-1.9.2-2.8h2.7c0 .9 0 1.9.1 2.8.1.9.2 1.9.4 2.8.2.9.4 1.8.7 2.7l.5 1.3.6 1.3c.4.8.9 1.6 1.5 2.3l.9 1c.3.3.6.6 1 .9.7.5 1.4 1.1 2.2 1.4.8.4 1.7.5 2.4.6.5 0 1 0 1.4-.1.4-.1.8-.1 1.2-.3.8-.3 1.6-.8 2.3-1.3.7-.6 1.4-1.2 2-1.9.6-.7 1.1-1.5 1.6-2.3l.7-1.3.6-1.3.9-2.7c.2-.9.4-1.9.5-2.8.1-1 .2-1.9.2-2.9 0-.3.2-.4.5-.4.2 0 .4.2.4.5 0 1 0 2-.1 3s-.2 2-.4 3-.5 2-.8 2.9l-.5 1.4-.6 1.4c-.5.9-1 1.8-1.6 2.6-.6.8-1.3 1.6-2.2 2.3-.8.7-1.7 1.3-2.7 1.7-.5.2-1.1.4-1.6.5-.6.1-1 .1-1.5.2-1.3 0-2.3-.2-3.3-.6-1.1-.4-2-1-2.9-1.6-.9-.7-1.6-1.4-2.3-2.3-.7-.8-1.2-1.7-1.8-2.6l-.7-1.4-.6-1.4c-.3-1-.7-2-.9-3-.2-1-.4-2-.5-3.1-.1-1-.2-2.1-.2-3.1 0-.8.6-1.4 1.3-1.4.8 0 1.4.6 1.4 1.3v.1c0 1 0 2.1-.1 3.1s-.3 2.1-.5 3.1-.5 2-.8 3l-.6 1.5-.7 1.4c-.5.9-1.1 1.9-1.7 2.7-.7.9-1.4 1.7-2.3 2.4-.9.7-1.8 1.4-3 1.8-.5.2-1.2.4-1.8.5-.7.1-.9.1-1.7.2-1.2 0-2.4-.2-3.5-.7-1.1-.4-2.1-1-3-1.7-.9-.7-1.7-1.5-2.4-2.4-.7-.9-1.3-1.8-1.8-2.7l-.7-1.4-.6-1.5c-.4-1-.7-2-.9-3-.2-1-.4-2.1-.5-3.1-.1-1-.2-2.1-.2-3.1s.8-1.9 1.8-2c1 0 1.9.8 2 1.8v.2c0 4.8-1 9.6-3.7 13.8-.7 1-1.5 2.1-2.4 2.9-.9.9-2 1.7-3.2 2.3-.7.3-1.2.6-2 .7-.3.1-.8.2-1.1.2l-.8.1h-1.2c-.4 0-.7-.1-1-.2-.7-.2-1.3-.4-1.9-.8-.6-.3-1.1-.8-1.6-1.1-.5-.5-.9-.9-1.3-1.4-.8-.9-1.5-1.9-2.2-2.9-.6-1-1.1-2.1-1.5-3.2l-.6-1.6-.5-1.7-.3-1.7-.2-1.7c-.1-1.2-.2-2.3-.1-3.4 0-2.3.1-4.5 0-6.7 0-.3.2-.5.4-.5.4-.4.6-.2.6.1"/></g><g><path class="st2" d="M330.7 28.6c-1.7-1.7-4.6-2.6-8.4-2.6-2.8 0-6.1.5-9.8 1.5-6.2 1.7-10.6 4.5-13.3 7-.1-.1-.3-.2-.5-.2-.2-.1-.3-.1-.5-.2 0-3.6-.6-8.8-3.4-14.6-4-8.3-8.8-13-13.1-13-1.4 0-2.6.5-3.6 1.4-2.9 2.7-3 9.5-2.9 16.9V26c0 3.9 1.5 6.7 3.9 9-.3.2-.7.4-.9.7-2 1.8-3.4 6.8-3.1 10.6.3 2.9 1.5 5.2 3.6 6.5 1.1.7 2.3 1 3.6 1 1.3 0 2.7-.4 3.9-.9-.3 1.5-.5 3-.1 4 .3.7.8 1.3 1.4 1.6.3.2.7.2 1.1.2 1.3 0 2.4-.8 4-2.9.9 3 2.6 4.9 5 5.7.7.2 1.4.3 2.1.3 5.8 0 11.1-7.4 11.2-11 0-.4 0-.7-.1-1.1.5 0 .9.1 1.4.1 3 0 5.6-.9 8-3 .3-.2.6-.5.9-.8 5.6-4.7 10.7-9.3 10.9-13.2.2-1.8-.3-3.1-1.3-4.2z"/><path class="st25" d="M295.3 38.7s2.3-8.1-2.6-18.2-10.3-13.3-12.9-10.9c-2.6 2.4-2.2 11.6-2.1 16.3.1 4.7 2.4 7.3 7 10.3 4.6 2.9 10.2 4.6 10.6 2.5z"/><path class="st26" d="M289.7 36.1s-7.9-.5-9.8 1.2c-1.9 1.8-4.2 10.5.2 13.3 4.4 2.8 11.1-3.8 13.8-7.5 2.6-3.6 1.5-6.6-4.2-7z"/><path class="st25" d="M297.6 39.7s4.6-7 15.5-9.9c10.9-2.9 16.8-.9 16.6 2.6-.1 3.5-7.4 9.2-10.9 12.2-3.6 3-7.1 2.9-12.4 1.4-5.3-1.4-10.2-4.6-8.8-6.3z"/><path class="st26" d="M303.2 42.3s5.5 5.7 5.4 8.2c-.1 2.6-5.2 10-10.2 8.5-5-1.5-4.4-10.9-3.3-15.3 1.1-4.4 4.1-5.4 8.1-1.4z"/><path class="st27" d="M293.2 50.6c-.5 1-3.6 6-4.5 5.6-.9-.4.8-6 1.3-7l5.3-11.5c.5-1 1.6-1.5 2.5-1.1.9.4 1.2 1.6.8 2.6l-5.4 11.4z"/></g></svg>