<svg id="Capa_1" xmlns="http://www.w3.org/2000/svg" viewBox="-844 441 170 200"><style>.st0{opacity:.1}.st1{fill:#33b533}.st2{fill:#33be33}.st3{fill:#3c3}.st4{opacity:.3}.st5{fill:none}.st6{fill:#c33}.st7{fill:#9f161d}.st8{fill:#b23333}.st9{fill:#ffb400}.st10{fill:#cb7000}.st11{fill:#fc0}</style><path class="st1" d="M-801.8 552.4c2 0 3.9.4 5.5 1.2l4.3 2.3c.6.3 1.3.4 2 .4s1.3-.1 1.9-.3h.1c1.8-.7 3.8-1 5.9-1 2.4 0 4.9.5 6.8 1.5 2.2 1.1 3.2 2.7 3.2 4.4v5.6l3.4 1.8c1.8.9 2.7 2.3 2.6 3.6v5.5c.1 1.3-.7 2.6-2.3 3.5l-8.3 5.1 3.6-2.2-16.8 10.3-1.3.8c-.2.2-.4.3-.7.3-5.6 3.1-12.7 4.7-19.9 4.7-6.5 0-12.8-1.3-17.9-3.9-5.6-2.9-8.4-6.9-8.5-11l-.1-6.3h.1c.2-3.5 2.4-7.1 6.7-10 .2-.2.3-.3.6-.4l18-11.2-3.6 2.2 8.3-5.1c.9-.5 1.8-.9 2.8-1.2 1.1-.4 2.3-.6 3.6-.6m0-1c-1.3 0-2.7.2-3.8.5-1.2.3-2.2.8-3.1 1.3l-8.3 5.1-14.5 9c-.3.2-.4.3-.7.4-4 2.7-6.5 6.2-6.9 9.8h-.3v1l.1 6.3v.6c.3 4.4 3.4 8.5 9 11.4 5 2.7 11.5 4.1 18.4 4.1 7.6 0 14.8-1.7 20.4-4.8.3-.2.5-.3.7-.4l1.3-.8 16.8-10.3 4.7-2.9c1.9-1.1 2.9-2.7 2.8-4.4v-5.5c.1-1.8-1-3.4-3.1-4.5l-2.9-1.5v-5.9h-.1c-.3-1.7-1.6-3.2-3.6-4.3-2-1-4.5-1.6-7.2-1.6-2.2 0-4.4.3-6.3 1.1h-.1c-.4.2-.9.3-1.5.3-.3 0-.7 0-1-.1v-.2l-.7-.2h-.1l-4.1-2.1c-1.6-.9-3.8-1.4-5.9-1.4z"/><path class="st2" d="M-766.2 577.2v-5.7l-3.4-.4 1.5 3.3c-.2-.2-.4-.3-.7-.4l-4.4-2.3c-1.1-.6-1.3-1.5-.5-2.2.9-.9 1.4-2.1 1.4-3.1l.3-5.6h-1.6v2.3c-.9-.3-1.1-.5-1.5-.8-3.5-1.9-9-2-12.9-.4h-.2c-1.2.4-2.8.7-3.8.2l-.1.2v-.4l-4.3-2.3c-2.5-1.3-6.1-1.5-9.1-.8-1 .3-2 .7-2.8 1.1l-8.3 5.1 3.6-2.2-18 11.2-.4.4c-2.6 1.8-4.4 3.8-5.3 5.9v-1.8h-1.5l.1 6.4c0 4.1 2.8 8.1 8.5 11 10.6 5.6 27.2 5.2 37.8-.7.3-.1.4-.3.7-.3l1.3-.8 16.8-10.3-3.6 2.2 8.3-5.1c1.4-1.1 2.1-2.4 2.1-3.7z"/><path class="st3" d="M-829.9 590c10.6 5.6 27.2 5.2 37.8-.8.3-.1.4-.3.7-.3l1.3-.8 16.8-10.3-3.6 2.2 8.3-5.1c3.2-2 3.1-5-.3-6.8l-4.4-2.3c-1.1-.6-1.3-1.5-.5-2.2 2.3-2.4 1.7-5.3-1.8-7.2s-8.7-2-12.7-.4h-.1c-1.2.4-2.7.4-3.8-.1l-4.3-2.3c-2.5-1.3-6.1-1.5-9.1-.8-1 .3-2 .7-2.8 1.2l-8.3 5.1 3.6-2.2-18 11.2c-.2.2-.4.3-.6.4-9.4 6.5-8.8 16 1.8 21.5z"/><path class="st2" d="M-821 566.8c-8.4 5.2-8.1 13.2.6 17.8 4.9 2.6 11.4 3.6 17.7 3 1.6-.2 3.3-.4 4.9-.8 1.2-.3 2.3-.6 3.4-.9 1.9-.6 3.6-1.5 5.1-2.4 2.2-1.4 3.8-3 4.9-4.6.9-1.5 1.3-3 1.3-4.5 0-.9-.2-1.6-.5-2.4-.9-2.3-3-4.4-6.2-6.2-8.8-4.7-22.8-4.2-31.2 1zm21.9 19.3c-.9-.6-1.9-1.4-2.7-2.2l1.7.7c1 .4 2.1.8 3.3 1-.7.1-1.4.3-2.3.5zm13.7-8.4c-.8-.7-1.7-1.3-2.9-1.8l-4.6-2.2c3.2-.6 5.9-.3 8.1.2.2 1.2-.1 2.5-.6 3.8zm0-6c-3-.3-6.3-.1-9.8.9l-9.2-4.4c-4.5-2-11.2-1.4-14.8 1.3s-2.8 6.4 1.7 8.4l.2.1c-.2.8.4 1.5 1.5 2.1 1.3.5 2.9.6 4.3.2l5.7 2.1c.2 1.7 1.1 3.2 2.2 4.4-5.6.4-11.4-.5-15.7-2.8-8.1-4.3-8.4-11.6-.6-16.5 7.8-4.8 20.7-5.3 28.8-1 2.9 1.4 4.8 3.2 5.7 5.2z"/><path d="M-821 566.8c-8.4 5.2-8.1 13.2.6 17.8 4.9 2.6 11.4 3.6 17.7 3 1.6-.2 3.3-.4 4.9-.8 1.2-.3 2.3-.6 3.4-.9 1.9-.6 3.6-1.5 5.1-2.4 2.2-1.4 3.8-3 4.9-4.6.9-1.5 1.3-3 1.3-4.5 0-.9-.2-1.6-.5-2.4-.9-2.3-3-4.4-6.2-6.2-8.8-4.7-22.8-4.2-31.2 1zm21.9 19.3c-.9-.6-1.9-1.4-2.7-2.2l1.7.7c1 .4 2.1.8 3.3 1-.7.1-1.4.3-2.3.5zm13.7-8.4c-.8-.7-1.7-1.3-2.9-1.8l-4.6-2.2c3.2-.6 5.9-.3 8.1.2.2 1.2-.1 2.5-.6 3.8zm0-6c-3-.3-6.3-.1-9.8.9l-9.2-4.4c-4.5-2-11.2-1.4-14.8 1.3s-2.8 6.4 1.7 8.4l.2.1c-.2.8.4 1.5 1.5 2.1 1.3.5 2.9.6 4.3.2l5.7 2.1c.2 1.7 1.1 3.2 2.2 4.4-5.6.4-11.4-.5-15.7-2.8-8.1-4.3-8.4-11.6-.6-16.5 7.8-4.8 20.7-5.3 28.8-1 2.9 1.4 4.8 3.2 5.7 5.2z" class="st4"/><path class="st3" d="M-803.7 571.1c-1.5-.6-3.4-.5-4.7.3-.1.1-.2.1-.3.2-.6.4-.9.9-.8 1.5s.6 1 1.3 1.3c1.5.6 3.4.5 4.7-.3.1-.1.2-.1.3-.2.6-.4.9-.9.8-1.5-.2-.4-.6-.9-1.3-1.3zM-813.3 576.3c-.9.1-1.5.3-2.1.7-1.1.8-.9 1.9.5 2.5.7.3 1.5.4 2.3.3.8-.1 1.4-.3 1.9-.6.1 0 .2-.1.2-.2.5-.4.8-.9.7-1.4s-.5-.9-1.2-1.2c-.6-.1-1.5-.2-2.3-.1z"/><path class="st5" d="M-819.9 584.2c8.5 4.4 21.9 3.9 29.9-1 8.1-5 7.9-12.7-.6-17.1s-21.9-3.9-29.9 1c-8.2 5.1-7.9 12.7.6 17.1"/><path class="st2" d="M-804.6 573.3c.2-.1.2-.3-.1-.3l-2.1-.9c-.2-.1-.5-.1-.7.1-.2.1-.2.3.1.3l2.1.9c.2.1.5.1.7-.1"/><path d="M-804.6 573.3c.2-.1.2-.3-.1-.3l-2.1-.9c-.2-.1-.5-.1-.7.1-.2.1-.2.3.1.3l2.1.9c.2.1.5.1.7-.1" class="st4"/><path class="st2" d="M-811.8 578.7c.2-.1.2-.3-.1-.3l-2-.9c-.2-.1-.5-.1-.7.1-.2.1-.2.3.1.3l2 .9c.2.1.5 0 .7-.1"/><path d="M-811.8 578.7c.2-.1.2-.3-.1-.3l-2-.9c-.2-.1-.5-.1-.7.1-.2.1-.2.3.1.3l2 .9c.2.1.5 0 .7-.1" class="st4"/><path class="st3" d="M-803 578.3c-1.1.8-2.6 1.4-4.3 1.5-.9.1-1.6-.2-1.7-.7-.1-.5.5-.9 1.4-1.1 1.9-.3 3.2-1.3 3.1-2.4-.1-.5.5-.9 1.4-1.1.9-.1 1.6.2 1.7.7.2 1-.3 2.1-1.4 2.9 0 .1-.1.1-.2.2"/><g><path class="st2" d="M-803.8 578c-.9.7-2.1 1.1-3.6 1.4-.3 0-.5-.1-.6-.3 0-.2.2-.3.4-.3 2.5-.3 4.3-1.7 3.9-3.2 0-.2.2-.3.4-.3.3 0 .5.1.6.3.4.7-.1 1.6-1.1 2.4"/><path d="M-803.8 578c-.9.7-2.1 1.1-3.6 1.4-.3 0-.5-.1-.6-.3 0-.2.2-.3.4-.3 2.5-.3 4.3-1.7 3.9-3.2 0-.2.2-.3.4-.3.3 0 .5.1.6.3.4.7-.1 1.6-1.1 2.4" class="st4"/></g><g><path class="st3" d="M-805.1 581.1c.2.1.3.1.4.2.2.1.3.1.4.2.2 0 .3.1.4.1s.3.1.4.1c.3.1.6.1.9.1h.4c.2 0 .3-.1.3-.2.1-.1.1-.2.1-.3s0-.2-.1-.3c-.1-.2-.3-.3-.4-.5-.3-.3-.9-.5-1.4-.8l.3-.2c.5.2 1.1.4 1.7.5.3.1.6.1.9.1h.4c.1 0 .3-.1.3-.1.1-.1.1-.1.1-.2s0-.2-.1-.3c-.1-.2-.3-.3-.4-.4-.1-.1-.2-.2-.3-.2-.1-.1-.2-.2-.3-.2-.1-.1-.3-.1-.3-.2s-.3-.1-.3-.2l.3-.3c.5.3 1 .4 1.6.5.3.1.6.1.9.1h.4c.1 0 .1 0 .2-.1h.1l.1-.1v-.2c0-.1 0-.2-.1-.3-.1-.2-.3-.3-.4-.4-.3-.3-.8-.5-1.3-.8l.3-.2c.3.1.5.2.8.3.2 0 .3.1.4.1s.3.1.4.1c.3.1.6.1.9.1h.4c.1 0 .2 0 .2-.1h.1c.1 0 .1-.1.1-.1v-.1c0-.1 0-.2-.1-.3-.1-.2-.3-.3-.4-.5l-.3-.3c-.1-.1-.2-.2-.3-.2-.3-.2-.4-.3-.7-.3v-.1h.1c.3.1.5.3.8.3.1.1.3.2.3.2l.3.3c.2.2.3.3.4.5.1.1.1.2.1.3 0 .1 0 .1-.1.2 0 .1-.1.1-.1.2-.2.1-.3.2-.5.2s-.3.1-.5.1c-.3 0-.7 0-1-.1-.7-.1-1.3-.3-1.8-.5-.1 0-.1-.1 0-.2s.2-.1.3 0c.5.3 1 .5 1.5.9.2.2.3.3.4.5.1.1.1.2.1.3v.1s0 .1-.1.1l-.2.2h-.1s-.1 0-.2.1c-.1 0-.2.1-.3.1-.2 0-.4.1-.6.1-.3 0-.7-.1-1-.1-.7-.1-1.3-.3-1.8-.5-.1-.1-.1-.2 0-.2.1-.1.3-.1.3 0 .5.3 1 .5 1.4.9.2.2.3.3.4.5.1.1.1.2.1.3 0 .1-.1.3-.3.3s-.3.2-.5.2-.4.1-.6.1c-.3 0-.7-.1-1-.1-.7-.1-1.2-.3-1.8-.5-.1 0-.1-.1 0-.2s.2-.1.3 0c.5.3 1 .5 1.4.9.2.2.3.3.4.5.1.1.1.2.1.3 0 .1-.1.3-.2.3-.2.1-.3.2-.5.2s-.3.1-.5 0c-.3 0-.7-.1-1-.1-.2 0-.3-.1-.4-.1-.2 0-.3-.1-.4-.2-.2-.1-.3-.1-.4-.2-.2-.1-.3-.1-.4-.2v-.1c.5.1.5.1.6.1"/></g><g><path class="st3" d="M-800.4 581.6c.3.1.5.3.8.3.1.1.3.1.4.2.2.1.3.1.4.2.3.1.6.2.9.2h.4c.2 0 .3 0 .4-.1.1 0 .2-.1.3-.1v-.1c0-.1 0-.2-.1-.3-.1-.1-.1-.2-.2-.3-.2-.2-.3-.3-.5-.4-.1-.1-.2-.1-.3-.2-.1-.1-.3-.1-.3-.2l.3-.3c.4.2.9.3 1.4.4.3.1.5.1.8.1h.3s.2-.1.3-.1c.1-.1.1-.1.1-.2s0-.2-.1-.2c-.1-.2-.2-.3-.3-.4-.3-.3-.7-.4-1.1-.7l.3-.2c.4.2.9.3 1.4.4.3.1.5.1.8.1h.3l.3-.1.1-.1v-.1c0-.1 0-.2-.1-.3-.1-.2-.2-.3-.3-.4-.3-.3-.7-.5-1.1-.7v-.1h.1c.4.2.9.4 1.2.7l.4.4c.1.1.1.2.1.3v.2c0 .1-.1.1-.1.1-.1.1-.3.2-.4.2h-.4c-.3 0-.6 0-.9-.1-.5-.1-1-.3-1.5-.4-.1 0-.1-.1 0-.2s.2-.1.3 0c.4.2.9.4 1.2.7l.4.4c.1.1.1.2.1.3s-.1.3-.2.3-.3.2-.4.2h-.5c-.3 0-.6 0-.9-.1-.5-.1-1-.3-1.5-.4-.1-.1-.1-.2-.1-.2.1-.1.3-.1.3 0 .2.1.3.1.3.2s.3.1.3.2c.3.2.4.3.6.4l.3.3c.1.1.1.2.1.3V582c-.2.1-.3.2-.6.2h-.5c-.2 0-.3-.1-.5-.1l-.9-.3c-.2-.1-.3-.1-.4-.2-.2-.1-.3-.1-.3-.2-.7.5-.9.3-1.2.2"/></g><g><path class="st3" d="M-800.5 572.5c-.1 0-.2.1-.3.1-.2 0-.3-.1-.2-.2.3-.9-.2-1.6-1.4-2.1-1-.4-2.4-.5-3.7-.3-.2 0-.3 0-.3-.1s0-.2.2-.2c1.5-.3 3-.2 4.2.3 1.3.5 1.9 1.5 1.5 2.5.1 0 .1 0 0 0"/></g><g><path class="st6" d="M-717 548.5c-1.9 0-3.7-.2-5-.9l-3.8-2c-.7-.3-1-.9-1-1.4l-.1-6.3c-.3-.3-.6-.4-.9-.6-1.6-.9-3.7-1.3-5.9-1.3-1.9 0-3.7.3-5.2.9h-.1c-.5.2-1.1.3-1.7.3-.7 0-1.4-.2-2-.4-.1 0-.1-.1-.1-.1l-3.8-2c-1.5-.8-2.4-2-2.5-3.2V524.1c.1-1.1.9-2.2 2.2-3.1l26.3-16.2c.1-.1.3-.2.4-.3 4.9-2.8 11.4-4.4 18.2-4.4 6.1 0 12 1.3 16.3 3.6 5.2 2.7 7.9 6.8 7.9 10.9v6.3s-.2.1-.2.2c-.1 3.6-2.4 6.9-6.4 9.7 0 0-.1.1-.2.1-.1.1-.2.1-.3.2l-26.3 16c-1.4 1.1-3.6 1.4-5.8 1.4z"/><path class="st7" d="M-701.9 500.7c5.8 0 11.5 1.2 15.9 3.5 5.3 2.8 8.3 6.7 7.4 10.6v5.5h.2c-.1 4.3-2.1 7.1-6.2 9.8-.1.1-.3.4-.3.5l-26.3 16.4c-1.5.9-3.7 1.5-5.7 1.5-1.8 0-3.5-.3-4.9-1l-3.8-2.1c-.6-.3-.9-.7-.9-1.1l-.1-6.5c-.3-.3-.7-.5-1.1-.7-1.7-.9-3.8-1.4-6-1.4-1.9 0-3.7.3-5.3.9-.5.2-1 .3-1.6.3-.7 0-1.3-.6-1.8-.8v-.5l-3.8-1.6c-1.5-.8-2.2-1.6-2.3-2.7v-7.7c.1-.9.8-1.7 2.1-2.6l26.3-16.2c.1-.1.3-.1.3-.2 4.8-2.5 11.4-3.9 17.9-3.9m0-.6c-6.9 0-13.4 1.5-18.4 4.4-.2.1-.3.2-.4.3l-26.3 16.3c-1.5.9-2.2 2.1-2.4 3.2V531.9c.1 1.4 1 2.6 2.7 3.4l3.8 2s.1.1.2.1c.6.3 1.4.4 2.1.4.7 0 1.3-.1 1.9-.3h.1c1.5-.6 3.2-.9 5-.9 2.1 0 4.2.4 5.7 1.3.3.2.5.3.8.4l.1 6.2c0 .7.4 1.4 1.2 1.7l3.8 2.1c1.4.8 3.2 1.1 5.2 1.1 2.3 0 4.4-.6 6.1-1.5l26.3-16.3c.1-.1.2-.2.3-.2l.1-.1c4.2-2.8 6.4-6.2 6.5-9.9V515c.9-4.4-2.6-8.4-7.9-11.2-4.6-2.5-10.5-3.7-16.5-3.7z"/><g><path class="st8" d="M-678.6 513.5h-1.7v2.8c-.9-1.9-3.1-3.6-5.8-5-9.6-5-24.5-4.6-34 .9-.1.1-.2.2-.3.2l-25.2 15.2-.5-3.8h-2.7v7.7c0 1.1.8 1.8 2.3 2.6l3.8 1.7v.5c.9.5 2.4.7 3.4.3v.1c3.5-1.4 8.2-1.2 11.3.4.4.3.8.5 1.1.8l.1 6.6c0 .4.3.9.9 1.2l3.8 2.1c3 1.5 7.7 1.4 10.6-.3l26.3-16.2c.1-.1.3-.7.3-.7 4.1-2.7 6.2-5.6 6.2-9.8v-7.3z"/><path class="st6" d="M-726.1 536.6c-.7.7-.5 1.5.4 2l3.8 2.1c3 1.5 7.7 1.4 10.6-.3l26.3-16.2c.1-.1.3-.2.3-.3 8.7-5.8 8.2-14.5-1.4-19.4-9.6-5-24.6-4.6-34 .9-.1.1-.3.2-.3.2l-26.3 16.2c-2.8 1.8-2.7 4.4.2 6.1l3.8 2.1c.9.5 2.4.5 3.4.1 3.5-1.4 8.2-1.3 11.3.4 3.3 1.3 3.9 3.9 1.9 6.1z"/></g><g><path class="st7" d="M-723 519.4l.5-.3 1.2.6-.4.3z"/><path class="st7" d="M-721.7 520l.4-.3 1.7 1-.5.2zM-719.6 521.1l.4-.3.9.5-.5.2zM-716.7 522.6l.4-.2.4.2-.4.3zM-714.6 523.7l.4-.2.8.4-.4.3zM-713.8 524.2l.4-.3 1.3.7-.4.3zM-712.1 525l.4-.2 2.1 1.1-.4.2z"/><path class="st7" d="M-710 526.1l.4-.2.8.4-.4.3zM-722.5 519.1l.3-.2.4.1-.3.3zM-720.1 520.4l.5-.2.4.2-.4.3zM-718.8 521.1l.4-.3 1.3.7-.5.3zM-716.7 522.2l.4-.2.4.1-.4.3zM-715.4 522.8l.3-.3.4.3-.3.3zM-714.2 523.5l.4-.3.8.5-.4.2zM-711.7 524.8l.4-.2.4.2-.3.2z"/><path class="st7" d="M-709.2 526.1l.4-.2.5.2-.5.2zM-722.2 518.9l.4-.3.5.2-.5.2zM-721.3 519.3l.4-.3.4.3-.4.2z"/><path class="st7" d="M-720.9 519.5l.4-.2.9.4-.5.3zM-719.6 520.2l.3-.3.4.3-.3.2zM-718.9 520.6l.5-.3.4.3-.4.2zM-717.1 521.5l.4-.2.4.1-.4.3zM-715.9 522.1l.4-.2.4.2-.3.3zM-714.7 522.8l.5-.3 1.2.7-.4.3zM-713 523.7l.5-.3.7.5-.3.2zM-711.3 524.6l.4-.3.4.2-.4.3zM-710.5 525l.5-.2 1.1.6-.3.2zM-708.8 525.9l.4-.3.4.3-.3.2zM-721.8 518.6l.5-.2.4.2-.4.2zM-720.9 519l.4-.2.4.2-.4.3z"/><path class="st7" d="M-720.5 519.3l.4-.3.8.5-.3.2zM-719.3 519.9l.4-.3.5.3-.5.3zM-718.4 520.3l.4-.1.4.1-.4.3zM-717.6 520.8l.5-.2.7.4-.3.3zM-715.5 521.9l.4-.3.9.5-.5.3zM-714.2 522.5l.4-.2.8.4-.4.3zM-713 523.2l.4-.2.4.1-.3.3zM-712.2 523.7l.4-.3.5.3-.5.2zM-710.9 524.3l.4-.2.5.2-.5.2zM-710 524.8l.3-.3 1.3.7-.5.2zM-708.4 525.6l.4-.2.4.2-.4.3zM-721.3 518.4l.3-.3.4.3-.3.2zM-720.5 518.8l.4-.3.4.3-.4.2z"/><path class="st7" d="M-720.1 519l.4-.2.8.4-.4.3zM-718.9 519.6l.5-.2.4.2-.4.3zM-718 520.2l.4-.3 1.2.6-.4.3zM-716.4 521l.4-.2 1.8.8-.5.3zM-713.8 522.3l.3-.3 1.3.7-.4.3zM-711.8 523.4l.5-.3.4.3-.4.3zM-710.5 524.1l.4-.3.4.2-.3.3zM-709.7 524.5l.4-.2 1.3.6-.4.3zM-708 525.4l.4-.3.5.3-.5.2zM-721 518.1l.4-.3.5.3-.5.3z"/><path class="st7" d="M-718.4 519.4l.3-.2.4.2-.3.2zM-717.6 519.9l.4-.3.8.5-.4.2zM-716 520.8l.5-.3.8.4-.4.3zM-714.7 521.4l.4-.2 1.7.8-.4.3zM-712.2 522.7l.4-.2.5.2-.5.3zM-710.9 523.4l.3-.3.5.2-.4.3zM-710.1 523.8l.4-.2.4.2-.4.2zM-707.6 525.1l.4-.2.4.2-.3.3zM-720.6 517.8l.5-.2 1.2.7-.4.2z"/><path class="st7" d="M-719.3 518.5l.4-.2 1.7.8-.5.3zM-717.2 519.6l.4-.2.4.2-.4.2zM-716.4 520.1l.4-.3.5.3-.5.1zM-715.5 520.5l.3-.3.4.3-.3.3zM-714.7 520.9l.4-.2.4.2-.4.3zM-713.9 521.4l.4-.3.5.3-.5.2zM-713 521.8l.4-.2.4.2-.4.2zM-712.2 522.3l.4-.3.4.2-.4.3zM-711.3 522.7l.3-.2.4.1-.4.3zM-710.6 523.1l.5-.2.4.2-.4.2zM-709.7 523.6l.4-.3 2.1 1.1-.4.3z"/><path class="st7" d="M-707.6 524.7l.4-.3.8.5-.4.2zM-716 519.8l.4-.2 1.3.6-.5.3zM-714.3 520.7l.4-.3 1.3.7-.4.3zM-711.4 522.2l.4-.2.4.2-.4.3zM-718.9 517.8l.4-.2.4.2-.4.2z"/><path class="st7" d="M-718.5 518l.4-.2 2.1 1.1-.4.2zM-716 519.3l.4-.2 1.3.6-.5.3zM-714.3 520.2l.4-.2.8.4-.4.3zM-713 520.8l.3-.1.9.4-.5.3zM-711.8 521.5l.4-.2.4.2-.4.3zM-710.1 522.4l.4-.2.3.2-.3.2zM-709.3 522.9l.4-.3.4.2-.4.3zM-708.5 523.3l.4-.2 1.7.8-.4.3zM-706.4 524.4l.4-.2.4.1-.3.3zM-719.4 517.1l.5-.2.8.4-.4.3zM-717.7 518l.4-.2.8.4-.3.2zM-716.5 518.6l.5-.2.4.2-.4.3z"/><path class="st7" d="M-714.3 519.7l.4-.2 1.2.7-.4.2zM-712.3 520.8l.5-.2.4.2-.4.3zM-710.6 521.7l.4-.3.4.3-.3.3z"/><path class="st7" d="M-710.1 522l.3-.3.9.4-.5.3zM-707.2 523.5l.4-.3.8.5-.4.2z"/><path class="st7" d="M-706.4 523.9l.4-.2.8.4-.4.2zM-718.5 517.1l.4-.3.4.3-.4.2zM-716.5 518.2l.5-.3.4.3-.4.2zM-715.6 518.6l.4-.2 1.2.6-.3.3zM-712.7 520.2l.4-.3 1.7.9-.4.2zM-710.2 521.4l.4-.1.4.1-.4.3zM-709.8 521.7l.4-.3.5.3-.5.3zM-708.9 522.1l.4-.2.4.2-.4.3zM-708.1 522.5l.4-.2 1.2.7-.3.2zM-718.5 516.6l.3-.2.5.2-.4.2zM-717.7 517.1l.4-.3.4.2-.4.2zM-716.9 517.5l.4-.3.5.3-.5.3z"/><path class="st7" d="M-715.6 518.2l.3-.3.5.2-.4.3zM-713.6 519.2l.5-.2.4.2-.4.3zM-712.7 519.7l.4-.2 1.2.6-.3.2zM-710.2 521l.4-.2.4.2-.4.3zM-708.5 521.9l.3-.3.9.5-.4.2zM-706.9 522.8l.4-.3.5.2-.5.3zM-706 523.2l.4-.2.4.1-.4.3z"/><path class="st7" d="M-705.6 523.4l.4-.3.8.6-.3.1zM-715.6 517.7l.3-.3.9.4-.4.3zM-714.4 518.4l.4-.3.9.4-.5.3zM-713.1 519l.4-.2.8.4-.4.3zM-711.5 519.9l.4-.3.9.5-.4.2zM-710.2 520.6l.4-.3.4.2-.4.3zM-708.5 521.4l.3-.2.5.2-.5.2zM-707.3 522.1l.4-.2 1.6.8-.3.3zM-704.7 523.4l.3-.3.4.3-.4.3zM-716 517l.3-.3.9.5-.5.2z"/><path class="st7" d="M-714.4 517.8l.4-.1 1.6.8-.3.3zM-711.5 519.4l.4-.3.5.3-.5.2zM-710.6 519.9l.4-.3 2 1.1-.4.2zM-708.2 521.2l.5-.3 1.2.7-.4.3zM-706 522.3l.3-.3.4.2-.3.3zM-705.3 522.7l.5-.2.4.2-.4.2z"/><path class="st7" d="M-704.8 522.9l.4-.2.8.4-.4.3zM-716.5 516.3l.4-.3.4.3-.4.3zM-715.7 516.7l.4-.2 2.1 1.1-.4.2zM-713.1 518.1l.3-.3.4.2-.4.3zM-712.4 518.5l.5-.2.4.1-.4.3zM-711.5 519l.4-.3.5.3-.5.1zM-710.6 519.4l.4-.3.3.3-.3.2zM-709.8 519.8l.3-.2.9.4-.4.2zM-708.6 520.5l.4-.3.5.3-.5.2z"/><path class="st7" d="M-708.2 520.7l.5-.2 1.2.6-.4.3zM-706 521.8l.3-.3.9.5-.5.2zM-704.4 522.7l.4-.2.4.1-.4.3zM-716.5 515.9l.4-.3.8.4-.4.3z"/><path class="st7" d="M-715.7 516.3l.4-.3.8.5-.3.2zM-712.8 517.8l.4-.2 2.9 1.5-.4.3zM-709.5 519.6l.5-.3.4.3-.4.2zM-708.2 520.2l.5-.2.3.2-.3.3zM-706.1 521.4l.4-.3.4.2-.4.2zM-705.3 521.8l.5-.3 1.2.7-.4.3z"/><path class="st7" d="M-704 522.5l.4-.3.8.4-.4.3zM-716.1 515.6l.4-.2.8.4-.4.2zM-714.8 516.2l.3-.2.4.2-.4.3zM-714.1 516.7l.5-.2.8.4-.4.3zM-712.8 517.3l.4-.2.5.2-.5.3zM-711.9 517.8l.3-.3.9.5-.4.3zM-710.7 518.4l.4-.2.4.2-.4.3zM-709.5 519.1l.5-.2 1.2.7-.4.2zM-707.7 520l.3-.3.4.3-.4.2zM-707 520.4l.5-.2.4.2-.4.3zM-706.1 520.8l.4-.2.4.2-.4.3zM-705.7 521.1l.4-.3.5.3-.5.2zM-704.8 521.5l.3-.2.4.2-.3.3zM-704 522l.4-.3.4.3-.4.2z"/><path class="st7" d="M-714.5 516l.4-.2.9.4-.4.3zM-712.8 516.9l.4-.3 1.7.9-.5.3zM-710.7 518l.4-.2.4.1-.4.3zM-709.5 518.6l.5-.2.3.2-.3.3zM-706.1 520.4l.4-.2.8.4-.4.2zM-705.3 520.8l.4-.2.8.4-.4.3zM-703.6 521.7l.4-.3.4.3-.4.3zM-702.8 522.1l.4-.1.5.1-.5.3zM-715.8 514.9l.4-.3.9.5-.4.2zM-714.5 515.5l.4-.2.5.2-.5.3z"/><path class="st7" d="M-713.6 516l.4-.3.8.4-.4.3zM-712 516.8l.4-.2.4.2-.4.3zM-711.2 517.3l.5-.2.4.1-.4.3zM-710.3 517.8l.4-.3.8.4-.4.3zM-708.7 518.6l.4-.2.9.4-.4.2zM-707.4 519.3l.4-.3.5.2-.5.3zM-706.1 519.9l.3-.2.5.2-.4.3zM-704.5 520.8l.4-.2.5.2-.5.2zM-703.6 521.3l.4-.3.8.4-.4.3zM-715.4 514.6l.5-.2.4.2-.4.3zM-714.5 515.1l.4-.2.4.1-.4.3z"/><path class="st7" d="M-714.1 515.3l.4-.3.4.3-.3.2zM-713.2 515.7l.3-.2.5.2-.5.3zM-712.4 516.1l.4-.1 1.3.6-.5.2zM-708.3 518.4l.5-.3.4.3-.4.2zM-706.1 519.5l.3-.3 1.7.9-.4.2zM-704.1 520.6l.5-.3.7.5-.3.2zM-714.9 514.4l.4-.2 1.2.6-.4.2zM-713.3 515.3l.4-.3.5.2-.5.3zM-712.4 515.7l.4-.2.8.4-.4.2zM-710.7 516.6l.3-.3 1.3.7-.4.2zM-709.1 517.4l.4-.2.4.2-.4.3z"/><path class="st7" d="M-708.3 517.9l.5-.2 1.6.8-.4.3zM-706.2 519l.4-.2.5.2-.5.2zM-705.3 519.5l.4-.3.4.2-.4.2zM-704.5 519.9l.4-.3.4.2-.4.3zM-703.6 520.3l.3-.2.9.4-.5.3zM-702.4 521l.4-.2.4.1-.4.3zM-714.5 514.2l.3-.3 1.3.6-.4.3z"/><path class="st7" d="M-713.3 514.8l.4-.3.9.5-.4.2zM-711.6 515.7l.4-.2.4.1-.4.3zM-709.5 516.7l.4-.1.8.4-.4.2zM-708.3 517.4l.4-.2.4.2-.3.3zM-707.4 517.8l.3-.2 1.8.9-.5.3zM-705.3 519l.4-.3.8.4-.4.3zM-702.9 520.3l.5-.2 1.2.6-.4.2z"/><path class="st7" d="M-701.6 520.9l.4-.2.4.2-.4.3zM-714.2 513.9l.5-.2.4.1-.4.3zM-713.3 514.3l.4-.2.5.2-.5.2zM-712.4 514.8l.3-.3.4.3-.3.2zM-711.6 515.2l.4-.3.4.3-.4.3zM-710.8 515.6l.4-.2.4.2-.4.3zM-710 516l.5-.1.4.1-.4.3zM-709.1 516.6l.4-.3.4.2-.4.2zM-707.9 517.2l.4-.3.9.4-.5.3zM-706.2 518.1l.4-.3.5.2-.5.3zM-705.3 518.5l.3-.2.4.1-.3.3zM-704.5 519l.4-.3.8.4-.4.3zM-703.3 519.6l.4-.2.5.2-.5.2zM-702.4 520.1l.4-.3.4.2-.4.2z"/><path class="st7" d="M-701.2 520.7l.4-.3.4.3-.4.2zM-713.7 513.7l.4-.3.3.3-.3.1zM-711.7 514.8l.5-.3.4.2-.4.2zM-710.8 515.2l.4-.3 1.2.7-.3.3zM-709.1 516l.3-.2.5.2-.4.3zM-707.1 517.2l.5-.3.7.4-.3.3zM-705.8 517.8l.4-.2 1.3.6-.5.2zM-703.7 518.9l.4-.2.4.2-.4.2zM-702.9 519.4l.5-.3.7.5-.3.2zM-701.6 520l.4-.3.4.3-.4.2zM-700.4 520.7l.4-.3.5.3-.5.2zM-712.5 513.8l.4-.2.4.2-.4.3zM-712.1 514.1l.4-.3.5.2-.5.3zM-711.2 514.5l.4-.2.8.4-.4.2zM-710 515.1l.4-.2.4.2-.3.3zM-708.3 516l.4-.2 1.3.7-.5.1z"/><path class="st7" d="M-706.6 516.9l.3-.3.4.3-.3.3zM-705 517.8l.4-.3.5.3-.5.2zM-703.3 518.7l.3-.3.9.5-.3.2z"/><path class="st7" d="M-702.4 519.1l.3-.2 1.3.7-.4.1zM-700.8 520l.4-.3.4.3-.4.2zM-700 520.4l.5-.2.3.2-.3.3zM-709.2 515.1l.4-.2.9.4-.4.2zM-707.9 515.8l.4-.3.4.3-.4.2zM-706.3 516.6l.4-.2.5.2-.5.3zM-704.6 517.5l.5-.3.7.6-.3.2zM-703.3 518.2l.3-.3.9.5-.4.2zM-701.2 519.3l.4-.3.8.5-.4.2z"/><path class="st7" d="M-700 520l.4-.3.4.2-.3.3zM-712.5 512.9l.4-.3 1.2.7-.3.3z"/><path class="st7" d="M-711.2 513.6l.3-.3 1.7.9-.4.2zM-709.2 514.7l.4-.3 1.7.9-.4.2zM-707.1 515.8l.4-.3.4.2-.4.3zM-705.4 516.6l.4-.2.8.4-.4.3zM-703.7 517.5l.3-.3.4.3-.4.3zM-702.5 518.2l.4-.3.4.2-.4.3zM-701.7 518.6l.5-.2.4.2-.4.2zM-700.8 519l.3-.2.5.2-.4.3zM-700 519.5l.4-.3.4.3-.4.2zM-712.1 512.6l.3-.2.5.2-.4.3z"/><path class="st7" d="M-709.6 514l.4-.3.4.2-.4.3zM-708.8 514.4l.4-.2.4.1-.3.3zM-707.1 515.3l.4-.3 2.5 1.4-.4.2zM-703.4 517.2l.4-.2.5.2-.5.3zM-702.1 517.9l.4-.2.4.2-.4.2zM-700.5 518.8l.5-.3 1.2.7-.4.3z"/><path class="st7" d="M-699.2 519.5l.4-.3.8.4-.3.3zM-711.8 512.4l.5-.3.4.3-.4.2zM-710.9 512.8l.4-.2.5.2-.5.3zM-710.5 513.1l.5-.3.7.4-.3.3zM-709.2 513.7l.3-.2.5.2-.4.2zM-708.4 514.2l.4-.3.4.3-.4.1zM-707.6 514.6l.5-.3 1.2.7-.4.3zM-705.9 515.5l.4-.3.4.3-.3.2zM-705.1 515.9l.4-.2.5.2-.5.2zM-704.2 516.4l.4-.3 1.3.6-.5.3zM-701.7 517.7l.4-.3.8.4-.4.3zM-700.9 518.1l.4-.3 1.7.9-.4.3zM-698.8 519.2l.4-.2.8.4-.4.2z"/><path class="st7" d="M-711.3 512.1l.4-.2.4.2-.4.3zM-710.5 512.6l.5-.2.3.1-.3.3z"/><path class="st7" d="M-710 512.8l.3-.3.8.5-.4.2zM-708.9 513.5l.5-.3.4.2-.4.3zM-708 513.9l.4-.2.9.4-.4.2zM-706.7 514.6l.3-.3 2.2 1.2-.5.2zM-704.2 515.9l.4-.3.4.3-.4.2zM-703.4 516.3l.4-.3.8.5-.3.2zM-702.2 517l.4-.3.9.5-.4.2zM-699.6 518.3l.3-.3 1.3.7-.4.3zM-698.4 519l.4-.3.4.3-.4.2zM-710.9 511.9l.3-.2.5.2-.4.2z"/><path class="st7" d="M-710 512.4l.3-.3.4.2-.4.2z"/><path class="st7" d="M-709.7 512.5l.4-.2.9.4-.5.3zM-708.4 513.2l.4-.2.4.2-.4.2zM-707.6 513.7l.5-.3 1.6.9-.4.2zM-705.5 514.8l.4-.3.4.3-.4.1zM-704.7 515.2l.5-.3.4.3-.4.3zM-703.8 515.6l.3-.2 1.3.6-.4.3zM-702.2 516.5l.4-.2.5.2-.5.2zM-701.8 516.7l.5-.2.8.4-.4.3zM-700.5 517.4l.5-.2.3.1-.3.3zM-700 517.6l.3-.3.9.5-.5.2zM-698.4 518.5l.4-.2.4.1-.4.3zM-698 518.7l.4-.3.5.3-.5.3zM-710.6 511.7l.5-.3.4.2-.4.3z"/><path class="st7" d="M-708 513l.3-.3.5.3-.4.2zM-706.4 513.8l.5-.2.4.2-.4.3zM-705.5 514.3l.4-.2 1.2.6-.3.2zM-703 515.6l.4-.2.4.2-.4.2zM-702.2 516l.4-.2.5.2-.5.3zM-701.3 516.5l.4-.3.8.4-.4.3zM-699.7 517.3l.4-.2 1.3.7-.4.2zM-697.1 518.7l.3-.3.4.2-.3.3zM-710.1 511.4l.4-.2 1.2.7-.4.1z"/><path class="st7" d="M-708.9 512l.4-.1 1.7.8-.4.3zM-706.4 513.4l.5-.3.4.2-.4.3zM-704.7 514.3l.4-.3.4.3-.4.2zM-703.5 514.9l.5-.2.8.4-.4.3zM-702.2 515.6l.4-.2 1.2.6-.3.2zM-700.6 516.5l.5-.3 1.3.7-.5.2zM-698 517.8l.4-.3.4.3-.4.2z"/></g></g><g><path class="st9" d="M-769 556.9c-2.7 0-5.1-.5-7-1.5l-3.1-1.7-2-1c-.9-.5-1.5-1.3-1.7-2.2v-.3-7c0-.2-.1-.3-.1-.4v-.7c-.3-.3-.6-.4-.9-.6-2-1-4.6-1.6-7.4-1.6-2.3 0-4.6.4-6.6 1.1-.9.3-1.8.5-2.7.5-1 0-2-.2-2.8-.6l-5.3-2.8c-2.3-1.2-3.6-3-3.7-5v-.3V525.7v-.3c-.1-2 1.1-3.8 3.3-5.2l25.7-15.9c2.1-1.4 5.1-2.1 8.2-2.1 2.7 0 5.1.5 7 1.5l5.1 2.7c.5.3 1.2.4 1.9.4.6 0 1.2-.1 1.7-.3h.1c2.2-.9 4.8-1.3 7.4-1.3 3.2 0 6.2.7 8.6 1.9 2.5 1.3 4 3.2 4.4 5.2.1.7.1 1.4-.1 2.1v4.6l3.6 1.9c2.3 1.2 3.6 3 3.7 5v7.6c-.1 2.1-1.2 3.8-3.3 5.2l-25.7 15.9c-2.2 1.6-5.2 2.3-8.3 2.3z"/><path class="st10" d="M-775 502.7c2.6 0 5 .5 6.9 1.5l3.2 1.6 2 1c.5.3 1.2.4 2 .4.7 0 1.3-.1 1.8-.3h.1c2.2-.9 4.8-1.3 7.4-1.3 3.2 0 6.2.7 8.4 1.9 2.4 1.3 3.8 3.1 4.2 5 .1.7.1 1.3-.1 2v4.9l1.5.8 2.2 1.2c2.2 1.2 3.4 2.8 3.5 4.7v7.6c-.1 1.9-1 3.7-3.2 5l-10.2 6.3-5.4 3.3-10.1 6.2c-2.1 1.3-5 2.1-8 2.1-2.6 0-5-.5-6.8-1.5l-3.2-1.6-2-1c-.9-.5-1.5-1.2-1.5-2.1v-7.2c0-.2-.1-.3-.1-.4v-.8c-.3-.3-.7-.5-1.1-.8-2.1-1-4.7-1.6-7.5-1.6-2.4 0-4.7.4-6.7 1.2h-.1c-.8.3-1.6.4-2.6.4s-1.9-.2-2.7-.6l-.2-.1-3-1.3-2.2-1.2c-2.2-1.2-3.4-2.8-3.5-4.7V526v-.3c-.1-1.9 1-3.6 3.2-5l10.2-6.3 5.4-3.3 10.2-6.3c2.1-1.4 5-2.1 8-2.1m0-.6c-3.1 0-6.2.8-8.4 2.1l-10.2 6.3-5.4 3.3-10.2 6.3c-2.3 1.5-3.5 3.3-3.4 5.5v7.7c.1 2.1 1.5 3.9 3.8 5.2l2.2 1.2 2.8 1.5.2.1c.1 0 .1.1.2.1.9.3 1.8.6 2.8.6.9 0 1.9-.2 2.7-.5h.1c2-.8 4.2-1.1 6.5-1.1 2.8 0 5.4.5 7.3 1.5.3.2.5.3.8.5v.5c0 .2.1.3.1.4V550.5c.2 1 .8 1.9 1.8 2.5l2 1 3.2 1.6c2 1 4.5 1.6 7.2 1.6 3.1 0 6.2-.8 8.4-2.1l10.2-6.3 5.4-3.3 10.2-6.3c2.2-1.4 3.4-3.2 3.4-5.4v-6.5-.1-.5-.6c-.1-2.1-1.5-3.9-3.8-5.2l-2.2-1.2-1.2-.6v-4.4c.2-.7.2-1.5.1-2.1-.3-2.1-2-4.1-4.5-5.5-2.4-1.3-5.5-2-8.6-2-2.7 0-5.3.4-7.6 1.4-.1 0-.1 0-.1.1-.4.2-1 .3-1.6.3-.7 0-1.3-.1-1.7-.3l-.3.5.3-.5-2-1-3.2-1.6c-2.1-1.3-4.6-1.9-7.3-1.9z"/><g class="st4"><path d="M-769 556.9c-2.7 0-5.1-.5-7-1.5l-3.1-1.7-2-1c-.9-.5-1.5-1.3-1.7-2.2v-.3-7c0-.2-.1-.3-.1-.4v-.7c-.3-.3-.6-.4-.9-.6-2-1-4.6-1.6-7.4-1.6-2.3 0-4.6.4-6.6 1.1-.9.3-1.8.5-2.7.5-1 0-2-.2-2.8-.6l-5.3-2.8c-2.3-1.2-3.6-3-3.7-5v-.3V525.7v-.3c-.1-2 1.1-3.8 3.3-5.2l25.7-15.9c2.1-1.4 5.1-2.1 8.2-2.1 2.7 0 5.1.5 7 1.5l5.1 2.7c.5.3 1.2.4 1.9.4.6 0 1.2-.1 1.7-.3h.1c2.2-.9 4.8-1.3 7.4-1.3 3.2 0 6.2.7 8.6 1.9 2.5 1.3 4 3.2 4.4 5.2.1.7.1 1.4-.1 2.1v4.6l3.6 1.9c2.3 1.2 3.6 3 3.7 5v7.6c-.1 2.1-1.2 3.8-3.3 5.2l-25.7 15.9c-2.2 1.6-5.2 2.3-8.3 2.3z"/><path d="M-775 502.7c2.6 0 5 .5 6.9 1.5l3.2 1.6 2 1c.5.3 1.2.4 2 .4.7 0 1.3-.1 1.8-.3h.1c2.2-.9 4.8-1.3 7.4-1.3 3.2 0 6.2.7 8.4 1.9 2.4 1.3 3.8 3.1 4.2 5 .1.7.1 1.3-.1 2v4.9l1.5.8 2.2 1.2c2.2 1.2 3.4 2.8 3.5 4.7v7.6c-.1 1.9-1 3.7-3.2 5l-10.2 6.3-5.4 3.3-10.1 6.2c-2.1 1.3-5 2.1-8 2.1-2.6 0-5-.5-6.8-1.5l-3.2-1.6-2-1c-.9-.5-1.5-1.2-1.5-2.1v-7.2c0-.2-.1-.3-.1-.4v-.8c-.3-.3-.7-.5-1.1-.8-2.1-1-4.7-1.6-7.5-1.6-2.4 0-4.7.4-6.7 1.2h-.1c-.8.3-1.6.4-2.6.4s-1.9-.2-2.7-.6l-.2-.1-3-1.3-2.2-1.2c-2.2-1.2-3.4-2.8-3.5-4.7V526v-.3c-.1-1.9 1-3.6 3.2-5l10.2-6.3 5.4-3.3 10.2-6.3c2.1-1.4 5-2.1 8-2.1m0-.6c-3.1 0-6.2.8-8.4 2.1l-10.2 6.3-5.4 3.3-10.2 6.3c-2.3 1.5-3.5 3.3-3.4 5.5v7.7c.1 2.1 1.5 3.9 3.8 5.2l2.2 1.2 2.8 1.5.2.1c.1 0 .1.1.2.1.9.3 1.8.6 2.8.6.9 0 1.9-.2 2.7-.5h.1c2-.8 4.2-1.1 6.5-1.1 2.8 0 5.4.5 7.3 1.5.3.2.5.3.8.5v.5c0 .2.1.3.1.4V550.5c.2 1 .8 1.9 1.8 2.5l2 1 3.2 1.6c2 1 4.5 1.6 7.2 1.6 3.1 0 6.2-.8 8.4-2.1l10.2-6.3 5.4-3.3 10.2-6.3c2.2-1.4 3.4-3.2 3.4-5.4v-6.5-.1-.5-.6c-.1-2.1-1.5-3.9-3.8-5.2l-2.2-1.2-1.2-.6v-4.4c.2-.7.2-1.5.1-2.1-.3-2.1-2-4.1-4.5-5.5-2.4-1.3-5.5-2-8.6-2-2.7 0-5.3.4-7.6 1.4-.1 0-.1 0-.1.1-.4.2-1 .3-1.6.3-.7 0-1.3-.1-1.7-.3l-.3.5.3-.5-2-1-3.2-1.6c-2.1-1.3-4.6-1.9-7.3-1.9z"/></g><path class="st9" d="M-731.6 533.7v-8.2h-2.6v3.8c0-.1-.7-.3-.9-.3l-2.4-1.2-2.9-1.5c-.3-.2-.7-.4-.7-.7 0-.2.2-.4.3-.5h.3c1.4-1.4 2.1-3.1 2.1-4.7v-7.7h-3.4v3.1c0-.3-.9-.4-1.2-.6-2.3-1.2-5.4-1.9-8.5-1.9-2.7 0-5.2.4-7.4 1.3h-.1c-.5.2-1.2.3-1.9.3-.8 0-1.5-.2-2-.4l-2.1-1-3.1-1.6c-1.9-1-4.3-1.5-6.9-1.5-3 0-6 .8-8 2.1l-10.2 6.3-5.4 3.3-10 6.2c-.1.1 0 .1 0 .2v-2.9h-3.4v7.6c.1 1.9 1.4 3.5 3.5 4.7l2.3 1.2 2.8 1.5.2.1h.1c.8.3 1.7.6 2.7.6.9 0 1.8-.2 2.6-.4h.1c2-.8 4.3-1.2 6.7-1.2 2.8 0 5.6.3 7.5 1.4.7.3 1.2.9 1.7.9h-.2v8.1c0 .2-.2.3-.2.4.1.9.5 1.5 1.5 2.1l2 1 3.1 1.6c1.9 1 4.3 1.5 6.8 1.5 3 0 6-.8 8-2.1l10.2-6.3 5.4-3.3 10.4-6.3c2.1-1.3 3.2-3.2 3.2-5z"/><g><path class="st11" d="M-735.4 521.3l-2.2-1.2-2.8-1.5c-.3-.2-.6-.4-.7-.7 0-.2.2-.4.3-.5 1.5-1.5 2.1-3.2 1.8-5-.3-2-1.8-3.8-4.2-5-2.3-1.2-5.3-1.9-8.4-1.9-2.7 0-5.1.4-7.4 1.3h-.1c-.5.2-1.2.3-1.8.3-.8 0-1.5-.2-2-.4l-2.1-.9-3.2-1.6c-1.9-1-4.3-1.5-6.9-1.5-3 0-6 .8-8 2.1l-10.2 6.2-5.4 3.3-10.2 6.3c-2.1 1.3-3.2 3.1-3.2 5 .1 1.9 1.3 3.5 3.5 4.7l2.2 1.2 2.8 1.5.2.1c.8.3 1.7.5 2.7.5.9 0 1.8-.2 2.6-.4h.1c2-.8 4.3-1.2 6.7-1.2 2.8 0 5.6.6 7.5 1.6 1.9 1 3 2.3 3.2 3.7.2 1.1-.3 2.3-1.3 3.3-.6.6-.9 1.4-.9 2.1.1.9.7 1.5 1.5 2.1l2.1 1 3.2 1.6c1.9.9 4.3 1.5 6.9 1.5 3 0 6-.8 8-2.1l10.2-6.3 5.4-3.3 10.2-6.3c2.1-1.3 3.2-3.1 3.2-5 .1-1.8-1.1-3.4-3.3-4.6z"/><path class="st9" d="M-760.5 517.6l-12 .4c-1 0-1.9.5-1.8 1.1 0 .6.9 1 1.9 1l7.4-.3-12.4 7.7c-.7.4-.7 1.1.1 1.5.8.4 1.9.3 2.7-.1l12.4-7.7.2 4.3c0 .6.9 1 1.9 1 .5 0 .9-.2 1.3-.3.3-.2.5-.5.5-.8l-.3-6.8c-.1-.6-.9-1-1.9-1"/><path d="M-760.5 517.6l-12 .4c-1 0-1.9.5-1.8 1.1 0 .6.9 1 1.9 1l7.4-.3-12.4 7.7c-.7.4-.7 1.1.1 1.5.8.4 1.9.3 2.7-.1l12.4-7.7.2 4.3c0 .6.9 1 1.9 1 .5 0 .9-.2 1.3-.3.3-.2.5-.5.5-.8l-.3-6.8c-.1-.6-.9-1-1.9-1" class="st4"/></g></g></svg>