<svg id="Capa_1" xmlns="http://www.w3.org/2000/svg" xmlns:xlink="http://www.w3.org/1999/xlink" viewBox="0 0 200 200"><style>.st0{stroke:#472728;stroke-width:3.0546;stroke-miterlimit:10}.st0,.st1{fill:#efce36}.st2{fill:none;stroke:#472728;stroke-width:3.0546;stroke-miterlimit:10}.st3{fill:#512710}.st4{fill:#009245}.st5{fill:#fff}</style><path class="st0" d="M27.5 41.6c0-4 3.2-7.2 7.2-7.2h39.9c5.1 0 10.5 14.4 15.9 14.4h67.3c4 0 7.2 3.2 7.2 7.2v3.6H27.6v-18h-.1z"/><image width="185" height="120" xlink:href="328340C38EA90DB5.png" transform="translate(4.383 47.383)" overflow="visible" opacity=".5"/><path class="st1" d="M168.5 146.6c0 4-3.2 7.2-7.2 7.2h-130c-4 0-7.2-3.2-7.2-7.2L16.9 67c0-4 3.2-7.2 7.2-7.2h144.7c4 0 7.2 3.2 7.2 7.2l-7.5 79.6z"/><path class="st2" d="M168.5 146.6c0 4-3.2 7.2-7.2 7.2h-130c-4 0-7.2-3.2-7.2-7.2L16.9 67c0-4 3.2-7.2 7.2-7.2h144.7c4 0 7.2 3.2 7.2 7.2l-7.5 79.6z"/><g><image width="129" height="27" xlink:href="328340C38EA90DB4.png" transform="translate(32.06 93.06)" overflow="visible" opacity=".5"/><path class="st3" d="M35.9 97.6h4.2v7.7l7-7.7h5.1l-7.4 8.2c.6.9 1.8 2.5 3.5 5 1.7 2.4 3 4.2 3.9 5.4h-4.9l-5.5-7.4-1.9 2.1v5.3h-4.2V97.6zM54.8 100.1c-.5-.5-.7-1-.7-1.7s.2-1.2.7-1.7c.5-.5 1-.7 1.7-.7s1.2.2 1.7.7c.5.5.7 1 .7 1.7s-.2 1.2-.7 1.7c-.5.5-1 .7-1.7.7s-1.3-.2-1.7-.7zm3.6 16.2h-4V102h4v14.3zM68 116.5c-1.7 0-3.2-.7-4.5-2.2-1.3-1.4-2-3.2-2-5.4s.6-3.9 1.9-5.2c1.3-1.4 2.8-2 4.6-2s3.2.6 4.3 1.8v-7h4v19.8h-4v-1.9c-1.2 1.4-2.6 2.1-4.3 2.1zm-2.5-7.4c0 1.2.3 2.1 1 2.8.7.7 1.5 1.1 2.4 1.1.9 0 1.7-.4 2.4-1.1.6-.7 1-1.7 1-2.9s-.3-2.1-1-2.9c-.6-.8-1.4-1.2-2.4-1.2-.9 0-1.8.4-2.4 1.2-.7.9-1 1.9-1 3zM90.8 111.8c0 1.4-.5 2.5-1.6 3.4-1 .9-2.4 1.3-4 1.3-1.1 0-2.2-.2-3.3-.6s-2.2-.9-3.1-1.7l1.8-2.5c1.5 1.2 3.1 1.7 4.8 1.7.5 0 .9-.1 1.2-.3.3-.2.5-.5.5-.8 0-.3-.2-.6-.6-.9-.4-.3-1-.6-1.8-.8-.8-.2-1.4-.5-1.8-.6-.4-.2-.9-.4-1.4-.8-1.1-.7-1.6-1.7-1.6-3s.5-2.4 1.6-3.2c1.1-.8 2.4-1.3 4.1-1.3 1.7 0 3.4.6 5.1 1.7l-1.5 2.7c-1.2-.9-2.5-1.3-3.7-1.3-1.2 0-1.9.3-1.9 1 0 .4.2.7.6.9.4.2 1 .5 1.9.7.9.3 1.6.5 1.9.7l1.4.7c.9.6 1.4 1.6 1.4 3zM100.7 112.9c1.3 0 2.5-.7 3.6-2l2.4 2.7c-1.8 1.9-3.8 2.9-6 2.9s-4-.7-5.5-2c-1.5-1.4-2.2-3.1-2.2-5.3 0-2.2.8-4 2.3-5.4 1.5-1.4 3.3-2.1 5.3-2.1 1 0 2.1.2 3.1.6 1.1.4 2 1.1 2.8 1.9l-2.1 2.7c-.5-.6-1-1-1.7-1.3-.7-.3-1.3-.5-2-.5-1 0-2 .3-2.7 1-.8.7-1.1 1.6-1.1 2.9 0 1.2.4 2.2 1.1 2.8.8.8 1.7 1.1 2.7 1.1zM123.5 109.1c0 2.1-.7 3.8-2.2 5.3-1.4 1.4-3.2 2.1-5.4 2.1s-4-.7-5.4-2.1c-1.4-1.4-2.2-3.2-2.2-5.3 0-2.1.7-3.8 2.2-5.3 1.4-1.4 3.2-2.1 5.4-2.1s4 .7 5.4 2.1c1.5 1.5 2.2 3.2 2.2 5.3zm-11.2 0c0 1.2.3 2.1 1 2.9.7.7 1.5 1.1 2.6 1.1 1 0 1.9-.4 2.6-1.1.7-.7 1-1.7 1-2.9s-.3-2.1-1-2.9c-.7-.7-1.5-1.1-2.6-1.1-1 0-1.9.4-2.6 1.1-.6.8-1 1.7-1 2.9zM132.2 116.5c-1.7 0-3.2-.7-4.5-2.2-1.3-1.4-2-3.2-2-5.4s.6-3.9 1.9-5.2c1.3-1.4 2.8-2 4.6-2 1.7 0 3.2.6 4.3 1.8v-7h4v19.8h-4v-1.9c-1.2 1.4-2.6 2.1-4.3 2.1zm-2.5-7.4c0 1.2.3 2.1 1 2.8.7.7 1.5 1.1 2.4 1.1s1.7-.4 2.4-1.1c.6-.7 1-1.7 1-2.9s-.3-2.1-1-2.9c-.6-.8-1.4-1.2-2.4-1.2s-1.8.4-2.4 1.2c-.7.9-1 1.9-1 3zM156.6 114.2c-1.6 1.5-3.5 2.3-5.7 2.3s-4-.7-5.4-2c-1.4-1.3-2.1-3.1-2.1-5.4s.7-4.1 2.2-5.4c1.4-1.3 3.2-2 5.1-2 2 0 3.6.6 5 1.8s2.1 2.8 2.1 4.9v2.1h-10.5c.1.8.5 1.4 1.2 1.9s1.5.7 2.3.7c1.4 0 2.6-.5 3.5-1.4l2.3 2.5zm-3.8-8.5c-.6-.5-1.2-.7-2-.7s-1.5.2-2.2.7c-.7.5-1 1.1-1.1 1.9h6.3c-.2-.8-.5-1.4-1-1.9z"/></g><g><path class="st4" d="M152.1 22c-18-5.6-37 4.4-42.6 22.4s4.4 37 22.4 42.6 37-4.4 42.6-22.4-4.5-37-22.4-42.6z"/><path class="st5" d="M161.3 51.2l-23.4 14.1c-.7.5-1.6.5-2.4.3-.6-.2-1.2-.6-1.5-1.2l-8.2-12c-.9-1.3-.5-3.1.8-4s3.1-.5 4 .8l6.6 9.8 21-12.7c1.4-.9 3.2-.4 3.9 1 1 1.3.6 3-.8 3.9z"/></g></svg>