<svg xmlns="http://www.w3.org/2000/svg" xmlns:xlink="http://www.w3.org/1999/xlink" width="160" height="231" viewBox="0 0 160 231"><defs><path id="a" d="M161-5H-1l2 246h160z"/></defs><clipPath id="b"><use xlink:href="#a" overflow="visible"/></clipPath><path clip-path="url(#b)" fill="#472728" d="M449.217 0H-178.8c.243-3 .15-5.797.148-5.828l-.224-5.664a1.934 1.934 0 0 0-.656-1.375 1.996 1.996 0 0 0-1.355-.507c-.037 0-.073.01-.108.012l-5.284.29c-.03 0-.06.006-.09.01l-.062.006c-.718.062-1.79.182-3.117.408 2.795-4.89 3.712-9.765 3.9-10.932l.834-5.19a2.01 2.01 0 0 0-.377-1.526 2.008 2.008 0 0 0-1.36-.79l-5.188-.654c-.257-.032-1.626-.192-3.575-.192-4.19 0-10.006.676-15.01 3.707a18.027 18.027 0 0 0 .94-6.752c-.605-11.82-9.754-21.537-10.144-21.945l-4.035-4.227a2.015 2.015 0 0 0-1.456-.622c-.035 0-.07 0-.104.002-.585.03-1.13.314-1.488.777l-3.584 4.613c-.302.387-6.582 8.58-7.717 18.568-8.644-5.86-19.215-6.79-19.716-6.83l-5.22-.432a2.014 2.014 0 0 0-2.178 1.923l-.224 5.236c-.027.666-.56 16.343 8.227 26.315 2.89 3.283 6.71 5.385 11.146 6.156a11.02 11.02 0 0 0-.074 1.58 36.85 36.85 0 0 0-4.057-.238c-.71 0-1.114.025-1.114.025a2.3 2.3 0 0 0-.287.038l-5.733 1.186c-1.036.214-1.73 1.05-1.588 2.1l.12.754h-93.227c-24.25 0-43.978 19.842-43.978 44s19.73 44 43.978 44h55.606c-6.7 7-10.464 17.038-10.464 27.45 0 23.047 18.794 41.55 41.896 41.55h67.743c-6.705 8-10.6 17.913-10.6 28.432 0 23.327 18.795 46.568 41.896 46.568H263.14c23.103 0 41.897-23.24 41.897-46.568 0-10.52-3.894-20.432-10.6-28.432h67.745c23.1 0 41.895-18.503 41.895-41.55 0-10.412-3.763-20.45-10.463-27.45h55.602C473.47 88 493.2 68.158 493.2 44S473.47 0 449.217 0z"/><g clip-path="url(#b)"><path fill="#916633" d="M397.028 116.057c0 19.248-15.603 34.845-34.845 34.845h-626.98c-19.246 0-34.846-15.597-34.846-34.845 0-19.244 15.6-34.846 34.845-34.846h626.98c19.244 0 34.846 15.603 34.846 34.847z"/><circle opacity=".3" fill="#734A1E" cx="30.342" cy="135.863" r="34.289"/><path opacity=".6" fill="#A67339" d="M197.297 139.29c0 19.67-15.947 35.613-35.61 35.613-19.67 0-35.613-15.942-35.613-35.612s15.944-35.61 35.612-35.61c19.664 0 35.61 15.94 35.61 35.61z"/><path opacity=".6" fill="#A67339" d="M196.795 149.81c0 11.005-8.924 19.923-19.93 19.923-11.003 0-19.924-8.918-19.924-19.923 0-11.007 8.922-19.93 19.925-19.93 11.006 0 19.93 8.923 19.93 19.93zM17.133 144.273c0 9.35-7.584 16.933-16.938 16.933-9.35 0-16.933-7.583-16.933-16.933 0-9.355 7.583-16.938 16.933-16.938 9.354 0 16.938 7.583 16.938 16.938z"/><path fill="#734A1E" d="M297.988 185.746c0 19.248-15.602 38.88-34.846 38.88h-428.9c-19.246 0-34.846-19.632-34.846-38.88 0-19.244 15.6-34.845 34.846-34.845h428.9c19.245 0 34.846 15.602 34.846 34.846z"/><path fill="#BCE63D" d="M486.15 44.283c0 20.396-16.538 36.928-36.934 36.928h-801.054c-20.396 0-36.927-16.53-36.927-36.927 0-20.396 16.53-36.927 36.927-36.927h801.054c20.396 0 36.934 16.53 36.934 36.927z"/><path opacity=".1" d="M-351.837 81.21h801.054c20.396 0 36.934-16.53 36.934-36.927h-874.913c0 20.397 16.53 36.928 36.926 36.928z"/><path opacity=".3" fill="#A67339" d="M17.355 192.572a4.575 4.575 0 0 1-9.15 0c0-2.524 2.05-4.57 4.573-4.57a4.57 4.57 0 0 1 4.575 4.57z"/><path opacity=".3" fill="#734A1E" d="M21.462 101.16a4.575 4.575 0 1 1-9.15 0c0-2.523 2.05-4.57 4.577-4.57a4.574 4.574 0 0 1 4.572 4.57z"/><path opacity=".6" fill="#A67339" d="M118.217 111.43a4.575 4.575 0 1 1-9.15 0 4.573 4.573 0 0 1 4.573-4.572 4.573 4.573 0 0 1 4.577 4.572z"/><circle fill="#68431C" cx="10.958" cy="174.41" r="4.108"/><path opacity=".3" fill="#A67339" d="M80.29 150.9a28.517 28.517 0 0 0-2.127 10.813c0 15.8 12.81 28.604 28.607 28.604 15.8 0 28.606-12.803 28.606-28.604 0-3.828-.764-7.476-2.128-10.812H80.29z"/></g><g clip-path="url(#b)"><path fill="#472728" d="M-294 82h684v5h-684z"/></g><g clip-path="url(#b)"><path fill="#472728" d="M-203 151h509v5h-509z"/></g></svg>